<?xml version="1.0" encoding="UTF-8"?>
<svg id="Layer_2" data-name="Layer 2" xmlns="http://www.w3.org/2000/svg" xmlns:xlink="http://www.w3.org/1999/xlink" viewBox="0 0 17.57 20.13">
  <defs>
    <style>
      .cls-1 {
        fill: url(#linear-gradient);
      }

      .cls-1, .cls-2, .cls-3, .cls-4, .cls-5 {
        stroke-width: 0px;
      }

      .cls-2 {
        fill: url(#linear-gradient-5);
      }

      .cls-3 {
        fill: url(#linear-gradient-2);
      }

      .cls-4 {
        fill: url(#linear-gradient-3);
      }

      .cls-5 {
        fill: url(#linear-gradient-4);
      }
    </style>
    <linearGradient id="linear-gradient" x1=".61" y1="12.55" x2="16.94" y2="12.55" gradientUnits="userSpaceOnUse">
      <stop offset=".03" stop-color="#7e72d3"/>
      <stop offset="1" stop-color="#766ac5"/>
    </linearGradient>
    <linearGradient id="linear-gradient-2" x1="3.03" y1="13.8" x2="14.53" y2="13.8" xlink:href="#linear-gradient"/>
    <linearGradient id="linear-gradient-3" x1="0" y1="5.26" x2="17.57" y2="5.26" xlink:href="#linear-gradient"/>
    <linearGradient id="linear-gradient-4" x1="1.06" y1="1.94" x2="16.5" y2="1.94" xlink:href="#linear-gradient"/>
    <linearGradient id="linear-gradient-5" x1="8.18" y1="15.66" x2="13.68" y2="15.66" xlink:href="#linear-gradient"/>
  </defs>
  <g id="Layer_2-2" data-name="Layer 2">
    <g>
      <path class="cls-1" d="M16.93,13.93c.05-2.47-.76-4.63-2.39-6.42-1.48-1.61-3.6-2.54-5.82-2.54-1.36,0-2.69.35-3.85,1.02C1.43,7.98-.2,12.17,1.01,15.96c.32,1,.8,1.92,1.44,2.72.12.16.26.23.43.23.05,0,.1,0,.15-.02.21-.05.35-.2.39-.43.04-.18-.04-.33-.19-.52-2.34-3.07-2.03-7.26.74-9.96,1.27-1.24,3.01-1.95,4.79-1.95,1.18,0,2.33.31,3.34.89,1.9,1.1,3.11,2.81,3.6,5.09.13.6.26,1.38.12,2.17-.16.9-.92,1.55-1.83,1.55-.31,0-.61-.08-.88-.23-.6-.34-.93-.88-.98-1.6-.01-.14-.02-.29-.02-.43-.01-.33-.03-.66-.11-.97-.36-1.36-1.25-2.22-2.58-2.49-.25-.05-.49-.08-.73-.08-1.01,0-1.86.47-2.52,1.39-.79,1.11-.97,2.39-.5,3.71.91,2.55,2.56,4.27,4.88,5.09h.33l.12-.06c.22-.11.33-.33.29-.57-.04-.22-.22-.39-.47-.45-.27-.07-.58-.14-.84-.3-1.35-.82-2.37-1.94-3.03-3.32-.42-.86-.54-1.64-.38-2.39.2-.98.72-1.63,1.54-1.92.21-.08.44-.11.67-.11,1.12,0,2.1.88,2.23,2.01.02.2.03.4.04.6,0,.23.01.46.05.68.2,1.41,1.46,2.51,2.87,2.51.06,0,.11,0,.17,0,1.54-.1,2.77-1.36,2.8-2.88Z"/>
      <path class="cls-3" d="M14.53,13.28c-.01-1.02-.28-2-.79-2.9-1.02-1.8-2.93-2.92-4.97-2.92-.9,0-1.79.22-2.58.64-2.66,1.4-3.83,4.58-2.73,7.41.58,1.47,1.5,2.89,2.81,4.32.08.08.18.15.28.22l.09.09h.25l.09-.05c.08-.04.15-.09.2-.14.19-.21.16-.51-.08-.77-1.17-1.26-1.97-2.44-2.52-3.7-.66-1.5-.64-2.97.06-4.35.81-1.59,2.39-2.58,4.15-2.58,1.13,0,2.22.43,3.07,1.2,1.03.94,1.56,2.14,1.6,3.57,0,.37.22.61.56.61h0c.32-.01.52-.25.51-.63Z"/>
      <path class="cls-4" d="M12.99,4.58c1.43.74,2.64,1.81,3.57,3.18.12.17.29.27.47.27.11,0,.21-.03.3-.1.12-.08.2-.2.22-.34.03-.14-.01-.3-.11-.44-2.11-2.99-5.03-4.57-8.67-4.68-.94,0-1.87.13-2.74.38C3.56,3.57,1.55,5.03.08,7.2c-.07.1-.1.26-.08.42.02.2.16.35.39.4.05.01.09.02.14.02.17,0,.32-.08.44-.24l.21-.28c.21-.29.43-.57.67-.84,1.79-1.98,4.33-3.12,6.95-3.12,1.45,0,2.91.36,4.2,1.03Z"/>
      <path class="cls-5" d="M16.27,2.9C14.17,1.04,11.69.04,9.09,0c-1.83,0-3.38.32-4.85.98-1.08.48-2.08,1.14-2.96,1.94-.25.23-.28.54-.08.78.1.12.24.18.38.18s.28-.06.41-.17l.21-.18c1.79-1.52,3.85-2.34,6.13-2.44.16,0,.32-.01.48-.01,2.12,0,4.1.65,5.88,1.93.21.15.41.32.61.48l.31.25c.11.09.24.14.37.14.26,0,.46-.18.51-.44.04-.2-.03-.37-.22-.54Z"/>
      <path class="cls-2" d="M13.12,17.82c-.43-.02-.83-.14-1.21-.35-.99-.55-1.71-1.38-2.23-2.53-.27-.61-.41-1.27-.42-1.94,0-.3-.19-.53-.54-.57-.23,0-.44.15-.5.37-.02.07-.03.16-.03.25v.12c.13,1.94.98,3.54,2.51,4.76.76.6,1.53.92,2.36.96h.03c.32,0,.56-.22.57-.52.01-.3-.22-.53-.55-.55Z"/>
    </g>
  </g>
</svg>