<?xml version="1.0" encoding="UTF-8"?>
<svg id="Layer_2" data-name="Layer 2" xmlns="http://www.w3.org/2000/svg" viewBox="0 0 27.37 21.62">
  <defs>
    <style>
      .cls-1 {
        fill: #7e72d3;
        stroke-width: 0px;
      }
    </style>
  </defs>
  <g id="Layer_3" data-name="Layer 3">
    <path class="cls-1" d="M26.94,9.35c.17-.21.29-.46.43-.69v-.53c-.02-.06-.05-.11-.07-.17-.25-.65-.85-.99-1.53-.86-.05.01-.09.02-.16.03-.65-.81-1.31-1.63-1.96-2.44.29-.85.18-1.39-.36-1.79-.5-.36-1.09-.32-1.74.14-1.13-.52-2.28-1.05-3.44-1.59-.01-.41-.11-.79-.42-1.08-.21-.19-.45-.31-.73-.35-.59-.09-1.08.2-1.43.85h-5c-.32-.65-.87-.99-1.56-.82-.65.15-.96.6-1.03,1.45-.71.35-1.42.71-2.15,1.08-.29-.24-.62-.39-1-.37-.29.02-.55.12-.78.32-.48.4-.57.9-.29,1.72-.64.8-1.3,1.62-1.94,2.43-.88-.12-1.44.15-1.69.81-.25.67,0,1.23.78,1.72v2.78c-.59.29-.93.74-.85,1.42.07.54.38.93.91,1.09.65.19,1.16-.04,1.55-.59.8.14,1.59.29,2.39.43.19.71.64,1.08,1.37,1.13.28.69.55,1.38.83,2.06-.59.78-.57,1.5.01,2.01.45.39,1.31.52,1.95-.22,1.25.35,2.51.71,3.78,1.07.03.21.08.4.17.56.1.19.24.34.42.45.06.05.13.09.21.12.15.06.33.1.51.1.73,0,1.32-.59,1.32-1.32,0-.09-.01-.18-.03-.27,0-.01,0-.02-.01-.03-.04-.16-.12-.33-.23-.48-.03-.06-.07-.11-.13-.16-.03-.04-.06-.07-.09-.1.08-.25.17-.51.25-.77.09-.26.18-.52.27-.8,1.32.44,2.63.88,3.92,1.31.02.07.04.14.06.2.09.27.16.45.26.58.03.05.07.09.11.13.06.06.12.12.19.16.07.05.15.09.23.13.15.06.33.1.51.1s.36-.04.51-.1c.07-.03.14-.07.2-.12.1-.05.19-.12.26-.21.11-.11.19-.23.25-.37v-.02c.07-.14.1-.3.1-.48v-.02c0-.1-.01-.2-.04-.29,0-.06-.02-.11-.03-.17,1.12-.93,2.24-1.87,3.36-2.8.06.02.11.03.16.05.73.3,1.48,0,1.77-.75.02-.05.05-.1.08-.16v-.53c-.14-.46-.39-.81-.86-1v-3.67c.15-.1.32-.18.43-.31ZM22.51,3.54c.24,0,.44.2.43.45,0,.23-.19.41-.42.42-.24,0-.44-.2-.44-.44,0-.23.21-.43.43-.43ZM21.87,5.16c.19.04.37.11.55.13.17.01.35-.02.55-.04.64.8,1.29,1.61,1.91,2.4-.07.33-.13.62-.21.98-.97.53-2.01,1.1-3.05,1.67-.77-.64-1.52-1.26-2.24-1.86v-1.05c.81-.73,1.65-1.48,2.49-2.23ZM15.81,12.47l-1.87-1.87c1.08-.56,2.16-1.12,3.24-1.67.69.4.9.43,1.6.17.65.53,1.3,1.08,2,1.66-1.2.65-2.37,1.29-3.56,1.94-.44-.35-.93-.43-1.41-.23ZM16.77,13.7c0,.22-.2.41-.43.42-.24,0-.44-.2-.44-.44.01-.23.2-.42.43-.42s.45.2.44.44ZM11.15,9.2l1.22,1.22c-.22.11-.45.23-.72.38-.17-.54-.33-1.06-.5-1.6ZM12.23,15.67c-1.32-.43-2.56-.85-3.81-1.27-.25-.08-.51-.16-.76-.25-.07-.03-.12-.09-.23-.17,1.26-.65,2.45-1.27,3.68-1.91.37,1.2.73,2.37,1.12,3.6ZM11.38,8.03c.11-.3.15-.67-.01-1.05.7-.65,1.39-1.3,2.1-1.95,1.12.84,2.24,1.68,3.35,2.51-.02.22-.03.39-.05.6-1.16.6-2.33,1.21-3.48,1.8-.63-.64-1.26-1.26-1.91-1.91ZM17.67,7.94c0-.22.2-.42.43-.42.23,0,.44.2.44.44-.01.22-.21.42-.43.43-.23,0-.45-.21-.44-.45ZM21.51,11.37c1.04.86,2.06,1.72,3.09,2.57,0,.02-.01.03-.01.05-2.22-.2-4.44-.4-6.66-.6,0-.02,0-.04-.01-.06,1.19-.65,2.39-1.3,3.59-1.96ZM16.76.9c.25-.01.45.18.45.42.01.24-.21.45-.44.44-.23,0-.42-.19-.42-.42s.17-.43.41-.44ZM16.17,2.51c.57.24,1.08.17,1.56-.25,1.14.52,2.29,1.06,3.44,1.58.03.22.06.42.1.66-.83.75-1.68,1.51-2.53,2.27-.69-.2-.81-.2-1.38.06-1.07-.79-2.14-1.6-3.24-2.42.69-.64,1.37-1.27,2.05-1.9ZM15.53,1.79s.03.04.04.06c-.72.67-1.43,1.34-2.17,2.02-.91-.69-1.82-1.37-2.78-2.08h4.91ZM9.28.9c.23,0,.42.19.43.42,0,.23-.2.44-.44.44-.22,0-.42-.2-.43-.42,0-.24.19-.44.44-.44ZM6.18,3.37c.72-.36,1.44-.72,2.17-1.08.52.42,1.07.47,1.66.15.91.67,1.81,1.35,2.73,2.05-.67.63-1.32,1.23-1.95,1.82-1.09-.21-1.47-.06-1.92.82-1,.05-2.02.1-3.07.15-.11-.86-.23-1.7-.34-2.57.49-.3.76-.73.72-1.34ZM10.59,7.51c0,.24-.21.44-.45.43-.23-.01-.41-.2-.41-.43,0-.25.2-.45.44-.44.23,0,.42.21.42.44ZM4.85,3.1c.24,0,.44.2.44.44s-.18.42-.42.42c-.24.01-.42-.16-.44-.4-.01-.25.17-.45.42-.46ZM2.52,7.17c.6-.74,1.19-1.49,1.78-2.23.07-.08.13-.19.28-.09.11.8.21,1.62.33,2.47-.79.04-1.56.08-2.34.12-.04-.06-.07-.12-.11-.17.03-.04.04-.07.06-.1ZM1.32,13.68c-.23-.01-.42-.2-.42-.43s.18-.43.42-.43c.24-.01.44.19.44.43s-.21.44-.44.43ZM1.32,8.39c-.24,0-.43-.22-.42-.47.01-.23.21-.41.44-.4.23.01.42.2.42.43s-.21.44-.44.44ZM5,13.46c-.77-.14-1.56-.28-2.36-.43-.12-.49-.4-.83-.86-1.02v-2.82c.38-.16.67-.44.81-.86.81-.04,1.61-.08,2.43-.12.21,1.58.41,3.14.61,4.66-.24.22-.42.39-.63.59ZM6.16,14.55c-.24-.01-.42-.2-.41-.44.01-.23.23-.43.46-.42.23.02.42.23.41.45-.01.24-.21.43-.46.41ZM6.52,12.82c-.2-1.51-.4-3.07-.61-4.65,1.02-.06,2.01-.11,3-.16.26.47.63.78,1.19.82.25.79.49,1.57.74,2.38-1.25.65-2.5,1.3-3.73,1.94-.19-.1-.37-.2-.59-.33ZM7.94,18.98c-.23-.01-.42-.21-.42-.44s.18-.42.41-.43c.25,0,.45.19.46.43,0,.23-.22.44-.45.44ZM13.34,19.25c-.08.06-.14.12-.21.2-.03.02-.07.05-.1.08-1.24-.35-2.49-.71-3.75-1.07-.13-.77-.59-1.2-1.39-1.26-.27-.68-.55-1.38-.82-2.06.07-.15.16-.2.32-.15,1.71.58,3.42,1.15,5.16,1.73.26.84.52,1.67.79,2.52h0ZM14.13,20.74c-.24,0-.45-.22-.44-.45s.21-.41.44-.41c.25,0,.44.2.43.44-.01.24-.2.42-.43.42ZM13.59,17.07c.38.12.7.23,1.03.34-.15.48-.3.93-.45,1.38h-.05c-.17-.55-.34-1.11-.53-1.72ZM14.91,16.57c-.55-.19-1.09-.36-1.65-.55-.44-1.44-.89-2.89-1.35-4.36.4-.21.77-.4,1.11-.58.7.7,1.38,1.38,2.09,2.1-.21.55-.09,1.09.41,1.55-.2.6-.4,1.21-.61,1.84ZM20.75,19.41c-.25,0-.44-.19-.43-.44,0-.23.2-.42.43-.42s.43.19.43.44c-.01.24-.19.42-.43.42ZM21.41,17.83s-.08-.04-.12-.05c-.06-.03-.14-.06-.21-.07-.05-.01-.11-.02-.17-.03-.13-.02-.27-.02-.41.01h-.02c-.15.04-.29.09-.41.17-.07.04-.13.09-.19.14-.03.02-.07.05-.09.08-.03.03-.06.06-.09.09-1.31-.44-2.61-.87-3.95-1.32.21-.61.4-1.21.6-1.81.65-.15.82-.25,1.19-.77.52-.03,7.08.6,7.24.7-.09.17-2.69,2.39-3.37,2.86ZM25.59,13.32c-.07.04-.14.07-.22.11-1-.83-1.99-1.66-3.02-2.52.95-.52,1.87-1.02,2.8-1.53.16.1.29.18.44.26v3.68ZM26.05,15.01c-.23,0-.44-.22-.44-.45.01-.23.21-.42.43-.43.24,0,.44.2.43.45,0,.23-.19.42-.42.43ZM26.06,8.82c-.24,0-.45-.19-.45-.43s.2-.43.45-.43c.24.01.41.19.41.43s-.18.43-.41.43Z"/>
  </g>
</svg>