<?xml version="1.0" encoding="UTF-8"?>
<svg id="Layer_2" data-name="Layer 2" xmlns="http://www.w3.org/2000/svg" viewBox="0 0 30.3 23.65">
  <defs>
    <style>
      .cls-1 {
        fill: #66d3e4;
        stroke-width: 0px;
      }
    </style>
  </defs>
  <g id="Layer_2-2" data-name="Layer 2">
    <path class="cls-1" d="M8.52,3.29c-2.62,0-4.75,2.13-4.75,4.73v5.09c0,2.61,2.13,4.73,4.75,4.73s4.73-2.13,4.73-4.73v-5.09c0-2.61-2.12-4.73-4.73-4.73ZM12.03,13.12c0,1.92-1.57,3.5-3.5,3.5s-3.5-1.58-3.5-3.5v-1.41c.86.39,2.15.63,3.5.63s2.63-.23,3.5-.63v1.41ZM12.03,10.22c-.04.18-1.2.88-3.5.88s-3.47-.71-3.5-.88v-2.2c0-1.94,1.58-3.5,3.5-3.5s3.5,1.57,3.5,3.5v2.2ZM16.83,11.68c-.28-.29-.55-.56-.85-.85h-.01s.04-.05.05-.06c.55-.54,1.1-1.1,1.69-1.7.13-.12.2-.29.2-.47.01-.18-.06-.36-.19-.48-.27-.27-.68-.27-.94,0l-2.22,2.22c-.26.26-.26.67-.01.93.74.75,1.49,1.49,2.24,2.22.13.13.27.2.45.2.05,0,.1-.01.14-.01.26-.06.43-.23.5-.47.08-.25.02-.49-.17-.68-.29-.3-.59-.59-.87-.87ZM22.2,6.53c-.13-.17-.32-.26-.53-.26-.33,0-.57.18-.67.53l-.38,1.35c-.42,1.42-.82,2.85-1.22,4.27-.2.69-.41,1.4-.6,2.09-.06.2-.02.42.1.59.12.16.31.26.51.27h.04c.31,0,.56-.22.67-.59.35-1.24.71-2.49,1.06-3.73l1.11-3.92c.06-.22.02-.43-.1-.6ZM26.5,10.29c-.57-.57-1.15-1.15-1.73-1.72-.14-.16-.29-.31-.45-.47-.19-.18-.44-.23-.69-.13-.25.11-.41.3-.43.57-.02.2.06.39.23.56.41.39.81.8,1.22,1.22l.49.49s-.02.01-.02.02l-.56.56c-.38.38-.75.75-1.15,1.14-.16.17-.22.35-.2.56.02.27.18.47.43.56.08.04.17.05.24.05.18,0,.35-.08.49-.23l2.15-2.15c.16-.16.24-.33.25-.51,0-.18-.08-.36-.25-.53ZM26.5,10.29c-.57-.57-1.15-1.15-1.73-1.72-.14-.16-.29-.31-.45-.47-.19-.18-.44-.23-.69-.13-.25.11-.41.3-.43.57-.02.2.06.39.23.56.41.39.81.8,1.22,1.22l.49.49s-.02.01-.02.02l-.56.56c-.38.38-.75.75-1.15,1.14-.16.17-.22.35-.2.56.02.27.18.47.43.56.08.04.17.05.24.05.18,0,.35-.08.49-.23l2.15-2.15c.16-.16.24-.33.25-.51,0-.18-.08-.36-.25-.53ZM21.67,6.26c-.33,0-.57.18-.67.53l-.38,1.35c-.42,1.42-.82,2.85-1.22,4.27-.2.69-.41,1.4-.6,2.09-.06.2-.02.42.1.59.12.16.31.26.51.27h.04c.31,0,.56-.22.67-.59.35-1.24.71-2.49,1.06-3.73l1.11-3.92c.06-.22.02-.43-.1-.6-.13-.17-.32-.26-.53-.26ZM17.7,9.07c.13-.12.2-.29.2-.47.01-.18-.06-.36-.19-.48-.27-.27-.68-.27-.94,0l-2.22,2.22c-.26.26-.26.67-.01.93.74.75,1.49,1.49,2.24,2.22.13.13.27.2.45.2.05,0,.1-.01.14-.01.26-.06.43-.23.5-.47.08-.25.02-.49-.17-.68-.29-.3-.59-.59-.87-.87-.28-.29-.55-.56-.85-.85h-.01s.04-.05.05-.06c.55-.54,1.1-1.1,1.69-1.7ZM8.52,3.29c-2.62,0-4.75,2.13-4.75,4.73v5.09c0,2.61,2.13,4.73,4.75,4.73s4.73-2.13,4.73-4.73v-5.09c0-2.61-2.12-4.73-4.73-4.73ZM12.03,13.12c0,1.92-1.57,3.5-3.5,3.5s-3.5-1.58-3.5-3.5v-1.41c.86.39,2.15.63,3.5.63s2.63-.23,3.5-.63v1.41ZM12.03,10.22c-.04.18-1.2.88-3.5.88s-3.47-.71-3.5-.88v-2.2c0-1.94,1.58-3.5,3.5-3.5s3.5,1.57,3.5,3.5v2.2ZM29.46,1.78c-.23-1.1-1.09-1.78-2.27-1.78H3.3c-.06,0-.13,0-.19.01C1.95.07,1.04,1.02,1.04,2.15c-.01,5.46-.01,10.94,0,16.4,0,1.16.92,2.1,2.1,2.14,0,0,24.14.01,24.19,0,1.34-.07,2.16-.96,2.16-2.33V2.34c0-.19,0-.38-.04-.56ZM27.9,19.23c-.14.12-.33.2-.57.23-.11.01-23.74,0-23.74,0-.18,0-.36.01-.51-.01-.42-.04-.77-.42-.79-.86-.01-.07,0-.14,0-.22V2.43c0-.85.32-1.17,1.17-1.17h23.61c.85,0,1.18.32,1.18,1.17v4.14c-.01,3.79-.01,7.7.01,11.56,0,.53-.11.88-.36,1.1ZM24.77,8.57c-.14-.16-.29-.31-.45-.47-.19-.18-.44-.23-.69-.13-.25.11-.41.3-.43.57-.02.2.06.39.23.56.41.39.81.8,1.22,1.22l.49.49s-.02.01-.02.02l-.56.56c-.38.38-.75.75-1.15,1.14-.16.17-.22.35-.2.56.02.27.18.47.43.56.08.04.17.05.24.05.18,0,.35-.08.49-.23l2.15-2.15c.16-.16.24-.33.25-.51,0-.18-.08-.36-.25-.53-.57-.57-1.15-1.15-1.73-1.72ZM21.67,6.26c-.33,0-.57.18-.67.53l-.38,1.35c-.42,1.42-.82,2.85-1.22,4.27-.2.69-.41,1.4-.6,2.09-.06.2-.02.42.1.59.12.16.31.26.51.27h.04c.31,0,.56-.22.67-.59.35-1.24.71-2.49,1.06-3.73l1.11-3.92c.06-.22.02-.43-.1-.6-.13-.17-.32-.26-.53-.26ZM17.7,9.07c.13-.12.2-.29.2-.47.01-.18-.06-.36-.19-.48-.27-.27-.68-.27-.94,0l-2.22,2.22c-.26.26-.26.67-.01.93.74.75,1.49,1.49,2.24,2.22.13.13.27.2.45.2.05,0,.1-.01.14-.01.26-.06.43-.23.5-.47.08-.25.02-.49-.17-.68-.29-.3-.59-.59-.87-.87-.28-.29-.55-.56-.85-.85h-.01s.04-.05.05-.06c.55-.54,1.1-1.1,1.69-1.7ZM8.52,3.29c-2.62,0-4.75,2.13-4.75,4.73v5.09c0,2.61,2.13,4.73,4.75,4.73s4.73-2.13,4.73-4.73v-5.09c0-2.61-2.12-4.73-4.73-4.73ZM12.03,13.12c0,1.92-1.57,3.5-3.5,3.5s-3.5-1.58-3.5-3.5v-1.41c.86.39,2.15.63,3.5.63s2.63-.23,3.5-.63v1.41ZM12.03,10.22c-.04.18-1.2.88-3.5.88s-3.47-.71-3.5-.88v-2.2c0-1.94,1.58-3.5,3.5-3.5s3.5,1.57,3.5,3.5v2.2ZM29.6,23.65H.69C.31,23.65,0,23.34,0,22.96v-.15c0-.38.31-.69.69-.69h28.91c.38,0,.69.31.69.69v.15c0,.38-.31.69-.69.69Z"/>
  </g>
</svg>