<?xml version="1.0" encoding="UTF-8"?>
<svg id="Layer_2" data-name="Layer 2" xmlns="http://www.w3.org/2000/svg" viewBox="0 0 24.15 22.97">
  <defs>
    <style>
      .cls-1 {
        fill:#7dd3fc;
        stroke: #7dd3fc;
        stroke-miterlimit: 10;
        stroke-width: .15px;
      }
    </style>
  </defs>
  <g id="Layer_2-2" data-name="Layer 2">
    <g>
      <path class="cls-1" d="M22.9,7.25c-.99-1.26-2.32-1.97-3.95-2.11h-.13s-.05-.13-.05-.13C17.53,1.75,15.29.09,12.08.08,8.89.08,6.63,1.73,5.38,5l-.12.13-.11.02c-2.39.23-4.31,1.87-4.9,4.17-.05.18-.08.36-.11.54l-.05.24v1.01s.05.28.05.28c.03.19.07.38.11.57.62,2.48,2.77,4.17,5.37,4.2h1v.57c0,2.65,1.53,4.88,3.98,5.83.54.21,1.01.35,1.49.35.13,0,.26,0,.4-.03,2.66-.46,4.77-2.74,5.03-5.42.02-.24.03-.47.04-.72l.03-.6.21.02c.21.02.41.02.62.02,1.45,0,2.66-.42,3.68-1.29,1.24-1.05,1.9-2.39,1.98-4,.06-1.35-.33-2.57-1.17-3.63ZM16.52,16.72c0,2.53-1.74,4.64-4.21,5.12-.07.01-.15.02-.23.02-.12,0-.25-.01-.39-.05-2.34-.51-4.05-2.61-4.06-5.01,0-.91,0-1.83,0-2.74v-1.61s3.02-1.07,4.25-1.5c.06-.02.14-.03.21-.03.06,0,.12,0,.18.03,1.07.37,4.26,1.5,4.26,1.5v4.26ZM18.84,15.12c-.13,0-.26,0-.39,0h-.91v-2.92c0-.37-.1-.51-.44-.63,0,0-3.8-1.34-4.75-1.68-.09-.03-.18-.05-.27-.05s-.18.02-.28.05c-1.07.38-4.75,1.68-4.75,1.68-.33.12-.43.26-.43.61v2.89s-.18.02-.18.02c-.24.03-.46.04-.69.04-1.69,0-2.77-.75-3.37-1.38-.85-.88-1.31-2.08-1.27-3.3.08-2.34,1.96-4.2,4.36-4.32h.31c.28-.02.44-.15.52-.42l.06-.22c.04-.15.08-.31.13-.46.82-2.39,3.09-3.99,5.65-3.99.11,0,.22,0,.33,0,2.47.13,4.72,2.01,5.35,4.46.14.54.21.6.76.61,2.21.06,3.98,1.55,4.4,3.69.25,1.24-.08,2.54-.89,3.57-.81,1.03-1.99,1.65-3.25,1.71Z"/>
      <path class="cls-1" d="M13.6,15.02s-.03,0-.04,0c-.13.03-.27.11-.37.21-.35.33-.68.68-1.03,1.04l-.56.57-.34-.38c-.13-.14-.25-.28-.38-.4-.09-.09-.21-.14-.34-.14-.14,0-.27.05-.36.15-.19.19-.19.51,0,.71.36.37.72.73,1.09,1.09.11.1.24.16.36.16.11,0,.22-.04.3-.13.71-.68,1.4-1.38,2.09-2.08.14-.14.16-.38.04-.58-.08-.15-.23-.24-.46-.24Z"/>
    </g>
  </g>
</svg>