<?xml version="1.0" encoding="UTF-8"?>
<svg id="Layer_2" data-name="Layer 2" xmlns="http://www.w3.org/2000/svg" viewBox="0 0 24.3 19.54">
  <defs>
    <style>
      .cls-1 {
        fill: #60a5fa;
        stroke-width: 0px;
      }
    </style>
  </defs>
  <g id="Layer_2-2" data-name="Layer 2">
    <g>
      <path class="cls-1" d="M23.73,18.49c-.26,0-.53,0-.78,0h-1.1v-1.18h.25c1.2,0,1.95-.75,1.95-1.95,0-4.47,0-8.94,0-13.41,0-.16,0-.31-.03-.47C23.83.57,23.11,0,22.13,0H2.14c-.05,0-.11,0-.16,0C1.01.06.25.84.25,1.8c0,4.57,0,9.15,0,13.72,0,.97.77,1.76,1.76,1.79.13,0,.26,0,.4,0h.04v1.18h-.69c-.4,0-.81,0-1.22,0-.31,0-.54.22-.54.51,0,.28.22.5.52.53.04,0,.07,0,.11,0,.02,0,.05,0,.07,0h22.89c.05,0,.1,0,.15,0,.33-.02.56-.24.55-.53,0-.3-.24-.51-.57-.51ZM20.77,8.75v9.72h-2.02v-9.72h2.02ZM17.65,17.33v1.14h-.87v-1.14h.87ZM15.71,13.39v5.07h-2.04v-5.07h2.04ZM12.6,17.33v1.15h-.89v-1.15h.89ZM7.52,17.33v1.14h-.87v-1.14h.87ZM5.55,14.47v4h-2.02v-4h2.02ZM16.77,12.99c0-.46-.2-.66-.65-.66-.95,0-1.91,0-2.86,0-.46,0-.65.19-.65.65v3.27h-.92v-6.96c0-.54-.17-.71-.72-.71h-2.75c-.5,0-.68.18-.69.69v6.98h-.91v-.76c0-.48,0-.95,0-1.43,0-.45-.2-.65-.66-.65-.95,0-1.91,0-2.86,0-.45,0-.64.19-.64.63,0,.42,0,.85,0,1.27v.81s0,.09,0,.14c-.03,0-.06,0-.08,0-.15,0-.29,0-.43,0-.35-.04-.64-.35-.66-.73,0-.06,0-.12,0-.18V2.03c0-.71.28-.99.99-.99h19.75c.71,0,.99.28.99.99v3.45c0,3.17,0,6.45.01,9.67,0,.44-.09.75-.3.92-.19.17-.49.23-.89.19v-7.83c0-.58-.16-.74-.75-.74h-2.65c-.6,0-.76.16-.76.75v7.81h-.91v-.93c0-.78,0-1.56,0-2.34ZM10.63,9.64v8.84h-2.04v-8.84h2.04Z"/>
      <path class="cls-1" d="M21.14,4.69c.43-.64.35-1.52-.19-2.08-.55-.58-1.43-.68-2.09-.26-.71.45-.94,1.2-.64,2.07l-2.76,2.87c-.52-.25-1.03-.25-1.55,0l-2.77-2.88c.28-.75.09-1.5-.5-1.97s-1.44-.47-2.04,0c-.61.47-.8,1.2-.52,1.97l-.62.65c-.72.75-1.42,1.47-2.14,2.23-.01,0-.04-.02-.06-.03l-.04-.02c-.74-.31-1.6-.06-2.04.59-.44.65-.37,1.53.18,2.1.56.58,1.45.67,2.12.23.67-.45.93-1.3.61-2.04-.04-.09-.03-.11.05-.19.63-.61,1.25-1.23,1.87-1.84l.81-.8s.03-.03.05-.04c.57.24.79.24,1.53,0l.57.56c.73.72,1.47,1.45,2.21,2.17t0,.11l-.02.05c-.17.42-.16.88.03,1.29.18.41.51.73.93.88.19.07.39.11.59.11.24,0,.47-.05.69-.15.41-.19.72-.53.88-.96.15-.4.14-.83-.03-1.21l2.76-2.86c.91.34,1.69.14,2.16-.56ZM10.23,3.77c0,.16-.07.32-.19.44-.12.12-.28.19-.44.19h0c-.34,0-.62-.29-.62-.63,0-.34.28-.62.62-.62h0c.17,0,.32.07.44.18s.18.27.18.44ZM15.31,8.77c0,.16-.06.32-.18.44-.12.12-.28.19-.44.19h0c-.17,0-.32-.06-.44-.18-.12-.12-.18-.27-.18-.44,0-.35.27-.63.62-.63.33,0,.63.29.63.62ZM19.31,4.22c-.12-.12-.19-.28-.2-.44,0-.16.06-.32.18-.44s.28-.19.44-.19h0c.35,0,.62.27.62.61h0c0,.35-.27.63-.61.64-.17,0-.32-.06-.44-.18ZM5.15,8.77c0,.17-.06.33-.18.44-.11.12-.27.18-.44.18h0c-.34,0-.62-.27-.63-.62,0-.16.06-.32.18-.44s.28-.19.44-.19h0c.16,0,.31.06.43.18.12.12.19.28.19.45Z"/>
    </g>
  </g>
</svg>