<?xml version="1.0" encoding="UTF-8"?>
<svg id="Layer_2" data-name="Layer 2" xmlns="http://www.w3.org/2000/svg" viewBox="0 0 24 27.46">
  <defs>
    <style>
      .cls-1 {
        fill: #c084fc;
        stroke-width: 0px;
      }
    </style>
  </defs>
  <g id="Layer_2-2" data-name="Layer 2">
    <path class="cls-1" d="M22.8,17.97v-8.48c1.23-.56,1.48-1.89.89-2.8-.49-.75-1.77-1.33-2.97-.26-.12-.07-.24-.13-.36-.2-.42-.24-.83-.48-1.25-.71-.24-.13-.51-.04-.64.18-.13.22-.07.49.14.65.08.06.17.11.26.16.47.27.93.54,1.4.81-.07.43-.03.83.13,1.19l-2.05,1.37c-1.98-1.16-3.95-2.32-5.93-3.46-.13-.08-.36-.11-.48-.05-.78.42-1.55.86-2.31,1.32-.23.14-.27.37-.15.62.12.23.38.32.63.21.11-.05.22-.12.32-.18.56-.32,1.13-.65,1.69-.97,1.75,1.02,3.48,2.04,5.25,3.07-1.81,1.06-3.57,2.1-5.33,3.13-1.72-1.07-3.42-2.12-5.15-3.19.51-.3.98-.56,1.45-.84.33-.2.43-.47.27-.73-.15-.26-.43-.3-.75-.12-.64.36-1.27.73-1.91,1.1l-2.3-1.54c.07-.25.09-.55.08-.89,2.33-1.35,4.68-2.71,7-4.06.95.63,1.6.63,2.54,0,.09.05.17.09.25.13,1.1.63,2.21,1.27,3.31,1.9.31.17.6.11.74-.14.13-.25.04-.52-.24-.7-.39-.23-.79-.46-1.19-.69-.78-.45-1.55-.89-2.33-1.34.2-.93-.04-1.69-.85-2.19-.66-.4-1.35-.38-1.99.05-.76.51-.97,1.25-.76,2.15-2.31,1.34-4.61,2.67-6.91,4.01-.66-.63-1.39-.83-2.21-.46C.41,6.35.02,6.93.02,7.7c0,.94.51,1.53,1.38,1.85v8.35c-1.26.59-1.72,1.68-1.16,2.72.57,1.07,1.71,1.27,2.95.51.09.05.19.1.29.15.8.43,1.59.88,2.39,1.3.12.06.32.08.42.02.13-.08.27-.26.27-.39,0-.16-.12-.38-.26-.47-.42-.27-.87-.49-1.3-.74-.43-.24-.87-.48-1.29-.72.06-.36.07-.68.02-.95l2.17-1.46c1.94,1.12,3.89,2.24,5.83,3.36.21.12.42.13.64.01,2-1.13,4.01-2.27,6.01-3.4l2,1.34c-.07.29-.1.64-.1,1.07-2.31,1.3-4.63,2.61-6.95,3.91-.88-.66-1.74-.64-2.59,0-.86-.48-1.72-.95-2.58-1.42-.33-.18-.62-.12-.77.15-.14.27-.04.52.29.7.67.37,1.34.74,2.01,1.11.18.1.37.21.54.3-.18.86.02,1.56.72,2.06.63.45,1.32.5,1.99.12.85-.49,1.1-1.26.91-2.2,2.32-1.31,4.64-2.61,6.94-3.91,1.23,1,2.48.4,2.94-.38.55-.92.28-2.2-.92-2.74ZM12.04,1c.49,0,.89.41.89.9,0,.49-.41.9-.89.9-.48,0-.89-.41-.89-.9,0-.5.4-.9.89-.9ZM.99,7.73c0-.48.41-.89.91-.89.48,0,.9.42.9.9,0,.48-.42.89-.91.89-.49,0-.9-.42-.9-.9ZM1.9,20.64c-.47,0-.89-.42-.9-.9,0-.48.41-.9.89-.91.48,0,.89.41.89.9,0,.49-.4.91-.88.91ZM2.41,17.91v-8.36c.31-.12.57-.27.77-.44l2.29,1.54c0,2.12,0,4.24,0,6.36l-2.19,1.47c-.21-.21-.5-.39-.86-.56ZM11.56,20.01c-1.73-1-3.41-1.97-5.1-2.94v-5.81c1.72,1.07,3.41,2.11,5.1,3.16v5.59ZM12.04,26.47c-.48,0-.89-.41-.9-.9,0-.5.39-.9.88-.91.49,0,.89.4.9.89,0,.49-.4.91-.88.91ZM22.12,6.84c.48,0,.9.42.9.9,0,.48-.42.89-.91.89-.49,0-.9-.41-.9-.9,0-.49.41-.89.91-.89ZM20.86,18.34l-2-1.35c0-2.08,0-4.17,0-6.25l2.2-1.48c.22.15.47.26.75.33v8.28c-.41.13-.71.28-.94.47ZM17.85,17.02c-1.74.98-3.49,1.97-5.29,3v-5.59c1.75-1.03,3.5-2.06,5.29-3.11v5.71ZM22.09,20.64c-.49-.02-.88-.44-.86-.93.02-.5.43-.9.91-.88.48.02.89.45.87.93-.02.48-.45.9-.92.88Z"/>
  </g>
</svg>