<?xml version="1.0" encoding="UTF-8"?>
<svg id="Layer_2" data-name="Layer 2" xmlns="http://www.w3.org/2000/svg" viewBox="0 0 27.78 27.39">
  <defs>
    <style>
      .cls-1 {
        fill: #7e72d3;
        stroke: #7e72d3;
        stroke-miterlimit: 10;
        stroke-width: .1px;
      }
    </style>
  </defs>
  <g id="Layer_2-2" data-name="Layer 2">
    <g>
      <path class="cls-1" d="M26.3,11.62s-.1,0-.15,0l-3.09-4.32c.16-.23.25-.51.25-.8,0-.79-.64-1.42-1.42-1.42-.66,0-1.23.46-1.38,1.09l-3.42-.03c-.18-.61-.74-1.03-1.38-1.03s-1.19.41-1.38,1h-1.03c-.19-.57-.73-.97-1.35-.97s-1.18.41-1.36,1l-3.51.04c-.16-.6-.72-1.03-1.35-1.03-.79,0-1.42.64-1.42,1.43,0,.31.09.59.27.84l-2.91,4.08c-.07-.01-.14-.02-.22-.02-.78,0-1.42.64-1.42,1.42s.63,1.43,1.42,1.43c.12,0,.25-.02.36-.05l10.78,11.01c-.11.19-.16.41-.16.65,0,.78.64,1.42,1.43,1.42s1.42-.63,1.42-1.42c0-.24-.06-.46-.16-.65l10.68-10.91c.16.07.33.1.5.1.79,0,1.43-.64,1.43-1.42s-.64-1.43-1.43-1.43ZM26.83,13.05s0,.06,0,.11h0c-.05.2-.2.35-.39.4h-.02s-.07,0-.1,0c-.29,0-.52-.24-.52-.52s.24-.53.52-.53.53.24.53.53ZM8.55,13.42s-.1,0-.15-.03c-.05-.01-.13-.04-.19-.11-.12-.1-.18-.24-.18-.39,0-.09.03-.18.08-.26.07-.13.2-.23.37-.25.02,0,.05,0,.08,0,.29,0,.53.24.53.52s-.24.53-.53.53ZM8.55,11.47c-.64,0-1.21.44-1.37,1.05H2.84c-.06-.22-.17-.44-.34-.61l2.83-3.97c.73.23,1.5-.18,1.74-.86l3.57-.03c.07.22.19.41.36.55l-2.17,3.9c-.08-.02-.17-.03-.26-.03ZM2.79,13.42h4.46c.2.54.72.9,1.31.9.03,0,.06,0,.1,0l3.95,9.67L2.59,13.77c.08-.11.15-.22.2-.35ZM6.1,6.95c-.09.09-.2.14-.33.15h-.03c-.23,0-.45-.16-.51-.38,0-.05-.02-.09-.02-.14,0-.29.24-.53.52-.53.18,0,.35.09.44.25.05.08.08.17.08.28,0,.14-.06.27-.16.38ZM12.37,6.9c-.05.07-.11.11-.18.14h-.02c-.07.04-.14.05-.2.05-.29,0-.52-.24-.52-.53,0-.11.04-.22.11-.32.1-.13.25-.21.42-.21.16,0,.31.07.41.2.07.09.11.21.11.32,0,.12-.04.24-.12.33ZM19.72,12.9c0,.14-.06.28-.16.38h-.04l-.02.05c-.09.07-.2.1-.3.1-.29,0-.53-.24-.53-.53,0-.09.03-.18.08-.26l.02-.02v-.02c.1-.14.26-.22.43-.22.08,0,.17.02.25.06.08.04.15.11.21.2.05.08.07.17.07.26ZM20.56,12.52c-.16-.61-.73-1.05-1.37-1.05-.05,0-.1,0-.15,0l-2.28-3.92c.14-.14.25-.32.31-.52l3.52.03c.22.52.73.86,1.3.86.17,0,.33-.03.46-.08l2.97,4.17c-.15.14-.26.31-.33.51h-4.43ZM19.24,14.32c.57-.02,1.07-.37,1.27-.9h4.43c.04.14.1.28.17.4l-9.93,10.14,4.06-9.64ZM22.41,6.61c-.06.24-.26.41-.49.42h-.03c-.1,0-.21-.03-.29-.09-.15-.1-.24-.26-.24-.44,0-.08.02-.16.05-.22.08-.18.26-.3.47-.3.29,0,.52.24.52.52,0,.04,0,.06,0,.1ZM13.34,25.89v-.03c.03-.26.26-.46.52-.46s.5.21.51.47v.03s0,.02,0,.03c0,.28-.24.51-.52.51s-.53-.23-.53-.51c0,0,0-.03,0-.04ZM17.83,12.52h-7.91c-.05-.21-.17-.42-.32-.59l2.21-3.96c.06,0,.11.01.16.01.61,0,1.15-.4,1.35-.98h1.03c.19.59.75,1,1.38,1,.09,0,.17,0,.25-.02l2.25,3.87c-.19.17-.33.4-.39.66ZM9.86,13.42h8.02c.09.26.26.48.49.64l-4.4,10.44s-.07,0-.11,0c-.03,0-.05,0-.08,0l-4.31-10.53c.18-.15.31-.34.38-.55ZM15.72,7.11s-.08,0-.12,0c-.12-.03-.24-.1-.32-.2-.08-.1-.12-.22-.12-.34,0-.13.04-.24.1-.33.11-.15.27-.23.45-.23s.34.09.44.24c.07.09.1.19.1.31,0,.3-.24.54-.54.54ZM.96,12.82s0-.03.01-.04h0s.01-.06.01-.06c0-.04.03-.08.05-.11h0s.02,0,.02,0l.02-.05s.05-.07.08-.08l.02-.02s.08-.05.14-.06c.11-.04.19-.03.28,0,.11.02.22.1.28.19,0,.01.01.02.02.04l.02.03s.01.02.03.05c.03.07.04.14.04.2,0,.05,0,.1-.03.16,0,.04-.03.09-.06.13l-.07.08s-.01.02-.02.02c-.02.01-.03.02-.04.03-.06.04-.12.06-.17.08-.02,0-.04,0-.05.01h0s-.05,0-.09,0c-.28,0-.51-.24-.51-.53,0-.04,0-.06,0-.07Z"/>
      <path class="cls-1" d="M13.87,2.55c.25,0,.45-.2.45-.45V.5c0-.25-.2-.45-.45-.45s-.45.2-.45.45v1.6c0,.25.2.45.45.45Z"/>
      <path class="cls-1" d="M9.88,3.51c.08.13.22.2.37.2.09,0,.17-.03.25-.08.1-.06.17-.16.19-.28.02-.11,0-.23-.06-.33l-.85-1.32c-.13-.2-.39-.27-.62-.12-.1.06-.17.16-.19.28-.03.12,0,.24.06.33l.85,1.32Z"/>
      <path class="cls-1" d="M17.24,3.64c.07.04.15.07.24.07.15,0,.29-.08.37-.2l.85-1.32c.06-.1.08-.22.06-.33-.03-.12-.1-.22-.21-.29-.07-.04-.15-.07-.24-.07-.15,0-.29.08-.37.2l-.85,1.32c-.06.1-.09.22-.06.33.03.12.09.21.21.29Z"/>
    </g>
  </g>
</svg>