<?xml version="1.0" encoding="UTF-8"?>
<svg id="Layer_2" data-name="Layer 2" xmlns="http://www.w3.org/2000/svg" xmlns:xlink="http://www.w3.org/1999/xlink" viewBox="0 0 22.46 30">
  <defs>
    <style>
      .cls-1 {
        fill: url(#linear-gradient);
      }

      .cls-1, .cls-2 {
        stroke-width: 0px;
      }

      .cls-2 {
        fill: #8d7cef;
        isolation: isolate;
        opacity: .42;
      }
    </style>
    <linearGradient id="linear-gradient" x1="2.64" y1="5.48" x2="25.05" y2="30.31" gradientUnits="userSpaceOnUse">
      <stop offset=".09" stop-color="#8d7cef"/>
      <stop offset="1" stop-color="#8676e3" stop-opacity=".8"/>
    </linearGradient>
  </defs>
  <g id="Layer_1-2" data-name="Layer 1">
    <g id="Reg_Shape_draw" data-name="Reg Shape draw">
      <g>
        <path class="cls-2" d="M20.67,15.02c-.45-.64-1.01-1.23-1.65-1.74l-1.84-1.41-2.26-1.75c.02.15.03.29.03.44,0,.61-.16,1.18-.46,1.68-.03.05-.06.1-.09.15-.03.05-.06.1-.1.14-.06.08-.13.16-.19.24-.68.8-1.72,1.31-2.88,1.31-2.05,0-3.71-1.58-3.71-3.52,0-.4.07-.78.2-1.14.76-2.13,3.55-3.06,5.53-1.81,1.31.82,2.5,1.87,3.72,2.79l.88.66,4.61-5.5-4.12-3.11-.46-.35c-1.86-1.32-4.16-2.1-6.65-2.1C6.06,0,1.69,3.37.46,7.93c-.03.11-.06.22-.09.33-.02.09-.04.18-.06.27-.1.52-.16,1.05-.16,1.6,0,1.61.44,3.08,1.27,4.34.11.18.23.35.36.52.45.65,1.01,1.24,1.66,1.74l1.83,1.42,2.26,1.75c-.02-.15-.03-.29-.03-.44,0-.49.11-.96.3-1.39.02-.05.04-.1.07-.16.04-.08.09-.16.14-.24.02-.02.03-.04.04-.06.65-1.01,1.83-1.69,3.17-1.69,2.05,0,3.71,1.58,3.71,3.52,0,.4-.07.78-.2,1.15-.69,1.89-2.96,2.86-4.9,2.09-1-.4-1.79-1.14-2.63-1.77-.58-.44-1.16-.88-1.74-1.32l-.86-.64-.05.06-3,3.58-.65.78-.58.69-.33.39,4.11,3.1.47.35c1.86,1.32,4.16,2.1,6.65,2.1,5.17,0,9.52-3.37,10.76-7.91.03-.11.06-.22.09-.33.02-.08.04-.16.06-.25.1-.52.16-1.07.16-1.62,0-1.61-.44-3.08-1.27-4.35-.12-.17-.24-.35-.37-.51ZM21.82,21.44c-.02.08-.03.16-.05.24-.03.11-.05.22-.08.32-1.23,4.53-5.53,7.69-10.46,7.69-2.35,0-4.59-.7-6.47-2.04L.46,24.39l.11-.14.57-.69.65-.78,2.86-3.41,2.36,1.78c.19.14.37.29.56.43.65.52,1.33,1.05,2.14,1.38.48.19.99.29,1.51.29,1.72,0,3.25-1.03,3.81-2.57.15-.4.22-.82.22-1.25,0-2.12-1.8-3.84-4.03-3.84-1.41,0-2.7.69-3.44,1.83-.01.02-.02.03-.03.04l-.02.03c-.05.09-.1.18-.15.27-.03.05-.06.11-.09.18-.18.4-.29.83-.32,1.29-1.41-1.09-1.68-1.31-1.75-1.36l.03.02-1.83-1.42c-.61-.47-1.15-1.03-1.59-1.67-.13-.17-.24-.33-.36-.51-.81-1.23-1.21-2.64-1.21-4.17,0-.52.05-1.03.16-1.54.02-.09.04-.17.06-.25.03-.12.05-.22.08-.32C1.99,3.48,6.29.32,11.23.32c2.35,0,4.59.7,6.46,2.04l4.31,3.25-4.21,5.01-.63-.48c-.39-.29-.78-.61-1.17-.91-.82-.65-1.67-1.33-2.57-1.89-.63-.4-1.38-.61-2.14-.61-1.75,0-3.3,1.04-3.86,2.58-.15.4-.22.82-.22,1.25,0,2.12,1.81,3.84,4.03,3.84,1.21,0,2.35-.52,3.12-1.42l.03-.04c.06-.07.12-.15.17-.22l.1-.15c.04-.06.07-.12.1-.17.29-.49.45-1.04.49-1.61,1.3,1.01,1.63,1.27,1.74,1.34h0l1.84,1.41c.61.47,1.14,1.03,1.59,1.67.12.15.23.31.36.51.8,1.23,1.21,2.64,1.21,4.17,0,.52-.05,1.04-.16,1.55h0Z"/>
        <path class="cls-1" d="M20.77,15.71c.8,1.23,1.21,2.64,1.21,4.17,0,.52-.05,1.04-.16,1.55-.02.08-.03.16-.05.24-.03.11-.05.22-.08.32-1.23,4.53-5.53,7.69-10.46,7.69-2.35,0-4.59-.7-6.47-2.04L.46,24.39l.11-.14.57-.69.65-.78,2.86-3.41,2.36,1.78c.19.14.37.29.56.43.65.52,1.33,1.05,2.14,1.38.48.19.99.29,1.51.29,1.72,0,3.25-1.03,3.81-2.57.15-.4.22-.82.22-1.25,0-2.12-1.8-3.84-4.03-3.84-1.41,0-2.7.69-3.44,1.83-.01.02-.02.03-.03.04l-.02.03c-.05.09-.1.18-.15.27-.03.05-.06.11-.09.18-.18.4-.29.83-.32,1.29-1.41-1.09-1.68-1.31-1.75-1.36l.03.02-1.83-1.42c-.61-.47-1.15-1.03-1.59-1.67-.13-.17-.24-.33-.36-.51-.81-1.23-1.21-2.64-1.21-4.17,0-.52.05-1.03.16-1.54.02-.09.04-.17.06-.25.03-.12.05-.22.08-.32C1.99,3.48,6.29.32,11.23.32c2.35,0,4.59.7,6.46,2.04l4.31,3.25-4.21,5.01-.63-.48c-.39-.29-.78-.61-1.17-.91-.82-.65-1.67-1.33-2.57-1.89-.63-.4-1.38-.61-2.14-.61-1.75,0-3.3,1.04-3.86,2.58-.15.4-.22.82-.22,1.25,0,2.12,1.81,3.84,4.03,3.84,1.21,0,2.35-.52,3.12-1.42l.03-.04c.06-.07.12-.15.17-.22l.1-.15c.04-.06.07-.12.1-.17.29-.49.45-1.04.49-1.61,1.3,1.01,1.63,1.27,1.74,1.34h0l1.84,1.41c.61.47,1.14,1.03,1.59,1.67.12.15.23.31.36.51h0Z"/>
      </g>
    </g>
  </g>
</svg>