<?xml version="1.0" encoding="UTF-8"?>
<svg id="Layer_2" data-name="Layer 2" xmlns="http://www.w3.org/2000/svg" xmlns:xlink="http://www.w3.org/1999/xlink" viewBox="0 0 89.99 114.03">
  <defs>
    <style>
      .cls-1 {
        opacity: .72;
      }

      .cls-2 {
        fill: url(#linear-gradient);
      }

      .cls-2, .cls-3, .cls-4, .cls-5, .cls-6, .cls-7, .cls-8, .cls-9, .cls-10, .cls-11, .cls-12, .cls-13, .cls-14, .cls-15, .cls-16, .cls-17 {
        stroke-width: 0px;
      }

      .cls-18 {
        opacity: .5;
      }

      .cls-3 {
        fill: url(#linear-gradient-6);
      }

      .cls-4 {
        fill: url(#linear-gradient-5);
      }

      .cls-5 {
        fill: none;
      }

      .cls-6 {
        fill: url(#linear-gradient-2);
      }

      .cls-7 {
        fill: url(#linear-gradient-7);
      }

      .cls-8 {
        fill: url(#radial-gradient-2);
      }

      .cls-9 {
        fill: url(#linear-gradient-3);
      }

      .cls-10 {
        fill: url(#radial-gradient-5);
      }

      .cls-11 {
        fill: url(#linear-gradient-9);
      }

      .cls-12 {
        fill: url(#radial-gradient);
      }

      .cls-13 {
        fill: url(#linear-gradient-8);
      }

      .cls-14 {
        fill: url(#radial-gradient-6);
      }

      .cls-15 {
        fill: url(#radial-gradient-3);
      }

      .cls-16 {
        fill: url(#linear-gradient-4);
      }

      .cls-17 {
        fill: url(#radial-gradient-4);
      }
    </style>
    <radialGradient id="radial-gradient" cx="43.96" cy="69.5" fx="43.96" fy="69.5" r="58.4" gradientUnits="userSpaceOnUse">
      <stop offset="0" stop-color="#a99bff"/>
      <stop offset="1" stop-color="#615aec"/>
    </radialGradient>
    <radialGradient id="radial-gradient-2" cx="37.99" cy="99.41" fx="37.99" fy="99.41" r="44.3" xlink:href="#radial-gradient"/>
    <radialGradient id="radial-gradient-3" cx="73.71" cy="54.02" fx="73.71" fy="54.02" r="24.49" xlink:href="#radial-gradient"/>
    <radialGradient id="radial-gradient-4" cx="27.33" cy="31.73" fx="27.33" fy="31.73" r="49.16" xlink:href="#radial-gradient"/>
    <radialGradient id="radial-gradient-5" cx="76.58" cy="25.46" fx="76.58" fy="25.46" r="25.21" xlink:href="#radial-gradient"/>
    <linearGradient id="linear-gradient" x1="29.2" y1="127.79" x2="46.22" y2="73.83" gradientUnits="userSpaceOnUse">
      <stop offset=".28" stop-color="#948eff" stop-opacity="0"/>
      <stop offset=".29" stop-color="#958fff" stop-opacity=".03"/>
      <stop offset=".39" stop-color="#a39cff" stop-opacity=".37"/>
      <stop offset=".48" stop-color="#aea7ff" stop-opacity=".64"/>
      <stop offset=".56" stop-color="#b6aeff" stop-opacity=".84"/>
      <stop offset=".62" stop-color="#bbb3ff" stop-opacity=".96"/>
      <stop offset=".65" stop-color="#bdb5ff"/>
    </linearGradient>
    <linearGradient id="linear-gradient-2" x1="120.2" y1="31.48" x2="30.16" y2="77.43" xlink:href="#linear-gradient"/>
    <linearGradient id="linear-gradient-3" x1="108.39" y1="8.33" x2="18.35" y2="54.29" xlink:href="#linear-gradient"/>
    <linearGradient id="linear-gradient-4" x1="22.97" y1="52.07" x2="27.59" y2="59.84" gradientUnits="userSpaceOnUse">
      <stop offset="0" stop-color="#948eff" stop-opacity="0"/>
      <stop offset=".07" stop-color="#9892ff" stop-opacity=".08"/>
      <stop offset=".54" stop-color="#b1abff" stop-opacity=".57"/>
      <stop offset=".85" stop-color="#c1bbff" stop-opacity=".88"/>
      <stop offset="1" stop-color="#c8c2ff"/>
    </linearGradient>
    <linearGradient id="linear-gradient-5" x1="39.47" y1="-2.56" x2="52.88" y2="20.01" xlink:href="#linear-gradient-4"/>
    <linearGradient id="linear-gradient-6" x1="81.19" y1="15.51" x2="57.55" y2="28.75" gradientUnits="userSpaceOnUse">
      <stop offset="0" stop-color="#948eff" stop-opacity="0"/>
      <stop offset=".04" stop-color="#9892ff" stop-opacity=".08"/>
      <stop offset=".3" stop-color="#b1abff" stop-opacity=".57"/>
      <stop offset=".48" stop-color="#c1bbff" stop-opacity=".88"/>
      <stop offset=".56" stop-color="#c8c2ff"/>
    </linearGradient>
    <linearGradient id="linear-gradient-7" x1="81.4" y1="51.04" x2="62.99" y2="61.34" xlink:href="#linear-gradient-4"/>
    <linearGradient id="linear-gradient-8" x1="44.44" y1="109.97" x2="27.65" y2="77.48" xlink:href="#linear-gradient-4"/>
    <linearGradient id="linear-gradient-9" x1=".18" y1="5.02" x2="54.06" y2="50.47" xlink:href="#linear-gradient"/>
    <radialGradient id="radial-gradient-6" cx="49.95" cy="42.09" fx="49.95" fy="42.09" r="51.01" gradientTransform="translate(91.01 2.33) rotate(106.85) scale(1 .66)" xlink:href="#radial-gradient"/>
  </defs>
  <g id="Layer_1-2" data-name="Layer 1">
    <g>
      <g id="small_Fa" data-name="small Fa">
        <path class="cls-12" d="M87.91,74.41c0,2.16-.23,4.34-.66,6.47l-.06.28c-.06.27-.12.54-.18.81l-.07.24c-.08.35-.17.7-.27,1.03-2.43,7.84-7,14.61-12.89,19.79h-.01l-50.19-16.27c-1.86-.6-3.79-.9-5.73-.9-6.02,0-11.49,2.86-14.91,7.5-1.62-1.25-2.78-2.11-2.94-2.11l16.36-19.46,20.4,14.31.04.03c2.28,1.7,5.17,2.72,8.29,2.72,7.41,0,13.4-5.7,13.4-12.72,0-.89-.1-1.77-.28-2.6-1.27-5.79-6.65-10.13-13.12-10.13-7.41,0-13.41,5.7-13.41,12.73,0,.78.08,1.55.22,2.3l-10.27-7.62-2.73-2.04-3.62-2.79c9.34-2.65,17.26-8.99,21.87-17.66,2.17,1.47,4.83,2.32,7.7,2.32,7.41,0,13.41-5.7,13.41-12.73,0-.66-.05-1.3-.16-1.94l4.27,3.05-1.49,4.58c-2.89,8.94,2.03,18.57,10.96,21.48l15.81,5.13c.17,1.37.26,2.77.26,4.2Z"/>
        <path class="cls-8" d="M23.58,86.76l50.19,16.27c-.33.3-.66.58-1,.85-10.22,8.48-24.12,12.3-37.83,8.93-7.3-1.8-13.89-5.6-19.94-9.97-.78-.56-6.99-5.57-11.18-8.8-.3-.24-.6-.47-.88-.68,3.42-4.64,8.89-7.5,14.91-7.5,1.94,0,3.87.3,5.73.9Z"/>
        <path class="cls-15" d="M87.48,69.08c.07.37.12.75.17,1.13l-15.81-5.13c-8.93-2.91-13.85-12.54-10.96-21.48l1.49-4.58.87.62h0s5.09,3.65,5.09,3.65l2.76,1.98.05.03,3.71,2.88c2.54,1.96,4.74,4.27,6.56,6.85.52.67.99,1.34,1.4,1.97,2.42,3.72,3.98,7.77,4.67,12.08Z"/>
        <path class="cls-17" d="M52.27.7c.3.05.59.1.88.17l-7.89,24.33c-.13-.01-.27-.01-.41-.01-.18,0-.35,0-.53.02-7.14.25-12.86,5.85-12.86,12.7,0,.92.1,1.81.29,2.68.65,2.9,2.34,5.42,4.68,7.21h0c.23.19.47.36.72.52-4.61,8.67-12.53,15.01-21.87,17.66l-.19-.15c-.23-.18-.45-.36-.67-.54-2.26-1.86-4.23-3.98-5.9-6.33-.5-.65-.96-1.31-1.41-2.02-3.36-5.16-5.07-10.99-5.07-17.34,0-2.12.22-4.27.65-6.39.08-.39.16-.75.25-1.11l.08-.31c.08-.34.17-.68.27-1.02C7.75,14.39,22.95,2.46,39.62.34c4.5-.57,8.69-.4,12.65.36Z"/>
        <path class="cls-10" d="M89.99,22.71l-16.91,20.19-8.76-6.59-.87-.64h0s8.56-26.36,8.56-26.36c.3.19.59.39.88.59,5.81,3.9,11.37,8.48,17.1,12.81Z"/>
        <g class="cls-18">
          <path class="cls-2" d="M72.77,103.88c-10.22,8.48-24.12,12.3-37.83,8.93-7.3-1.8-13.89-5.6-19.94-9.97-.78-.56-6.99-5.57-11.18-8.8.34-.45.7-.89,1.08-1.31.08-.09.16-.18.25-.27.07-.08.15-.16.24-.24.11-.13.24-.25.36-.36.54-.53,1.11-1.01,1.71-1.45.51-.38,1.04-.73,1.59-1.05.51-.3,1.03-.57,1.57-.81.17-.08.34-.16.51-.23.57-.24,1.16-.45,1.76-.62.25-.08.51-.15.76-.21.27-.07.54-.13.81-.18.22-.05.45-.09.67-.12.24-.04.49-.08.74-.11.31-.03.62-.06.93-.08h.04c.33-.02.67-.03,1-.03,1.78,0,3.6.27,5.39.85l49.54,16.06Z"/>
        </g>
        <g class="cls-18">
          <path class="cls-6" d="M82.81,57c2.42,3.72,3.98,7.77,4.67,12.08l-15.32-4.97c-8.41-2.74-13.04-11.78-10.31-20.2l1.39-4.26,5.09,3.64,2.76,1.98.05.03,3.71,2.88c2.54,1.96,4.74,4.27,6.56,6.85.52.67.99,1.34,1.4,1.97Z"/>
        </g>
        <g class="cls-18">
          <path class="cls-9" d="M73.08,42.9l-8.76-6.59,8.57-26.41c5.81,3.9,11.37,8.48,17.1,12.81l-16.91,20.19Z"/>
        </g>
        <g class="cls-1">
          <path class="cls-16" d="M37.15,48.32c-4.61,8.67-12.53,15.01-21.87,17.66l-.19-.15c-.23-.18-.45-.36-.67-.54,9.26-2.47,17.34-8.68,22.01-17.48.23.18.47.35.72.51Z"/>
        </g>
        <g class="cls-1">
          <path class="cls-4" d="M53.15.87l-7.89,24.33c-.13-.01-.27-.01-.41-.01-.18,0-.35,0-.53.02L52.27.7c.3.05.59.1.88.17Z"/>
        </g>
        <g class="cls-1">
          <path class="cls-3" d="M72.89,9.9l-8.57,26.41-.87-.64h0s8.56-26.36,8.56-26.36c.3.19.59.39.88.59Z"/>
        </g>
        <g class="cls-1">
          <path class="cls-7" d="M87.65,70.21l-15.81-5.13c-8.93-2.91-13.85-12.54-10.96-21.48l1.49-4.58.87.62h0s-1.39,4.27-1.39,4.27c-2.73,8.42,1.9,17.46,10.31,20.2l15.32,4.97c.07.37.12.75.17,1.13Z"/>
        </g>
        <g class="cls-1">
          <path class="cls-13" d="M73.77,103.03c-.33.3-.66.58-1,.85l-49.54-16.06c-1.79-.58-3.61-.85-5.39-.85-.33,0-.67,0-1,.03h-.04c-.31.02-.62.05-.93.08-.25.03-.5.07-.74.11-.22.03-.45.07-.67.12-.27.05-.54.11-.81.18-.25.06-.51.13-.76.21-.6.17-1.19.38-1.76.62-.17.07-.34.15-.51.23-.54.24-1.06.51-1.57.81-.55.32-1.08.67-1.59,1.05-.6.44-1.17.92-1.71,1.45-.12.11-.25.23-.36.36-.09.08-.17.16-.24.24-.09.09-.17.18-.25.27-.38.42-.74.86-1.08,1.31-.3-.24-.6-.47-.88-.68,3.42-4.64,8.89-7.5,14.91-7.5,1.94,0,3.87.3,5.73.9l50.19,16.27Z"/>
        </g>
        <g class="cls-18">
          <path class="cls-11" d="M31.46,37.91c0,.92.1,1.81.29,2.68.65,2.9,2.34,5.42,4.68,7.21h0c-4.67,8.81-12.75,15.02-22.01,17.49-2.26-1.86-4.23-3.98-5.9-6.33-.5-.65-.96-1.31-1.41-2.02-3.36-5.16-5.07-10.99-5.07-17.34,0-2.12.22-4.27.65-6.39.08-.39.16-.75.25-1.11l.08-.31c.08-.34.17-.68.27-1.02C7.75,14.39,22.95,2.46,39.62.34c4.5-.57,8.69-.4,12.65.36l-7.95,24.51c-7.14.25-12.86,5.85-12.86,12.7Z"/>
        </g>
      </g>
      <path class="cls-14" d="M72.01,9.31l-8.56,26.35-10.42-7.83c-2.15-1.58-4.84-2.55-7.77-2.63L53.15.87c6.83,1.44,12.98,4.57,18.86,8.44Z"/>
      <path class="cls-5" d="M87.65,70.21c.17,1.37.26,2.77.26,4.2,0,2.16-.23,4.34-.66,6.47l-.06.28c-.06.27-.12.54-.18.81l-.07.24c-.08.35-.17.7-.27,1.03-2.43,7.84-7,14.61-12.89,19.79h-.01c-.33.3-.66.58-1,.85-10.22,8.48-24.12,12.3-37.83,8.93-7.3-1.8-13.89-5.6-19.94-9.97-.78-.56-6.99-5.57-11.18-8.8-.3-.24-.6-.47-.88-.68-1.62-1.25-2.78-2.11-2.94-2.11l16.36-19.46,20.4,14.31.04.03c2.28,1.7,5.17,2.72,8.29,2.72,7.41,0,13.4-5.7,13.4-12.72,0-.89-.1-1.77-.28-2.6-1.27-5.79-6.65-10.13-13.12-10.13-7.41,0-13.41,5.7-13.41,12.73,0,.78.08,1.55.22,2.3l-10.27-7.62-2.73-2.04-3.62-2.79-.19-.15c-.23-.18-.45-.36-.67-.54-2.26-1.86-4.23-3.98-5.9-6.33-.5-.65-.96-1.31-1.41-2.02-3.36-5.16-5.07-10.99-5.07-17.34,0-2.12.22-4.27.65-6.39.08-.39.16-.75.25-1.11l.08-.31c.08-.34.17-.68.27-1.02C7.75,14.39,22.95,2.46,39.62.34c4.5-.57,8.69-.4,12.65.36.3.05.59.1.88.17l-7.89,24.33c-.13-.01-.27-.01-.41-.01-.18,0-.35,0-.53.02-7.14.25-12.86,5.85-12.86,12.7,0,.92.1,1.81.29,2.68.65,2.9,2.34,5.42,4.68,7.21h0c.23.19.47.36.72.52,2.17,1.47,4.83,2.32,7.7,2.32,7.41,0,13.41-5.7,13.41-12.73,0-.66-.05-1.3-.16-1.94l4.27,3.05.87.62h0s5.09,3.65,5.09,3.65l2.76,1.98.05.03,3.71,2.88c2.54,1.96,4.74,4.27,6.56,6.85.52.67.99,1.34,1.4,1.97,2.42,3.72,3.98,7.77,4.67,12.08.07.37.12.75.17,1.13Z"/>
      <path class="cls-5" d="M64.32,36.31l-.87-.64h0s8.56-26.36,8.56-26.36c.3.19.59.39.88.59,5.81,3.9,11.37,8.48,17.1,12.81l-16.91,20.19-8.76-6.59Z"/>
    </g>
  </g>
</svg>