<?xml version="1.0" encoding="UTF-8"?>
<svg id="Layer_2" data-name="Layer 2" xmlns="http://www.w3.org/2000/svg" xmlns:xlink="http://www.w3.org/1999/xlink" viewBox="0 0 47 46.09">
  <defs>
    <style>
      .cls-1 {
        fill: url(#radial-gradient);
        isolation: isolate;
        opacity: .77;
        stroke: url(#radial-gradient-2);
        stroke-width: .25px;
      }

      .cls-1, .cls-2 {
        stroke-miterlimit: 10;
      }

      .cls-3 {
        fill: url(#linear-gradient);
      }

      .cls-3, .cls-4, .cls-5, .cls-6, .cls-7, .cls-8, .cls-9 {
        stroke-width: 0px;
      }

      .cls-4 {
        fill: url(#linear-gradient-6);
      }

      .cls-2 {
        fill: url(#linear-gradient-7);
        stroke: url(#linear-gradient-8);
        stroke-width: .75px;
      }

      .cls-5 {
        fill: url(#linear-gradient-5);
      }

      .cls-6 {
        fill: #988dff;
      }

      .cls-7 {
        fill: url(#linear-gradient-2);
      }

      .cls-8 {
        fill: url(#linear-gradient-3);
      }

      .cls-9 {
        fill: url(#linear-gradient-4);
      }
    </style>
    <radialGradient id="radial-gradient" cx="21.86" cy="23.07" fx="21.86" fy="23.07" r="21.25" gradientTransform="translate(.43 45.31) rotate(-90) scale(1.02 1)" gradientUnits="userSpaceOnUse">
      <stop offset="0" stop-color="#7f6eff"/>
      <stop offset=".97" stop-color="#6b5ee6"/>
    </radialGradient>
    <radialGradient id="radial-gradient-2" cx="23.5" cy="23.07" fx="23.5" fy="23.07" r="22.43" gradientTransform="translate(.43 46.57) rotate(-90)" gradientUnits="userSpaceOnUse">
      <stop offset="0" stop-color="#b4abff"/>
      <stop offset=".97" stop-color="#a8a1e6"/>
    </radialGradient>
    <linearGradient id="linear-gradient" x1="1.47" y1="54.62" x2="21.9" y2="24.66" gradientUnits="userSpaceOnUse">
      <stop offset="0" stop-color="#9894ff" stop-opacity="0"/>
      <stop offset="1" stop-color="#c6bfff" stop-opacity=".7"/>
    </linearGradient>
    <linearGradient id="linear-gradient-2" x1="1" y1="36.09" x2="28.81" y2="36.09" gradientUnits="userSpaceOnUse">
      <stop offset="0" stop-color="#9d99ff" stop-opacity=".3"/>
      <stop offset="1" stop-color="#fff" stop-opacity=".5"/>
    </linearGradient>
    <linearGradient id="linear-gradient-3" x1="64.12" y1="31" x2="31.52" y2="27.17" xlink:href="#linear-gradient"/>
    <linearGradient id="linear-gradient-4" x1="32.93" y1="28.39" x2="46" y2="28.39" gradientUnits="userSpaceOnUse">
      <stop offset="0" stop-color="#9d99ff" stop-opacity=".3"/>
      <stop offset="1" stop-color="#fff" stop-opacity=".2"/>
    </linearGradient>
    <linearGradient id="linear-gradient-5" x1="4.57" y1="-6.73" x2="35.89" y2="24.67" xlink:href="#linear-gradient"/>
    <linearGradient id="linear-gradient-6" x1="1" y1="13.5" x2="39.89" y2="13.5" gradientUnits="userSpaceOnUse">
      <stop offset="0" stop-color="#9d99ff" stop-opacity=".3"/>
      <stop offset="1" stop-color="#fff" stop-opacity=".2"/>
    </linearGradient>
    <linearGradient id="linear-gradient-7" x1="10.64" y1="24" x2="36.36" y2="24" gradientUnits="userSpaceOnUse">
      <stop offset="0" stop-color="#fff" stop-opacity=".99"/>
      <stop offset="1" stop-color="#fff" stop-opacity=".9"/>
    </linearGradient>
    <linearGradient id="linear-gradient-8" x1="10.1" y1="24" x2="36.9" y2="24" gradientUnits="userSpaceOnUse">
      <stop offset="0" stop-color="#9d99ff" stop-opacity="0"/>
      <stop offset="1" stop-color="#351fff" stop-opacity=".2"/>
    </linearGradient>
  </defs>
  <g id="Layer_1-2" data-name="Layer 1">
    <rect class="cls-6" y="0" width="47" height="46.09" rx="5.37" ry="5.37"/>
    <path class="cls-1" d="M5.22.57h36.55c2.12,0,3.83,1.72,3.83,3.83v37.33c0,2.12-1.72,3.83-3.83,3.83H5.22c-2.12,0-3.83-1.72-3.83-3.83V4.4C1.39,2.29,3.11.57,5.22.57Z" transform="translate(46.57 -.43) rotate(90)"/>
    <g>
      <g>
        <path class="cls-3" d="M28.58,40.96l-1.37,4.22H4.83c-2.11,0-3.83-1.71-3.83-3.83v-14.35s.05.01.08.02l24.42,7.91c2.51.82,3.89,3.52,3.08,6.03Z"/>
        <path class="cls-7" d="M1.15,27.2l24.3,7.87c2.43.79,3.77,3.41,2.98,5.84l-1.34,4.12H4.83c-2.03,0-3.68-1.65-3.68-3.68v-14.15M1,27v14.35c0,2.12,1.72,3.83,3.83,3.83h22.38l1.37-4.22c.81-2.51-.57-5.21-3.08-6.03L1.08,27.02s-.05-.02-.08-.02h0Z"/>
      </g>
      <g>
        <path class="cls-8" d="M46,11.73v29.62c0,2.11-1.72,3.83-3.83,3.83h-3.57l-2.84-.92c-2.15-.7-3.32-3-2.63-5.15l8-24.67c.67-2.05,2.81-3.22,4.87-2.71Z"/>
        <path class="cls-9" d="M45.03,11.61v.15c.28,0,.55.03.82.09v29.5c0,2.03-1.65,3.68-3.68,3.68h-3.55l-2.82-.91c-2.06-.67-3.2-2.9-2.53-4.96l8-24.67c.53-1.63,2.04-2.73,3.75-2.73v-.15M45.03,11.61c-1.72,0-3.33,1.1-3.9,2.83l-8,24.67c-.69,2.15.48,4.45,2.63,5.15l2.84.92h3.57c2.11,0,3.83-1.72,3.83-3.83V11.73c-.32-.08-.65-.12-.97-.12h0Z"/>
      </g>
      <g>
        <path class="cls-5" d="M39.89.96l-7.07,21.81c-.8,2.48-3.47,3.84-5.95,3.04L1,17.42V4.79C1,2.68,2.72.96,4.83.96h35.06Z"/>
        <path class="cls-4" d="M39.68,1.11l-7.01,21.61c-.61,1.89-2.36,3.17-4.36,3.17-.48,0-.95-.07-1.41-.22L1.15,17.31V4.79c0-2.03,1.65-3.68,3.68-3.68h34.85M39.89.96H4.83c-2.11,0-3.83,1.72-3.83,3.83v12.63l25.87,8.39c.48.16.97.23,1.45.23,2,0,3.85-1.27,4.5-3.27L39.89.96h0Z"/>
      </g>
    </g>
    <path class="cls-2" d="M34.73,24.61c.94,1.45,1.45,3.13,1.45,4.98,0,.63-.07,1.25-.19,1.85-.02.1-.04.19-.07.29-.03.13-.06.26-.1.38-1.42,5.21-6.4,9.06-12.32,9.06-2.85,0-5.49-.89-7.62-2.4l-.54-.4-4.71-3.55.37-.45.66-.79.75-.89,3.44-4.1.06-.07s.98.74.98.74c.67.5,1.33,1,2,1.5.96.72,1.86,1.57,3.01,2.03,2.22.88,4.83-.23,5.61-2.39.15-.41.23-.85.23-1.31,0-2.23-1.9-4.04-4.25-4.04-1.54,0-2.88.78-3.63,1.93-.01.02-.03.05-.04.07-.06.09-.11.19-.16.28-.03.06-.06.12-.09.18-.23.49-.35,1.02-.35,1.59,0,.17,0,.34.03.51,0,0-2.58-2-2.59-2.01l-2.1-1.62c-.74-.57-1.37-1.25-1.89-1.99-.15-.19-.29-.39-.42-.59-.94-1.44-1.45-3.12-1.45-4.97,0-.63.06-1.24.18-1.83.02-.11.04-.21.07-.31.03-.13.06-.26.1-.38,1.41-5.22,6.41-9.08,12.33-9.08,2.85,0,5.49.89,7.61,2.4l.53.4,4.72,3.56-5.28,6.3-1-.76c-1.41-1.06-2.76-2.26-4.26-3.2-2.28-1.43-5.46-.36-6.34,2.08-.15.41-.23.85-.23,1.31,0,2.23,1.9,4.03,4.25,4.03,1.33,0,2.52-.59,3.3-1.5.08-.09.15-.18.22-.28.04-.06.07-.11.11-.16.03-.06.07-.11.1-.17.34-.57.52-1.23.52-1.92,0-.17-.01-.34-.03-.5,0,0,2.58,2,2.59,2l2.1,1.62c.74.57,1.37,1.25,1.89,1.99.15.19.29.39.42.59Z"/>
  </g>
</svg>