<?xml version="1.0" encoding="utf-8"?>
<!-- Generator: Adobe Illustrator 28.1.0, SVG Export Plug-In . SVG Version: 6.00 Build 0)  -->
<svg version="1.1" id="Layer_2_00000128485212681563857290000009738449216487679914_"
	 xmlns="http://www.w3.org/2000/svg" xmlns:xlink="http://www.w3.org/1999/xlink" x="0px" y="0px" viewBox="0 0 608.2 620"
	 style="enable-background:new 0 0 608.2 620;" xml:space="preserve">
<style type="text/css">
	
		.st0{opacity:0.5;fill:url(#SVGID_1_);stroke:url(#SVGID_00000101789708187165668120000016165696676314622851_);stroke-miterlimit:10;enable-background:new    ;}
	
		.st1{opacity:0.5;fill:url(#SVGID_00000162340459418282385290000004870281576530696363_);stroke:url(#SVGID_00000060007048561785406420000008660925892200882060_);stroke-miterlimit:10;enable-background:new    ;}
	
		.st2{opacity:0.5;fill:url(#SVGID_00000042707391994211511770000002909222594746352776_);stroke:url(#SVGID_00000137092040182993310010000000060176513503379366_);stroke-miterlimit:10;enable-background:new    ;}
</style>
<g id="Reg_Shape_draw">
	
		<linearGradient id="SVGID_1_" gradientUnits="userSpaceOnUse" x1="209.9594" y1="127.4731" x2="287.5794" y2="232.663" gradientTransform="matrix(1 0 0 -1 5.278617e-03 620.0098)">
		<stop  offset="5.327789e-09" style="stop-color:#E0E0E0;stop-opacity:0"/>
		<stop  offset="1" style="stop-color:#F5F5F5;stop-opacity:0.7"/>
	</linearGradient>
	
		<linearGradient id="SVGID_00000143587735664249136560000003123487368207464341_" gradientUnits="userSpaceOnUse" x1="76.3752" y1="141.3943" x2="364.0887" y2="141.3943" gradientTransform="matrix(1 0 0 -1 5.278617e-03 620.0098)">
		<stop  offset="0" style="stop-color:#F5F5F5;stop-opacity:0.2"/>
		<stop  offset="1" style="stop-color:#FFFFFF"/>
	</linearGradient>
	
		<path style="opacity:0.5;fill:url(#SVGID_1_);stroke:url(#SVGID_00000143587735664249136560000003123487368207464341_);stroke-miterlimit:10;enable-background:new    ;" d="
		M158.1,338.5l194.6,63.1c8.2,2.7,12.7,11.5,10.1,19.7l-60.8,187.4c-2.7,8.2-11.5,12.7-19.7,10.1L87.7,555.7
		C79.5,553,75,544.2,77.6,536l60.8-187.4C141.1,340.3,149.9,335.8,158.1,338.5z"/>
	
		<linearGradient id="SVGID_00000016048244017632221580000004332695022226557828_" gradientUnits="userSpaceOnUse" x1="604.4891" y1="336.1371" x2="318.5291" y2="432.6471" gradientTransform="matrix(1 0 0 -1 7.981276e-03 620.0397)">
		<stop  offset="0" style="stop-color:#E0E0E0;stop-opacity:0"/>
		<stop  offset="1" style="stop-color:#F5F5F5;stop-opacity:0.7"/>
	</linearGradient>
	
		<linearGradient id="SVGID_00000072981349052041868900000008032204715540919701_" gradientUnits="userSpaceOnUse" x1="320.4466" y1="383.449" x2="608.1601" y2="383.449" gradientTransform="matrix(1 0 0 -1 7.981276e-03 620.0397)">
		<stop  offset="0" style="stop-color:#FFFFFF"/>
		<stop  offset="1" style="stop-color:#F5F5F5;stop-opacity:0.2"/>
	</linearGradient>
	
		<path style="opacity:0.5;fill:url(#SVGID_00000016048244017632221580000004332695022226557828_);stroke:url(#SVGID_00000072981349052041868900000008032204715540919701_);stroke-miterlimit:10;enable-background:new    ;" d="
		M606.9,179.2l-60.8,187.4c-2.7,8.2-11.5,12.7-19.7,10.1l-194.6-63.1c-8.2-2.7-12.7-11.5-10.1-19.7l60.8-187.4
		c2.7-8.2,11.5-12.7,19.7-10.1l194.6,63.1C605.1,162.2,609.6,171,606.9,179.2z"/>
	
		<linearGradient id="SVGID_00000081612931952835547040000006641687134742024631_" gradientUnits="userSpaceOnUse" x1="69.6769" y1="590.2832" x2="267.4717" y2="319.0006" gradientTransform="matrix(1 0 0 -1 7.053127e-04 620.0233)">
		<stop  offset="5.327789e-09" style="stop-color:#E0E0E0;stop-opacity:0"/>
		<stop  offset="1" style="stop-color:#F5F5F5;stop-opacity:0.4"/>
	</linearGradient>
	
		<linearGradient id="SVGID_00000016794426926669299800000005912687890762656946_" gradientUnits="userSpaceOnUse" x1="9.689139e-03" y1="453.7473" x2="338.4435" y2="453.7473" gradientTransform="matrix(1 0 0 -1 7.053127e-04 620.0233)">
		<stop  offset="0" style="stop-color:#F5F5F5;stop-opacity:0.2"/>
		<stop  offset="1" style="stop-color:#FFFFFF"/>
	</linearGradient>
	
		<path style="opacity:0.5;fill:url(#SVGID_00000081612931952835547040000006641687134742024631_);stroke:url(#SVGID_00000016794426926669299800000005912687890762656946_);stroke-miterlimit:10;enable-background:new    ;" d="
		M336,116.3l-61,188.3c-6.8,20.8-29.1,32.3-50,25.5L28,266.2c-20.8-6.8-32.3-29.1-25.5-50L63.5,28c6.8-20.8,29.1-32.3,50-25.5
		l197,63.9C331.3,73.1,342.8,95.5,336,116.3z"/>
</g>
</svg>
