<?xml version="1.0" encoding="UTF-8"?>
<svg xmlns="http://www.w3.org/2000/svg" viewBox="0 0 340.16 122.55">
  <defs>
    <style>
      .cls-1 {
        fill: #e5e2e1;
      }

      .cls-1, .cls-2, .cls-3, .cls-4 {
        stroke-width: 0px;
      }

      .cls-2, .cls-5 {
        fill: #2b318a;
      }

      .cls-6 {
        letter-spacing: .38em;
      }

      .cls-3 {
        fill: #fff;
      }

      .cls-7 {
        font-family: ArialMT, Arial;
        font-size: 17px;
      }

      .cls-7, .cls-4 {
        fill: #6e6d5e;
      }

      .cls-8 {
        letter-spacing: .36em;
      }

      .cls-5 {
        font-family: Arial-BoldMT, Arial;
        font-size: 19px;
        font-weight: 700;
        letter-spacing: .3em;
      }
    </style>
  </defs>
  <g id="FIXED">
    <g id="Calque_10" data-name="Calque 10">
      <g>
        <path class="cls-3" d="M29.86,112.61c-12.31,0-22.33-8.68-22.33-19.34V30.9c0-10.67,10.02-19.34,22.33-19.34h280.46c12.31,0,22.33,8.68,22.33,19.34v62.36c0,10.67-10.02,19.34-22.33,19.34H29.86Z"/>
        <path class="cls-1" d="M310.32,12.06c12.04,0,21.83,8.45,21.83,18.84v62.36c0,10.39-9.79,18.84-21.83,18.84H29.86c-12.04,0-21.83-8.45-21.83-18.84V30.9c0-10.39,9.79-18.84,21.83-18.84h280.46M310.32,11.06H29.86c-12.61,0-22.83,8.88-22.83,19.84v62.36c0,10.96,10.22,19.84,22.83,19.84h280.46c12.61,0,22.83-8.88,22.83-19.84V30.9c0-10.96-10.22-19.84-22.83-19.84h0Z"/>
      </g>
    </g>
    <g id="BV_LOGO" data-name="BV LOGO">
      <g id="BV_logo" data-name="BV logo">
        <path class="cls-4" d="M279.37,31.06c.08-.03-.09.03,0,0"/>
        <path class="cls-4" d="M279.37,31.06s-.01,0,0,0"/>
        <path class="cls-4" d="M286.58,74.24h-.06c-2.49,0-4.89-.37-7.15-1.05h0c-2.44-.85-4.7-2.54-6.09-4.66h0c-2.31-3.37-4.4-9.89-4.49-16.39v-.02c.09-6.49,2.18-13.01,4.49-16.39h0c1.4-2.12,3.66-3.82,6.09-4.66h0c2.27-.69,4.72-1.05,7.21-1.05h0c2.49,0,4.94.36,7.21,1.05h0c2.44.85,4.7,2.55,6.1,4.66h0c2.31,3.38,4.4,9.9,4.49,16.39v.02c-.09,6.49-2.18,13.01-4.49,16.39h0c-1.4,2.12-3.71,3.82-6.15,4.67h0c-2.27.69-4.61,1.05-7.11,1.05h-.05ZM302.99,52.13h0c.08-4.89-1.41-10.83-2.84-13.98-1.59-3.61-4.02-5.81-7.59-6.78-1.92-.49-3.94-.74-6.01-.74h0c-2.07,0-4.1.25-6.02.74-3.57.98-6,3.17-7.59,6.78-1.44,3.16-2.93,9.09-2.85,13.98h0c-.08,4.89,1.41,10.83,2.85,13.99,1.59,3.61,4.02,5.81,7.59,6.78,1.92.49,3.95.75,6.02.75h0c2.08,0,4.09-.25,6.01-.75,3.57-.98,6-3.17,7.59-6.78,1.44-3.16,2.93-9.09,2.84-13.99h0Z"/>
        <path class="cls-4" d="M289.02,42.06c-.24-.4-.04-.04-.29-.51"/>
        <path class="cls-4" d="M287.15,72.49c-.02-.9.86-1.35,1.41-1.94.15-.14.21-.43.1-.66-.06-.15-.16-.22-.28-.25-.19-.04-.35-.02-.48.09-.17.16-.22.37-.21.59l-.62.04c-.05-.34.03-.67.24-.92.29-.31.72-.39,1.14-.36.33.06.72.26.86.6.18.38.12.87-.16,1.19-.36.39-.83.6-1.13,1.03l1.55-.09c.01.19.02.38.03.55l-2.44.14h0Z"/>
        <path class="cls-4" d="M281.65,68.62v.03s-1.01,3.09-1.01,3.09l-.65-.21.69-2.11v-.04c-.25-.09-.56-.18-.81-.27l.13-.4c.32.09.66.14.94-.09.11-.08.12-.1.18-.16l.52.17h0Z"/>
        <path class="cls-4" d="M293.9,70.33c-.08-.3-.25-.55-.59-.64l-.2-.04c.2-.14.39-.43.32-.71-.05-.32-.28-.52-.57-.63-.26-.08-.55-.07-.83,0-.29.06-.55.19-.74.38-.2.23-.31.52-.2.82.07.28.36.45.61.48l-.15.13c-.26.24-.29.54-.22.84.07.34.35.61.68.71.25.06.55.06.85-.01.3-.07.57-.21.76-.39.25-.24.37-.61.27-.95h0ZM291.77,69.45c-.08-.13-.08-.36.06-.49.08-.08.19-.14.32-.18.12-.03.26-.03.37,0,.18.06.28.25.28.41,0,.12-.05.21-.13.29-.08.07-.19.12-.31.15-.12.03-.23.03-.33.01-.11-.03-.19-.09-.25-.19h0ZM293.12,70.94c-.08.09-.23.17-.39.21-.16.04-.32.05-.44,0-.16-.06-.27-.18-.31-.33-.06-.21,0-.44.18-.56.08-.05.19-.1.31-.14h0c.12-.03.25-.03.34-.02.22.03.38.2.42.41.03.15,0,.31-.12.43h0Z"/>
        <path class="cls-4" d="M285.54,71.49c.02-.31-.07-.6-.37-.79l-.18-.1c.23-.08.5-.29.52-.58.05-.32-.11-.58-.35-.77-.22-.15-.5-.22-.8-.24-.29-.02-.58.02-.82.14-.27.16-.46.4-.44.72-.02.29.22.54.44.64l-.19.08c-.32.16-.44.43-.46.74-.03.35.15.69.44.88.22.14.51.22.82.24.3.02.6-.03.84-.14.31-.16.53-.47.54-.82h0ZM283.78,70.02c-.04-.15.03-.37.21-.46.09-.06.23-.08.35-.07.13,0,.26.04.35.11.16.1.2.33.15.48-.04.12-.12.19-.21.24-.1.04-.22.06-.33.05-.12,0-.24-.03-.33-.09-.09-.06-.16-.14-.18-.26h0ZM284.62,71.84c-.11.07-.27.09-.43.08-.16,0-.32-.06-.42-.13-.14-.11-.2-.26-.2-.41,0-.22.13-.41.34-.48.1-.03.22-.05.34-.04h0c.12,0,.25.04.33.08.2.09.3.3.28.52-.01.14-.1.29-.25.37h0Z"/>
        <polygon class="cls-4" points="300.1 40.13 297.09 41.43 296.82 40.8 299.83 39.5 300.1 40.13 300.1 40.13"/>
        <path class="cls-4" d="M288.76,34.93l-.77-3.37.71.07c.14.84.29,1.78.46,2.49.31-.66.64-1.56.95-2.34l.7.07-1.42,3.15-.62-.06h0Z"/>
        <polygon class="cls-4" points="275.96 36.86 275.23 38.17 274.61 37.82 275.45 36.32 274.98 36.06 273.81 38.16 276.67 39.76 277.84 37.65 277.37 37.39 276.52 38.89 275.72 38.44 276.46 37.13 275.96 36.86 275.96 36.86"/>
        <path class="cls-4" d="M274.23,50.78c-.16-.36-.54-.49-.93-.47-.33.04-.58.26-.72.6-.05-.2-.24-.45-.55-.49-.33-.04-.64.05-.8.33-.22.28-.12,1.49-.15,2.2h3.25s0-.24,0-.24c-.02-1.29.05-1.45-.11-1.93h0ZM272.38,52.26h-.81c.03-.75-.1-1.15.36-1.2.27-.02.34.04.4.21.05.17.04.34.04.99h0ZM273.79,52.26h-.91s0,0,0,0c.02-.73-.1-1.16.33-1.24.15-.04.34-.02.45.09.19.18.13.48.13,1.15h0Z"/>
        <polygon class="cls-4" points="300.13 41.95 300.65 41.82 301.31 44.38 300.78 44.51 300.54 43.57 297.91 44.24 297.74 43.58 300.37 42.9 300.13 41.95 300.13 41.95"/>
        <path class="cls-4" d="M283.59,35.12c.36-.06.71-.21.94-.48.2-.22.22-.44.19-.68l-.37-2.34-.67.11.38,2.34c.02.18-.1.36-.26.45-.09.05-.19.09-.3.1-.11.02-.22.02-.31,0-.18-.04-.35-.15-.39-.35l-.38-2.34-.67.11.38,2.34c.05.24.14.43.4.59.3.18.67.22,1.04.16h0Z"/>
        <path class="cls-4" d="M301.64,46.59l-3.4-.68.09.66.74.14.16,1.17-.67.33.09.67,3.08-1.59-.09-.7h0ZM299.75,47.63l-.11-.81,1.41.21h0,0s0,0,0,0h0l-1.3.59h0Z"/>
        <path class="cls-4" d="M301.14,52.22h.06s.07-.03.07-.03l.06-.02c.22-.12.27-.41.25-.64,0-.24-.08-.48-.3-.57-.12-.03-.26-.04-.34.08-.37.55-.11,1.71-1.07,1.91-.42.07-.78-.11-1-.44-.3-.52-.32-1.35.02-1.86.2-.27.48-.43.81-.43l.04.63c-.2.03-.41.13-.5.33-.14.33-.11.85.14,1.04.09.1.29.09.4.03.38-.27.3-.95.49-1.4.06-.19.24-.39.42-.49.34-.14.77-.09,1.04.17.44.41.46,1.22.25,1.71-.12.34-.48.59-.87.61l-.04-.62h.04Z"/>
        <path class="cls-4" d="M274.78,47.27c.06-.37.02-.74-.16-1.04-.15-.26-.35-.35-.59-.4l-2.34-.36-.11.66,2.34.37c.18.03.31.21.35.38.02.1.02.21,0,.32-.01.11-.05.21-.1.3-.09.15-.25.28-.45.26l-2.34-.36-.1.66,2.34.37c.24.03.45,0,.68-.2.27-.23.42-.57.48-.94h0Z"/>
        <path class="cls-4" d="M278.41,33.27l-.6.37.72,3.39.58-.35-.17-.73,1.01-.62.58.49.57-.35-2.68-2.2h0ZM278.81,35.39l-.36-1.38h0s0,0,0,0h0s0,0,0,0l1.06.96-.7.43h0Z"/>
        <polygon class="cls-4" points="294.31 34.34 292.93 33.76 293.21 33.11 294.79 33.77 295 33.27 292.78 32.34 291.51 35.37 293.73 36.29 293.95 35.79 292.36 35.13 292.71 34.28 294.1 34.87 294.31 34.34 294.31 34.34"/>
        <path class="cls-4" d="M274.37,41.6c0-.22-.01-.41-.2-.59-.18-.19-.47-.27-.75-.25-.73.11-.83.95-1.23,2.27l3.14.94.2-.66-1.24-.37-.05-.02c.08-.3.21-.69.27-.77.22-.52,1.05-.01,1.38-.06l.19-.65c-.56.03-1.31-.47-1.71.15h0ZM273.72,42.77l-.82-.24c.18-.56.26-1.12.65-1.09.16.03.27.07.36.18.15.19-.04.61-.19,1.15h0Z"/>
        <path class="cls-4" d="M297.26,35.08l-2.6,1.99.41.54,1.03-.78.04-.03c.19.24.43.57.46.67.29.49-.62.86-.77,1.15l.41.54c.31-.47,1.15-.78.89-1.47.18.14.34.23.6.19.26-.04.49-.22.64-.46.34-.66-.28-1.23-1.11-2.33h0ZM297.75,37.11c-.12.11-.21.17-.36.18-.25.01-.47-.39-.81-.83l.68-.52c.35.47.76.87.5,1.17h0Z"/>
        <path class="cls-4" d="M295.33,39.71c-.69-1.57-2.07-2.73-3.74-3.21-1.57-.42-3.28-.66-4.99-.66h-.06c-1.71,0-3.42.24-4.99.66-1.68.48-3.05,1.64-3.74,3.21-1.51,3.22-2.49,7.86-2.49,12.42s.99,9.2,2.49,12.42c.69,1.57,2.06,2.73,3.74,3.21,1.57.42,3.28.66,4.99.66h.06c1.7,0,3.41-.24,4.99-.66,1.68-.48,3.05-1.64,3.74-3.21,1.5-3.22,2.49-7.86,2.49-12.42s-.99-9.2-2.49-12.42ZM292.44,48.95s.26-.05.27-.18v-2.88c.39-.09.79-.23,1.17-.31v1.73c.23-.03.34-.05.62-.1v2.29l-.71.11-.22.92h-2.54l-.38-.82c-.62-.06-.66-.06-1.28-.1.58-.75,1.18-1.49,1.58-2.32v-1.17l1.15-.15v2.77c0,.1.14.2.28.2h.06ZM290.95,38.36c.28-.08.67-.05.91.17.32.24.42.63.34,1-.23.8-1.12.95-1.84,1.13l-.4-.54c.15-.69.23-1.48.98-1.77ZM288.73,41.55l.29.51-.72.79c-.2-.19-.21-.21-.41-.41.37-.39.41-.43.84-.89ZM279.75,40.47h0c.13.37.37.64.74.82-.04-.2-.22-.38-.27-.6-.17-.41-.15-1,.12-1.36.19-.28.47-.4.77-.5-.12.34-.15.75,0,1.09.2-.15.21-.16.36-.31.06-.05.08-.07.13-.11.28.6.6,1.42.41,2.12l-.11.3c-.04-.49-.13-.72-.46-.9-.04.28.14.49.18.86.13.58.03,1.15-.33,1.48h-.92c-.7-.75-.75-1.88-.61-2.9ZM281.86,43.74v.52h-.49l-.21,1.76c-.21-.19-.45-.32-.71-.41-.13-.75-.14-.8-.2-1.35h-.48v-.52c.82,0,1.27,0,2.1,0ZM278.3,51.25h5.64s0,1.64,0,1.64h-5.64s0-1.64,0-1.64ZM280.48,47.96c.24-.06.46.08.64.22-.03.95-.03.94-.05,1.94h-.52v-.16c-.02-.76-.06-1.25-.07-2ZM280.12,59.54c-.1,0-.29-.02-.4-.05-.24-.06-.59-.19-.8-.52l-.04-.08-.04-.1-.04-.11-.02-.17v-3.06c-.03-.39-.17-.39-.48-.63l.11-.04,1.24-.41c.18.19.22.44.23.7v2.39c0,.16.13.25.31.25.22,0,.3-.08.32-.25.02-1.07-.02-1.37,0-2.35.03-.33.32-.65.6-.73.34-.17.76-.1,1.06.05.55.26.53,1.34.52,2.22-.22-.14-.25-.16-.47-.22-.19-.04-.4,0-.55.11-.18.16-.2.32-.2.61-.01,1.02.1,1.72-.41,2.12-.33.23-.63.25-.96.25ZM281.78,62.86c-.27-.18-.33-.35-.42-.6-.23-1.04,1.03-1.42,1.33-2.28.23-1.45.3-2.97,1.31-4.1.1-2.12.78-4,2.29-5.55-.07-.48-.27-.9-.41-1.34-.2,0-.33-.04-.51-.2-.13-.19-.19-.32-.22-.55-.53.65-1.18,1.38-1.9,1.82-.13.07-.3-.08-.54-.3-.88-.7-1.03-2.27-2.37-2.2-.61-.2-.58-.92-.68-1.46.23-.17.59-.16.87-.05.84.45,1.39,1.39,2.18,2.02.21.17.4.39.59.47.52-.45.94-.83,1.29-1.52.24-.39.65-.56,1.1-.57l.32-.38-.17-.94c-.33-.42-.6-.85-.82-1.32.12-.54.19-1.16.73-1.46.36-.22.65.28.94-.04.21-.05.4.01.55.14.22.38.48.77.5,1.21-.14.43-.34.83-.55,1.24-.05.09-.17.12-.25.18.05.18.09.39.22.53.16.03.31.06.51.02.16-.47.67-.69,1.09-.81l.93-.61c-.15-.71.31-1.33.05-2.04-.54-.25-.69-.85-.8-1.33.09-.29.23-.61.44-.85l.03.04c.51.59.98,1.21,1.14,1.94.09.94.18,1.91.12,2.89-.51.5-1.11.8-1.69,1.18l-.43.82c-.05.84-.3,1.6-.43,2.42.36.99.8,2.3.48,3.21-.24.54-.75.84-1.13,1.14l-.96.77c.96,1.06.73,2.26.77,3.79,0,.37.66.68.3,1.1-.3.47-.76.86-.68,1.48-.29.49-1,.6-1.33.59-.07,0-.13-.05-.13-.12.07-.25.27-.46.37-.7.34-.52.19-1.25.61-1.74-.35-1.14-.88-2.2-1.02-3.42v-.08c-.3.56-.13,1.11.01,1.55-.94,1.19-1.97,2.33-1.97,3.9-.4.72-.98,1.37-1.27,2.13-.1.13-.29.01-.4-.05ZM288.04,59.1c.55.02,1.11.48,1.33,1,.22.53.13,1.22-.2,1.65-.43.52-1.01.79-1.7.67-.43-.1-.86-.36-1.11-.76.35-.12.86-.32.96-.67-.03-.53.34-.96.62-1.39.14-.19.16-.3.12-.5ZM288.56,58.62v-4.84c.7-.01.92,0,1.64,0v4.84h-1.64ZM285.04,66.01c-.45.32-1.19.4-1.69.12-.28-.14-.54-.41-.7-.68-.12-.26-.17-.35-.18-.62,1.18,0,1.98,0,3.23,0,0,.45-.26.89-.67,1.18ZM287.26,66.13h-1.11v-1.99h-1.73v-.8h1.74l.55-.65c.26.31.29.33.56.65h1.74v.8h-1.74v1.99ZM290.73,65.45c-.16.27-.41.55-.7.68-.49.28-1.24.2-1.69-.12-.41-.29-.66-.73-.67-1.18,1.25,0,2.05,0,3.23,0-.01.27-.06.36-.18.62ZM291.98,55.46c.74.73,1.41,1.4,2.08,2.06.25.27.45.65.28,1-.08.17-.19.36-.3.52,0-.34-.15-.54-.34-.74-.91-.89-2.48-2.13-2.61-2.66-.14-.35-.09-.78-.1-1.19.27-.21.48-.39.79-.63-.02.63-.11,1.27.19,1.64ZM293.52,53.82c.35.28.52.44.85.75.19.82-.31,1.29-.67,1.87l-1.46-1.4v-.81c.17-.19.23-.26.44-.46l.41.5v1.38c.58-.28.44-1.11.44-1.82ZM293.17,61.2c-.17.19-.23.26-.44.46l-.41-.49v-1.38c-.58.28-.44,1.11-.44,1.82-.35-.28-.52-.44-.85-.75-.19-.82.31-1.29.68-1.87l1.46,1.4v.81ZM294.41,60.98c-.26.21-.48.38-.79.63.02-.62.11-1.26-.19-1.64-.74-.73-1.41-1.4-2.08-2.06-.25-.27-.45-.65-.28-1.01.08-.17.18-.36.3-.51,0,.34.15.54.35.74.9.89,2.47,2.13,2.6,2.66.13.35.09.78.1,1.19ZM294.98,52.9h-5.64v-1.65h5.64s0,1.65,0,1.65Z"/>
        <path class="cls-4" d="M267.94,81.09c-.48-.03-.93-.03-1.29-.03h0s0,1.37,0,1.37c1-.01,1.04,0,1.38-.04.35-.04.51-.35.51-.65s-.23-.63-.6-.66ZM283.5,79.18c-.28-.02-.81.01-1.28,0v1.26c.94,0,1.08,0,1.37-.03.29-.03.47-.29.47-.65s-.27-.55-.56-.59ZM267.87,80.31c.35,0,.57-.24.57-.63s-.29-.54-.61-.54h-1.18v1.17h1.22ZM297.96,79.34h0s0,0,0,0l-.61,2.04h1.21l-.61-2.04h0ZM260.91,77.09v7.5h51.02v-7.5h-51.02ZM267.94,83.25h-2.3v-4.86c.98,0,1.54,0,2.35,0,.75,0,1.34.41,1.4,1.15.05.52-.11.96-.73,1.12.55.15.9.65.9,1.3,0,.55-.43,1.3-1.62,1.3ZM277.03,81.93c-.01.36-.1.67-.45.96-.4.34-.95.48-1.49.48h-.02c-.55,0-1.09-.14-1.49-.48-.35-.28-.44-.59-.45-.96v-3.54h1v3.54c.01.29.23.51.49.6.14.06.3.09.46.08.16,0,.32-.02.46-.08.25-.09.48-.33.48-.6v-3.54h1.01v3.54ZM284.16,83.25c-.23,0,.12-1.93-.72-1.98-.47-.03-.76-.01-1.23,0v1.99s-1.01,0-1.01,0v-4.87c.93,0,1.46.01,2.3.01.75.04,1.5.34,1.55,1.16.06.95-.48,1.16-.98,1.33,1.16.25.73,1.61,1.04,2.38h-.96ZM292.48,79.17h-2.56v1.05h2.23s0,.84,0,.84h-2.23v1.36s2.56,0,2.56,0v.81h-3.58v-4.87h3.58v.8ZM299.2,83.25l-.35-1.06h-1.76l-.36,1.06h-1l1.71-4.87h1.05l1.7,4.87h-.99ZM307.22,81.93c-.01.36-.11.67-.45.95-.4.34-.94.48-1.49.48h-.01c-.54,0-1.09-.14-1.49-.48-.34-.28-.44-.59-.45-.95v-3.54h1.01v3.54c0,.29.23.5.48.6.14.06.3.08.46.08.16,0,.32-.02.46-.08.25-.1.48-.34.48-.6v-3.54h1.01v3.54Z"/>
      </g>
      <path class="cls-2" d="M281.74,87.84c-.29-.02-.81,0-1.29,0v1.26c.93,0,1.07,0,1.36-.03.29-.03.48-.29.48-.65,0-.36-.27-.56-.56-.58ZM298.91,88h0s0,0,0,0h0s-.61,2.05-.61,2.05h1.22l-.61-2.04h0ZM260.91,85.77v7.5h51.02v-7.5h-51.02ZM267.86,91.92h-.93l-1.65-4.87h1.06c.34,1.21.7,2.59,1.05,3.61.35-1.02.72-2.4,1.05-3.61h1.05s-1.63,4.87-1.63,4.87ZM275.67,88.9v.84h-2.23v1.37h2.56v.81s-3.58,0-3.58,0v-4.88h3.58v.81s-2.56,0-2.56,0v1.05h2.23ZM282.4,91.9c-.23,0,.11-1.93-.72-1.98-.47-.03-.76,0-1.23,0v1.98s-1.01,0-1.01,0v-4.87c.93,0,1.47.01,2.3.01.75.04,1.5.34,1.55,1.16.06.95-.48,1.16-.98,1.32,1.16.25.73,1.61,1.04,2.37h-.96ZM287.96,91.92h-1.02v-4.88h1.02v4.88ZM294.72,87.87h-1.45v4.04h-1.01v-4.04h-1.46v-.8h3.93v.8ZM300.14,91.92l-.36-1.06h-1.76l-.35,1.06h-1l1.71-4.87h1.05l1.71,4.87h-1ZM305.51,92.03c-1.48,0-2.05-.92-2.05-1.63l.93-.04c0,.39.37.89,1.04.89.52,0,1.1-.11,1.1-.68,0-1.04-2.93-.43-2.93-2.07,0-.87.6-1.62,1.88-1.62,1.79,0,1.95,1.21,1.95,1.52l-.94.03c0-.4-.24-.76-.9-.76-.72,0-.99.31-.99.65,0,.88,2.95.43,2.95,2.07,0,1.09-.85,1.64-2.04,1.64Z"/>
    </g>
  </g>
  <g id="CERTIFIED">
    <text class="cls-7" transform="translate(28.17 56.43) scale(.99 1)"><tspan class="cls-6" x="0" y="0">CE</tspan><tspan class="cls-8" x="36.54" y="0">R</tspan><tspan class="cls-6" x="54.97" y="0">TIFIED</tspan></text>
  </g>
  <g id="other_TXT" data-name="other TXT">
    <text class="cls-5" transform="translate(28.37 68.4)"><tspan x="0" y="0"> </tspan><tspan x="0" y="15">ISO 27001 </tspan></text>
    <path id="qr-path" class="cls-4" d="M210.8,76.75v1.3h1.3v-1.3h-1.3ZM225.13,76.75v1.3h1.3v-1.3h-1.3ZM200.38,71.54v1.3h1.3v-1.3h-1.3ZM216.01,37.68v1.3h1.3v-1.3h-1.3ZM230.34,37.68v1.3h1.3v-1.3h-1.3ZM229.03,79.36v1.3h1.3v-1.3h-1.3ZM216.01,49.4v1.3h1.3v-1.3h-1.3ZM191.26,44.19v1.3h1.3v-1.3h-1.3ZM201.68,61.12v1.3h1.3v-1.3h-1.3ZM230.34,61.12v1.3h1.3v-1.3h-1.3ZM191.26,55.91v1.3h1.3v-1.3h-1.3ZM204.29,72.85v1.3h1.3v-1.3h-1.3ZM223.82,70.24v1.3h1.3v-1.3h-1.3ZM196.47,40.29v1.3h1.3v-1.3h-1.3ZM235.55,41.59v1.3h1.3v-1.3h-1.3ZM204.29,84.57v1.3h1.3v-1.3h-1.3ZM193.87,79.36v1.3h1.3v-1.3h-1.3ZM219.92,50.7v1.3h1.3v-1.3h-1.3ZM235.55,53.31v1.3h1.3v-1.3h-1.3ZM195.17,45.5v1.3h1.3v-1.3h-1.3ZM219.92,62.43v1.3h1.3v-1.3h-1.3ZM195.17,57.22v1.3h1.3v-1.3h-1.3ZM209.5,57.22v1.3h1.3v-1.3h-1.3ZM219.92,74.15v1.3h1.3v-1.3h-1.3ZM209.5,68.94v1.3h1.3v-1.3h-1.3ZM195.17,80.66v1.3h1.3v-1.3h-1.3ZM210.8,46.8v1.3h1.3v-1.3h-1.3ZM225.13,46.8v1.3h1.3v-1.3h-1.3ZM210.8,58.52v1.3h1.3v-1.3h-1.3ZM200.38,53.31v1.3h1.3v-1.3h-1.3ZM200.38,65.03v1.3h1.3v-1.3h-1.3ZM214.71,76.75v1.3h1.3v-1.3h-1.3ZM226.43,48.1v1.3h1.3v-1.3h-1.3ZM229.03,72.85v1.3h1.3v-1.3h-1.3ZM230.34,42.89v1.3h1.3v-1.3h-1.3ZM191.26,37.68v1.3h1.3v-1.3h-1.3ZM199.08,81.96v1.3h1.3v-1.3h-1.3ZM191.26,49.4v1.3h1.3v-1.3h-1.3ZM234.24,45.5v1.3h1.3v-1.3h-1.3ZM234.24,57.22v1.3h1.3v-1.3h-1.3ZM204.29,66.33v1.3h1.3v-1.3h-1.3ZM234.24,68.94v1.3h1.3v-1.3h-1.3ZM223.82,63.73v1.3h1.3v-1.3h-1.3ZM204.29,78.06v1.3h1.3v-1.3h-1.3ZM234.24,80.66v1.3h1.3v-1.3h-1.3ZM223.82,75.45v1.3h1.3v-1.3h-1.3ZM193.87,84.57v1.3h1.3v-1.3h-1.3ZM219.92,55.91v1.3h1.3v-1.3h-1.3ZM235.55,58.52v1.3h1.3v-1.3h-1.3ZM195.17,50.7v1.3h1.3v-1.3h-1.3ZM219.92,67.64v1.3h1.3v-1.3h-1.3ZM235.55,70.24v1.3h1.3v-1.3h-1.3ZM195.17,62.43v1.3h1.3v-1.3h-1.3ZM209.5,62.43v1.3h1.3v-1.3h-1.3ZM219.92,79.36v1.3h1.3v-1.3h-1.3ZM209.5,74.15v1.3h1.3v-1.3h-1.3ZM210.8,40.29v1.3h1.3v-1.3h-1.3ZM225.13,40.29v1.3h1.3v-1.3h-1.3ZM238.15,81.96v1.3h1.3v-1.3h-1.3ZM225.13,63.73v1.3h1.3v-1.3h-1.3ZM200.38,58.52v1.3h1.3v-1.3h-1.3ZM218.61,72.85v1.3h1.3v-1.3h-1.3ZM204.29,48.1v1.3h1.3v-1.3h-1.3ZM234.24,50.7v1.3h1.3v-1.3h-1.3ZM204.29,59.82v1.3h1.3v-1.3h-1.3ZM193.87,54.61v1.3h1.3v-1.3h-1.3ZM223.82,68.94v1.3h1.3v-1.3h-1.3ZM235.55,40.29v1.3h1.3v-1.3h-1.3ZM219.92,49.4v1.3h1.3v-1.3h-1.3ZM195.17,55.91v1.3h1.3v-1.3h-1.3ZM219.92,72.85v1.3h1.3v-1.3h-1.3ZM195.17,67.64v1.3h1.3v-1.3h-1.3ZM209.5,79.36v1.3h1.3v-1.3h-1.3ZM225.13,45.5v1.3h1.3v-1.3h-1.3ZM227.73,70.24v1.3h1.3v-1.3h-1.3ZM213.41,81.96v1.3h1.3v-1.3h-1.3ZM200.38,52.01v1.3h1.3v-1.3h-1.3ZM214.71,52.01v1.3h1.3v-1.3h-1.3ZM202.99,76.75v1.3h1.3v-1.3h-1.3ZM229.03,48.1v1.3h1.3v-1.3h-1.3ZM218.61,54.61v1.3h1.3v-1.3h-1.3ZM199.08,68.94v1.3h1.3v-1.3h-1.3ZM229.03,71.54v1.3h1.3v-1.3h-1.3ZM199.08,80.66v1.3h1.3v-1.3h-1.3ZM218.61,78.06v1.3h1.3v-1.3h-1.3ZM223.82,38.98v1.3h1.3v-1.3h-1.3ZM193.87,48.1v1.3h1.3v-1.3h-1.3ZM204.29,65.03v1.3h1.3v-1.3h-1.3ZM193.87,59.82v1.3h1.3v-1.3h-1.3ZM204.29,76.75v1.3h1.3v-1.3h-1.3ZM193.87,71.54v1.3h1.3v-1.3h-1.3ZM223.82,74.15v1.3h1.3v-1.3h-1.3ZM235.55,45.5v1.3h1.3v-1.3h-1.3ZM195.17,37.68v1.3h1.3v-1.3h-1.3ZM209.5,37.68v1.3h1.3v-1.3h-1.3ZM232.94,84.57v1.3h1.3v-1.3h-1.3ZM208.2,79.36v1.3h1.3v-1.3h-1.3ZM222.52,79.36v1.3h1.3v-1.3h-1.3ZM209.5,49.4v1.3h1.3v-1.3h-1.3ZM238.15,57.22v1.3h1.3v-1.3h-1.3ZM238.15,68.94v1.3h1.3v-1.3h-1.3ZM213.41,63.73v1.3h1.3v-1.3h-1.3ZM238.15,80.66v1.3h1.3v-1.3h-1.3ZM213.41,75.45v1.3h1.3v-1.3h-1.3ZM227.73,75.45v1.3h1.3v-1.3h-1.3ZM202.99,70.24v1.3h1.3v-1.3h-1.3ZM197.78,84.57v1.3h1.3v-1.3h-1.3ZM202.99,81.96v1.3h1.3v-1.3h-1.3ZM199.08,50.7v1.3h1.3v-1.3h-1.3ZM218.61,59.82v1.3h1.3v-1.3h-1.3ZM199.08,74.15v1.3h1.3v-1.3h-1.3ZM218.61,83.26v1.3h1.3v-1.3h-1.3ZM234.24,37.68v1.3h1.3v-1.3h-1.3ZM234.24,49.4v1.3h1.3v-1.3h-1.3ZM193.87,41.59v1.3h1.3v-1.3h-1.3ZM193.87,53.31v1.3h1.3v-1.3h-1.3ZM223.82,55.91v1.3h1.3v-1.3h-1.3ZM193.87,76.75v1.3h1.3v-1.3h-1.3ZM232.94,78.06v1.3h1.3v-1.3h-1.3ZM219.92,48.1v1.3h1.3v-1.3h-1.3ZM222.52,72.85v1.3h1.3v-1.3h-1.3ZM195.17,42.89v1.3h1.3v-1.3h-1.3ZM209.5,42.89v1.3h1.3v-1.3h-1.3ZM236.85,84.57v1.3h1.3v-1.3h-1.3ZM238.15,38.98v1.3h1.3v-1.3h-1.3ZM212.1,79.36v1.3h1.3v-1.3h-1.3ZM238.15,50.7v1.3h1.3v-1.3h-1.3ZM227.73,45.5v1.3h1.3v-1.3h-1.3ZM238.15,62.43v1.3h1.3v-1.3h-1.3ZM213.41,68.94v1.3h1.3v-1.3h-1.3ZM213.41,80.66v1.3h1.3v-1.3h-1.3ZM202.99,75.45v1.3h1.3v-1.3h-1.3ZM199.08,44.19v1.3h1.3v-1.3h-1.3ZM199.08,55.91v1.3h1.3v-1.3h-1.3ZM229.03,58.52v1.3h1.3v-1.3h-1.3ZM199.08,79.36v1.3h1.3v-1.3h-1.3ZM218.61,76.75v1.3h1.3v-1.3h-1.3ZM204.29,40.29v1.3h1.3v-1.3h-1.3ZM234.24,42.89v1.3h1.3v-1.3h-1.3ZM217.31,81.96v1.3h1.3v-1.3h-1.3ZM231.64,81.96v1.3h1.3v-1.3h-1.3ZM204.29,52.01v1.3h1.3v-1.3h-1.3ZM193.87,58.52v1.3h1.3v-1.3h-1.3ZM232.94,71.54v1.3h1.3v-1.3h-1.3ZM208.2,66.33v1.3h1.3v-1.3h-1.3ZM236.85,66.33v1.3h1.3v-1.3h-1.3ZM232.94,83.26v1.3h1.3v-1.3h-1.3ZM236.85,78.06v1.3h1.3v-1.3h-1.3ZM238.15,44.19v1.3h1.3v-1.3h-1.3ZM212.1,84.57v1.3h1.3v-1.3h-1.3ZM213.41,38.98v1.3h1.3v-1.3h-1.3ZM227.73,38.98v1.3h1.3v-1.3h-1.3ZM238.15,55.91v1.3h1.3v-1.3h-1.3ZM213.41,50.7v1.3h1.3v-1.3h-1.3ZM227.73,50.7v1.3h1.3v-1.3h-1.3ZM238.15,67.64v1.3h1.3v-1.3h-1.3ZM197.78,59.82v1.3h1.3v-1.3h-1.3ZM213.41,74.15v1.3h1.3v-1.3h-1.3ZM227.73,74.15v1.3h1.3v-1.3h-1.3ZM202.99,68.94v1.3h1.3v-1.3h-1.3ZM199.08,37.68v1.3h1.3v-1.3h-1.3ZM202.99,80.66v1.3h1.3v-1.3h-1.3ZM229.03,52.01v1.3h1.3v-1.3h-1.3ZM218.61,46.8v1.3h1.3v-1.3h-1.3ZM199.08,61.12v1.3h1.3v-1.3h-1.3ZM217.31,75.45v1.3h1.3v-1.3h-1.3ZM204.29,45.5v1.3h1.3v-1.3h-1.3ZM221.22,70.24v1.3h1.3v-1.3h-1.3ZM193.87,40.29v1.3h1.3v-1.3h-1.3ZM232.94,41.59v1.3h1.3v-1.3h-1.3ZM206.89,81.96v1.3h1.3v-1.3h-1.3ZM232.94,53.31v1.3h1.3v-1.3h-1.3ZM196.47,76.75v1.3h1.3v-1.3h-1.3ZM208.2,48.1v1.3h1.3v-1.3h-1.3ZM222.52,48.1v1.3h1.3v-1.3h-1.3ZM236.85,48.1v1.3h1.3v-1.3h-1.3ZM236.85,59.82v1.3h1.3v-1.3h-1.3ZM232.94,76.75v1.3h1.3v-1.3h-1.3ZM192.57,68.94v1.3h1.3v-1.3h-1.3ZM236.85,71.54v1.3h1.3v-1.3h-1.3ZM222.52,83.26v1.3h1.3v-1.3h-1.3ZM238.15,37.68v1.3h1.3v-1.3h-1.3ZM227.73,44.19v1.3h1.3v-1.3h-1.3ZM238.15,61.12v1.3h1.3v-1.3h-1.3ZM202.99,38.98v1.3h1.3v-1.3h-1.3ZM227.73,55.91v1.3h1.3v-1.3h-1.3ZM197.78,65.03v1.3h1.3v-1.3h-1.3ZM227.73,67.64v1.3h1.3v-1.3h-1.3ZM197.78,76.75v1.3h1.3v-1.3h-1.3ZM202.99,74.15v1.3h1.3v-1.3h-1.3ZM199.08,42.89v1.3h1.3v-1.3h-1.3ZM218.61,40.29v1.3h1.3v-1.3h-1.3ZM201.68,79.36v1.3h1.3v-1.3h-1.3ZM216.01,79.36v1.3h1.3v-1.3h-1.3ZM217.31,57.22v1.3h1.3v-1.3h-1.3ZM231.64,57.22v1.3h1.3v-1.3h-1.3ZM217.31,80.66v1.3h1.3v-1.3h-1.3ZM206.89,75.45v1.3h1.3v-1.3h-1.3ZM221.22,75.45v1.3h1.3v-1.3h-1.3ZM208.2,41.59v1.3h1.3v-1.3h-1.3ZM222.52,41.59v1.3h1.3v-1.3h-1.3ZM232.94,58.52v1.3h1.3v-1.3h-1.3ZM196.47,81.96v1.3h1.3v-1.3h-1.3ZM192.57,50.7v1.3h1.3v-1.3h-1.3ZM208.2,53.31v1.3h1.3v-1.3h-1.3ZM222.52,53.31v1.3h1.3v-1.3h-1.3ZM212.1,48.1v1.3h1.3v-1.3h-1.3ZM208.2,65.03v1.3h1.3v-1.3h-1.3ZM236.85,65.03v1.3h1.3v-1.3h-1.3ZM236.85,76.75v1.3h1.3v-1.3h-1.3ZM212.1,71.54v1.3h1.3v-1.3h-1.3ZM238.15,42.89v1.3h1.3v-1.3h-1.3ZM227.73,37.68v1.3h1.3v-1.3h-1.3ZM227.73,49.4v1.3h1.3v-1.3h-1.3ZM197.78,58.52v1.3h1.3v-1.3h-1.3ZM227.73,61.12v1.3h1.3v-1.3h-1.3ZM197.78,70.24v1.3h1.3v-1.3h-1.3ZM226.43,66.33v1.3h1.3v-1.3h-1.3ZM216.01,72.85v1.3h1.3v-1.3h-1.3ZM201.68,84.57v1.3h1.3v-1.3h-1.3ZM217.31,38.98v1.3h1.3v-1.3h-1.3ZM230.34,84.57v1.3h1.3v-1.3h-1.3ZM191.26,79.36v1.3h1.3v-1.3h-1.3ZM206.89,45.5v1.3h1.3v-1.3h-1.3ZM206.89,57.22v1.3h1.3v-1.3h-1.3ZM231.64,74.15v1.3h1.3v-1.3h-1.3ZM196.47,52.01v1.3h1.3v-1.3h-1.3ZM206.89,68.94v1.3h1.3v-1.3h-1.3ZM232.94,40.29v1.3h1.3v-1.3h-1.3ZM221.22,80.66v1.3h1.3v-1.3h-1.3ZM232.94,52.01v1.3h1.3v-1.3h-1.3ZM232.94,63.73v1.3h1.3v-1.3h-1.3ZM212.1,41.59v1.3h1.3v-1.3h-1.3ZM192.57,55.91v1.3h1.3v-1.3h-1.3ZM208.2,58.52v1.3h1.3v-1.3h-1.3ZM212.1,53.31v1.3h1.3v-1.3h-1.3ZM236.85,70.24v1.3h1.3v-1.3h-1.3ZM227.73,42.89v1.3h1.3v-1.3h-1.3ZM202.99,37.68v1.3h1.3v-1.3h-1.3ZM210.8,81.96v1.3h1.3v-1.3h-1.3ZM225.13,81.96v1.3h1.3v-1.3h-1.3ZM201.68,54.61v1.3h1.3v-1.3h-1.3ZM216.01,54.61v1.3h1.3v-1.3h-1.3ZM226.43,71.54v1.3h1.3v-1.3h-1.3ZM191.26,61.12v1.3h1.3v-1.3h-1.3ZM205.59,61.12v1.3h1.3v-1.3h-1.3ZM216.01,78.06v1.3h1.3v-1.3h-1.3ZM191.26,72.85v1.3h1.3v-1.3h-1.3ZM205.59,72.85v1.3h1.3v-1.3h-1.3ZM217.31,44.19v1.3h1.3v-1.3h-1.3ZM191.26,84.57v1.3h1.3v-1.3h-1.3ZM206.89,38.98v1.3h1.3v-1.3h-1.3ZM205.59,84.57v1.3h1.3v-1.3h-1.3ZM206.89,50.7v1.3h1.3v-1.3h-1.3ZM217.31,67.64v1.3h1.3v-1.3h-1.3ZM196.47,45.5v1.3h1.3v-1.3h-1.3ZM231.64,67.64v1.3h1.3v-1.3h-1.3ZM221.22,62.43v1.3h1.3v-1.3h-1.3ZM231.64,79.36v1.3h1.3v-1.3h-1.3ZM196.47,57.22v1.3h1.3v-1.3h-1.3ZM232.94,45.5v1.3h1.3v-1.3h-1.3ZM196.47,68.94v1.3h1.3v-1.3h-1.3ZM192.57,37.68v1.3h1.3v-1.3h-1.3ZM222.52,40.29v1.3h1.3v-1.3h-1.3ZM196.47,80.66v1.3h1.3v-1.3h-1.3ZM192.57,49.4v1.3h1.3v-1.3h-1.3ZM222.52,52.01v1.3h1.3v-1.3h-1.3ZM236.85,52.01v1.3h1.3v-1.3h-1.3ZM212.1,46.8v1.3h1.3v-1.3h-1.3ZM212.1,58.52v1.3h1.3v-1.3h-1.3ZM210.8,63.73v1.3h1.3v-1.3h-1.3ZM197.78,45.5v1.3h1.3v-1.3h-1.3ZM200.38,70.24v1.3h1.3v-1.3h-1.3ZM226.43,41.59v1.3h1.3v-1.3h-1.3ZM201.68,48.1v1.3h1.3v-1.3h-1.3ZM191.26,42.89v1.3h1.3v-1.3h-1.3ZM216.01,59.82v1.3h1.3v-1.3h-1.3ZM191.26,54.61v1.3h1.3v-1.3h-1.3ZM201.68,83.26v1.3h1.3v-1.3h-1.3ZM217.31,37.68v1.3h1.3v-1.3h-1.3ZM231.64,37.68v1.3h1.3v-1.3h-1.3ZM191.26,78.06v1.3h1.3v-1.3h-1.3ZM230.34,83.26v1.3h1.3v-1.3h-1.3ZM217.31,49.4v1.3h1.3v-1.3h-1.3ZM231.64,49.4v1.3h1.3v-1.3h-1.3ZM217.31,61.12v1.3h1.3v-1.3h-1.3ZM231.64,61.12v1.3h1.3v-1.3h-1.3ZM206.89,67.64v1.3h1.3v-1.3h-1.3ZM196.47,62.43v1.3h1.3v-1.3h-1.3ZM235.55,63.73v1.3h1.3v-1.3h-1.3ZM196.47,74.15v1.3h1.3v-1.3h-1.3ZM222.52,45.5v1.3h1.3v-1.3h-1.3ZM236.85,45.5v1.3h1.3v-1.3h-1.3ZM219.92,84.57v1.3h1.3v-1.3h-1.3ZM195.17,79.36v1.3h1.3v-1.3h-1.3ZM225.13,57.22v1.3h1.3v-1.3h-1.3ZM210.8,57.22v1.3h1.3v-1.3h-1.3ZM210.8,68.94v1.3h1.3v-1.3h-1.3ZM225.13,68.94v1.3h1.3v-1.3h-1.3ZM214.71,63.73v1.3h1.3v-1.3h-1.3ZM214.71,75.45v1.3h1.3v-1.3h-1.3ZM226.43,46.8v1.3h1.3v-1.3h-1.3ZM201.68,41.59v1.3h1.3v-1.3h-1.3ZM216.01,41.59v1.3h1.3v-1.3h-1.3ZM230.34,41.59v1.3h1.3v-1.3h-1.3ZM226.43,58.52v1.3h1.3v-1.3h-1.3ZM201.68,53.31v1.3h1.3v-1.3h-1.3ZM216.01,53.31v1.3h1.3v-1.3h-1.3ZM230.34,53.31v1.3h1.3v-1.3h-1.3ZM191.26,48.1v1.3h1.3v-1.3h-1.3ZM216.01,65.03v1.3h1.3v-1.3h-1.3ZM201.68,76.75v1.3h1.3v-1.3h-1.3ZM230.34,76.75v1.3h1.3v-1.3h-1.3ZM191.26,71.54v1.3h1.3v-1.3h-1.3ZM205.59,71.54v1.3h1.3v-1.3h-1.3ZM217.31,42.89v1.3h1.3v-1.3h-1.3ZM191.26,83.26v1.3h1.3v-1.3h-1.3ZM221.22,37.68v1.3h1.3v-1.3h-1.3ZM205.59,83.26v1.3h1.3v-1.3h-1.3ZM217.31,54.61v1.3h1.3v-1.3h-1.3ZM231.64,54.61v1.3h1.3v-1.3h-1.3ZM234.24,79.36v1.3h1.3v-1.3h-1.3ZM221.22,49.4v1.3h1.3v-1.3h-1.3ZM219.92,66.33v1.3h1.3v-1.3h-1.3ZM235.55,68.94v1.3h1.3v-1.3h-1.3ZM195.17,84.57v1.3h1.3v-1.3h-1.3ZM210.8,38.98v1.3h1.3v-1.3h-1.3ZM210.8,50.7v1.3h1.3v-1.3h-1.3ZM225.13,50.7v1.3h1.3v-1.3h-1.3ZM214.71,45.5v1.3h1.3v-1.3h-1.3ZM225.13,62.43v1.3h1.3v-1.3h-1.3ZM214.71,57.22v1.3h1.3v-1.3h-1.3ZM210.8,74.15v1.3h1.3v-1.3h-1.3ZM225.13,74.15v1.3h1.3v-1.3h-1.3ZM200.38,68.94v1.3h1.3v-1.3h-1.3ZM214.71,68.94v1.3h1.3v-1.3h-1.3ZM191.26,41.59v1.3h1.3v-1.3h-1.3ZM205.59,41.59v1.3h1.3v-1.3h-1.3ZM201.68,58.52v1.3h1.3v-1.3h-1.3ZM230.34,58.52v1.3h1.3v-1.3h-1.3ZM205.59,53.31v1.3h1.3v-1.3h-1.3ZM216.01,70.24v1.3h1.3v-1.3h-1.3ZM206.89,42.89v1.3h1.3v-1.3h-1.3ZM221.22,42.89v1.3h1.3v-1.3h-1.3ZM196.47,37.68v1.3h1.3v-1.3h-1.3ZM204.29,81.96v1.3h1.3v-1.3h-1.3ZM234.24,84.57v1.3h1.3v-1.3h-1.3ZM223.82,79.36v1.3h1.3v-1.3h-1.3ZM196.47,49.4v1.3h1.3v-1.3h-1.3ZM235.55,50.7v1.3h1.3v-1.3h-1.3ZM219.92,59.82v1.3h1.3v-1.3h-1.3ZM209.5,54.61v1.3h1.3v-1.3h-1.3ZM235.55,74.15v1.3h1.3v-1.3h-1.3ZM209.5,66.33v1.3h1.3v-1.3h-1.3ZM210.8,44.19v1.3h1.3v-1.3h-1.3ZM225.13,44.19v1.3h1.3v-1.3h-1.3ZM214.71,38.98v1.3h1.3v-1.3h-1.3ZM210.8,55.91v1.3h1.3v-1.3h-1.3ZM200.38,50.7v1.3h1.3v-1.3h-1.3ZM214.71,50.7v1.3h1.3v-1.3h-1.3ZM210.8,67.64v1.3h1.3v-1.3h-1.3ZM200.38,62.43v1.3h1.3v-1.3h-1.3ZM210.8,79.36v1.3h1.3v-1.3h-1.3ZM225.13,79.36v1.3h1.3v-1.3h-1.3ZM216.01,40.29v1.3h1.3v-1.3h-1.3ZM230.34,40.29v1.3h1.3v-1.3h-1.3ZM229.03,81.96v1.3h1.3v-1.3h-1.3ZM216.01,52.01v1.3h1.3v-1.3h-1.3ZM230.34,52.01v1.3h1.3v-1.3h-1.3ZM191.26,58.52v1.3h1.3v-1.3h-1.3ZM223.82,61.12v1.3h1.3v-1.3h-1.3ZM204.29,75.45v1.3h1.3v-1.3h-1.3ZM193.87,70.24v1.3h1.3v-1.3h-1.3ZM219.92,41.59v1.3h1.3v-1.3h-1.3ZM193.87,81.96v1.3h1.3v-1.3h-1.3ZM223.82,84.57v1.3h1.3v-1.3h-1.3ZM219.92,53.31v1.3h1.3v-1.3h-1.3ZM235.55,55.91v1.3h1.3v-1.3h-1.3ZM195.17,48.1v1.3h1.3v-1.3h-1.3ZM195.17,59.82v1.3h1.3v-1.3h-1.3ZM209.5,59.82v1.3h1.3v-1.3h-1.3ZM225.13,37.68v1.3h1.3v-1.3h-1.3ZM225.13,49.4v1.3h1.3v-1.3h-1.3ZM210.8,61.12v1.3h1.3v-1.3h-1.3ZM225.13,61.12v1.3h1.3v-1.3h-1.3ZM200.38,67.64v1.3h1.3v-1.3h-1.3ZM214.71,67.64v1.3h1.3v-1.3h-1.3ZM226.43,38.98v1.3h1.3v-1.3h-1.3ZM229.03,63.73v1.3h1.3v-1.3h-1.3ZM230.34,45.5v1.3h1.3v-1.3h-1.3ZM218.61,70.24v1.3h1.3v-1.3h-1.3ZM191.26,40.29v1.3h1.3v-1.3h-1.3ZM205.59,40.29v1.3h1.3v-1.3h-1.3ZM199.08,84.57v1.3h1.3v-1.3h-1.3ZM218.61,81.96v1.3h1.3v-1.3h-1.3ZM234.24,48.1v1.3h1.3v-1.3h-1.3ZM204.29,57.22v1.3h1.3v-1.3h-1.3ZM234.24,71.54v1.3h1.3v-1.3h-1.3ZM223.82,66.33v1.3h1.3v-1.3h-1.3ZM204.29,80.66v1.3h1.3v-1.3h-1.3ZM235.55,37.68v1.3h1.3v-1.3h-1.3ZM219.92,46.8v1.3h1.3v-1.3h-1.3ZM235.55,49.4v1.3h1.3v-1.3h-1.3ZM195.17,41.59v1.3h1.3v-1.3h-1.3ZM219.92,58.52v1.3h1.3v-1.3h-1.3ZM235.55,61.12v1.3h1.3v-1.3h-1.3ZM195.17,53.31v1.3h1.3v-1.3h-1.3ZM219.92,70.24v1.3h1.3v-1.3h-1.3ZM195.17,65.03v1.3h1.3v-1.3h-1.3ZM195.17,76.75v1.3h1.3v-1.3h-1.3ZM209.5,76.75v1.3h1.3v-1.3h-1.3ZM238.15,72.85v1.3h1.3v-1.3h-1.3ZM238.15,84.57v1.3h1.3v-1.3h-1.3ZM225.13,54.61v1.3h1.3v-1.3h-1.3ZM227.73,79.36v1.3h1.3v-1.3h-1.3ZM218.61,52.01v1.3h1.3v-1.3h-1.3ZM199.08,66.33v1.3h1.3v-1.3h-1.3ZM199.08,78.06v1.3h1.3v-1.3h-1.3ZM229.03,80.66v1.3h1.3v-1.3h-1.3ZM234.24,41.59v1.3h1.3v-1.3h-1.3ZM204.29,50.7v1.3h1.3v-1.3h-1.3ZM234.24,53.31v1.3h1.3v-1.3h-1.3ZM193.87,45.5v1.3h1.3v-1.3h-1.3ZM223.82,48.1v1.3h1.3v-1.3h-1.3ZM234.24,65.03v1.3h1.3v-1.3h-1.3ZM223.82,59.82v1.3h1.3v-1.3h-1.3ZM234.24,76.75v1.3h1.3v-1.3h-1.3ZM193.87,68.94v1.3h1.3v-1.3h-1.3ZM219.92,40.29v1.3h1.3v-1.3h-1.3ZM235.55,42.89v1.3h1.3v-1.3h-1.3ZM193.87,80.66v1.3h1.3v-1.3h-1.3ZM209.5,46.8v1.3h1.3v-1.3h-1.3ZM195.17,58.52v1.3h1.3v-1.3h-1.3ZM209.5,70.24v1.3h1.3v-1.3h-1.3ZM238.15,66.33v1.3h1.3v-1.3h-1.3ZM213.41,61.12v1.3h1.3v-1.3h-1.3ZM214.71,42.89v1.3h1.3v-1.3h-1.3ZM202.99,67.64v1.3h1.3v-1.3h-1.3ZM213.41,84.57v1.3h1.3v-1.3h-1.3ZM199.08,48.1v1.3h1.3v-1.3h-1.3ZM229.03,62.43v1.3h1.3v-1.3h-1.3ZM218.61,57.22v1.3h1.3v-1.3h-1.3ZM199.08,71.54v1.3h1.3v-1.3h-1.3ZM229.03,74.15v1.3h1.3v-1.3h-1.3ZM218.61,68.94v1.3h1.3v-1.3h-1.3ZM199.08,83.26v1.3h1.3v-1.3h-1.3ZM218.61,80.66v1.3h1.3v-1.3h-1.3ZM204.29,44.19v1.3h1.3v-1.3h-1.3ZM223.82,41.59v1.3h1.3v-1.3h-1.3ZM234.24,58.52v1.3h1.3v-1.3h-1.3ZM223.82,53.31v1.3h1.3v-1.3h-1.3ZM193.87,62.43v1.3h1.3v-1.3h-1.3ZM193.87,74.15v1.3h1.3v-1.3h-1.3ZM232.94,75.45v1.3h1.3v-1.3h-1.3ZM219.92,45.5v1.3h1.3v-1.3h-1.3ZM195.17,40.29v1.3h1.3v-1.3h-1.3ZM209.5,40.29v1.3h1.3v-1.3h-1.3ZM208.2,81.96v1.3h1.3v-1.3h-1.3ZM236.85,81.96v1.3h1.3v-1.3h-1.3ZM195.17,52.01v1.3h1.3v-1.3h-1.3ZM209.5,52.01v1.3h1.3v-1.3h-1.3ZM238.15,71.54v1.3h1.3v-1.3h-1.3ZM213.41,66.33v1.3h1.3v-1.3h-1.3ZM238.15,83.26v1.3h1.3v-1.3h-1.3ZM227.73,78.06v1.3h1.3v-1.3h-1.3ZM199.08,41.59v1.3h1.3v-1.3h-1.3ZM199.08,53.31v1.3h1.3v-1.3h-1.3ZM229.03,55.91v1.3h1.3v-1.3h-1.3ZM218.61,50.7v1.3h1.3v-1.3h-1.3ZM229.03,67.64v1.3h1.3v-1.3h-1.3ZM218.61,62.43v1.3h1.3v-1.3h-1.3ZM199.08,76.75v1.3h1.3v-1.3h-1.3ZM234.24,40.29v1.3h1.3v-1.3h-1.3ZM234.24,52.01v1.3h1.3v-1.3h-1.3ZM204.29,61.12v1.3h1.3v-1.3h-1.3ZM193.87,55.91v1.3h1.3v-1.3h-1.3ZM223.82,58.52v1.3h1.3v-1.3h-1.3ZM193.87,67.64v1.3h1.3v-1.3h-1.3ZM232.94,68.94v1.3h1.3v-1.3h-1.3ZM208.2,63.73v1.3h1.3v-1.3h-1.3ZM236.85,63.73v1.3h1.3v-1.3h-1.3ZM232.94,80.66v1.3h1.3v-1.3h-1.3ZM209.5,45.5v1.3h1.3v-1.3h-1.3ZM192.57,84.57v1.3h1.3v-1.3h-1.3ZM238.15,41.59v1.3h1.3v-1.3h-1.3ZM238.15,53.31v1.3h1.3v-1.3h-1.3ZM213.41,48.1v1.3h1.3v-1.3h-1.3ZM197.78,57.22v1.3h1.3v-1.3h-1.3ZM213.41,59.82v1.3h1.3v-1.3h-1.3ZM227.73,59.82v1.3h1.3v-1.3h-1.3ZM238.15,76.75v1.3h1.3v-1.3h-1.3ZM213.41,71.54v1.3h1.3v-1.3h-1.3ZM227.73,83.26v1.3h1.3v-1.3h-1.3ZM218.61,44.19v1.3h1.3v-1.3h-1.3ZM199.08,58.52v1.3h1.3v-1.3h-1.3ZM218.61,55.91v1.3h1.3v-1.3h-1.3ZM218.61,67.64v1.3h1.3v-1.3h-1.3ZM217.31,72.85v1.3h1.3v-1.3h-1.3ZM231.64,72.85v1.3h1.3v-1.3h-1.3ZM204.29,42.89v1.3h1.3v-1.3h-1.3ZM193.87,37.68v1.3h1.3v-1.3h-1.3ZM231.64,84.57v1.3h1.3v-1.3h-1.3ZM206.89,79.36v1.3h1.3v-1.3h-1.3ZM221.22,79.36v1.3h1.3v-1.3h-1.3ZM193.87,49.4v1.3h1.3v-1.3h-1.3ZM232.94,50.7v1.3h1.3v-1.3h-1.3ZM193.87,61.12v1.3h1.3v-1.3h-1.3ZM232.94,62.43v1.3h1.3v-1.3h-1.3ZM232.94,74.15v1.3h1.3v-1.3h-1.3ZM208.2,68.94v1.3h1.3v-1.3h-1.3ZM222.52,68.94v1.3h1.3v-1.3h-1.3ZM236.85,68.94v1.3h1.3v-1.3h-1.3ZM212.1,63.73v1.3h1.3v-1.3h-1.3ZM222.52,80.66v1.3h1.3v-1.3h-1.3ZM236.85,80.66v1.3h1.3v-1.3h-1.3ZM213.41,41.59v1.3h1.3v-1.3h-1.3ZM227.73,41.59v1.3h1.3v-1.3h-1.3ZM238.15,58.52v1.3h1.3v-1.3h-1.3ZM197.78,50.7v1.3h1.3v-1.3h-1.3ZM213.41,53.31v1.3h1.3v-1.3h-1.3ZM202.99,48.1v1.3h1.3v-1.3h-1.3ZM227.73,65.03v1.3h1.3v-1.3h-1.3ZM197.78,74.15v1.3h1.3v-1.3h-1.3ZM213.41,76.75v1.3h1.3v-1.3h-1.3ZM227.73,76.75v1.3h1.3v-1.3h-1.3ZM199.08,40.29v1.3h1.3v-1.3h-1.3ZM218.61,37.68v1.3h1.3v-1.3h-1.3ZM218.61,49.4v1.3h1.3v-1.3h-1.3ZM199.08,63.73v1.3h1.3v-1.3h-1.3ZM206.89,61.12v1.3h1.3v-1.3h-1.3ZM217.31,78.06v1.3h1.3v-1.3h-1.3ZM221.22,72.85v1.3h1.3v-1.3h-1.3ZM193.87,42.89v1.3h1.3v-1.3h-1.3ZM206.89,84.57v1.3h1.3v-1.3h-1.3ZM196.47,79.36v1.3h1.3v-1.3h-1.3ZM192.57,48.1v1.3h1.3v-1.3h-1.3ZM208.2,50.7v1.3h1.3v-1.3h-1.3ZM232.94,67.64v1.3h1.3v-1.3h-1.3ZM212.1,45.5v1.3h1.3v-1.3h-1.3ZM222.52,62.43v1.3h1.3v-1.3h-1.3ZM232.94,79.36v1.3h1.3v-1.3h-1.3ZM208.2,74.15v1.3h1.3v-1.3h-1.3ZM222.52,74.15v1.3h1.3v-1.3h-1.3ZM212.1,68.94v1.3h1.3v-1.3h-1.3ZM238.15,40.29v1.3h1.3v-1.3h-1.3ZM238.15,63.73v1.3h1.3v-1.3h-1.3ZM202.99,41.59v1.3h1.3v-1.3h-1.3ZM197.78,55.91v1.3h1.3v-1.3h-1.3ZM202.99,53.31v1.3h1.3v-1.3h-1.3ZM202.99,65.03v1.3h1.3v-1.3h-1.3ZM226.43,75.45v1.3h1.3v-1.3h-1.3ZM199.08,45.5v1.3h1.3v-1.3h-1.3ZM218.61,42.89v1.3h1.3v-1.3h-1.3ZM201.68,81.96v1.3h1.3v-1.3h-1.3ZM191.26,76.75v1.3h1.3v-1.3h-1.3ZM231.64,48.1v1.3h1.3v-1.3h-1.3ZM217.31,59.82v1.3h1.3v-1.3h-1.3ZM231.64,59.82v1.3h1.3v-1.3h-1.3ZM206.89,54.61v1.3h1.3v-1.3h-1.3ZM221.22,54.61v1.3h1.3v-1.3h-1.3ZM217.31,71.54v1.3h1.3v-1.3h-1.3ZM231.64,71.54v1.3h1.3v-1.3h-1.3ZM232.94,37.68v1.3h1.3v-1.3h-1.3ZM206.89,78.06v1.3h1.3v-1.3h-1.3ZM221.22,78.06v1.3h1.3v-1.3h-1.3ZM222.52,44.19v1.3h1.3v-1.3h-1.3ZM196.47,84.57v1.3h1.3v-1.3h-1.3ZM212.1,38.98v1.3h1.3v-1.3h-1.3ZM192.57,53.31v1.3h1.3v-1.3h-1.3ZM222.52,55.91v1.3h1.3v-1.3h-1.3ZM236.85,55.91v1.3h1.3v-1.3h-1.3ZM192.57,65.03v1.3h1.3v-1.3h-1.3ZM192.57,76.75v1.3h1.3v-1.3h-1.3ZM236.85,79.36v1.3h1.3v-1.3h-1.3ZM212.1,74.15v1.3h1.3v-1.3h-1.3ZM238.15,45.5v1.3h1.3v-1.3h-1.3ZM197.78,37.68v1.3h1.3v-1.3h-1.3ZM227.73,52.01v1.3h1.3v-1.3h-1.3ZM197.78,61.12v1.3h1.3v-1.3h-1.3ZM202.99,58.52v1.3h1.3v-1.3h-1.3ZM199.08,38.98v1.3h1.3v-1.3h-1.3ZM216.01,63.73v1.3h1.3v-1.3h-1.3ZM230.34,63.73v1.3h1.3v-1.3h-1.3ZM201.68,75.45v1.3h1.3v-1.3h-1.3ZM216.01,75.45v1.3h1.3v-1.3h-1.3ZM191.26,70.24v1.3h1.3v-1.3h-1.3ZM217.31,41.59v1.3h1.3v-1.3h-1.3ZM191.26,81.96v1.3h1.3v-1.3h-1.3ZM205.59,81.96v1.3h1.3v-1.3h-1.3ZM217.31,53.31v1.3h1.3v-1.3h-1.3ZM231.64,53.31v1.3h1.3v-1.3h-1.3ZM206.89,48.1v1.3h1.3v-1.3h-1.3ZM217.31,65.03v1.3h1.3v-1.3h-1.3ZM196.47,42.89v1.3h1.3v-1.3h-1.3ZM231.64,65.03v1.3h1.3v-1.3h-1.3ZM221.22,59.82v1.3h1.3v-1.3h-1.3ZM210.8,53.31v1.3h1.3v-1.3h-1.3ZM206.89,71.54v1.3h1.3v-1.3h-1.3ZM232.94,42.89v1.3h1.3v-1.3h-1.3ZM221.22,83.26v1.3h1.3v-1.3h-1.3ZM236.85,37.68v1.3h1.3v-1.3h-1.3ZM235.55,79.36v1.3h1.3v-1.3h-1.3ZM236.85,49.4v1.3h1.3v-1.3h-1.3ZM212.1,44.19v1.3h1.3v-1.3h-1.3ZM208.2,61.12v1.3h1.3v-1.3h-1.3ZM222.52,61.12v1.3h1.3v-1.3h-1.3ZM236.85,61.12v1.3h1.3v-1.3h-1.3ZM210.8,72.85v1.3h1.3v-1.3h-1.3ZM225.13,72.85v1.3h1.3v-1.3h-1.3ZM202.99,40.29v1.3h1.3v-1.3h-1.3ZM210.8,84.57v1.3h1.3v-1.3h-1.3ZM225.13,84.57v1.3h1.3v-1.3h-1.3ZM226.43,50.7v1.3h1.3v-1.3h-1.3ZM201.68,45.5v1.3h1.3v-1.3h-1.3ZM226.43,62.43v1.3h1.3v-1.3h-1.3ZM226.43,74.15v1.3h1.3v-1.3h-1.3ZM191.26,52.01v1.3h1.3v-1.3h-1.3ZM205.59,52.01v1.3h1.3v-1.3h-1.3ZM216.01,68.94v1.3h1.3v-1.3h-1.3ZM230.34,68.94v1.3h1.3v-1.3h-1.3ZM205.59,63.73v1.3h1.3v-1.3h-1.3ZM201.68,80.66v1.3h1.3v-1.3h-1.3ZM216.01,80.66v1.3h1.3v-1.3h-1.3ZM230.34,80.66v1.3h1.3v-1.3h-1.3ZM221.22,41.59v1.3h1.3v-1.3h-1.3ZM217.31,58.52v1.3h1.3v-1.3h-1.3ZM231.64,58.52v1.3h1.3v-1.3h-1.3ZM221.22,53.31v1.3h1.3v-1.3h-1.3ZM217.31,70.24v1.3h1.3v-1.3h-1.3ZM196.47,48.1v1.3h1.3v-1.3h-1.3ZM231.64,70.24v1.3h1.3v-1.3h-1.3ZM206.89,65.03v1.3h1.3v-1.3h-1.3ZM221.22,65.03v1.3h1.3v-1.3h-1.3ZM219.92,81.96v1.3h1.3v-1.3h-1.3ZM235.55,84.57v1.3h1.3v-1.3h-1.3ZM236.85,54.61v1.3h1.3v-1.3h-1.3ZM192.57,63.73v1.3h1.3v-1.3h-1.3ZM210.8,66.33v1.3h1.3v-1.3h-1.3ZM225.13,66.33v1.3h1.3v-1.3h-1.3ZM200.38,61.12v1.3h1.3v-1.3h-1.3ZM226.43,44.19v1.3h1.3v-1.3h-1.3ZM214.71,84.57v1.3h1.3v-1.3h-1.3ZM201.68,38.98v1.3h1.3v-1.3h-1.3ZM230.34,38.98v1.3h1.3v-1.3h-1.3ZM226.43,55.91v1.3h1.3v-1.3h-1.3ZM230.34,50.7v1.3h1.3v-1.3h-1.3ZM226.43,67.64v1.3h1.3v-1.3h-1.3ZM191.26,45.5v1.3h1.3v-1.3h-1.3ZM201.68,62.43v1.3h1.3v-1.3h-1.3ZM230.34,62.43v1.3h1.3v-1.3h-1.3ZM226.43,79.36v1.3h1.3v-1.3h-1.3ZM230.34,74.15v1.3h1.3v-1.3h-1.3ZM217.31,40.29v1.3h1.3v-1.3h-1.3ZM191.26,80.66v1.3h1.3v-1.3h-1.3ZM206.89,46.8v1.3h1.3v-1.3h-1.3ZM221.22,46.8v1.3h1.3v-1.3h-1.3ZM196.47,41.59v1.3h1.3v-1.3h-1.3ZM206.89,58.52v1.3h1.3v-1.3h-1.3ZM196.47,53.31v1.3h1.3v-1.3h-1.3ZM235.55,54.61v1.3h1.3v-1.3h-1.3ZM235.55,66.33v1.3h1.3v-1.3h-1.3ZM192.57,45.5v1.3h1.3v-1.3h-1.3ZM195.17,81.96v1.3h1.3v-1.3h-1.3ZM209.5,81.96v1.3h1.3v-1.3h-1.3ZM210.8,48.1v1.3h1.3v-1.3h-1.3ZM225.13,48.1v1.3h1.3v-1.3h-1.3ZM210.8,71.54v1.3h1.3v-1.3h-1.3ZM214.71,66.33v1.3h1.3v-1.3h-1.3ZM210.8,83.26v1.3h1.3v-1.3h-1.3ZM225.13,83.26v1.3h1.3v-1.3h-1.3ZM201.68,44.19v1.3h1.3v-1.3h-1.3ZM230.34,44.19v1.3h1.3v-1.3h-1.3ZM226.43,61.12v1.3h1.3v-1.3h-1.3ZM191.26,38.98v1.3h1.3v-1.3h-1.3ZM205.59,38.98v1.3h1.3v-1.3h-1.3ZM201.68,55.91v1.3h1.3v-1.3h-1.3ZM205.59,50.7v1.3h1.3v-1.3h-1.3ZM230.34,67.64v1.3h1.3v-1.3h-1.3ZM205.59,62.43v1.3h1.3v-1.3h-1.3ZM230.34,79.36v1.3h1.3v-1.3h-1.3ZM191.26,74.15v1.3h1.3v-1.3h-1.3ZM205.59,74.15v1.3h1.3v-1.3h-1.3ZM217.31,45.5v1.3h1.3v-1.3h-1.3ZM231.64,45.5v1.3h1.3v-1.3h-1.3ZM234.24,70.24v1.3h1.3v-1.3h-1.3ZM219.92,57.22v1.3h1.3v-1.3h-1.3ZM235.55,59.82v1.3h1.3v-1.3h-1.3ZM219.92,68.94v1.3h1.3v-1.3h-1.3ZM195.17,63.73v1.3h1.3v-1.3h-1.3ZM219.92,80.66v1.3h1.3v-1.3h-1.3ZM210.8,41.59v1.3h1.3v-1.3h-1.3ZM225.13,41.59v1.3h1.3v-1.3h-1.3ZM225.13,53.31v1.3h1.3v-1.3h-1.3ZM200.38,48.1v1.3h1.3v-1.3h-1.3Z"/>
  </g>
</svg>