<?xml version="1.0" encoding="UTF-8"?>
<svg id="Layer_2" data-name="Layer 2" xmlns="http://www.w3.org/2000/svg" viewBox="0 0 24.25 24.35">
  <defs>
    <style>
      .cls-1 {
        fill: #a78bfa;
        stroke-width: 0px;
      }
    </style>
  </defs>
  <g id="Layer_2-2" data-name="Layer 2">
    <path class="cls-1" d="M21.73,12.2c-.68.39-.97,1.17-.71,1.95.24.74.94,1.2,1.69,1.13.81-.08,1.42-.66,1.53-1.44.1-.8-.35-1.54-1.08-1.78h0c-.18-.06-.22-.13-.24-.34-.09-.79-.18-1.59-.28-2.38l-.13-1.11c-.03-.26-.06-.52-.09-.78l-.06-.51c1.49-.57,1.94-1.86,1.87-2.8-.09-1.17-.91-2.14-2.05-2.43-1.26-.32-2.27.17-3.18,1.53l-.76-.16c-1.62-.34-3.23-.68-4.85-1.02-.08-.02-.09-.02-.1-.13-.05-.61-.37-1.17-.87-1.53-.5-.36-1.13-.49-1.72-.35-.97.23-1.66,1.07-1.68,2.05-.02,1.01.6,1.83,1.57,2.1,1,.28,1.94-.12,2.45-1.02.01-.02.03-.05.04-.07l5.71,1.22c0,.5.12.96.37,1.42-1.3,1.18-2.6,2.36-3.89,3.54l-.29.26c-1.84-1.52-4.18-1.13-5.46.03-.73.65-1.18,1.45-1.36,2.38-.23,1.19.03,2.29.75,3.29-1.75,1.71-3.49,3.4-5.23,5.1-.18-.1-.36-.2-.57-.23-.11-.01-.12-.04-.13-.17-.05-.97-.1-1.71-.15-2.42,0-.12,0-.15.11-.19.69-.27,1.19-.87,1.32-1.59.14-.73-.11-1.47-.66-1.98-.02-.01-.03-.03-.05-.04-.02-.02-.03-.03-.04-.04l1.24-2.73c.37.07.69.08,1,.03,1.09-.15,2.02-1.01,2.27-2.09.25-1.09-.21-2.24-1.14-2.86-.93-.62-2.2-.63-3.08,0-.72.5-1.15,1.3-1.17,2.17-.03.88.36,1.69,1.05,2.24l.03.02s.04.03.05.04c0,0,0,.01-.01.04-.41.88-.81,1.76-1.2,2.64-.02.03-.02.04-.02.04,0,0-.01,0-.04,0-.22-.04-.45-.04-.67,0C.77,13.41.05,14.23,0,15.28c-.05.99.63,1.89,1.62,2.14.1.02.1.03.1.12.01.29.03.59.05.88.01.16.02.32.03.48.02.28.03.55.05.82l.02.43c-.76.3-1.12.81-1.29,1.19-.24.53-.24,1.14-.02,1.67.34.83,1.16,1.33,2,1.33.26,0,.52-.05.78-.15.54-.21.93-.58,1.16-1.11.29-.65.26-1.3-.08-1.95l5.21-5.1c1.68,1.15,3.39,1.18,5.09.09l4.03,4.19-.14.28-4.21-.61c-.05,0-.06,0-.09-.11-.2-.77-.92-1.3-1.69-1.25-.82.05-1.45.63-1.56,1.43-.11.8.31,1.51,1.06,1.79.78.29,1.59,0,2.02-.71.01-.02.02-.03.03-.05,0-.02.01-.03.02-.04,1.07.16,2.14.32,3.21.47l1.05.15.04.19c.12.59.47,1.09.98,1.4.51.31,1.14.39,1.72.23.57-.16,1.05-.56,1.32-1.1.27-.54.3-1.17.09-1.73-.21-.55-.66-1-1.23-1.22-.56-.22-1.17-.19-1.69.06-.12.06-.15.04-.24-.05-.79-.83-1.58-1.65-2.38-2.47l-1.49-1.55s-.04-.04-.05-.06c1.15-1.63,1.21-3.32.17-5.01,1.39-1.27,2.78-2.53,4.18-3.8.21.15.42.26.66.36.23.09.47.12.69.16h.03c.03.21.05.39.07.58l.11.9c.13,1.13.27,2.27.4,3.4.01.13,0,.17-.12.24ZM2.14,16.4c-.58,0-1.04-.49-1.04-1.08,0-.57.48-1.04,1.05-1.04.29,0,.55.1.74.29.19.19.3.47.3.78,0,.3-.11.57-.31.77-.19.19-.45.29-.73.29h-.01ZM2.57,21.15c.28,0,.55.11.75.31.2.2.31.47.3.75,0,.28-.11.54-.31.73-.2.2-.46.3-.75.3h-.02c-.58,0-1.05-.48-1.05-1.05s.48-1.05,1.07-1.05ZM3.71,8.29c0-.9.74-1.62,1.63-1.62h0c.9,0,1.64.73,1.64,1.62,0,.43-.17.84-.48,1.15-.31.32-.74.48-1.18.49-.9,0-1.63-.74-1.62-1.63ZM12.25,15.83h0c-.83,0-1.6-.32-2.19-.91-.58-.59-.91-1.36-.9-2.18,0-1.71,1.39-3.1,3.09-3.1h.01c1.7,0,3.09,1.41,3.08,3.12,0,1.69-1.39,3.07-3.09,3.07ZM22.02,13.61c0-.15.06-.29.17-.4.11-.11.26-.17.42-.17h0c.14,0,.28.06.37.16.11.11.17.26.16.43,0,.34-.22.56-.55.56h0c-.16,0-.31-.06-.41-.16-.11-.11-.16-.25-.16-.42ZM23.13,4.37c-.01.91-.73,1.62-1.64,1.62h0c-.9,0-1.63-.74-1.63-1.64,0-.89.73-1.62,1.63-1.63h0c.44,0,.85.17,1.16.48.31.31.48.72.47,1.16ZM12.2,2.16c0,.57-.48,1.03-1.05,1.03h-.01c-.57,0-1.04-.48-1.04-1.05,0-.28.11-.55.3-.74.2-.2.46-.31.75-.31h0c.28,0,.55.11.74.31.2.2.3.47.3.76ZM13.28,20.3c0,.33-.24.56-.56.56h0c-.32,0-.55-.24-.55-.57,0-.17.05-.31.16-.42.1-.1.24-.15.41-.15h0c.16,0,.3.06.4.16.1.11.16.25.16.43ZM19.55,21.44c0-.29.1-.56.29-.75.19-.19.46-.3.76-.3h0c.6,0,1.05.44,1.05,1.03,0,.29-.11.55-.3.75-.2.2-.46.31-.75.31h0c-.58,0-1.04-.46-1.05-1.04Z"/>
  </g>
</svg>