<?xml version="1.0" encoding="UTF-8"?>
<svg id="Layer_2" data-name="Layer 2" xmlns="http://www.w3.org/2000/svg" viewBox="0 0 24.35 27.53">
  <defs>
    <style>
      .cls-1 {
        fill: #d581e2;
        stroke-width: 0px;
      }
    </style>
  </defs>
  <g id="Layer_2-2" data-name="Layer 2">
    <path class="cls-1" d="M22.98,17.89c-.68-.2-1.31-.05-1.88.44l-.48-.28c-.39-.22-.77-.44-1.15-.67-.02-.02-.06-.1-.06-.14v-6.96s.04-.12.06-.13c.35-.21.71-.41,1.07-.62.2-.11.39-.22.59-.33.55.39.83.5,1.26.51.56.02,1.05-.19,1.42-.57.38-.39.58-.92.55-1.48-.03-.52-.26-.99-.67-1.33-.42-.35-.98-.51-1.53-.44-.51.07-.97.35-1.27.79-.31.44-.42.99-.31,1.51.03.13.01.15-.09.2-.23.13-.46.26-.69.39-.26.15-.52.3-.79.45-.05.03-.16.03-.2.01-1.32-.76-2.64-1.52-3.96-2.28l-2.05-1.19c-.07-.05-.1-.07-.09-.07-.01-.64-.01-1.29-.01-1.93,1.01-.38,1.51-1.15,1.39-2.1-.12-.9-.85-1.6-1.75-1.67-.91-.07-1.75.53-1.99,1.42-.12.44-.09.86.09,1.26.23.54.64.9,1.25,1.1,0,.61,0,1.2,0,1.8,0,.12-.03.16-.13.21l-2.22,1.28c-1.25.72-2.5,1.44-3.75,2.16-.05.03-.17.03-.22,0-.24-.13-.48-.27-.72-.41-.24-.14-.49-.28-.73-.42-.12-.07-.13-.09-.1-.22.18-.82-.21-1.67-.96-2.07-.74-.41-1.68-.28-2.28.32C-.03,7.02-.17,7.95.23,8.69c.41.77,1.26,1.16,2.06.97.25-.06.47-.17.72-.29.09-.05.19-.09.29-.14.48.27,1.04.59,1.57.91.04.03.08.11.08.16,0,2.3,0,4.63,0,6.93,0,.06-.05.15-.09.17-.36.22-.74.44-1.12.65-.16.09-.32.18-.48.28-.65-.48-1.12-.62-1.72-.49-1.01.21-1.7,1.23-1.49,2.23.21,1.06,1.21,1.73,2.27,1.54.5-.1.93-.39,1.22-.82.28-.43.38-.93.28-1.43-.03-.14-.01-.15.07-.2.29-.16.57-.32.85-.48.22-.13.44-.26.66-.38.05-.02.14-.02.17,0,1.39.79,2.76,1.59,4.14,2.39.59.33,1.18.67,1.76,1.01.03.02.05.03.07.04l.06.04s.08.07.09.08c0,.44,0,.89,0,1.33,0,.19,0,.39,0,.58-.03.01-.06.02-.09.03l-.1.04c-.92.37-1.41,1.36-1.14,2.31.25.84,1,1.39,1.85,1.39.05,0,.09,0,.14,0,.87-.06,1.63-.75,1.75-1.6.14-.94-.35-1.78-1.23-2.09-.14-.05-.17-.09-.16-.23.01-.54.01-1.09,0-1.63,0-.12.02-.16.14-.23.01,0,.02-.01.03-.02.02-.01.04-.02.05-.03.27-.16.54-.31.81-.47.27-.16.54-.31.81-.47,1.1-.63,2.19-1.27,3.29-1.9l.96-.55c.1-.06.15-.06.24,0,.5.3.99.58,1.45.84.11.06.12.09.09.22-.2.99.46,2.01,1.45,2.23,1.01.23,2.02-.37,2.28-1.37.27-1.01-.32-2.06-1.3-2.33ZM22.43,20.62c-.49,0-.89-.42-.88-.92,0-.49.4-.87.9-.87.5,0,.88.39.89.89,0,.24-.1.47-.27.64-.17.17-.4.26-.63.26ZM22.45,8.68h-.02c-.23,0-.45-.09-.61-.25-.17-.17-.27-.4-.27-.65,0-.49.39-.88.88-.89.51,0,.91.39.91.89s-.39.89-.89.9ZM11.54,2.55c-.17-.17-.26-.4-.25-.64,0-.49.41-.88.9-.88.24,0,.47.1.63.27s.26.4.25.64c0,.48-.4.88-.89.88-.25,0-.47-.1-.65-.27ZM12.03,20.85l-.23-.13c-.09-.05-.18-.1-.28-.16-.29-.17-.58-.34-.87-.5-.22-.14-.51-.31-.81-.46-1.36-.81-2.7-1.58-3.72-2.16-.12-.06-.15-.12-.15-.27,0-2.26,0-4.54,0-6.79,0-.15.03-.21.16-.28,2.14-1.22,4.07-2.34,5.9-3.41.06-.04.11-.05.15-.05.04,0,.09.02.14.05,2.39,1.39,4.22,2.44,5.92,3.41.12.07.14.13.14.26v6.82c0,.15-.03.2-.14.26-1.18.67-2.44,1.4-3.85,2.22-.29.16-.59.33-.86.5-.24.13-.48.26-.71.4-.08.04-.15.09-.23.14-.08.05-.17.1-.25.15-.13.08-.21.07-.33.01ZM11.28,25.6c0-.49.4-.88.9-.88s.88.39.89.88c0,.24-.09.47-.26.64-.34.34-.93.34-1.27,0-.17-.17-.26-.4-.26-.63ZM2.82,7.78c0,.24-.1.47-.27.64-.17.17-.39.27-.62.26h0c-.24,0-.46-.09-.63-.26-.17-.17-.26-.41-.26-.65,0-.49.4-.87.9-.87.5,0,.89.4.89.89ZM2.82,19.71c0,.5-.4.91-.9.91-.24,0-.46-.1-.63-.27-.17-.17-.26-.4-.26-.64,0-.5.4-.88.9-.88s.88.39.89.88ZM14.42,9.41c.24.1.29.19.29.45-.02.8-.25,1.53-.64,2.22-.36.64-.81,1.21-1.28,1.78-.48.59-.97,1.18-1.44,1.79-.33.44-.6.92-.78,1.44-.01.04-.02.07-.04.12h3.27c-.02-.06-.03-.12-.06-.18-.06-.16-.13-.32-.2-.47-.02-.05-.05-.07-.11-.07-.42,0-.84,0-1.27,0-.26,0-.43-.24-.35-.48.05-.15.18-.25.35-.25.27,0,.54,0,.81,0,.03,0,.06,0,.11,0-.11-.15-.21-.29-.3-.43-.11-.16-.09-.36.05-.48.16-.14.39-.13.52.04.6.8,1.09,1.66,1.26,2.66.04.24.05.48.06.73,0,.21-.16.37-.36.37-.2,0-.36-.16-.36-.36,0-.12,0-.23,0-.35h-3.6c0,.11-.01.21-.02.32,0,.24-.15.4-.37.4-.21,0-.36-.17-.35-.41,0-.81.25-1.56.64-2.27.35-.64.81-1.2,1.27-1.77.48-.59.97-1.18,1.44-1.79.35-.45.62-.95.8-1.5,0-.02.01-.04.02-.07h-3.27c.02.06.03.12.06.18.06.16.13.31.2.47.02.05.05.07.11.07.42,0,.84,0,1.27,0,.26,0,.43.24.35.48-.05.15-.19.24-.35.25-.27,0-.54,0-.81,0-.03,0-.06,0-.11,0,.11.15.2.29.29.42.07.1.1.21.06.32-.04.14-.14.23-.28.26-.15.03-.28-.03-.36-.15-.21-.31-.43-.63-.62-.95-.33-.56-.56-1.16-.65-1.81-.02-.18-.04-.35-.04-.53,0-.26.05-.35.29-.45h.14c.21.07.3.22.29.44,0,.09,0,.18.01.28h3.58c0-.1.02-.19.01-.28,0-.22.08-.37.29-.44h.14Z"/>
  </g>
</svg>