<?xml version="1.0" encoding="UTF-8"?>
<svg id="Layer_2" data-name="Layer 2" xmlns="http://www.w3.org/2000/svg" viewBox="0 0 22.75 27.68">
  <defs>
    <style>
      .cls-1 {
        fill: #7cd6ca;
        stroke-width: 0px;
      }
    </style>
  </defs>
  <g id="Layer_2-2" data-name="Layer 2">
    <g>
      <path class="cls-1" d="M22.69,19.24c-.06-.17-.14-.34-.25-.49-.23-.33-.55-.6-.95-.67-.44-.08-.88.08-1.26.29-.26.15-.53.29-.79.44-.66.37-1.35.76-2.04,1.11-.86.43-1.75.82-2.61,1.2l-.35.15c-.15.06-.31.09-.48.13-.05,0-.11.02-.16.03-.17-.72-.61-1.15-1.38-1.37-1.08-.3-2.18-.64-3.21-.96-.77-.24-1.53-.21-2.25.1-.16.07-.32.15-.48.23-.21.1-.42.21-.63.29-.47.18-.95.35-1.42.51-.18.06-.36.13-.54.19-.25-.51-.64-.76-1.22-.76-.03,0-.06,0-.1,0-.26.01-.52,0-.77,0-.12,0-.24,0-.37,0-1.05,0-1.44.39-1.44,1.42,0,.5,0,1.01,0,1.51,0,1.19,0,2.42-.01,3.63-.01.72.23,1.18.78,1.46,0,0,2.44,0,2.46,0,.37-.25.73-.58.71-1.14.28,0,.56,0,.83-.01.68-.01,1.32-.03,1.96.03.88.07,2.04.19,3.17.46,1.77.43,3.5.14,5.3-.89,1.75-1,3.48-2.28,5.6-4.13l.2-.17c.23-.23.48-.42.71-.65.23-.24.46-.5.68-.75.1-.12.2-.23.26-.37.1-.21.11-.45.06-.67,0-.04-.02-.09-.03-.13ZM4,25.5s-.02,0-.03-.01v-4.11s.01,0,.02,0c.05-.02.11-.05.17-.06.96-.21,1.81-.52,2.6-.94.27-.15.56-.25.81-.34.42-.14.85-.15,1.29-.02.57.17,1.14.34,1.71.52.57.17,1.14.34,1.71.51.43.13.62.4.54.75-.08.35-.41.5-.86.41-.24-.05-.48-.1-.72-.15-.42-.09-.85-.18-1.28-.26-.78-.14-1.57-.03-2.58.34-.3.11-.42.34-.33.63.04.13.12.23.24.29.13.06.29.06.45,0,.92-.38,1.9-.41,3.07-.09.11.03.23.05.34.08.11.02.21.04.32.07.97.27,1.67.05,2.15-.67,1.22-.13,2.3-.65,3.39-1.21,1.1-.57,2.2-1.17,3.26-1.76l.55-.3c.27-.15.49-.2.73.02.13.12.2.26.2.4,0,.15-.08.31-.24.45-.79.72-1.45,1.33-2.15,1.92-1.39,1.18-3.08,2.53-5.02,3.51-.59.3-1.22.51-1.76.68-.77.24-1.56.1-2.23-.06-1.97-.48-3.93-.57-5.65-.57-.15,0-.3,0-.44,0-.08,0-.17,0-.25,0ZM1.06,26.66v-5.99h1.86v5.99h-1.86Z"/>
      <path class="cls-1" d="M5.5,11.55c1.97,1.13,3.76,2.17,5.47,3.16.14.08.28.12.41.12s.27-.04.42-.13c1.61-.94,3.33-1.93,5.44-3.14.29-.17.42-.39.41-.71-.01-.76,0-1.54,0-2.29,0-.29,0-.57,0-.86v-.83c0-.77,0-1.54,0-2.32,0-.31-.1-.52-.33-.68-1.77-1.2-3.58-2.43-5.55-3.77-.26-.18-.51-.18-.78,0-1.6,1.1-3.32,2.26-5.55,3.77-.22.15-.32.34-.32.59,0,2.14,0,4.28,0,6.41,0,.29.12.49.38.65ZM13.06,7.7c.31-.59.36-1.15.17-1.7-.14-.42-.41-.75-.77-.99-.74-.49-1.7-.43-2.37.16-.72.63-.85,1.5-.39,2.52h0s-.09.06-.14.09c-.97.54-1.47,1.38-1.48,2.49,0,.38,0,.76,0,1.16v.47s-1.95-1.13-1.95-1.13v-6.13l5.27-3.58,5.25,3.57v6.15c-.63.36-1.26.73-1.95,1.13,0-.13,0-.26,0-.38,0-.33,0-.65,0-.96.06-1.34-.47-2.28-1.63-2.87ZM11.38,7.63h-.02c-.53,0-.96-.46-.96-.99,0-.54.43-.97.97-.97h0c.54,0,.98.43.99.97,0,.26-.1.51-.29.7s-.44.29-.69.29ZM9.08,9.94c.04-.72.64-1.36,1.3-1.41.65-.04,1.34-.04,1.98,0,.81.05,1.28.85,1.33,1.61,0,.1,0,.2,0,.29v2.04l-2.32,1.34-2.31-1.33c0-.25,0-.5,0-.74,0-.59-.02-1.2.02-1.8Z"/>
      <path class="cls-1" d="M18.36,10.25c.29.28.58.56.86.83l.3.29v2.62c-.74.45-1.04,1-.88,1.65.15.63.66,1.07,1.3,1.11.03,0,.06,0,.09,0,.58,0,1.11-.36,1.32-.91.26-.68.03-1.22-.83-1.89v-.64c0-.63,0-1.27,0-1.91,0-.19-.02-.38-.12-.49-.48-.51-1.01-1.04-1.62-1.62-.19-.18-.44-.16-.64.04-.19.19-.2.42-.04.63.08.1.18.2.27.29ZM20.32,15.64c-.08.08-.19.12-.3.12h-.01c-.11,0-.22-.06-.3-.14-.08-.09-.12-.2-.12-.31,0-.11.06-.22.14-.29.08-.07.18-.11.29-.11.01,0,.02,0,.03,0,.23.01.4.2.4.43,0,.11-.05.22-.14.3Z"/>
      <path class="cls-1" d="M2.68,16.75s.03,0,.05,0c.6,0,1.13-.37,1.33-.94.25-.7.01-1.22-.84-1.86v-2.57c.12-.12.24-.24.37-.36.31-.3.63-.61.95-.93.28-.28.31-.54.08-.77-.22-.22-.5-.2-.77.07-.15.15-.3.3-.46.46-.24.25-.49.5-.75.73-.3.27-.43.58-.42.99.02.58.01,1.17.01,1.73,0,.22,0,.44,0,.66-.8.52-1.07,1.06-.88,1.75.16.59.7,1.01,1.32,1.04ZM3.04,15.64c-.08.08-.19.13-.31.13h0c-.11,0-.22-.05-.3-.13s-.13-.2-.12-.31c0-.11.05-.22.13-.29.08-.08.19-.12.3-.12,0,0,.01,0,.02,0,.23,0,.41.19.41.42,0,.11-.04.22-.13.31Z"/>
      <path class="cls-1" d="M6.21,17.05c.15.61.69,1.06,1.32,1.09.02,0,.04,0,.07,0,.57,0,1.12-.39,1.33-.94.25-.69.02-1.21-.84-1.87,0-.15,0-.29,0-.44,0-.37,0-.75,0-1.12,0-.23-.12-.43-.31-.52-.15-.07-.31-.05-.44.06-.14.11-.22.33-.23.49-.02.39-.01.78-.01,1.16,0,.13,0,.26,0,.39-.77.49-1.06,1.03-.89,1.69ZM7.61,17.15s-.01,0-.02,0c-.1,0-.21-.04-.28-.11-.09-.08-.14-.19-.14-.31,0-.12.04-.23.12-.31.08-.08.19-.13.3-.13h0c.11,0,.22.05.3.13.08.08.13.2.12.31,0,.22-.19.41-.41.42Z"/>
      <path class="cls-1" d="M15.66,13.93c0-.46-.16-.69-.48-.7-.14,0-.25.04-.33.12-.12.11-.17.31-.18.61,0,.36,0,.72,0,1.09v.33c-.77.47-1.06,1.02-.88,1.7.16.61.71,1.05,1.33,1.08.02,0,.03,0,.04,0,.61,0,1.17-.42,1.35-1,.21-.7-.05-1.25-.86-1.79v-.32c0-.36,0-.74,0-1.11ZM15.48,17.01c-.08.09-.2.14-.31.14h0c-.11,0-.22-.04-.3-.13-.08-.08-.13-.2-.13-.31,0-.12.05-.22.13-.31.08-.08.19-.12.3-.12h.01c.22,0,.41.19.42.41,0,.11-.04.22-.12.31Z"/>
    </g>
  </g>
</svg>