<?xml version="1.0" encoding="UTF-8"?>
<svg id="Layer_2" data-name="Layer 2" xmlns="http://www.w3.org/2000/svg" viewBox="0 0 70.81 94.58">
  <defs>
    <style>
      .cls-1 {
        opacity: .79;
      }

      .cls-1, .cls-2 {
        fill: #333;
        stroke-width: 0px;
      }
    </style>
  </defs>
  <g id="Reg_Shape_draw" data-name="Reg Shape draw">
    <g>
      <path class="cls-1" d="M65.15,47.36c-1.43-2.03-3.18-3.89-5.21-5.47l-5.79-4.46s-7.12-5.52-7.12-5.52c.06.46.09.92.09,1.39,0,1.92-.52,3.73-1.44,5.3-.09.15-.18.3-.28.46-.1.15-.2.3-.3.45-.2.26-.41.51-.61.76-2.15,2.51-5.42,4.13-9.09,4.13-6.47,0-11.7-4.97-11.7-11.1,0-1.26.22-2.47.63-3.6,2.41-6.71,11.18-9.65,17.45-5.72,4.13,2.59,7.87,5.89,11.73,8.81l2.76,2.08,14.54-17.35-12.99-9.8-1.46-1.1C50.51,2.46,43.25,0,35.4,0,19.09,0,5.34,10.64,1.46,25c-.11.35-.19.7-.28,1.05-.07.28-.13.56-.19.85-.33,1.63-.51,3.31-.51,5.04,0,5.09,1.4,9.72,3.99,13.69.36.56.74,1.11,1.15,1.63,1.43,2.04,3.19,3.9,5.22,5.47l5.78,4.47s7.12,5.52,7.12,5.52c-.06-.46-.08-.92-.08-1.39,0-1.55.34-3.03.96-4.37.06-.16.14-.32.23-.49.14-.26.28-.52.43-.77.05-.07.09-.13.13-.19,2.05-3.19,5.76-5.33,9.99-5.33,6.45,0,11.69,4.97,11.69,11.11,0,1.26-.22,2.47-.63,3.61-2.16,5.95-9.33,9.03-15.45,6.59-3.15-1.26-5.64-3.6-8.28-5.58-1.83-1.38-3.66-2.77-5.49-4.15l-2.71-2.03-.16.19-9.46,11.28-2.06,2.46-1.82,2.17-1.03,1.24,12.95,9.78,1.48,1.11c5.86,4.16,13.12,6.62,20.97,6.62,16.29,0,30.02-10.61,33.92-24.95.11-.34.19-.69.28-1.05.07-.26.12-.52.18-.79.33-1.65.52-3.36.52-5.1,0-5.09-1.4-9.72-3.99-13.71-.37-.55-.75-1.09-1.16-1.62ZM68.8,67.59c-.05.25-.11.5-.17.75-.09.35-.17.68-.26,1-3.89,14.29-17.44,24.24-32.97,24.24-7.41,0-14.46-2.22-20.39-6.43l-13.57-10.25.36-.43,1.81-2.16,2.06-2.47,9.02-10.74,7.44,5.6c.59.45,1.17.91,1.75,1.37,2.06,1.63,4.18,3.32,6.76,4.35,1.52.6,3.12.91,4.76.91,5.42,0,10.24-3.25,12-8.09.46-1.26.69-2.59.69-3.95,0-6.68-5.69-12.11-12.69-12.11-4.46,0-8.51,2.16-10.83,5.78-.04.06-.06.1-.09.13l-.05.09c-.17.27-.32.56-.47.84-.09.15-.19.36-.27.56-.58,1.26-.92,2.63-1.01,4.06-4.43-3.44-5.3-4.12-5.53-4.28l.08.05-5.78-4.47c-1.92-1.49-3.61-3.26-5.01-5.25-.41-.53-.77-1.04-1.13-1.6-2.54-3.89-3.83-8.32-3.83-13.15,0-1.64.17-3.26.49-4.84.05-.27.12-.54.18-.8.09-.37.17-.69.26-1.01C6.28,10.98,19.84,1,35.4,1c7.41,0,14.46,2.22,20.38,6.43l13.59,10.26-13.26,15.81-1.99-1.51c-1.24-.93-2.47-1.91-3.7-2.88-2.59-2.06-5.26-4.19-8.11-5.97-2-1.26-4.34-1.92-6.76-1.92-5.52,0-10.41,3.27-12.16,8.14-.46,1.25-.69,2.58-.69,3.94,0,6.67,5.7,12.1,12.7,12.1,3.82,0,7.41-1.63,9.84-4.48l.11-.12c.19-.23.38-.46.55-.7l.33-.48c.12-.2.23-.37.32-.53.9-1.54,1.43-3.28,1.55-5.09,4.1,3.18,5.15,4,5.47,4.23h-.03s5.79,4.45,5.79,4.45c1.91,1.49,3.59,3.25,5,5.26.37.48.73.98,1.15,1.6,2.53,3.89,3.82,8.31,3.82,13.15,0,1.63-.17,3.28-.5,4.9Z"/>
      <path class="cls-2" d="M65.48,49.54c2.53,3.89,3.82,8.31,3.82,13.15,0,1.63-.17,3.28-.5,4.9-.05.25-.11.5-.17.75-.09.35-.17.68-.26,1-3.89,14.29-17.44,24.24-32.97,24.24-7.41,0-14.46-2.22-20.39-6.43l-13.57-10.25.36-.43,1.81-2.16,2.06-2.47,9.02-10.74,7.44,5.6c.59.45,1.17.91,1.75,1.37,2.06,1.63,4.18,3.32,6.76,4.35,1.52.6,3.12.91,4.76.91,5.42,0,10.24-3.25,12-8.09.46-1.26.69-2.59.69-3.95,0-6.68-5.69-12.11-12.69-12.11-4.46,0-8.51,2.16-10.83,5.78-.04.06-.06.1-.09.13l-.05.09c-.17.27-.32.56-.47.84-.09.15-.19.36-.27.56-.58,1.26-.92,2.63-1.01,4.06-4.43-3.44-5.3-4.12-5.53-4.28l.08.05-5.78-4.47c-1.92-1.49-3.61-3.26-5.01-5.25-.41-.53-.77-1.04-1.13-1.6-2.54-3.89-3.83-8.32-3.83-13.15,0-1.64.17-3.26.49-4.84.05-.27.12-.54.18-.8.09-.37.17-.69.26-1.01C6.28,10.98,19.84,1,35.4,1c7.41,0,14.46,2.22,20.38,6.43l13.59,10.26-13.26,15.81-1.99-1.51c-1.24-.93-2.47-1.91-3.7-2.88-2.59-2.06-5.26-4.19-8.11-5.97-2-1.26-4.34-1.92-6.76-1.92-5.52,0-10.41,3.27-12.16,8.14-.46,1.25-.69,2.58-.69,3.94,0,6.67,5.7,12.1,12.7,12.1,3.82,0,7.41-1.63,9.84-4.48l.11-.12c.19-.23.38-.46.55-.7l.33-.48c.12-.2.23-.37.32-.53.9-1.54,1.43-3.28,1.55-5.09,4.1,3.18,5.15,4,5.47,4.23h-.03s5.79,4.45,5.79,4.45c1.91,1.49,3.59,3.25,5,5.26.37.48.73.98,1.15,1.6Z"/>
    </g>
  </g>
</svg>