<?xml version="1.0" encoding="utf-8"?>
<!-- Generator: Adobe Illustrator 28.1.0, SVG Export Plug-In . SVG Version: 6.00 Build 0)  -->
<svg version="1.1" id="Layer_2_00000176738362766269685820000003704681776690847880_"
	 xmlns="http://www.w3.org/2000/svg" xmlns:xlink="http://www.w3.org/1999/xlink" x="0px" y="0px" viewBox="0 0 70.8 94.6"
	 style="enable-background:new 0 0 70.8 94.6;" xml:space="preserve">
<style type="text/css">
	.st0{fill:#FFFFFF;enable-background:new    ;}
	.st1{fill:#FFFFFF;}
</style>
<g id="Reg_Shape_draw">
	<g>
		<path class="st0" d="M65.2,47.4c-1.4-2-3.2-3.9-5.2-5.5l-5.8-4.5L47,31.9c0.1,0.5,0.1,0.9,0.1,1.4c0,1.9-0.5,3.7-1.4,5.3
			c-0.1,0.2-0.2,0.3-0.3,0.5c-0.1,0.2-0.2,0.3-0.3,0.5c-0.2,0.3-0.4,0.5-0.6,0.8c-2.2,2.5-5.4,4.1-9.1,4.1c-6.5,0-11.7-5-11.7-11.1
			c0-1.3,0.2-2.5,0.6-3.6C26.7,23,35.5,20,41.8,24c4.1,2.6,7.9,5.9,11.7,8.8l2.8,2.1l14.5-17.4l-13-9.8l-1.5-1.1
			C50.5,2.5,43.2,0,35.4,0C19.1,0,5.3,10.6,1.5,25c-0.1,0.4-0.2,0.7-0.3,1c-0.1,0.3-0.1,0.6-0.2,0.9c-0.3,1.6-0.5,3.3-0.5,5
			c0,5.1,1.4,9.7,4,13.7c0.4,0.6,0.7,1.1,1.2,1.6c1.4,2,3.2,3.9,5.2,5.5l5.8,4.5l7.1,5.5c-0.1-0.5-0.1-0.9-0.1-1.4
			c0-1.5,0.3-3,1-4.4c0.1-0.2,0.1-0.3,0.2-0.5c0.1-0.3,0.3-0.5,0.4-0.8c0-0.1,0.1-0.1,0.1-0.2c2-3.2,5.8-5.3,10-5.3
			c6.5,0,11.7,5,11.7,11.1c0,1.3-0.2,2.5-0.6,3.6c-2.2,5.9-9.3,9-15.5,6.6c-3.1-1.3-5.6-3.6-8.3-5.6c-1.8-1.4-3.7-2.8-5.5-4.2
			l-2.7-2l-0.2,0.2L4.9,71.2l-2.1,2.5L1,75.8l-1,1.2l12.9,9.8l1.5,1.1c5.9,4.2,13.1,6.6,21,6.6c16.3,0,30-10.6,33.9-24.9
			c0.1-0.3,0.2-0.7,0.3-1.1c0.1-0.3,0.1-0.5,0.2-0.8c0.3-1.7,0.5-3.4,0.5-5.1c0-5.1-1.4-9.7-4-13.7C65.9,48.4,65.6,47.9,65.2,47.4z
			 M68.8,67.6c-0.1,0.2-0.1,0.5-0.2,0.8c-0.1,0.3-0.2,0.7-0.3,1c-3.9,14.3-17.4,24.2-33,24.2c-7.4,0-14.5-2.2-20.4-6.4L1.4,76.9
			l0.4-0.4l1.8-2.2l2.1-2.5l9-10.7l7.4,5.6c0.6,0.4,1.2,0.9,1.8,1.4c2.1,1.6,4.2,3.3,6.8,4.3c1.5,0.6,3.1,0.9,4.8,0.9
			c5.4,0,10.2-3.2,12-8.1c0.5-1.3,0.7-2.6,0.7-4c0-6.7-5.7-12.1-12.7-12.1c-4.5,0-8.5,2.2-10.8,5.8c0,0.1-0.1,0.1-0.1,0.1l0,0.1
			c-0.2,0.3-0.3,0.6-0.5,0.8c-0.1,0.2-0.2,0.4-0.3,0.6c-0.6,1.3-0.9,2.6-1,4.1c-4.4-3.4-5.3-4.1-5.5-4.3l0.1,0l-5.8-4.5
			c-1.9-1.5-3.6-3.3-5-5.2c-0.4-0.5-0.8-1-1.1-1.6c-2.5-3.9-3.8-8.3-3.8-13.1c0-1.6,0.2-3.3,0.5-4.8c0-0.3,0.1-0.5,0.2-0.8
			c0.1-0.4,0.2-0.7,0.3-1C6.3,11,19.8,1,35.4,1c7.4,0,14.5,2.2,20.4,6.4l13.6,10.3L56.1,33.5l-2-1.5c-1.2-0.9-2.5-1.9-3.7-2.9
			c-2.6-2.1-5.3-4.2-8.1-6c-2-1.3-4.3-1.9-6.8-1.9c-5.5,0-10.4,3.3-12.2,8.1c-0.5,1.2-0.7,2.6-0.7,3.9c0,6.7,5.7,12.1,12.7,12.1
			c3.8,0,7.4-1.6,9.8-4.5l0.1-0.1c0.2-0.2,0.4-0.5,0.5-0.7l0.3-0.5c0.1-0.2,0.2-0.4,0.3-0.5c0.9-1.5,1.4-3.3,1.5-5.1
			c4.1,3.2,5.2,4,5.5,4.2h0l5.8,4.5c1.9,1.5,3.6,3.2,5,5.3c0.4,0.5,0.7,1,1.2,1.6c2.5,3.9,3.8,8.3,3.8,13.2
			C69.3,64.3,69.1,66,68.8,67.6L68.8,67.6z"/>
		<path class="st1" d="M65.5,49.5c2.5,3.9,3.8,8.3,3.8,13.2c0,1.6-0.2,3.3-0.5,4.9c-0.1,0.2-0.1,0.5-0.2,0.8c-0.1,0.3-0.2,0.7-0.3,1
			c-3.9,14.3-17.4,24.2-33,24.2c-7.4,0-14.5-2.2-20.4-6.4L1.4,76.9l0.4-0.4l1.8-2.2l2.1-2.5l9-10.7l7.4,5.6c0.6,0.4,1.2,0.9,1.8,1.4
			c2.1,1.6,4.2,3.3,6.8,4.3c1.5,0.6,3.1,0.9,4.8,0.9c5.4,0,10.2-3.2,12-8.1c0.5-1.3,0.7-2.6,0.7-4c0-6.7-5.7-12.1-12.7-12.1
			c-4.5,0-8.5,2.2-10.8,5.8c0,0.1-0.1,0.1-0.1,0.1l0,0.1c-0.2,0.3-0.3,0.6-0.5,0.8c-0.1,0.2-0.2,0.4-0.3,0.6c-0.6,1.3-0.9,2.6-1,4.1
			c-4.4-3.4-5.3-4.1-5.5-4.3l0.1,0l-5.8-4.5c-1.9-1.5-3.6-3.3-5-5.2c-0.4-0.5-0.8-1-1.1-1.6c-2.5-3.9-3.8-8.3-3.8-13.1
			c0-1.6,0.2-3.3,0.5-4.8c0-0.3,0.1-0.5,0.2-0.8c0.1-0.4,0.2-0.7,0.3-1C6.3,11,19.8,1,35.4,1c7.4,0,14.5,2.2,20.4,6.4l13.6,10.3
			L56.1,33.5l-2-1.5c-1.2-0.9-2.5-1.9-3.7-2.9c-2.6-2.1-5.3-4.2-8.1-6c-2-1.3-4.3-1.9-6.8-1.9c-5.5,0-10.4,3.3-12.2,8.1
			c-0.5,1.2-0.7,2.6-0.7,3.9c0,6.7,5.7,12.1,12.7,12.1c3.8,0,7.4-1.6,9.8-4.5l0.1-0.1c0.2-0.2,0.4-0.5,0.5-0.7l0.3-0.5
			c0.1-0.2,0.2-0.4,0.3-0.5c0.9-1.5,1.4-3.3,1.5-5.1c4.1,3.2,5.2,4,5.5,4.2h0l5.8,4.5c1.9,1.5,3.6,3.2,5,5.3
			C64.7,48.4,65.1,48.9,65.5,49.5L65.5,49.5z"/>
	</g>
</g>
</svg>
