<?xml version="1.0" encoding="UTF-8"?>
<svg id="Layer_2" data-name="Layer 2" xmlns="http://www.w3.org/2000/svg" viewBox="0 0 24.15 20.57">
  <defs>
    <style>
      .cls-1 {
        fill: #60a5fa;
        stroke: #60a5fa;
        stroke-miterlimit: 10;
        stroke-width: .15px;
      }
    </style>
  </defs>
  <g id="Layer_2-2" data-name="Layer 2">
    <path class="cls-1" d="M24.07,10.66c-.02,1.04-.37,2.07-.93,2.96-.57.88-1.38,1.62-2.32,2.09-.27.13-.54.23-.82.31-.33.1-.65.17-.99.2-.04.01-.07.01-.11.01-.28,0-.51-.22-.51-.51,0-.1.03-.19.08-.27.1-.15.26-.22.44-.24.13-.02.27-.03.4-.05.59-.09,1.17-.32,1.65-.66.6-.43,1.08-1.02,1.41-1.68.34-.67.51-1.41.53-2.15.02-.73-.11-1.48-.43-2.15-.32-.67-.81-1.25-1.43-1.66-.73-.47-1.62-.68-2.49-.7-.56-.01-.63-.07-.76-.61-.66-2.57-3.1-4.51-5.7-4.47-2.73-.01-5.16,1.83-5.8,4.45-.07.33-.2.64-.58.63h-.22c-.84.02-1.68.22-2.41.68-.61.4-1.11.96-1.44,1.62-.33.64-.48,1.37-.5,2.09-.01.72.13,1.46.43,2.12.61,1.39,1.88,2.31,3.37,2.5.41.05.83.04,1.23-.01h.03s.06-.01.1-.01c.03,0,.05,0,.08.01.23.04.43.25.43.52,0,.1-.03.2-.08.29-.06.11-.16.19-.29.23-.04.01-.09.02-.14.02h-.04c-.44.04-.87.03-1.29-.02-1.51-.18-2.88-.91-3.78-2.14-.45-.61-.77-1.31-.96-2.05-.17-.73-.21-1.51-.11-2.25.1-.75.36-1.48.76-2.12.42-.67,1-1.23,1.67-1.65.38-.22.78-.41,1.2-.54.22-.08.46-.14.69-.18.07-.02.72-.08.73-.12,2.23-6.68,11.48-6.81,13.6,0,1.67.11,3.07.83,4.09,2.13.09.11.17.22.27.34.63.89.96,1.97.93,3.06ZM16.75,14.65c.31-1.21.22-2.35-.3-3.47-.53-1.11-1.36-1.92-2.48-2.42-1.94-.87-3.87-.33-5.03.59-.02.01-.03.03-.05.04-.02.02-.04.03-.06.05-.1.09-.16.22-.16.37,0,.02,0,.05.01.07.03.24.23.43.49.43.07,0,.13-.01.19-.04.03-.01.06-.03.08-.04.03-.02.05-.04.08-.06,1.55-1.21,3.58-1.05,4.89.01,1.37,1.08,1.77,2.84,1.35,4.19-.06-.02-.13-.03-.19-.05-.3-.08-.58-.16-.88-.24.19.34.38.67.57,1.02.2.37.42.73.62,1.11.03-.02.05-.03.08-.04.17-.1.36-.2.53-.31.41-.23.83-.46,1.23-.69.1-.05.19-.11.3-.16-.44-.12-.86-.23-1.28-.36ZM16.82,19.57s-.04-.08-.07-.12l-2.03-3.25c-.35.32-.72.54-1.11.7-1.38.58-2.93.3-4-.55-1.04-.84-1.52-2.06-1.5-3.18,0-.35.05-.69.15-1.01.1.02.19.05.3.08.26.06.53.14.8.22-.16-.3-.34-.6-.51-.9-.2-.39-.42-.76-.64-1.14-.02-.03-.03-.06-.05-.09-.71.4-1.42.8-2.15,1.21.45.12.87.23,1.29.36-.01.04-.02.08-.02.11,0,.07-.04.15-.05.22-.02.08-.03.15-.04.23-.02.15-.04.3-.05.45-.04.64.05,1.26.24,1.87.18.59.49,1.11.87,1.59.06.07.12.14.18.2.2.23.43.44.67.62.5.38,1.05.64,1.67.82.2.06.42.1.62.13.23.03.47.05.69.05.16,0,.33-.01.48-.03.17-.02.35-.04.52-.08.02,0,.03,0,.05-.01.11-.02.23-.06.35-.09.03-.01.07-.02.1-.04.17-.05.34-.12.51-.19.01,0,.03,0,.04-.01l1.53,2.45c.09.14.24.25.42.29.04.01.08.01.12.01.24,0,.46-.13.57-.34.03-.05.05-.1.07-.15.01-.05.02-.11.02-.17,0-.09-.02-.17-.05-.25Z"/>
  </g>
</svg>