<?xml version="1.0" encoding="UTF-8"?>
<svg id="Layer_2" data-name="Layer 2" xmlns="http://www.w3.org/2000/svg" xmlns:xlink="http://www.w3.org/1999/xlink" viewBox="0 0 838.11 155.21">
  <defs>
    <style>
      .cls-1 {
        fill: url(#linear-gradient-12);
      }

      .cls-1, .cls-2, .cls-3, .cls-4, .cls-5, .cls-6, .cls-7, .cls-8, .cls-9, .cls-10, .cls-11, .cls-12, .cls-13, .cls-14, .cls-15, .cls-16, .cls-17, .cls-18, .cls-19, .cls-20, .cls-21, .cls-22 {
        stroke-width: 0px;
      }

      .cls-2 {
        fill: url(#linear-gradient-17);
      }

      .cls-3 {
        fill: url(#linear-gradient-19);
      }

      .cls-4 {
        fill: url(#linear-gradient);
      }

      .cls-23 {
        opacity: .5;
      }

      .cls-24 {
        fill: #f2f2f2;
        stroke: #fff;
        stroke-miterlimit: 10;
      }

      .cls-5 {
        fill: url(#linear-gradient-6);
      }

      .cls-6 {
        fill: url(#radial-gradient-3);
      }

      .cls-6, .cls-20 {
        opacity: .77;
      }

      .cls-7 {
        fill: url(#radial-gradient);
        opacity: .88;
      }

      .cls-8 {
        fill: url(#linear-gradient-15);
      }

      .cls-9 {
        fill: url(#linear-gradient-11);
      }

      .cls-10 {
        fill: url(#linear-gradient-5);
      }

      .cls-25 {
        opacity: .8;
      }

      .cls-11 {
        fill: url(#linear-gradient-13);
      }

      .cls-12 {
        fill: url(#linear-gradient-16);
      }

      .cls-13 {
        fill: url(#linear-gradient-14);
      }

      .cls-14 {
        fill: url(#linear-gradient-2);
      }

      .cls-15 {
        fill: url(#linear-gradient-7);
      }

      .cls-16 {
        fill: url(#linear-gradient-3);
      }

      .cls-17 {
        fill: url(#linear-gradient-9);
      }

      .cls-18 {
        fill: url(#linear-gradient-8);
      }

      .cls-19 {
        fill: url(#linear-gradient-18);
      }

      .cls-20 {
        fill: url(#radial-gradient-2);
      }

      .cls-21 {
        fill: url(#linear-gradient-10);
      }

      .cls-22 {
        fill: url(#linear-gradient-4);
      }
    </style>
    <radialGradient id="radial-gradient" cx="276.4" cy="77.61" fx="276.4" fy="77.61" r="203" gradientUnits="userSpaceOnUse">
      <stop offset="0" stop-color="#615aec"/>
      <stop offset=".5" stop-color="#7068ec"/>
      <stop offset="1" stop-color="#a799ff"/>
    </radialGradient>
    <radialGradient id="radial-gradient-2" cx="279.12" cy="84.36" fx="279.12" fy="84.36" r="286.45" gradientTransform="translate(0 38.76) scale(1 .54)" gradientUnits="userSpaceOnUse">
      <stop offset="0" stop-color="#a99bff"/>
      <stop offset=".59" stop-color="#7068ec"/>
      <stop offset=".93" stop-color="#615aec"/>
    </radialGradient>
    <linearGradient id="linear-gradient" x1="220.97" y1="152.62" x2="258.8" y2="101.35" gradientUnits="userSpaceOnUse">
      <stop offset="0" stop-color="#948eff"/>
      <stop offset="1" stop-color="#c3b9ff"/>
    </linearGradient>
    <linearGradient id="linear-gradient-2" x1="437.48" y1="82.92" x2="416.31" y2="75.78" gradientUnits="userSpaceOnUse">
      <stop offset="0" stop-color="#948eff"/>
      <stop offset="1" stop-color="#bab0ff"/>
    </linearGradient>
    <linearGradient id="linear-gradient-3" x1="583.36" y1="83.91" x2="299.65" y2="-11.84" xlink:href="#linear-gradient-2"/>
    <linearGradient id="linear-gradient-4" x1="39.89" y1="-6.72" x2="78.68" y2="60.52" gradientUnits="userSpaceOnUse">
      <stop offset="0" stop-color="#948eff" stop-opacity="0"/>
      <stop offset=".07" stop-color="#9892ff" stop-opacity=".08"/>
      <stop offset=".54" stop-color="#b1abff" stop-opacity=".57"/>
      <stop offset=".85" stop-color="#c1bbff" stop-opacity=".88"/>
      <stop offset="1" stop-color="#c8c2ff"/>
    </linearGradient>
    <linearGradient id="linear-gradient-5" x1="135.97" y1="49.01" x2="140.78" y2="57.34" xlink:href="#linear-gradient-4"/>
    <linearGradient id="linear-gradient-6" x1="174.28" y1="63.39" x2="176.36" y2="67.01" xlink:href="#linear-gradient-4"/>
    <linearGradient id="linear-gradient-7" x1="235.02" y1="70.23" x2="242.6" y2="83.37" xlink:href="#linear-gradient-4"/>
    <linearGradient id="linear-gradient-8" x1="271.18" y1="15.42" x2="288.47" y2="45.39" xlink:href="#linear-gradient-4"/>
    <linearGradient id="linear-gradient-9" x1="324.51" y1="35.06" x2="308.2" y2="47.04" gradientUnits="userSpaceOnUse">
      <stop offset="0" stop-color="#948eff" stop-opacity="0"/>
      <stop offset=".04" stop-color="#9892ff" stop-opacity=".08"/>
      <stop offset=".3" stop-color="#b1abff" stop-opacity=".57"/>
      <stop offset=".48" stop-color="#c1bbff" stop-opacity=".88"/>
      <stop offset=".56" stop-color="#c8c2ff"/>
    </linearGradient>
    <linearGradient id="linear-gradient-10" x1="362.15" y1="75.59" x2="360.39" y2="76.89" xlink:href="#linear-gradient-9"/>
    <linearGradient id="linear-gradient-11" x1="394.42" y1="85.56" x2="393.08" y2="86.55" xlink:href="#linear-gradient-9"/>
    <linearGradient id="linear-gradient-12" x1="459.46" y1="108.1" x2="450.32" y2="114.82" xlink:href="#linear-gradient-9"/>
    <linearGradient id="linear-gradient-13" x1="534.31" y1="116.73" x2="517.47" y2="129.09" xlink:href="#linear-gradient-9"/>
    <linearGradient id="linear-gradient-14" x1="124.34" y1="144.92" x2="116.01" y2="129.55" xlink:href="#linear-gradient-4"/>
    <linearGradient id="linear-gradient-15" x1="143.38" y1="96.32" x2="139.4" y2="88.98" xlink:href="#linear-gradient-4"/>
    <linearGradient id="linear-gradient-16" x1="188.13" y1="102.49" x2="181.75" y2="90.73" xlink:href="#linear-gradient-4"/>
    <linearGradient id="linear-gradient-17" x1="253.89" y1="122.22" x2="250.19" y2="115.39" xlink:href="#linear-gradient-4"/>
    <linearGradient id="linear-gradient-18" x1="324.95" y1="158.72" x2="299.56" y2="111.91" xlink:href="#linear-gradient-4"/>
    <linearGradient id="linear-gradient-19" x1="164.27" y1="27.42" x2="215.93" y2="98.27" gradientUnits="userSpaceOnUse">
      <stop offset="0" stop-color="#948eff"/>
      <stop offset="1" stop-color="#ada3ff"/>
    </linearGradient>
    <radialGradient id="radial-gradient-3" cx="593.05" cy="91.09" fx="593.05" fy="91.09" r="26.93" gradientUnits="userSpaceOnUse">
      <stop offset="0" stop-color="#7467e6"/>
      <stop offset=".95" stop-color="#7467e6"/>
    </radialGradient>
  </defs>
  <g id="Layer_2-2" data-name="Layer 2">
    <g>
      <path class="cls-7" d="M144.15,74.2c-4.51,0-7.61,1.97-11.28,5.35v20.47l.73-2.25c2.23-6.89,8.59-11.52,15.84-11.52.97,0,1.93.08,2.89.25v-1.03c0-7.89-1.98-11.27-8.18-11.27ZM274.12,103.8c0,3.24,2.54,5.07,7.61,5.07,5.64,0,10.01-2.53,13.82-5.35v-9.02c-17.2.56-21.43,4.51-21.43,9.3ZM274.12,103.8c0,3.24,2.54,5.07,7.61,5.07,5.64,0,10.01-2.53,13.82-5.35v-9.02c-17.2.56-21.43,4.51-21.43,9.3ZM295.55,80.12c-.85-5.08-5.64-7.33-13.54-7.33-5.92,0-11.84,1.97-20.29,5.92l-2.77-5.17c-7.06,5.73-16,9.04-25.57,9.04-4.25,0-8.47-.67-12.55-1.99l-2.32-.75v15.99c0,10.01,4.65,13.11,13.67,13.11,4.79,0,9.02-.98,12.83-2.25l2.54,10.51,8.45,2.74c-3.28-3.86-5-8.87-5-14.17,0-15.78,12.41-23.96,44.55-25.65ZM144.15,74.2c-4.51,0-7.61,1.97-11.28,5.35v20.47l.73-2.25c2.23-6.89,8.59-11.52,15.84-11.52.97,0,1.93.08,2.89.25v-1.03c0-7.89-1.98-11.27-8.18-11.27ZM274.12,103.8c0,3.24,2.54,5.07,7.61,5.07,5.64,0,10.01-2.53,13.82-5.35v-9.02c-17.2.56-21.43,4.51-21.43,9.3ZM274.12,103.8c0,3.24,2.54,5.07,7.61,5.07,5.64,0,10.01-2.53,13.82-5.35v-9.02c-17.2.56-21.43,4.51-21.43,9.3ZM295.55,80.12c-.85-5.08-5.64-7.33-13.54-7.33-5.92,0-11.84,1.97-20.29,5.92l-2.77-5.17c-7.06,5.73-16,9.04-25.57,9.04-4.25,0-8.47-.67-12.55-1.99l-2.32-.75v15.99c0,10.01,4.65,13.11,13.67,13.11,4.79,0,9.02-.98,12.83-2.25l2.54,10.51,8.45,2.74c-3.28-3.86-5-8.87-5-14.17,0-15.78,12.41-23.96,44.55-25.65ZM144.15,74.2c-4.51,0-7.61,1.97-11.28,5.35v20.47l.73-2.25c2.23-6.89,8.59-11.52,15.84-11.52.97,0,1.93.08,2.89.25v-1.03c0-7.89-1.98-11.27-8.18-11.27ZM274.12,103.8c0,3.24,2.54,5.07,7.61,5.07,5.64,0,10.01-2.53,13.82-5.35v-9.02c-17.2.56-21.43,4.51-21.43,9.3ZM427.07,69.69c-4.66,0-8.46,3.1-8.46,9.58s3.8,9.87,8.46,9.87,8.59-3.1,8.59-9.87-3.94-9.58-8.59-9.58ZM434.26,129.17h-7.05c-5.5,0-8.32-.28-10.72-.84-2.39,1.69-3.52,3.1-3.52,5.07,0,4.51,6.48,6.49,15.93,6.49s16.35-2.54,16.35-6.49c0-3.66-3.95-4.23-10.99-4.23ZM274.12,103.8c0,3.24,2.54,5.07,7.61,5.07,5.64,0,10.01-2.53,13.82-5.35v-9.02c-17.2.56-21.43,4.51-21.43,9.3ZM295.55,80.12c-.85-5.08-5.64-7.33-13.54-7.33-5.92,0-11.84,1.97-20.29,5.92l-2.77-5.17c-7.06,5.73-16,9.04-25.57,9.04-4.25,0-8.47-.67-12.55-1.99l-2.32-.75v15.99c0,10.01,4.65,13.11,13.67,13.11,4.79,0,9.02-.98,12.83-2.25l2.54,10.51,8.45,2.74c-3.28-3.86-5-8.87-5-14.17,0-15.78,12.41-23.96,44.55-25.65ZM144.15,74.2c-4.51,0-7.61,1.97-11.28,5.35v20.47l.73-2.25c2.23-6.89,8.59-11.52,15.84-11.52.97,0,1.93.08,2.89.25v-1.03c0-7.89-1.98-11.27-8.18-11.27ZM537.67,0H15.13C6.77,0,0,6.77,0,15.13v124.95c0,8.35,6.77,15.13,15.13,15.13h398.92c-4.37-.78-8.31-2.07-11.53-3.86-.36-.19-.7-.39-1.03-.6-.13-.07-.25-.15-.37-.23-4.81-3.09-7.74-7.47-7.74-13.17s3.66-10.15,10.71-13.53v-.57c-3.95-2.54-7.05-6.2-7.05-12.12,0-4.79,3.53-9.87,8.46-13.25v-.56c-3.61-2.28-6.71-5.97-8.35-10.64-.13-.38-.26-.77-.37-1.17-.56-1.94-.87-4.03-.87-6.24,0-17.48,14.8-25.65,31.16-25.65,4.23,0,8.45.56,11.98,1.69h28.47v17.48h-12.68c.98,1.69,1.97,4.51,1.97,7.33,0,10.55-5.22,17.14-13.33,20.53-.48.21-.97.4-1.47.57h-.01c-4.36,1.57-9.44,2.3-14.93,2.3-2.54,0-5.5-.28-8.88-.99-1.7,1.27-2.26,2.12-2.26,4.09,0,3.1,3.1,4.23,11,4.23h11.98c18.6,0,29.32,5.35,29.32,18.32,0,8.82-5.55,16.47-15.33,21.35-.16.08-.33.16-.49.23-.43.21-.87.41-1.31.6-3.91,1.75-8.41,3.06-13.45,3.86h100.02c8.36,0,15.13-6.78,15.13-15.13V15.13c0-8.36-6.77-15.13-15.13-15.13ZM108.63,125.79V27.68h24.24l-.92,23.04-.04,1.04-.45,11.16h.57c2.75-2.75,6.55-5.6,11.46-7.41.51-.19,1.04-.37,1.58-.53,2.75-.85,5.83-1.36,9.23-1.36,8.97,0,15.02,3.78,18.52,10.35.22.41.43.83.62,1.26,2.13,4.6,3.13,10.41,3.13,17.14v43.42h-24.24v-40.32c0-7.89-1.98-11.27-8.18-11.27-4.51,0-7.61,1.97-11.28,5.35v46.24h-24.24ZM247.83,118.34l1.41,5.83c-6.2,1.69-13.82,3.66-23.4,3.66-21.11,0-30-10.58-31.38-26.79-.03-.36-.06-.72-.08-1.08-.08-1.21-.12-2.44-.12-3.7v-21.71h-16.91v-18.05l18.04-.84,4.17-27.56,18.95.25v27.31h27.91v18.89h-27.91v21.28c0,10.01,4.65,13.11,13.67,13.11,4.79,0,9.02-.98,12.83-2.25l2.54,10.51.28,1.14ZM36.93,95.69c.79.55,1.57,1.1,2.36,1.65,3.44,2.41,6.87,4.82,10.31,7.23,3.93,2.75,7.77,6.21,12.79,6.45.12.01.25.01.39.01.09,0,.18,0,.27,0,7.12,0,12.91-5.49,12.91-12.26,0-.63-.05-1.24-.15-1.83,0-.02,0-.03-.01-.04-.92-5.76-6.07-10.2-12.34-10.39-.13-.01-.28-.01-.41-.01-7.1,0-12.85,5.44-12.9,12.17l-7.44-5.51-2.45-1.83-3.43-2.65c-2.28-1.78-4.26-3.85-5.9-6.17-.45-.59-.87-1.18-1.28-1.82-3.01-4.64-4.55-9.88-4.55-15.6,0-1.9.19-3.84.58-5.74.07-.35.14-.68.22-1l.07-.28c.08-.3.16-.61.25-.91.84-3.1,2.11-6.02,3.74-8.71,6.23-9.27,16.69-15.62,27.9-17.04,5.32-.68,10.15-.19,14.67,1.09.03.01.05.01.08.02l2.67.87h.01c10.09,3.68,18.67,11.16,27.67,17.99l-13.98,16.69c-.62-.48-1.25-.95-1.88-1.42-3.46-2.61-6.92-5.21-10.39-7.82-4.11-3.09-8.09-6.84-13.58-6.84-7.13,0-12.9,5.49-12.9,12.27,0,1.47.27,2.9.78,4.21,1.8,4.7,6.55,8.05,12.12,8.05.77,0,1.51-.06,2.23-.18,5.96-.99,10.52-5.86,10.67-11.77l10.13,7.25,3.38,2.62c2.29,1.76,4.26,3.84,5.9,6.16.47.61.89,1.21,1.27,1.78,3.04,4.69,4.58,9.95,4.58,15.65,0,1.95-.2,3.9-.59,5.82l-.06.25c-.05.25-.1.49-.17.74l-.06.21c-.07.32-.15.63-.24.93-.93,3-2.21,5.82-3.78,8.44-8.86,13.26-25.43,20.53-41.7,16.52-6.57-1.61-12.5-5.03-17.94-8.97-.98-.7-11.54-9.24-13.26-10.3l13.44-15.99ZM275.8,127.41c-.65.05-1.3.07-1.96.07-7.01,0-12.54-2.33-16.4-6.02h-.01c-.51-.48-.98-.99-1.43-1.52-3.28-3.86-5-8.87-5-14.17,0-15.78,12.41-23.96,44.55-25.65-.85-5.08-5.64-7.33-13.54-7.33-5.92,0-11.84,1.97-20.29,5.92l-2.77-5.17-.49-.92-5.2-9.7c5.65-3.12,11.37-5.54,17.26-7.11.39-.12.78-.22,1.18-.32,4.9-1.23,9.93-1.87,15.11-1.87,20.01,0,32.98,9.86,32.98,32.98v39.19h-19.73l-1.69-7.33h-.57c-5.74,4.21-12.44,7.65-19.56,8.69-.81.12-1.62.21-2.44.26ZM392.25,125.79h-24.25v-40.32c0-4.16-.55-7.07-1.98-8.88-1.28-1.64-3.26-2.39-6.19-2.39-.36,0-.72.01-1.06.04-3.95.29-6.85,2.2-10.22,5.31v46.24h-24.25V55.31h19.74l1.69,8.46h.56c5.64-5.36,13.25-10.15,23.54-10.15,15.65,0,22.42,11.27,22.42,28.75v43.42ZM478.68,112.06c-1.88-4.38-2.83-9.55-2.83-15.31v-50.18h-21.15v-18.89h45.39v69.92c0,8.17,5.64,10.43,10.58,10.43,2.96,0,6.06-.57,10.15-1.97l5.21,17.76c-2.12.63-4.05,1.19-5.93,1.67-.62.17-1.24.32-1.85.45h-.01c-4.17.98-8.31,1.54-14.06,1.54-12.3,0-20.66-5.34-24.95-14.19-.19-.4-.38-.81-.55-1.23ZM274.12,103.8c0,3.24,2.54,5.07,7.61,5.07,5.64,0,10.01-2.53,13.82-5.35v-9.02c-17.2.56-21.43,4.51-21.43,9.3ZM144.15,74.2c-4.51,0-7.61,1.97-11.28,5.35v20.47l.73-2.25c2.23-6.89,8.59-11.52,15.84-11.52.97,0,1.93.08,2.89.25v-1.03c0-7.89-1.98-11.27-8.18-11.27ZM295.55,80.12c-.85-5.08-5.64-7.33-13.54-7.33-5.92,0-11.84,1.97-20.29,5.92l-2.77-5.17c-7.06,5.73-16,9.04-25.57,9.04-4.25,0-8.47-.67-12.55-1.99l-2.32-.75v15.99c0,10.01,4.65,13.11,13.67,13.11,4.79,0,9.02-.98,12.83-2.25l2.54,10.51,8.45,2.74c-3.28-3.86-5-8.87-5-14.17,0-15.78,12.41-23.96,44.55-25.65ZM274.12,103.8c0,3.24,2.54,5.07,7.61,5.07,5.64,0,10.01-2.53,13.82-5.35v-9.02c-17.2.56-21.43,4.51-21.43,9.3ZM427.07,69.69c-4.66,0-8.46,3.1-8.46,9.58s3.8,9.87,8.46,9.87,8.59-3.1,8.59-9.87-3.94-9.58-8.59-9.58ZM434.26,129.17h-7.05c-5.5,0-8.32-.28-10.72-.84-2.39,1.69-3.52,3.1-3.52,5.07,0,4.51,6.48,6.49,15.93,6.49s16.35-2.54,16.35-6.49c0-3.66-3.95-4.23-10.99-4.23ZM434.26,129.17h-7.05c-5.5,0-8.32-.28-10.72-.84-2.39,1.69-3.52,3.1-3.52,5.07,0,4.51,6.48,6.49,15.93,6.49s16.35-2.54,16.35-6.49c0-3.66-3.95-4.23-10.99-4.23ZM427.07,69.69c-4.66,0-8.46,3.1-8.46,9.58s3.8,9.87,8.46,9.87,8.59-3.1,8.59-9.87-3.94-9.58-8.59-9.58ZM274.12,103.8c0,3.24,2.54,5.07,7.61,5.07,5.64,0,10.01-2.53,13.82-5.35v-9.02c-17.2.56-21.43,4.51-21.43,9.3ZM144.15,74.2c-4.51,0-7.61,1.97-11.28,5.35v20.47l.73-2.25c2.23-6.89,8.59-11.52,15.84-11.52.97,0,1.93.08,2.89.25v-1.03c0-7.89-1.98-11.27-8.18-11.27ZM295.55,80.12c-.85-5.08-5.64-7.33-13.54-7.33-5.92,0-11.84,1.97-20.29,5.92l-2.77-5.17c-7.06,5.73-16,9.04-25.57,9.04-4.25,0-8.47-.67-12.55-1.99l-2.32-.75v15.99c0,10.01,4.65,13.11,13.67,13.11,4.79,0,9.02-.98,12.83-2.25l2.54,10.51,8.45,2.74c-3.28-3.86-5-8.87-5-14.17,0-15.78,12.41-23.96,44.55-25.65ZM274.12,103.8c0,3.24,2.54,5.07,7.61,5.07,5.64,0,10.01-2.53,13.82-5.35v-9.02c-17.2.56-21.43,4.51-21.43,9.3ZM274.12,103.8c0,3.24,2.54,5.07,7.61,5.07,5.64,0,10.01-2.53,13.82-5.35v-9.02c-17.2.56-21.43,4.51-21.43,9.3ZM144.15,74.2c-4.51,0-7.61,1.97-11.28,5.35v20.47l.73-2.25c2.23-6.89,8.59-11.52,15.84-11.52.97,0,1.93.08,2.89.25v-1.03c0-7.89-1.98-11.27-8.18-11.27ZM274.12,103.8c0,3.24,2.54,5.07,7.61,5.07,5.64,0,10.01-2.53,13.82-5.35v-9.02c-17.2.56-21.43,4.51-21.43,9.3ZM274.12,103.8c0,3.24,2.54,5.07,7.61,5.07,5.64,0,10.01-2.53,13.82-5.35v-9.02c-17.2.56-21.43,4.51-21.43,9.3ZM144.15,74.2c-4.51,0-7.61,1.97-11.28,5.35v20.47l.73-2.25c2.23-6.89,8.59-11.52,15.84-11.52.97,0,1.93.08,2.89.25v-1.03c0-7.89-1.98-11.27-8.18-11.27Z"/>
      <path class="cls-20" d="M144.15,74.2c-4.51,0-7.61,1.97-11.28,5.35v20.47l.73-2.25c2.23-6.89,8.59-11.52,15.84-11.52.97,0,1.93.08,2.89.25v-1.03c0-7.89-1.98-11.27-8.18-11.27ZM274.12,103.8c0,3.24,2.54,5.07,7.61,5.07,5.64,0,10.01-2.53,13.82-5.35v-9.02c-17.2.56-21.43,4.51-21.43,9.3ZM274.12,103.8c0,3.24,2.54,5.07,7.61,5.07,5.64,0,10.01-2.53,13.82-5.35v-9.02c-17.2.56-21.43,4.51-21.43,9.3ZM295.55,80.12c-.85-5.08-5.64-7.33-13.54-7.33-5.92,0-11.84,1.97-20.29,5.92l-2.77-5.17c-7.06,5.73-16,9.04-25.57,9.04-4.25,0-8.47-.67-12.55-1.99l-2.32-.75v15.99c0,10.01,4.65,13.11,13.67,13.11,4.79,0,9.02-.98,12.83-2.25l2.54,10.51,8.45,2.74c-3.28-3.86-5-8.87-5-14.17,0-15.78,12.41-23.96,44.55-25.65ZM144.15,74.2c-4.51,0-7.61,1.97-11.28,5.35v20.47l.73-2.25c2.23-6.89,8.59-11.52,15.84-11.52.97,0,1.93.08,2.89.25v-1.03c0-7.89-1.98-11.27-8.18-11.27ZM274.12,103.8c0,3.24,2.54,5.07,7.61,5.07,5.64,0,10.01-2.53,13.82-5.35v-9.02c-17.2.56-21.43,4.51-21.43,9.3ZM274.12,103.8c0,3.24,2.54,5.07,7.61,5.07,5.64,0,10.01-2.53,13.82-5.35v-9.02c-17.2.56-21.43,4.51-21.43,9.3ZM295.55,80.12c-.85-5.08-5.64-7.33-13.54-7.33-5.92,0-11.84,1.97-20.29,5.92l-2.77-5.17c-7.06,5.73-16,9.04-25.57,9.04-4.25,0-8.47-.67-12.55-1.99l-2.32-.75v15.99c0,10.01,4.65,13.11,13.67,13.11,4.79,0,9.02-.98,12.83-2.25l2.54,10.51,8.45,2.74c-3.28-3.86-5-8.87-5-14.17,0-15.78,12.41-23.96,44.55-25.65ZM144.15,74.2c-4.51,0-7.61,1.97-11.28,5.35v20.47l.73-2.25c2.23-6.89,8.59-11.52,15.84-11.52.97,0,1.93.08,2.89.25v-1.03c0-7.89-1.98-11.27-8.18-11.27ZM274.12,103.8c0,3.24,2.54,5.07,7.61,5.07,5.64,0,10.01-2.53,13.82-5.35v-9.02c-17.2.56-21.43,4.51-21.43,9.3ZM274.12,103.8c0,3.24,2.54,5.07,7.61,5.07,5.64,0,10.01-2.53,13.82-5.35v-9.02c-17.2.56-21.43,4.51-21.43,9.3ZM295.55,80.12c-.85-5.08-5.64-7.33-13.54-7.33-5.92,0-11.84,1.97-20.29,5.92l-2.77-5.17c-7.06,5.73-16,9.04-25.57,9.04-4.25,0-8.47-.67-12.55-1.99l-2.32-.75v15.99c0,10.01,4.65,13.11,13.67,13.11,4.79,0,9.02-.98,12.83-2.25l2.54,10.51,8.45,2.74c-3.28-3.86-5-8.87-5-14.17,0-15.78,12.41-23.96,44.55-25.65ZM144.15,74.2c-4.51,0-7.61,1.97-11.28,5.35v20.47l.73-2.25c2.23-6.89,8.59-11.52,15.84-11.52.97,0,1.93.08,2.89.25v-1.03c0-7.89-1.98-11.27-8.18-11.27ZM536.72,3.86H16.05c-.21,0-.42.01-.63.02-.18.01-.36.02-.54.04-.24.02-.49.05-.73.09-.19.03-.37.06-.55.1-.03.01-.06.01-.1.02-.21.05-.43.1-.64.15-.29.08-.58.17-.86.27-.23.08-.47.17-.69.27-.37.15-.73.33-1.07.51-.28.16-.56.32-.82.5-.28.17-.54.36-.8.56-.27.2-.52.41-.77.64-2.45,2.23-3.99,5.45-3.99,9.03v123.09c0,6.74,5.46,12.2,12.19,12.2h386.47c-.36-.19-.7-.39-1.03-.6-.13-.07-.25-.15-.37-.23-4.81-3.09-7.74-7.47-7.74-13.17s3.66-10.15,10.71-13.53v-.57c-3.95-2.54-7.05-6.2-7.05-12.12,0-4.79,3.53-9.87,8.46-13.25v-.56c-3.61-2.28-6.71-5.97-8.35-10.64-.13-.38-.26-.77-.37-1.17-.56-1.94-.87-4.03-.87-6.24,0-17.48,14.8-25.65,31.16-25.65,4.23,0,8.45.56,11.98,1.69h28.47v17.48h-12.68c.98,1.69,1.97,4.51,1.97,7.33,0,10.55-5.22,17.14-13.33,20.53-.48.21-.97.4-1.47.57h-.01c-4.36,1.57-9.44,2.3-14.93,2.3-2.54,0-5.5-.28-8.88-.99-1.7,1.27-2.26,2.12-2.26,4.09,0,3.1,3.1,4.23,11,4.23h11.98c18.6,0,29.32,5.35,29.32,18.32,0,8.82-5.55,16.47-15.33,21.35-.16.08-.33.16-.49.23-.43.21-.87.41-1.31.6h85.62c6.74,0,12.2-5.46,12.2-12.2V16.06c0-6.74-5.46-12.2-12.2-12.2ZM51.01,68.48c1.8,4.7,6.55,8.05,12.12,8.05.77,0,1.51-.06,2.23-.18,5.96-.99,10.52-5.86,10.67-11.77l10.13,7.25,3.38,2.62c2.29,1.76,4.26,3.84,5.9,6.16.47.61.89,1.21,1.27,1.78,3.04,4.69,4.58,9.95,4.58,15.65,0,1.95-.2,3.9-.59,5.82l-.06.25c-.05.25-.1.49-.17.74l-.06.21c-.07.32-.15.63-.24.93-.93,3-2.21,5.82-3.78,8.44-8.86,13.26-25.43,20.53-41.7,16.52-6.57-1.61-12.5-5.03-17.94-8.97-.98-.7-11.54-9.24-13.26-10.3l13.44-15.99c.79.55,1.57,1.1,2.36,1.65,3.44,2.41,6.87,4.82,10.31,7.23,3.93,2.75,7.77,6.21,12.79,6.45.12.01.25.01.39.01.09,0,.18,0,.27,0,7.12,0,12.91-5.49,12.91-12.26,0-.63-.05-1.24-.15-1.83,0-.02,0-.03-.01-.04-.92-5.76-6.07-10.2-12.34-10.39-.13-.01-.28-.01-.41-.01-7.1,0-12.85,5.44-12.9,12.17l-7.44-5.51-2.45-1.83-3.43-2.65c-2.28-1.78-4.26-3.85-5.9-6.17-.45-.59-.87-1.18-1.28-1.82-3.01-4.64-4.55-9.88-4.55-15.6,0-1.9.19-3.84.58-5.74.07-.35.14-.68.22-1l.07-.28c.08-.3.16-.61.25-.91.84-3.1,2.11-6.02,3.74-8.71,6.23-9.27,16.69-15.62,27.9-17.04,5.32-.68,10.15-.19,14.67,1.09.03.01.05.01.08.02l2.67.87h.01c10.09,3.68,18.67,11.16,27.67,17.99l-13.98,16.69c-.62-.48-1.25-.95-1.88-1.42-3.46-2.61-6.92-5.21-10.39-7.82-4.11-3.09-8.09-6.84-13.58-6.84-7.13,0-12.9,5.49-12.9,12.27,0,1.47.27,2.9.78,4.21ZM176.57,125.79h-24.24v-40.32c0-7.89-1.98-11.27-8.18-11.27-4.51,0-7.61,1.97-11.28,5.35v46.24h-24.24V27.68h24.24l-.92,23.04-.04,1.04-.45,11.16h.57c2.75-2.75,6.55-5.6,11.46-7.41.51-.19,1.04-.37,1.58-.53,2.75-.85,5.83-1.36,9.23-1.36,8.97,0,15.02,3.78,18.52,10.35.22.41.43.83.62,1.26,2.13,4.6,3.13,10.41,3.13,17.14v43.42ZM225.84,127.83c-21.11,0-30-10.58-31.38-26.79-.03-.36-.06-.72-.08-1.08-.08-1.21-.12-2.44-.12-3.7v-21.71h-16.91v-18.05l18.04-.84,4.17-27.56,18.95.25v27.31h27.91v18.89h-27.91v21.28c0,10.01,4.65,13.11,13.67,13.11,4.79,0,9.02-.98,12.83-2.25l2.54,10.51.28,1.14,1.41,5.83c-6.2,1.69-13.82,3.66-23.4,3.66ZM273.84,127.48c-7.01,0-12.54-2.33-16.4-6.02h-.01c-.51-.48-.98-.99-1.43-1.52-3.28-3.86-5-8.87-5-14.17,0-15.78,12.41-23.96,44.55-25.65-.85-5.08-5.64-7.33-13.54-7.33-5.92,0-11.84,1.97-20.29,5.92l-2.77-5.17-.49-.92-5.2-9.7c5.65-3.12,11.37-5.54,17.26-7.11.39-.12.78-.22,1.18-.32,4.9-1.23,9.93-1.87,15.11-1.87,20.01,0,32.98,9.86,32.98,32.98v39.19h-19.73l-1.69-7.33h-.57c-5.74,4.21-12.44,7.65-19.56,8.69-.81.12-1.62.21-2.44.26-.65.05-1.3.07-1.96.07ZM392.25,125.79h-24.25v-40.32c0-4.16-.55-7.07-1.98-8.88-1.28-1.64-3.26-2.39-6.19-2.39-.36,0-.72.01-1.06.04-3.95.29-6.85,2.2-10.22,5.31v46.24h-24.25V55.31h19.74l1.69,8.46h.56c5.64-5.36,13.25-10.15,23.54-10.15,15.65,0,22.42,11.27,22.42,28.75v43.42ZM518.24,125.94c-4.17.98-8.31,1.54-14.06,1.54-12.3,0-20.66-5.34-24.95-14.19-.19-.4-.38-.81-.55-1.23-1.88-4.38-2.83-9.55-2.83-15.31v-50.18h-21.15v-18.89h45.39v69.92c0,8.17,5.64,10.43,10.58,10.43,2.96,0,6.06-.57,10.15-1.97l5.21,17.76c-2.12.63-4.05,1.19-5.93,1.67-.62.17-1.24.32-1.85.45h-.01ZM295.55,103.52v-9.02c-17.2.56-21.43,4.51-21.43,9.3,0,3.24,2.54,5.07,7.61,5.07,5.64,0,10.01-2.53,13.82-5.35ZM144.15,74.2c-4.51,0-7.61,1.97-11.28,5.35v20.47l.73-2.25c2.23-6.89,8.59-11.52,15.84-11.52.97,0,1.93.08,2.89.25v-1.03c0-7.89-1.98-11.27-8.18-11.27ZM295.55,80.12c-.85-5.08-5.64-7.33-13.54-7.33-5.92,0-11.84,1.97-20.29,5.92l-2.77-5.17c-7.06,5.73-16,9.04-25.57,9.04-4.25,0-8.47-.67-12.55-1.99l-2.32-.75v15.99c0,10.01,4.65,13.11,13.67,13.11,4.79,0,9.02-.98,12.83-2.25l2.54,10.51,8.45,2.74c-3.28-3.86-5-8.87-5-14.17,0-15.78,12.41-23.96,44.55-25.65ZM274.12,103.8c0,3.24,2.54,5.07,7.61,5.07,5.64,0,10.01-2.53,13.82-5.35v-9.02c-17.2.56-21.43,4.51-21.43,9.3ZM434.26,129.17h-7.05c-5.5,0-8.32-.28-10.72-.84-2.39,1.69-3.52,3.1-3.52,5.07,0,4.51,6.48,6.49,15.93,6.49s16.35-2.54,16.35-6.49c0-3.66-3.95-4.23-10.99-4.23ZM427.07,69.69c-4.66,0-8.46,3.1-8.46,9.58s3.8,9.87,8.46,9.87,8.59-3.1,8.59-9.87-3.94-9.58-8.59-9.58ZM274.12,103.8c0,3.24,2.54,5.07,7.61,5.07,5.64,0,10.01-2.53,13.82-5.35v-9.02c-17.2.56-21.43,4.51-21.43,9.3ZM144.15,74.2c-4.51,0-7.61,1.97-11.28,5.35v20.47l.73-2.25c2.23-6.89,8.59-11.52,15.84-11.52.97,0,1.93.08,2.89.25v-1.03c0-7.89-1.98-11.27-8.18-11.27ZM295.55,80.12c-.85-5.08-5.64-7.33-13.54-7.33-5.92,0-11.84,1.97-20.29,5.92l-2.77-5.17c-7.06,5.73-16,9.04-25.57,9.04-4.25,0-8.47-.67-12.55-1.99l-2.32-.75v15.99c0,10.01,4.65,13.11,13.67,13.11,4.79,0,9.02-.98,12.83-2.25l2.54,10.51,8.45,2.74c-3.28-3.86-5-8.87-5-14.17,0-15.78,12.41-23.96,44.55-25.65ZM274.12,103.8c0,3.24,2.54,5.07,7.61,5.07,5.64,0,10.01-2.53,13.82-5.35v-9.02c-17.2.56-21.43,4.51-21.43,9.3ZM274.12,103.8c0,3.24,2.54,5.07,7.61,5.07,5.64,0,10.01-2.53,13.82-5.35v-9.02c-17.2.56-21.43,4.51-21.43,9.3ZM274.12,103.8c0,3.24,2.54,5.07,7.61,5.07,5.64,0,10.01-2.53,13.82-5.35v-9.02c-17.2.56-21.43,4.51-21.43,9.3ZM144.15,74.2c-4.51,0-7.61,1.97-11.28,5.35v20.47l.73-2.25c2.23-6.89,8.59-11.52,15.84-11.52.97,0,1.93.08,2.89.25v-1.03c0-7.89-1.98-11.27-8.18-11.27ZM274.12,103.8c0,3.24,2.54,5.07,7.61,5.07,5.64,0,10.01-2.53,13.82-5.35v-9.02c-17.2.56-21.43,4.51-21.43,9.3ZM144.15,74.2c-4.51,0-7.61,1.97-11.28,5.35v20.47l.73-2.25c2.23-6.89,8.59-11.52,15.84-11.52.97,0,1.93.08,2.89.25v-1.03c0-7.89-1.98-11.27-8.18-11.27Z"/>
      <g class="cls-25">
        <path class="cls-4" d="M349.59,151.35H117.28l8.29-25.56h7.3v-22.53l1.68-5.18c2.14-6.63,8.28-10.83,14.89-10.83.24,0,.48.01.72.02s.48.02.72.05c.19.02.39.04.58.06.03,0,.05.01.08.01.27.04.53.08.79.13v38.27h24.24v-30.55l17.89,5.8c1.38,16.21,10.27,26.79,31.38,26.79,9.58,0,17.2-1.97,23.4-3.66l-1.41-5.83,9.6,3.11h.01c3.86,3.7,9.39,6.03,16.4,6.03.66,0,1.31-.02,1.96-.07l73.1,23.7c.23.08.47.16.69.24Z"/>
      </g>
      <g class="cls-23">
        <path class="cls-14" d="M435.66,79.27c0,6.77-3.94,9.87-8.59,9.87s-8.46-3.1-8.46-9.87,3.8-9.58,8.46-9.58,8.59,3.1,8.59,9.58Z"/>
      </g>
      <g class="cls-25">
        <path class="cls-16" d="M548.92,16.06v79.68l-6.64,20.48c-2.66,8.23-11.49,12.73-19.72,10.07l-2.46-.8c1.88-.48,3.81-1.04,5.93-1.67l-5.21-17.76c-4.09,1.4-7.19,1.97-10.15,1.97-4.94,0-10.58-2.26-10.58-10.43V27.68h-45.39v18.89h21.15v50.18c0,5.76.95,10.93,2.83,15.31l-35.2-11.41c8.11-3.39,13.33-9.98,13.33-20.53,0-2.82-.99-5.64-1.97-7.33h12.68v-17.48h-28.47c-3.53-1.13-7.75-1.69-11.98-1.69-16.36,0-31.16,8.17-31.16,25.65,0,2.21.31,4.3.87,6.24l-4.53-1.47v-1.67c0-17.48-6.77-28.75-22.42-28.75-10.29,0-17.9,4.79-23.54,10.15h-.56l-1.69-8.46h-19.74v6.16c-5.84-3.75-8.68-11.09-6.43-18.01l12.84-39.6h206.01c6.74,0,12.2,5.46,12.2,12.2Z"/>
      </g>
      <g class="cls-23">
        <path class="cls-22" d="M108.63,43.16v1.05l-33.34-10.81h-.01l-2.67-.87s-.05-.01-.08-.02l-48.73-15.8c-6.03-1.95-11.37-5.18-15.88-9.61l-.07-.07c.25-.23.5-.44.77-.64,4.24,4.16,9.47,7.42,15.49,9.37l84.52,27.4Z"/>
      </g>
      <g class="cls-23">
        <path class="cls-10" d="M145.07,54.98c-.54.16-1.07.34-1.58.53l-11.58-3.75.04-1.04,13.12,4.26Z"/>
      </g>
      <g class="cls-23">
        <path class="cls-5" d="M172.82,63.97l4.53,1.47v1.05l-3.91-1.26c-.19-.43-.4-.85-.62-1.26Z"/>
      </g>
      <g class="cls-23">
        <path class="cls-15" d="M258.95,73.54c-7.06,5.73-16,9.04-25.57,9.04-4.25,0-8.47-.67-12.55-1.99l-2.32-.75v-1.05l2.63.85c4.06,1.32,8.18,1.94,12.24,1.94.57,0,1.14-.01,1.71-.04.56-.02,1.12-.06,1.67-.11.09,0,.19-.01.28-.03.45-.03.9-.08,1.35-.15.1,0,.2-.01.3-.04.5-.06,1-.14,1.5-.23.55-.09,1.09-.2,1.63-.32.04,0,.07,0,.11-.03.53-.11,1.06-.24,1.58-.38.55-.14,1.09-.3,1.63-.47.54-.16,1.07-.34,1.6-.54.53-.19,1.06-.39,1.58-.6.52-.2,1.04-.43,1.55-.67,1.03-.47,2.03-.98,3.01-1.54.49-.27.97-.56,1.45-.86s.95-.6,1.42-.92c.93-.64,1.83-1.31,2.71-2.03l.49.92Z"/>
      </g>
      <g class="cls-23">
        <path class="cls-18" d="M288.47,3.86l-16.41,50.58c-.11.35-.23.7-.36,1.05-.4.1-.79.2-1.18.32.04-.11.08-.21.12-.31.16-.45.32-.91.47-1.37l16.3-50.27h1.06Z"/>
      </g>
      <g class="cls-23">
        <path class="cls-17" d="M324.3,61.47v1.17c-6.57-3.88-9.83-11.93-7.38-19.49l12.74-39.29h1.05l-12.84,39.6c-2.25,6.92.59,14.26,6.43,18.01Z"/>
      </g>
      <g class="cls-23">
        <path class="cls-21" d="M366.02,76.59l-7.25-2.35c.34-.03.7-.04,1.06-.04,2.93,0,4.91.75,6.19,2.39Z"/>
      </g>
      <g class="cls-23">
        <path class="cls-9" d="M397.15,86.68l-4.9-1.59v-1.05l4.53,1.47c.11.4.24.79.37,1.17Z"/>
      </g>
      <g class="cls-23">
        <path class="cls-1" d="M478.68,112.06c.17.42.36.83.55,1.23l-37.22-12.07c.5-.17.99-.36,1.47-.57l35.2,11.41Z"/>
      </g>
      <g class="cls-23">
        <path class="cls-11" d="M548.92,95.74v3.24l-5.69,17.55c-2.23,6.89-8.59,11.52-15.84,11.52-1.74,0-3.47-.27-5.14-.81l-4-1.3c.61-.13,1.23-.28,1.85-.45l2.46.8c8.23,2.66,17.06-1.84,19.72-10.07l6.64-20.48Z"/>
      </g>
      <g class="cls-23">
        <polygon class="cls-13" points="124.52 125.79 125.57 125.79 117.28 151.35 116.23 151.35 124.52 125.79"/>
      </g>
      <g class="cls-23">
        <path class="cls-8" d="M152.33,86.5v1.02c-.26-.05-.52-.09-.79-.13-.03,0-.05-.01-.08-.01-.19-.02-.39-.04-.58-.06-.24-.03-.48-.04-.72-.05s-.48-.02-.72-.02c-6.61,0-12.75,4.2-14.89,10.83l-1.68,5.18v-3.24l.73-2.25c2.23-6.89,8.59-11.52,15.84-11.52.97,0,1.93.08,2.89.25Z"/>
      </g>
      <g class="cls-23">
        <path class="cls-12" d="M194.38,99.96c.02.36.05.72.08,1.08l-17.89-5.8v-1.05l17.81,5.77Z"/>
      </g>
      <g class="cls-23">
        <path class="cls-2" d="M257.43,121.45l-9.6-3.11-.28-1.14,8.45,2.74c.45.53.92,1.04,1.43,1.51Z"/>
      </g>
      <g class="cls-23">
        <path class="cls-19" d="M353.12,151.35h-3.53c-.22-.08-.46-.16-.69-.24l-73.1-23.7c.82-.05,1.63-.14,2.44-.26l70.97,23.01,3.91,1.19Z"/>
      </g>
      <g class="cls-25">
        <path class="cls-3" d="M287.41,3.86l-16.3,50.27c-.15.46-.31.92-.47,1.37-.04.1-.08.2-.12.31-5.89,1.57-11.61,3.99-17.26,7.11l5.2,9.7c-.87.73-1.78,1.4-2.71,2.03-.47.32-.94.62-1.42.92s-.96.59-1.45.86c-.98.56-1.98,1.07-3.01,1.54-.51.24-1.03.47-1.55.67-.52.21-1.05.41-1.58.6-.53.2-1.06.38-1.6.54-.54.17-1.08.33-1.63.47-.52.14-1.05.27-1.58.38-.04.02-.07.03-.11.03-.54.12-1.08.23-1.63.32-.5.09-1,.17-1.5.23-.1.03-.2.04-.3.04-.45.07-.9.12-1.35.15-.09.02-.19.03-.28.03-.55.05-1.11.09-1.67.11-.57.03-1.14.04-1.71.04-4.06,0-8.18-.62-12.24-1.94l-2.63-.85v-4.24h27.91v-18.89h-27.91v-27.31l-18.95-.25-4.17,27.56-18.04.84v8.94l-4.53-1.47c-3.5-6.57-9.55-10.35-18.52-10.35-3.4,0-6.48.51-9.23,1.36l-13.12-4.26.92-23.04h-24.24v15.48L24.11,15.76c-6.02-1.95-11.25-5.21-15.49-9.37.26-.2.52-.39.8-.56.26-.18.54-.34.82-.5.34-.18.7-.36,1.07-.51.22-.1.46-.19.69-.27.28-.1.57-.19.86-.27.21-.05.43-.1.64-.15.04-.01.07-.01.1-.02.18-.04.36-.07.55-.1.24-.04.49-.07.73-.09.18-.02.36-.03.54-.04.21-.01.42-.02.63-.02h271.36Z"/>
      </g>
      <g>
        <path class="cls-24" d="M694.58,118.1c-5.45,2.14-10.94,3.51-18,3.51-15.1,0-18.88-7.88-18.88-21.07v-37.38h36.02v-5.45h-36.02v-22.4h-5.31l-.83,22.4-20.59.61v4.84h20.47v36.93c0,16.1,5.67,27,24.25,27,8.29,0,14.4-1.73,20.6-4.19l-1.71-4.8Z"/>
        <path class="cls-24" d="M713.23,119.92l52.95-58.88v-3.33h-56.71v5.45h47.23l-52.96,58.91v3.33h64.02v-5.48h-54.53Z"/>
        <path class="cls-24" d="M811.96,56.02c-14.75,0-23.85,6.18-29.25,10.08l2.91,4.6c5.52-3.94,15.39-9.2,25.6-9.2,15.51,0,20.02,10.36,20.14,21.51-36.72,3.23-51.92,10.39-51.92,25.55,0,12.68,11.5,18.53,23.61,18.53,9.99,0,20.47-5.59,28.25-11.81h.32l.68,10.12h5.31v-43.24c0-14.49-7.51-26.14-25.65-26.14ZM831.36,109.45c-9.54,8.02-18.59,12.2-27.27,12.2-9.12,0-18.22-3.72-18.22-13.42,0-10.87,11.03-17.37,45.49-20.44v21.66Z"/>
      </g>
      <polygon class="cls-6" points="610.05 57.01 583.98 125.17 576.06 125.17 602.33 57.01 610.05 57.01"/>
    </g>
  </g>
</svg>