<?xml version="1.0" encoding="UTF-8"?>
<svg id="Layer_2" data-name="Layer 2" xmlns="http://www.w3.org/2000/svg" xmlns:xlink="http://www.w3.org/1999/xlink" viewBox="0 0 262.58 48.77">
  <defs>
    <style>
      .cls-1 {
        fill: #2d243a;
        stroke: #2d243a;
        stroke-width: 2px;
      }

      .cls-1, .cls-2, .cls-3 {
        stroke-miterlimit: 10;
      }

      .cls-2 {
        fill: url(#linear-gradient);
        stroke: url(#linear-gradient-2);
      }

      .cls-2, .cls-4, .cls-3 {
        opacity: .5;
      }

      .cls-2, .cls-3 {
        stroke-width: .5px;
      }

      .cls-5 {
        fill: url(#linear-gradient-6);
      }

      .cls-5, .cls-6, .cls-7, .cls-8, .cls-9, .cls-10, .cls-11 {
        stroke-width: 0px;
      }

      .cls-6 {
        fill: url(#linear-gradient-5);
      }

      .cls-7 {
        fill: none;
      }

      .cls-8 {
        fill: #fff;
      }

      .cls-9 {
        fill: #ae7bff;
        opacity: .67;
      }

      .cls-10 {
        fill: url(#radial-gradient);
        opacity: .77;
      }

      .cls-11 {
        fill: #c28dff;
      }

      .cls-3 {
        fill: url(#linear-gradient-3);
        stroke: url(#linear-gradient-4);
      }
    </style>
    <radialGradient id="radial-gradient" cx="80.76" cy="1.63" fx="80.76" fy="1.63" r="78.57" gradientTransform="translate(0 .48) scale(1 .7)" gradientUnits="userSpaceOnUse">
      <stop offset="0" stop-color="#cfa1ff"/>
      <stop offset=".97" stop-color="#a46ce6"/>
    </radialGradient>
    <linearGradient id="linear-gradient" x1="36.68" y1="37.16" x2="108.58" y2="37.16" gradientUnits="userSpaceOnUse">
      <stop offset="0" stop-color="#c094ff"/>
      <stop offset="1" stop-color="#debfff"/>
    </linearGradient>
    <linearGradient id="linear-gradient-2" x1="36.34" y1="37.16" x2="110.17" y2="37.16" gradientUnits="userSpaceOnUse">
      <stop offset="0" stop-color="#debfff" stop-opacity=".2"/>
      <stop offset="1" stop-color="#e7d6ff"/>
    </linearGradient>
    <linearGradient id="linear-gradient-3" x1="99.03" y1="20.53" x2="170.99" y2="20.53" gradientUnits="userSpaceOnUse">
      <stop offset="0" stop-color="#debfff"/>
      <stop offset="1" stop-color="#c094ff"/>
    </linearGradient>
    <linearGradient id="linear-gradient-4" x1="115.43" y1="36.79" x2="163.84" y2="-3.83" gradientUnits="userSpaceOnUse">
      <stop offset="0" stop-color="#e7d6ff"/>
      <stop offset="1" stop-color="#debfff" stop-opacity=".2"/>
    </linearGradient>
    <linearGradient id="linear-gradient-5" x1="3.64" y1="13.44" x2="89.69" y2="13.44" xlink:href="#linear-gradient"/>
    <linearGradient id="linear-gradient-6" x1="3.64" y1="13.44" x2="89.69" y2="13.44" xlink:href="#linear-gradient-2"/>
  </defs>
  <g id="Layer_1-2" data-name="Layer 1">
    <path id="Frame_shtangla" data-name="Frame shtangla" class="cls-11" d="M7.73,0h159.11c3.2,0,5.8,2.6,5.8,5.8v37.95c0,2.61-2.12,4.73-4.73,4.73H6.92c-3.82,0-6.92-3.1-6.92-6.92V7.73C0,3.47,3.47,0,7.73,0Z"/>
    <path class="cls-10" d="M170.99,31.23v10.03c0,3.21-2.6,5.81-5.81,5.81h-56.6l-60.41-19.59c-2.57-.83-5.32.58-6.16,3.15l-5.33,16.44H7.45c-3.21,0-5.82-2.6-5.82-5.81V7.2c0-1.75.78-3.32,2.01-4.38,1.13.91,2.44,1.63,3.89,2.1l61.53,19.95c6.5,2.11,13.49-1.46,15.6-7.97l5.03-15.51h13.52l-3.95,12.18c-.83,2.57.58,5.33,3.15,6.16l60.78,19.7c2.56.84,5.32-.57,6.16-3.14l1.64-5.06Z"/>
    <path class="cls-2" d="M108.58,47.07H36.68l5.33-16.44c.84-2.57,3.59-3.98,6.16-3.15l60.41,19.59Z"/>
    <path class="cls-3" d="M170.99,7.2v24.03l-1.64,5.06c-.84,2.57-3.6,3.98-6.16,3.14l-60.78-19.7c-2.57-.83-3.98-3.59-3.15-6.16l3.95-12.18h61.97c3.21,0,5.81,2.6,5.81,5.81Z"/>
    <g class="cls-4">
      <path class="cls-6" d="M89.69,1.39l-5.03,15.51c-2.11,6.51-9.1,10.08-15.6,7.97L7.53,4.92c-1.45-.47-2.76-1.19-3.89-2.1,1.02-.89,2.35-1.43,3.81-1.43h82.24Z"/>
      <path class="cls-5" d="M89.01,1.89l-4.82,14.86c-1.6,4.92-6.14,8.23-11.31,8.23-1.24,0-2.47-.2-3.66-.58L7.69,4.45c-1.16-.38-2.24-.92-3.22-1.63.88-.6,1.92-.93,2.99-.93h81.55M89.69,1.39H7.45c-1.46,0-2.79.54-3.81,1.43,1.13.91,2.44,1.63,3.89,2.1l61.53,19.95c1.27.41,2.55.61,3.82.61,5.22,0,10.08-3.34,11.78-8.58l5.03-15.51h0Z"/>
    </g>
    <path class="cls-7" d="M14.14,1.21h145.41c6.11,0,11.06,4.96,11.06,11.06v24.28c0,5.72-4.64,10.36-10.36,10.36H12.76c-6.34,0-11.49-5.15-11.49-11.49V14.08C1.27,6.97,7.03,1.21,14.14,1.21Z"/>
    <path class="cls-8" d="M28.01,23.19c.48.43.94.88,1.35,1.39,2.98,3.71,2.27,9.09-.99,12.36-.77.78-1.67,1.43-2.64,1.95-.17.09-.35.18-.53.26-.21.1-.42.19-.64.28-1.64.67-3.58,1.05-5.81,1.05-3.9,0-7.8-1.35-10.84-3.73l-.53-.44s-.04-.03-.06-.05l-1.67-1.44,5.35-6.43,2.81,2.29,3.09,2.51h.02c.54.46,1.22.75,1.97.81.1.01.2.01.29.01.18,0,.35-.01.53-.04,1.83-.27,3.21-1.92,3.04-3.85-.15-1.8-1.69-3.23-3.49-3.27-.81-.02-1.56.24-2.17.68-.9.65-1.48,1.71-1.48,2.9,0,.07,0,.13,0,.2l-5.4-4.4h-.01c-1.75-1.76-2.7-4.05-2.7-6.66,0-3.73,2.12-6.87,5.44-8.65.17-.09.35-.18.53-.27.18-.09.36-.17.55-.25,1.64-.69,3.51-1.07,5.53-1.07,3.43,0,6.81,1.19,9.45,3.3l.15.13c.24.2.48.4.71.62l1.51,1.42-4.71,5.91s-1.74-1.42-1.75-1.42l-2.58-2.1c-.15-.15-.32-.28-.49-.4-.49-.34-1.06-.57-1.67-.66-.19-.03-.39-.04-.59-.04-.1,0-.2,0-.31.01-2.22.17-3.95,2.18-3.64,4.51.23,1.72,1.6,3.13,3.32,3.39,1.49.23,2.85-.38,3.7-1.42.56-.69.9-1.56.9-2.52,0-.17-.01-.34-.03-.51.02.21.95.79,1.14.95.53.46,1.09.89,1.64,1.32s1.15.89,1.69,1.37Z"/>
    <path class="cls-8" d="M47.56,16.74c-3.26,0-5.55,1.5-6.95,2.9h-.18l.44-11.01h-7.57v30.64h7.57v-14.44c1.15-1.06,2.11-1.67,3.52-1.67,1.94,0,2.55,1.06,2.55,3.52v12.59h7.57v-13.56c0-5.46-2.11-8.98-6.95-8.98Z"/>
    <path class="cls-8" d="M75.89,33.32c-1.19.4-2.51.7-4.01.7-2.82,0-4.27-.97-4.27-4.09v-6.65h8.72v-5.9h-8.72v-8.53l-5.92-.08-1.3,8.61-5.63.26v5.64h5.28v6.78c0,5.9,2.64,9.86,9.86,9.86,2.99,0,5.37-.62,7.31-1.14l-1.32-5.46Z"/>
    <path class="cls-8" d="M114.87,16.74c-3.21,0-5.59,1.5-7.35,3.17h-.17l-.53-2.64h-6.16v22.01h7.57v-14.44c1.14-1.06,2.11-1.67,3.52-1.67,1.94,0,2.55,1.06,2.55,3.52v12.59h7.57v-13.56c0-5.46-2.11-8.98-7-8.98Z"/>
    <path class="cls-8" d="M136.44,34.62h-3.74c-2.47,0-3.44-.35-3.44-1.32,0-.62.17-.88.71-1.28,1.06.22,1.98.31,2.77.31,5.24,0,9.29-2.11,9.29-7.31,0-.88-.31-1.76-.62-2.29h3.96v-5.46h-8.89c-1.1-.35-2.42-.53-3.74-.53-5.11,0-9.73,2.55-9.73,8.01,0,2.55,1.32,4.58,2.99,5.64v.17c-1.54,1.06-2.64,2.64-2.64,4.14,0,1.85.97,2.99,2.2,3.78v.18c-2.2,1.06-3.34,2.42-3.34,4.23s.91,3.15,2.42,4.11c.04.03.07.05.12.07,1.06.66,2.41,1.12,3.92,1.39,1.1.2,2.29.3,3.52.3,1.37,0,2.66-.1,3.85-.3,1.75-.28,3.3-.76,4.61-1.39.05-.02.1-.05.15-.07,3.05-1.52,4.79-3.91,4.79-6.67,0-4.05-3.35-5.72-9.16-5.72ZM132.75,21.76c1.45,0,2.68.97,2.68,2.99s-1.23,3.08-2.68,3.08-2.64-.97-2.64-3.08,1.19-2.99,2.64-2.99ZM129.44,40.08c.75.17,1.63.26,3.35.26h2.2c2.2,0,3.43.18,3.43,1.32,0,1.23-2.16,2.03-5.11,2.03s-4.97-.62-4.97-2.03c0-.62.35-1.06,1.1-1.58Z"/>
    <path class="cls-8" d="M162.02,33.12c-1.28.44-2.25.62-3.17.62-1.54,0-3.3-.71-3.3-3.26V8.64h-14.17v5.9h6.6v15.67c0,5.72,2.99,9.6,8.85,9.6,2.86,0,4.45-.44,6.82-1.14l-1.63-5.55Z"/>
    <path class="cls-8" d="M88.94,16.74c-3.7,0-7.13,1.06-10.48,2.9l2.64,4.93c2.64-1.23,4.49-1.85,6.34-1.85,2.47,0,3.96.7,4.23,2.29-10.04.53-13.91,3.08-13.91,8.01,0,3.61,2.55,6.78,7.13,6.78,2.73,0,5.32-1.23,7.48-2.82h.18l.53,2.29h6.16v-12.24c0-7.22-4.05-10.3-10.3-10.3ZM91.67,32.33c-1.19.88-2.55,1.67-4.32,1.67-1.58,0-2.38-.57-2.38-1.58,0-1.5,1.32-2.73,6.69-2.9v2.82Z"/>
    <g>
      <path class="cls-1" d="M216.91,36.88c-1.7.67-3.42,1.1-5.62,1.1-4.72,0-5.9-2.46-5.9-6.58v-11.67h11.25v-1.7h-11.25v-7h-1.66l-.26,7-6.43.19v1.51h6.39v11.53c0,5.03,1.77,8.43,7.57,8.43,2.59,0,4.5-.54,6.43-1.31l-.53-1.5Z"/>
      <path class="cls-1" d="M222.73,37.45l16.54-18.39v-1.04h-17.71v1.7h14.75l-16.54,18.4v1.04h19.99v-1.71h-17.03Z"/>
      <path class="cls-1" d="M253.57,17.49c-4.61,0-7.45,1.93-9.13,3.15l.91,1.44c1.72-1.23,4.81-2.87,7.99-2.87,4.84,0,6.25,3.24,6.29,6.72-11.47,1.01-16.21,3.24-16.21,7.98,0,3.96,3.59,5.79,7.37,5.79,3.12,0,6.39-1.75,8.82-3.69h.1l.21,3.16h1.66v-13.5c0-4.53-2.35-8.16-8.01-8.16ZM259.62,34.18c-2.98,2.5-5.81,3.81-8.52,3.81-2.85,0-5.69-1.16-5.69-4.19,0-3.39,3.44-5.42,14.21-6.38v6.76Z"/>
    </g>
    <polygon class="cls-9" points="190.51 17.8 182.37 39.09 179.9 39.09 188.1 17.8 190.51 17.8"/>
  </g>
</svg>