<?xml version="1.0" encoding="utf-8"?>
<!-- Generator: Adobe Illustrator 28.1.0, SVG Export Plug-In . SVG Version: 6.00 Build 0)  -->
<svg version="1.1" xmlns="http://www.w3.org/2000/svg" xmlns:xlink="http://www.w3.org/1999/xlink" x="0px" y="0px"
	 viewBox="0 0 262.6 48.8" style="enable-background:new 0 0 262.6 48.8;" xml:space="preserve">
<style type="text/css">
	.st0{fill:#C28DFF;}
	.st1{clip-path:url(#SVGID_00000162336066595708922160000011707332157448266893_);}
	
		.st2{opacity:0.5;fill:url(#SVGID_00000066503183439479080020000009918918027828528768_);stroke:url(#SVGID_00000124163634953201330900000015248709944547733428_);stroke-width:0.5;stroke-miterlimit:10;enable-background:new    ;}
	
		.st3{opacity:0.5;fill:url(#SVGID_00000075151754162960239610000017680250578618528185_);stroke:url(#SVGID_00000122682894071108331850000013017595410071425921_);stroke-width:0.5;stroke-miterlimit:10;enable-background:new    ;}
	.st4{opacity:0.5;}
	.st5{fill:url(#SVGID_00000178900302449313599280000002031498262103990146_);}
	.st6{fill:url(#SVGID_00000182520951357186001600000018339052179871765692_);}
	.st7{opacity:0.77;fill:url(#SVGID_00000024704087655350883510000010714104326798279845_);enable-background:new    ;}
	.st8{display:none;opacity:0.77;fill:url(#SVGID_00000032616030515406230650000017015841258819143068_);enable-background:new    ;}
	.st9{opacity:0.77;fill:url(#SVGID_00000155108592791079892830000014412077410755850399_);enable-background:new    ;}
	.st10{opacity:0.77;fill:url(#SVGID_00000111905814536207836330000004636132734698580362_);enable-background:new    ;}
	.st11{opacity:0.77;fill:url(#SVGID_00000132775672131962380860000011257663893388455828_);enable-background:new    ;}
	.st12{opacity:0.77;fill:url(#SVGID_00000160166297708770432330000004810005212318736527_);enable-background:new    ;}
	.st13{opacity:0.77;fill:url(#SVGID_00000042737985509395354540000010169514976321414553_);enable-background:new    ;}
	.st14{opacity:0.77;fill:url(#SVGID_00000112615829934442082280000014795663479882498700_);enable-background:new    ;}
	.st15{fill:none;}
	.st16{opacity:0.77;fill:url(#SVGID_00000105397575043721927470000005819422039617708193_);enable-background:new    ;}
	.st17{opacity:0.77;fill:url(#SVGID_00000067950798868038658230000003336610341955660692_);enable-background:new    ;}
	.st18{opacity:0.77;fill:url(#SVGID_00000007411630956816055060000007947721804985596327_);enable-background:new    ;}
	.st19{fill:#FFFFFF;}
	.st20{fill:#AE7BFF;enable-background:new    ;}
</style>
<g id="Layer_3">
</g>
<g id="Layer_2_00000072981388056086621200000006643143166110143115_">
	<g id="Layer_1-2">
		<g>
			<path class="st0" d="M166.8,0H7.7C3.5,0,0,3.5,0,7.7v33.8c0,3.8,3.1,6.9,6.9,6.9h121.9c0,0-0.1,0-0.2,0c-1.5-0.3-2.9-0.7-3.9-1.4
				c0,0-0.1,0-0.1-0.1c-1.5-1-2.4-2.3-2.4-4.1s1.1-3.2,3.3-4.2v-0.2c-1.2-0.8-2.2-1.9-2.2-3.8c0-1.5,1.1-3.1,2.6-4.1v-0.2
				c-1.3-0.8-2.3-2.2-2.8-3.9c-0.1-0.6-0.2-1.1-0.2-1.7c0-5.5,4.6-8,9.7-8c1.3,0,2.6,0.2,3.7,0.5h8.9v5.5h-4
				c0.3,0.5,0.6,1.4,0.6,2.3c0,3.2-1.5,5.2-3.9,6.3c-1.5,0.7-3.4,1-5.4,1c-0.8,0-1.7-0.1-2.8-0.3c-0.5,0.4-0.7,0.7-0.7,1.3
				c0,1,1,1.3,3.4,1.3h3.7v0c5.8,0,9.2,1.7,9.2,5.7c0,2.8-1.7,5.2-4.8,6.7c0,0-0.1,0.1-0.2,0.1c-1.3,0.6-2.9,1.1-4.6,1.4
				c-0.1,0-0.1,0-0.2,0h32c2.6,0,4.7-2.1,4.7-4.7V5.8C172.6,2.6,170,0,166.8,0z M15.6,20.6c0.2,1.7,1.6,3.1,3.3,3.4
				c1.5,0.2,2.8-0.4,3.7-1.4c0.6-0.7,0.9-1.6,0.9-2.5c0-0.2,0-0.3,0-0.5c0,0.2,0.9,0.8,1.1,0.9c0.5,0.5,1.1,0.9,1.6,1.3
				s1.2,0.9,1.7,1.4h0c0.5,0.4,0.9,0.9,1.3,1.4c3,3.7,2.3,9.1-1,12.4c-0.8,0.8-1.7,1.4-2.6,2c-0.2,0.1-0.3,0.2-0.5,0.3
				c-0.2,0.1-0.4,0.2-0.6,0.3c-1.6,0.7-3.6,1.1-5.8,1.1c-3.9,0-7.8-1.4-10.8-3.7l-0.5-0.4c0,0,0,0-0.1,0l-1.7-1.4l5.3-6.4l2.8,2.3
				l3.1,2.5h0c0.5,0.5,1.2,0.8,2,0.8c0.1,0,0.2,0,0.3,0c0.2,0,0.4,0,0.5,0c1.8-0.3,3.2-1.9,3-3.9c-0.2-1.8-1.7-3.2-3.5-3.3
				c-0.8,0-1.6,0.2-2.2,0.7c-0.9,0.6-1.5,1.7-1.5,2.9v0.2l-5.4-4.4h0c-1.8-1.8-2.7-4.1-2.7-6.7c0-3.7,2.1-6.9,5.4-8.6
				c0.2-0.1,0.3-0.2,0.5-0.3c0.2-0.1,0.4-0.2,0.6-0.2c1.6-0.7,3.5-1.1,5.5-1.1c0.7,0,1.3,0,2,0.1c1.8,0.2,3.6,0.8,5.2,1.7
				c0.8,0.4,1.6,0.9,2.3,1.5l0.2,0.1c0.2,0.2,0.5,0.4,0.7,0.6l1.5,1.4l-4.7,5.9c0,0-1.7-1.4-1.8-1.4l-2.6-2.1
				c-0.2-0.1-0.3-0.3-0.5-0.4c-0.5-0.3-1.1-0.6-1.7-0.7c-0.2,0-0.4,0-0.6,0c-0.1,0-0.2,0-0.3,0C17,16.3,15.3,18.3,15.6,20.6z
				 M54.5,39.3h-7.6V26.7c0-2.5-0.6-3.5-2.5-3.5c-1.4,0-2.4,0.6-3.5,1.7v14.4h-7.6V8.6h7.6l-0.3,7l-0.2,4h0.2c1-1,2.5-2,4.4-2.6
				c0.8-0.2,1.6-0.3,2.5-0.3v0c2.7,0,4.5,1.1,5.7,3c0.9,1.5,1.3,3.6,1.3,6V39.3z M69.9,39.9c-6.7,0-9.4-3.4-9.8-8.6h0
				c0-0.4,0-0.8,0-1.3v-6.8h-5.3v-5.6l5.6-0.3l1.3-8.6l5.9,0.1v8.5h8.7v5.9h-8.7v6.6c0,3.1,1.5,4.1,4.3,4.1c1.5,0,2.8-0.3,4-0.7
				l0.8,3.4l0.5,2C75.3,39.3,72.9,39.9,69.9,39.9z M99.2,39.3h-6.2L92.5,37h-0.2c-1.9,1.4-4.1,2.5-6.4,2.8c0,0,0,0,0,0
				c-0.4,0-0.7,0.1-1.1,0.1c-2.4,0-4.2-0.8-5.4-2.2h0c-1.1-1.2-1.7-2.9-1.7-4.6c0-4.9,3.9-7.5,13.9-8c-0.3-1.6-1.8-2.3-4.2-2.3
				c-1.8,0-3.7,0.6-6.3,1.8L80.3,23l-1.8-3.4c2-1.1,4-1.9,6.1-2.4c1.4-0.3,2.9-0.5,4.4-0.5v0c6.2,0,10.3,3.1,10.3,10.3V39.3z
				 M121.9,39.3h-7.6V26.7c0-2.5-0.6-3.5-2.5-3.5c-1.4,0-2.4,0.6-3.5,1.7v14.4h-7.6v-22h6.2l0.5,2.6h0.2c1.8-1.7,4.1-3.2,7.3-3.2
				c4.9,0,7,3.5,7,9V39.3z M162.2,39.1L162.2,39.1c-1.7,0.5-3.1,0.7-5.3,0.7c-4.1,0-6.8-1.9-8.1-5c-0.5-1.3-0.8-2.8-0.8-4.5V14.5
				h-6.6V8.6h14.2v21.8c0,2.5,1.8,3.3,3.3,3.3c0.9,0,1.9-0.2,3.2-0.6l1.6,5.6C163.1,38.8,162.6,39,162.2,39.1z"/>
			<path class="st0" d="M85,32.4c0,1,0.8,1.6,2.4,1.6c1.8,0,3.1-0.8,4.3-1.7v-2.8C86.3,29.7,85,30.9,85,32.4z"/>
			<path class="st0" d="M138.4,41.7c0-1.1-1.2-1.3-3.4-1.3h-2.2c-1.7,0-2.6-0.1-3.3-0.3c-0.8,0.5-1.1,1-1.1,1.6c0,1.4,2,2,5,2
				S138.4,42.9,138.4,41.7z"/>
			<path class="st0" d="M135.4,24.7c0-2-1.2-3-2.7-3s-2.6,0.9-2.6,3c0,2.1,1.2,3.1,2.6,3.1S135.4,26.8,135.4,24.7z"/>
		</g>
		<g>
			<defs>
				<path id="SVGID_1_" d="M166.8,0H7.7C3.5,0,0,3.5,0,7.7v33.8c0,3.8,3.1,6.9,6.9,6.9h121.9c0,0-0.1,0-0.2,0
					c-1.5-0.3-2.9-0.7-3.9-1.4c0,0-0.1,0-0.1-0.1c-1.5-1-2.4-2.3-2.4-4.1s1.1-3.2,3.3-4.2v-0.2c-1.2-0.8-2.2-1.9-2.2-3.8
					c0-1.5,1.1-3.1,2.6-4.1v-0.2c-1.3-0.8-2.3-2.2-2.8-3.9c-0.1-0.6-0.2-1.1-0.2-1.7c0-5.5,4.6-8,9.7-8c1.3,0,2.6,0.2,3.7,0.5h8.9
					v5.5h-4c0.3,0.5,0.6,1.4,0.6,2.3c0,3.2-1.5,5.2-3.9,6.3c-1.5,0.7-3.4,1-5.4,1c-0.8,0-1.7-0.1-2.8-0.3c-0.5,0.4-0.7,0.7-0.7,1.3
					c0,1,1,1.3,3.4,1.3h3.7v0c5.8,0,9.2,1.7,9.2,5.7c0,2.8-1.7,5.2-4.8,6.7c0,0-0.1,0.1-0.2,0.1c-1.3,0.6-2.9,1.1-4.6,1.4
					c-0.1,0-0.1,0-0.2,0h32c2.6,0,4.7-2.1,4.7-4.7V5.8C172.6,2.6,170,0,166.8,0z M15.6,20.6c0.2,1.7,1.6,3.1,3.3,3.4
					c1.5,0.2,2.8-0.4,3.7-1.4c0.6-0.7,0.9-1.6,0.9-2.5c0-0.2,0-0.3,0-0.5c0,0.2,0.9,0.8,1.1,0.9c0.5,0.5,1.1,0.9,1.6,1.3
					s1.2,0.9,1.7,1.4h0c0.5,0.4,0.9,0.9,1.3,1.4c3,3.7,2.3,9.1-1,12.4c-0.8,0.8-1.7,1.4-2.6,2c-0.2,0.1-0.3,0.2-0.5,0.3
					c-0.2,0.1-0.4,0.2-0.6,0.3c-1.6,0.7-3.6,1.1-5.8,1.1c-3.9,0-7.8-1.4-10.8-3.7l-0.5-0.4c0,0,0,0-0.1,0l-1.7-1.4l5.3-6.4l2.8,2.3
					l3.1,2.5h0c0.5,0.5,1.2,0.8,2,0.8c0.1,0,0.2,0,0.3,0c0.2,0,0.4,0,0.5,0c1.8-0.3,3.2-1.9,3-3.9c-0.2-1.8-1.7-3.2-3.5-3.3
					c-0.8,0-1.6,0.2-2.2,0.7c-0.9,0.6-1.5,1.7-1.5,2.9v0.2l-5.4-4.4h0c-1.8-1.8-2.7-4.1-2.7-6.7c0-3.7,2.1-6.9,5.4-8.6
					c0.2-0.1,0.3-0.2,0.5-0.3c0.2-0.1,0.4-0.2,0.6-0.2c1.6-0.7,3.5-1.1,5.5-1.1c0.7,0,1.3,0,2,0.1c1.8,0.2,3.6,0.8,5.2,1.7
					c0.8,0.4,1.6,0.9,2.3,1.5l0.2,0.1c0.2,0.2,0.5,0.4,0.7,0.6l1.5,1.4l-4.7,5.9c0,0-1.7-1.4-1.8-1.4l-2.6-2.1
					c-0.2-0.1-0.3-0.3-0.5-0.4c-0.5-0.3-1.1-0.6-1.7-0.7c-0.2,0-0.4,0-0.6,0c-0.1,0-0.2,0-0.3,0C17,16.3,15.3,18.3,15.6,20.6z
					 M54.5,39.3h-7.6V26.7c0-2.5-0.6-3.5-2.5-3.5c-1.4,0-2.4,0.6-3.5,1.7v14.4h-7.6V8.6h7.6l-0.3,7l-0.2,4h0.2c1-1,2.5-2,4.4-2.6
					c0.8-0.2,1.6-0.3,2.5-0.3v0c2.7,0,4.5,1.1,5.7,3c0.9,1.5,1.3,3.6,1.3,6V39.3z M69.9,39.9c-6.7,0-9.4-3.4-9.8-8.6h0
					c0-0.4,0-0.8,0-1.3v-6.8h-5.3v-5.6l5.6-0.3l1.3-8.6l5.9,0.1v8.5h8.7v5.9h-8.7v6.6c0,3.1,1.5,4.1,4.3,4.1c1.5,0,2.8-0.3,4-0.7
					l0.8,3.4l0.5,2C75.3,39.3,72.9,39.9,69.9,39.9z M99.2,39.3h-6.2L92.5,37h-0.2c-1.9,1.4-4.1,2.5-6.4,2.8c0,0,0,0,0,0
					c-0.4,0-0.7,0.1-1.1,0.1c-2.4,0-4.2-0.8-5.4-2.2h0c-1.1-1.2-1.7-2.9-1.7-4.6c0-4.9,3.9-7.5,13.9-8c-0.3-1.6-1.8-2.3-4.2-2.3
					c-1.8,0-3.7,0.6-6.3,1.8L80.3,23l-1.8-3.4c2-1.1,4-1.9,6.1-2.4c1.4-0.3,2.9-0.5,4.4-0.5v0c6.2,0,10.3,3.1,10.3,10.3V39.3z
					 M121.9,39.3h-7.6V26.7c0-2.5-0.6-3.5-2.5-3.5c-1.4,0-2.4,0.6-3.5,1.7v14.4h-7.6v-22h6.2l0.5,2.6h0.2c1.8-1.7,4.1-3.2,7.3-3.2
					c4.9,0,7,3.5,7,9V39.3z M162.2,39.1L162.2,39.1c-1.7,0.5-3.1,0.7-5.3,0.7c-4.1,0-6.8-1.9-8.1-5c-0.5-1.3-0.8-2.8-0.8-4.5V14.5
					h-6.6V8.6h14.2v21.8c0,2.5,1.8,3.3,3.3,3.3c0.9,0,1.9-0.2,3.2-0.6l1.6,5.6C163.1,38.8,162.6,39,162.2,39.1z M91.7,29.5v2.8
					c-1.2,0.9-2.5,1.7-4.3,1.7c-1.6,0-2.4-0.6-2.4-1.6C85,30.9,86.3,29.7,91.7,29.5z M133.3,43.7c-3,0-5-0.6-5-2
					c0-0.6,0.3-1.1,1.1-1.6c0.8,0.2,1.6,0.3,3.3,0.3h2.2c2.2,0,3.4,0.2,3.4,1.3C138.4,42.9,136.3,43.7,133.3,43.7z M132.8,27.8
					c-1.5,0-2.6-1-2.6-3.1c0-2.1,1.2-3,2.6-3s2.7,1,2.7,3C135.4,26.8,134.2,27.8,132.8,27.8z"/>
			</defs>
			<clipPath id="SVGID_00000041255256398958126010000001101498144254473897_">
				<use xlink:href="#SVGID_1_"  style="overflow:visible;"/>
			</clipPath>
			<g style="clip-path:url(#SVGID_00000041255256398958126010000001101498144254473897_);">
				
					<linearGradient id="SVGID_00000032641061235285659260000014663251234248357530_" gradientUnits="userSpaceOnUse" x1="36.68" y1="12.844" x2="108.58" y2="12.844" gradientTransform="matrix(1 0 0 -1 0 50)">
					<stop  offset="0" style="stop-color:#C094FF"/>
					<stop  offset="1" style="stop-color:#DEBFFF"/>
				</linearGradient>
				
					<linearGradient id="SVGID_00000095316540369498542680000017560953529732952722_" gradientUnits="userSpaceOnUse" x1="36.3361" y1="12.844" x2="110.1614" y2="12.844" gradientTransform="matrix(1 0 0 -1 0 50)">
					<stop  offset="0" style="stop-color:#DEBFFF;stop-opacity:0.2"/>
					<stop  offset="1" style="stop-color:#E7D6FF"/>
				</linearGradient>
				
					<path style="opacity:0.5;fill:url(#SVGID_00000032641061235285659260000014663251234248357530_);stroke:url(#SVGID_00000095316540369498542680000017560953529732952722_);stroke-width:0.5;stroke-miterlimit:10;enable-background:new    ;" d="
					M108.6,47.1H36.7L42,30.6c0.8-2.6,3.6-4,6.2-3.1L108.6,47.1z"/>
				
					<linearGradient id="SVGID_00000063621342348660604470000016760310685259377058_" gradientUnits="userSpaceOnUse" x1="97.5885" y1="32.2818" x2="160.397" y2="12.1967">
					<stop  offset="0" style="stop-color:#DEBFFF"/>
					<stop  offset="1" style="stop-color:#C094FF"/>
				</linearGradient>
				
					<linearGradient id="SVGID_00000129196527566167312060000016103930557164390806_" gradientUnits="userSpaceOnUse" x1="115.4215" y1="13.2113" x2="163.8339" y2="53.8333" gradientTransform="matrix(1 0 0 -1 0 50)">
					<stop  offset="0" style="stop-color:#E7D6FF"/>
					<stop  offset="1" style="stop-color:#DEBFFF;stop-opacity:0.2"/>
				</linearGradient>
				
					<path style="opacity:0.5;fill:url(#SVGID_00000063621342348660604470000016760310685259377058_);stroke:url(#SVGID_00000129196527566167312060000016103930557164390806_);stroke-width:0.5;stroke-miterlimit:10;enable-background:new    ;" d="
					M171,7.2v24l-1.6,5.1c-0.8,2.6-3.6,4-6.2,3.1l-60.8-19.7c-2.6-0.8-4-3.6-3.2-6.2l3.9-12.2h62C168.4,1.4,171,4,171,7.2L171,7.2z"
					/>
				<g class="st4">
					
						<linearGradient id="SVGID_00000062914884813757691320000012383869292108512699_" gradientUnits="userSpaceOnUse" x1="27.0534" y1="-12.1038" x2="88.33" y2="32.3217">
						<stop  offset="0" style="stop-color:#C094FF"/>
						<stop  offset="1" style="stop-color:#DEBFFF"/>
					</linearGradient>
					<path style="fill:url(#SVGID_00000062914884813757691320000012383869292108512699_);" d="M89.7,1.4l-5,15.5
						c-2.1,6.5-9.1,10.1-15.6,8L7.5,4.9C6.1,4.5,4.8,3.7,3.6,2.8c1-0.9,2.3-1.4,3.8-1.4C7.4,1.4,89.7,1.4,89.7,1.4z"/>
					
						<linearGradient id="SVGID_00000038399677869896287770000007214894014057596036_" gradientUnits="userSpaceOnUse" x1="3.64" y1="36.565" x2="89.69" y2="36.565" gradientTransform="matrix(1 0 0 -1 0 50)">
						<stop  offset="0" style="stop-color:#DEBFFF;stop-opacity:0.2"/>
						<stop  offset="1" style="stop-color:#E7D6FF"/>
					</linearGradient>
					<path style="fill:url(#SVGID_00000038399677869896287770000007214894014057596036_);" d="M89,1.9l-4.8,14.9
						c-1.6,4.9-6.1,8.2-11.3,8.2c-1.2,0-2.5-0.2-3.7-0.6L7.7,4.4C6.5,4.1,5.4,3.5,4.5,2.8c0.9-0.6,1.9-0.9,3-0.9L89,1.9 M89.7,1.4
						H7.4C6,1.4,4.7,1.9,3.6,2.8c1.1,0.9,2.4,1.6,3.9,2.1l61.5,20c1.3,0.4,2.6,0.6,3.8,0.6c5.2,0,10.1-3.3,11.8-8.6L89.7,1.4
						C89.7,1.4,89.7,1.4,89.7,1.4z"/>
				</g>
			</g>
		</g>
		
			<radialGradient id="SVGID_00000160912113883468618020000006986344368252943278_" cx="87.0638" cy="27.8936" r="24.2402" gradientUnits="userSpaceOnUse">
			<stop  offset="0" style="stop-color:#CFA1FF"/>
			<stop  offset="0.97" style="stop-color:#A46CE6"/>
		</radialGradient>
		<path style="opacity:0.77;fill:url(#SVGID_00000160912113883468618020000006986344368252943278_);enable-background:new    ;" d="
			M39.2,39.3l-2.5,7.8H7.5c-3.2,0-5.8-2.6-5.8-5.8V7.2c0-1.8,0.8-3.3,2-4.4c1.1,0.9,2.4,1.6,3.9,2.1l14,4.5c-0.7-0.1-1.3-0.1-2-0.1
			c-2,0-3.9,0.4-5.5,1.1c-0.2,0.1-0.4,0.2-0.6,0.2c-0.2,0.1-0.4,0.2-0.5,0.3c-3.3,1.8-5.4,4.9-5.4,8.6c0,2.6,1,4.9,2.7,6.7h0
			l5.4,4.4v-0.2c0-1.2,0.6-2.2,1.5-2.9c0.6-0.4,1.4-0.7,2.2-0.7c1.8,0,3.3,1.5,3.5,3.3c0.2,1.9-1.2,3.6-3,3.9c-0.2,0-0.4,0-0.5,0
			c-0.1,0-0.2,0-0.3,0c-0.8-0.1-1.4-0.3-2-0.8h0l-3.1-2.5L11,28.4l-5.3,6.4l1.7,1.4c0,0,0.1,0,0.1,0l0.5,0.4c3,2.4,6.9,3.7,10.8,3.7
			c2.2,0,4.2-0.4,5.8-1.1c0.2-0.1,0.4-0.2,0.6-0.3c0.2-0.1,0.4-0.2,0.5-0.3c1-0.5,1.9-1.2,2.6-2c3.3-3.3,4-8.6,1-12.4
			c-0.4-0.5-0.9-1-1.3-1.4h0c-0.5-0.5-1.1-0.9-1.7-1.4s-1.1-0.9-1.6-1.3c-0.2-0.2-1.1-0.7-1.1-0.9c0,0.2,0,0.3,0,0.5
			c0,1-0.3,1.8-0.9,2.5c-0.9,1-2.2,1.7-3.7,1.4c-1.7-0.3-3.1-1.7-3.3-3.4c-0.3-2.3,1.4-4.3,3.6-4.5c0.1,0,0.2,0,0.3,0
			c0.2,0,0.4,0,0.6,0c0.6,0.1,1.2,0.3,1.7,0.7c0.2,0.1,0.3,0.2,0.5,0.4l2.6,2.1c0,0,1.8,1.4,1.8,1.4l4.7-5.9l-1.5-1.4
			c-0.2-0.2-0.5-0.4-0.7-0.6L29,12.6c-0.7-0.6-1.5-1.1-2.3-1.5l6.6,2.1v26H39.2z"/>
		
			<radialGradient id="SVGID_00000097484630816707830800000008307231018448911289_" cx="17.6672" cy="40.3225" r="11.9328" gradientUnits="userSpaceOnUse">
			<stop  offset="0" style="stop-color:#CFA1FF"/>
			<stop  offset="0.97" style="stop-color:#A46CE6"/>
		</radialGradient>
		
			<path style="display:none;opacity:0.77;fill:url(#SVGID_00000097484630816707830800000008307231018448911289_);enable-background:new    ;" d="
			M15.6,20.6c0.2,1.7,1.6,3.1,3.3,3.4c1.5,0.2,2.8-0.4,3.7-1.4c0.6-0.7,0.9-1.6,0.9-2.5c0-0.2,0-0.3,0-0.5c0,0.2,0.9,0.8,1.1,0.9
			c0.5,0.5,1.1,0.9,1.6,1.3s1.2,0.9,1.7,1.4h0c0.5,0.4,0.9,0.9,1.3,1.4c3,3.7,2.3,9.1-1,12.4c-0.8,0.8-1.7,1.4-2.6,2
			c-0.2,0.1-0.3,0.2-0.5,0.3c-0.2,0.1-0.4,0.2-0.6,0.3c-1.6,0.7-3.6,1.1-5.8,1.1c-3.9,0-7.8-1.4-10.8-3.7l-0.5-0.4c0,0,0,0-0.1,0
			l-1.7-1.4l5.3-6.4l2.8,2.3l3.1,2.5h0c0.5,0.5,1.2,0.8,2,0.8c0.1,0,0.2,0,0.3,0c0.2,0,0.4,0,0.5,0c1.8-0.3,3.2-1.9,3-3.9
			c-0.2-1.8-1.7-3.2-3.5-3.3c-0.8,0-1.6,0.2-2.2,0.7c-0.9,0.6-1.5,1.7-1.5,2.9v0.2l-5.4-4.4h0c-1.8-1.8-2.7-4.1-2.7-6.7
			c0-3.7,2.1-6.9,5.4-8.6c0.2-0.1,0.3-0.2,0.5-0.3c0.2-0.1,0.4-0.2,0.6-0.2c1.6-0.7,3.5-1.1,5.5-1.1c0.7,0,1.3,0,2,0.1l5.2,1.7
			c0.8,0.4,1.6,0.9,2.3,1.5l0.2,0.1c0.2,0.2,0.5,0.4,0.7,0.6l1.5,1.4l-4.7,5.9c0,0-1.7-1.4-1.8-1.4l-2.6-2.1
			c-0.2-0.1-0.3-0.3-0.5-0.4c-0.5-0.3-1.1-0.6-1.7-0.7c-0.2,0-0.4,0-0.6,0c-0.1,0-0.2,0-0.3,0C17,16.3,15.3,18.3,15.6,20.6z"/>
		
			<radialGradient id="SVGID_00000065049487786255949610000005162409324199431089_" cx="87.0638" cy="27.8936" r="24.2402" gradientUnits="userSpaceOnUse">
			<stop  offset="0" style="stop-color:#CFA1FF"/>
			<stop  offset="0.97" style="stop-color:#A46CE6"/>
		</radialGradient>
		<path style="opacity:0.77;fill:url(#SVGID_00000065049487786255949610000005162409324199431089_);enable-background:new    ;" d="
			M46.9,26.7v0.6c-2.2-0.1-4.2,1.2-4.9,3.4l-1.1,3.5v-9.3c1.2-1.1,2.1-1.7,3.5-1.7C46.3,23.2,46.9,24.2,46.9,26.7z"/>
		
			<radialGradient id="SVGID_00000087409062750322884660000015085619538723822252_" cx="87.0638" cy="27.8936" r="24.2402" gradientUnits="userSpaceOnUse">
			<stop  offset="0" style="stop-color:#CFA1FF"/>
			<stop  offset="0.97" style="stop-color:#A46CE6"/>
		</radialGradient>
		<path style="opacity:0.77;fill:url(#SVGID_00000087409062750322884660000015085619538723822252_);enable-background:new    ;" d="
			M45,17.1c-1.9,0.5-3.4,1.6-4.4,2.6h-0.2l0.2-4L45,17.1z"/>
		
			<radialGradient id="SVGID_00000118376166250768828820000016020877643703441814_" cx="87.0638" cy="27.8936" r="24.2402" gradientUnits="userSpaceOnUse">
			<stop  offset="0" style="stop-color:#CFA1FF"/>
			<stop  offset="0.97" style="stop-color:#A46CE6"/>
		</radialGradient>
		<path style="opacity:0.77;fill:url(#SVGID_00000118376166250768828820000016020877643703441814_);enable-background:new    ;" d="
			M54.5,29.5v-3.8c0-2.4-0.4-4.5-1.3-6l1.5,0.5v3H60v6.8c0,0.4,0,0.9,0,1.3L54.5,29.5z"/>
		
			<radialGradient id="SVGID_00000172428654299663830140000009587503332074360219_" cx="87.0638" cy="27.8936" r="24.2402" gradientUnits="userSpaceOnUse">
			<stop  offset="0" style="stop-color:#CFA1FF"/>
			<stop  offset="0.97" style="stop-color:#A46CE6"/>
		</radialGradient>
		<path style="opacity:0.77;fill:url(#SVGID_00000172428654299663830140000009587503332074360219_);enable-background:new    ;" d="
			M77.8,33c0,1.7,0.6,3.4,1.7,4.6l-2.8-0.9l-0.8-3.4c-1.2,0.4-2.5,0.7-4,0.7c-2.8,0-4.3-1-4.3-4.1v-5.5l1.5,0.5
			c4,1.3,8.1,0.5,11.2-1.8l0.8,1.5c2.6-1.2,4.5-1.8,6.3-1.8c2.5,0,4,0.7,4.2,2.3C81.6,25.5,77.8,28.1,77.8,33z"/>
		
			<radialGradient id="SVGID_00000181795446381049142040000017943602402064216994_" cx="87.0638" cy="27.8936" r="24.2402" gradientUnits="userSpaceOnUse">
			<stop  offset="0" style="stop-color:#CFA1FF"/>
			<stop  offset="0.97" style="stop-color:#A46CE6"/>
		</radialGradient>
		<path style="opacity:0.77;fill:url(#SVGID_00000181795446381049142040000017943602402064216994_);enable-background:new    ;" d="
			M171,31.2v10c0,3.2-2.6,5.8-5.8,5.8h-24.5c0.1,0,0.1,0,0.2-0.1c3-1.5,4.8-3.9,4.8-6.7c0-4-3.3-5.7-9.2-5.7v0h-3.7
			c-2.5,0-3.4-0.3-3.4-1.3c0-0.6,0.2-0.9,0.7-1.3c1.1,0.2,2,0.3,2.8,0.3c2,0,3.9-0.3,5.4-1l10.6,3.5c1.2,3.1,3.9,5,8.1,5
			c2.2,0,3.7-0.3,5.3-0.7h0l1,0.3c2.6,0.8,5.3-0.6,6.2-3.1L171,31.2z"/>
		
			<radialGradient id="SVGID_00000165231516563352950920000016636919221255973517_" cx="87.0638" cy="27.8936" r="24.2402" gradientUnits="userSpaceOnUse">
			<stop  offset="0" style="stop-color:#CFA1FF"/>
			<stop  offset="0.97" style="stop-color:#A46CE6"/>
		</radialGradient>
		<path style="opacity:0.77;fill:url(#SVGID_00000165231516563352950920000016636919221255973517_);enable-background:new    ;" d="
			M123.4,34.7c0,1.9,1,3,2.2,3.8v0.2c-2.2,1.1-3.3,2.4-3.3,4.2s0.9,3.2,2.4,4.1c0,0,0.1,0.1,0.1,0.1h-16.2L86,39.7
			c2.3-0.3,4.5-1.4,6.4-2.8h0.2l0.5,2.3h6.2V27c0-7.2-4-10.3-10.3-10.3v0c-1.5,0-3,0.2-4.4,0.5c0-0.1,0.1-0.2,0.1-0.3l5-15.5h13.5
			l-4,12.2c-0.6,1.9,0,3.9,1.4,5.2v20.6h7.6V24.8c1.1-1.1,2.1-1.7,3.5-1.7c1.9,0,2.5,1.1,2.5,3.5v12.6h7.6V26l1.3,0.4
			c0.4,1.7,1.5,3.1,2.8,3.9v0.2C124.5,31.6,123.4,33.2,123.4,34.7z"/>
		<path class="st15" d="M14.1,1.2h145.4c6.1,0,11.1,5,11.1,11.1v24.3c0,5.7-4.6,10.4-10.4,10.4H12.8c-6.3,0-11.5-5.2-11.5-11.5V14.1
			C1.3,7,7,1.2,14.1,1.2z"/>
		
			<radialGradient id="SVGID_00000067953208346362130920000012004557616226665352_" cx="87.0638" cy="27.8936" r="24.2402" gradientUnits="userSpaceOnUse">
			<stop  offset="0" style="stop-color:#CFA1FF"/>
			<stop  offset="0.97" style="stop-color:#A46CE6"/>
		</radialGradient>
		<path style="opacity:0.77;fill:url(#SVGID_00000067953208346362130920000012004557616226665352_);enable-background:new    ;" d="
			M138.4,41.7c0,1.2-2.2,2-5.1,2s-5-0.6-5-2c0-0.6,0.3-1.1,1.1-1.6c0.8,0.2,1.6,0.3,3.3,0.3h2.2C137.2,40.3,138.4,40.5,138.4,41.7z"
			/>
		
			<radialGradient id="SVGID_00000057140663828842199450000012574654938457856398_" cx="87.0638" cy="27.8936" r="24.2402" gradientUnits="userSpaceOnUse">
			<stop  offset="0" style="stop-color:#CFA1FF"/>
			<stop  offset="0.97" style="stop-color:#A46CE6"/>
		</radialGradient>
		<path style="opacity:0.77;fill:url(#SVGID_00000057140663828842199450000012574654938457856398_);enable-background:new    ;" d="
			M135.4,24.7c0,2-1.2,3.1-2.7,3.1s-2.6-1-2.6-3.1c0-2.1,1.2-3,2.6-3S135.4,22.7,135.4,24.7z"/>
		
			<radialGradient id="SVGID_00000058549368109074419630000011022811223304890543_" cx="87.0638" cy="27.8936" r="24.2402" gradientUnits="userSpaceOnUse">
			<stop  offset="0" style="stop-color:#CFA1FF"/>
			<stop  offset="0.97" style="stop-color:#A46CE6"/>
		</radialGradient>
		<path style="opacity:0.77;fill:url(#SVGID_00000058549368109074419630000011022811223304890543_);enable-background:new    ;" d="
			M91.7,29.5v2.8c-1.2,0.9-2.5,1.7-4.3,1.7c-1.6,0-2.4-0.6-2.4-1.6C85,30.9,86.3,29.7,91.7,29.5z"/>
		<g>
			<path class="st19" d="M216.9,36.9c-1.7,0.7-3.4,1.1-5.6,1.1c-4.7,0-5.9-2.5-5.9-6.6V19.7h11.2V18h-11.2v-7h-1.7l-0.3,7l-6.4,0.2
				v1.5h6.4v11.5c0,5,1.8,8.4,7.6,8.4c2.6,0,4.5-0.5,6.4-1.3L216.9,36.9L216.9,36.9z"/>
			<path class="st19" d="M222.7,37.5l16.5-18.4v-1h-17.7v1.7h14.8l-16.5,18.4v1h20v-1.7C239.8,37.5,222.7,37.5,222.7,37.5z"/>
			<path class="st19" d="M253.6,17.5c-4.6,0-7.4,1.9-9.1,3.1l0.9,1.4c1.7-1.2,4.8-2.9,8-2.9c4.8,0,6.3,3.2,6.3,6.7
				c-11.5,1-16.2,3.2-16.2,8c0,4,3.6,5.8,7.4,5.8c3.1,0,6.4-1.8,8.8-3.7h0.1l0.2,3.2h1.7V25.7C261.6,21.1,259.2,17.5,253.6,17.5
				L253.6,17.5z M259.6,34.2c-3,2.5-5.8,3.8-8.5,3.8c-2.9,0-5.7-1.2-5.7-4.2c0-3.4,3.4-5.4,14.2-6.4V34.2z"/>
		</g>
		<polygon class="st20" points="190.5,17.8 182.4,39.1 179.9,39.1 188.1,17.8 		"/>
	</g>
</g>
</svg>
