<?xml version="1.0" encoding="utf-8"?>
<!-- Generator: Adobe Illustrator 28.1.0, SVG Export Plug-In . SVG Version: 6.00 Build 0)  -->
<svg version="1.1" id="Layer_1" xmlns="http://www.w3.org/2000/svg" xmlns:xlink="http://www.w3.org/1999/xlink" x="0px" y="0px"
	 viewBox="0 0 262.6 48.8" style="enable-background:new 0 0 262.6 48.8;" xml:space="preserve">
<style type="text/css">
	.st0{fill:#867CFF;}
	.st1{clip-path:url(#SVGID_00000129887801714851809160000004541388772204440716_);}
	
		.st2{opacity:0.5;fill:url(#SVGID_00000109026905646709704160000014558332141940887185_);stroke:url(#SVGID_00000063622839181970338310000001500317570144387984_);stroke-width:0.5;stroke-miterlimit:10;enable-background:new    ;}
	
		.st3{opacity:0.5;fill:url(#SVGID_00000140731822247550091500000011849549292746155674_);stroke:url(#SVGID_00000179647580203970219450000004405823330625060518_);stroke-width:0.5;stroke-miterlimit:10;enable-background:new    ;}
	.st4{opacity:0.5;}
	.st5{fill:url(#SVGID_00000154402026691874658850000016810531237981283728_);}
	.st6{fill:url(#SVGID_00000052793433693100979080000017149307848744286629_);}
	.st7{opacity:0.77;fill:url(#SVGID_00000155828968234996941080000018367259469952859289_);enable-background:new    ;}
	.st8{display:none;opacity:0.77;fill:url(#SVGID_00000059303433192715803050000015292228270650210447_);enable-background:new    ;}
	.st9{opacity:0.77;fill:url(#SVGID_00000098178915726535706640000011404521832159164298_);enable-background:new    ;}
	.st10{opacity:0.77;fill:url(#SVGID_00000134245744401345783880000002084934863278291590_);enable-background:new    ;}
	.st11{opacity:0.77;fill:url(#SVGID_00000016758979097345852920000003418176833130037182_);enable-background:new    ;}
	.st12{opacity:0.77;fill:url(#SVGID_00000005237394479781356030000002444744429187573155_);enable-background:new    ;}
	.st13{opacity:0.77;fill:url(#SVGID_00000113344288118389753790000011382678570076419002_);enable-background:new    ;}
	.st14{opacity:0.77;fill:url(#SVGID_00000139974364959073864370000005107946732873896340_);enable-background:new    ;}
	.st15{fill:none;}
	.st16{opacity:0.77;fill:url(#SVGID_00000124877451713330681010000002211804730523808414_);enable-background:new    ;}
	.st17{opacity:0.77;fill:url(#SVGID_00000035499185027807461390000003004662497513579199_);enable-background:new    ;}
	.st18{opacity:0.77;fill:url(#SVGID_00000062895229891747779750000018190047091016418965_);enable-background:new    ;}
	.st19{fill:#FFFFFF;}
	.st20{fill:#6A6BFF;}
</style>
<g id="Layer_3">
</g>
<g id="Layer_2_00000072981388056086621200000006643143166110143115_">
	<g id="Layer_1-2">
		<g>
			<path class="st0" d="M166.8,0H7.7C3.5,0,0,3.5,0,7.7v33.8c0,3.8,3.1,6.9,6.9,6.9h121.9c0,0-0.1,0-0.2,0c-1.5-0.3-2.9-0.7-3.9-1.4
				c0,0-0.1,0-0.1-0.1c-1.5-1-2.4-2.3-2.4-4.1s1.1-3.2,3.3-4.2v-0.2c-1.2-0.8-2.2-1.9-2.2-3.8c0-1.5,1.1-3.1,2.6-4.1v-0.2
				c-1.3-0.8-2.3-2.2-2.8-3.9c-0.1-0.6-0.2-1.1-0.2-1.7c0-5.5,4.6-8,9.7-8c1.3,0,2.6,0.2,3.7,0.5h8.9v5.5h-4
				c0.3,0.5,0.6,1.4,0.6,2.3c0,3.2-1.5,5.2-3.9,6.3c-1.5,0.7-3.4,1-5.4,1c-0.8,0-1.7-0.1-2.8-0.3c-0.5,0.4-0.7,0.7-0.7,1.3
				c0,1,1,1.3,3.4,1.3h3.7l0,0c5.8,0,9.2,1.7,9.2,5.7c0,2.8-1.7,5.2-4.8,6.7c0,0-0.1,0.1-0.2,0.1c-1.3,0.6-2.9,1.1-4.6,1.4
				c-0.1,0-0.1,0-0.2,0h32c2.6,0,4.7-2.1,4.7-4.7v-38C172.6,2.6,170,0,166.8,0z M15.6,20.6c0.2,1.7,1.6,3.1,3.3,3.4
				c1.5,0.2,2.8-0.4,3.7-1.4c0.6-0.7,0.9-1.6,0.9-2.5c0-0.2,0-0.3,0-0.5c0,0.2,0.9,0.8,1.1,0.9c0.5,0.5,1.1,0.9,1.6,1.3
				s1.2,0.9,1.7,1.4l0,0c0.5,0.4,0.9,0.9,1.3,1.4c3,3.7,2.3,9.1-1,12.4c-0.8,0.8-1.7,1.4-2.6,2c-0.2,0.1-0.3,0.2-0.5,0.3
				s-0.4,0.2-0.6,0.3c-1.6,0.7-3.6,1.1-5.8,1.1c-3.9,0-7.8-1.4-10.8-3.7l-0.5-0.4c0,0,0,0-0.1,0l-1.7-1.4l5.3-6.4l2.8,2.3l3.1,2.5
				l0,0c0.5,0.5,1.2,0.8,2,0.8c0.1,0,0.2,0,0.3,0c0.2,0,0.4,0,0.5,0c1.8-0.3,3.2-1.9,3-3.9c-0.2-1.8-1.7-3.2-3.5-3.3
				c-0.8,0-1.6,0.2-2.2,0.7c-0.9,0.6-1.5,1.7-1.5,2.9V31L10,26.6l0,0c-1.8-1.8-2.7-4.1-2.7-6.7c0-3.7,2.1-6.9,5.4-8.6
				c0.2-0.1,0.3-0.2,0.5-0.3s0.4-0.2,0.6-0.2c1.6-0.7,3.5-1.1,5.5-1.1c0.7,0,1.3,0,2,0.1c1.8,0.2,3.6,0.8,5.2,1.7
				c0.8,0.4,1.6,0.9,2.3,1.5l0.2,0.1c0.2,0.2,0.5,0.4,0.7,0.6l1.5,1.4L26.5,21c0,0-1.7-1.4-1.8-1.4l-2.6-2.1
				c-0.2-0.1-0.3-0.3-0.5-0.4c-0.5-0.3-1.1-0.6-1.7-0.7c-0.2,0-0.4,0-0.6,0c-0.1,0-0.2,0-0.3,0C17,16.3,15.3,18.3,15.6,20.6z
				 M54.5,39.3h-7.6V26.7c0-2.5-0.6-3.5-2.5-3.5c-1.4,0-2.4,0.6-3.5,1.7v14.4h-7.6V8.6h7.6l-0.3,7l-0.2,4h0.2c1-1,2.5-2,4.4-2.6
				c0.8-0.2,1.6-0.3,2.5-0.3l0,0c2.7,0,4.5,1.1,5.7,3c0.9,1.5,1.3,3.6,1.3,6C54.5,25.7,54.5,39.3,54.5,39.3z M69.9,39.9
				c-6.7,0-9.4-3.4-9.8-8.6l0,0c0-0.4,0-0.8,0-1.3v-6.8h-5.3v-5.6l5.6-0.3l1.3-8.6l5.9,0.1v8.5h8.7v5.9h-8.7v6.6
				c0,3.1,1.5,4.1,4.3,4.1c1.5,0,2.8-0.3,4-0.7l0.8,3.4l0.5,2C75.3,39.3,72.9,39.9,69.9,39.9z M99.2,39.3H93L92.5,37h-0.2
				c-1.9,1.4-4.1,2.5-6.4,2.8l0,0c-0.4,0-0.7,0.1-1.1,0.1c-2.4,0-4.2-0.8-5.4-2.2l0,0c-1.1-1.2-1.7-2.9-1.7-4.6
				c0-4.9,3.9-7.5,13.9-8c-0.3-1.6-1.8-2.3-4.2-2.3c-1.8,0-3.7,0.6-6.3,1.8L80.3,23l-1.8-3.4c2-1.1,4-1.9,6.1-2.4
				c1.4-0.3,2.9-0.5,4.4-0.5l0,0c6.2,0,10.3,3.1,10.3,10.3v12.3H99.2z M121.9,39.3h-7.6V26.7c0-2.5-0.6-3.5-2.5-3.5
				c-1.4,0-2.4,0.6-3.5,1.7v14.4h-7.6v-22h6.2l0.5,2.6h0.2c1.8-1.7,4.1-3.2,7.3-3.2c4.9,0,7,3.5,7,9V39.3z M162.2,39.1L162.2,39.1
				c-1.7,0.5-3.1,0.7-5.3,0.7c-4.1,0-6.8-1.9-8.1-5c-0.5-1.3-0.8-2.8-0.8-4.5V14.5h-6.6V8.6h14.2v21.8c0,2.5,1.8,3.3,3.3,3.3
				c0.9,0,1.9-0.2,3.2-0.6l1.6,5.6C163.1,38.8,162.6,39,162.2,39.1z"/>
			<path class="st0" d="M85,32.4c0,1,0.8,1.6,2.4,1.6c1.8,0,3.1-0.8,4.3-1.7v-2.8C86.3,29.7,85,30.9,85,32.4z"/>
			<path class="st0" d="M138.4,41.7c0-1.1-1.2-1.3-3.4-1.3h-2.2c-1.7,0-2.6-0.1-3.3-0.3c-0.8,0.5-1.1,1-1.1,1.6c0,1.4,2,2,5,2
				S138.4,42.9,138.4,41.7z"/>
			<path class="st0" d="M135.4,24.7c0-2-1.2-3-2.7-3s-2.6,0.9-2.6,3s1.2,3.1,2.6,3.1S135.4,26.8,135.4,24.7z"/>
		</g>
		<g>
			<g>
				<defs>
					<path id="SVGID_1_" d="M166.8,0H7.7C3.5,0,0,3.5,0,7.7v33.8c0,3.8,3.1,6.9,6.9,6.9h121.9c0,0-0.1,0-0.2,0
						c-1.5-0.3-2.9-0.7-3.9-1.4c0,0-0.1,0-0.1-0.1c-1.5-1-2.4-2.3-2.4-4.1s1.1-3.2,3.3-4.2v-0.2c-1.2-0.8-2.2-1.9-2.2-3.8
						c0-1.5,1.1-3.1,2.6-4.1v-0.2c-1.3-0.8-2.3-2.2-2.8-3.9c-0.1-0.6-0.2-1.1-0.2-1.7c0-5.5,4.6-8,9.7-8c1.3,0,2.6,0.2,3.7,0.5h8.9
						v5.5h-4c0.3,0.5,0.6,1.4,0.6,2.3c0,3.2-1.5,5.2-3.9,6.3c-1.5,0.7-3.4,1-5.4,1c-0.8,0-1.7-0.1-2.8-0.3c-0.5,0.4-0.7,0.7-0.7,1.3
						c0,1,1,1.3,3.4,1.3h3.7l0,0c5.8,0,9.2,1.7,9.2,5.7c0,2.8-1.7,5.2-4.8,6.7c0,0-0.1,0.1-0.2,0.1c-1.3,0.6-2.9,1.1-4.6,1.4
						c-0.1,0-0.1,0-0.2,0h32c2.6,0,4.7-2.1,4.7-4.7v-38C172.6,2.6,170,0,166.8,0z M15.6,20.6c0.2,1.7,1.6,3.1,3.3,3.4
						c1.5,0.2,2.8-0.4,3.7-1.4c0.6-0.7,0.9-1.6,0.9-2.5c0-0.2,0-0.3,0-0.5c0,0.2,0.9,0.8,1.1,0.9c0.5,0.5,1.1,0.9,1.6,1.3
						s1.2,0.9,1.7,1.4l0,0c0.5,0.4,0.9,0.9,1.3,1.4c3,3.7,2.3,9.1-1,12.4c-0.8,0.8-1.7,1.4-2.6,2c-0.2,0.1-0.3,0.2-0.5,0.3
						s-0.4,0.2-0.6,0.3c-1.6,0.7-3.6,1.1-5.8,1.1c-3.9,0-7.8-1.4-10.8-3.7l-0.5-0.4c0,0,0,0-0.1,0l-1.7-1.4l5.3-6.4l2.8,2.3l3.1,2.5
						l0,0c0.5,0.5,1.2,0.8,2,0.8c0.1,0,0.2,0,0.3,0c0.2,0,0.4,0,0.5,0c1.8-0.3,3.2-1.9,3-3.9c-0.2-1.8-1.7-3.2-3.5-3.3
						c-0.8,0-1.6,0.2-2.2,0.7c-0.9,0.6-1.5,1.7-1.5,2.9V31L10,26.6l0,0c-1.8-1.8-2.7-4.1-2.7-6.7c0-3.7,2.1-6.9,5.4-8.6
						c0.2-0.1,0.3-0.2,0.5-0.3s0.4-0.2,0.6-0.2c1.6-0.7,3.5-1.1,5.5-1.1c0.7,0,1.3,0,2,0.1c1.8,0.2,3.6,0.8,5.2,1.7
						c0.8,0.4,1.6,0.9,2.3,1.5l0.2,0.1c0.2,0.2,0.5,0.4,0.7,0.6l1.5,1.4L26.5,21c0,0-1.7-1.4-1.8-1.4l-2.6-2.1
						c-0.2-0.1-0.3-0.3-0.5-0.4c-0.5-0.3-1.1-0.6-1.7-0.7c-0.2,0-0.4,0-0.6,0c-0.1,0-0.2,0-0.3,0C17,16.3,15.3,18.3,15.6,20.6z
						 M54.5,39.3h-7.6V26.7c0-2.5-0.6-3.5-2.5-3.5c-1.4,0-2.4,0.6-3.5,1.7v14.4h-7.6V8.6h7.6l-0.3,7l-0.2,4h0.2c1-1,2.5-2,4.4-2.6
						c0.8-0.2,1.6-0.3,2.5-0.3l0,0c2.7,0,4.5,1.1,5.7,3c0.9,1.5,1.3,3.6,1.3,6C54.5,25.7,54.5,39.3,54.5,39.3z M69.9,39.9
						c-6.7,0-9.4-3.4-9.8-8.6l0,0c0-0.4,0-0.8,0-1.3v-6.8h-5.3v-5.6l5.6-0.3l1.3-8.6l5.9,0.1v8.5h8.7v5.9h-8.7v6.6
						c0,3.1,1.5,4.1,4.3,4.1c1.5,0,2.8-0.3,4-0.7l0.8,3.4l0.5,2C75.3,39.3,72.9,39.9,69.9,39.9z M99.2,39.3H93L92.5,37h-0.2
						c-1.9,1.4-4.1,2.5-6.4,2.8l0,0c-0.4,0-0.7,0.1-1.1,0.1c-2.4,0-4.2-0.8-5.4-2.2l0,0c-1.1-1.2-1.7-2.9-1.7-4.6
						c0-4.9,3.9-7.5,13.9-8c-0.3-1.6-1.8-2.3-4.2-2.3c-1.8,0-3.7,0.6-6.3,1.8L80.3,23l-1.8-3.4c2-1.1,4-1.9,6.1-2.4
						c1.4-0.3,2.9-0.5,4.4-0.5l0,0c6.2,0,10.3,3.1,10.3,10.3v12.3H99.2z M121.9,39.3h-7.6V26.7c0-2.5-0.6-3.5-2.5-3.5
						c-1.4,0-2.4,0.6-3.5,1.7v14.4h-7.6v-22h6.2l0.5,2.6h0.2c1.8-1.7,4.1-3.2,7.3-3.2c4.9,0,7,3.5,7,9V39.3z M162.2,39.1L162.2,39.1
						c-1.7,0.5-3.1,0.7-5.3,0.7c-4.1,0-6.8-1.9-8.1-5c-0.5-1.3-0.8-2.8-0.8-4.5V14.5h-6.6V8.6h14.2v21.8c0,2.5,1.8,3.3,3.3,3.3
						c0.9,0,1.9-0.2,3.2-0.6l1.6,5.6C163.1,38.8,162.6,39,162.2,39.1z M91.7,29.5v2.8c-1.2,0.9-2.5,1.7-4.3,1.7
						c-1.6,0-2.4-0.6-2.4-1.6C85,30.9,86.3,29.7,91.7,29.5z M133.3,43.7c-3,0-5-0.6-5-2c0-0.6,0.3-1.1,1.1-1.6
						c0.8,0.2,1.6,0.3,3.3,0.3h2.2c2.2,0,3.4,0.2,3.4,1.3C138.4,42.9,136.3,43.7,133.3,43.7z M132.8,27.8c-1.5,0-2.6-1-2.6-3.1
						s1.2-3,2.6-3s2.7,1,2.7,3C135.4,26.8,134.2,27.8,132.8,27.8z"/>
				</defs>
				<clipPath id="SVGID_00000154416586364750431080000005321699486277037995_">
					<use xlink:href="#SVGID_1_"  style="overflow:visible;"/>
				</clipPath>
				<g style="clip-path:url(#SVGID_00000154416586364750431080000005321699486277037995_);">
					
						<linearGradient id="SVGID_00000122718795390814236440000015845146406046207167_" gradientUnits="userSpaceOnUse" x1="36.7" y1="487.1635" x2="108.6" y2="487.1635" gradientTransform="matrix(1 0 0 1 0 -450)">
						<stop  offset="0" style="stop-color:#8683FF"/>
						<stop  offset="1" style="stop-color:#B6AEFF"/>
					</linearGradient>
					
						<linearGradient id="SVGID_00000092432107955362175430000007480207602824737418_" gradientUnits="userSpaceOnUse" x1="36.3571" y1="487.1635" x2="110.1804" y2="487.1635" gradientTransform="matrix(1 0 0 1 0 -450)">
						<stop  offset="0" style="stop-color:#B6AEFF;stop-opacity:0.2"/>
						<stop  offset="1" style="stop-color:#C6C5FF"/>
					</linearGradient>
					
						<path style="opacity:0.5;fill:url(#SVGID_00000122718795390814236440000015845146406046207167_);stroke:url(#SVGID_00000092432107955362175430000007480207602824737418_);stroke-width:0.5;stroke-miterlimit:10;enable-background:new    ;" d="
						M108.6,47.1H36.7L42,30.6c0.8-2.6,3.6-4,6.2-3.1L108.6,47.1z"/>
					
						<linearGradient id="SVGID_00000023252055530489942230000004115349011444761020_" gradientUnits="userSpaceOnUse" x1="97.5755" y1="17.759" x2="160.384" y2="37.8441" gradientTransform="matrix(1 0 0 -1 0 50)">
						<stop  offset="0" style="stop-color:#B6AEFF"/>
						<stop  offset="1" style="stop-color:#8683FF"/>
					</linearGradient>
					
						<linearGradient id="SVGID_00000051373917812232790000000012552867199746361251_" gradientUnits="userSpaceOnUse" x1="115.3891" y1="486.7654" x2="163.8105" y2="446.1358" gradientTransform="matrix(1 0 0 1 0 -450)">
						<stop  offset="0" style="stop-color:#C6C5FF"/>
						<stop  offset="1" style="stop-color:#B6AEFF;stop-opacity:0.2"/>
					</linearGradient>
					
						<path style="opacity:0.5;fill:url(#SVGID_00000023252055530489942230000004115349011444761020_);stroke:url(#SVGID_00000051373917812232790000000012552867199746361251_);stroke-width:0.5;stroke-miterlimit:10;enable-background:new    ;" d="
						M171,7.2v24l-1.6,5.1c-0.8,2.6-3.6,4-6.2,3.1l-60.8-19.7c-2.6-0.8-4-3.6-3.2-6.2l3.9-12.2h62C168.4,1.4,171,4,171,7.2L171,7.2z
						"/>
					<g class="st4">
						
							<linearGradient id="SVGID_00000022544924635046439340000010228994240634696882_" gradientUnits="userSpaceOnUse" x1="27.0543" y1="62.105" x2="88.3309" y2="17.6795" gradientTransform="matrix(1 0 0 -1 0 50)">
							<stop  offset="0" style="stop-color:#8683FF"/>
							<stop  offset="1" style="stop-color:#B6AEFF"/>
						</linearGradient>
						<path style="fill:url(#SVGID_00000022544924635046439340000010228994240634696882_);" d="M89.7,1.4l-5,15.5
							c-2.1,6.5-9.1,10.1-15.6,8L7.5,4.9C6.1,4.5,4.8,3.7,3.6,2.8c1-0.9,2.3-1.4,3.8-1.4C7.4,1.4,89.7,1.4,89.7,1.4z"/>
						
							<linearGradient id="SVGID_00000014631064092366100980000006990586544833773753_" gradientUnits="userSpaceOnUse" x1="3.6" y1="463.45" x2="89.7" y2="463.45" gradientTransform="matrix(1 0 0 1 0 -450)">
							<stop  offset="0" style="stop-color:#B6AEFF;stop-opacity:0.2"/>
							<stop  offset="1" style="stop-color:#C6C5FF"/>
						</linearGradient>
						<path style="fill:url(#SVGID_00000014631064092366100980000006990586544833773753_);" d="M89,1.9l-4.8,14.9
							c-1.6,4.9-6.1,8.2-11.3,8.2c-1.2,0-2.5-0.2-3.7-0.6L7.7,4.4C6.5,4.1,5.4,3.5,4.5,2.8c0.9-0.6,1.9-0.9,3-0.9H89 M89.7,1.4H7.4
							C6,1.4,4.7,1.9,3.6,2.8C4.7,3.7,6,4.4,7.5,4.9l61.5,20c1.3,0.4,2.6,0.6,3.8,0.6c5.2,0,10.1-3.3,11.8-8.6L89.7,1.4L89.7,1.4z"
							/>
					</g>
				</g>
			</g>
		</g>
		
			<radialGradient id="SVGID_00000045613527002965040190000004838115621718694800_" cx="87.0638" cy="22.1064" r="24.2402" gradientTransform="matrix(1 0 0 -1 0 50)" gradientUnits="userSpaceOnUse">
			<stop  offset="0" style="stop-color:#9B90FF"/>
			<stop  offset="0.97" style="stop-color:#6961E6"/>
		</radialGradient>
		<path style="opacity:0.77;fill:url(#SVGID_00000045613527002965040190000004838115621718694800_);enable-background:new    ;" d="
			M39.2,39.3l-2.5,7.8H7.5c-3.2,0-5.8-2.6-5.8-5.8V7.2c0-1.8,0.8-3.3,2-4.4c1.1,0.9,2.4,1.6,3.9,2.1l14,4.5c-0.7-0.1-1.3-0.1-2-0.1
			c-2,0-3.9,0.4-5.5,1.1c-0.2,0.1-0.4,0.2-0.6,0.2c-0.2,0.1-0.4,0.2-0.5,0.3c-3.3,1.8-5.4,4.9-5.4,8.6c0,2.6,1,4.9,2.7,6.7l0,0
			l5.4,4.4v-0.2c0-1.2,0.6-2.2,1.5-2.9c0.6-0.4,1.4-0.7,2.2-0.7c1.8,0,3.3,1.5,3.5,3.3c0.2,1.9-1.2,3.6-3,3.9c-0.2,0-0.4,0-0.5,0
			s-0.2,0-0.3,0c-0.8-0.1-1.4-0.3-2-0.8l0,0L14,30.7l-3-2.3l-5.3,6.4l1.7,1.4h0.1L8,36.6c3,2.4,6.9,3.7,10.8,3.7
			c2.2,0,4.2-0.4,5.8-1.1c0.2-0.1,0.4-0.2,0.6-0.3s0.4-0.2,0.5-0.3c1-0.5,1.9-1.2,2.6-2c3.3-3.3,4-8.6,1-12.4
			c-0.4-0.5-0.9-1-1.3-1.4l0,0c-0.5-0.5-1.1-0.9-1.7-1.4s-1.1-0.9-1.6-1.3c-0.2-0.2-1.1-0.7-1.1-0.9c0,0.2,0,0.3,0,0.5
			c0,1-0.3,1.8-0.9,2.5c-0.9,1-2.2,1.7-3.7,1.4c-1.7-0.3-3.1-1.7-3.3-3.4c-0.3-2.3,1.4-4.3,3.6-4.5c0.1,0,0.2,0,0.3,0
			c0.2,0,0.4,0,0.6,0c0.6,0.1,1.2,0.3,1.7,0.7c0.2,0.1,0.3,0.2,0.5,0.4l2.6,2.1l1.8,1.4l4.7-5.9L30,13c-0.2-0.2-0.5-0.4-0.7-0.6
			L29,12.6c-0.7-0.6-1.5-1.1-2.3-1.5l6.6,2.1v26L39.2,39.3L39.2,39.3z"/>
		
			<radialGradient id="SVGID_00000134251565803608520680000007867032467403661705_" cx="17.6672" cy="9.6775" r="11.9328" gradientTransform="matrix(1 0 0 -1 0 50)" gradientUnits="userSpaceOnUse">
			<stop  offset="0" style="stop-color:#CFA1FF"/>
			<stop  offset="0.97" style="stop-color:#A46CE6"/>
		</radialGradient>
		
			<path style="display:none;opacity:0.77;fill:url(#SVGID_00000134251565803608520680000007867032467403661705_);enable-background:new    ;" d="
			M15.6,20.6c0.2,1.7,1.6,3.1,3.3,3.4c1.5,0.2,2.8-0.4,3.7-1.4c0.6-0.7,0.9-1.6,0.9-2.5c0-0.2,0-0.3,0-0.5c0,0.2,0.9,0.8,1.1,0.9
			c0.5,0.5,1.1,0.9,1.6,1.3s1.2,0.9,1.7,1.4l0,0c0.5,0.4,0.9,0.9,1.3,1.4c3,3.7,2.3,9.1-1,12.4c-0.8,0.8-1.7,1.4-2.6,2
			c-0.2,0.1-0.3,0.2-0.5,0.3s-0.4,0.2-0.6,0.3c-1.6,0.7-3.6,1.1-5.8,1.1c-3.9,0-7.8-1.4-10.8-3.7l-0.5-0.4c0,0,0,0-0.1,0l-1.7-1.4
			l5.3-6.4l2.8,2.3l3.1,2.5l0,0c0.5,0.5,1.2,0.8,2,0.8c0.1,0,0.2,0,0.3,0c0.2,0,0.4,0,0.5,0c1.8-0.3,3.2-1.9,3-3.9
			c-0.2-1.8-1.7-3.2-3.5-3.3c-0.8,0-1.6,0.2-2.2,0.7c-0.9,0.6-1.5,1.7-1.5,2.9V31L10,26.6l0,0c-1.8-1.8-2.7-4.1-2.7-6.7
			c0-3.7,2.1-6.9,5.4-8.6c0.2-0.1,0.3-0.2,0.5-0.3s0.4-0.2,0.6-0.2c1.6-0.7,3.5-1.1,5.5-1.1c0.7,0,1.3,0,2,0.1l5.2,1.7
			c0.8,0.4,1.6,0.9,2.3,1.5l0.2,0.1c0.2,0.2,0.5,0.4,0.7,0.6l1.5,1.4L26.5,21c0,0-1.7-1.4-1.8-1.4l-2.6-2.1
			c-0.2-0.1-0.3-0.3-0.5-0.4c-0.5-0.3-1.1-0.6-1.7-0.7c-0.2,0-0.4,0-0.6,0c-0.1,0-0.2,0-0.3,0C17,16.3,15.3,18.3,15.6,20.6z"/>
		
			<radialGradient id="SVGID_00000152983112844879531050000013811114990691016895_" cx="87.0638" cy="22.1064" r="24.2402" gradientTransform="matrix(1 0 0 -1 0 50)" gradientUnits="userSpaceOnUse">
			<stop  offset="0" style="stop-color:#9B90FF"/>
			<stop  offset="0.97" style="stop-color:#6961E6"/>
		</radialGradient>
		<path style="opacity:0.77;fill:url(#SVGID_00000152983112844879531050000013811114990691016895_);enable-background:new    ;" d="
			M46.9,26.7v0.6c-2.2-0.1-4.2,1.2-4.9,3.4l-1.1,3.5v-9.3c1.2-1.1,2.1-1.7,3.5-1.7C46.3,23.2,46.9,24.2,46.9,26.7z"/>
		
			<radialGradient id="SVGID_00000024720094487710320240000002096880782613628583_" cx="87.0638" cy="22.1064" r="24.2402" gradientTransform="matrix(1 0 0 -1 0 50)" gradientUnits="userSpaceOnUse">
			<stop  offset="0" style="stop-color:#9B90FF"/>
			<stop  offset="0.97" style="stop-color:#6961E6"/>
		</radialGradient>
		<path style="opacity:0.77;fill:url(#SVGID_00000024720094487710320240000002096880782613628583_);enable-background:new    ;" d="
			M45,17.1c-1.9,0.5-3.4,1.6-4.4,2.6h-0.2l0.2-4L45,17.1z"/>
		
			<radialGradient id="SVGID_00000001637866445337048770000014240434478085809824_" cx="87.0638" cy="22.1064" r="24.2402" gradientTransform="matrix(1 0 0 -1 0 50)" gradientUnits="userSpaceOnUse">
			<stop  offset="0" style="stop-color:#9B90FF"/>
			<stop  offset="0.97" style="stop-color:#6961E6"/>
		</radialGradient>
		<path style="opacity:0.77;fill:url(#SVGID_00000001637866445337048770000014240434478085809824_);enable-background:new    ;" d="
			M54.5,29.5v-3.8c0-2.4-0.4-4.5-1.3-6l1.5,0.5v3H60V30c0,0.4,0,0.9,0,1.3L54.5,29.5z"/>
		
			<radialGradient id="SVGID_00000026872679644946999640000017597150343630052253_" cx="87.0638" cy="22.1064" r="24.2402" gradientTransform="matrix(1 0 0 -1 0 50)" gradientUnits="userSpaceOnUse">
			<stop  offset="0" style="stop-color:#9B90FF"/>
			<stop  offset="0.97" style="stop-color:#6961E6"/>
		</radialGradient>
		<path style="opacity:0.77;fill:url(#SVGID_00000026872679644946999640000017597150343630052253_);enable-background:new    ;" d="
			M77.8,33c0,1.7,0.6,3.4,1.7,4.6l-2.8-0.9l-0.8-3.4c-1.2,0.4-2.5,0.7-4,0.7c-2.8,0-4.3-1-4.3-4.1v-5.5l1.5,0.5
			c4,1.3,8.1,0.5,11.2-1.8l0.8,1.5c2.6-1.2,4.5-1.8,6.3-1.8c2.5,0,4,0.7,4.2,2.3C81.6,25.5,77.8,28.1,77.8,33z"/>
		
			<radialGradient id="SVGID_00000075158143596405403070000007790424340263528590_" cx="87.0638" cy="22.1064" r="24.2402" gradientTransform="matrix(1 0 0 -1 0 50)" gradientUnits="userSpaceOnUse">
			<stop  offset="0" style="stop-color:#9B90FF"/>
			<stop  offset="0.97" style="stop-color:#6961E6"/>
		</radialGradient>
		<path style="opacity:0.77;fill:url(#SVGID_00000075158143596405403070000007790424340263528590_);enable-background:new    ;" d="
			M171,31.2v10c0,3.2-2.6,5.8-5.8,5.8h-24.5c0.1,0,0.1,0,0.2-0.1c3-1.5,4.8-3.9,4.8-6.7c0-4-3.3-5.7-9.2-5.7l0,0h-3.7
			c-2.5,0-3.4-0.3-3.4-1.3c0-0.6,0.2-0.9,0.7-1.3c1.1,0.2,2,0.3,2.8,0.3c2,0,3.9-0.3,5.4-1l10.6,3.5c1.2,3.1,3.9,5,8.1,5
			c2.2,0,3.7-0.3,5.3-0.7l0,0l1,0.3c2.6,0.8,5.3-0.6,6.2-3.1L171,31.2z"/>
		
			<radialGradient id="SVGID_00000060031691026127992630000001964999061254922152_" cx="87.0638" cy="22.1064" r="24.2402" gradientTransform="matrix(1 0 0 -1 0 50)" gradientUnits="userSpaceOnUse">
			<stop  offset="0" style="stop-color:#9B90FF"/>
			<stop  offset="0.97" style="stop-color:#6961E6"/>
		</radialGradient>
		<path style="opacity:0.77;fill:url(#SVGID_00000060031691026127992630000001964999061254922152_);enable-background:new    ;" d="
			M123.4,34.7c0,1.9,1,3,2.2,3.8v0.2c-2.2,1.1-3.3,2.4-3.3,4.2s0.9,3.2,2.4,4.1l0.1,0.1h-16.2L86,39.7c2.3-0.3,4.5-1.4,6.4-2.8h0.2
			l0.5,2.3h6.2V27c0-7.2-4-10.3-10.3-10.3l0,0c-1.5,0-3,0.2-4.4,0.5c0-0.1,0.1-0.2,0.1-0.3l5-15.5h13.5l-4,12.2
			c-0.6,1.9,0,3.9,1.4,5.2v20.6h7.6V24.8c1.1-1.1,2.1-1.7,3.5-1.7c1.9,0,2.5,1.1,2.5,3.5v12.6h7.6V26l1.3,0.4
			c0.4,1.7,1.5,3.1,2.8,3.9v0.2C124.5,31.6,123.4,33.2,123.4,34.7z"/>
		<path class="st15" d="M14.1,1.2h145.4c6.1,0,11.1,5,11.1,11.1v24.3c0,5.7-4.6,10.4-10.4,10.4H12.8C6.5,47,1.3,41.8,1.3,35.5V14.1
			C1.3,7,7,1.2,14.1,1.2z"/>
		
			<radialGradient id="SVGID_00000073698980038354768220000017968643937598573728_" cx="87.0638" cy="22.1064" r="24.2402" gradientTransform="matrix(1 0 0 -1 0 50)" gradientUnits="userSpaceOnUse">
			<stop  offset="0" style="stop-color:#9B90FF"/>
			<stop  offset="0.97" style="stop-color:#6961E6"/>
		</radialGradient>
		<path style="opacity:0.77;fill:url(#SVGID_00000073698980038354768220000017968643937598573728_);enable-background:new    ;" d="
			M138.4,41.7c0,1.2-2.2,2-5.1,2s-5-0.6-5-2c0-0.6,0.3-1.1,1.1-1.6c0.8,0.2,1.6,0.3,3.3,0.3h2.2C137.2,40.3,138.4,40.5,138.4,41.7z"
			/>
		
			<radialGradient id="SVGID_00000051342949912074761400000016283381409955999882_" cx="87.0638" cy="22.1064" r="24.2402" gradientTransform="matrix(1 0 0 -1 0 50)" gradientUnits="userSpaceOnUse">
			<stop  offset="0" style="stop-color:#9B90FF"/>
			<stop  offset="0.97" style="stop-color:#6961E6"/>
		</radialGradient>
		<path style="opacity:0.77;fill:url(#SVGID_00000051342949912074761400000016283381409955999882_);enable-background:new    ;" d="
			M135.4,24.7c0,2-1.2,3.1-2.7,3.1s-2.6-1-2.6-3.1s1.2-3,2.6-3S135.4,22.7,135.4,24.7z"/>
		
			<radialGradient id="SVGID_00000054971358356169446830000016205318014427827605_" cx="87.0638" cy="22.1064" r="24.2402" gradientTransform="matrix(1 0 0 -1 0 50)" gradientUnits="userSpaceOnUse">
			<stop  offset="0" style="stop-color:#9B90FF"/>
			<stop  offset="0.97" style="stop-color:#6961E6"/>
		</radialGradient>
		<path style="opacity:0.77;fill:url(#SVGID_00000054971358356169446830000016205318014427827605_);enable-background:new    ;" d="
			M91.7,29.5v2.8c-1.2,0.9-2.5,1.7-4.3,1.7c-1.6,0-2.4-0.6-2.4-1.6C85,30.9,86.3,29.7,91.7,29.5z"/>
		<g>
			<path class="st19" d="M216.9,36.9c-1.7,0.7-3.4,1.1-5.6,1.1c-4.7,0-5.9-2.5-5.9-6.6V19.7h11.2V18h-11.2v-7h-1.7l-0.3,7l-6.4,0.2
				v1.5h6.4v11.5c0,5,1.8,8.4,7.6,8.4c2.6,0,4.5-0.5,6.4-1.3L216.9,36.9L216.9,36.9z"/>
			<path class="st19" d="M222.7,37.5l16.5-18.4v-1h-17.7v1.7h14.8l-16.5,18.4v1h20v-1.7H222.7z"/>
			<path class="st19" d="M253.6,17.5c-4.6,0-7.4,1.9-9.1,3.1l0.9,1.4c1.7-1.2,4.8-2.9,8-2.9c4.8,0,6.3,3.2,6.3,6.7
				c-11.5,1-16.2,3.2-16.2,8c0,4,3.6,5.8,7.4,5.8c3.1,0,6.4-1.8,8.8-3.7h0.1l0.2,3.2h1.7V25.7C261.6,21.1,259.2,17.5,253.6,17.5
				L253.6,17.5z M259.6,34.2c-3,2.5-5.8,3.8-8.5,3.8c-2.9,0-5.7-1.2-5.7-4.2c0-3.4,3.4-5.4,14.2-6.4V34.2z"/>
		</g>
		<polygon class="st20" points="190.5,17.8 182.4,39.1 179.9,39.1 188.1,17.8 		"/>
	</g>
</g>
</svg>
