<?xml version="1.0" encoding="UTF-8"?>
<svg version="1.1" xmlns="http://www.w3.org/2000/svg" width="1024" height="1024">
<path d="M0 0 C337.92 0 675.84 0 1024 0 C1024 337.92 1024 675.84 1024 1024 C686.08 1024 348.16 1024 0 1024 C0 686.08 0 348.16 0 0 Z " fill="#FDFEF7" transform="translate(0,0)"/>
<path d="M0 0 C3.76196083 1.71540249 7.33970233 3.71630983 10.9375 5.75 C13.08183885 6.93784739 15.22637588 8.12533709 17.37109375 9.3125 C18.46663574 9.92351562 19.56217773 10.53453125 20.69091797 11.1640625 C25.93499612 14.07357022 31.21959192 16.9071575 36.5 19.75 C42.99003456 23.25808484 49.45992315 26.79411771 55.875 30.4375 C66.03435935 36.20449363 76.35613614 41.67450066 86.6484375 47.19921875 C91.9370174 50.04075177 97.21985635 52.89282539 102.5 55.75 C103.98258301 56.55207886 103.98258301 56.55207886 105.49511719 57.37036133 C112.35187699 61.08758538 119.16824946 64.87302733 125.97412109 68.68237305 C130.90246309 71.42706477 135.90354049 73.97313043 140.96875 76.45703125 C146.7136957 79.38132706 152.28509936 82.62215475 157.88916016 85.80566406 C161.35258457 87.76530693 164.8323251 89.69530794 168.3125 91.625 C169.03759766 92.0274292 169.76269531 92.4298584 170.50976562 92.84448242 C172.10066497 93.72736443 173.69165295 94.61008673 175.28271484 95.49267578 C180.13759379 98.18575958 184.99202259 100.87965323 189.8458252 103.57467651 C191.03400804 104.23437275 192.22224064 104.89397938 193.41052246 105.55349731 C200.56668999 109.52568921 207.70721362 113.52289286 214.82519531 117.56298828 C219.07896025 119.96038045 223.37147276 122.28050613 227.67578125 124.5859375 C228.56188835 125.06065742 228.56188835 125.06065742 229.46589661 125.54496765 C232.43935704 127.13706444 235.4152725 128.72414385 238.39477539 130.30493164 C239.47879639 130.88364014 240.56281738 131.46234863 241.6796875 132.05859375 C242.65663574 132.57736084 243.63358398 133.09612793 244.64013672 133.63061523 C247 135 247 135 249 137 C249.24839699 139.8132087 249.24839699 139.8132087 249.24609566 143.4930439 C249.24840335 144.17070106 249.25071103 144.84835822 249.25308865 145.54655045 C249.25842414 147.83981537 249.24937545 150.13280499 249.24050903 152.42605591 C249.24138038 154.07770284 249.24313004 155.7293495 249.24568737 157.38099468 C249.25017892 161.93714055 249.24213253 166.49319316 249.23213124 171.04932714 C249.22352495 175.95595001 249.2264149 180.86256727 249.22793579 185.76919556 C249.22898644 194.27608622 249.22269113 202.78294629 249.21146011 211.28982925 C249.19523232 223.58947497 249.1899999 235.88910584 249.18748413 248.1887611 C249.18310274 268.14228793 249.16978163 288.09579844 249.15087891 308.04931641 C249.13253157 327.43668537 249.11836946 346.8240499 249.10986328 366.21142578 C249.10907511 368.00283496 249.10907511 368.00283496 249.10827102 369.83043422 C249.10566101 375.82152142 249.10313358 381.81260866 249.10064721 387.80369592 C249.0799009 437.53580856 249.04466332 487.26790348 249 537 C248.34875656 537.33798615 247.69751312 537.67597229 247.02653503 538.02420044 C244.031249 539.57977179 241.03710406 541.13752749 238.04296875 542.6953125 C237.01876831 543.22680908 235.99456787 543.75830566 234.93933105 544.3059082 C229.00421302 547.39600556 223.12197696 550.55464191 217.3125 553.875 C211.9980642 556.9108618 206.61487949 559.72090583 201.1171875 562.41015625 C197.38837753 564.31194279 193.76040632 566.36425652 190.125 568.4375 C185.26871265 571.20379024 180.39540971 573.85033734 175.375 576.3125 C169.46896947 579.21568936 163.70103607 582.32410003 157.9375 585.5 C149.19728516 590.3110221 140.37322088 594.94106428 131.5 599.5 C120.17779554 605.32087582 108.96938327 611.32407868 97.81347656 617.45800781 C84.06666579 624.99227168 70.24714266 632.38184347 56.3125 639.5625 C47.27179124 644.22452395 38.39509246 649.11833513 29.56665039 654.16918945 C22.53525808 658.17534127 15.42482024 662.00703211 8.25 665.75 C7.26692871 666.26377197 6.28385742 666.77754395 5.27099609 667.30688477 C-1.60047212 670.86682404 -1.60047212 670.86682404 -5 672 C-7.15039062 671.1706543 -7.15039062 671.1706543 -9.65625 669.82421875 C-11.05133789 669.08461914 -11.05133789 669.08461914 -12.47460938 668.33007812 C-13.47298828 667.78802734 -14.47136719 667.24597656 -15.5 666.6875 C-16.53447266 666.13642578 -17.56894531 665.58535156 -18.63476562 665.01757812 C-20.75599503 663.88721187 -22.87513745 662.75292058 -24.9921875 661.61474609 C-29.14786968 659.38376542 -33.32350691 657.19167863 -37.5 655 C-39.04559944 654.18494613 -40.59117193 653.36984115 -42.13671875 652.5546875 C-45.59177515 650.73593786 -49.05367815 648.93090021 -52.51953125 647.1328125 C-61.98193228 642.2215595 -71.4081392 637.26238446 -80.75 632.125 C-90.07762143 626.9957787 -99.50914847 622.08642604 -108.97167969 617.21142578 C-116.03293397 613.56434918 -123.03869725 609.8341325 -130 606 C-141.52875453 599.65317435 -153.21996967 593.63124817 -164.91455078 587.59716797 C-169.91305128 585.00971819 -174.89031398 582.38257695 -179.86669922 579.75292969 C-184.21824297 577.45635933 -188.57887452 575.17858754 -192.94921875 572.91796875 C-204.06162621 567.16904442 -215.12535124 561.35370692 -226.08618164 555.32006836 C-230.44776491 552.92265235 -234.82032296 550.55809512 -239.2421875 548.2734375 C-240.08604004 547.83668701 -240.92989258 547.39993652 -241.79931641 546.94995117 C-243.35823466 546.14688619 -244.92011059 545.34951782 -246.48583984 544.55981445 C-247.88144385 543.84050756 -249.2643334 543.09574078 -250.63028663 542.32160598 C-252.24656144 541.42019804 -253.8962578 540.57685164 -255.56976038 539.7867443 C-258.59130074 538.11880388 -260.70854878 536.59603192 -263 534 C-264.49888629 528.74268152 -264.33098733 523.56405785 -264.2361908 518.15144348 C-264.24413525 516.51480578 -264.25645732 514.87818446 -264.27277285 513.2416088 C-264.30482024 508.7493222 -264.27452505 504.259291 -264.23395145 499.76715291 C-264.20104546 494.92113726 -264.22581278 490.07537212 -264.24336243 485.22932434 C-264.26856726 475.73891906 -264.24037396 466.24938508 -264.19411092 456.75908808 C-264.1421946 445.71222354 -264.1425417 434.66554748 -264.14497382 423.61858388 C-264.14747686 403.9129376 -264.10166864 384.20769712 -264.02905273 364.50219727 C-263.95858681 345.37028614 -263.92320008 326.23873213 -263.92651367 307.10668945 C-263.92671345 305.92793988 -263.92691323 304.74919031 -263.92711907 303.53472105 C-263.92732084 302.35803048 -263.92752261 301.18133991 -263.9277305 299.96899205 C-263.93117743 278.19994249 -263.90174633 256.43104495 -263.85696442 234.66204462 C-263.84186811 226.95687445 -263.83656493 219.25173216 -263.8343029 211.54654884 C-263.83089632 202.16230281 -263.80863019 192.77831304 -263.76263886 183.39417581 C-263.73951527 178.60378675 -263.72433351 173.81372596 -263.73060989 169.02327728 C-263.73607215 164.64186978 -263.71857571 160.26118923 -263.68236727 155.87993344 C-263.67327693 154.2912789 -263.67267233 152.70254958 -263.68120372 151.11389194 C-263.69148996 148.96076344 -263.67129078 146.81003573 -263.64317226 144.65711689 C-263.63965014 143.45947627 -263.63612801 142.26183566 -263.63249916 141.0279029 C-263 138 -263 138 -260.5846644 135.66274184 C-256.27124678 132.88787484 -256.27124678 132.88787484 -254.06640625 131.66796875 C-253.34291992 131.26594238 -252.61943359 130.86391602 -251.87402344 130.44970703 C-251.1112207 130.03317871 -250.34841797 129.61665039 -249.5625 129.1875 C-248.75973633 128.74519043 -247.95697266 128.30288086 -247.12988281 127.84716797 C-241.43793942 124.73166135 -235.66600203 121.8136065 -229.84375 118.94921875 C-223.14066395 115.59588919 -216.60915834 111.90887652 -210.0390625 108.3046875 C-203.75220587 104.85732233 -197.44048552 101.4570617 -191.125 98.0625 C-188.93745793 96.88549486 -186.74995799 95.70841141 -184.5625 94.53125 C-181.27612438 92.76286693 -177.9897482 90.99448541 -174.703125 89.2265625 C-160.99142073 81.90334124 -160.99142073 81.90334124 -147.5 74.1875 C-143.44289513 71.77768448 -139.30095478 69.63045136 -135.0625 67.5625 C-127.11024591 63.67192385 -119.36758651 59.41248167 -111.625 55.125 C-110.67744843 54.60043716 -110.67744843 54.60043716 -109.71075439 54.0652771 C-103.65004826 50.70777428 -97.59728764 47.33613901 -91.55078125 43.953125 C-90.01316622 43.0934899 -88.47541598 42.23409658 -86.9375 41.375 C-86.22658203 40.97772705 -85.51566406 40.5804541 -84.78320312 40.17114258 C-79.8522387 37.43191413 -74.84099227 34.89621129 -69.7734375 32.41796875 C-66.85818183 30.92749296 -64.06166709 29.30220088 -61.25 27.625 C-56.08132687 24.56133772 -50.80638992 21.84766872 -45.42163086 19.1940918 C-40.00897633 16.52127844 -34.6527278 13.75206661 -29.3125 10.9375 C-28.51094482 10.51774902 -27.70938965 10.09799805 -26.88354492 9.66552734 C-23.26721273 7.76367869 -19.67956309 5.8364755 -16.15234375 3.7734375 C-15.02957031 3.12632812 -13.90679687 2.47921875 -12.75 1.8125 C-11.79609375 1.24144531 -10.8421875 0.67039063 -9.859375 0.08203125 C-5.95336166 -1.39606396 -4.05244569 -1.09693372 0 0 Z " fill="#FBFBF6" transform="translate(504,185)"/>
<path d="M0 0 C3.76196083 1.71540249 7.33970233 3.71630983 10.9375 5.75 C13.08183885 6.93784739 15.22637588 8.12533709 17.37109375 9.3125 C18.46663574 9.92351562 19.56217773 10.53453125 20.69091797 11.1640625 C25.93499612 14.07357022 31.21959192 16.9071575 36.5 19.75 C42.99003456 23.25808484 49.45992315 26.79411771 55.875 30.4375 C66.03435935 36.20449363 76.35613614 41.67450066 86.6484375 47.19921875 C91.9370174 50.04075177 97.21985635 52.89282539 102.5 55.75 C103.98258301 56.55207886 103.98258301 56.55207886 105.49511719 57.37036133 C112.35187699 61.08758538 119.16824946 64.87302733 125.97412109 68.68237305 C130.90246309 71.42706477 135.90354049 73.97313043 140.96875 76.45703125 C146.7136957 79.38132706 152.28509936 82.62215475 157.88916016 85.80566406 C161.35258457 87.76530693 164.8323251 89.69530794 168.3125 91.625 C169.03759766 92.0274292 169.76269531 92.4298584 170.50976562 92.84448242 C172.10066497 93.72736443 173.69165295 94.61008673 175.28271484 95.49267578 C180.13759379 98.18575958 184.99202259 100.87965323 189.8458252 103.57467651 C191.03400804 104.23437275 192.22224064 104.89397938 193.41052246 105.55349731 C200.56668999 109.52568921 207.70721362 113.52289286 214.82519531 117.56298828 C219.07896025 119.96038045 223.37147276 122.28050613 227.67578125 124.5859375 C228.56188835 125.06065742 228.56188835 125.06065742 229.46589661 125.54496765 C232.43935704 127.13706444 235.4152725 128.72414385 238.39477539 130.30493164 C239.47879639 130.88364014 240.56281738 131.46234863 241.6796875 132.05859375 C242.65663574 132.57736084 243.63358398 133.09612793 244.64013672 133.63061523 C247 135 247 135 249 137 C249.24839699 139.8132087 249.24839699 139.8132087 249.24609566 143.4930439 C249.24840335 144.17070106 249.25071103 144.84835822 249.25308865 145.54655045 C249.25842414 147.83981537 249.24937545 150.13280499 249.24050903 152.42605591 C249.24138038 154.07770284 249.24313004 155.7293495 249.24568737 157.38099468 C249.25017892 161.93714055 249.24213253 166.49319316 249.23213124 171.04932714 C249.22352495 175.95595001 249.2264149 180.86256727 249.22793579 185.76919556 C249.22898644 194.27608622 249.22269113 202.78294629 249.21146011 211.28982925 C249.19523232 223.58947497 249.1899999 235.88910584 249.18748413 248.1887611 C249.18310274 268.14228793 249.16978163 288.09579844 249.15087891 308.04931641 C249.13253157 327.43668537 249.11836946 346.8240499 249.10986328 366.21142578 C249.10907511 368.00283496 249.10907511 368.00283496 249.10827102 369.83043422 C249.10566101 375.82152142 249.10313358 381.81260866 249.10064721 387.80369592 C249.0799009 437.53580856 249.04466332 487.26790348 249 537 C248.34875656 537.33798615 247.69751312 537.67597229 247.02653503 538.02420044 C244.031249 539.57977179 241.03710406 541.13752749 238.04296875 542.6953125 C237.01876831 543.22680908 235.99456787 543.75830566 234.93933105 544.3059082 C229.00421302 547.39600556 223.12197696 550.55464191 217.3125 553.875 C211.9980642 556.9108618 206.61487949 559.72090583 201.1171875 562.41015625 C197.38837753 564.31194279 193.76040632 566.36425652 190.125 568.4375 C185.26871265 571.20379024 180.39540971 573.85033734 175.375 576.3125 C169.46896947 579.21568936 163.70103607 582.32410003 157.9375 585.5 C149.19728516 590.3110221 140.37322088 594.94106428 131.5 599.5 C120.17779554 605.32087582 108.96938327 611.32407868 97.81347656 617.45800781 C84.06666579 624.99227168 70.24714266 632.38184347 56.3125 639.5625 C47.27179124 644.22452395 38.39509246 649.11833513 29.56665039 654.16918945 C22.53525808 658.17534127 15.42482024 662.00703211 8.25 665.75 C7.26692871 666.26377197 6.28385742 666.77754395 5.27099609 667.30688477 C-1.60047212 670.86682404 -1.60047212 670.86682404 -5 672 C-7.15039062 671.1706543 -7.15039062 671.1706543 -9.65625 669.82421875 C-11.05133789 669.08461914 -11.05133789 669.08461914 -12.47460938 668.33007812 C-13.47298828 667.78802734 -14.47136719 667.24597656 -15.5 666.6875 C-16.53447266 666.13642578 -17.56894531 665.58535156 -18.63476562 665.01757812 C-20.75599503 663.88721187 -22.87513745 662.75292058 -24.9921875 661.61474609 C-29.14786968 659.38376542 -33.32350691 657.19167863 -37.5 655 C-39.04559944 654.18494613 -40.59117193 653.36984115 -42.13671875 652.5546875 C-45.59177515 650.73593786 -49.05367815 648.93090021 -52.51953125 647.1328125 C-61.98193228 642.2215595 -71.4081392 637.26238446 -80.75 632.125 C-90.07762143 626.9957787 -99.50914847 622.08642604 -108.97167969 617.21142578 C-116.03293397 613.56434918 -123.03869725 609.8341325 -130 606 C-141.52875453 599.65317435 -153.21996967 593.63124817 -164.91455078 587.59716797 C-169.91305128 585.00971819 -174.89031398 582.38257695 -179.86669922 579.75292969 C-184.21824297 577.45635933 -188.57887452 575.17858754 -192.94921875 572.91796875 C-204.06162621 567.16904442 -215.12535124 561.35370692 -226.08618164 555.32006836 C-230.44776491 552.92265235 -234.82032296 550.55809512 -239.2421875 548.2734375 C-240.08604004 547.83668701 -240.92989258 547.39993652 -241.79931641 546.94995117 C-243.35823466 546.14688619 -244.92011059 545.34951782 -246.48583984 544.55981445 C-247.88144385 543.84050756 -249.2643334 543.09574078 -250.63028663 542.32160598 C-252.24656144 541.42019804 -253.8962578 540.57685164 -255.56976038 539.7867443 C-258.59130074 538.11880388 -260.70854878 536.59603192 -263 534 C-264.49888629 528.74268152 -264.33098733 523.56405785 -264.2361908 518.15144348 C-264.24413525 516.51480578 -264.25645732 514.87818446 -264.27277285 513.2416088 C-264.30482024 508.7493222 -264.27452505 504.259291 -264.23395145 499.76715291 C-264.20104546 494.92113726 -264.22581278 490.07537212 -264.24336243 485.22932434 C-264.26856726 475.73891906 -264.24037396 466.24938508 -264.19411092 456.75908808 C-264.1421946 445.71222354 -264.1425417 434.66554748 -264.14497382 423.61858388 C-264.14747686 403.9129376 -264.10166864 384.20769712 -264.02905273 364.50219727 C-263.95858681 345.37028614 -263.92320008 326.23873213 -263.92651367 307.10668945 C-263.92671345 305.92793988 -263.92691323 304.74919031 -263.92711907 303.53472105 C-263.92732084 302.35803048 -263.92752261 301.18133991 -263.9277305 299.96899205 C-263.93117743 278.19994249 -263.90174633 256.43104495 -263.85696442 234.66204462 C-263.84186811 226.95687445 -263.83656493 219.25173216 -263.8343029 211.54654884 C-263.83089632 202.16230281 -263.80863019 192.77831304 -263.76263886 183.39417581 C-263.73951527 178.60378675 -263.72433351 173.81372596 -263.73060989 169.02327728 C-263.73607215 164.64186978 -263.71857571 160.26118923 -263.68236727 155.87993344 C-263.67327693 154.2912789 -263.67267233 152.70254958 -263.68120372 151.11389194 C-263.69148996 148.96076344 -263.67129078 146.81003573 -263.64317226 144.65711689 C-263.63965014 143.45947627 -263.63612801 142.26183566 -263.63249916 141.0279029 C-263 138 -263 138 -260.5846644 135.66274184 C-256.27124678 132.88787484 -256.27124678 132.88787484 -254.06640625 131.66796875 C-253.34291992 131.26594238 -252.61943359 130.86391602 -251.87402344 130.44970703 C-251.1112207 130.03317871 -250.34841797 129.61665039 -249.5625 129.1875 C-248.75973633 128.74519043 -247.95697266 128.30288086 -247.12988281 127.84716797 C-241.43793942 124.73166135 -235.66600203 121.8136065 -229.84375 118.94921875 C-223.14066395 115.59588919 -216.60915834 111.90887652 -210.0390625 108.3046875 C-203.75220587 104.85732233 -197.44048552 101.4570617 -191.125 98.0625 C-188.93745793 96.88549486 -186.74995799 95.70841141 -184.5625 94.53125 C-181.27612438 92.76286693 -177.9897482 90.99448541 -174.703125 89.2265625 C-160.99142073 81.90334124 -160.99142073 81.90334124 -147.5 74.1875 C-143.44289513 71.77768448 -139.30095478 69.63045136 -135.0625 67.5625 C-127.11024591 63.67192385 -119.36758651 59.41248167 -111.625 55.125 C-110.67744843 54.60043716 -110.67744843 54.60043716 -109.71075439 54.0652771 C-103.65004826 50.70777428 -97.59728764 47.33613901 -91.55078125 43.953125 C-90.01316622 43.0934899 -88.47541598 42.23409658 -86.9375 41.375 C-86.22658203 40.97772705 -85.51566406 40.5804541 -84.78320312 40.17114258 C-79.8522387 37.43191413 -74.84099227 34.89621129 -69.7734375 32.41796875 C-66.85818183 30.92749296 -64.06166709 29.30220088 -61.25 27.625 C-56.08132687 24.56133772 -50.80638992 21.84766872 -45.42163086 19.1940918 C-40.00897633 16.52127844 -34.6527278 13.75206661 -29.3125 10.9375 C-28.51094482 10.51774902 -27.70938965 10.09799805 -26.88354492 9.66552734 C-23.26721273 7.76367869 -19.67956309 5.8364755 -16.15234375 3.7734375 C-15.02957031 3.12632812 -13.90679687 2.47921875 -12.75 1.8125 C-11.79609375 1.24144531 -10.8421875 0.67039063 -9.859375 0.08203125 C-5.95336166 -1.39606396 -4.05244569 -1.09693372 0 0 Z M-10.68359375 47.4140625 C-11.6051123 47.92477295 -12.52663086 48.4354834 -13.47607422 48.96166992 C-14.94197998 49.78501831 -14.94197998 49.78501831 -16.4375 50.625 C-18.44833295 51.7398804 -20.46004385 52.85317888 -22.47265625 53.96484375 C-23.43574707 54.49706543 -24.39883789 55.02928711 -25.39111328 55.57763672 C-28.35033505 57.19100243 -31.34468346 58.71226962 -34.375 60.1875 C-38.67059765 62.29294786 -42.84465708 64.57016855 -47 66.9375 C-54.47240732 71.19287836 -62.03904544 75.26372082 -69.625 79.3125 C-79.07783865 84.35941048 -88.51109232 89.43917712 -97.91259766 94.58129883 C-105.61576013 98.79412014 -113.33499444 102.97678476 -121.05761719 107.15380859 C-125.8044216 109.72264051 -130.54827585 112.29638579 -135.28125 114.890625 C-145.89847254 120.70994822 -156.55630867 126.44775757 -167.25 132.125 C-167.91513611 132.47819305 -168.58027222 132.83138611 -169.26556396 133.19528198 C-176.51340709 137.04269089 -183.7667353 140.8795395 -191.02807617 144.70141602 C-194.14119857 146.34022213 -197.25315996 147.98122681 -200.3651123 149.62225342 C-202.57836794 150.78793964 -204.79353648 151.94993087 -207.00878906 153.11181641 C-208.37314066 153.83087678 -209.73740306 154.55010641 -211.1015625 155.26953125 C-211.7126889 155.58862961 -212.32381531 155.90772797 -212.95346069 156.23649597 C-214.64876395 157.13328254 -216.32485734 158.06609618 -218 159 C-219.0430662 159.55015148 -220.08613239 160.10030296 -221.16080666 160.6671257 C-224.29198988 162.754545 -224.29198988 162.754545 -224.73828697 166.24084854 C-224.73275621 167.53504589 -224.72722546 168.82924324 -224.7215271 170.16265869 C-224.72921692 171.24584306 -224.72921692 171.24584306 -224.7370621 172.35090995 C-224.74694887 174.77163153 -224.71394622 177.18985986 -224.68115234 179.61035156 C-224.67945997 181.34490907 -224.68040975 183.07947088 -224.68380737 184.81402588 C-224.68553091 189.52475823 -224.65022328 194.23457639 -224.60836363 198.94509602 C-224.57088908 203.86713861 -224.56733386 208.78920151 -224.56021118 213.71136475 C-224.54155268 223.03291656 -224.49230206 232.35404682 -224.43211424 241.67541289 C-224.36508035 252.28709422 -224.33206796 262.89879555 -224.30194163 273.51063585 C-224.23920376 295.34071155 -224.1291586 317.17020927 -224 339 C-211.79 339 -199.58 339 -187 339 C-187 309.96 -187 280.92 -187 251 C-178.09 251 -169.18 251 -160 251 C-160 245.06 -160 239.12 -160 233 C-162.43375 231.618125 -164.8675 230.23625 -167.375 228.8125 C-168.11927246 228.38815674 -168.86354492 227.96381348 -169.63037109 227.52661133 C-175.01660819 224.48339432 -180.44525803 221.77737099 -186 219 C-186 203.82 -186 188.64 -186 173 C-181.483125 170.56625 -176.96625 168.1325 -172.3125 165.625 C-170.89622314 164.86010254 -169.47994629 164.09520508 -168.02075195 163.30712891 C-166.89628662 162.70304199 -165.77182129 162.09895508 -164.61328125 161.4765625 C-163.46641846 160.85861816 -162.31955566 160.24067383 -161.13793945 159.60400391 C-153.72646918 155.81552186 -153.72646918 155.81552186 -151.078125 156.48803711 C-150.47484375 156.8310083 -149.8715625 157.17397949 -149.25 157.52734375 C-148.56494385 157.9044751 -147.8798877 158.28160645 -147.17407227 158.67016602 C-146.45662842 159.08838623 -145.73918457 159.50660645 -145 159.9375 C-144.25613037 160.3512085 -143.51226074 160.76491699 -142.74584961 161.19116211 C-141.22481047 162.03788421 -139.70776999 162.89182955 -138.19482422 163.75292969 C-135.00611827 165.56471055 -131.78711328 167.31538511 -128.5625 169.0625 C-127.53253906 169.63097656 -126.50257813 170.19945312 -125.44140625 170.78515625 C-123.15606496 172.14849794 -123.15606496 172.14849794 -121 172 C-121.01160156 173.14339844 -121.02320313 174.28679687 -121.03515625 175.46484375 C-121.04453288 176.95572754 -121.05363321 178.44661309 -121.0625 179.9375 C-121.07087891 180.69224609 -121.07925781 181.44699219 -121.08789062 182.22460938 C-121.09652441 184.14994313 -121.05224333 186.07535581 -121 188 C-119.88652404 189.33996932 -119.88652404 189.33996932 -117.04077148 189.11352539 C-115.74727783 189.10828857 -114.45378418 189.10305176 -113.12109375 189.09765625 C-112.4344313 189.0962413 -111.74776886 189.09482635 -111.04029846 189.09336853 C-108.83932199 189.08775479 -106.63844591 189.07520007 -104.4375 189.0625 C-102.94856917 189.05748676 -101.45963676 189.05292355 -99.97070312 189.04882812 C-96.31373195 189.03863021 -92.65697883 189.01905779 -89 189 C-89 193.62 -89 198.24 -89 203 C-99.56 203 -110.12 203 -121 203 C-121 208.61 -121 214.22 -121 220 C-122.65 220.33 -124.3 220.66 -126 221 C-128.2319521 221.99191549 -128.2319521 221.99191549 -130.390625 223.25 C-131.18210937 223.6934375 -131.97359375 224.136875 -132.7890625 224.59375 C-133.60117187 225.0578125 -134.41328125 225.521875 -135.25 226 C-136.07757813 226.4640625 -136.90515625 226.928125 -137.7578125 227.40625 C-141.60438784 229.39110086 -141.60438784 229.39110086 -145 232 C-145.08847743 234.52094076 -145.11527301 237.01430893 -145.09765625 239.53515625 C-145.0962413 240.28840683 -145.09482635 241.04165741 -145.09336853 241.81773376 C-145.08775376 244.2326956 -145.07519883 246.64756601 -145.0625 249.0625 C-145.0574869 250.69596221 -145.05292366 252.32942586 -145.04882812 253.96289062 C-145.03862875 257.9753243 -145.01905645 261.98755936 -145 266 C-137.41 266 -129.82 266 -122 266 C-122.4021875 262.65875 -122.4021875 262.65875 -122.8125 259.25 C-122.86051265 256.13837135 -122.44782472 253.77482958 -121 251 C-115.77822659 246.19248814 -109.0533078 243.26744134 -102.671875 240.29980469 C-99.36060362 238.68894862 -96.26644115 236.79311787 -93.16796875 234.80712891 C-90.09087984 233.66153702 -88.14966705 234.17043031 -85 235 C-82.28686523 236.27514648 -82.28686523 236.27514648 -79.55859375 237.87109375 C-78.56279297 238.44537109 -77.56699219 239.01964844 -76.54101562 239.61132812 C-75.51685547 240.21396484 -74.49269531 240.81660156 -73.4375 241.4375 C-71.39614691 242.62647619 -69.35323131 243.81277467 -67.30859375 244.99609375 C-66.40939209 245.52388428 -65.51019043 246.0516748 -64.58374023 246.59545898 C-61.66653436 248.24662763 -61.66653436 248.24662763 -57 250 C-57 255.28 -57 260.56 -57 266 C-22.35 266 12.3 266 48 266 C48.33 260.72 48.66 255.44 49 250 C53.4375 246.625 53.4375 246.625 56.4140625 245.44140625 C59.35693449 244.25848712 61.81396148 243.00957368 64.5234375 241.40234375 C65.31306885 240.93554199 66.1027002 240.46874023 66.91625977 239.98779297 C68.49061501 239.05136037 70.06154528 238.10914088 71.62866211 237.16064453 C74.92635166 235.26914774 77.18840167 234.02091748 81.03125 233.921875 C85.06654803 235.38732534 88.54873944 237.42770763 92.1875 239.6875 C98.70178188 243.66406536 105.28354305 247.33647803 112 251 C112.33 265.85 112.66 280.7 113 296 C111.35 296.33 109.7 296.66 108 297 C106.26101099 297.80956439 104.55297056 298.68772955 102.875 299.6171875 C101.92109375 300.14183594 100.9671875 300.66648437 99.984375 301.20703125 C98.99953125 301.75746094 98.0146875 302.30789063 97 302.875 C96.01515625 303.41769531 95.0303125 303.96039063 94.015625 304.51953125 C88.62581683 307.47141604 88.62581683 307.47141604 83.4296875 310.74267578 C81 312 81 312 78.95629883 311.8215332 C76.80928582 310.91991099 74.75622453 309.94874225 72.69921875 308.85546875 C71.88646484 308.42556641 71.07371094 307.99566406 70.23632812 307.55273438 C69.39521484 307.10220703 68.55410156 306.65167969 67.6875 306.1875 C66.85798828 305.74857422 66.02847656 305.30964844 65.17382812 304.85742188 C61.42875732 302.86813012 57.72436617 300.84778071 54.08203125 298.67578125 C51.14542614 296.76115925 51.14542614 296.76115925 48 297 C48 291.72 48 286.44 48 281 C13.35 281 -21.3 281 -57 281 C-57.33 285.95 -57.66 290.9 -58 296 C-60.62036133 299.06396484 -60.62036133 299.06396484 -64.08203125 300.7109375 C-64.69261887 301.02028229 -65.30320648 301.32962708 -65.93229675 301.64834595 C-67.8703938 302.61386284 -69.83531345 303.4928073 -71.8125 304.375 C-73.1256167 305.01559217 -74.43620596 305.6613927 -75.74414062 306.3125 C-79.12540013 307.96943696 -82.5225 309.55233506 -86 311 C-86.65097656 311.28311035 -87.30195313 311.5662207 -87.97265625 311.85791016 C-93.05358789 312.21401591 -98.62241549 308.32806223 -103.06420898 306.06347656 C-104.47278285 305.35797492 -105.89401897 304.67717655 -107.3269043 304.02246094 C-118.93461217 298.71470295 -118.93461217 298.71470295 -120.73297119 294.13232422 C-121.66001989 289.55871994 -121.29421579 285.79382788 -121 281 C-128.92 281 -136.84 281 -145 281 C-145 300.14 -145 319.28 -145 339 C-120.91 339 -96.82 339 -72 339 C-72 352.86 -72 366.72 -72 381 C-96.09 381 -120.18 381 -145 381 C-145 399.48 -145 417.96 -145 437 C-137.08 437 -129.16 437 -121 437 C-121 431.72 -121 426.44 -121 421 C-119.35 420.34 -117.7 419.68 -116 419 C-114.33989002 418.15239913 -112.69462582 417.27530977 -111.0625 416.375 C-110.11246094 415.85550781 -109.16242188 415.33601563 -108.18359375 414.80078125 C-105.87825127 413.49677771 -103.60973134 412.16779254 -101.34765625 410.79296875 C-100.72947021 410.42316895 -100.11128418 410.05336914 -99.47436523 409.67236328 C-98.26197416 408.94476859 -97.05667066 408.20520154 -95.85961914 407.45263672 C-93.40477665 405.98856795 -91.52119926 405.00430032 -88.6328125 404.98046875 C-84.62420148 406.53276471 -80.97194274 408.61081032 -77.25 410.75 C-76.48945313 411.18054688 -75.72890625 411.61109375 -74.9453125 412.0546875 C-71.78740036 413.84238692 -68.63325363 415.6363835 -65.48632812 417.44335938 C-64.27879883 418.12881836 -64.27879883 418.12881836 -63.046875 418.828125 C-62.31823242 419.24481445 -61.58958984 419.66150391 -60.83886719 420.09082031 C-59.04308591 421.14773675 -59.04308591 421.14773675 -57 421 C-57 426.28 -57 431.56 -57 437 C-22.68 437 11.64 437 47 437 C47.33 432.05 47.66 427.1 48 422 C50.84175872 419.14786989 51.88633797 418.31012074 55.375 416.9375 C56.09582764 416.5964624 56.81665527 416.2554248 57.55932617 415.90405273 C59.00853121 415.21935212 60.46824259 414.55641206 61.93798828 413.91699219 C64.82507748 412.63308181 67.55835396 411.10777925 70.3125 409.5625 C71.15425781 409.11003906 71.99601562 408.65757812 72.86328125 408.19140625 C74.62388489 407.20971684 76.32275516 406.11816323 78 405 C82.72466612 405.23087374 86.29917894 407.79101983 90.1875 410.25 C97.56436828 414.7977177 104.94034136 418.77613654 113 422 C112.67 436.85 112.34 451.7 112 467 C104.08 471.29 96.16 475.58 88 480 C88 485.28 88 490.56 88 496 C90.2275 496.309375 90.2275 496.309375 92.5 496.625 C99.40118735 498.00328246 103.67274 501.48900895 108.375 506.5625 C112.30741418 512.46112126 112.90102296 518.06119436 112 525 C109.54188486 532.45874422 105.83517443 536.97667585 99.23828125 541.1015625 C93.65903459 543.34105069 86.20787792 542.87532793 80.48046875 541.3125 C74.64065995 538.63266422 70.3757739 533.99649482 68 528 C67.24225068 521.22013765 66.6787443 514.33717241 70.5 508.4375 C74.99380032 500.73010991 75.03435488 489.5374128 73 481 C70.00395152 476.94618631 66.6480349 475.69885956 62 474 C59.80429411 472.86997083 57.61648278 471.7244485 55.4375 470.5625 C51.87435422 468.63347609 51.87435422 468.63347609 48 468 C48 462.39 48 456.78 48 451 C13.35 451 -21.3 451 -57 451 C-57 456.61 -57 462.22 -57 468 C-58.65 468.33 -60.3 468.66 -62 469 C-64.30961524 469.97930498 -64.30961524 469.97930498 -66.57421875 471.21484375 C-67.40630859 471.65376953 -68.23839844 472.09269531 -69.09570312 472.54492188 C-69.95099609 473.00447266 -70.80628906 473.46402344 -71.6875 473.9375 C-72.55439453 474.39318359 -73.42128906 474.84886719 -74.31445312 475.31835938 C-78.97208044 477.71948833 -78.97208044 477.71948833 -83 481 C-83.50789209 484.5398662 -83.41679862 488.11536259 -83.4375 491.6875 C-83.48680664 493.15993164 -83.48680664 493.15993164 -83.53710938 494.66210938 C-83.58791237 501.54822508 -82.45364571 504.76404981 -78 510 C-75.9003962 516.2988114 -75.78939891 524.32245657 -78.5625 530.4375 C-81.60558235 535.55984146 -86.43951268 539.82115656 -92 542 C-99.38425093 542.86392098 -106.27793004 543.12283247 -112.38671875 538.4921875 C-117.21685369 534.02460506 -120.59580748 529.67063206 -121.3359375 522.94921875 C-121.41799785 516.09717925 -121.27699472 510.57465875 -117 505 C-110.98576065 498.98576065 -105.34661396 497.19237342 -97 496 C-97 490.72 -97 485.44 -97 480 C-100.62227347 477.99491947 -104.24759072 475.99574934 -107.875 474 C-108.90753906 473.42765625 -109.94007813 472.8553125 -111.00390625 472.265625 C-111.99003906 471.72421875 -112.97617187 471.1828125 -113.9921875 470.625 C-114.90339355 470.12226562 -115.81459961 469.61953125 -116.75341797 469.1015625 C-118.8822724 467.85324905 -118.8822724 467.85324905 -121 468 C-121 462.39 -121 456.78 -121 451 C-128.92 451 -136.84 451 -145 451 C-145 461.56 -145 472.12 -145 483 C-171.07 483 -197.14 483 -224 483 C-224 491.58 -224 500.16 -224 509 C-212.90729889 515.65562067 -201.67957416 521.70313096 -190.1003418 527.44140625 C-168.9644837 537.95601828 -147.98621074 548.87599592 -127.23046875 560.12109375 C-114.26633432 567.1428687 -101.23600725 574.00028227 -88.11312866 580.71905518 C-78.51114733 585.63765125 -68.99333651 590.67677768 -59.54980469 595.89501953 C-52.97590312 599.51178978 -46.30262845 602.88306702 -39.57104492 606.19506836 C-30.28246449 610.79439439 -21.22069033 615.80686744 -12.15625 620.83007812 C-11.4446875 621.21615234 -10.733125 621.60222656 -10 622 C-9.3296875 622.40154297 -8.659375 622.80308594 -7.96875 623.21679688 C-5.39693748 624.2399088 -4.58314313 623.99679676 -2 623 C0.44847737 621.83725193 2.85390434 620.64300139 5.2578125 619.39453125 C5.96090546 619.03284348 6.66399841 618.6711557 7.38839722 618.29850769 C8.87716711 617.53135805 10.36486576 616.76212643 11.8515625 615.9909668 C14.09349452 614.82883129 16.3393855 613.67465839 18.5859375 612.52148438 C27.44630328 607.96197753 27.44630328 607.96197753 36.0546875 602.94921875 C40.77686389 600.03970057 45.68538535 597.60278867 50.65460205 595.15135193 C58.39000849 591.33174328 66.00713525 587.29770515 73.625 583.25 C75.1247482 582.45490092 76.62450417 581.65981649 78.12426758 580.86474609 C87.21471067 576.04013202 96.26805816 571.15237781 105.28759766 566.19628906 C112.61033875 562.18333226 120.00955618 558.32640613 127.42358398 554.48535156 C133.74801732 551.20006972 140.01104873 547.81937197 146.25 544.375 C157.51708478 538.16171947 168.97110984 532.31845535 180.44238281 526.49365234 C188.50952644 522.38521039 196.43292349 518.12186652 204.2421875 513.54003906 C207 512 207 512 210 511 C210 501.76 210 492.52 210 483 C183.93 483 157.86 483 131 483 C131 469.14 131 455.28 131 441 C157.07 441 183.14 441 210 441 C210 421.2 210 401.4 210 381 C161.49 381 112.98 381 63 381 C63 367.14 63 353.28 63 339 C111.51 339 160.02 339 210 339 C210 280.59 210 222.18 210 162 C205.38 159.69 200.76 157.38 196 155 C189.3125 150.9375 189.3125 150.9375 186.42578125 149.08984375 C178.63480533 144.22199181 170.35244604 140.11433711 162.24804688 135.80078125 C151.32600069 129.9830079 140.48429208 124.05822029 129.73657227 117.92236328 C121.52139514 113.25142178 113.20326914 108.784095 104.86383057 104.34085083 C97.13237245 100.22152014 89.43405889 96.05396185 81.79248047 91.77001953 C75.34105253 88.16389734 68.82781977 84.67654463 62.3125 81.1875 C52.96699914 76.1811029 43.71620644 71.03394191 34.51123047 65.77441406 C26.62469986 61.29414959 18.61371167 57.07806008 10.53442383 52.95654297 C3.03081078 49.10829502 3.03081078 49.10829502 -0.46484375 46.66015625 C-4.60489064 43.94903156 -6.67391056 45.16876452 -10.68359375 47.4140625 Z " fill="#010101" transform="translate(504,185)"/>
<path d="M0 0 C2.6278047 1.23780292 5.18845693 2.54013599 7.73999023 3.9284668 C9.20178711 4.72172363 9.20178711 4.72172363 10.69311523 5.53100586 C11.7256543 6.09529297 12.75819336 6.65958008 13.82202148 7.2409668 C14.89194336 7.82330078 15.96186523 8.40563477 17.06420898 9.00561523 C25.56824124 13.64117642 34.04961504 18.31666914 42.5012207 23.04711914 C44.75409965 24.30788568 47.00879143 25.56537733 49.26342773 26.82299805 C50.74142789 27.64957859 52.21929761 28.47639244 53.69702148 29.3034668 C54.38280273 29.68599609 55.06858398 30.06852539 55.77514648 30.46264648 C60.51926645 33.12571177 60.51926645 33.12571177 61.63452148 34.2409668 C61.729582 36.79686568 61.7600891 39.32564651 61.74804688 41.88183594 C61.7481929 42.68177475 61.74833893 43.48171356 61.74848938 44.30589294 C61.74779004 46.96266344 61.73999667 49.61936472 61.73217773 52.27612305 C61.73031363 54.1131537 61.72888969 55.95018486 61.72789001 57.78721619 C61.72406423 62.63206342 61.71423344 67.47688087 61.70318604 72.32171631 C61.6929732 77.26159258 61.68839267 82.20147365 61.68334961 87.14135742 C61.67261123 96.84124033 61.65553409 106.54110109 61.63452148 116.2409668 C48.88521918 123.55168698 36.11307684 130.80884728 23.23730469 137.89501953 C18.4492403 140.53714593 13.67489111 143.17434043 9.01733398 146.04174805 C8.37401123 146.43330078 7.73068848 146.82485352 7.06787109 147.22827148 C5.47934925 148.20657524 3.905645 149.20883686 2.33374023 150.21362305 C-1.30838968 151.59984615 -2.78143489 150.64341865 -6.36547852 149.2409668 C-8.26745319 148.31568182 -10.14751967 147.34433358 -12.00610352 146.3347168 C-13.06796875 145.76060059 -14.12983398 145.18648437 -15.22387695 144.5949707 C-16.34310547 143.98314941 -17.46233398 143.37132812 -18.61547852 142.7409668 C-19.77337891 142.1123877 -20.9312793 141.48380859 -22.12426758 140.83618164 C-62.95172884 118.65471647 -62.95172884 118.65471647 -65.36547852 116.2409668 C-65.55085698 113.73975586 -65.67130883 111.26417397 -65.7487793 108.75878906 C-65.7762323 107.97491318 -65.8036853 107.19103729 -65.83197021 106.38340759 C-66.07239591 99.12485408 -66.21543903 91.86409115 -66.32841682 84.60254002 C-66.40579107 79.72376047 -66.51531904 74.85050012 -66.70288086 69.97460938 C-66.88343332 65.25903852 -66.97923764 60.5485247 -67.01733017 55.82972527 C-67.04608192 54.03700856 -67.10434906 52.24449948 -67.19345474 50.45376778 C-67.73371931 39.08513091 -67.73371931 39.08513091 -65.36547852 34.2409668 C-61.24803896 29.9363672 -55.88401771 27.50940784 -50.48521996 25.17774105 C-47.37725435 23.80424233 -44.47005243 22.14991625 -41.51000977 20.4831543 C-39.40093878 19.35774338 -37.29026875 18.23532381 -35.17797852 17.1159668 C-27.07893764 12.79260824 -19.02709703 8.42281907 -11.09985352 3.79174805 C-10.19750977 3.27999023 -9.29516602 2.76823242 -8.36547852 2.2409668 C-7.36000977 1.63639648 -6.35454102 1.03182617 -5.31860352 0.40893555 C-2.36547852 -0.7590332 -2.36547852 -0.7590332 0 0 Z " fill="#020201" transform="translate(501.365478515625,277.759033203125)"/>
<path d="M0 0 C2.93996445 1.35221072 5.74657881 2.84126813 8.5715332 4.42016602 C9.70139648 5.04987305 10.83125977 5.67958008 11.99536133 6.32836914 C13.18093871 6.99302827 14.36648558 7.65774183 15.55200195 8.32250977 C16.6831543 8.95350586 17.81430664 9.58450195 18.97973633 10.23461914 C27.91177703 15.22146553 36.82533559 20.24130437 45.73950195 25.26000977 C45.97162713 33.10920939 46.14908781 40.95759993 46.25762367 48.80937386 C46.30973107 52.45593939 46.38033216 56.100151 46.49389648 59.74536133 C46.60289909 63.26635516 46.6624067 66.78509275 46.68827438 70.30764389 C46.71563585 72.29912645 46.79365732 74.28970501 46.87246704 76.27981567 C46.87793284 85.11421497 46.87793284 85.11421497 43.69665527 88.31607056 C41.10664762 89.89387472 38.538718 91.09984955 35.73950195 92.26000977 C34.49553424 92.93758506 33.25995419 93.6310255 32.03735352 94.34643555 C30.91296875 94.95986816 29.78858398 95.57330078 28.63012695 96.20532227 C27.36839126 96.89669759 26.106673 97.58810474 24.8449707 98.27954102 C22.90809925 99.33785191 20.97073195 100.39524497 19.03295898 101.4519043 C17.12657554 102.49240216 15.22203708 103.53621823 13.31762695 104.58032227 C12.19775391 105.19149902 11.07788086 105.80267578 9.92407227 106.43237305 C6.67428269 108.21580786 6.67428269 108.21580786 3.64086914 110.55249023 C0.73950195 112.26000977 0.73950195 112.26000977 -1.75952148 112.19921875 C-4.74178063 111.0792704 -7.46994193 109.74437311 -10.27612305 108.23266602 C-10.85021912 107.92485703 -11.42431519 107.61704803 -12.01580811 107.2999115 C-13.23445705 106.64476782 -14.45140709 105.98645537 -15.66674805 105.32519531 C-18.05373365 104.02708225 -20.44993251 102.74645761 -22.8467865 101.4666748 C-24.06150736 100.80421746 -25.26676751 100.12414472 -26.4624176 99.42785645 C-29.89208746 97.4419448 -33.17831352 95.89516188 -36.93603516 94.61938477 C-41.92937726 92.71296024 -46.19027416 90.79459032 -49.26049805 86.26000977 C-51.91630634 76.97878837 -50.93947196 66.83680197 -50.42779541 57.29608154 C-50.25264259 53.68417945 -50.17599694 50.07026231 -50.09057617 46.45532227 C-49.90921175 39.38526636 -49.61985794 32.32344244 -49.26049805 25.26000977 C-48.66082214 24.93413376 -48.06114624 24.60825775 -47.44329834 24.27250671 C-36.42257045 18.2806412 -25.40947102 12.28383602 -14.51049805 6.07250977 C-12.57843199 4.97445645 -10.64615215 3.87677918 -8.71362305 2.77954102 C-7.90054688 2.31652588 -7.0874707 1.85351074 -6.24975586 1.37646484 C-2.39833752 -0.78511297 -2.39833752 -0.78511297 0 0 Z " fill="#020201" transform="translate(501.260498046875,485.739990234375)"/>
<path d="M0 0 C0.85198975 0.46937988 1.70397949 0.93875977 2.58178711 1.42236328 C3.55825195 1.95603516 4.5347168 2.48970703 5.54077148 3.03955078 C6.55333008 3.60158203 7.56588867 4.16361328 8.60913086 4.74267578 C10.04095703 5.52771484 10.04095703 5.52771484 11.50170898 6.32861328 C14.85364083 8.16837911 18.19988153 10.01849911 21.54663086 11.86767578 C28.14663086 15.49767578 34.74663086 19.12767578 41.54663086 22.86767578 C41.54663086 42.99767578 41.54663086 63.12767578 41.54663086 83.86767578 C33.95663086 87.82767578 26.36663086 91.78767578 18.54663086 95.86767578 C14.45318341 98.08227685 10.36659614 100.29926995 6.29663086 102.55517578 C4.48017644 103.56134906 2.66252575 104.56536672 0.84350586 105.56689453 C0.08392578 105.98801514 -0.6756543 106.40913574 -1.45825195 106.84301758 C-3.45336914 107.86767578 -3.45336914 107.86767578 -6.45336914 108.86767578 C-9.06274414 107.77880859 -9.06274414 107.77880859 -12.20336914 106.07080078 C-12.77555176 105.76253357 -13.34773438 105.45426636 -13.93725586 105.13665771 C-15.78121034 104.13967786 -17.61706296 103.12865952 -19.45336914 102.11767578 C-21.22245279 101.16084672 -22.99292417 100.20666592 -24.76435852 99.25419617 C-25.98995481 98.5813414 -27.20590694 97.89066065 -28.41227722 97.18391418 C-32.06151073 95.06095223 -35.60918955 93.40347527 -39.58740234 91.97583008 C-45.0235208 89.81798899 -49.89315101 87.66808149 -53.45336914 82.86767578 C-56.37304137 73.76168729 -55.33468884 63.72671801 -54.75799561 54.29864502 C-54.56202654 50.75414776 -54.47653465 47.20706644 -54.38110352 43.65869141 C-54.17854965 36.72200855 -53.85529001 29.79559437 -53.45336914 22.86767578 C-52.55631004 22.37984367 -52.55631004 22.37984367 -51.64112854 21.88215637 C-37.89767394 14.41879159 -37.89767394 14.41879159 -24.23071289 6.81689453 C-23.24135742 6.26453125 -22.25200195 5.71216797 -21.23266602 5.14306641 C-19.26587748 4.04409797 -17.30530546 2.93395726 -15.34985352 1.81494141 C-14.38241211 1.27933594 -13.4149707 0.74373047 -12.41821289 0.19189453 C-11.57895264 -0.28159424 -10.73969238 -0.75508301 -9.875 -1.24291992 C-6.04662749 -2.64898515 -3.60235483 -1.66262531 0 0 Z " fill="#020201" transform="translate(505.453369140625,654.13232421875)"/>
<path d="M0 0 C4.21051918 1.20255117 7.98279792 3.54002962 11.796875 5.66015625 C12.43111389 6.0100914 13.06535278 6.36002655 13.71881104 6.7205658 C15.05077638 7.45628299 16.38196152 8.19341428 17.71240234 8.93188477 C19.75553874 10.06557332 21.8013866 11.19424417 23.84765625 12.32226562 C25.1433913 13.03876937 26.43896985 13.75555623 27.734375 14.47265625 C28.65461456 14.98047386 28.65461456 14.98047386 29.59344482 15.49855042 C33.8842487 17.8842487 33.8842487 17.8842487 35 19 C35.0928726 20.41225046 35.11746772 21.82908934 35.11352539 23.24438477 C35.11341209 24.59567223 35.11341209 24.59567223 35.11329651 25.97425842 C35.10813522 26.95341721 35.10297394 27.93257599 35.09765625 28.94140625 C35.0962413 29.93881332 35.09482635 30.9362204 35.09336853 31.96385193 C35.08775114 35.16343124 35.07519571 38.36294169 35.0625 41.5625 C35.05748724 43.72591045 35.05292395 45.88932199 35.04882812 48.05273438 C35.03777607 53.36851325 35.02102104 58.68425171 35 64 C34.27820557 64.2995459 33.55641113 64.5990918 32.81274414 64.90771484 C19.50545272 69.92309718 19.50545272 69.92309718 9.76513672 79.38232422 C8.52953084 84.6702194 9.04869365 89.70241275 10 95 C10.5887793 94.970271 11.17755859 94.94054199 11.78417969 94.90991211 C19.05073481 94.69667067 23.28889882 96.43510586 29 101 C34.63038054 107.10709469 35.3627776 112.66251587 35.2734375 120.703125 C34.74449429 127.08066885 32.30323638 131.05955784 27.625 135.3125 C20.59374749 140.74506773 14.84986976 142.02472176 6 141 C-0.23413011 139.25444357 -4.49690539 135.34740299 -8 130 C-10.92564462 124.59031749 -11.9385135 119.09035355 -11 113 C-8.24793388 104.24793388 -8.24793388 104.24793388 -6 102 C-5.84235595 100.22130274 -5.74899323 98.43681524 -5.68359375 96.65234375 C-5.62075195 95.03295898 -5.62075195 95.03295898 -5.55664062 93.38085938 C-5.51732422 92.24455078 -5.47800781 91.10824219 -5.4375 89.9375 C-5.39431641 88.79732422 -5.35113281 87.65714844 -5.30664062 86.48242188 C-5.20017161 83.65507805 -5.09815793 80.82764262 -5 78 C-5.72541992 77.72293213 -6.45083984 77.44586426 -7.19824219 77.16040039 C-9.85568442 76.059771 -12.31086232 74.82141234 -14.828125 73.43359375 C-15.70984375 72.94826172 -16.5915625 72.46292969 -17.5 71.96289062 C-18.4075 71.45951172 -19.315 70.95613281 -20.25 70.4375 C-21.17296875 69.93025391 -22.0959375 69.42300781 -23.046875 68.90039062 C-29.86414717 65.13585283 -29.86414717 65.13585283 -31 64 C-31.07325436 61.3013095 -31.09222351 58.63497444 -31.0625 55.9375 C-31.041875 53.318125 -31.02125 50.69875 -31 48 C-41.23 48 -51.46 48 -62 48 C-62 43.38 -62 38.76 -62 34 C-51.77 34 -41.54 34 -31 34 C-31 28.39 -31 22.78 -31 17 C-28.02033203 15.41058594 -28.02033203 15.41058594 -24.98046875 13.7890625 C-23.05408285 12.76013511 -21.1279803 11.73067922 -19.2019043 10.70117188 C-17.8646347 9.98675127 -16.52707188 9.27287925 -15.18920898 8.55957031 C-13.2646853 7.53334825 -11.34122965 6.50514881 -9.41796875 5.4765625 C-8.26063232 4.85861816 -7.1032959 4.24067383 -5.91088867 3.60400391 C-2.93458603 2.01724835 -2.93458603 2.01724835 0 0 Z " fill="#030303" transform="translate(646,340)"/>
<path d="M0 0 C0.95504425 -0.01283524 1.9100885 -0.02567047 2.89407349 -0.03889465 C3.93046967 -0.04628159 4.96686584 -0.05366852 6.03466797 -0.0612793 C7.63337234 -0.07338692 7.63337234 -0.07338692 9.26437378 -0.08573914 C11.52567921 -0.09959019 13.78700564 -0.11030775 16.04833984 -0.11816406 C19.49210885 -0.1353249 22.934905 -0.17919676 26.37841797 -0.22338867 C28.57632758 -0.2335201 30.77424535 -0.2420348 32.97216797 -0.2487793 C33.99641876 -0.26628738 35.02066956 -0.28379547 36.07595825 -0.30183411 C42.30167787 -0.28313332 47.27633363 0.43159518 52.40185547 4.17700195 C55.96208681 8.65011313 57.51215501 12.20367732 57.57885742 17.87280273 C57.59811028 19.30041428 57.59811028 19.30041428 57.61775208 20.75686646 C57.62513901 21.78496429 57.63252594 22.81306213 57.64013672 23.87231445 C57.64820847 24.93433075 57.65628021 25.99634705 57.66459656 27.09054565 C57.67843486 29.34167856 57.68915815 31.59283243 57.69702148 33.84399414 C57.71418457 37.26790855 57.75806828 40.69084484 57.80224609 44.11450195 C57.81237773 46.30459904 57.82089236 48.49470432 57.82763672 50.68481445 C57.84514481 51.70076691 57.86265289 52.71671936 57.88069153 53.76345825 C57.85890289 60.99256143 57.07375441 67.4977265 51.76121521 72.82093811 C46.19915191 76.87968038 40.57146672 76.89156291 33.89404297 76.8059082 C32.80979034 76.80832016 31.72553772 76.81073212 30.60842896 76.81321716 C28.32745691 76.81224185 26.04646026 76.79892433 23.765625 76.77392578 C20.28026875 76.73953563 16.79743918 76.75330612 13.31201172 76.77270508 C11.08934472 76.76580823 8.86668422 76.75613731 6.64404297 76.7434082 C5.08760574 76.75084801 5.08760574 76.75084801 3.49972534 76.75843811 C-2.33050619 76.66371816 -6.17395221 76.35494597 -10.59814453 72.17700195 C-16.12571797 66.00437201 -16.3110325 59.98801879 -16.19189453 51.9777832 C-16.19193481 50.82457077 -16.1919751 49.67135834 -16.1920166 48.48320007 C-16.18667611 46.05677815 -16.16915697 43.63035581 -16.14013672 41.20410156 C-16.0981587 37.49075559 -16.09908328 33.77921794 -16.10595703 30.06567383 C-16.09546801 27.70303102 -16.08253146 25.34039755 -16.06689453 22.9777832 C-16.06669312 21.86937576 -16.0664917 20.76096832 -16.06628418 19.61897278 C-16.05037231 18.58407211 -16.03446045 17.54917145 -16.01806641 16.48291016 C-16.00964722 15.57660355 -16.00122803 14.67029694 -15.99255371 13.73652649 C-15.0674787 7.73323778 -11.14670641 4.6610068 -6.59814453 1.17700195 C-4.20320849 -0.02046607 -2.67450704 0.03127227 0 0 Z " fill="#040404" transform="translate(761.59814453125,179.822998046875)"/>
<path d="M0 0 C0.95489319 -0.0159874 1.90978638 -0.03197479 2.89361572 -0.04844666 C3.91968933 -0.05380936 4.94576294 -0.05917206 6.00292969 -0.06469727 C7.59738922 -0.07823997 7.59738922 -0.07823997 9.22406006 -0.09205627 C11.47340072 -0.1065597 13.72278358 -0.11544574 15.97216797 -0.11914062 C19.39851869 -0.13101244 22.82305402 -0.18017873 26.24902344 -0.23071289 C28.43781676 -0.24018034 30.62662112 -0.24741383 32.81542969 -0.25219727 C34.34239471 -0.28149574 34.34239471 -0.28149574 35.90020752 -0.31138611 C42.59028337 -0.26935987 47.08773188 0.83679063 52.17480469 5.30639648 C57.25002204 10.59628623 56.77239075 16.26936826 56.74121094 23.20483398 C56.74740952 24.35376129 56.75360809 25.5026886 56.75999451 26.68643188 C56.76708533 29.11215367 56.76393165 31.5379242 56.7512207 33.96362305 C56.73737679 37.66213278 56.77141564 41.35810105 56.80957031 45.05639648 C56.81052178 47.41837627 56.80866122 49.7803592 56.80371094 52.14233398 C56.81696915 53.24153168 56.83022736 54.34072937 56.84388733 55.47323608 C56.76114827 62.34639501 55.83393946 67.09989393 51.17480469 72.30639648 C46.02376749 77.13289877 41.03079286 76.87793632 34.33496094 76.80249023 C33.29464218 76.80394547 32.25432343 76.8054007 31.18247986 76.80690002 C28.987917 76.80524408 26.79334217 76.79371703 24.59887695 76.77294922 C21.25193571 76.74402293 17.90658259 76.75234215 14.55957031 76.76538086 C12.42219287 76.75914196 10.2848204 76.75074985 8.14746094 76.73999023 C6.65497581 76.74439369 6.65497581 76.74439369 5.13233948 76.74888611 C-2.26547995 76.64917821 -6.86016563 75.73810605 -12.71899414 70.93310547 C-16.30503678 66.14195722 -15.55721033 59.98803915 -15.52441406 54.27905273 C-15.53156937 53.01677353 -15.53872467 51.75449432 -15.5460968 50.45396423 C-15.55387233 47.78776296 -15.55132921 45.12391385 -15.53198242 42.45800781 C-15.50911071 39.05683129 -15.53586591 35.65815582 -15.57704449 32.25722599 C-15.60890395 28.99362937 -15.59561741 25.73025468 -15.58691406 22.46655273 C-15.6021965 21.25282486 -15.61747894 20.03909698 -15.63322449 18.78858948 C-15.54481028 12.35529905 -15.13440736 8.24124143 -10.50154114 3.57029724 C-7.0204164 0.94566208 -4.35891276 0.05537881 0 0 Z " fill="#020202" transform="translate(190.8251953125,179.693603515625)"/>
<path d="M0 0 C1.98579539 -0.00082969 3.9715907 -0.00329284 5.9573822 -0.00730896 C10.10729793 -0.01015895 14.25667155 0.00445747 18.40649414 0.03198242 C23.7114609 0.06608585 29.01546041 0.0600318 34.32047367 0.04131985 C38.41702766 0.03072546 42.51335861 0.03970948 46.60989189 0.05470467 C48.56540705 0.05986752 50.52094567 0.05942784 52.4764576 0.05315971 C55.2140586 0.04767705 57.95029849 0.06817876 60.68774414 0.09545898 C61.486409 0.08893311 62.28507385 0.08240723 63.10794067 0.07568359 C69.60175498 0.18508928 74.79183207 2.10653903 79.73828125 6.375 C84.38881195 12.19488379 86.19971104 16.5193517 86.03125 24.06640625 C85.23181402 30.54085076 81.71457001 35.55936162 76.71484375 39.62890625 C71.26003994 42.45025148 66.96607162 43.06745948 60.87719727 43.03295898 C59.59283783 43.04325386 59.59283783 43.04325386 58.28253174 43.05375671 C55.46943286 43.071966 52.65689482 43.06819565 49.84375 43.0625 C47.87751587 43.06706459 45.91128333 43.07237099 43.9450531 43.0783844 C39.83040879 43.08730396 35.71595869 43.08490547 31.60131836 43.07495117 C26.34118795 43.06346262 21.08172898 43.08367729 15.82168674 43.11286831 C11.76291175 43.13125713 7.70429687 43.1309325 3.64549065 43.12523079 C1.70670568 43.12507791 -0.23209036 43.13109489 -2.17083549 43.14352226 C-4.88701796 43.15848138 -7.60196998 43.14771946 -10.31811523 43.13061523 C-11.11057144 43.1402832 -11.90302765 43.14995117 -12.71949768 43.15991211 C-19.20039045 43.07490409 -24.37445681 41.14064882 -29.30859375 36.8828125 C-34.38039999 30.53572549 -35.95688606 25.77363023 -35.28515625 17.62890625 C-33.95681306 10.9871903 -31.46556353 6.86206903 -25.90063477 3.01977539 C-18.06795732 -1.20246395 -8.6400626 -0.06532449 0 0 Z " fill="#030303" transform="translate(729.28515625,779.37109375)"/>
<path d="M0 0 C1.17909943 -0.01248528 1.17909943 -0.01248528 2.38201904 -0.02522278 C4.97380571 -0.0492641 7.5653403 -0.05808847 10.15722656 -0.06469727 C11.96698072 -0.07366937 13.77673414 -0.08279132 15.58648682 -0.09205627 C19.37929076 -0.10853381 23.17200658 -0.1162439 26.96484375 -0.11914062 C31.80802435 -0.12451743 36.65036813 -0.16217352 41.49331284 -0.20788479 C45.23214689 -0.23773569 48.9707816 -0.24486595 52.70972443 -0.24586678 C54.49420242 -0.25005458 56.2786818 -0.26243071 58.06304169 -0.28338432 C76.53576655 -0.48301015 76.53576655 -0.48301015 83.04785156 5.30639648 C88.14695966 10.96375303 89.43134855 15.95266992 89.31347656 23.38842773 C88.7981658 29.04926805 87.26351875 33.43705028 82.84863281 37.16186523 C77.1235024 41.04315332 73.33690846 42.45983222 66.4362793 42.49926758 C65.25783699 42.51153381 65.25783699 42.51153381 64.05558777 42.52404785 C61.44754803 42.5489193 58.83956301 42.56542708 56.23144531 42.57983398 C54.8940414 42.5878195 54.8940414 42.5878195 53.52961922 42.59596634 C48.8054808 42.62271236 44.08136887 42.64207794 39.35717773 42.65649414 C34.49041395 42.673097 29.62433329 42.71783356 24.75782681 42.76886559 C21.00614196 42.80262884 17.25461695 42.81408178 13.50279427 42.81972122 C11.70992915 42.8264144 9.91707384 42.84158589 8.12435722 42.86561203 C-10.16033522 43.09657578 -10.16033522 43.09657578 -16.95214844 37.30639648 C-21.55626696 32.58422364 -23.23912671 27.98197413 -23.26464844 21.43139648 C-23.13197727 15.41697014 -22.64626992 11.17347392 -18.37011719 6.62280273 C-12.6428426 1.41959249 -7.72099326 0.0069856 0 0 Z " fill="#030303" transform="translate(200.9521484375,779.693603515625)"/>
<path d="M0 0 C1.52231987 -0.01913956 1.52231987 -0.01913956 3.07539368 -0.03866577 C4.70519417 -0.04200424 4.70519417 -0.04200424 6.36791992 -0.04541016 C7.49606613 -0.05206696 8.62421234 -0.05872375 9.7865448 -0.06558228 C12.17115654 -0.07569717 14.55579652 -0.08039966 16.94042969 -0.08007812 C20.57494172 -0.08444449 24.20823252 -0.12075974 27.8425293 -0.15869141 C30.1634887 -0.16456124 32.48445385 -0.16852952 34.80541992 -0.17041016 C36.42611137 -0.19196671 36.42611137 -0.19196671 38.07954407 -0.21395874 C45.57353137 -0.16894184 51.33812831 0.82314026 56.84448242 6.36083984 C57.29952148 7.03888672 57.75456055 7.71693359 58.22338867 8.41552734 C58.69647461 9.09873047 59.16956055 9.78193359 59.65698242 10.48583984 C62.75460898 15.43775497 62.28734795 20.58821899 61.78588867 26.29052734 C60.07769841 32.50587022 56.06858968 36.74829859 50.78588867 40.29052734 C47.75016436 41.30243545 45.66891371 41.42887973 42.49169922 41.45166016 C40.8693763 41.46607147 40.8693763 41.46607147 39.21427917 41.48077393 C38.0455275 41.4850238 36.87677582 41.48927368 35.67260742 41.49365234 C34.47029984 41.49935242 33.26799225 41.50505249 32.0292511 41.51092529 C29.48305136 41.5203781 26.93683937 41.52691038 24.390625 41.53076172 C20.49937534 41.54046256 16.60865485 41.57148234 12.7175293 41.60302734 C10.24422514 41.60955789 7.77091721 41.61480816 5.29760742 41.61865234 C4.13492844 41.63099915 2.97224945 41.64334595 1.77433777 41.65606689 C-4.93647048 41.63760704 -9.8479564 41.32582089 -15.04223633 36.64208984 C-19.84461778 30.81062665 -21.71606788 26.50401325 -21.52270508 18.84912109 C-20.70748822 12.09004458 -17.20335878 7.76187441 -12.09301758 3.51708984 C-8.17881632 0.96187322 -4.64441898 0.03984864 0 0 Z " fill="#030302" transform="translate(301.214111328125,189.70947265625)"/>
<path d="M0 0 C1.73229856 0.80037333 3.43354279 1.66999629 5.10546875 2.58984375 C6.08128906 3.12262939 7.05710937 3.65541504 8.0625 4.2043457 C9.09375 4.77628662 10.125 5.34822754 11.1875 5.9375 C12.24582031 6.51781982 13.30414062 7.09813965 14.39453125 7.69604492 C17.60048281 9.45666275 20.80093557 11.22690418 24 13 C24.95084473 13.52561523 25.90168945 14.05123047 26.88134766 14.59277344 C31.9278165 17.38288404 36.96736002 20.18502587 42 23 C42 23.66 42 24.32 42 25 C41.16529175 25.45101074 41.16529175 25.45101074 40.3137207 25.91113281 C37.64527121 27.35489467 34.97886241 28.80238741 32.3125 30.25 C30.83716797 31.04796997 30.83716797 31.04796997 29.33203125 31.86206055 C24.19165713 34.65722093 19.0993947 37.50594629 14.07421875 40.50390625 C12.66885864 41.33583496 12.66885864 41.33583496 11.23510742 42.18457031 C9.44172807 43.25198561 7.6563352 44.33296044 5.88012695 45.42871094 C5.06374756 45.91243164 4.24736816 46.39615234 3.40625 46.89453125 C2.69791016 47.32612549 1.98957031 47.75771973 1.25976562 48.20239258 C-2.71607943 49.60570781 -5.91515975 48.48083574 -9.66210938 46.82006836 C-10.54705078 46.33159424 -11.43199219 45.84312012 -12.34375 45.33984375 C-13.33673096 44.79690674 -14.32971191 44.25396973 -15.3527832 43.69458008 C-16.39136475 43.11474365 -17.42994629 42.53490723 -18.5 41.9375 C-19.56629639 41.35057373 -20.63259277 40.76364746 -21.73120117 40.15893555 C-24.8270537 38.45023915 -27.91520358 36.72856311 -31 35 C-31.8038916 34.54979492 -32.6077832 34.09958984 -33.43603516 33.63574219 C-43.69327446 27.87115036 -43.69327446 27.87115036 -48 25 C-46.54301621 20.62904864 -43.18128903 19.61238685 -39.3125 17.5625 C-38.52681641 17.13654541 -37.74113281 16.71059082 -36.93164062 16.27172852 C-35.21767555 15.34310811 -33.50158527 14.41840241 -31.78369141 13.49707031 C-28.84188568 11.91496606 -25.91026733 10.31516081 -22.98046875 8.7109375 C-19.11393954 6.59403702 -15.24638014 4.47911234 -11.375 2.37109375 C-10.57835937 1.93724365 -9.78171875 1.50339355 -8.9609375 1.05639648 C-5.3335078 -0.89777288 -4.05360039 -1.08989872 0 0 Z " fill="#FBFBF5" transform="translate(503,296)"/>
<path d="M0 0 C8.9409375 -0.12375 8.9409375 -0.12375 18.0625 -0.25 C19.93043213 -0.28641602 21.79836426 -0.32283203 23.72290039 -0.36035156 C25.22280736 -0.37204674 26.72272714 -0.3822366 28.22265625 -0.390625 C28.98574097 -0.41108887 29.74882568 -0.43155273 30.53503418 -0.45263672 C36.15642305 -0.45625816 39.3515133 0.81791872 44 4 C49.3694057 9.72736608 48.28526464 17.33927493 48.35009766 24.73461914 C48.36663691 26.11467374 48.39390131 27.49464339 48.43212891 28.87426758 C48.78738045 41.79152274 48.78738045 41.79152274 45.7890625 46.32421875 C40.6377653 51.26628959 35.98964946 51.28271783 29.19921875 51.1953125 C28.45724243 51.19329834 27.71526611 51.19128418 26.95080566 51.18920898 C24.19630697 51.17879606 21.44189685 51.15087363 18.6875 51.125 C12.520625 51.08375 6.35375 51.0425 0 51 C0 34.17 0 17.34 0 0 Z " fill="#060606" transform="translate(771,313)"/>
<path d="M0 0 C1.05398987 0.00302124 1.05398987 0.00302124 2.12927246 0.00610352 C4.73598832 0.01651069 7.34261059 0.04443307 9.94921875 0.0703125 C18.70453125 0.1321875 18.70453125 0.1321875 27.63671875 0.1953125 C27.63671875 17.0253125 27.63671875 33.8553125 27.63671875 51.1953125 C21.30484375 51.2984375 14.97296875 51.4015625 8.44921875 51.5078125 C6.45866455 51.55333252 4.46811035 51.59885254 2.41723633 51.64575195 C0.83025801 51.6603621 -0.75673911 51.67310153 -2.34375 51.68359375 C-3.56850037 51.7219635 -3.56850037 51.7219635 -4.81799316 51.7611084 C-9.13751252 51.76440725 -10.81295913 51.63407975 -14.30200195 48.85229492 C-17.94501874 44.15645793 -18.69179396 41.263526 -18.734375 35.45703125 C-18.74340347 34.69864456 -18.75243195 33.94025787 -18.76173401 33.15888977 C-18.7762348 31.5542902 -18.78512284 29.94963153 -18.78881836 28.3449707 C-18.80069055 25.9014793 -18.8498501 23.46053466 -18.90039062 21.01757812 C-18.90985837 19.45574144 -18.91709173 17.8938893 -18.921875 16.33203125 C-18.94140732 15.60682785 -18.96093964 14.88162445 -18.98106384 14.13444519 C-18.94774621 10.3486846 -18.43029135 7.7758112 -16.14086914 4.81176758 C-11.07371892 0.03857175 -6.74702728 -0.09183564 0 0 Z " fill="#020202" transform="translate(194.36328125,312.8046875)"/>
<path d="M0 0 C8.971875 -0.12375 8.971875 -0.12375 18.125 -0.25 C20.00203613 -0.28641602 21.87907227 -0.32283203 23.81298828 -0.36035156 C25.31541808 -0.37204362 26.81786064 -0.38223423 28.3203125 -0.390625 C29.08851318 -0.41108887 29.85671387 -0.43155273 30.64819336 -0.45263672 C35.89946992 -0.45601918 38.89749288 0.43832835 43 4 C46.54606633 8.28142912 47.50502672 11.19739524 47.49609375 16.71875 C47.49673828 17.98074219 47.49738281 19.24273438 47.49804688 20.54296875 C47.47806641 21.84878906 47.45808594 23.15460937 47.4375 24.5 C47.44458984 25.80582031 47.45167969 27.11164062 47.45898438 28.45703125 C47.41649843 34.85606798 47.36063601 39.39307851 44 45 C38.80403774 49.68903911 35.53331566 50.14191215 28.7109375 50.09765625 C27.62292847 50.09614563 27.62292847 50.09614563 26.51293945 50.09460449 C23.80027691 50.08936769 21.08763689 50.07540644 18.375 50.0625 C9.279375 50.0315625 9.279375 50.0315625 0 50 C0 33.5 0 17 0 0 Z " fill="#020202" transform="translate(772,627)"/>
<path d="M0 0 C0.74499756 0.00100708 1.48999512 0.00201416 2.25756836 0.00305176 C5.0441237 0.00828911 7.83065712 0.02225036 10.6171875 0.03515625 C19.9603125 0.06609375 19.9603125 0.06609375 29.4921875 0.09765625 C29.4921875 16.59765625 29.4921875 33.09765625 29.4921875 50.09765625 C23.1603125 50.18015625 16.8284375 50.26265625 10.3046875 50.34765625 C8.3141333 50.38407227 6.3235791 50.42048828 4.27270508 50.45800781 C2.68572059 50.46969598 1.09872408 50.47988751 -0.48828125 50.48828125 C-1.71303162 50.51897705 -1.71303162 50.51897705 -2.96252441 50.55029297 C-6.871009 50.55268092 -9.00620928 50.38985877 -12.4465332 48.38574219 C-17.91617853 42.31426097 -16.94834516 34.72017992 -16.98828125 27.00585938 C-17.00770272 24.73548903 -17.06979757 22.46874086 -17.1328125 20.19921875 C-17.30868002 8.03851664 -17.30868002 8.03851664 -13.6015625 3.62109375 C-8.92626919 -0.19233994 -5.83982527 -0.03687272 0 0 Z " fill="#010101" transform="translate(192.5078125,626.90234375)"/>
<path d="M0 0 C5.01705721 -0.07442006 10.03378972 -0.12872908 15.05126953 -0.16479492 C16.75640463 -0.17983738 18.46150132 -0.20027653 20.16650391 -0.22631836 C22.62412012 -0.26290284 25.08122269 -0.27977173 27.5390625 -0.29296875 C28.29555084 -0.30845261 29.05203918 -0.32393646 29.83145142 -0.33988953 C34.62446511 -0.34139733 37.83316268 0.38454536 42 3 C47.66923384 9.28212398 47.24894856 14.55722002 47.29516602 22.63867188 C47.31232382 24.72854048 47.35620219 26.81680334 47.40039062 28.90625 C47.41052311 30.24478007 47.41903748 31.58332356 47.42578125 32.921875 C47.44036377 34.13456055 47.45494629 35.34724609 47.4699707 36.59667969 C46.77181875 41.65238787 44.66110345 44.60976842 40.78417969 47.85449219 C37.00363591 49.40993865 33.47199912 49.3917092 29.453125 49.328125 C28.64131775 49.32625183 27.8295105 49.32437866 26.99310303 49.32244873 C25.28523625 49.31574896 23.57738427 49.30187584 21.86962891 49.28125 C19.24497347 49.24994004 16.62091791 49.24026136 13.99609375 49.234375 C12.33593011 49.22521078 10.67577262 49.21483687 9.015625 49.203125 C8.22714172 49.19887512 7.43865845 49.19462524 6.62628174 49.19024658 C1.11719641 49.11719641 1.11719641 49.11719641 0 48 C-0.09311889 46.49581261 -0.11746028 44.98728644 -0.11352539 43.48022461 C-0.11344986 42.51930405 -0.11337433 41.55838348 -0.11329651 40.56834412 C-0.10813522 39.523564 -0.10297394 38.47878387 -0.09765625 37.40234375 C-0.0962413 36.33834854 -0.09482635 35.27435333 -0.09336853 34.17811584 C-0.08775064 30.76454917 -0.07519511 27.351047 -0.0625 23.9375 C-0.05748731 21.62955824 -0.052924 19.32161545 -0.04882812 17.01367188 C-0.0377754 11.34242574 -0.02101987 5.67121747 0 0 Z " fill="#020303" transform="translate(772,519)"/>
<path d="M0 0 C12.21 0 24.42 0 37 0 C37 19.8 37 39.6 37 60 C24.79 60 12.58 60 0 60 C0 40.2 0 20.4 0 0 Z " fill="#F7F8F2" transform="translate(280,566)"/>
<path d="M0 0 C0.7233252 0.00201416 1.44665039 0.00402832 2.19189453 0.00610352 C4.88320291 0.01653494 7.5744206 0.04445754 10.265625 0.0703125 C16.288125 0.1115625 22.310625 0.1528125 28.515625 0.1953125 C28.515625 16.3653125 28.515625 32.5353125 28.515625 49.1953125 C22.18375 49.2778125 15.851875 49.3603125 9.328125 49.4453125 C7.3375708 49.48172852 5.3470166 49.51814453 3.29614258 49.55566406 C1.70915809 49.56735223 0.12216158 49.57754376 -1.46484375 49.5859375 C-2.68959412 49.6166333 -2.68959412 49.6166333 -3.93908691 49.64794922 C-7.88988215 49.65036302 -9.97207638 49.50464094 -13.4230957 47.42089844 C-17.44115144 43.08255945 -17.80990756 39.59422688 -17.85546875 33.796875 C-17.86449722 33.08429535 -17.8735257 32.3717157 -17.88282776 31.63754272 C-17.89730345 30.13307885 -17.90621034 28.6285524 -17.90991211 27.12402344 C-17.9218029 24.83419597 -17.97100051 22.54707117 -18.02148438 20.2578125 C-18.0309506 18.79167974 -18.03818469 17.32553052 -18.04296875 15.859375 C-18.06250107 15.18105621 -18.08203339 14.50273743 -18.10215759 13.80386353 C-18.06728857 10.09006681 -17.46417728 7.70965404 -15.19946289 4.84130859 C-10.26912781 0.03643748 -6.7543482 -0.08878102 0 0 Z " fill="#020201" transform="translate(193.484375,518.8046875)"/>
<path d="M0 0 C5.5074484 4.84655459 8.92146364 9.80818011 9.4375 17.1875 C9.25336454 23.68639868 6.68400403 29.42043192 1.9921875 33.9296875 C-4.64564222 39.04889935 -10.67998244 40.06454883 -19 39 C-25.74946538 36.26591163 -29.9075925 31.4747282 -33 25 C-35.16647213 18.50058361 -34.27266011 13.14293513 -31.3359375 7.11328125 C-24.4171676 -3.8313226 -11.10227331 -6.10726145 0 0 Z " fill="#060605" transform="translate(214,424)"/>
<path d="M0 0 C4.34459241 2.98690729 7.3819241 6.52650583 9.75 11.203125 C10.7830826 17.83407379 10.85957124 24.40310447 7.3125 30.265625 C3.32598478 35.26977525 -1.38554101 38.58600984 -7.76953125 39.60546875 C-14.07109584 39.84746432 -20.11840372 38.95126051 -24.97265625 34.69140625 C-30.08495721 29.10178972 -32.90591066 23.11668628 -32.59375 15.46875 C-31.59549816 8.88936287 -28.12494086 4.39980904 -22.9609375 0.390625 C-15.92083068 -4.49565918 -7.32637254 -4.19493912 0 0 Z " fill="#040404" transform="translate(803.25,423.796875)"/>
<path d="M0 0 C5.31024137 3.64172291 8.08833681 8.23139723 9.38671875 14.51171875 C9.79873722 20.97337431 7.71597507 25.85245679 3.859375 30.9609375 C-0.72021836 35.87620786 -5.31000618 38.02153035 -11.953125 38.3359375 C-18.59936463 38.18758394 -22.95073123 35.81018113 -27.953125 31.5859375 C-32.75423371 25.82460705 -33.69880222 21.26288072 -33.48828125 13.8671875 C-32.81327069 8.22440257 -30.40914878 5.22946128 -26.390625 1.2109375 C-17.2103268 -5.14465356 -9.8815081 -5.23572444 0 0 Z " fill="#050505" transform="translate(673.140625,194.0390625)"/>
<path d="M0 0 C2.82275936 1.25455972 4.46288541 2.28384722 6.3125 4.75 C7.32815881 8.0739743 7.41796486 10.53686262 7 14 C5.21523759 16.97239241 3.14791945 19.42604027 0 21 C-4.14135035 21.39069343 -6.31186812 21.43382227 -9.875 19.1875 C-13.15777533 15.80817245 -13.33551665 12.62460765 -13.29296875 8.00390625 C-12.83259178 4.85492778 -11.23099654 3.165379 -9 1 C-5.93570224 -0.53214888 -3.3834358 -0.22938548 0 0 Z " fill="#080808" transform="translate(664,798)"/>
<path d="M0 0 C3.5386994 1.65139305 4.81070153 2.71605229 7 6 C7.76579737 12.67337705 7.76579737 12.67337705 5.94921875 15.8203125 C4.17251621 17.99009082 2.52491118 19.73754441 0 21 C-3.88795111 21.25356203 -6.78463789 21.32836566 -10 19 C-12.91574059 15.45945786 -13.52344517 12.39289437 -13.36328125 7.93359375 C-12.78568163 4.85927317 -11.19864432 3.13397831 -9 1 C-5.93570224 -0.53214888 -3.3834358 -0.22938548 0 0 Z " fill="#060605" transform="translate(339,798)"/>
<path d="M0 0 C3.78858341 0.97674416 5.40719666 2.54338702 8 5.515625 C9.19389536 9.44845677 9.44799464 11.47816372 7.8125 15.265625 C3.83297971 20.20571915 3.83297971 20.20571915 0.10546875 20.8359375 C-3.62375321 21.04350087 -5.40874966 20.97043295 -8.4375 18.640625 C-10.903968 15.28622853 -11.41285457 12.84005519 -11.3359375 8.625 C-10.37467993 2.58919663 -6.18540637 -0.51545053 0 0 Z " fill="#070706" transform="translate(793,697.484375)"/>
<path d="M0 0 C4.75084227 0.39590352 6.95411777 2.12423257 10.0625 5.6875 C11.1875 9.125 11.1875 9.125 11.0625 12.6875 C9.33830377 15.83861726 7.59243681 18.15756319 5.0625 20.6875 C2.02485384 21.19181963 -0.89439139 21.13692707 -3.9375 20.6875 C-6.96965675 18.48918636 -7.75404398 17.23786806 -8.9375 13.6875 C-9.44221432 9.22919018 -9.21831782 7.17015563 -6.9375 3.25 C-3.9375 0.6875 -3.9375 0.6875 0 0 Z " fill="#070706" transform="translate(790.9375,587.3125)"/>
<path d="M0 0 C4.04212164 2.47018545 5.67811019 3.93965709 7.0625 8.5 C6.99255562 12.4168851 6.37742783 13.94330708 4 17 C3.608125 17.598125 3.21625 18.19625 2.8125 18.8125 C0.30877864 20.45286917 -2.0532282 20.52572766 -4.99609375 20.43359375 C-8.32758102 19.71274563 -9.93182154 17.56955506 -12 15 C-12.33 14.67 -12.66 14.34 -13 14 C-13.58968059 6.92383292 -13.58968059 6.92383292 -11.125 3.0625 C-7.52217335 -0.43436116 -4.97275774 -0.49727577 0 0 Z " fill="#070706" transform="translate(206,698)"/>
<path d="M0 0 C2.70567626 1.82339052 4.53728718 3.07457436 6 6 C6.4136968 10.65408901 5.81070393 13.25239476 3 17 C-0.68497796 19.45665197 -3.71971786 19.70086491 -8 19 C-10.8100346 17.20636089 -12.50940468 15.98119065 -14 13 C-14.70153846 5.86769231 -14.70153846 5.86769231 -11.625 2.0625 C-7.30522925 -1.33160559 -5.39764591 -1.18931181 0 0 Z " fill="#090A09" transform="translate(207,482)"/>
<path d="M0 0 C3.66304688 2.51834473 4.75360451 4.20283811 6.0625 8.4375 C5.98541095 12.83157589 4.78058336 14.66329997 2 18 C-1.49202465 19.74601232 -5.18982279 19.55838804 -9 19 C-12.0625 17.0625 -12.0625 17.0625 -14 14 C-15.03945854 9.24941677 -14.669717 6.05858493 -12.0625 1.9375 C-7.95188101 -0.66309569 -4.7405336 -1.05631455 0 0 Z " fill="#090A09" transform="translate(796,737)"/>
<path d="M0 0 C3.4375 1.9375 3.4375 1.9375 6 5 C6.99721718 8.87490103 6.75669996 12.23436676 5.1796875 15.9140625 C3.50564919 18.384147 1.72453422 19.8074023 -1.16015625 20.57421875 C-5.61570586 20.90894284 -7.50263302 20.39586352 -11.0625 17.5625 C-13.31707479 14.23581971 -13.78840516 11.09682932 -13.546875 7.125 C-13 5 -13 5 -10.4375 1.9375 C-6.41915413 -0.32738586 -4.53425456 -0.80968831 0 0 Z " fill="#050504" transform="translate(206,588)"/>
<path d="M0 0 C2.41796875 0.47265625 2.41796875 0.47265625 5.54296875 2.41015625 C8.07112451 6.53947732 8.45085162 9.75212543 7.41796875 14.47265625 C5.48046875 17.53515625 5.48046875 17.53515625 2.41796875 19.47265625 C-2.33261448 20.51211479 -5.52344632 20.14237325 -9.64453125 17.53515625 C-12.26552286 13.39229854 -12.47115608 10.24630702 -11.58203125 5.47265625 C-9.09977704 -0.05600086 -5.59362243 -0.32223231 0 0 Z " fill="#060605" transform="translate(793.58203125,481.52734375)"/>
<path d="M0 0 C2.98826041 0.88840174 3.84447726 1.80693729 5.8125 4.25 C7.32344667 7.74903439 7.1310336 9.38069248 6 13 C2.84745763 17.57627119 2.84745763 17.57627119 0 19 C-4.18144011 19.39447548 -6.30946048 19.45035186 -9.875 17.125 C-12.78710658 14.21289342 -12.96068305 13.3997223 -13.375 9.1875 C-13.31327317 5.7986973 -12.98866791 4.98300186 -11 2 C-6.88157597 -0.74561602 -4.89307732 -0.54367526 0 0 Z " fill="#090907" transform="translate(206,737)"/>
<path d="M0 0 C2 2 2 2 2.24050903 4.25259399 C2.23606781 5.18969208 2.23162659 6.12679016 2.22705078 7.09228516 C2.22689972 8.15323395 2.22674866 9.21418274 2.22659302 10.30728149 C2.21627045 11.45626923 2.20594788 12.60525696 2.1953125 13.7890625 C2.1924826 14.96262299 2.18965271 16.13618347 2.18673706 17.3453064 C2.17551355 21.10530662 2.15040492 24.86507139 2.125 28.625 C2.11497301 31.1692674 2.10584668 33.71353852 2.09765625 36.2578125 C2.07556714 42.5052891 2.04206824 48.75262773 2 55 C1.67 55 1.34 55 1 55 C0.9845388 54.07038704 0.9845388 54.07038704 0.96876526 53.12199402 C0.86073394 46.68205136 0.74613309 40.24224957 0.62768555 33.80249023 C0.58432591 31.39789777 0.5426516 28.99327431 0.50268555 26.58862305 C0.44500811 23.13580984 0.38130615 19.68315281 0.31640625 16.23046875 C0.29969376 15.15226364 0.28298126 14.07405853 0.26576233 12.96318054 C0.24581711 11.96236954 0.22587189 10.96155853 0.20532227 9.93041992 C0.18977798 9.04883713 0.1742337 8.16725433 0.15821838 7.25895691 C0.0825248 4.8322892 0.0825248 4.8322892 -1 2 C-0.67 1.34 -0.34 0.68 0 0 Z " fill="#1A1B16" transform="translate(245,189)"/>
<path d="M0 0 C0.66 0 1.32 0 2 0 C2.94693195 3.7016431 3.30443767 5.39112465 1.5625 8.875 C1.046875 9.57625 0.53125 10.2775 0 11 C-0.66 10.34 -1.32 9.68 -2 9 C-1.34 8.01 -0.68 7.02 0 6 C0.16699232 2.87478167 0.16699232 2.87478167 0 0 Z " fill="#222320" transform="translate(210,742)"/>
<path d="M0 0 C4.92307692 4.30769231 4.92307692 4.30769231 5.3125 7.8125 C5.209375 8.534375 5.10625 9.25625 5 10 C2.66063182 7.87330165 1.19346152 5.93775144 0 3 C0 2.01 0 1.02 0 0 Z " fill="#31322F" transform="translate(208,700)"/>
<path d="M0 0 C4.92307692 4.18461538 4.92307692 4.18461538 5.3125 8.3125 C5.209375 9.199375 5.10625 10.08625 5 11 C4.67 11 4.34 11 4 11 C4 9.35 4 7.7 4 6 C3.34 6 2.68 6 2 6 C1.34 4.02 0.68 2.04 0 0 Z " fill="#3A3A39" transform="translate(208,483)"/>
<path d="M0 0 C0.66 0.33 1.32 0.66 2 1 C-0.36620011 3.61527381 -2.942048 5.26440562 -6 7 C-4.60667426 3.63279613 -3.0210714 2.0140476 0 0 Z " fill="#1C1C19" transform="translate(199,588)"/>
</svg>
