<?xml version="1.0" encoding="UTF-8"?>
<svg version="1.1" xmlns="http://www.w3.org/2000/svg" width="1024" height="1024">
<path d="M0 0 C337.92 0 675.84 0 1024 0 C1024 337.92 1024 675.84 1024 1024 C686.08 1024 348.16 1024 0 1024 C0 686.08 0 348.16 0 0 Z " fill="#12303E" transform="translate(0,0)"/>
<path d="M0 0 C14.19 0 28.38 0 43 0 C43 9.9 43 19.8 43 30 C61.48 30 79.96 30 99 30 C99 20.1 99 10.2 99 0 C113.52 0 128.04 0 143 0 C143.47736881 24.94252057 143.24358521 43.78521795 125.24609375 62.75390625 C117.56975833 70.43024167 109.74372765 76.16194047 99.31225586 79.58496094 C98.50404892 79.8511322 97.69584198 80.11730347 96.86314392 80.39154053 C96.24830643 80.59233215 95.63346893 80.79312378 95 81 C94.99853344 81.64714966 94.99706688 82.29429932 94.99555588 82.96105957 C94.95845883 98.72809763 94.89940597 114.4948789 94.81609726 130.26173401 C94.77633537 137.88656962 94.74392848 145.51130245 94.72900391 153.13623047 C94.71597252 159.78430721 94.68897021 166.43215753 94.64538693 173.08010674 C94.62280518 176.59823028 94.60708732 180.1160749 94.60811615 183.63427734 C94.60900405 187.56761524 94.57869234 191.50038561 94.54589844 195.43359375 C94.55344398 197.17176613 94.55344398 197.17176613 94.56114197 198.9450531 C94.46240568 206.60671007 93.40372549 212.05563802 88.25390625 218.0234375 C87.69574219 218.46945312 87.13757813 218.91546875 86.5625 219.375 C85.72912109 220.06722656 85.72912109 220.06722656 84.87890625 220.7734375 C78.43100599 224.98266969 71.4590312 224.81846836 64 224 C57.65966824 221.70606009 52.76090183 216.69985174 49.88221931 210.65141773 C48.93088132 207.79227105 48.75354278 205.58412612 48.75949097 202.57731628 C48.75674164 201.5018454 48.75399231 200.42637451 48.75115967 199.3183136 C48.75835022 198.14874619 48.76554077 196.97917877 48.77294922 195.77416992 C48.77265717 194.53473633 48.77236511 193.29530273 48.77206421 192.01831055 C48.77321728 188.62812286 48.7832349 185.23817995 48.79721212 181.84803557 C48.80973037 178.30196211 48.81089085 174.75588524 48.81326294 171.20979309 C48.81947449 164.49860246 48.83588091 157.78747713 48.85596192 151.07631522 C48.87833103 143.43427407 48.88931689 135.79222976 48.89935279 128.15016401 C48.92024743 112.43340488 48.95541708 96.71671087 49 81 C48.06969971 80.85900879 47.13939941 80.71801758 46.1809082 80.57275391 C32.15004731 78.04635897 18.24732634 65.72217725 10.17578125 54.453125 C8.6713976 52.01276462 7.3064973 49.55117297 6 47 C5.62230469 46.29488281 5.24460937 45.58976562 4.85546875 44.86328125 C-2.14334753 30.68215913 -1.91303859 15.30430874 0 0 Z " fill="#FDFDF6" transform="translate(444,460)"/>
<path d="M0 0 C0.20397024 4.20761464 0.32786067 8.41395457 0.4375 12.625 C0.52547852 14.40970703 0.52547852 14.40970703 0.61523438 16.23046875 C0.78321632 24.82154548 0.78321632 24.82154548 -1.31689453 27.98144531 C-3.12141178 29.56084457 -4.94172807 30.77264258 -7 32 C-8.24937698 32.89991807 -9.49414879 33.80626202 -10.734375 34.71875 C-12.07074768 35.64895716 -13.40938556 36.57591654 -14.75 37.5 C-22.22480727 42.70259298 -29.56366821 48.0699573 -36.84277344 53.54296875 C-37.60364258 54.11015625 -38.36451172 54.67734375 -39.1484375 55.26171875 C-39.82052246 55.76662842 -40.49260742 56.27153809 -41.18505859 56.79174805 C-43 58 -43 58 -46 59 C-41.29315602 66.02460806 -36.19451594 70.46581329 -29 74.8125 C-26.09658454 75.29477175 -26.09658454 75.29477175 -24.37890625 73.9375 C-23.07719236 72.77295596 -21.80543789 71.57458537 -20.5546875 70.35546875 C-17.28365978 67.33952118 -13.77758956 64.74630121 -10.1875 62.125 C-9.52886963 61.63684814 -8.87023926 61.14869629 -8.19165039 60.64575195 C-5.4866156 58.668367 -3.19866182 57.06622061 0 56 C1.61042125 73.34299804 1.61042125 73.34299804 -1.62890625 78.6875 C-4.2947874 80.7805099 -7.03435257 82.35434284 -10 84 C-12.23997426 85.48513219 -14.44061868 87.01753113 -16.63696289 88.56640625 C-18.14506152 89.62910124 -19.66487565 90.67540362 -21.19702148 91.703125 C-27.31637659 95.88634599 -29.64885884 99.8258355 -32.25 106.75 C-37.75543514 120.09700449 -48.1465949 129.61621725 -61.04296875 135.80859375 C-72.33740773 140.35919334 -87.20188022 141.5260778 -98.6875 136.875 C-100.48329966 135.96430957 -102.25636133 135.00696458 -104 134 C-104.88945313 133.53078125 -105.77890625 133.0615625 -106.6953125 132.578125 C-118.3183491 126.12473752 -125.46252372 116.41835615 -130 104 C-133.00360105 89.62105881 -131.8906329 75.69393284 -124.203125 63.04296875 C-115.6507239 50.53935834 -104.24394506 42.40567428 -89.55078125 38.46875 C-80.97047776 36.89197141 -73.23403283 38.12062282 -64.91015625 40.44140625 C-60.12072809 41.36071931 -57.91340669 40.59956375 -53.828125 37.91796875 C-52.62937384 37.01578627 -51.43702254 36.1050593 -50.25 35.1875 C-48.9099503 34.17823047 -47.56876137 33.17047215 -46.2265625 32.1640625 C-45.53208008 31.64102539 -44.83759766 31.11798828 -44.12207031 30.57910156 C-40.66839265 28.00910765 -37.14868724 25.53519151 -33.625 23.0625 C-32.9242334 22.56959473 -32.2234668 22.07668945 -31.50146484 21.56884766 C-30.0683559 20.56106532 -28.6349225 19.55374422 -27.20117188 18.546875 C-23.42186653 15.89096565 -19.6486556 13.22642746 -15.875 10.5625 C-15.18873535 10.0785376 -14.5024707 9.5945752 -13.79541016 9.09594727 C-13.13847168 8.63244873 -12.4815332 8.1689502 -11.8046875 7.69140625 C-10.85867676 7.02455811 -10.85867676 7.02455811 -9.89355469 6.34423828 C-8.58737106 5.41697589 -7.28621658 4.48260236 -5.98925781 3.54248047 C-1.09921628 0 -1.09921628 0 0 0 Z " fill="#FAFBF6" transform="translate(755,337)"/>
<path d="M0 0 C9.85290754 4.70252406 19.22434177 9.98619439 28.62695312 15.53173828 C35.35146643 19.4862934 42.13129668 23.30213753 49 27 C57.61559321 31.64403559 66.07550562 36.51325147 74.50512695 41.48583984 C80.22248557 44.84235435 85.97651319 48.11678756 91.7890625 51.3046875 C92.44678146 51.66550415 93.10450043 52.0263208 93.78215027 52.39807129 C97.00659682 54.16409279 100.23529117 55.92188811 103.46899414 57.67089844 C104.64993269 58.31439744 105.8308423 58.95794955 107.01171875 59.6015625 C108.04772217 60.16182129 109.08372559 60.72208008 110.15112305 61.29931641 C115.54808945 64.52112359 118.65964756 67.55193992 121.6875 73.0625 C122.02144775 73.66682861 122.35539551 74.27115723 122.69946289 74.89379883 C123.8129975 76.92223203 124.90747437 78.96018156 126 81 C126.39380859 81.72735352 126.78761719 82.45470703 127.19335938 83.20410156 C130.20048462 88.76656614 133.12810224 94.36657803 136 100 C136.44150391 100.86544434 136.88300781 101.73088867 137.33789062 102.62255859 C138.6396532 105.19797102 139.91761956 107.78374051 141.1875 110.375 C141.58638428 111.16543701 141.98526855 111.95587402 142.39624023 112.77026367 C145.003569 118.18864629 145.003569 118.18864629 144.98828125 121.6640625 C144.66214844 122.43492187 144.33601562 123.20578125 144 124 C143.59394531 125.08410156 143.18789063 126.16820312 142.76953125 127.28515625 C139.48070514 130.5090408 138.54128846 130.44332329 134.07421875 130.62109375 C131.6113701 130.59379056 129.14875 130.53032986 126.6875 130.4375 C124.73420776 130.38553467 124.73420776 130.38553467 122.74145508 130.33251953 C120.08254635 130.25933408 117.42389705 130.17601513 114.765625 130.08251953 C111.42565227 130.0093277 108.14755954 130.08275063 104.8125 130.24609375 C89.42582381 130.77212269 79.80942205 125.30041279 67.15820312 117.00683594 C61.75368172 113.57260852 56.12216016 110.55962987 50.5 107.5 C38.82398465 101.06540454 27.286582 94.4126993 15.80126953 87.64453125 C11.65627689 85.21114529 7.494943 82.80593441 3.33374023 80.40039062 C1 79 1 79 0 78 C-0.08726223 76.21928754 -0.10699041 74.4351686 -0.09765625 72.65234375 C-0.09443359 71.57275391 -0.09121094 70.49316406 -0.08789062 69.38085938 C-0.07951172 68.24455078 -0.07113281 67.10824219 -0.0625 65.9375 C-0.05798828 64.79732422 -0.05347656 63.65714844 -0.04882812 62.48242188 C-0.03699747 59.65489649 -0.0205141 56.8274736 0 54 C4.16335031 54.60225164 7.20891028 56.01176263 10.8671875 58.0625 C11.99342529 58.6908374 13.11966309 59.3191748 14.2800293 59.96655273 C15.16167252 60.46528397 15.16167252 60.46528397 16.06112671 60.97409058 C17.88692562 62.00674502 19.71794774 63.02960086 21.55004883 64.05102539 C26.70460618 66.93567647 31.8334965 69.84562807 36.83203125 72.99609375 C37.50186035 73.41697266 38.17168945 73.83785156 38.86181641 74.27148438 C40.54865447 75.34882305 42.21853878 76.45258432 43.88671875 77.55859375 C47.97547388 79.45163094 50.52142531 79.35588261 55 79 C57.87472735 77.75011855 59.44101438 76.74531416 61.3125 74.25 C62.64823567 69.87850145 62.4903707 66.24541168 60.8203125 62.00390625 C58.72647093 58.54861833 57.04002043 57.32484927 53.5625 55.3125 C52.99958252 54.9820166 52.43666504 54.6515332 51.85668945 54.31103516 C46.03236239 50.92766658 40.09720286 47.72943475 34.18041992 44.51147461 C24.02887142 38.97261882 14.07521925 33.09427496 4.11279297 27.22412109 C2.76423656 26.44278739 1.39401198 25.69700599 0 25 C0 16.75 0 8.5 0 0 Z " fill="#FAFBF6" transform="translate(277,336)"/>
<path d="M0 0 C1.63646411 -0.03150464 3.27270464 -0.07911851 4.90820312 -0.14355469 C18.50777449 -0.67197468 18.50777449 -0.67197468 23.14257812 2.21923828 C25.10006087 4.21761199 26.74868731 6.26970267 28.41040039 8.51489258 C30.93694162 10.4901997 30.93694162 10.4901997 33.34790039 11.82739258 C34.09942383 12.27727539 34.85094727 12.7271582 35.62524414 13.19067383 C43.31736232 16.84793619 50.15060448 18.07141729 58.66040039 18.01489258 C59.67457031 18.00844727 60.68874023 18.00200195 61.73364258 17.99536133 C74.7646042 17.67844834 84.54554054 13.15953457 94.41040039 4.51489258 C94.80485352 3.8282251 95.19930664 3.14155762 95.60571289 2.43408203 C97.41040039 0.51489258 97.41040039 0.51489258 100.60913086 -0.06616211 C107.58430505 -0.2278297 107.58430505 -0.2278297 111.03393555 -0.22631836 C113.27320908 -0.23505983 115.50455823 -0.30761795 117.74243164 -0.38354492 C128.08201229 -0.5508497 128.08201229 -0.5508497 131.37866211 2.09399414 C132.69287638 4.18518122 133.54991487 6.2035825 134.41040039 8.51489258 C135.14233447 9.76478614 135.89965027 11.00022811 136.68383789 12.21801758 C137.38592085 13.39938227 138.08645924 14.58166636 138.78540039 15.76489258 C139.1527832 16.36301758 139.52016602 16.96114258 139.89868164 17.57739258 C142.43315587 21.90034485 142.43315587 21.90034485 142.33618164 24.51928711 C140.95198942 27.50303901 138.98715597 28.16174305 136.07446289 29.61645508 C134.9575708 30.18356201 133.84067871 30.75066895 132.68994141 31.33496094 C131.47180212 31.93668793 130.25362078 32.5383298 129.03540039 33.13989258 C127.78716458 33.76933121 126.5396915 34.40028459 125.29296875 35.03271484 C122.80515143 36.29338761 120.31446355 37.54805139 117.82104492 38.79760742 C113.51201055 40.96723862 109.23699104 43.19603605 104.97290039 45.45239258 C104.25271729 45.83169922 103.53253418 46.21100586 102.79052734 46.60180664 C97.95013667 49.15600914 93.12406708 51.73670784 88.30102539 54.32348633 C87.67707382 54.65809372 87.05312225 54.99270111 86.41026306 55.33744812 C83.30637994 57.00246681 80.20345954 58.669244 77.10205078 60.33886719 C74.86086212 61.54319911 72.61694974 62.74248119 70.36987305 63.93579102 C68.56282814 64.89998558 66.76339511 65.87885741 64.97827148 66.88305664 C60.08099129 69.55679979 60.08099129 69.55679979 57.2421875 69.37939453 C53.11633477 68.11983383 49.4393083 66.16454354 45.62133789 64.17504883 C44.76343658 63.73406357 43.90553528 63.29307831 43.02163696 62.83872986 C40.27320451 61.42405572 37.52932562 60.00078568 34.78540039 58.57739258 C32.99401637 57.6543178 31.2023521 56.73178669 29.41040039 55.80981445 C13.59748734 47.662875 -2.18282104 39.44924316 -17.77709961 30.88989258 C-19.22246094 30.09905273 -19.22246094 30.09905273 -20.69702148 29.29223633 C-22.99529375 28.03447539 -25.29282827 26.7753915 -27.58959961 25.51489258 C-26.01367359 19.94061713 -23.36464961 15.20723677 -20.52709961 10.20239258 C-20.06754883 9.37932617 -19.60799805 8.55625977 -19.13452148 7.70825195 C-14.18164686 -1.1138287 -9.6598393 0.14337245 0 0 Z " fill="#FBFBF6" transform="translate(456.589599609375,690.485107421875)"/>
<path d="M0 0 C8.11025629 -0.20889049 16.21938246 -0.36861594 24.33166695 -0.46630955 C28.09903336 -0.5132089 31.86455494 -0.57676496 35.63085938 -0.67895508 C39.2685125 -0.77703242 42.9043966 -0.83061222 46.54327011 -0.85389519 C47.92855565 -0.87047655 49.31374828 -0.90286198 50.69827652 -0.95157051 C61.48317525 -1.3157635 61.48317525 -1.3157635 65.07550049 1.80038452 C66.66796579 4.13074039 67.84914155 6.4258674 69 9 C69.71772427 10.26811311 70.44428137 11.5312883 71.18164062 12.78808594 C71.84579322 14.01698549 72.50392426 15.24915684 73.15625 16.484375 C73.50764038 17.1478595 73.85903076 17.81134399 74.22106934 18.49493408 C74.94981222 19.87804585 75.6755958 21.26272081 76.3984375 22.64892578 C77.50971741 24.76853458 78.64530718 26.87399747 79.78125 28.98046875 C80.491117 30.33513494 81.19950574 31.69057703 81.90625 33.046875 C82.24773071 33.67092224 82.58921143 34.29496948 82.94104004 34.93792725 C84.42868954 37.8587952 85.13728662 39.45338485 84.32470703 42.6887207 C83.88755371 43.45144287 83.45040039 44.21416504 83 45 C82.66403809 45.6592749 82.32807617 46.3185498 81.98193359 46.99780273 C81.62437988 47.63661377 81.26682617 48.2754248 80.8984375 48.93359375 C80.49415527 49.65885254 80.08987305 50.38411133 79.67333984 51.13134766 C79.03066162 52.27289307 79.03066162 52.27289307 78.375 53.4375 C77.93494629 54.22431152 77.49489258 55.01112305 77.04150391 55.82177734 C73.07187911 62.90640522 69.05102154 69.96163297 65 77 C60.92297187 76.3784847 57.72882438 75.04520941 54.0546875 73.19140625 C52.90556885 72.61463135 51.7564502 72.03785645 50.57250977 71.44360352 C49.3398715 70.81683446 48.10737138 70.18979366 46.875 69.5625 C45.5977377 68.91756479 44.32031107 68.27295493 43.04272461 67.62866211 C35.45768218 63.79522123 27.90271182 59.90570742 20.40087891 55.91162109 C15.50216496 53.30483953 10.57788494 50.75185532 5.63671875 48.2265625 C4.32279463 47.55338338 3.00891141 46.88012444 1.69506836 46.20678711 C-0.25734374 45.20627549 -2.21053855 44.2075219 -4.16696167 43.21487427 C-10.76105482 39.8683728 -17.14054625 36.55061127 -23 32 C-22.195625 31.071875 -21.39125 30.14375 -20.5625 29.1875 C-20.01464844 28.54296875 -19.46679688 27.8984375 -18.90234375 27.234375 C-17.5725859 25.67252389 -16.23036983 24.12123258 -14.87890625 22.578125 C-10.5380526 17.49248017 -6.94788276 12.46415622 -3.7109375 6.62890625 C-3.1698938 5.66748718 -3.1698938 5.66748718 -2.61791992 4.68664551 C-1.74094838 3.12685781 -0.86984727 1.56377188 0 0 Z " fill="#FCFCF6" transform="translate(608,510)"/>
<path d="M0 0 C3.50515655 0.13372862 7.01151407 0.19251151 10.51849365 0.25787354 C17.38215291 0.3967171 24.24098653 0.6181408 31.1005249 0.89263916 C31.68205322 1.96860352 32.26358154 3.04456787 32.86273193 4.15313721 C33.65250686 5.59127863 34.44273292 7.02917236 35.2333374 8.46685791 C35.80338501 9.52592346 35.80338501 9.52592346 36.38494873 10.60638428 C40.69077672 18.39137504 46.43107129 24.53381444 52.9208374 30.59185791 C54.1005249 31.89263916 54.1005249 31.89263916 54.1005249 33.89263916 C53.34513428 34.25873291 52.58974365 34.62482666 51.8114624 35.00201416 C44.40897764 38.64258044 37.13977744 42.47709827 29.9130249 46.45513916 C20.32539607 51.73127086 10.63532575 56.78735032 0.90252686 61.78985596 C-6.6988108 65.71048812 -14.21039613 69.75806508 -21.60943604 74.04937744 C-26.5848417 76.89263916 -26.5848417 76.89263916 -29.8994751 76.89263916 C-30.33292236 76.11138672 -30.76636963 75.33013428 -31.21295166 74.52520752 C-32.83776375 71.5971155 -34.46297201 68.66924408 -36.08843994 65.74151611 C-36.78879154 64.47988411 -37.48899002 63.21816709 -38.18902588 61.95635986 C-38.86899777 60.73076146 -39.54937153 59.50538593 -40.23016357 58.28024292 C-40.89228126 57.08685499 -41.55237568 55.89234215 -42.21038818 54.69668579 C-43.86650113 51.69707173 -45.6006177 48.78189215 -47.4463501 45.89654541 C-49.22768519 42.21416185 -48.82940042 40.81390064 -47.8994751 36.89263916 C-46.81134033 34.30645752 -46.81134033 34.30645752 -45.45806885 31.73248291 C-44.955979 30.77277588 -44.45388916 29.81306885 -43.93658447 28.82427979 C-43.40871338 27.83621338 -42.88084229 26.84814697 -42.3369751 25.83013916 C-41.83617432 24.86914307 -41.33537354 23.90814697 -40.81939697 22.91802979 C-39.77079323 20.93057528 -38.67975084 18.96503758 -37.55133057 17.02178955 C-35.78094927 13.89700561 -35.78094927 13.89700561 -34.76715088 10.27716064 C-29.10645136 -4.24906214 -13.10147965 -0.55251586 0 0 Z " fill="#FCFDF7" transform="translate(392.89947509765625,509.10736083984375)"/>
<path d="M0 0 C8.3716584 6.23578074 15.1032829 13.48184154 17 24 C17.99096951 35.48000062 16.03424058 45.20355984 8.61328125 54.2265625 C2.06877938 61.42076068 -5.44996658 66.10220042 -15.27734375 67.44921875 C-26.55818483 67.83821327 -35.23982928 64.51764633 -43.7734375 57.203125 C-51.15604781 49.89822638 -55.05693421 41.42614361 -55.375 31.0625 C-55.01353567 19.20948222 -50.72988387 11.31873799 -42.25 3.25 C-30.59737034 -6.54626064 -13.08262 -7.70562084 0 0 Z " fill="#FBFCF7" transform="translate(620,295)"/>
<path d="M0 0 C8.8126168 5.29084615 15.63550782 11.4108265 19.1015625 21.26171875 C21.62381585 31.99017665 20.4493392 42.03213041 14.74609375 51.515625 C8.2709889 60.66409754 0.13307789 65.99555474 -10.8984375 68.26171875 C-20.67777429 69.22855756 -29.16157971 67.15722342 -37.2109375 61.44921875 C-38.46452694 60.41564705 -39.69527367 59.35357668 -40.8984375 58.26171875 C-41.44242187 57.771875 -41.98640625 57.28203125 -42.546875 56.77734375 C-49.06025692 50.09864756 -52.14353054 40.83057558 -52.4609375 31.63671875 C-51.96193934 21.27003195 -48.59406848 13.96139798 -41.4140625 6.49609375 C-30.29082367 -3.38355316 -13.7554831 -6.73593245 0 0 Z " fill="#FCFCF6" transform="translate(452.8984375,293.73828125)"/>
<path d="M0 0 C3.837776 3.01146059 6.58761638 6.65162438 9.1875 10.75 C9.60386719 11.38292969 10.02023437 12.01585937 10.44921875 12.66796875 C14.74134532 20.45403696 14.38084335 30.89489089 12.64453125 39.4140625 C9.16253029 49.37912602 1.60882639 57.02622568 -7.63671875 61.75 C-15.42846369 65.33112514 -23.57992261 66.11271927 -31.90234375 63.9453125 C-42.22184131 60.09376257 -51.11383069 52.8717168 -55.8125 42.75 C-59.12642471 34.46518823 -59.2971831 23.67225715 -56.25 15.25 C-51.84498058 6.03809974 -44.17033095 -0.37973342 -35.3125 -5.125 C-23.59981414 -8.98302473 -10.18567876 -6.53212008 0 0 Z " fill="#FCFCF7" transform="translate(582.8125,225.25)"/>
<path d="M0 0 C6.20482304 5.0309376 11.63852198 12.09347707 12.94262695 20.1496582 C13.09878316 22.23518864 13.1438787 24.28376586 13.125 26.375 C13.11927979 27.1167749 13.11355957 27.8585498 13.10766602 28.62280273 C12.79881874 38.24906291 9.31840701 46.44713894 2.6484375 53.4375 C-6.28755358 61.16592472 -15.54200096 63.96201532 -27.25 63.63671875 C-33.4078423 63.18485856 -38.28182611 60.53490045 -43.375 57.1875 C-43.98859375 56.79304688 -44.6021875 56.39859375 -45.234375 55.9921875 C-51.53890114 51.34503679 -56.87124482 42.89269181 -58.375 35.1875 C-59.53151259 22.45158357 -57.54951823 13.0989943 -49.3515625 3.2265625 C-35.46432757 -11.09979449 -15.86594904 -11.00964145 0 0 Z " fill="#FCFCF7" transform="translate(583.375,369.8125)"/>
<path d="M0 0 C9.59777523 5.04722166 16.59200087 13.41959779 20.03125 23.57421875 C22.43503517 32.70860241 20.76629967 42.23401247 16.12890625 50.3984375 C9.84141771 59.64179715 1.62140679 65.52008303 -9.20703125 68.46875 C-20.19001317 69.97257368 -30.4710264 65.48395339 -39.33203125 59.28125 C-46.29550499 53.07673798 -50.57430542 44.60853402 -51.5234375 35.3984375 C-51.90153917 25.07992087 -49.79894966 17.14632228 -43.14453125 9.15625 C-31.53994777 -2.9294522 -15.50056124 -5.85716214 0 0 Z " fill="#FCFCF7" transform="translate(493.20703125,221.53125)"/>
<path d="M0 0 C8.12209523 6.46075757 14.10219397 13.61823912 15.75 24.1875 C16.82146122 34.32246929 14.18552899 43.42290457 8.0625 51.5625 C4.15436742 56.0796922 -0.00010472 59.3620679 -5.25 62.1875 C-5.86230469 62.52652344 -6.47460938 62.86554688 -7.10546875 63.21484375 C-14.80651432 66.77801409 -24.69635751 66.47202817 -32.5625 63.625 C-43.01040438 58.73558662 -50.58006708 51.24747752 -54.625 40.4375 C-57.26574234 31.6276285 -57.58295165 23.10888922 -53.69921875 14.6328125 C-48.03520088 5.07573653 -40.04373903 -1.0446804 -29.875 -5.1875 C-18.75125545 -7.10538699 -9.83432836 -5.48452928 0 0 Z " fill="#FBFBF6" transform="translate(498.25,367.8125)"/>
<path d="M0 0 C15.84 0 31.68 0 48 0 C51.4340625 6.0328125 51.4340625 6.0328125 54.9375 12.1875 C55.65929443 13.44715576 56.38108887 14.70681152 57.12475586 16.00463867 C57.69073486 17.0072876 58.25671387 18.00993652 58.83984375 19.04296875 C59.42113037 20.06414795 60.00241699 21.08532715 60.60131836 22.13745117 C61.98656108 24.97249583 62.8997577 26.8493542 63 30 C61.91742324 32.35171453 60.83990818 34.31910585 59.44921875 36.47265625 C59.07521439 37.07758408 58.70121002 37.6825119 58.31587219 38.30577087 C57.12004769 40.23358746 55.90453679 42.14801954 54.6875 44.0625 C53.48579758 45.98315321 52.28819817 47.9063141 51.09126282 49.8299408 C50.3459795 51.02431593 49.59710335 52.21645881 48.84416199 53.40602112 C47.06325423 56.22774795 45.49654296 59.00691407 44 62 C29.48 62 14.96 62 0 62 C0 41.54 0 21.08 0 0 Z " fill="#FBFBF6" transform="translate(277,477)"/>
<path d="M0 0 C14.85 0 29.7 0 45 0 C53.7890625 16.11328125 53.7890625 16.11328125 55.37597656 19.04150391 C56.48720264 21.06583308 57.62052744 23.07814506 58.77246094 25.07958984 C59.3296582 26.05750488 59.88685547 27.03541992 60.4609375 28.04296875 C60.97188965 28.92364014 61.4828418 29.80431152 62.00927734 30.71166992 C63 33 63 33 62 36 C59.34228516 37.65063477 59.34228516 37.65063477 55.7890625 39.44140625 C55.15339859 39.76545441 54.51773468 40.08950256 53.86280823 40.42337036 C51.7879734 41.47876292 49.70660017 42.52052441 47.625 43.5625 C46.20038586 44.28449493 44.77631433 45.00756152 43.3527832 45.73168945 C40.53099288 47.16662829 37.7072971 48.59770554 34.88232422 50.02636719 C29.95450814 52.52438269 25.06716556 55.09690961 20.1875 57.6875 C2.55367722 67 2.55367722 67 0 67 C0 44.89 0 22.78 0 0 Z " fill="#FBFBF6" transform="translate(277,564)"/>
<path d="M0 0 C1.68742689 0.00025114 3.37485891 0.00581427 5.06225586 0.01586914 C6.24023743 0.01737976 6.24023743 0.01737976 7.4420166 0.0189209 C10.38705904 0.02416901 13.33208073 0.03813016 16.27709961 0.05102539 C22.85647461 0.07165039 29.43584961 0.09227539 36.21459961 0.11352539 C36.21459961 22.22352539 36.21459961 44.33352539 36.21459961 67.11352539 C14.09814758 56.63731127 14.09814758 56.63731127 4.52709961 51.61352539 C3.47981689 51.06672119 2.43253418 50.51991699 1.35351562 49.95654297 C-7.12268039 45.50974704 -15.49415218 40.89551207 -23.78540039 36.11352539 C-22.10275539 31.57923992 -19.92405769 27.37655513 -17.66040039 23.11352539 C-17.0696875 21.99880859 -17.0696875 21.99880859 -16.46704102 20.86157227 C-5.38081573 0.16137242 -5.38081573 0.16137242 0 0 Z " fill="#FBFBF5" transform="translate(718.785400390625,563.886474609375)"/>
<path d="M0 0 C1.4994767 0.88305234 2.98235054 1.7956668 4.4375 2.75 C5.79875 3.5853125 5.79875 3.5853125 7.1875 4.4375 C14.51848336 11.97212178 16.87271316 19.82285931 16.77734375 30.1015625 C16.04272012 37.98821156 12.0661196 43.9764526 6.3359375 49.28125 C-1.21748505 55.12505016 -9.17285772 56.63417056 -18.5625 55.75 C-26.1705222 53.82042915 -32.55421885 50.13440977 -37.03125 43.609375 C-40.89275468 37.00889607 -43.35019754 30.4956925 -42.5625 22.75 C-39.50693374 12.15968511 -34.41191823 5.27954914 -24.83203125 -0.12109375 C-17.26360731 -3.8857659 -7.54579311 -3.70471168 0 0 Z " fill="#13313F" transform="translate(687.5625,399.25)"/>
<path d="M0 0 C0 20.46 0 40.92 0 62 C-6.27 62.268125 -12.54 62.53625 -19 62.8125 C-20.96324219 62.93085205 -22.92648437 63.0492041 -24.94921875 63.17114258 C-37.22038963 63.60931052 -37.22038963 63.60931052 -41.82421875 59.44604492 C-43.94102469 56.0503354 -45.49255359 52.70319568 -47 49 C-48.04324709 47.03522851 -49.10463259 45.07993506 -50.1875 43.13671875 C-51.12992928 41.32286513 -52.06752172 39.50648933 -53 37.6875 C-53.48855469 36.74455078 -53.97710938 35.80160156 -54.48046875 34.83007812 C-55.65809886 32.55563565 -56.83124327 30.27901097 -58 28 C-54.89328233 25.39915494 -51.94297139 23.34558176 -48.3125 21.5625 C-42.77638179 18.6209658 -37.75958752 15.1152912 -32.6875 11.4375 C-31.92284424 10.88328369 -31.15818848 10.32906738 -30.37036133 9.75805664 C-17.05545302 0 -17.05545302 0 0 0 Z " fill="#FAFAF5" transform="translate(755,477)"/>
<path d="M0 0 C3.84620454 0.60156368 6.79932387 1.74663574 10.234375 3.5625 C11.26771973 4.10390625 12.30106445 4.6453125 13.36572266 5.203125 C15.04093994 6.09257813 15.04093994 6.09257813 16.75 7 C18.5412827 7.94176509 20.33258307 8.88349731 22.12454224 9.82397461 C23.39483174 10.49074743 24.66474138 11.15824437 25.93429565 11.82641602 C30.87231923 14.42157277 35.83378072 16.96848699 40.8046875 19.5 C42.28681436 20.25645065 43.76891085 21.01296081 45.25097656 21.76953125 C47.41816937 22.87566127 49.58605464 23.98027643 51.75671387 25.07958984 C55.05808399 26.75258799 58.34414947 28.4440254 61.60083008 30.20263672 C64.87909251 31.99917697 64.87909251 31.99917697 67.9362793 33.23876953 C70.71279026 34.58441209 72.20537911 35.47773556 74 38 C75.08815963 43.67119531 74.85029247 49.13363079 74.5625 54.875 C74.51731909 56.43738511 74.47626071 57.99989521 74.43945312 59.5625 C74.34061746 63.37809941 74.1855725 67.18767461 74 71 C69.46544418 70.39506935 65.84835806 68.54182309 61.8828125 66.38671875 C61.19711182 66.02091705 60.51141113 65.65511536 59.80493164 65.27822876 C57.57509231 64.0871834 55.35008938 62.88739189 53.125 61.6875 C50.81374263 60.44985401 48.50135388 59.21433948 46.18893433 57.97886658 C44.64646679 57.15449688 43.10441309 56.32935238 41.56277466 55.50343323 C34.24825935 51.58694137 26.88992394 47.75809121 19.50830078 43.96948242 C17.85955954 43.11645764 16.22149301 42.24243008 14.59570312 41.34643555 C11.93359143 39.90934488 11.93359143 39.90934488 8.73242188 38.71020508 C5.17885787 37.12140222 2.72162517 35.79652457 0 33 C-1.48761879 27.28752857 -1.14274162 21.90607546 -0.75 16.0625 C-0.68974438 14.50476271 -0.63500216 12.9468018 -0.5859375 11.38867188 C-0.45425492 7.58689253 -0.24770457 3.7959137 0 0 Z " fill="#FAFBF6" transform="translate(429,745)"/>
<path d="M0 0 C0 10.89 0 21.78 0 33 C-14.24327927 40.77758013 -28.49574428 48.53745286 -42.77197266 56.25439453 C-45.04035585 57.48105766 -47.30829931 58.70850557 -49.57568359 59.93701172 C-52.60766033 61.57971594 -55.64078397 63.22028427 -58.67468262 64.85943604 C-60.41308809 65.79930175 -62.1503999 66.74118943 -63.88769531 67.68310547 C-65.45729004 68.53026123 -65.45729004 68.53026123 -67.05859375 69.39453125 C-68.45549438 70.15020386 -68.45549438 70.15020386 -69.88061523 70.92114258 C-72 72 -72 72 -73 72 C-73 60.45 -73 48.9 -73 37 C-59.88473124 29.79583829 -46.72094001 22.69509484 -33.5 15.6875 C-32.78555725 15.30813293 -32.0711145 14.92876587 -31.33502197 14.53790283 C-26.56625074 12.00678895 -21.78925542 9.49214848 -17 7 C-16.33000977 6.65100647 -15.66001953 6.30201294 -14.96972656 5.94244385 C-13.03571628 4.93965199 -11.09707671 3.94655437 -9.15625 2.95703125 C-8.04056641 2.38573486 -6.92488281 1.81443848 -5.77539062 1.22583008 C-3 0 -3 0 0 0 Z " fill="#F9FAF5" transform="translate(600,745)"/>
<path d="M0 0 C0 10.89 0 21.78 0 33 C-13.45838424 40.7541684 -27.01328356 48.19041473 -40.8125 55.3125 C-41.92248856 55.88784988 -41.92248856 55.88784988 -43.05490112 56.474823 C-45.16566239 57.56748303 -47.27943636 58.65403812 -49.39453125 59.73828125 C-50.35243057 60.23423294 -50.35243057 60.23423294 -51.3296814 60.74020386 C-55.76908073 63 -55.76908073 63 -58 63 C-58 51.78 -58 40.56 -58 29 C-55.71707031 27.82824219 -53.43414063 26.65648437 -51.08203125 25.44921875 C-48.80024891 24.27738484 -46.51862254 23.10524788 -44.23703003 21.93304443 C-42.62540523 21.10511066 -41.01369106 20.27735083 -39.40188599 19.44976807 C-28.85478384 14.03346131 -18.32019539 8.59763175 -7.8684082 2.9987793 C-2.21559869 0 -2.21559869 0 0 0 Z " fill="#FAFBF6" transform="translate(755,663)"/>
<path d="M0 0 C3.70157807 1.16203456 7.06663187 2.42990085 10.44921875 4.328125 C11.28493408 4.79178467 12.12064941 5.25544434 12.98168945 5.7331543 C14.32106567 6.48399292 14.32106567 6.48399292 15.6875 7.25 C25.83847795 12.87295255 36.1031049 18.24529576 46.42651367 23.54199219 C47.52970947 24.10950195 48.63290527 24.67701172 49.76953125 25.26171875 C50.75542236 25.76662842 51.74131348 26.27153809 52.75708008 26.79174805 C55 28 55 28 56 29 C56.08843793 31.44830426 56.11528752 33.86820599 56.09765625 36.31640625 C56.0962413 37.04746078 56.09482635 37.77851532 56.09336853 38.53172302 C56.08775408 40.87535632 56.07519922 43.21889539 56.0625 45.5625 C56.05748686 47.14778508 56.05292363 48.73307166 56.04882812 50.31835938 C56.03777997 54.2122761 56.02050572 58.10612205 56 62 C51.83749374 61.38089913 48.63321518 59.97446789 44.90625 58.04296875 C44.32578918 57.74361923 43.74532837 57.44426971 43.14727783 57.135849 C41.26116651 56.15998063 39.38039658 55.17432955 37.5 54.1875 C36.20085534 53.51088769 34.90170163 52.83429277 33.60253906 52.15771484 C3.32711323 36.32711323 3.32711323 36.32711323 0 33 C-0.08843793 30.55169574 -0.11528752 28.13179401 -0.09765625 25.68359375 C-0.0962413 24.95253922 -0.09482635 24.22148468 -0.09336853 23.46827698 C-0.08775408 21.12464368 -0.07519922 18.78110461 -0.0625 16.4375 C-0.05748686 14.85221492 -0.05292363 13.26692834 -0.04882812 11.68164062 C-0.03777997 7.7877239 -0.02050572 3.89387795 0 0 Z " fill="#F8F9F5" transform="translate(277,664)"/>
<path d="M0 0 C13.68035335 0.15046187 13.68035335 0.15046187 18.88366699 3.46307373 C23.69968366 8.62341843 27.10339355 15.56022164 27.10339355 22.6930542 C26.61274414 22.93314209 26.12209473 23.17322998 25.61657715 23.42059326 C14.36327979 28.94460854 3.26996666 34.67811037 -7.64709473 40.84442139 C-8.95976318 41.57580322 -8.95976318 41.57580322 -10.2989502 42.32196045 C-11.06715088 42.75581055 -11.83535156 43.18966064 -12.62683105 43.63665771 C-15.04660967 44.76286854 -17.26859142 45.27520474 -19.89660645 45.6930542 C-23.47806057 40.6160478 -26.78298689 35.38194281 -29.89660645 30.0055542 C-30.51535645 28.94981201 -31.13410645 27.89406982 -31.77160645 26.80633545 C-32.89660645 23.6930542 -32.89660645 23.6930542 -32.4005127 20.8180542 C-30.47466025 16.81628289 -28.23490859 13.11249417 -25.83410645 9.3805542 C-25.37455566 8.65287842 -24.91500488 7.92520264 -24.44152832 7.17547607 C-18.60926145 -2.01398405 -10.28308831 0.02264997 0 0 Z " fill="#FAFBF6" transform="translate(642.8966064453125,657.3069458007813)"/>
<path d="M0 0 C11.51713488 0.10460185 11.51713488 0.10460185 16.5144043 3.40234375 C21.07231327 8.40238507 24.40619698 14.8017943 25.62426758 21.49511719 C24.94537797 26.29930029 22.12261238 30.4348103 19.81176758 34.62011719 C19.3728418 35.44382812 18.93391602 36.26753906 18.48168945 37.11621094 C18.04791992 37.90382813 17.61415039 38.69144531 17.16723633 39.50292969 C16.57978638 40.58018311 16.57978638 40.58018311 15.98046875 41.67919922 C14.33392957 43.8838722 13.27522935 44.73056706 10.62426758 45.49511719 C8.26855469 44.77929688 8.26855469 44.77929688 5.65161133 43.41699219 C4.67788574 42.91981689 3.70416016 42.4226416 2.70092773 41.91040039 C1.66500488 41.36085693 0.62908203 40.81131348 -0.43823242 40.24511719 C-1.49993652 39.69750732 -2.56164062 39.14989746 -3.65551758 38.58569336 C-6.90427757 36.9049231 -10.14074124 35.20221166 -13.37573242 33.49511719 C-15.28813434 32.49573296 -17.20087365 31.49699397 -19.11401367 30.49902344 C-22.37083917 28.79572208 -25.62246954 27.08327327 -28.86791992 25.35839844 C-30.69531756 24.38772062 -32.52498175 23.42049252 -34.37573242 22.49511719 C-32.799144 18.18413322 -30.6625266 14.27222232 -28.37573242 10.30761719 C-28.01995117 9.67919922 -27.66416992 9.05078125 -27.29760742 8.40332031 C-21.50119421 -1.7079602 -10.69492528 0.17860448 0 0 Z " fill="#F9FAF6" transform="translate(393.375732421875,657.5048828125)"/>
<path d="M0 0 C4.54479215 0.55368669 7.92488978 1.74533088 11.96484375 3.87890625 C13.08850342 4.46720215 14.21216309 5.05549805 15.36987305 5.66162109 C16.55919658 6.29503236 17.74840368 6.92866229 18.9375 7.5625 C20.15172682 8.20204292 21.36632799 8.84087557 22.58129883 9.47900391 C26.05973467 11.30901276 29.53027515 13.15352913 33 15 C34.70304623 15.90249242 36.40616001 16.80485738 38.109375 17.70703125 C41.4122153 19.46033511 44.70882915 21.22486262 48 23 C48 29.2943617 46.26371305 34.43847398 42.56640625 39.49609375 C36.17502255 45.78436463 26.16057081 45.28413424 17.73269653 45.32415771 C11.01780295 45.19395412 4.68909345 44.85275337 -0.953125 40.96533203 C-6.52758426 34.99687261 -10.87287121 27.13600332 -11.078125 18.84375 C-9.53003383 14.76037908 -7.32975568 11.2643876 -4.9375 7.625 C-4.46505859 6.88894531 -3.99261719 6.15289063 -3.50585938 5.39453125 C-2.34617537 3.59057835 -1.17429493 1.7944761 0 0 Z " fill="#FBFCF7" transform="translate(621,591)"/>
<path d="M0 0 C6.75059731 2.2501991 6.75059731 2.2501991 9.78295898 3.81591797 C10.46063828 4.16322968 11.13831757 4.51054138 11.83653259 4.86837769 C12.54918777 5.23923492 13.26184296 5.61009216 13.99609375 5.9921875 C15.12374901 6.57300583 15.12374901 6.57300583 16.27418518 7.16555786 C17.85774156 7.98221536 19.44023889 8.80092934 21.02172852 9.62158203 C23.42428116 10.86814143 25.82997794 12.10844617 28.23632812 13.34765625 C29.78143867 14.14546805 31.32636661 14.94363362 32.87109375 15.7421875 C33.5817247 16.10899628 34.29235565 16.47580505 35.02452087 16.85372925 C35.70535233 17.20734528 36.38618378 17.5609613 37.08764648 17.92529297 C37.67577621 18.23014618 38.26390594 18.53499939 38.86985779 18.84909058 C41.94413182 20.51011158 44.96609561 22.26634035 48 24 C48 34.89 48 45.78 48 57 C44.12955533 55.70985178 41.06253455 54.65384798 37.55859375 52.8203125 C36.73705811 52.39145752 35.91552246 51.96260254 35.0690918 51.52075195 C34.2006665 51.06015381 33.33224121 50.59955566 32.4375 50.125 C31.53233643 49.64828857 30.62717285 49.17157715 29.69458008 48.68041992 C19.66010807 43.35514213 9.8336763 37.68613936 0 32 C0 21.44 0 10.88 0 0 Z " fill="#FAFBF6" transform="translate(356,706)"/>
<path d="M0 0 C0 10.56 0 21.12 0 32 C-10.625 37.75 -10.625 37.75 -14.15332031 39.65795898 C-19.58650686 42.5985429 -25.01207577 45.55173728 -30.421875 48.53515625 C-31.42395996 49.08655273 -32.42604492 49.63794922 -33.45849609 50.20605469 C-35.38000245 51.26444342 -37.29965118 52.32621275 -39.21728516 53.39160156 C-40.51351807 54.10461426 -40.51351807 54.10461426 -41.8359375 54.83203125 C-42.59438965 55.25202393 -43.3528418 55.6720166 -44.13427734 56.10473633 C-46 57 -46 57 -48 57 C-48.19834763 52.53450817 -48.3431785 48.07136975 -48.43945312 43.6027832 C-48.47959307 42.08442521 -48.5341233 40.56637478 -48.60351562 39.04907227 C-49.15982826 26.5688527 -49.15982826 26.5688527 -46.57250977 23.0690918 C-44.44200169 21.70396732 -42.37398095 20.87304438 -40 20 C-38.22873417 19.074027 -36.46743534 18.12881802 -34.71484375 17.16796875 C-32.79074185 16.17123065 -30.86489931 15.17784684 -28.9375 14.1875 C-26.90069096 13.13479287 -24.86423325 12.0814057 -22.828125 11.02734375 C-21.83876953 10.5154248 -20.84941406 10.00350586 -19.83007812 9.47607422 C-15.30524724 7.11607357 -10.81352778 4.69377694 -6.34155273 2.23510742 C-2.21728318 0 -2.21728318 0 0 0 Z " fill="#FBFBF6" transform="translate(672,707)"/>
<path d="M0 0 C1.99600826 2.54674703 3.54591384 5.40295093 5.1875 8.1875 C5.66380859 8.95642578 6.14011719 9.72535156 6.63085938 10.51757812 C9.96230072 16.13426288 9.96230072 16.13426288 10.109375 19.51171875 C8.37867263 23.39361104 6.26968961 26.99691273 4.0625 30.625 C3.60681641 31.388125 3.15113281 32.15125 2.68164062 32.9375 C0.84442803 36.00400419 -1.01658608 39.02487912 -3 42 C-5.57431265 42.4788528 -7.90203277 42.75229814 -10.5 42.890625 C-11.2482756 42.93286194 -11.99655121 42.97509888 -12.76750183 43.01861572 C-15.17856757 43.12974855 -17.58694927 43.19845253 -20 43.25 C-21.21135117 43.27984985 -21.21135117 43.27984985 -22.44717407 43.31030273 C-35.6820549 43.48190142 -35.6820549 43.48190142 -40.63037109 40.31835938 C-44.66415585 35.85720146 -46.51848964 30.75672598 -48 25 C-45.70738735 22.46430849 -43.40883627 20.9969008 -40.37890625 19.43359375 C-39.45231201 18.95245117 -38.52571777 18.47130859 -37.57104492 17.97558594 C-36.5782251 17.46801758 -35.58540527 16.96044922 -34.5625 16.4375 C-33.54583252 15.91317383 -32.52916504 15.38884766 -31.48168945 14.84863281 C-28.3249537 13.22481872 -25.16325554 11.61107166 -22 10 C-21.00774414 9.49291504 -20.01548828 8.98583008 -18.99316406 8.46337891 C-16.22773321 7.05264493 -13.45873377 5.64929536 -10.6875 4.25 C-9.41724976 3.60502563 -9.41724976 3.60502563 -8.12133789 2.94702148 C-7.34266357 2.55716064 -6.56398926 2.1672998 -5.76171875 1.765625 C-5.08069092 1.42305664 -4.39966309 1.08048828 -3.69799805 0.72753906 C-2 0 -2 0 0 0 Z " fill="#FAFBF5" transform="translate(409,592)"/>
<path d="M0 0 C0 15.18 0 30.36 0 46 C-23.20470526 47.8751277 -23.20470526 47.8751277 -28.19677734 44.52636719 C-32.0306778 40.34333707 -34.30081827 35.36780873 -36 30 C-36.33644531 29.02804687 -36.67289062 28.05609375 -37.01953125 27.0546875 C-36.98840895 22.18715992 -34.63031515 18.8162183 -32.125 14.75 C-31.67125 13.9353125 -31.2175 13.120625 -30.75 12.28125 C-27.27571998 6.54773871 -27.27571998 6.54773871 -23.86767578 5.08447266 C-21.58006248 4.58635937 -19.32330026 4.28002492 -17 4 C-13.33260958 2.97671591 -9.68739099 1.89362215 -6.0390625 0.8046875 C-3 0 -3 0 0 0 Z " fill="#FBFCF6" transform="translate(467,620)"/>
<path d="M0 0 C25.8398072 7.17772422 25.8398072 7.17772422 27.90625 10.7734375 C28.339375 11.5159375 28.7725 12.2584375 29.21875 13.0234375 C29.85296875 14.18746094 29.85296875 14.18746094 30.5 15.375 C30.95375 16.14328125 31.4075 16.9115625 31.875 17.703125 C35.08609249 23.36169653 35.08609249 23.36169653 34.72412109 26.04541016 C33.54803312 29.21997535 31.82600626 32.08573121 30.125 35 C29.59712891 35.92425781 29.59712891 35.92425781 29.05859375 36.8671875 C27.19534659 40.09496883 25.24436978 43.00750696 23 46 C15.41 46 7.82 46 0 46 C0 30.82 0 15.64 0 0 Z " fill="#FBFCF7" transform="translate(564,620)"/>
<path d="M0 0 C4.53598364 0.47127103 8.31330725 2.44752498 12.3125 4.5 C13.00021484 4.84804688 13.68792969 5.19609375 14.39648438 5.5546875 C22.05886204 9.47271198 29.53905977 13.71392795 37 18 C37 18.66 37 19.32 37 20 C33.30167201 21.92134897 29.60292482 23.84188795 25.90380859 25.76171875 C24.64881385 26.41319589 23.39392844 27.06488368 22.13916016 27.71679688 C18.09593173 29.81734264 14.04913157 31.91084684 10 34 C9.14535156 34.44408203 8.29070313 34.88816406 7.41015625 35.34570312 C2.23263889 38 2.23263889 38 0 38 C-2.19286303 35.12218379 -3.92480771 31.93262297 -5.75 28.8125 C-6.28238281 27.94818359 -6.81476562 27.08386719 -7.36328125 26.19335938 C-7.85699219 25.35224609 -8.35070312 24.51113281 -8.859375 23.64453125 C-9.31795898 22.87471924 -9.77654297 22.10490723 -10.24902344 21.31176758 C-11 19 -11 19 -10.25317383 16.41577148 C-8.62131193 13.26999446 -6.82111624 10.24895966 -4.9375 7.25 C-4.57333984 6.66089844 -4.20917969 6.07179688 -3.83398438 5.46484375 C-1.15223689 1.15223689 -1.15223689 1.15223689 0 0 Z " fill="#F9FAF6" transform="translate(693,628)"/>
<path d="M0 0 C0 12.54 0 25.08 0 38 C-3.980625 38.20625 -7.96125 38.4125 -12.0625 38.625 C-13.92467163 38.76156006 -13.92467163 38.76156006 -15.82446289 38.90087891 C-23.82003237 39.10104256 -23.82003237 39.10104256 -27.28491211 35.86791992 C-29.08021303 33.31514958 -30.57128122 30.77172505 -32 28 C-32.81119252 26.68669151 -33.62350446 25.37407301 -34.4375 24.0625 C-36 21 -36 21 -36 18 C-25.08144571 12.16235711 -14.09911236 6.48657257 -3 1 C-1 0 -1 0 0 0 Z " fill="#F6F7F2" transform="translate(467,560)"/>
<path d="M0 0 C1.8204338 2.20969055 3.34301541 4.29438394 4.875 6.6875 C5.30296875 7.30044922 5.7309375 7.91339844 6.171875 8.54492188 C8.16694531 11.61902531 9.10315938 13.36804728 8.50390625 17.0390625 C6.81914214 20.35607859 5.03186863 23.52990895 3.0625 26.6875 C2.37285156 27.80511719 1.68320312 28.92273438 0.97265625 30.07421875 C-0.59367477 32.39735129 -2.00580489 34.09209388 -4 36 C-7.60666839 34.29691418 -11.20983763 32.58654175 -14.8125 30.875 C-15.81732422 30.400625 -16.82214844 29.92625 -17.85742188 29.4375 C-24.70228686 26.1801366 -31.38388999 22.69966404 -38 19 C-38 18.34 -38 17.68 -38 17 C-29.11038383 11.97901309 -20.1990392 6.99422754 -11.125 2.3125 C-10.13693359 1.7865625 -10.13693359 1.7865625 -9.12890625 1.25 C-5.64425649 -0.51778683 -3.68840468 -1.44947833 0 0 Z " fill="#F7F9F5" transform="translate(339,630)"/>
<path d="M0 0 C5.31027254 1.46032495 9.46330032 3.98320986 14 7 C13.47731534 9.76276177 12.89130413 12.3260876 12 15 C12.825 15.20625 13.65 15.4125 14.5 15.625 C20.04614406 17.80384231 24.68000753 21.0200113 28 26 C28.60550128 29.9790084 28.3559682 31.49941972 26 34.8125 C22.30431822 37.50726797 19.50553311 38.65934631 15 38 C10.81680845 36.30619238 6.90963768 34.24804167 3 32 C2.67 32.99 2.34 33.98 2 35 C-3.96652354 33.42986223 -8.82909025 30.24970218 -14 27 C-13.4127245 23.13607265 -12.26802263 20.32652985 -10.3125 16.953125 C-9.77882813 16.02628906 -9.24515625 15.09945313 -8.6953125 14.14453125 C-8.13585937 13.18933594 -7.57640625 12.23414063 -7 11.25 C-6.44054687 10.27933594 -5.88109375 9.30867188 -5.3046875 8.30859375 C-1.17306894 1.17306894 -1.17306894 1.17306894 0 0 Z " fill="#152F40" transform="translate(365,409)"/>
<path d="M0 0 C4.09043922 1.63617569 7.93948731 3.44382427 11.83203125 5.4765625 C12.46864182 5.80667328 13.10525238 6.13678406 13.76115417 6.47689819 C15.7794103 7.52408565 17.795972 8.57448929 19.8125 9.625 C21.18673802 10.3387553 22.56108586 11.0522992 23.93554688 11.765625 C27.29164033 13.50797297 30.6462187 15.25320588 34 17 C32.30815873 24.29011363 29.20776491 32.45039283 23 37 C15.38971017 39.06611737 7.76365565 37.71389937 0 37 C0 24.79 0 12.58 0 0 Z " fill="#FBFCF6" transform="translate(564,560)"/>
<path d="M0 0 C0.33 0 0.66 0 1 0 C1 2.31 1 4.62 1 7 C-11.87 7 -24.74 7 -38 7 C-38 6.67 -38 6.34 -38 6 C-26.12 5.67 -14.24 5.34 -2 5 C-1.34 3.35 -0.68 1.7 0 0 Z " fill="#E8F5F8" transform="translate(754,532)"/>
<path d="M0 0 C0.33 0.99 0.66 1.98 1 3 C0.20335937 3.45439453 0.20335937 3.45439453 -0.609375 3.91796875 C-4.93329703 6.48233857 -8.1035653 8.77603273 -11 13 C-11.66 12.67 -12.32 12.34 -13 12 C-9.04174791 7.17514834 -5.40839975 3.16589254 0 0 Z " fill="#DFE9EB" transform="translate(543,366)"/>
<path d="M0 0 C0 0.99 0 1.98 0 3 C-2.08203125 4.859375 -2.08203125 4.859375 -4.8125 6.75 C-5.70582031 7.38421875 -6.59914063 8.0184375 -7.51953125 8.671875 C-8.33808594 9.11015625 -9.15664063 9.5484375 -10 10 C-10.99 9.67 -11.98 9.34 -13 9 C-8.71 6.03 -4.42 3.06 0 0 Z " fill="#243A43" transform="translate(741,373)"/>
<path d="M0 0 C0 0.99 0 1.98 0 3 C-1.33333333 4.33333333 -2.66666667 5.66666667 -4 7 C-4.165 7.70125 -4.33 8.4025 -4.5 9.125 C-5 11 -5 11 -7.0625 12.25 C-7.701875 12.4975 -8.34125 12.745 -9 13 C-7.47987323 7.59510481 -3.72614782 4.01507372 0 0 Z " fill="#E6F0F1" transform="translate(577,299)"/>
<path d="M0 0 C0 3 0 3 -1.75 5.04296875 C-2.4925 5.75066406 -3.235 6.45835937 -4 7.1875 C-4.7425 7.90292969 -5.485 8.61835937 -6.25 9.35546875 C-6.8275 9.89816406 -7.405 10.44085937 -8 11 C-8.99 10.34 -9.98 9.68 -11 9 C-10.45730469 8.60167969 -9.91460938 8.20335937 -9.35546875 7.79296875 C-8.64003906 7.26316406 -7.92460938 6.73335937 -7.1875 6.1875 C-6.47980469 5.66542969 -5.77210938 5.14335938 -5.04296875 4.60546875 C-3.21468607 3.16871123 -1.60103312 1.68184237 0 0 Z " fill="#2C3E46" transform="translate(568,523)"/>
<path d="M0 0 C0.68707555 2.49064888 1 4.37886292 1 7 C-2 9.1875 -2 9.1875 -5 11 C-3.55049545 7.2089881 -1.84827434 3.6125362 0 0 Z " fill="#E6EDED" transform="translate(438,697)"/>
<path d="M0 0 C0.66 1.32 1.32 2.64 2 4 C0.73046875 5.49739583 -0.5390625 6.99479167 -1.80859375 8.4921875 C-3.0878152 10.00594079 -3.0878152 10.00594079 -4 12 C-4.66 11.67 -5.32 11.34 -6 11 C-4.02 7.37 -2.04 3.74 0 0 Z " fill="#223941" transform="translate(686,562)"/>
<path d="M0 0 C0.75 1.75 0.75 1.75 1 4 C-1.39759206 7.10798971 -3.2305333 8.21436378 -7 9 C-6.57847656 8.51789063 -6.15695312 8.03578125 -5.72265625 7.5390625 C-5.17480469 6.90742188 -4.62695312 6.27578125 -4.0625 5.625 C-3.51722656 4.99851562 -2.97195313 4.37203125 -2.41015625 3.7265625 C-0.93041376 2.04367666 -0.93041376 2.04367666 0 0 Z " fill="#1D363E" transform="translate(466,346)"/>
<path d="M0 0 C0.66 0.33 1.32 0.66 2 1 C1.67 2.32 1.34 3.64 1 5 C-1.31 4.67 -3.62 4.34 -6 4 C-4.03617993 2.49440461 -2.21736634 1.10868317 0 0 Z " fill="#E7EDEA" transform="translate(562,763)"/>
<path d="M0 0 C0.66 0.33 1.32 0.66 2 1 C0.20578369 5.0369867 -1.20551875 7.64480474 -5 10 C-3.66511872 6.40608886 -2.03977277 3.24509304 0 0 Z " fill="#E7EEEF" transform="translate(606,514)"/>
</svg>
