<?xml version="1.0" encoding="UTF-8"?>
<svg version="1.1" xmlns="http://www.w3.org/2000/svg" width="1024" height="1024">
<path d="M0 0 C337.92 0 675.84 0 1024 0 C1024 337.92 1024 675.84 1024 1024 C686.08 1024 348.16 1024 0 1024 C0 686.08 0 348.16 0 0 Z " fill="#FDFAF1" transform="translate(0,0)"/>
<path d="M0 0 C2.20197768 0.01387341 4.39969725 -0.02029326 6.60131836 -0.05834961 C15.63841605 -0.10795495 23.6878045 0.70950747 30.52514648 7.25561523 C33.72634576 10.92308606 34.48776279 14.50677104 34.19311523 19.30297852 C33.21541937 24.57167291 31.05378223 28.38548416 27.14624023 32.01391602 C17.28788661 38.49967498 17.020751 34.57641602 -2.22875977 34.57641602 C-2.22875977 65.59641602 -2.22875977 96.61641602 -2.22875977 128.57641602 C5.36124023 128.57641602 12.95124023 128.57641602 20.77124023 128.57641602 C29.99069456 133.18614318 29.99069456 133.18614318 32.77124023 138.57641602 C34.10027245 145.43836956 33.28889332 151.12311966 29.45092773 156.95532227 C20.6165696 165.48150511 9.93245715 161.57641602 -2.22875977 161.57641602 C-2.22875977 177.41641602 -2.22875977 193.25641602 -2.22875977 209.57641602 C1.24333008 209.55546875 4.71541992 209.53452148 8.29272461 209.51293945 C19.77186408 209.44662372 31.2510302 209.40225825 42.73030853 209.36916733 C49.6893645 209.34857202 56.64823855 209.32050993 63.60717773 209.2746582 C70.32451373 209.2304196 77.0416218 209.20726961 83.7591095 209.19690704 C86.32032748 209.18952337 88.88153527 209.17510482 91.44267273 209.15349579 C95.03354123 209.12440696 98.62363201 209.12046248 102.21459961 209.12231445 C103.27052307 209.10793335 104.32644653 209.09355225 105.41436768 209.07873535 C112.49532423 209.11818237 117.94658485 210.27038007 123.39960194 214.9839735 C127.88824659 219.56937701 127.38063879 225.71111968 127.33772278 231.73716736 C127.31219651 233.20312434 127.28611664 234.66907178 127.25952148 236.13500977 C127.25018449 237.64956999 127.24307257 239.16414541 127.23808289 240.6787262 C127.21908227 244.64601053 127.17004368 248.61236517 127.11456299 252.57928467 C127.06321911 256.63484117 127.04053674 260.69054936 127.01538086 264.74633789 C126.96191614 272.69012173 126.87669003 280.6331529 126.77124023 288.57641602 C127.41150146 288.56070557 128.0517627 288.54499512 128.71142578 288.52880859 C131.62710655 288.46624487 134.54264578 288.42735794 137.45874023 288.38891602 C138.96984375 288.35121094 138.96984375 288.35121094 140.51147461 288.31274414 C149.97745489 288.21902156 149.97745489 288.21902156 153.77124023 291.57641602 C166.61930856 306.99409801 158.77124023 331.50709172 158.77124023 351.57641602 C210.58124023 351.57641602 262.39124023 351.57641602 315.77124023 351.57641602 C315.77124023 334.41641602 315.77124023 317.25641602 315.77124023 299.57641602 C319.13646918 294.52857259 321.43058545 291.24674341 326.77124023 288.57641602 C328.77292774 288.48496819 330.77772279 288.45889905 332.78149414 288.46289062 C334.04265045 288.46296616 335.30380676 288.46304169 336.60317993 288.46311951 C337.98472126 288.46822652 339.3662622 288.47344252 340.74780273 288.47875977 C342.15741933 288.48062458 343.56703658 288.48204818 344.97665405 288.48304749 C348.68877956 288.48686768 352.40086601 288.49669373 356.11297607 288.50775146 C359.90010042 288.51797627 363.68723107 288.5225474 367.47436523 288.52758789 C374.90667472 288.53831644 382.33895201 288.55538691 389.77124023 288.57641602 C389.76235779 287.73783051 389.75347534 286.899245 389.74432373 286.0352478 C389.66406813 278.11988803 389.60322022 270.20466555 389.56399155 262.28899193 C389.54314534 258.21974662 389.5148827 254.15083842 389.46948242 250.08178711 C389.42591764 246.15250983 389.40208082 242.22355615 389.39173126 238.29405594 C389.38435885 236.79735853 389.36996203 235.3006782 389.34832001 233.80411911 C389.31914266 231.70227999 389.31528991 229.60176596 389.31713867 227.49975586 C389.30825623 226.30506683 389.29937378 225.11037781 389.29022217 223.87948608 C389.89762941 219.70852286 391.02448562 217.77678025 393.77124023 214.57641602 C416.14654319 200.59185167 446.385217 209.57641602 472.77124023 209.57641602 C472.27624023 138.79141602 472.27624023 138.79141602 471.77124023 66.57641602 C462.22049483 76.00185149 462.22049483 76.00185149 453.3175354 85.79638672 C450.55445673 88.97712549 447.57082778 91.93940295 444.59545898 94.92016602 C443.61860893 95.90200867 443.61860893 95.90200867 442.62202454 96.90368652 C441.26119984 98.26952759 439.89906075 99.63406029 438.53564453 100.99731445 C436.44136592 103.09380871 434.35525021 105.19821415 432.26928711 107.30297852 C430.94099953 108.63419525 429.61224075 109.96494202 428.28295898 111.29516602 C427.65902756 111.92628296 427.03509613 112.5573999 426.39225769 113.2076416 C422.00009936 117.57641602 422.00009936 117.57641602 419.77124023 117.57641602 C420.4944043 118.6630957 420.4944043 118.6630957 421.23217773 119.77172852 C422.17963867 121.22192383 422.17963867 121.22192383 423.14624023 122.70141602 C423.77272461 123.65274414 424.39920898 124.60407227 425.04467773 125.58422852 C430.18731598 134.49658349 430.16860714 145.67802244 428.15405273 155.62329102 C425.09082905 164.1352577 418.8689252 172.25608785 410.87670898 176.61547852 C400.49813689 181.35226652 388.99451373 182.54656279 377.95874023 179.13891602 C371.2250856 176.32485139 364.99815591 171.21780771 361.17901611 164.97285461 C358.32411687 162.13139798 356.51301065 161.97003913 352.56204224 161.89085388 C351.73485687 161.89947952 350.90767151 161.90810516 350.05541992 161.91699219 C349.17701447 161.90650848 348.29860901 161.89602478 347.39358521 161.88522339 C344.49307046 161.85644511 341.59374734 161.86276813 338.69311523 161.86938477 C336.68099469 161.85627141 334.66888731 161.84096831 332.65679932 161.82356262 C327.36312946 161.78365741 322.06980352 161.7735186 316.77600098 161.76953125 C311.37326589 161.76021025 305.97073377 161.72280318 300.56811523 161.68774414 C289.96916643 161.623112 279.37036885 161.58991803 268.77124023 161.57641602 C268.46653809 162.36338867 268.16183594 163.15036133 267.84790039 163.96118164 C264.6639966 171.69496338 257.99575727 176.23665929 250.59936523 179.54907227 C240.49802079 183.19301364 228.09720354 183.15016404 218.22827148 178.88891602 C208.06832171 173.46166145 201.7069418 165.40412954 197.77124023 154.57641602 C195.17476069 143.41155399 196.93836696 133.33160467 202.45874023 123.38891602 C206.20966709 117.44916899 211.20262947 112.31993216 217.77124023 109.57641602 C218.76124023 109.57641602 219.75124023 109.57641602 220.77124023 109.57641602 C220.76013718 108.35168076 220.74903412 107.1269455 220.7375946 105.86509705 C220.6361742 94.31518597 220.56125324 82.7653654 220.51217937 71.21510983 C220.48610161 65.27716937 220.45073582 59.33958881 220.39404297 53.40185547 C220.33965975 47.67005953 220.309806 41.93860945 220.29685402 36.20657539 C220.28762559 34.02130248 220.26960444 31.83604819 220.24258995 29.65092278 C220.20621672 26.58652937 220.20129848 23.52355942 220.20361328 20.45898438 C220.17664871 19.1081501 220.17664871 19.1081501 220.1491394 17.73002625 C220.19263042 12.39831483 221.0716462 9.17468575 224.37395954 4.94944096 C227.87411038 1.51005013 232.07443301 0.4284822 236.83374023 0.20141602 C242.31126002 0.72308457 245.38944678 2.04523948 249.08374023 6.13891602 C251.24849171 9.26577926 251.89622595 10.83770081 251.89149475 14.5753479 C251.89355675 15.82897377 251.89355675 15.82897377 251.8956604 17.10792542 C251.89206512 18.02645798 251.88846985 18.94499054 251.88476562 19.89135742 C251.88491165 20.85725296 251.88505768 21.8231485 251.88520813 22.8183136 C251.88450961 26.02155782 251.87672002 29.22474441 251.86889648 32.42797852 C251.86703209 34.6447242 251.86560829 36.8614703 251.86460876 39.07821655 C251.86078527 44.92095064 251.85095641 50.76365999 251.83990479 56.60638428 C251.82968706 62.56514145 251.82511037 68.52390261 251.82006836 74.48266602 C251.80933401 86.18059357 251.79225959 97.87850274 251.77124023 109.57641602 C252.55370117 109.87588135 253.33616211 110.17534668 254.14233398 110.48388672 C260.97354931 113.32282511 265.97565145 119.40858424 269.77124023 125.57641602 C269.77124023 126.56641602 269.77124023 127.55641602 269.77124023 128.57641602 C280.99394802 128.70070426 292.21529084 128.76560171 303.43872929 128.75519848 C308.65076534 128.75222257 313.86107564 128.76951024 319.07275391 128.83349609 C324.10500532 128.89452713 329.13475894 128.90182092 334.16726494 128.8722477 C336.08461675 128.87034773 338.0020889 128.88763924 339.91908455 128.92464256 C350.4555915 129.53251536 350.4555915 129.53251536 359.44442749 125.13650513 C361.2126258 122.34407411 362.48224342 119.61020924 363.77124023 116.57641602 C369.81960652 110.79391198 376.96904024 106.66793811 385.13131714 104.81268311 C389.28621372 103.40150991 391.18703183 101.77194422 394.26000977 98.67114258 C394.76018616 98.17330261 395.26036255 97.67546265 395.7756958 97.16253662 C397.41407992 95.52575768 399.03397474 93.87192464 400.65405273 92.21704102 C401.79689647 91.06739927 402.94078422 89.9187945 404.08566284 88.7711792 C407.09037229 85.75308925 410.07935744 82.71986859 413.06567383 79.68359375 C415.49730186 77.21661663 417.94001176 74.76078173 420.38339424 72.30545425 C423.3108323 69.36316514 426.23308832 66.41575539 429.15405273 63.46704102 C429.70591373 62.91026924 430.25777473 62.35349747 430.8263588 61.77985382 C432.40075675 60.1890236 433.97159975 58.59477138 435.54125977 56.99926758 C436.87859665 55.64264008 436.87859665 55.64264008 438.24295044 54.25860596 C440.09854044 52.29006389 441.7877881 50.34093562 443.47311401 48.23748779 C444.61068649 46.92025726 444.61068649 46.92025726 445.77124023 45.57641602 C446.43124023 45.57641602 447.09124023 45.57641602 447.77124023 45.57641602 C447.77124023 44.91641602 447.77124023 44.25641602 447.77124023 43.57641602 C449.39348563 41.86648168 451.06537448 40.20293918 452.77124023 38.57641602 C453.77358489 37.57876618 454.77416847 36.5793357 455.77124023 35.57641602 C455.03732056 35.57721161 454.30340088 35.5780072 453.54724121 35.5788269 C446.60341359 35.58104208 439.66021741 35.55444669 432.71665192 35.49613762 C429.14743247 35.46716361 425.57886572 35.44901906 422.00952148 35.45629883 C418.5595565 35.4629254 415.11087746 35.44022321 411.66117859 35.39786148 C409.71603898 35.38142917 407.77072076 35.39474488 405.82556152 35.40866089 C398.94387779 35.29650595 394.50295951 34.7283815 389.22766113 30.12918091 C385.58540387 26.24598395 384.59076986 22.77931879 384.33374023 17.57641602 C384.53172676 11.58282386 386.84361293 8.45194528 391.08374023 4.32641602 C396.5947079 0.73787893 402.41733066 0.27954179 408.84277344 0.30175781 C409.61777191 0.29664688 410.39277039 0.29153595 411.19125366 0.28627014 C413.73492311 0.27245261 416.27831913 0.27332526 418.82202148 0.27563477 C420.60410155 0.27174295 422.3861807 0.26740728 424.16825867 0.26264954 C427.8978476 0.25520372 431.62734184 0.25546627 435.35693359 0.26074219 C440.11455598 0.26652832 444.87178798 0.24961857 449.62934589 0.22639751 C453.30901826 0.21159722 456.98859804 0.21079711 460.66829491 0.21390724 C462.42121337 0.21339698 464.17413742 0.20821526 465.92702675 0.19809532 C487.62352285 0.08821643 487.62352285 0.08821643 495.58374023 6.20141602 C504.47101171 15.19424847 504.48882182 23.86545317 504.41837127 35.94053756 C504.41212043 36.9346461 504.40586958 37.92875463 504.39942932 38.95298767 C504.40447609 41.05728258 504.41170592 43.16157319 504.42092746 45.26585394 C504.43985801 51.04116095 504.42761108 56.81604457 504.41020453 62.5913409 C504.39683795 68.8225388 504.41226515 75.05367445 504.42402649 81.28486633 C504.44135045 92.78396527 504.43600095 104.28287503 504.41903973 115.78196266 C504.40346666 126.40590425 504.39762108 137.02979699 504.40138054 147.65374947 C504.40173574 148.7111999 504.40173574 148.7111999 504.40209812 149.79001296 C504.40307306 152.65178187 504.40409387 155.51355077 504.40518322 158.37531964 C504.41526457 185.21694722 504.39700666 212.05848904 504.36546286 238.90009646 C504.33760557 262.74039413 504.33263747 286.58058982 504.34765625 310.42089844 C504.35147877 316.52532667 504.3552736 322.62975491 504.35882664 328.73418331 C504.35926445 329.48574098 504.35970227 330.23729865 504.36015335 331.0116308 C504.37139696 350.93934282 504.36404136 370.86704737 504.35094589 390.79475695 C504.34955734 392.93942857 504.34817663 395.0841002 504.34680747 397.22877183 C504.34589809 398.65145604 504.34497542 400.07414023 504.34403936 401.49682441 C504.33724736 412.11265383 504.33990046 422.72845378 504.34698677 433.34428215 C504.35495791 445.41744049 504.34797563 457.49047015 504.32281173 469.56361454 C504.31031117 475.72380624 504.30417711 481.88382723 504.31535339 488.04402542 C504.32539226 493.68378911 504.31694314 499.32321231 504.29377221 504.96293456 C504.28861193 507.00252814 504.29017651 509.04215221 504.29916687 511.0817325 C504.39544266 534.90622397 504.39544266 534.90622397 495.60884899 544.05469996 C485.90903845 552.08707215 474.62447458 551.28190217 462.76158142 551.2046051 C460.72155702 551.20965428 458.68153706 551.21688598 456.64152724 551.22610325 C451.05315882 551.24499915 445.46522915 551.2328065 439.87687194 551.21538031 C433.84339284 551.20199538 427.80997745 551.21744744 421.77650452 551.22920227 C410.64637892 551.24651324 399.51637685 551.24118669 388.38626119 551.22421552 C378.10384919 551.20863445 367.82148767 551.20279877 357.53906441 551.20655632 C356.85641648 551.20679312 356.17376856 551.20702992 355.47043433 551.2072739 C352.69919921 551.20824886 349.92796411 551.20926967 347.15672903 551.210359 C321.17338622 551.22043661 295.19013204 551.20219228 269.20681007 551.17063865 C246.13149437 551.14277591 223.05628405 551.13781642 199.98095703 551.15283203 C194.07111333 551.15665459 188.16126962 551.16044943 182.25142574 551.16400242 C181.5238114 551.16444023 180.79619706 551.16487805 180.0465338 551.16532913 C160.7533629 551.17657288 141.46019973 551.16921718 122.16703135 551.15612167 C120.09068721 551.15473313 118.01434306 551.15335242 115.9379989 551.15198325 C114.5606634 551.15107387 113.1833279 551.1501512 111.80599241 551.14921515 C101.53035403 551.14242425 91.2547461 551.14507521 80.97910881 551.15216255 C69.29394676 551.16013415 57.6088742 551.15314949 45.92373198 551.12798751 C39.96200067 551.11548876 34.00044573 551.10935073 28.03870773 551.12052917 C22.5803611 551.13057051 17.12236617 551.12211372 11.66406233 551.09894799 C9.69047714 551.0937892 7.71686043 551.09534962 5.74328899 551.10434265 C-14.81209739 551.1902095 -14.81209739 551.1902095 -23.81469727 544.71704102 C-31.15919841 536.95560312 -34.38286313 530.06794339 -34.36298084 519.33281612 C-34.36533307 518.47803347 -34.3676853 517.62325082 -34.37010881 516.74256566 C-34.37681291 513.85277352 -34.37634017 510.9630262 -34.37593079 508.07322693 C-34.37922854 505.99061501 -34.38295392 503.90800372 -34.38707227 501.82539326 C-34.39711057 496.08228014 -34.400812 490.33917747 -34.40346158 484.59605682 C-34.40735924 478.4097619 -34.41693797 472.22347529 -34.42567444 466.03718567 C-34.4445194 451.79366647 -34.45469746 437.55014919 -34.46313512 423.30662104 C-34.46734062 416.26869765 -34.47256277 409.23077511 -34.47781965 402.19285245 C-34.49571133 378.1037439 -34.51070726 354.0146351 -34.51813984 329.9255209 C-34.5186146 328.41290442 -34.51909049 326.90028795 -34.5195675 325.38767147 C-34.51980388 324.63754447 -34.52004025 323.88741747 -34.52028379 323.11455934 C-34.521485 319.3140031 -34.52270045 315.51344686 -34.52392578 311.71289062 C-34.52416593 310.95865647 -34.52440608 310.20442232 -34.52465351 309.42733258 C-34.53254577 284.97534072 -34.55597532 260.52339738 -34.58848173 236.0714267 C-34.62278194 210.22293781 -34.6424912 184.3744773 -34.64578408 158.52596527 C-34.64620162 155.68813295 -34.64668118 152.85030064 -34.64720726 150.01246834 C-34.64733045 149.31370793 -34.64745364 148.61494751 -34.64758057 147.89501254 C-34.64991245 136.65079516 -34.66557186 125.40663413 -34.68604911 114.16243683 C-34.70630826 102.85859473 -34.71145067 91.55483968 -34.70227847 80.25097584 C-34.69772613 74.1272661 -34.69967449 68.00373927 -34.71903992 61.88005447 C-34.73661735 56.27338164 -34.73571771 50.6670259 -34.72014263 45.06034995 C-34.71775832 43.03268043 -34.72213254 41.00498927 -34.73397128 38.97735291 C-34.85607336 16.68268196 -34.85607336 16.68268196 -27.04125977 7.70141602 C-19.56518858 0.16856454 -9.96892058 -0.08757308 0 0 Z " fill="#03181F" transform="translate(277.228759765625,243.423583984375)"/>
<path d="M0 0 C41.58 0 83.16 0 126 0 C126 13.53 126 27.06 126 41 C120.51375 41.144375 115.0275 41.28875 109.375 41.4375 C106.79437744 41.53309204 106.79437744 41.53309204 104.16162109 41.63061523 C93.32528089 41.86477553 93.32528089 41.86477553 89.71582031 39.50952148 C88.2441566 37.7444975 87.12979327 35.9945349 86 34 C83.98351624 32.29650248 83.98351624 32.29650248 82 31.1875 C81.38125 30.80980469 80.7625 30.43210937 80.125 30.04296875 C72.42567372 26.26407148 63.6985105 25.5097506 55.37109375 27.6875 C53.10215876 28.63453373 51.08735106 29.70245745 49 31 C48.29101562 31.43570313 47.58203125 31.87140625 46.8515625 32.3203125 C39.9125113 37.04093097 36.28749963 42.98875677 34 51 C32.74766047 61.15054145 34.53974062 70.18929961 40.83203125 78.38671875 C47.58919118 85.59702155 54.84841543 88.83596836 64.625 89.3125 C74.90548542 89.12946465 81.78011485 84.97534836 89.1015625 78.0234375 C91.04818858 76.14182758 91.04818858 76.14182758 92 74 C103.22 74 114.44 74 126 74 C126 90.83 126 107.66 126 125 C120.534375 125.165 115.06875 125.33 109.4375 125.5 C107.72618896 125.57283203 106.01487793 125.64566406 104.25170898 125.72070312 C93.43058577 125.98851756 93.43058577 125.98851756 89.52392578 123.2890625 C87.8225379 121.27451594 86.42153341 119.21600925 85 117 C76.50311559 110.7827675 66.41581843 110.85910486 56.359375 112.40625 C49.12483012 114.32871647 43.27021461 119.34603553 39.359375 125.640625 C35.1515508 133.91117601 33.40202004 141.44852589 36.125 150.5625 C39.95357071 160.64143497 46.07565505 166.58210868 55.25 171.875 C63.49427987 174.34828396 72.25900576 173.85605497 80 170 C84.1614071 167.44435325 87.33194021 164.96078881 90.13842773 160.92456055 C92.39530936 158.20894538 92.871571 158.0243207 96.59692383 157.31884766 C97.96732641 157.32033211 99.33799395 157.35288814 100.70703125 157.4140625 C101.35071655 157.42010498 101.99440186 157.42614746 102.65759277 157.43237305 C105.04322202 157.46357244 107.42793092 157.54734316 109.8125 157.625 C117.8253125 157.810625 117.8253125 157.810625 126 158 C126 171.53 126 185.06 126 199 C53.07 199 -19.86 199 -95 199 C-95 159 -95 159 -89 151 C-87.57891361 148.54389822 -87.57891361 148.54389822 -86.6875 146.3125 C-86.38199219 145.60738281 -86.07648438 144.90226563 -85.76171875 144.17578125 C-82.51602421 134.90474607 -82.92923098 124.58832472 -86.67578125 115.5703125 C-90.53120957 108.08691477 -95.39361983 102.66659158 -103 99 C-103.63035156 98.68160156 -104.26070312 98.36320313 -104.91015625 98.03515625 C-113.78150479 94.32594116 -125.80762036 94.60632822 -134.9375 97.4375 C-144.71304993 101.70130369 -150.55157039 108.7873976 -154.94140625 118.30078125 C-158.34237485 126.9726237 -158.09048011 136.89208732 -155.03515625 145.66015625 C-150.55520031 155.78654722 -143.36447749 162.98934219 -133.17578125 167.2734375 C-130.56880925 168.194198 -130.56880925 168.194198 -126 169 C-126 178.9 -126 188.8 -126 199 C-146.46 199 -166.92 199 -188 199 C-188 154.12 -188 109.24 -188 63 C-136.19 63 -84.38 63 -31 63 C-31 74.22 -31 85.44 -31 97 C-34.96 98.32 -38.92 99.64 -43 101 C-51.85464467 106.67605427 -57.22816538 113.77417769 -60 124 C-61.1363395 135.88969959 -60.19893828 145.84014689 -52.98046875 155.78125 C-46.06184132 164.02059616 -37.9803904 169.19543748 -27.1328125 170.2890625 C-16.91580209 170.75458576 -7.6322136 168.28668087 0.4375 161.8125 C7.98820042 154.48528754 12.16189459 145.30196371 12.37988281 134.79614258 C12.37746582 133.721427 12.37746582 133.721427 12.375 132.625 C12.37258301 131.50291138 12.37258301 131.50291138 12.37011719 130.3581543 C12.24011172 124.49834924 11.18420878 119.99440965 8 115 C7.01 113.3603125 7.01 113.3603125 6 111.6875 C4.19160192 108.98253043 4.19160192 108.98253043 1.90338135 107.46282959 C-1.10083172 103.57560812 -0.52504163 99.68481966 -0.45410156 94.90722656 C-0.4545837 93.86596493 -0.45506584 92.82470329 -0.45556259 91.75188828 C-0.45257683 88.38111955 -0.42211583 85.01123545 -0.390625 81.640625 C-0.38474392 79.55973741 -0.38066317 77.47884391 -0.37841797 75.39794922 C-0.35744576 67.68187591 -0.30160088 59.96592927 -0.25 52.25 C-0.1675 35.0075 -0.085 17.765 0 0 Z " fill="#FBF8EF" transform="translate(624,564)"/>
<path d="M0 0 C32.01 0 64.02 0 97 0 C97.1875 32.5 97.1875 32.5 97.20776367 42.72070312 C97.23421856 45.40757196 97.26249768 48.09442371 97.29296875 50.78125 C97.2906575 51.47021362 97.28834625 52.15917725 97.28596497 52.86901855 C97.21766744 63.13838166 97.21766744 63.13838166 101.24751282 72.39440918 C110.43426586 80.81111345 116.3663691 78.31831846 130 79 C130 99.79 130 120.58 130 142 C120.1 142.495 120.1 142.495 110 143 C108.02 143.99 106.04 144.98 104 146 C103.01 146.33 102.02 146.66 101 147 C99.83046584 149.42383077 99.83046584 149.42383077 99 152 C98.67 152.66 98.34 153.32 98 154 C97.17985977 164.0371529 97.17985977 164.0371529 101 173 C110.13011414 181.42779767 115.58270323 179.27913516 130 180 C130 212.34 130 244.68 130 278 C95.35 278 60.7 278 25 278 C25 277.34 25 276.68 25 276 C25.7425 275.566875 26.485 275.13375 27.25 274.6875 C31.26197653 272.22560531 33.3470436 269.4691519 35.25 265.1875 C36.47350118 259.98762 36.71913972 255.83380628 34.75 250.8125 C30.82750375 244.50848817 29.32660914 243.13997535 22 240 C14.74 239.67 7.48 239.34 0 239 C0 160.13 0 81.26 0 0 Z " fill="#FCF9F0" transform="translate(275,485)"/>
<path d="M0 0 C4.21702382 2.44510005 6.52008789 4.64245273 8.75390625 9.046875 C9.10552979 11.94807434 9.10552979 11.94807434 9.07519531 15.17895508 C9.07239563 16.39404251 9.06959595 17.60912994 9.06671143 18.86103821 C9.05114197 20.16630966 9.03557251 21.47158112 9.01953125 22.81640625 C9.01860293 24.18015072 9.0200038 25.54389856 9.02362061 26.90763855 C9.03624995 32.68162125 9.01945653 38.45502662 8.96337891 44.22875977 C8.93055876 47.76868595 8.93205667 51.30727783 8.95439911 54.84726524 C8.95697687 56.83693249 8.92155301 58.82653331 8.88531494 60.81587219 C8.93316159 66.78901488 9.01793727 71.00388821 13.00561523 75.66113281 C14.22398282 76.82317888 15.47115122 77.95632002 16.75390625 79.046875 C17.98911011 80.22431274 17.98911011 80.22431274 19.24926758 81.42553711 C20.37498169 82.39632202 20.37498169 82.39632202 21.5234375 83.38671875 C27.04232881 88.25608302 32.24971585 93.39502996 37.44140625 98.609375 C38.33923828 99.50333984 39.23707031 100.39730469 40.16210938 101.31835938 C44.74016964 105.90312742 49.14079347 110.50741025 53.19458008 115.56616211 C55.09044977 117.36645171 56.13218907 117.94683332 58.75390625 118.046875 C60.77405197 116.73661041 60.77405197 116.73661041 62.6171875 114.70703125 C63.33970703 113.97291016 64.06222656 113.23878906 64.80664062 112.48242188 C65.92522461 111.30776367 65.92522461 111.30776367 67.06640625 110.109375 C67.80052734 109.36107422 68.53464844 108.61277344 69.29101562 107.84179688 C73.36206698 103.67773222 73.36206698 103.67773222 77.1971283 99.2986908 C80.51010365 95.32766058 83.9197306 92.01210341 87.97631836 88.79467773 C96.24024828 81.99096169 103.73026448 75.63244055 105.48876953 64.62939453 C106.08339766 57.13972267 105.85444592 49.7066741 105.42626953 42.21380615 C105.20524193 37.98002238 105.11840399 33.74163142 105.02760983 29.50335598 C104.95708193 26.21158451 104.85572234 22.92933334 104.68690491 19.6408844 C104.28875093 9.9232995 104.28875093 9.9232995 106.58569336 6.35327148 C110.69507669 1.98199074 113.84546831 -0.66798403 119.94140625 -1.265625 C125.46136582 -0.8131693 129.86865959 1.03999952 133.69140625 5.109375 C135.92651851 9.18516795 135.89119601 12.6162357 135.91503906 17.19287109 C135.92000397 17.9167955 135.92496887 18.64071991 135.93008423 19.38658142 C135.94468778 21.78116812 135.95150462 24.17568859 135.95703125 26.5703125 C135.96278395 28.2355652 135.96854167 29.90081789 135.9743042 31.56607056 C135.98480887 35.05804757 135.99065511 38.5500016 135.99414062 42.04199219 C135.99962593 46.51322725 136.02365684 50.98415789 136.05211258 55.45529747 C136.07074928 58.89542526 136.07594509 62.33547984 136.0774765 65.77565384 C136.08050095 67.4238616 136.08852252 69.07206813 136.10166168 70.72022629 C136.11874502 73.02774894 136.11683675 75.33452935 136.11035156 77.64208984 C136.11582001 79.61041275 136.11582001 79.61041275 136.12139893 81.61849976 C135.41447967 88.21341886 131.2200865 91.87147063 126.7253418 96.33422852 C125.81742889 97.24739838 125.81742889 97.24739838 124.89117432 98.17901611 C122.89598092 100.18298632 120.89359052 102.17958148 118.890625 104.17578125 C117.49651834 105.57123589 116.10270863 106.96698725 114.70918274 108.36302185 C111.7895882 111.28556232 108.86641397 114.20446187 105.94067383 117.12084961 C102.19814113 120.8519988 98.4646446 124.59204032 94.73379803 128.33487034 C91.85746362 131.21844664 88.97636412 134.09722401 86.09382057 136.97459221 C84.71569979 138.35138239 83.33905329 139.72964996 81.96393394 141.10943794 C80.03765099 143.04082316 78.10503182 144.9656424 76.1706543 146.88891602 C75.60784256 147.45577621 75.04503082 148.02263641 74.46516418 148.60667419 C68.55557392 154.45385295 63.48206601 157.98077394 54.984375 158.47265625 C48.88559064 157.30843997 44.5138272 152.03409353 40.37890625 147.734375 C37.09395486 144.34073036 33.7995386 141.0444948 30.20019531 137.98217773 C24.98330986 133.44052097 20.09789329 128.57454749 15.19921875 123.6953125 C14.46927011 122.96960493 14.46927011 122.96960493 13.72457504 122.2292366 C11.15843624 119.67795638 8.59508126 117.12391964 6.03417969 114.56738281 C3.39812702 111.93685238 0.75289016 109.31575975 -1.89451408 106.696661 C-3.94132027 104.66848553 -5.98138076 102.63362613 -8.01965714 100.59688187 C-8.99236919 99.62718655 -9.96757011 98.65998093 -10.9453392 97.69538498 C-12.30901285 96.34880929 -13.66230716 94.99174708 -15.01513672 93.63427734 C-15.78598602 92.86707367 -16.55683533 92.09987 -17.3510437 91.30941772 C-21.20310263 86.71035824 -21.54181605 82.40471359 -21.52075195 76.58203125 C-21.52586288 75.84806122 -21.53097382 75.11409119 -21.53623962 74.35787964 C-21.5500933 71.94162755 -21.54918233 69.52566198 -21.546875 67.109375 C-21.55076374 65.42455947 -21.55509878 63.73974493 -21.55986023 62.05493164 C-21.56731296 58.52779966 -21.56703766 55.0007678 -21.56176758 51.47363281 C-21.55596865 46.95758932 -21.57291859 42.44195539 -21.59611225 37.92597961 C-21.61085404 34.44809582 -21.61172079 30.97031063 -21.60860252 27.49240112 C-21.60911533 25.82745552 -21.61434546 24.16250434 -21.62441444 22.49758911 C-21.63677291 20.16869567 -21.62999173 17.84059975 -21.6184082 15.51171875 C-21.62987381 14.48448196 -21.62987381 14.48448196 -21.64157104 13.43649292 C-21.59435713 9.13450162 -20.8710267 6.4660742 -18.24609375 3.046875 C-12.53286695 -1.18091283 -6.80634452 -2.8882575 0 0 Z " fill="#02171E" transform="translate(457.24609375,422.953125)"/>
<path d="M0 0 C4.94210764 2.33626907 7.40355753 5.24001771 10 10 C10.56282345 13.10286484 10.54735482 16.14371873 10.51757812 19.29077148 C10.5245874 20.2069928 10.53159668 21.12321411 10.53881836 22.06719971 C10.55637354 25.08547587 10.54478324 28.10280861 10.53125 31.12109375 C10.53394585 33.22567423 10.53782905 35.33025349 10.54284668 37.43482971 C10.54873858 41.84217201 10.54018935 46.24918964 10.52148438 50.65649414 C10.4987093 56.29678198 10.51181107 61.93630783 10.53577423 67.57656765 C10.55025235 71.92183639 10.54561668 76.26692553 10.53526306 80.61219978 C10.53260063 82.69135695 10.53584847 84.77053058 10.54518127 86.8496685 C10.55537828 89.76016066 10.53980078 92.66943235 10.51757812 95.57983398 C10.52567505 96.43356094 10.53377197 97.2872879 10.54211426 98.16688538 C10.42155522 106.72087226 6.67074395 111.80410598 0.640625 117.7578125 C0.1325531 118.26875458 -0.3755188 118.77969666 -0.89898682 119.30612183 C-1.96771409 120.37687576 -3.04017979 121.4439104 -4.11621094 122.50732422 C-5.74252902 124.1176027 -7.35223999 125.74323338 -8.9609375 127.37109375 C-21.56541039 140.00776057 -21.56541039 140.00776057 -29.125 141.69921875 C-35.41658479 141.6735737 -39.64975193 141.02930078 -44.44140625 136.765625 C-48.45778766 132.21573929 -49.68280147 127.17587564 -49.3828125 121.24609375 C-47.88579124 112.46255065 -40.34719513 107.71989435 -33.66796875 102.7109375 C-32.8348391 102.06091766 -32.8348391 102.06091766 -31.98487854 101.39776611 C-30 100 -30 100 -27.92201233 99.0819397 C-25.1966594 97.67934399 -23.79462147 96.51374811 -22 94 C-20.81387674 87.76172718 -21.02664154 81.57800951 -21.140625 75.25 C-21.14326486 73.38964978 -21.1417989 71.52928961 -21.13641357 69.66894531 C-21.13064105 64.77822543 -21.16905946 59.88895445 -21.22027588 54.99853516 C-21.29785862 47.17207728 -21.32173291 39.34572207 -21.3201828 31.5189209 C-21.32801095 28.78976259 -21.36284364 26.06189709 -21.40045166 23.33300781 C-21.40753067 21.65430048 -21.41374131 19.97558919 -21.41894531 18.296875 C-21.43654404 17.54241089 -21.45414276 16.78794678 -21.47227478 16.01062012 C-21.45507203 10.84316332 -20.23585284 7.98782791 -17 4 C-11.88316413 -0.74243324 -6.65547173 -0.97203611 0 0 Z " fill="#03181F" transform="translate(450,244)"/>
<path d="M0 0 C17.49 0 34.98 0 53 0 C53 15.51 53 31.02 53 47 C35.51 47 18.02 47 0 47 C0 31.49 0 15.98 0 0 Z " fill="#F7F5EC" transform="translate(697,485)"/>
<path d="M0 0 C5.85161776 3.6810368 9.32413196 8.26712664 11 15 C12.12935526 23.39651086 11.63360955 29.91822004 6.703125 36.9453125 C1.72249746 42.95405122 -3.88021866 46.46146392 -11.7109375 47.28515625 C-20.68755352 47.56798114 -26.61254794 44.99733987 -33.203125 38.96875 C-38.2254876 33.4659875 -40.41064965 26.60276631 -40.2734375 19.20703125 C-39.32864764 11.58122736 -34.67185512 4.96567553 -29 0 C-19.58714727 -6.21108312 -9.62855905 -5.19456715 0 0 Z " fill="#03181F" transform="translate(361,678)"/>
<path d="M0 0 C5.00330085 2.84163131 8.92457418 6.96122253 10.75 12.4375 C11.25723134 18.65108393 11.53986129 24.22644073 7.75 29.4375 C2.4102453 34.89062529 -1.31668184 37.49440084 -9 37.8125 C-14.5558818 37.75513839 -18.05260465 35.98391043 -22.25 32.4375 C-27.47436268 26.93817086 -28.77906957 21.65464137 -28.62890625 14.2265625 C-27.8170229 8.25043145 -24.77196753 4.62463468 -20.125 1 C-13.80808386 -2.4331066 -6.64399112 -2.99555669 0 0 Z " fill="#05191F" transform="translate(332.25,592.5625)"/>
<path d="M0 0 C6.04281888 2.69585115 10.02227578 7.21473724 12.62890625 13.296875 C13.66404225 19.70027442 12.39745532 25.04742982 8.62890625 30.296875 C3.87197916 35.49148545 -0.69644894 37.88858113 -7.74609375 38.671875 C-15.07743837 37.91346004 -19.65132781 34.5970791 -24.2421875 28.98046875 C-27.36548381 24.32254242 -26.87802363 18.66004621 -26.37109375 13.296875 C-24.86352576 7.66990149 -21.55781503 3.63146453 -16.77734375 0.3671875 C-11.39729683 -2.02588532 -5.56546328 -1.6503845 0 0 Z " fill="#05191F" transform="translate(330.37109375,521.703125)"/>
<path d="M0 0 C6.5362785 2.62978818 9.95819102 5.72325293 13.08984375 12.12890625 C14.359995 18.6066776 13.29933652 24.75968147 10.05078125 30.51953125 C7.49040235 33.96331573 4.77823287 35.92781501 0.71484375 37.31640625 C-5.16808693 38.12809266 -10.31807645 38.19456687 -15.78515625 35.75390625 C-20.91452197 30.75277467 -24.33874766 26.02057023 -24.72265625 18.69140625 C-24.651925 12.64388452 -22.37127462 8.6784934 -18.28515625 4.31640625 C-15.99236417 2.59799893 -13.91363106 1.52954847 -11.28515625 0.31640625 C-7.5994354 -1.52645417 -3.89167766 -1.16417708 0 0 Z " fill="#081B20" transform="translate(615.28515625,296.68359375)"/>
<path d="M0 0 C4.81836098 2.85532503 8.84625969 6.94251937 11.375 12 C12.16507952 18.70438907 11.8178585 23.80119704 7.80859375 29.34375 C4.38318474 33.30117076 1.23039306 35.6770961 -4.04296875 36.2734375 C-9.85386956 36.48653118 -14.11833136 36.16149321 -18.8984375 32.6796875 C-23.06193425 28.62922686 -25.85136168 23.74682231 -26.125 17.875 C-25.06635759 9.67052134 -21.66989624 5.25838864 -15.375 0.1875 C-10.17586717 -2.05758008 -5.36633524 -1.48036834 0 0 Z " fill="#051B23" transform="translate(616.625,244)"/>
<path d="M0 0 C5.05711399 2.87051423 8.55472026 6.72945461 10.67578125 12.1640625 C11.77346015 17.72045482 10.77040586 22.40294219 8.015625 27.3046875 C4.84407241 31.70602579 1.10892232 35.19271508 -4.32421875 36.1640625 C-9.81815456 36.57869916 -13.50724779 35.8790825 -18.32421875 33.1640625 C-23.4267286 28.42434578 -26.31957915 23.8123951 -26.69921875 16.7890625 C-26.55255571 11.27086567 -24.69107167 7.54945474 -20.828125 3.65625 C-14.95778958 -1.46748416 -7.39606098 -2.66009588 0 0 Z " fill="#06191E" transform="translate(367.32421875,299.8359375)"/>
<path d="M0 0 C4.84928864 2.85252273 8.00500022 6.63891501 10.1875 11.875 C11.15989603 18.46682154 10.62181225 23.76436257 6.6875 29.21875 C3.26996423 32.99227908 -0.72360156 35.44852487 -5.79296875 36.1484375 C-12.09468655 36.43842805 -15.96331415 34.87750261 -20.8125 30.875 C-24.99944929 26.57786783 -26.47190831 22.45376562 -27.25 16.5625 C-26.56291823 10.77138225 -24.28879253 6.24147912 -20.05078125 2.19140625 C-13.66532731 -2.3807342 -7.31581483 -2.15876503 0 0 Z " fill="#051820" transform="translate(367.8125,372.125)"/>
<path d="M0 0 C4.9311726 3.18612294 8.80402992 7.61538695 10.3125 13.375 C10.93525933 19.70638649 9.98387482 24.1205553 6.3125 29.375 C2.09989249 33.81858599 -1.79460707 35.52702367 -7.875 35.75 C-13.657312 35.65833852 -17.57656053 34.54174408 -21.6875 30.375 C-25.34371299 25.09578514 -27.77105319 19.87631916 -26.6875 13.375 C-24.33205172 6.53235694 -20.64599398 2.56258878 -14.3125 -0.9375 C-9.15629663 -2.28793422 -4.740484 -2.47868444 0 0 Z " fill="#04181E" transform="translate(367.6875,244.625)"/>
<path d="M0 0 C0.33 0 0.66 0 1 0 C1 19.14 1 38.28 1 58 C0.67 58 0.34 58 0 58 C-0.06058594 57.25234375 -0.12117187 56.5046875 -0.18359375 55.734375 C-0.26738281 54.74953125 -0.35117188 53.7646875 -0.4375 52.75 C-0.51871094 51.77546875 -0.59992188 50.8009375 -0.68359375 49.796875 C-0.95074584 47.43538247 -1.35371968 45.28098935 -2 43 C-1.34 43 -0.68 43 0 43 C-0.07726318 42.32227539 -0.15452637 41.64455078 -0.23413086 40.94628906 C-1.11262263 32.16576014 -0.92128702 23.54283737 -0.5625 14.75 C-0.50910975 13.31122211 -0.45637148 11.87241986 -0.40429688 10.43359375 C-0.27702218 6.95541706 -0.14101174 3.47765011 0 0 Z " fill="#FAFEFC" transform="translate(242,614)"/>
<path d="M0 0 C1 3 1 3 1 7 C-1.1875 8.921875 -1.1875 8.921875 -4 10.75 C-5.3921875 11.67039062 -5.3921875 11.67039062 -6.8125 12.609375 C-7.534375 13.06828125 -8.25625 13.5271875 -9 14 C-9.66 13.67 -10.32 13.34 -11 13 C-10.29875 12.525625 -9.5975 12.05125 -8.875 11.5625 C-5.09488344 8.19326567 -2.65916349 4.27659282 0 0 Z " fill="#E5EAE8" transform="translate(702,404)"/>
<path d="M0 0 C2.625 0.375 2.625 0.375 5 1 C5 1.66 5 2.32 5 3 C9.62 3 14.24 3 19 3 C19 3.33 19 3.66 19 4 C16.62468606 4.0543965 14.25064117 4.09385864 11.875 4.125 C11.20984375 4.14175781 10.5446875 4.15851563 9.859375 4.17578125 C5.50483944 4.21847278 2.04399886 3.59996217 -2 2 C-1.34 1.34 -0.68 0.68 0 0 Z " fill="#233030" transform="translate(657,420)"/>
<path d="M0 0 C3.63 0.66 7.26 1.32 11 2 C10.67 2.66 10.34 3.32 10 4 C2.25 3.125 2.25 3.125 0 2 C0 1.34 0 0.68 0 0 Z " fill="#1C2324" transform="translate(488,729)"/>
<path d="M0 0 C0.66 0.66 1.32 1.32 2 2 C0.90716423 3.03295436 -0.19970579 4.05107835 -1.3125 5.0625 C-1.92738281 5.63097656 -2.54226563 6.19945312 -3.17578125 6.78515625 C-3.77777344 7.18605469 -4.37976563 7.58695312 -5 8 C-5.99 7.67 -6.98 7.34 -8 7 C-5.36 4.69 -2.72 2.38 0 0 Z " fill="#EEF1EC" transform="translate(437,374)"/>
<path d="M0 0 C4.455 1.98 4.455 1.98 9 4 C7.02 4.99 7.02 4.99 5 6 C2.25 4.8125 2.25 4.8125 0 3 C0 2.01 0 1.02 0 0 Z " fill="#162120" transform="translate(647,415)"/>
<path d="M0 0 C1.27875 -0.061875 2.5575 -0.12375 3.875 -0.1875 C4.95394531 -0.23970703 4.95394531 -0.23970703 6.0546875 -0.29296875 C6.69664062 -0.19628906 7.33859375 -0.09960938 8 0 C8.66 0.99 9.32 1.98 10 3 C6.7 2.67 3.4 2.34 0 2 C0 1.34 0 0.68 0 0 Z " fill="#303937" transform="translate(356,243)"/>
<path d="M0 0 C0.99 0.66 1.98 1.32 3 2 C2.01 2 1.02 2 0 2 C-0.33 2.99 -0.66 3.98 -1 5 C-2.65 5.33 -4.3 5.66 -6 6 C-4 4 -2 2 0 0 Z " fill="#19262B" transform="translate(313,593)"/>
<path d="M0 0 C0.66 0 1.32 0 2 0 C0.62845496 2.95409701 -0.98863724 5.44008376 -3 8 C-3.66 7.67 -4.32 7.34 -5 7 C-4.21654285 5.82780457 -3.42297164 4.66236332 -2.625 3.5 C-2.18414063 2.8503125 -1.74328125 2.200625 -1.2890625 1.53125 C-0.65097656 0.77328125 -0.65097656 0.77328125 0 0 Z " fill="#1C2A2E" transform="translate(642,359)"/>
<path d="M0 0 C0.66 0.66 1.32 1.32 2 2 C0.35 4.31 -1.3 6.62 -3 9 C-3.33 8.01 -3.66 7.02 -4 6 C-2.0625 2.8125 -2.0625 2.8125 0 0 Z " fill="#243236" transform="translate(596,248)"/>
<path d="M0 0 C0.33 0.66 0.66 1.32 1 2 C-0.25 4.5625 -0.25 4.5625 -2 7 C-2.99 7.33 -3.98 7.66 -5 8 C-3.8141763 4.62496331 -2.72426311 2.35277269 0 0 Z " fill="#172223" transform="translate(668,248)"/>
</svg>
