<?xml version="1.0" encoding="UTF-8"?>
<svg version="1.1" xmlns="http://www.w3.org/2000/svg" width="1024" height="1024">
<path d="M0 0 C337.92 0 675.84 0 1024 0 C1024 337.92 1024 675.84 1024 1024 C686.08 1024 348.16 1024 0 1024 C0 686.08 0 348.16 0 0 Z " fill="#FEFEFE" transform="translate(0,0)"/>
<path d="M0 0 C1.17474884 -0.00832352 2.34949768 -0.01664703 3.55984497 -0.02522278 C7.43999557 -0.0493003 11.31997795 -0.05809254 15.20019531 -0.06469727 C16.54159893 -0.06885941 17.88300168 -0.07331205 19.22440338 -0.07805061 C26.25150131 -0.10251896 33.27852572 -0.11559095 40.30566406 -0.11914062 C46.83481523 -0.12277203 53.36349524 -0.15264522 59.89250255 -0.19454521 C65.51483014 -0.22934933 71.13700236 -0.24469082 76.75943685 -0.24538666 C80.11009564 -0.24617619 83.45989365 -0.2571641 86.81050873 -0.28338432 C90.55377302 -0.31034429 94.29574956 -0.30545762 98.0390625 -0.29296875 C99.68217911 -0.31522018 99.68217911 -0.31522018 101.35848999 -0.33792114 C109.75099156 -0.25848999 116.25749655 1.90416099 122.71582031 7.36889648 C123.48925781 8.32795898 123.48925781 8.32795898 124.27832031 9.30639648 C125.08269531 10.26545898 125.08269531 10.26545898 125.90332031 11.24389648 C128.58040768 15.25952753 129.52815111 18.79975933 129.53901672 23.59931946 C129.54610153 24.64640076 129.55318634 25.69348206 129.56048584 26.77229309 C129.55800842 27.91059067 129.55553101 29.04888824 129.55297852 30.22167969 C129.55808945 31.4287558 129.56320038 32.63583191 129.56846619 33.87948608 C129.57997392 37.18342367 129.5824373 40.48711013 129.57990289 43.7910502 C129.57883121 46.55424133 129.58372176 49.31740947 129.58850831 52.08059567 C129.59959629 58.60371547 129.60004544 65.12677769 129.59399414 71.64990234 C129.58795942 78.36583354 129.60025408 85.08155496 129.62156421 91.79745036 C129.63921658 97.57428737 129.6451757 103.35105784 129.64192647 109.12792081 C129.64011864 112.57330256 129.64269912 116.01853479 129.65664101 119.46389198 C129.67162367 123.31032059 129.66221746 127.1564851 129.65063477 131.00292969 C129.6582785 132.13515457 129.66592224 133.26737946 129.67379761 134.43391418 C129.61715541 142.95765042 128.33408948 150.31017405 122.17098999 156.64402771 C114.48899954 163.39127008 104.45309998 162.84776464 94.83506393 162.76168633 C92.25252151 162.73956856 89.67113527 162.74358954 87.08853149 162.75416565 C80.68097125 162.77569764 74.27367823 162.75848415 67.8661499 162.73266602 C62.43395672 162.71120762 57.0025126 162.70938336 51.57033157 162.73558235 C49.03739112 162.73990803 46.50578238 162.71537936 43.97299194 162.69004822 C35.84091509 162.68315096 29.71976913 162.76391222 23.27832031 168.30639648 C18.82560227 173.04638666 18.98447791 178.38444767 19.06738281 184.61889648 C19.47104352 189.76183288 21.50872503 192.80877923 25.27832031 196.11889648 C29.83662541 199.44266062 33.51282889 199.45641667 38.94335938 199.46411133 C40.11220924 199.47173241 40.11220924 199.47173241 41.30467224 199.47950745 C42.99724453 199.49020736 44.68983094 199.49882903 46.3824234 199.50562668 C49.06465514 199.51742508 51.74672655 199.53688148 54.42889404 199.55874634 C62.05524328 199.62032285 69.68157671 199.67435433 77.30810547 199.70776367 C81.97364068 199.72875175 86.63888438 199.76409025 91.30425262 199.80852127 C93.07914541 199.82265092 94.85408977 199.83139684 96.62903595 199.83457565 C99.11823347 199.83950458 101.6066627 199.86271356 104.09570312 199.88989258 C105.18699776 199.88538338 105.18699776 199.88538338 106.30033875 199.88078308 C112.8506319 199.98657626 118.3258116 201.78019132 123.02832031 206.49389648 C123.58003906 207.02370117 124.13175781 207.55350586 124.70019531 208.09936523 C129.5061231 214.82052662 129.78246567 221.82261144 129.96582031 229.80639648 C129.99998047 230.81959961 130.03414062 231.83280273 130.06933594 232.87670898 C130.15110557 235.35316065 130.22048282 237.82928998 130.27832031 240.30639648 C131.79014893 240.31255981 131.79014893 240.31255981 133.33251953 240.31884766 C137.11638681 240.34082402 140.89924126 240.39530006 144.68261719 240.45898438 C146.31174928 240.48200472 147.94102682 240.49652217 149.5703125 240.50195312 C161.28705356 240.54867633 169.88228435 241.49145532 179.09082031 249.43139648 C185.73137108 256.78006286 187.99208703 264.67680378 187.79980469 274.45458984 C187.2736577 284.46214466 183.51093717 291.49922767 176.27832031 298.30639648 C169.84936313 303.29211838 164.06114249 304.61447387 156.03613281 304.50170898 C155.26776093 304.49887909 154.49938904 304.49604919 153.70773315 304.49313354 C151.27276511 304.48200959 148.8381757 304.45692009 146.40332031 304.43139648 C144.74447149 304.42135659 143.08561685 304.41223251 141.42675781 304.40405273 C137.37713452 304.38209586 133.32779144 304.34762054 129.27832031 304.30639648 C129.29926758 304.96124023 129.32021484 305.61608398 129.34179688 306.29077148 C129.42562414 309.29581977 129.47718926 312.30062112 129.52832031 315.30639648 C129.56183594 316.33635742 129.59535156 317.36631836 129.62988281 318.42749023 C129.72762092 326.09993171 128.56667136 331.41743338 123.56738281 337.32983398 C123.01824219 337.77584961 122.46910156 338.22186523 121.90332031 338.68139648 C121.35933594 339.14288086 120.81535156 339.60436523 120.25488281 340.07983398 C114.62850046 343.57130446 109.06899487 343.58862936 102.67324829 343.54690552 C101.23223159 343.54946879 101.23223159 343.54946879 99.76210344 343.55208385 C96.54689253 343.55537496 93.33189086 343.54438116 90.11669922 343.53344727 C87.81042485 343.53288307 85.50415013 343.53319987 83.19787598 343.53433228 C76.93806889 343.53490646 70.67833835 343.52314136 64.41854906 343.50918436 C57.87623513 343.49668808 51.33391948 343.49550737 44.79159546 343.49313354 C33.81108268 343.4879553 22.83059674 343.47512682 11.85009766 343.45727539 C0.54150533 343.43890972 -10.76707936 343.42475658 -22.07568359 343.41625977 C-22.77306422 343.41573432 -23.47044484 343.41520887 -24.18895821 343.4146675 C-27.68760703 343.41205738 -31.1862559 343.40952997 -34.68490481 343.4070437 C-63.69718451 343.38631946 -92.70942351 343.34945415 -121.72167969 343.30639648 C-121.72167969 326.47639648 -121.72167969 309.64639648 -121.72167969 292.30639648 C-118.00724609 292.3022876 -114.2928125 292.29817871 -110.46582031 292.29394531 C-98.18822905 292.27674181 -85.9108601 292.2324813 -73.63339996 292.17430592 C-66.19013716 292.13969644 -58.74705878 292.11430573 -51.30371094 292.11083984 C-44.81381342 292.10779428 -38.32424468 292.08722486 -31.83447409 292.04587191 C-28.40012079 292.02459323 -24.96623429 292.01191442 -21.53181458 292.02024269 C-17.69160003 292.02514349 -13.85274295 291.99907453 -10.01269531 291.96582031 C-8.88196594 291.97444595 -7.75123657 291.98307159 -6.58624268 291.99195862 C1.77814758 291.87067999 6.81768467 289.85810149 12.65332031 283.86889648 C16.12892268 278.38813891 17.32912262 272.70870748 16.27832031 266.30639648 C13.59127747 259.76754116 9.36264896 256.27376852 3.04516602 253.23071289 C-0.38276617 252.08554822 -3.3788643 251.98152773 -6.99121094 251.89233398 C-7.67221359 251.87296783 -8.35321625 251.85360168 -9.05485535 251.83364868 C-11.21450562 251.77421517 -13.37421026 251.72761449 -15.53417969 251.68139648 C-17.00490512 251.64318321 -18.47560898 251.60412955 -19.94628906 251.56420898 C-23.53788758 251.46854466 -27.12964882 251.38438074 -30.72167969 251.30639648 C-30.81296451 221.75978263 -30.88373615 192.21317545 -30.92594101 162.66645014 C-30.93094373 159.17680312 -30.93612103 155.68715637 -30.94140625 152.19750977 C-30.94245549 151.50279501 -30.94350473 150.80808025 -30.94458577 150.09231353 C-30.9619827 138.84915177 -30.99351643 127.60607196 -31.03029087 116.36295879 C-31.06772019 104.82323416 -31.0896204 93.28356714 -31.09803367 81.743783 C-31.10324942 75.26340255 -31.11551252 68.78320788 -31.14459991 62.30288696 C-31.17175871 56.20278689 -31.18012359 50.10294906 -31.17411041 44.00279427 C-31.17521042 41.76468544 -31.18316129 39.5265678 -31.19850159 37.28851128 C-31.21843624 34.23002422 -31.21360565 31.17252411 -31.20269775 28.11401367 C-31.21434912 27.23072545 -31.22600049 26.34743723 -31.23800492 25.4373827 C-31.16999168 18.37012476 -29.23635037 13.18683745 -24.57324219 7.84545898 C-23.83847656 7.21381836 -23.10371094 6.58217773 -22.34667969 5.93139648 C-21.61707031 5.28428711 -20.88746094 4.63717773 -20.13574219 3.97045898 C-13.86965584 -0.34888209 -7.32401716 0.00441145 0 0 Z " fill="#151515" transform="translate(645.7216796875,252.693603515625)"/>
<path d="M0 0 C0.95336512 -0.00170885 1.90673024 -0.0034177 2.88898522 -0.00517833 C6.07345202 -0.00846429 9.25770664 0.00251583 12.44215393 0.01345825 C14.72887161 0.01402256 17.01558966 0.01370543 19.30230713 0.01257324 C25.50420594 0.01199949 31.70602737 0.02375756 37.9079082 0.03772116 C44.39149251 0.05022468 50.87507859 0.05139872 57.3586731 0.05377197 C68.23905313 0.05928165 79.1194046 0.07177361 89.99977112 0.08963013 C101.20452228 0.10799984 112.40926574 0.122151 123.61402893 0.13064575 C124.30517284 0.1311712 124.99631675 0.13169665 125.70840441 0.13223802 C129.17581446 0.13484817 132.64322455 0.13737557 136.11063468 0.13986182 C164.85731239 0.1605812 193.60394746 0.19744388 222.3506012 0.24050903 C222.3506012 17.07050903 222.3506012 33.90050903 222.3506012 51.24050903 C218.69675354 51.25509155 215.04290588 51.26967407 211.27833557 51.28469849 C199.20034242 51.33505584 187.122488 51.40150361 175.04462433 51.47622395 C167.72247764 51.52113061 160.40037904 51.56055698 153.07814026 51.58694458 C146.6937787 51.60996635 140.30956995 51.64341074 133.92532969 51.68921059 C130.54697839 51.7130868 127.1687779 51.73185211 123.79034424 51.73812294 C120.01267573 51.74775865 116.23555623 51.77581362 112.45802307 51.80813599 C111.34599518 51.8067009 110.23396729 51.80526581 109.08824158 51.80378723 C102.17670163 51.88731098 95.86444479 52.31682836 90.3271637 56.92410278 C89.65814026 57.79228638 89.65814026 57.79228638 88.9756012 58.67800903 C88.51411682 59.25421997 88.05263245 59.83043091 87.5771637 60.42410278 C83.88489429 65.89195397 83.3617969 70.72299899 84.3506012 77.24050903 C86.79021092 83.1641099 89.55417741 87.32003745 95.3506012 90.24050903 C99.07401217 91.46986138 102.85798652 91.46138001 106.7412262 91.55691528 C107.79814667 91.58808693 107.79814667 91.58808693 108.87641907 91.61988831 C111.11771801 91.6850474 113.35912984 91.74411151 115.6006012 91.80300903 C117.12405017 91.8462263 118.6474879 91.8898416 120.1709137 91.93386841 C123.8973571 92.04069395 127.62392614 92.14205542 131.3506012 92.24050903 C131.44190465 121.6427077 131.51266726 151.04489628 131.55486251 180.44720777 C131.55986518 183.92054476 131.56504248 187.39388146 131.57032776 190.86721802 C131.571377 191.55867985 131.57242624 192.25014168 131.57350728 192.96255691 C131.59089972 204.15007788 131.62243096 215.33751641 131.65921238 226.52498852 C131.69665422 238.00934737 131.71854459 249.49364829 131.72695518 260.97806698 C131.73216878 267.4266217 131.74441819 273.87498959 131.77352142 280.32348442 C131.80070027 286.39486078 131.80904104 292.4659736 131.80303192 298.53740501 C131.80413104 300.76380598 131.81206995 302.99021588 131.8274231 305.21656418 C131.84738919 308.26156483 131.84251578 311.30557661 131.83161926 314.3506012 C131.84327063 315.22708563 131.85492199 316.10357006 131.86692643 317.00661463 C131.80180571 323.76110782 130.30975332 329.98688217 125.6591208 335.10031408 C118.27533689 342.00206413 111.04902737 342.68589441 101.31593323 342.66043091 C100.11992493 342.66890045 98.92391663 342.67737 97.69166565 342.68609619 C94.4270154 342.70542541 91.16271731 342.71124759 87.89802027 342.70934868 C85.16463376 342.70922854 82.43130004 342.71781033 79.69792831 342.72612619 C73.24471406 342.745327 66.79162914 342.74825634 60.33839417 342.7414856 C53.69955314 342.73484781 47.06126813 342.75770555 40.42253983 342.79479933 C34.70592477 342.82557197 28.98948789 342.8368482 23.27279174 342.83296251 C19.8658603 342.83090269 16.45936169 342.83625398 13.05250931 342.8608551 C9.24924681 342.88305014 5.44731713 342.87333749 1.64405823 342.85574341 C-0.03014694 342.87563828 -0.03014694 342.87563828 -1.73817444 342.89593506 C-9.71805341 342.81039189 -15.62621019 341.05713285 -21.49981499 335.48509979 C-28.39614964 328.15900873 -29.0949283 321.00625742 -29.06932068 311.31350708 C-29.08202499 309.53653442 -29.08202499 309.53653442 -29.09498596 307.72366333 C-29.11431491 304.4899357 -29.1201373 301.25656362 -29.11823845 298.02278876 C-29.11811828 295.31434961 -29.1267013 292.60596368 -29.13501596 289.89753944 C-29.15421746 283.50181635 -29.1571462 277.10622375 -29.15037537 270.71047974 C-29.1437408 264.13414041 -29.16658215 257.55836284 -29.2036891 250.98213738 C-29.23448195 245.31731067 -29.2457357 239.65266375 -29.24185228 233.98775512 C-29.23979416 230.61264814 -29.2451166 227.23797826 -29.26974487 223.86295128 C-29.29196946 220.09341748 -29.28221203 216.32522523 -29.26463318 212.55569458 C-29.27789642 211.45250381 -29.29115967 210.34931305 -29.30482483 209.21269226 C-29.21785673 201.15450828 -27.4262413 194.43017788 -21.92328644 188.3257246 C-15.99818427 182.63843537 -8.84609522 180.77733683 -0.79978943 180.88748169 C-0.06044662 180.8853215 0.67889618 180.88316132 1.44064331 180.88093567 C3.03109796 180.87786986 4.62157673 180.8813914 6.21200562 180.89094925 C8.73547263 180.90479719 11.25816288 180.8981867 13.78163147 180.8861084 C20.9506715 180.85529604 28.1195245 180.86001376 35.28858948 180.88015747 C39.68764156 180.89110853 44.08610629 180.87781854 48.4850769 180.85026169 C50.15311318 180.84484428 51.82120907 180.8488256 53.48919678 180.86265945 C64.84594507 181.20400592 64.84594507 181.20400592 74.9723053 176.66711426 C79.1737103 172.31844985 81.4652345 166.95773626 81.6631012 160.92800903 C81.57979241 156.25514331 80.56185196 153.77288487 77.3506012 150.24050903 C71.31670585 145.7606149 66.7351969 144.12153593 59.16041565 144.06692505 C58.067127 144.05689453 58.067127 144.05689453 56.95175171 144.04666138 C55.36886576 144.03261609 53.78595962 144.02072037 52.20304298 144.01071358 C49.69276279 143.994277 47.18263072 143.97103533 44.67242432 143.94581604 C37.53503337 143.87513316 30.3975804 143.8150924 23.26002502 143.76370239 C18.89279359 143.73178065 14.52573043 143.69046726 10.15863609 143.643507 C8.49900042 143.62755988 6.83932599 143.61520494 5.179636 143.60659981 C2.84883837 143.59434587 0.51843068 143.57015343 -1.8122406 143.54348755 C-2.82801178 143.54260384 -2.82801178 143.54260384 -3.86430359 143.54170227 C-9.65949198 143.45453892 -15.18938461 142.64623143 -20.2743988 139.74050903 C-21.0581488 138.91550903 -21.8418988 138.09050903 -22.6493988 137.24050903 C-23.18951599 136.68750122 -23.72963318 136.13449341 -24.28611755 135.56472778 C-31.17425696 126.78194863 -29.16294788 114.77221545 -28.6493988 104.24050903 C-29.73881775 104.25621948 -30.82823669 104.27192993 -31.95066833 104.28811646 C-36.00967455 104.34259881 -40.0686487 104.37692542 -44.12791443 104.40530396 C-45.88155053 104.42034899 -47.63514927 104.44079007 -49.38865662 104.46682739 C-51.9157689 104.50340024 -54.44238176 104.52027824 -56.9697113 104.53347778 C-58.13725449 104.55670357 -58.13725449 104.55670357 -59.3283844 104.58039856 C-67.49940787 104.58289952 -72.61628195 100.95226384 -78.52830505 95.56863403 C-85.80098042 87.58610269 -87.03476255 78.53342195 -86.85643005 68.19363403 C-86.39515252 59.38584408 -82.58642711 53.65857588 -76.6493988 47.24050903 C-70.39495955 42.36204641 -65.12651589 40.94535433 -57.28611755 40.82644653 C-56.49413467 40.80708038 -55.70215179 40.78771423 -54.88616943 40.76776123 C-52.36985361 40.70823672 -49.85349137 40.66168946 -47.3368988 40.61550903 C-45.6252909 40.57730422 -43.91370171 40.53825104 -42.20213318 40.49832153 C-38.01804132 40.40255773 -33.8338595 40.31842723 -29.6493988 40.24050903 C-29.6400531 39.58566528 -29.6307074 38.93082153 -29.62107849 38.25613403 C-29.5669462 35.25019999 -29.48338492 32.24575128 -29.3993988 29.24050903 C-29.38521912 28.2105481 -29.37103943 27.18058716 -29.35643005 26.11941528 C-29.11063386 18.40141495 -27.7787747 12.94414153 -22.75486755 6.99832153 C-22.12193787 6.45949341 -21.48900818 5.92066528 -20.8368988 5.36550903 C-20.21170349 4.81121216 -19.58650818 4.25691528 -18.94236755 3.68582153 C-13.02030976 -0.04699173 -6.77871009 -0.0447582 0 0 Z " fill="#151516" transform="translate(262.64939880371094,452.7594909667969)"/>
<path d="M0 0 C5.73107138 5.04071288 8.99565773 11.25145919 10.04296875 18.796875 C10.27613973 24.13373635 10.23219225 29.45663056 10.16796875 34.796875 C10.1579203 36.25390011 10.14879774 37.71093191 10.140625 39.16796875 C10.11875586 42.71107829 10.08432852 46.25393312 10.04296875 49.796875 C11.05496338 49.75759888 11.05496338 49.75759888 12.08740234 49.7175293 C15.19734625 49.61244565 18.30691523 49.54820083 21.41796875 49.484375 C22.47886719 49.44248047 23.53976562 49.40058594 24.6328125 49.35742188 C32.12864096 49.24245518 37.84395997 50.41721942 44.04296875 54.796875 C50.61654443 61.73142738 52.34456993 67.88931784 52.28347778 77.24372864 C52.28518663 78.19946846 52.28689548 79.15520829 52.28865612 80.13990992 C52.29195199 83.34440735 52.28094558 86.54869567 52.27001953 89.75317383 C52.26945544 92.0494486 52.26977194 94.34572373 52.27090454 96.64199829 C52.27147913 102.87913811 52.25970755 109.11620125 52.24575663 115.35332322 C52.23326702 121.87028507 52.23208016 128.38724861 52.22970581 134.90422058 C52.22419284 145.84363169 52.21169439 156.78301443 52.19384766 167.72241211 C52.17548571 178.98933776 52.16133075 190.25625576 52.15283203 201.52319336 C52.15230658 202.21784971 52.15178114 202.91250606 52.15123977 203.62821261 C52.14862967 207.11314799 52.14610226 210.59808343 52.14361596 214.0830189 C52.12288724 242.98765965 52.08601952 271.89225806 52.04296875 300.796875 C34.22296875 300.796875 16.40296875 300.796875 -1.95703125 300.796875 C-1.96637695 295.89577881 -1.97572266 290.99468262 -1.98535156 285.94506836 C-2.01909696 269.76392794 -2.07443104 253.58291479 -2.14093399 237.4018774 C-2.18073199 227.58993699 -2.21312063 217.77807686 -2.22802734 207.96606445 C-2.2410399 199.41323966 -2.26799446 190.86059148 -2.31164432 182.30786616 C-2.33426803 177.77983225 -2.34994139 173.25201626 -2.3489151 168.72392082 C-2.34816902 164.45976639 -2.36609854 160.19609381 -2.39819908 155.93206406 C-2.40670053 154.36923356 -2.40844631 152.80634902 -2.40283394 151.24350548 C-2.18056854 140.30673412 -2.18056854 140.30673412 -6.95703125 130.796875 C-11.84195342 126.95811924 -17.58150162 124.97285628 -23.79296875 125.37890625 C-30.68525583 126.71008805 -34.99487162 130.15379917 -38.95703125 135.796875 C-40.1275786 139.30851705 -40.11769351 142.13184284 -40.16235352 145.83862305 C-40.17225311 146.55107178 -40.18215271 147.26352051 -40.19235229 147.99755859 C-40.22392625 150.35120324 -40.24870844 152.70486806 -40.2734375 155.05859375 C-40.29401058 156.69098941 -40.31500714 158.32337979 -40.33641052 159.95576477 C-40.39159469 164.25143146 -40.44102008 168.54714594 -40.48925781 172.84289551 C-40.53949952 177.22668712 -40.59517165 181.61040938 -40.65039062 185.99414062 C-40.7579275 194.59499343 -40.85938239 203.19590428 -40.95703125 211.796875 C-45.79505104 211.87151217 -50.63272929 211.92570514 -55.47119141 211.96166992 C-57.11415451 211.97667636 -58.75707811 211.99708812 -60.39990234 212.02319336 C-62.77321167 212.05993859 -65.1459875 212.07668272 -67.51953125 212.08984375 C-68.24382324 212.10532761 -68.96811523 212.12081146 -69.71435547 212.13676453 C-77.14105493 212.13916816 -83.85507256 209.92921442 -89.29505253 204.71112823 C-95.28920454 197.80711393 -95.54129777 189.04555961 -95.49047852 180.34570312 C-95.49909409 179.14110947 -95.50770966 177.93651581 -95.5165863 176.69541931 C-95.53528071 173.42044375 -95.5361825 170.14611344 -95.52726483 166.87111473 C-95.52212071 164.12523516 -95.52947488 161.37944442 -95.53673691 158.63357401 C-95.55367999 152.15098056 -95.55022617 145.66862284 -95.53344727 139.18603516 C-95.51652244 132.52270659 -95.53237742 125.86003301 -95.56467015 119.19677591 C-95.59144916 113.45119368 -95.59862005 107.70581431 -95.59015507 101.96017599 C-95.58525098 98.53930705 -95.58730338 95.11883201 -95.60794258 91.69801331 C-95.62542987 87.88087687 -95.61080829 84.06512839 -95.58813477 80.24804688 C-95.59982697 79.13086777 -95.61151917 78.01368866 -95.62356567 76.86265564 C-95.52841449 68.95920054 -93.85391195 62.26969719 -88.54982853 56.18169403 C-81.17805367 49.54056019 -73.94664893 49.39118058 -64.51953125 49.609375 C-63.40642578 49.62291016 -62.29332031 49.63644531 -61.14648438 49.65039062 C-58.41615913 49.68554503 -55.68685381 49.73475394 -52.95703125 49.796875 C-52.98321533 48.78898926 -53.00939941 47.78110352 -53.03637695 46.74267578 C-53.12771366 42.95954081 -53.18457886 39.17650066 -53.23168945 35.39257812 C-53.25664567 33.76317897 -53.29062379 32.13388958 -53.33422852 30.50488281 C-53.62568301 19.32674563 -53.26497214 11.08950458 -45.74609375 2.17578125 C-32.0148856 -9.34951079 -14.8880348 -10.64560365 0 0 Z " fill="#151515" transform="translate(525.95703125,203.203125)"/>
<path d="M0 0 C17.82 0 35.64 0 54 0 C54.00410889 4.83527344 54.00821777 9.67054688 54.01245117 14.65234375 C54.0296428 30.62194305 54.07388292 46.59138259 54.13209057 62.56088257 C54.16672326 72.24390169 54.19209384 81.9267787 54.19555664 91.60986328 C54.19859893 100.05102127 54.21912497 108.49192605 54.26052457 116.93298626 C54.28183229 121.40129901 54.29446668 125.86925199 54.28615379 130.33761597 C54.27859947 134.54686651 54.29449195 138.75538894 54.32806015 142.96450615 C54.33627686 144.5059539 54.33606286 146.04747428 54.32659721 147.58891487 C54.23280984 159.22237813 54.23280984 159.22237813 60 169 C65.15940768 173.67946278 68.28476885 174.29529762 75.10546875 174.21484375 C80.46230436 173.81723787 84.48406667 172.51593333 88.375 168.625 C91.46219285 163.63799617 92.25625758 159.78783033 92.31884766 153.91479492 C92.32889328 153.22156128 92.3389389 152.52832764 92.34928894 151.81408691 C92.38003363 149.53622217 92.39713145 147.25847449 92.4140625 144.98046875 C92.4327812 143.3957672 92.45235514 141.81107554 92.4727478 140.22639465 C92.524001 136.06558066 92.56366305 131.90473438 92.60089111 127.74377441 C92.64097358 123.49381568 92.69204654 119.24399048 92.7421875 114.99414062 C92.83886609 106.66285175 92.92329653 98.33149661 93 90 C98.2285542 89.85048129 103.45583562 89.7422404 108.68603516 89.67041016 C110.46099554 89.64043534 112.23581032 89.59963983 114.01025391 89.54736328 C131.75824678 89.03799489 131.75824678 89.03799489 139.20336914 94.29174805 C143.38746391 98.27002106 146.78824489 103.42713553 147.13701439 109.31179237 C147.14258669 110.22650496 147.14815899 111.14121754 147.15390015 112.08364868 C147.16250061 113.13494965 147.17110107 114.18625061 147.17996216 115.26940918 C147.18635208 116.99931091 147.18635208 116.99931091 147.19287109 118.76416016 C147.20513733 120.58655716 147.20513733 120.58655716 147.21765137 122.44577026 C147.24251585 126.47686433 147.2591798 130.50792086 147.2734375 134.5390625 C147.27879901 135.92908102 147.28417652 137.31909949 147.28956985 138.70911789 C147.31119773 144.49445764 147.32993145 150.27979463 147.34119225 156.06516457 C147.35741153 164.34244203 147.39054042 172.61924861 147.44759309 180.8963486 C147.4863796 186.72325307 147.50583538 192.55003208 147.51111281 198.3770622 C147.51475548 201.85340211 147.5266588 205.32923948 147.55921555 208.805439 C147.59507703 212.69025487 147.59090318 216.57448714 147.58349609 220.45947266 C147.59990143 221.60059509 147.61630676 222.74171753 147.63320923 223.91741943 C147.57192548 231.78718815 145.96783407 237.63523034 140.59261131 243.54818153 C133.1863522 250.24393352 126.06073788 250.40734052 116.5625 250.1875 C115.44939453 250.17396484 114.33628906 250.16042969 113.18945312 250.14648438 C110.45912788 250.11132997 107.72982256 250.06212106 105 250 C105.02094727 251.00788574 105.04189453 252.01577148 105.06347656 253.05419922 C105.13654753 256.83741732 105.18204009 260.62057468 105.21972656 264.40429688 C105.23969079 266.03363578 105.2668723 267.66290445 105.30175781 269.29199219 C105.54864566 281.12808593 105.26180064 291.34264203 96.6953125 300.46875 C88.60005887 307.78059199 79.92619232 309.52675688 69.2421875 309.3046875 C60.13766622 308.44908189 52.86955437 303.93674607 47 297 C46.55068115 296.47591553 46.1013623 295.95183105 45.63842773 295.41186523 C40.04873985 287.48152644 41.46177036 277.6770826 41.6875 268.4375 C41.71261551 266.64781763 41.73542293 264.85810129 41.75585938 263.06835938 C41.81059482 258.7113923 41.89668508 254.35607482 42 250 C41.37544922 250.01047363 40.75089844 250.02094727 40.10742188 250.03173828 C37.23832329 250.07368106 34.36928952 250.09944653 31.5 250.125 C30.02660156 250.15013672 30.02660156 250.15013672 28.5234375 250.17578125 C20.9892908 250.22600889 13.64516518 250.20046434 7.75 244.875 C7.12609375 244.33617187 6.5021875 243.79734375 5.859375 243.2421875 C0.67035956 236.98484535 -0.58633701 231.17659535 -0.48101807 223.19238281 C-0.48443577 222.23407971 -0.48785347 221.27577662 -0.49137473 220.28843403 C-0.49793767 217.09302196 -0.47600332 213.89845904 -0.45410156 210.703125 C-0.45297274 208.40640788 -0.45360761 206.10968931 -0.45587158 203.81297302 C-0.4570183 197.5883118 -0.43351528 191.36395947 -0.40557575 185.13936996 C-0.38055542 178.63044555 -0.37821959 172.12151391 -0.37347412 165.61254883 C-0.36245788 154.69102478 -0.33748021 143.76961466 -0.30175781 132.84814453 C-0.26501095 121.60173099 -0.23671232 110.35534822 -0.21972656 99.10888672 C-0.21867567 98.41501854 -0.21762477 97.72115036 -0.21654204 97.00625587 C-0.21132168 93.52513253 -0.2062669 90.04400898 -0.20129442 86.56288528 C-0.1598645 57.70850165 -0.08614407 28.85428806 0 0 Z " fill="#151515" transform="translate(431,545)"/>
<path d="M0 0 C1.16674759 -0.00832352 2.33349518 -0.01664703 3.53559875 -0.02522278 C7.38265341 -0.04926756 11.22953839 -0.05808766 15.07666016 -0.06469727 C17.0798727 -0.07139844 19.08308526 -0.07810201 21.08629668 -0.08513218 C27.38126853 -0.10655908 33.6761866 -0.11593134 39.97119141 -0.11914062 C46.44642111 -0.12277536 52.92117672 -0.15267652 59.39626157 -0.19454521 C64.97273436 -0.22932795 70.54905053 -0.24469041 76.12563097 -0.24538666 C79.44878136 -0.24617661 82.77134055 -0.257182 86.09440231 -0.28338432 C89.80423797 -0.31031185 93.51277198 -0.30546779 97.22265625 -0.29296875 C98.8547831 -0.31522018 98.8547831 -0.31522018 100.5198822 -0.33792114 C109.07419694 -0.25606712 114.50191836 2.23226851 121.05322266 7.61889648 C127.16778293 15.13107054 127.82783741 21.31667782 127.77416992 30.72998047 C127.78278549 31.95539551 127.79140106 33.18081055 127.80027771 34.44335938 C127.8190158 37.78463314 127.81985862 41.12490966 127.81095624 44.46615863 C127.80582325 47.26422357 127.81315757 50.06220083 127.82042831 52.86025673 C127.8373923 59.4655105 127.83389719 66.07053306 127.81713867 72.67578125 C127.80022051 79.47086805 127.81605493 86.26531226 127.84836155 93.0603289 C127.87512425 98.9128598 127.88231556 104.7651915 127.87384647 110.61777741 C127.86893659 114.10515204 127.87102646 117.59214032 127.89163399 121.07946587 C127.91353235 124.97103577 127.89451698 128.86184101 127.87182617 132.75341797 C127.88936447 134.46734489 127.88936447 134.46734489 127.90725708 136.21589661 C127.81450957 144.05415036 126.24052724 150.01399686 120.79811954 155.85452938 C113.65167978 162.19769318 107.36942314 162.74677935 98.21191406 162.71044922 C97.00469193 162.71731247 95.79746979 162.72417572 94.55366516 162.73124695 C91.25381053 162.74638227 87.95452225 162.74801709 84.65467501 162.74230456 C81.89390901 162.73920655 79.13319374 162.7453121 76.37243497 162.75134331 C69.85550589 162.76537516 63.33870792 162.76383909 56.82177734 162.75244141 C50.11314068 162.74096722 43.40490411 162.75502676 36.69632018 162.78183788 C30.92369427 162.8040391 25.15119354 162.81062218 19.378528 162.80476147 C15.93647515 162.80140049 12.49467859 162.80374889 9.0526619 162.8210125 C5.21105696 162.83944029 1.36993878 162.82524906 -2.47167969 162.80810547 C-3.60233353 162.81777344 -4.73298737 162.82744141 -5.89790344 162.83740234 C-13.63529511 162.7652167 -19.05864935 161.60730508 -25.00146484 156.30639648 C-25.54029297 155.64639648 -26.07912109 154.98639648 -26.63427734 154.30639648 C-27.18857422 153.64639648 -27.74287109 152.98639648 -28.31396484 152.30639648 C-31.08217706 148.47578932 -32.00981447 145.74162737 -32.03343201 140.98860168 C-32.04340714 139.91068359 -32.05338226 138.8327655 -32.06365967 137.72218323 C-32.06432434 136.54445847 -32.06498901 135.3667337 -32.06567383 134.15332031 C-32.07399734 132.90898224 -32.08232086 131.66464417 -32.09089661 130.38259888 C-32.11087022 126.97111438 -32.12163895 123.55987402 -32.12672305 120.14835191 C-32.13036982 118.01417563 -32.13661168 115.8800227 -32.14372444 113.74585533 C-32.16821833 106.29198555 -32.18126971 98.8381853 -32.18481445 91.38427734 C-32.18844488 84.45071733 -32.21830452 77.51760129 -32.26021904 70.58417684 C-32.29499413 64.62135687 -32.31036417 58.65868343 -32.31106049 52.69576281 C-32.31185117 49.1389828 -32.32049136 45.58265469 -32.34905815 42.02598 C-32.38025727 38.05262993 -32.37114458 34.07990929 -32.35864258 30.10644531 C-32.37347687 28.93884171 -32.38831116 27.7712381 -32.40359497 26.56825256 C-32.32929556 18.2582145 -30.51999853 12.31045845 -24.76708984 6.18530273 C-24.14576172 5.75088867 -23.52443359 5.31647461 -22.88427734 4.86889648 C-22.26810547 4.41643555 -21.65193359 3.96397461 -21.01708984 3.49780273 C-14.22481618 -0.08635552 -7.51504799 0.00457366 0 0 Z " fill="#151515" transform="translate(266.75927734375,252.693603515625)"/>
<path d="M0 0 C1.0498558 -0.00860046 2.09971161 -0.01720093 3.18138123 -0.02606201 C4.90892639 -0.03245193 4.90892639 -0.03245193 6.67137146 -0.03897095 C7.8846965 -0.04714844 9.09802155 -0.05532593 10.34811401 -0.06375122 C14.37440156 -0.08861759 18.4006515 -0.10528146 22.42698669 -0.11953735 C23.81574446 -0.12489906 25.20450217 -0.13027658 26.59325981 -0.13566971 C32.37430833 -0.15729934 38.1553541 -0.17603216 43.93643284 -0.1872921 C52.20469852 -0.20350482 60.47249231 -0.23661565 68.74058014 -0.29369295 C74.56240471 -0.33250264 80.38410369 -0.35193805 86.20605415 -0.35721266 C89.67851404 -0.36085263 93.15047034 -0.37272648 96.62278938 -0.4053154 C100.50500639 -0.4412278 104.38664064 -0.4369972 108.26902771 -0.42959595 C109.97531845 -0.45420395 109.97531845 -0.45420395 111.71607971 -0.47930908 C119.87948632 -0.4158204 126.79540953 1.23727825 132.86583805 6.99732399 C136.92587658 11.47929511 139.16618924 15.2462496 139.19723511 21.39576721 C139.20721024 22.45685699 139.21718536 23.51794678 139.22746277 24.6111908 C139.22812744 25.77021408 139.22879211 26.92923737 139.22947693 28.12338257 C139.23780045 29.3482135 139.24612396 30.57304443 139.25469971 31.83499146 C139.27467213 35.19275976 139.28544184 38.55028002 139.29052615 41.90808654 C139.29417314 44.00876104 139.30041512 46.10941184 139.30752754 48.21007729 C139.33202096 55.54723784 139.34507269 62.88432776 139.34861755 70.2215271 C139.35224785 77.04602707 139.3821066 83.87007592 139.42402214 90.69443816 C139.45880003 96.56384089 139.47416732 102.43309474 139.47486359 108.30259973 C139.47565418 111.80349138 139.48429022 115.30392386 139.51286125 118.80470848 C139.54406642 122.71579517 139.53494638 126.62624262 139.52244568 130.53744507 C139.54469711 132.26079826 139.54469711 132.26079826 139.56739807 134.01896667 C139.49597244 141.88447984 137.94258824 147.84141746 132.48035336 153.70178509 C125.32488034 160.05468051 119.00516422 160.60061966 109.83421326 160.58969116 C108.62045013 160.599767 107.40668701 160.60984283 106.15614319 160.620224 C102.83757822 160.64379428 99.5195765 160.65375394 96.20096684 160.65567136 C94.12337671 160.65780931 92.04584493 160.66422446 89.96826935 160.67216301 C82.70772579 160.69989196 75.44734707 160.71217203 68.18675232 160.70980835 C61.43937867 160.70800815 54.69272622 160.73962776 47.94553494 160.78703934 C42.13635443 160.82639174 36.32740836 160.84235475 30.51809573 160.84044212 C27.05569745 160.83968062 23.59394016 160.8480386 20.13167572 160.87997627 C16.2640116 160.9146813 12.39731971 160.9007036 8.52952576 160.88265991 C6.83030472 160.90794769 6.83030472 160.90794769 5.09675598 160.93374634 C-2.64491092 160.84229723 -8.00566192 159.04388012 -14.07691956 154.15390015 C-18.47094956 149.35933857 -21.31787461 144.4734786 -21.35107422 137.94999695 C-21.36603691 136.37098351 -21.36603691 136.37098351 -21.38130188 134.7600708 C-21.38196655 133.61039825 -21.38263123 132.46072571 -21.38331604 131.2762146 C-21.39163956 130.06113724 -21.39996307 128.84605988 -21.40853882 127.59416199 C-21.42851063 124.26325177 -21.43928084 120.93259158 -21.44436526 117.60164285 C-21.44801236 115.51771923 -21.4542544 113.43381951 -21.46136665 111.34990501 C-21.48585983 104.07109907 -21.49891174 96.79236432 -21.50245667 89.51351929 C-21.50608689 82.74354931 -21.53594519 75.97403409 -21.57786125 69.20420295 C-21.61264058 63.38150884 -21.62800646 57.55896481 -21.6287027 51.73616761 C-21.62949325 48.2632201 -21.63812716 44.79073549 -21.66670036 41.31789589 C-21.69790862 37.43794085 -21.68878483 33.55863009 -21.67628479 29.67855835 C-21.69853622 27.96923126 -21.69853622 27.96923126 -21.72123718 26.22537231 C-21.64413165 17.80082768 -19.59082455 12.06681999 -13.94410706 5.77890015 C-13.28668518 5.24265015 -12.62926331 4.70640015 -11.95191956 4.15390015 C-11.28934143 3.59702515 -10.62676331 3.04015015 -9.94410706 2.46640015 C-6.6790681 0.17131 -3.86825183 0.02359835 0 0 Z " fill="#151515" transform="translate(636.0769195556641,634.8460998535156)"/>
<path d="M0 0 C1.17728165 -0.00619858 2.35456329 -0.01239716 3.56752014 -0.01878357 C6.05468927 -0.02588056 8.54190591 -0.02270995 11.02905273 -0.01000977 C14.83080686 0.00384485 18.63009472 -0.03020854 22.43164062 -0.06835938 C24.85026102 -0.06931068 27.26888449 -0.06745112 29.6875 -0.0625 C30.8220311 -0.07575821 31.95656219 -0.08901642 33.12547302 -0.10267639 C41.93959147 0.00109564 41.93959147 0.00109564 45.62866211 2.34790039 C49.12077834 7.27423194 48.73208717 11.79055706 48.63671875 17.69140625 C48.63821426 19.46088623 48.63821426 19.46088623 48.63973999 21.26611328 C48.6350638 23.7575556 48.61563728 26.24900779 48.58251953 28.74023438 C48.53532291 32.55294304 48.54140033 36.36285461 48.5546875 40.17578125 C48.54353363 42.59767292 48.52931366 45.01955281 48.51171875 47.44140625 C48.51445297 49.15094482 48.51445297 49.15094482 48.51724243 50.89501953 C48.37589614 58.7883103 48.37589614 58.7883103 45.99755859 62.76171875 C42.79388047 65.5314952 40.96465316 65.70236046 36.80541992 65.75927734 C35.74058884 65.77534027 34.67575775 65.7914032 33.57865906 65.80795288 C28.70666079 65.85233818 23.83479956 65.89346478 18.96264648 65.91650391 C16.39126541 65.93307146 13.81993053 65.96037154 11.2487793 65.99853516 C7.54581758 66.05323178 3.843936 66.07516784 0.140625 66.08984375 C-1.00847855 66.11251312 -2.15758209 66.1351825 -3.34150696 66.15853882 C-7.99422212 66.14619537 -11.18209757 66.05799609 -15.31274414 63.82104492 C-18.11811642 58.68319386 -17.8030651 53.7320015 -17.75390625 47.96875 C-17.75868988 46.74233292 -17.76347351 45.51591583 -17.7684021 44.25233459 C-17.77180129 41.66259476 -17.76259782 39.07281203 -17.74169922 36.4831543 C-17.71491519 32.51449215 -17.74146262 28.54865281 -17.7734375 24.58007812 C-17.77013386 22.06379583 -17.76372859 19.54751529 -17.75390625 17.03125 C-17.7640274 15.84264877 -17.77414856 14.65404755 -17.78457642 13.4294281 C-17.67086455 5.45902577 -17.67086455 5.45902577 -15.30395508 1.82275391 C-10.25027179 -0.15265469 -5.38061813 -0.02348074 0 0 Z " fill="#FCFCFC" transform="translate(299.08984375,682.43359375)"/>
<path d="M0 0 C1.22546036 -0.00478363 2.45092072 -0.00956726 3.71351624 -0.01449585 C6.30503625 -0.01789827 8.89659898 -0.00867223 11.48803711 0.01220703 C15.45458824 0.03894073 19.41830325 0.01247819 23.38476562 -0.01953125 C25.90235 -0.01622677 28.41993261 -0.00981975 30.9375 0 C32.124077 -0.01012115 33.31065399 -0.02024231 34.53318787 -0.03067017 C39.26645923 0.03666617 42.58549969 0.14584708 46.77880859 2.43408203 C49.53102805 7.49550313 49.26849775 12.33266001 49.234375 18.0078125 C49.2415303 19.20966187 49.24868561 20.41151123 49.25605774 21.64978027 C49.26383458 24.18822487 49.25882316 26.72673633 49.24194336 29.26513672 C49.22272237 33.15069602 49.26210373 37.03267821 49.30664062 40.91796875 C49.30693098 43.3854188 49.30379103 45.85287213 49.296875 48.3203125 C49.31979866 50.06266174 49.31979866 50.06266174 49.34318542 51.84020996 C49.27066241 56.85512394 49.19086568 59.74216709 46.23779297 63.89404297 C41.54120632 66.86687893 35.89351948 66.37690225 30.53125 66.328125 C28.79718651 66.33530045 28.79718651 66.33530045 27.02809143 66.34262085 C24.58975866 66.34601633 22.15138015 66.33683883 19.71313477 66.31591797 C15.98155322 66.28912638 12.25297322 66.31569384 8.52148438 66.34765625 C6.14973295 66.34435257 3.77798339 66.33794721 1.40625 66.328125 C0.29156845 66.33824615 -0.8231131 66.34836731 -1.97157288 66.35879517 C-9.70476299 66.24175423 -9.70476299 66.24175423 -13.64428711 63.24755859 C-16.15195067 59.68901014 -16.59590773 57.95371368 -16.6418457 53.65112305 C-16.65468094 52.60631271 -16.66751617 51.56150238 -16.68074036 50.48503113 C-16.68812729 49.35172867 -16.69551422 48.21842621 -16.703125 47.05078125 C-16.71119675 45.88907913 -16.71926849 44.72737701 -16.72758484 43.5304718 C-16.74143401 41.0682627 -16.75215242 38.60603434 -16.76000977 36.14379883 C-16.77722566 32.3773971 -16.82110632 28.61187218 -16.86523438 24.84570312 C-16.87536072 22.45573563 -16.883877 20.06576067 -16.890625 17.67578125 C-16.90813309 16.54855148 -16.92564117 15.42132172 -16.94367981 14.25993347 C-16.93170144 9.94336933 -16.78859054 6.49687103 -15.21728516 2.45483398 C-10.52082628 -0.60073865 -5.47277671 -0.04660169 0 0 Z " fill="#FCFCFC" transform="translate(678.46484375,301.3359375)"/>
<path d="M0 0 C1.20184937 -0.00478363 2.40369873 -0.00956726 3.64196777 -0.01449585 C6.18043325 -0.01789503 8.71894249 -0.00869162 11.25732422 0.01220703 C15.14259463 0.03896844 19.02497569 0.01245567 22.91015625 -0.01953125 C25.37761054 -0.01622716 27.84506304 -0.00982095 30.3125 0 C32.05484924 -0.01518173 32.05484924 -0.01518173 33.83239746 -0.03067017 C38.51898214 0.03743109 41.7458029 0.16162829 45.88842773 2.44775391 C48.63720545 7.44877553 48.35051325 12.17089235 48.28515625 17.7890625 C48.28756821 18.96871582 48.28998016 20.14836914 48.29246521 21.36376953 C48.29148673 23.85517746 48.27809309 26.34660713 48.25317383 28.83789062 C48.2188721 32.65049124 48.23251582 36.46077354 48.25195312 40.2734375 C48.24505457 42.69532236 48.2353821 45.11720125 48.22265625 47.5390625 C48.23009605 49.24860107 48.23009605 49.24860107 48.23768616 50.99267578 C48.12024071 58.88799727 48.12024071 58.88799727 45.74584961 62.859375 C42.56753012 65.60433793 40.76555423 65.79943601 36.64331055 65.85693359 C35.07609505 65.88102798 35.07609505 65.88102798 33.47721863 65.90560913 C28.69681394 65.95000056 23.91654884 65.9911213 19.13598633 66.01416016 C16.61310608 66.03072706 14.09027291 66.05802634 11.56762695 66.09619141 C7.9341593 66.15089439 4.30179247 66.17282499 0.66796875 66.1875 C-0.45926102 66.21016937 -1.58649078 66.23283875 -2.74787903 66.25619507 C-11.46401141 66.23263244 -11.46401141 66.23263244 -14.53198242 63.19384766 C-15.12986572 62.35901855 -15.72774902 61.52418945 -16.34375 60.6640625 C-16.67375 60.3340625 -17.00375 60.0040625 -17.34375 59.6640625 C-17.46336595 58.00338613 -17.51389258 56.3376751 -17.53662109 54.67285156 C-17.55268402 53.60794495 -17.56874695 52.54303833 -17.58529663 51.44586182 C-17.62959896 46.56124367 -17.67082389 41.6767642 -17.69384766 36.79199219 C-17.71040382 34.21377534 -17.73768892 31.63560433 -17.77587891 29.05761719 C-17.83058506 25.34806402 -17.85251479 21.63958951 -17.8671875 17.9296875 C-17.88985687 16.7774469 -17.91252625 15.6252063 -17.93588257 14.43804932 C-17.92352887 9.76747904 -17.8430803 6.57841699 -15.58251953 2.43896484 C-10.51647381 -0.33731681 -5.68824892 -0.04956381 0 0 Z " fill="#FCFCFC" transform="translate(679.34375,682.3359375)"/>
<path d="M0 0 C1.62705116 -0.01891296 1.62705116 -0.01891296 3.28697205 -0.03820801 C5.03706322 -0.02606262 5.03706322 -0.02606262 6.82250977 -0.01367188 C8.02577408 -0.01749878 9.22903839 -0.02132568 10.46876526 -0.02526855 C13.01320227 -0.02799033 15.55766714 -0.02061074 18.10205078 -0.00390625 C21.99583427 0.01747882 25.8877685 -0.0036916 29.78149414 -0.02929688 C32.25350342 -0.02665328 34.72551155 -0.02152766 37.19750977 -0.01367188 C38.36221298 -0.0217688 39.5269162 -0.02986572 40.72691345 -0.03820801 C48.79855706 0.05534551 48.79855706 0.05534551 52.78759766 2.42578125 C55.51098489 5.61043825 55.71188625 7.41520834 55.76928711 11.53051758 C55.78535004 12.57532791 55.80141296 13.62013824 55.81796265 14.6966095 C55.86235408 19.47701418 55.90347482 24.25727929 55.92651367 29.0378418 C55.94308058 31.56072204 55.97037985 34.08355522 56.00854492 36.60620117 C56.06324791 40.23966882 56.08517851 43.87203566 56.09985352 47.50585938 C56.12252289 48.63308914 56.14519226 49.76031891 56.16854858 50.92170715 C56.14735484 58.761556 56.14735484 58.761556 53.16870117 62.70581055 C49.60800792 65.19440582 47.85828505 65.65054468 43.56347656 65.71044922 C41.99626106 65.73454361 41.99626106 65.73454361 40.39738464 65.75912476 C35.61697996 65.80351619 30.83671485 65.84463693 26.05615234 65.86767578 C23.5332721 65.88424269 21.01043893 65.91154196 18.48779297 65.94970703 C14.85432532 66.00441002 11.22195848 66.02634062 7.58813477 66.04101562 C6.460905 66.063685 5.33367523 66.08635437 4.17228699 66.10971069 C-0.43265569 66.09726199 -3.54935101 65.99271052 -7.63500977 63.7722168 C-10.45820267 58.63489977 -10.11694891 53.68881396 -10.05249023 47.91992188 C-10.05490219 46.69350479 -10.05731415 45.46708771 -10.05979919 44.20350647 C-10.05882063 41.61374677 -10.0454252 39.02396618 -10.02050781 36.43432617 C-9.98617772 32.46591341 -9.99985671 28.49972407 -10.01928711 24.53125 C-10.0123895 22.01496446 -10.0027179 19.49868468 -9.98999023 16.98242188 C-9.9949501 15.79382065 -9.99990997 14.60521942 -10.00502014 13.38059998 C-9.98918381 12.27587845 -9.97334747 11.17115692 -9.95703125 10.03295898 C-9.95083267 9.06208847 -9.94463409 8.09121796 -9.93824768 7.09092712 C-8.81295121 1.46437805 -5.35235402 0.01787125 0 0 Z " fill="#FBFBFB" transform="translate(291.423583984375,301.482421875)"/>
<path d="M0 0 C0.66 0.33 1.32 0.66 2 1 C-1.96 4.465 -1.96 4.465 -6 8 C-6.66 7.67 -7.32 7.34 -8 7 C-5.36 4.69 -2.72 2.38 0 0 Z " fill="#2D2D2D" transform="translate(487,200)"/>
<path d="M0 0 C0.75 1.75 0.75 1.75 1 4 C-0.9375 6.25 -0.9375 6.25 -3 8 C-3.33 7.34 -3.66 6.68 -4 6 C-2.68 4.02 -1.36 2.04 0 0 Z " fill="#262626" transform="translate(182,505)"/>
</svg>
