<?xml version="1.0" encoding="UTF-8"?>
<svg version="1.1" xmlns="http://www.w3.org/2000/svg" width="1024" height="1024">
<path d="M0 0 C337.92 0 675.84 0 1024 0 C1024 337.92 1024 675.84 1024 1024 C686.08 1024 348.16 1024 0 1024 C0 686.08 0 348.16 0 0 Z " fill="#FCFDF8" transform="translate(0,0)"/>
<path d="M0 0 C13.0170812 12.13724382 21.89242306 29.88686462 22.875 47.71875 C23.41152342 69.85740061 17.77190488 89.34842204 2.50390625 105.9140625 C-10.0780663 118.64065542 -23.62474909 125.12692803 -41.49609375 126.9140625 C-41.16609375 153.6440625 -40.83609375 180.3740625 -40.49609375 207.9140625 C-34.55609375 209.2340625 -28.61609375 210.5540625 -22.49609375 211.9140625 C-1.94528682 219.98215707 15.11706228 231.41153824 27.50390625 249.9140625 C27.87612305 250.4699707 28.24833984 251.02587891 28.63183594 251.59863281 C29.59206697 253.0351923 30.54836451 254.47437962 31.50390625 255.9140625 C36.2330424 255.33232693 40.21112932 253.92896038 44.5078125 251.95703125 C45.1749678 251.65818024 45.84212311 251.35932922 46.52949524 251.05142212 C47.9635433 250.40866604 49.39628321 249.76298481 50.82781982 249.11465454 C54.65399557 247.38308494 58.49096859 245.6758178 62.328125 243.96875 C63.10484558 243.62284317 63.88156616 243.27693634 64.68182373 242.92054749 C71.86496404 239.73221446 79.10612767 236.70454286 86.37890625 233.7265625 C95.74690113 229.88718886 105.08033718 225.98132362 114.37890625 221.9765625 C124.06708034 217.8116114 133.75847423 213.65468051 143.47247314 209.55026245 C144.85981042 208.96310987 146.24633875 208.37404195 147.63201904 207.7829895 C149.5572508 206.96219527 151.48523406 206.14823654 153.4140625 205.3359375 C154.51886963 204.86768555 155.62367676 204.39943359 156.76196289 203.91699219 C159.50390625 202.9140625 159.50390625 202.9140625 162.50390625 202.9140625 C162.34664062 202.27339844 162.189375 201.63273438 162.02734375 200.97265625 C159.23633524 184.66400203 162.18691423 170.15228747 171.578125 156.4375 C180.04378397 145.34456755 191.80699857 137.20894486 205.50390625 133.9140625 C206.25542969 133.73230469 207.00695312 133.55054688 207.78125 133.36328125 C224.05849623 130.67765239 239.52690406 134.3854415 253.50390625 142.9140625 C265.95368094 152.08131463 274.71457535 165.63501201 277.50390625 180.9140625 C279.24632189 197.61684805 276.24700822 212.02160713 266.50390625 225.9140625 C265.78203125 226.9453125 265.06015625 227.9765625 264.31640625 229.0390625 C255.36588015 239.20224052 242.38001571 244.81456368 229.50390625 247.9140625 C227.85390625 247.9140625 226.20390625 247.9140625 224.50390625 247.9140625 C224.50390625 286.8540625 224.50390625 325.7940625 224.50390625 365.9140625 C228.46390625 366.2440625 232.42390625 366.5740625 236.50390625 366.9140625 C239.50850401 368.01889217 241.94609807 369.02372858 244.69140625 370.5390625 C245.37066162 370.89806641 246.04991699 371.25707031 246.74975586 371.62695312 C252.11384716 374.53429189 257.03069021 377.73844087 261.50390625 381.9140625 C262.41849609 382.76677734 262.41849609 382.76677734 263.3515625 383.63671875 C274.03471992 394.69554764 277.92846715 408.83836065 277.86743164 423.78686523 C277.56483956 439.29168363 272.07851005 452.18913838 261.56640625 463.6640625 C255.08553618 469.8329237 247.72799501 473.53646883 239.50390625 476.9140625 C238.59125 477.295625 237.67859375 477.6771875 236.73828125 478.0703125 C224.29565382 482.2961105 208.29328611 481.48942077 196.50390625 475.9140625 C195.55128906 475.46675781 194.59867188 475.01945312 193.6171875 474.55859375 C179.28871363 467.26729668 170.28209559 455.81916455 164.50390625 440.9140625 C164.024375 439.76744141 164.024375 439.76744141 163.53515625 438.59765625 C159.0752915 426.39497077 160.4883864 411.16846846 165.59375 399.40234375 C166.50549194 397.5431689 167.49533318 395.72253834 168.50390625 393.9140625 C167.80096436 393.79724121 167.09802246 393.68041992 166.3737793 393.56005859 C163.25773716 392.8586509 160.5329937 391.80929422 157.5859375 390.578125 C156.42908447 390.09722412 155.27223145 389.61632324 154.08032227 389.12084961 C152.82563735 388.59369728 151.57100004 388.06643165 150.31640625 387.5390625 C148.99745847 386.98866842 147.67836424 386.43862518 146.35913086 385.88891602 C137.40467549 382.15250255 128.47286451 378.36279716 119.54370117 374.56640625 C104.01887227 367.98610011 88.41308377 361.59851021 72.82421875 355.171875 C53.22940347 347.09364381 53.22940347 347.09364381 46.8125 344.33203125 C45.86503906 343.92597656 44.91757812 343.51992188 43.94140625 343.1015625 C42.97074219 342.68261719 42.00007813 342.26367188 41 341.83203125 C38.47789106 340.74148211 38.47789106 340.74148211 35.50390625 340.9140625 C35.05402344 341.83445312 34.60414063 342.75484375 34.140625 343.703125 C22.19103181 367.48512745 3.89411271 385.04025626 -21.49609375 393.9140625 C-34.93553037 397.9140625 -34.93553037 397.9140625 -41.49609375 397.9140625 C-41.49609375 434.5440625 -41.49609375 471.1740625 -41.49609375 508.9140625 C-37.20609375 509.5740625 -32.91609375 510.2340625 -28.49609375 510.9140625 C-25.53582148 511.95194725 -22.9111742 512.94889963 -20.12109375 514.2890625 C-19.47527344 514.58039062 -18.82945312 514.87171875 -18.1640625 515.171875 C-14.89426404 516.67190327 -11.82840706 518.30984529 -8.76953125 520.203125 C-5.80596175 522.14017833 -5.80596175 522.14017833 -3.46459961 521.68725586 C-0.1022579 520.36658908 1.97833578 517.50476261 4.31640625 514.8515625 C5.1196936 513.96029663 5.1196936 513.96029663 5.93920898 513.05102539 C9.2185335 509.40208757 12.45518312 505.71490857 15.6640625 502.00390625 C18.07061966 499.27034345 20.53752258 496.59347276 23.00390625 493.9140625 C23.94945972 492.88303344 24.89477676 491.85178749 25.83984375 490.8203125 C27.46628218 489.04601603 29.09573652 487.27447049 30.73046875 485.5078125 C31.35695313 484.816875 31.9834375 484.1259375 32.62890625 483.4140625 C33.16773438 482.82625 33.7065625 482.2384375 34.26171875 481.6328125 C35.6892565 479.65760303 36.25523145 478.33981483 36.50390625 475.9140625 C35.83617218 473.96585834 35.83617218 473.96585834 34.69140625 472.1015625 C28.61112143 461.45557645 28.63187316 446.77981528 31.4140625 435.08984375 C33.83620077 429.00723928 37.33246258 423.91979491 41.50390625 418.9140625 C42.37015625 417.645625 42.37015625 417.645625 43.25390625 416.3515625 C50.69034732 408.29541801 62.30442264 401.73009865 73.390625 400.97265625 C74.43669922 400.94365234 74.43669922 400.94365234 75.50390625 400.9140625 C76.41785156 400.86378906 77.33179688 400.81351563 78.2734375 400.76171875 C91.57873662 400.33471942 104.17220149 404.64897304 114.69140625 412.9140625 C124.74868255 422.44642876 131.39296498 435.94106036 132.00390625 449.7890625 C131.37627971 465.60525131 124.86303344 479.03519252 113.50390625 489.9140625 C101.89066824 499.49925343 88.1839007 501.77307994 73.50390625 500.9140625 C65.86075512 499.76037931 59.219109 497.73251112 52.50390625 493.9140625 C52.23964844 494.50703125 51.97539063 495.1 51.703125 495.7109375 C50.460202 497.99435304 49.19988979 499.38832973 47.31640625 501.1640625 C44.84712407 503.56235916 42.50263332 505.99520655 40.25390625 508.6015625 C37.29298045 512.03279195 34.2586744 515.39051587 31.19140625 518.7265625 C30.72645752 519.23413086 30.26150879 519.74169922 29.7824707 520.26464844 C27.41880298 522.84260361 25.04317266 525.40766166 22.64453125 527.953125 C21.7525 528.90960937 20.86046875 529.86609375 19.94140625 530.8515625 C19.13574219 531.70621094 18.33007812 532.56085937 17.5 533.44140625 C15.41274241 536.02699149 14.12898164 537.64102994 13.50390625 540.9140625 C14.5990359 543.36449072 15.67519481 545.32265796 17.12890625 547.5390625 C27.87327954 565.08559582 30.57397249 586.31088868 26.47607422 606.4909668 C23.18993728 619.8750933 16.2243749 632.33513332 7.50390625 642.9140625 C6.7459375 643.8421875 6.7459375 643.8421875 5.97265625 644.7890625 C-1.42533689 652.9419529 -13.01592227 660.5564959 -23.49609375 663.9140625 C-24.64464844 664.28273438 -25.79320312 664.65140625 -26.9765625 665.03125 C-35.6172239 667.53375408 -43.94857937 668.27520636 -52.93359375 668.2890625 C-53.9275415 668.29067383 -54.92148926 668.29228516 -55.94555664 668.29394531 C-76.76400087 667.98080752 -95.59768505 659.22068364 -110.11181641 644.39648438 C-117.14603573 636.86354262 -122.56556953 628.42229594 -126.49609375 618.9140625 C-126.98335937 617.74230469 -127.470625 616.57054687 -127.97265625 615.36328125 C-134.98953299 596.49690212 -133.90113159 572.83127856 -126 554.4296875 C-124.18467042 550.64511012 -122.45871622 547.05973398 -119.75 543.8359375 C-118.31751966 542.02876803 -118.31751966 542.02876803 -118.515625 539.99609375 C-119.92225066 537.00911576 -121.91356547 534.99751936 -124.18359375 532.6015625 C-124.66763672 532.0859375 -125.15167969 531.5703125 -125.65039062 531.0390625 C-126.70327667 529.91829126 -127.75923574 528.80040087 -128.81787109 527.68505859 C-131.1318831 525.24312623 -133.42474034 522.78173743 -135.71850586 520.32080078 C-136.90447303 519.04866733 -138.09148715 517.77750912 -139.27954102 516.50732422 C-143.95549534 511.50717899 -148.58361752 506.46530918 -153.19140625 501.40234375 C-155.24508572 499.18506609 -157.34202881 497.03338446 -159.49609375 494.9140625 C-160.02976562 495.09582031 -160.5634375 495.27757812 -161.11328125 495.46484375 C-162.70744073 496.00266572 -164.30552503 496.52892085 -165.90625 497.046875 C-167.49301248 497.57818913 -169.06828456 498.14799686 -170.6171875 498.78125 C-181.4806354 502.8477813 -196.55072228 502.89659013 -207.17578125 498.18359375 C-211.15430844 496.00679015 -214.86595805 493.63131535 -218.49609375 490.9140625 C-220.04296875 489.8003125 -220.04296875 489.8003125 -221.62109375 488.6640625 C-230.78325377 479.90025726 -237.02859653 467.7875193 -237.69921875 455.05859375 C-237.98675152 439.35279414 -234.37172834 427.17635924 -223.55859375 415.1640625 C-213.04182088 405.26061772 -198.85195188 400.34741529 -184.59375 400.671875 C-170.45127417 401.7775919 -157.23177918 407.86117045 -147.6171875 418.3125 C-137.86668434 430.27168068 -135.37740657 442.61281188 -136.26708984 457.73095703 C-137.01228521 464.83494101 -139.84347656 471.35421189 -142.49609375 477.9140625 C-138.8075002 482.16009623 -135.08794346 486.37350187 -131.30859375 490.5390625 C-127.69242187 494.54136799 -124.17595494 498.61683906 -120.68359375 502.7265625 C-114.80913409 509.63321466 -108.694454 516.29808223 -102.49609375 522.9140625 C-98.89227678 521.5772738 -95.5637911 519.90959737 -92.1784668 518.09570312 C-83.11142243 513.29308802 -72.94443451 508.9140625 -62.49609375 508.9140625 C-62.49609375 472.2840625 -62.49609375 435.6540625 -62.49609375 397.9140625 C-65.79609375 397.5840625 -69.09609375 397.2540625 -72.49609375 396.9140625 C-87.43350268 393.47151425 -100.81237954 386.8613436 -112.49609375 376.9140625 C-113.48609375 376.1715625 -114.47609375 375.4290625 -115.49609375 374.6640625 C-122.37610848 368.80752103 -127.55885795 361.07346847 -132.43359375 353.5390625 C-132.81104736 352.95648682 -133.18850098 352.37391113 -133.57739258 351.77368164 C-136.22989194 347.57454599 -138.49609375 343.95048699 -138.49609375 338.9140625 C-146.77633528 342.24845597 -155.00917906 345.61292993 -163.05859375 349.4765625 C-168.48567323 352.06743634 -173.96601607 354.25676756 -179.62597656 356.30419922 C-186.46072928 358.82032475 -193.12564101 361.71013275 -199.80859375 364.6015625 C-210.2986686 369.13860956 -220.83619291 373.53512007 -231.43457031 377.81445312 C-240.82336167 381.61421729 -250.14803179 385.55478688 -259.44970703 389.56274414 C-260.47692871 390.00223389 -261.50415039 390.44172363 -262.5625 390.89453125 C-263.46943604 391.28535889 -264.37637207 391.67618652 -265.31079102 392.07885742 C-267.49609375 392.9140625 -267.49609375 392.9140625 -269.49609375 392.9140625 C-269.15835938 393.66429687 -268.820625 394.41453125 -268.47265625 395.1875 C-261.42754434 411.35460651 -260.00309745 427.15485376 -266.49609375 443.9140625 C-273.40403597 459.35637385 -283.68087212 469.98322444 -299.25390625 476.58984375 C-313.34244781 481.94237668 -329.06603373 481.95952457 -343.1015625 476.515625 C-359.85749347 468.61006493 -370.30177272 456.14279189 -376.58984375 438.91796875 C-380.73756243 424.76579898 -379.52356244 409.31033895 -372.74609375 396.2265625 C-364.56669751 382.2734748 -354.56159444 373.91732039 -339.49609375 367.9140625 C-338.5421875 367.52992188 -337.58828125 367.14578125 -336.60546875 366.75 C-333.49609375 365.9140625 -333.49609375 365.9140625 -325.49609375 365.9140625 C-325.49609375 326.9740625 -325.49609375 288.0340625 -325.49609375 247.9140625 C-328.46609375 247.9140625 -331.43609375 247.9140625 -334.49609375 247.9140625 C-349.61011465 243.80410945 -362.95352475 233.60863323 -370.80859375 220.1640625 C-378.3946026 206.36812871 -381.10018744 191.49135493 -377.37109375 176.0390625 C-371.89412877 159.45602965 -362.1190793 146.92282268 -346.74609375 138.7265625 C-333.46799199 132.40286654 -317.71680459 130.21461933 -303.49609375 134.9140625 C-302.46871094 135.2440625 -301.44132812 135.5740625 -300.3828125 135.9140625 C-285.94903234 140.97504193 -274.57851527 151.08351986 -267.80859375 164.8515625 C-267.22722656 166.01558594 -266.64585937 167.17960938 -266.046875 168.37890625 C-262.64626762 176.13092055 -262.23539852 182.44367752 -262.37109375 190.8515625 C-262.38011719 191.91697266 -262.38914062 192.98238281 -262.3984375 194.08007812 C-262.42185961 196.69164284 -262.45465923 199.30273187 -262.49609375 201.9140625 C-261.88175476 202.17556091 -261.26741577 202.43705933 -260.63446045 202.70648193 C-199.9138238 228.55346826 -199.9138238 228.55346826 -180.49609375 236.9140625 C-178.95491621 237.5771504 -177.41373776 238.24023619 -175.87255859 238.90332031 C-171.63013316 240.72904787 -167.38874764 242.55717514 -163.14797974 244.38674927 C-161.48307331 245.10480187 -159.81793795 245.82232391 -158.15255737 246.53927612 C-155.83143383 247.5388023 -153.51130223 248.54059731 -151.19140625 249.54296875 C-150.50209518 249.83930206 -149.81278412 250.13563538 -149.10258484 250.44094849 C-146.0654628 251.7557547 -143.08945452 253.12134615 -140.14013672 254.62475586 C-137.68675742 256.06016065 -137.68675742 256.06016065 -135.49609375 255.9140625 C-134.45434681 254.37118366 -133.48981785 252.77605924 -132.55859375 251.1640625 C-119.23828532 229.78578971 -98.85766364 217.19030572 -75.3125 209.7265625 C-71.49609375 208.9140625 -71.49609375 208.9140625 -62.49609375 208.9140625 C-62.49609375 182.1840625 -62.49609375 155.4540625 -62.49609375 127.9140625 C-65.13609375 127.5840625 -67.77609375 127.2540625 -70.49609375 126.9140625 C-88.55655153 123.41755787 -103.62221757 111.48307432 -113.8203125 96.59765625 C-125.09965515 78.5349327 -127.72646376 59.07210579 -125 38.09765625 C-124.33372456 35.27069095 -123.51495339 32.63239653 -122.49609375 29.9140625 C-122.16738281 28.95113281 -121.83867187 27.98820312 -121.5 26.99609375 C-114.52523319 8.34040261 -101.04608716 -4.42640128 -83.49609375 -13.0859375 C-54.99459492 -25.87344032 -23.51987899 -19.65511014 0 0 Z " fill="#040D18" transform="translate(574.49609375,140.0859375)"/>
<path d="M0 0 C1.4375 1.6875 1.4375 1.6875 3 4 C9.82055552 13.13236486 20.25034812 19.41678271 31 23 C31 63.26 31 103.52 31 145 C27.7 146.32 24.4 147.64 21 149 C17.90193519 151.01266574 17.90193519 151.01266574 14.88671875 153.14453125 C11.6771101 154.59981965 8.77025461 153.28743401 5.58520508 152.09887695 C4.73853271 151.73238037 3.89186035 151.36588379 3.01953125 150.98828125 C2.03678223 150.56691895 1.0540332 150.14555664 0.04150391 149.71142578 C-1.02406738 149.24978027 -2.08963867 148.78813477 -3.1875 148.3125 C-5.51625831 147.31484372 -7.8457236 146.31883659 -10.17578125 145.32421875 C-10.79308105 145.06048462 -11.41038086 144.79675049 -12.04638672 144.52502441 C-19.95908267 141.15229296 -27.91779472 137.89096256 -35.875 134.625 C-38.68490865 133.47138537 -41.49481641 132.3177686 -44.3046875 131.1640625 C-45.30928764 130.751633 -45.30928764 130.751633 -46.33418274 130.33087158 C-52.23159751 127.90818926 -58.11697496 125.45736316 -64 123 C-66.73416326 121.86016879 -69.46865465 120.7211255 -72.203125 119.58203125 C-76.81416321 117.66095736 -81.42507966 115.73959248 -86.03564453 113.81738281 C-93.17992688 110.83917046 -100.32500873 107.86305959 -107.4765625 104.90234375 C-108.57194336 104.44819092 -109.66732422 103.99403809 -110.79589844 103.52612305 C-112.78539373 102.70158357 -114.77558134 101.8787117 -116.76660156 101.05786133 C-121.26994454 99.18972537 -125.67632326 97.25459051 -130 95 C-129.98952637 94.21463867 -129.97905273 93.42927734 -129.96826172 92.62011719 C-129.92620416 88.9967785 -129.90051755 85.37349146 -129.875 81.75 C-129.85824219 80.51507813 -129.84148438 79.28015625 -129.82421875 78.0078125 C-129.78273242 70.12541069 -130.41195142 62.72360943 -132 55 C-113.09852007 46.45718064 -94.04096363 38.32973623 -74.91004944 30.31747437 C-64.36802893 25.90085258 -53.84092935 21.44889655 -43.3125 17 C-41.45525693 16.21537542 -39.59799821 15.43078792 -37.74072266 14.64624023 C-36.3983252 14.07908546 -36.3983252 14.07908546 -35.02880859 13.50047302 C-33.26933407 12.7575652 -31.50957403 12.01533317 -29.74951172 11.27381897 C-25.34402353 9.41717657 -20.94406705 7.54892541 -16.55224609 5.66015625 C-15.67843796 5.28648926 -14.80462982 4.91282227 -13.90434265 4.52783203 C-12.24573987 3.81833136 -10.58890521 3.1046782 -8.93415833 2.38623047 C-3.33776142 0 -3.33776142 0 0 0 Z " fill="#FCFDF9" transform="translate(746,363)"/>
<path d="M0 0 C5.88892235 1.87275565 11.57827023 3.99125977 17.234375 6.4765625 C17.99308899 6.80610931 18.75180298 7.13565613 19.5335083 7.47518921 C21.940582 8.52154877 24.3453601 9.57306115 26.75 10.625 C29.09817814 11.64821484 31.44683279 12.67033016 33.79551697 13.69238281 C35.39460703 14.38829918 36.99353194 15.08459514 38.59230042 15.78125 C47.10162598 19.4866598 55.6341608 23.13738257 64.16729736 26.78753662 C69.22884069 28.95399626 74.28805195 31.12589185 79.34765625 33.296875 C82.51843084 34.65683733 85.68926394 36.01666315 88.86010742 37.37646484 C91.01123978 38.29910498 93.16228011 39.22195971 95.31323242 40.14501953 C98.49112509 41.50871844 101.66935939 42.87161843 104.84765625 44.234375 C105.79165787 44.63968445 106.73565948 45.0449939 107.70826721 45.46258545 C114.45358202 48.35351443 121.22132505 51.18823285 128 54 C127.10468356 61.54623856 127.10468356 61.54623856 126.48632812 64.2265625 C125.9287577 67.40628141 125.88760296 70.38504819 125.90234375 73.61328125 C125.90556641 74.86044922 125.90878906 76.10761719 125.91210938 77.39257812 C125.92048828 78.68615234 125.92886719 79.97972656 125.9375 81.3125 C125.94426758 83.28186523 125.94426758 83.28186523 125.95117188 85.29101562 C125.96294051 88.5273901 125.9793824 91.76367178 126 95 C118.43701782 99.00687798 110.82786837 102.56445622 102.859375 105.68359375 C101.08262817 106.38689974 99.30627458 107.09119981 97.53027344 107.79638672 C96.61822144 108.15851257 95.70616943 108.52063843 94.76647949 108.89373779 C86.48025067 112.20724213 78.24542253 115.64907801 70 119.0625 C67.98487924 119.89579054 65.96974225 120.72904185 63.95458984 121.56225586 C53.01312936 126.08804625 42.07519014 130.62229673 31.14746094 135.18115234 C28.16780425 136.42338103 25.18404078 137.65481737 22.19628906 138.87744141 C15.69407354 141.54797449 9.30221464 144.28882977 3.0078125 147.4296875 C-12.41909866 154.95861065 -12.41909866 154.95861065 -18.91015625 152.859375 C-22.99809222 151.05894549 -26.42916271 148.66275682 -30 146 C-30.99 145.67 -31.98 145.34 -33 145 C-33 104.74 -33 64.48 -33 23 C-28.38 21.02 -23.76 19.04 -19 17 C-11.45223025 12.10197921 -5.64142709 6.98308453 0 0 Z " fill="#FCFDF9" transform="translate(303,363)"/>
<path d="M0 0 C5.53580576 4.73673856 9.77678629 9.67093191 13.375 15.99609375 C13.76429688 16.66511719 14.15359375 17.33414062 14.5546875 18.0234375 C21.0052716 29.91228776 20.87953297 43.98784971 17.75 56.87109375 C15.82686033 63.27259364 13.34697836 68.62605307 9.375 73.99609375 C8.81167969 74.764375 8.24835938 75.53265625 7.66796875 76.32421875 C0.55698404 85.12686929 -9.61688582 91.36864263 -20.625 93.99609375 C-21.553125 94.22296875 -22.48125 94.44984375 -23.4375 94.68359375 C-38.80042572 96.18976294 -51.83309464 93.36155922 -64.2890625 83.9921875 C-74.18396451 75.63682463 -81.67064144 63.97086307 -83.625 50.99609375 C-85.01796954 32.83107664 -81.96794052 19.28770422 -70.0078125 5.07421875 C-51.66464199 -14.76097999 -21.29249698 -16.2545401 0 0 Z " fill="#FCFDF9" transform="translate(554.625,401.00390625)"/>
<path d="M0 0 C0.93328125 0.33 1.8665625 0.66 2.828125 1 C16.13308609 6.08129167 26.29708237 14.79664282 32.4375 27.75 C37.27071977 38.65437593 38.45788131 53.11960684 34.71875 64.5859375 C30.03938331 76.58546007 22.48819283 86.82372123 11 93 C-2.27046923 98.58374935 -17.86737235 102.25460353 -32 97.375 C-33.68960049 96.63353923 -35.35814159 95.84191142 -37 95 C-37.84820313 94.57589844 -38.69640625 94.15179688 -39.5703125 93.71484375 C-51.8992607 86.94711836 -60.04638195 76.66250002 -64.375 63.375 C-67.83318629 50.00722108 -66.97951731 37.46882308 -60.4921875 25.1328125 C-52.51190629 11.73336358 -41.52174382 2.9467713 -26.5078125 -1.3125 C-17.84414763 -3.01050113 -8.35723192 -3.10966769 0 0 Z " fill="#040E1A" transform="translate(658,256)"/>
<path d="M0 0 C0.78503906 0.25652344 1.57007813 0.51304687 2.37890625 0.77734375 C14.51172669 5.09329362 24.8473573 14.56799432 30.875 25.9375 C36.34632295 38.07285643 38.17548966 51.13800059 34 64 C28.5192202 77.48396393 21.05903085 87.234478 8 94 C7.01 94.5775 6.02 95.155 5 95.75 C-7.06922837 100.77884516 -21.74196255 100.65535445 -33.97265625 96.31640625 C-46.01885789 91.07825147 -55.59784685 82.65279496 -61.00390625 70.53125 C-61.49697266 69.27828125 -61.49697266 69.27828125 -62 68 C-62.31839844 67.2059375 -62.63679688 66.411875 -62.96484375 65.59375 C-66.6568429 54.56879401 -67.00561868 40.12220483 -62.25390625 29.41015625 C-61.84011719 28.61480469 -61.42632812 27.81945312 -61 27 C-60.57589844 26.15308594 -60.15179688 25.30617188 -59.71484375 24.43359375 C-53.00722531 12.19545983 -42.336618 3.79127793 -29.25 -0.9375 C-20.06523566 -3.34515667 -8.95890539 -3.08927772 0 0 Z " fill="#040F1A" transform="translate(428,256)"/>
<path d="M0 0 C0.87333984 -0.020625 1.74667969 -0.04125 2.64648438 -0.0625 C13.08887877 -0.12488921 21.10886915 3.88531988 29.3125 10.25 C39.01220894 20.04686796 42.60366011 30.17392736 42.62939453 43.68164062 C42.52198185 49.91422804 41.43148579 54.78934575 38.3125 60.25 C37.88839844 61.01570312 37.46429688 61.78140625 37.02734375 62.5703125 C30.03039846 74.06947049 20.9243295 78.94433089 8.34375 82.86328125 C-2.41214712 84.91103859 -12.16292834 83.25115933 -21.3125 77.5 C-31.78147963 70.03516235 -37.67007281 60.87083703 -40.6875 48.25 C-41.94913401 34.81213081 -39.27588313 23.74691271 -30.6875 13.25 C-22.12871095 4.10094963 -12.29992629 0.07104651 0 0 Z " fill="#040E18" transform="translate(369.6875,675.75)"/>
<path d="M0 0 C9.36654553 6.36193539 16.10090084 15.21964078 19.01953125 26.328125 C20.82211036 39.24330721 18.86376455 51.12300989 11.12109375 61.78125 C3.80091316 70.55891622 -5.21328323 76.10698754 -16.625 77.875 C-29.78402189 78.84284885 -40.30135656 75.5998446 -50.59765625 67.28125 C-58.07570256 60.31269695 -63.36922992 51.18646353 -63.9609375 40.859375 C-64.2626244 26.8538885 -61.2290824 16.54067354 -51.625 5.875 C-37.58344419 -6.67624143 -16.40284591 -9.74404514 0 0 Z " fill="#040D19" transform="translate(694.625,681.125)"/>
<path d="M0 0 C7.73124742 6.23584173 14.10096293 15.61208726 15.83203125 25.50390625 C17.00553125 37.70830624 14.74996139 48.46085394 7.5234375 58.4765625 C0.40109234 67.01350739 -9.00019614 73.24604449 -20.16796875 74.50390625 C-32.55090957 75.61461852 -42.57146977 73.2531581 -52.60546875 65.75390625 C-59.75382928 59.60353112 -65.70062432 50.94425491 -67.16796875 41.50390625 C-67.93488107 26.94732046 -66.85442733 16.08088089 -57.16796875 4.50390625 C-41.88109974 -12.1080402 -17.97638849 -12.40532755 0 0 Z " fill="#040E19" transform="translate(698.16796875,160.49609375)"/>
<path d="M0 0 C7.99442961 6.14692947 14.96157011 15.6041819 16.64868164 25.77954102 C16.82029893 28.26337032 16.8571314 30.69827421 16.8125 33.1875 C16.80081787 34.0626123 16.78913574 34.93772461 16.77709961 35.83935547 C16.34960834 48.44044699 11.32834496 56.7940986 2.25 65.375 C-7.47924435 73.79663391 -18.20274253 76.03998715 -30.75 75.375 C-41.69990621 74.12460288 -50.25569049 68.21923836 -57.75 60.375 C-61.8303574 55.23902775 -64.0104647 49.65192459 -65.75 43.375 C-65.976875 42.570625 -66.20375 41.76625 -66.4375 40.9375 C-68.05248673 27.69460877 -65.12689312 16.84292086 -57.0703125 6.14453125 C-42.09646556 -10.46808435 -17.99420889 -12.06124721 0 0 Z " fill="#030E19" transform="translate(395.75,159.625)"/>
<path d="M0 0 C10.27297118 6.13378863 17.52870583 13.84202401 21.11328125 25.53515625 C23.34510858 37.64720796 21.40991448 48.93987555 14.92578125 59.41015625 C8.18752533 68.6794486 -0.97875494 74.42512063 -12.32421875 76.59765625 C-25.23843057 77.67826931 -34.63658185 74.67949233 -44.87890625 66.80078125 C-52.33251725 60.08538732 -57.89266712 49.46303271 -58.4453125 39.390625 C-58.77028776 26.94598423 -55.1830612 16.41324076 -46.51171875 7.22265625 C-34.08978533 -4.36798144 -15.38877604 -7.64117649 0 0 Z " fill="#FCFCF9" transform="translate(540.32421875,692.40234375)"/>
<path d="M0 0 C5.97015225 3.46227033 10.43179362 7.35844665 14.3125 13.0625 C14.98925781 14.02349609 14.98925781 14.02349609 15.6796875 15.00390625 C19.81481808 22.29029151 19.62091992 31.98807976 18.3125 40.0625 C15.75051653 49.04212523 10.32260339 57.37926543 2.3046875 62.29296875 C0.32794893 63.33395085 -1.60929128 64.24287002 -3.6875 65.0625 C-4.58855469 65.41828125 -5.48960937 65.7740625 -6.41796875 66.140625 C-14.32369374 68.36971831 -24.6329732 68.59032148 -32.1875 65.0625 C-34.48046875 63.66796875 -34.48046875 63.66796875 -36.6875 62.0625 C-37.48800781 61.48113281 -38.28851563 60.89976562 -39.11328125 60.30078125 C-46.56049179 54.29182086 -50.90323325 46.47045196 -52.6875 37.0625 C-53.58257499 27.50585315 -52.43513738 19.21642175 -46.69921875 11.328125 C-42.32135271 6.21683408 -37.76068047 2.02502706 -31.6875 -0.9375 C-30.96949219 -1.29714844 -30.25148438 -1.65679687 -29.51171875 -2.02734375 C-20.10827342 -5.05777634 -8.85382412 -4.13945024 0 0 Z " fill="#FCFDFA" transform="translate(539.6875,162.9375)"/>
<path d="M0 0 C7.87779545 5.48790245 11.99485878 11.98457634 15 21 C15.94740172 32.80369358 14.57202814 42.05769495 7 51.375 C-0.09259521 58.62931562 -7.64103872 61.23063491 -17.6875 61.5625 C-23.97491529 61.32511799 -28.68037329 60.35094596 -34 57 C-34.69609375 56.5875 -35.3921875 56.175 -36.109375 55.75 C-43.48921453 50.86709866 -47.67095916 43.42689323 -50 35 C-51.06519648 24.54621127 -49.67131485 16.45452493 -43.8125 7.75 C-40.18979002 4.20779468 -36.34761077 1.57664345 -32 -1 C-30.96875 -1.61875 -29.9375 -2.2375 -28.875 -2.875 C-19.86770697 -6.38133551 -8.14388044 -4.94499773 0 0 Z " fill="#05101B" transform="translate(366,409)"/>
<path d="M0 0 C6.49065515 4.57630834 10.88845951 10.72775425 13.3125 18.3125 C14.88345572 27.54186483 13.95101901 36.58104766 9.22265625 44.71875 C4.32236838 51.37271962 -2.14512471 57.21974799 -10.44140625 58.85546875 C-20.63965517 60.29132329 -28.9756342 60.14188155 -37.6875 54.3125 C-38.27144531 53.92835938 -38.85539063 53.54421875 -39.45703125 53.1484375 C-44.90512678 49.09339931 -48.66100737 42.72374882 -50.6875 36.3125 C-51.97553986 25.0877456 -51.37983721 14.25473525 -44.375 5 C-31.82845345 -7.54654655 -15.17943017 -9.28475145 0 0 Z " fill="#050F1A" transform="translate(713.6875,410.6875)"/>
<path d="M0 0 C6.55547235 3.63087619 11.26138997 8.81465552 14.015625 15.78125 C15.96671983 22.82443986 16.19160689 30.36931673 12.69921875 36.92578125 C8.38350623 43.55694627 2.94210669 48.45109473 -4.55078125 51.17578125 C-11.63014335 52.66617327 -17.6442926 52.15487575 -24.11328125 48.92578125 C-31.15172407 44.0112987 -35.35417572 38.64287423 -37.86328125 30.48828125 C-37.94578125 29.64265625 -38.02828125 28.79703125 -38.11328125 27.92578125 C-38.18804688 27.28125 -38.2628125 26.63671875 -38.33984375 25.97265625 C-38.8619069 18.11423204 -35.71830976 12.09405917 -30.80078125 6.11328125 C-29.91390625 5.39140625 -29.02703125 4.66953125 -28.11328125 3.92578125 C-27.61957031 3.46171875 -27.12585938 2.99765625 -26.6171875 2.51953125 C-19.53090263 -3.16212254 -8.30156167 -2.86440334 0 0 Z " fill="#FBFBF8" transform="translate(805.11328125,305.07421875)"/>
<path d="M0 0 C0.70745361 0.00684814 1.41490723 0.01369629 2.14379883 0.02075195 C9.40174574 0.24413775 13.38914907 2.14702015 18.8125 6.6875 C24.25956716 13.16509338 27.58657431 18.95331746 27.4609375 27.546875 C26.6234113 34.75349583 23.73162252 41.4225807 18.4375 46.4375 C12.33229538 51.13116295 5.22829627 54.27817783 -2.578125 53.890625 C-11.03629273 52.22200688 -17.09424569 47.25110591 -22.0625 40.4375 C-26.06422913 33.81394833 -26.79173081 28.096022 -25.875 20.4375 C-23.32860697 12.41181482 -18.30282926 6.13600538 -11.14453125 1.7734375 C-7.35333461 0.2243464 -4.03320753 -0.05964166 0 0 Z " fill="#FBFCF8" transform="translate(253.875,303.5625)"/>
<path d="M0 0 C5.05072686 3.50600284 10.3091703 7.8983102 12 14 C13.10746958 23.25000785 12.7181825 31.3895687 7 39 C1.1297133 45.47205249 -4.96979231 49.05955862 -13.8125 49.5 C-21.1273797 49.28055361 -26.63344006 47.03625595 -32.0703125 42.1328125 C-38.64557367 35.06234337 -40.55137533 28.67313641 -40.27734375 19.08203125 C-39.57960409 11.32827641 -35.37100504 6.27552051 -30 1 C-20.61062342 -6.04203243 -9.85524637 -5.31870439 0 0 Z " fill="#FBFCFA" transform="translate(808,540)"/>
<path d="M0 0 C4.39896124 3.27364558 7.37155498 7.79343532 9.07421875 12.9375 C10.32707485 22.16215825 9.75046406 30.34621077 4.07421875 37.9375 C-1.3773691 44.18312348 -7.22884469 47.12625623 -15.3671875 48.28515625 C-22.16129749 48.69982024 -27.36548812 46.79985127 -32.92578125 42.9375 C-38.47404291 37.95240775 -42.39052171 32.52028396 -43.2734375 24.9609375 C-43.67778023 16.10686857 -42.02715081 9.56356503 -36.09375 2.87109375 C-25.32249687 -7.30529727 -12.69770252 -7.00562898 0 0 Z " fill="#FBFBF8" transform="translate(270.92578125,541.0625)"/>
<path d="M0 0 C5.20145006 2.93198269 8.27516884 6.96889308 11.3203125 12 C13.02141924 19.93849814 12.13793095 26.67084201 7.8828125 33.625 C5.3828125 36.5 5.3828125 36.5 2.8828125 38.625 C2.2434375 39.181875 1.6040625 39.73875 0.9453125 40.3125 C-4.64641604 43.87087271 -10.6514328 44.53781243 -17.1171875 43.625 C-24.92099233 41.05433488 -29.92774608 36.69058343 -34.24609375 29.83203125 C-36.44345561 24.2647243 -36.21492406 16.74178774 -34.2421875 11.140625 C-26.40326075 -2.16492172 -13.97992878 -6.16658513 0 0 Z " fill="#FAFBF8" transform="translate(655.1171875,284.375)"/>
<path d="M0 0 C6.02502346 3.15451565 10.70728193 7.68591418 13.2578125 14.08984375 C14.09976301 21.04403117 14.55779451 28.1069722 10.6953125 34.21484375 C6.31493944 39.68773339 1.16935866 43.53827216 -5.7421875 45.08984375 C-13.32765193 45.70157475 -18.6837017 44.14843996 -24.9921875 39.90234375 C-29.94641315 34.83552206 -32.84219942 28.52628633 -33.0546875 21.40234375 C-32.95297054 15.04041041 -31.25920729 10.70486226 -26.8359375 6.109375 C-18.93826297 -1.03684169 -10.61149934 -3.52205035 0 0 Z " fill="#FBFBF8" transform="translate(422.7421875,282.91015625)"/>
<path d="M0 0 C5.95410697 4.20521087 9.74274212 9.38546139 11.03515625 16.62109375 C11.38828385 23.72891861 9.91863747 29.03248891 5.5 34.625 C1.1397532 39.24348466 -3.08142063 42.2043199 -9.515625 42.99609375 C-17.04240692 43.15062913 -22.60816821 42.56653634 -28.5 37.625 C-33.20970491 32.59048786 -36.24343718 27.75506642 -36.8125 20.8125 C-36.55669792 13.23791615 -33.53069342 7.7697939 -28.36328125 2.32421875 C-20.90308395 -4.47910583 -8.69872662 -4.64546217 0 0 Z " fill="#FAFBF8" transform="translate(400.5,571.375)"/>
<path d="M0 0 C5.6601722 3.22648252 9.50341123 7.82273368 11.5625 14 C12.23266014 21.41570645 12.20581885 27.91330345 7.5625 34 C2.31439773 39.57849128 -3.08083916 43.11980237 -10.875 43.375 C-18.77369924 43.10815205 -24.01302585 40.18235764 -29.703125 34.8671875 C-34.80632089 29.37320634 -35.09750149 23.48074079 -34.9140625 16.2265625 C-33.92025272 9.49798153 -30.07943572 4.99140718 -24.75 1 C-17.29403317 -3.50171582 -7.9259496 -3.5895638 0 0 Z " fill="#FBFCF9" transform="translate(666.4375,571)"/>
<path d="M0 0 C4.24497866 0.86632218 6.1509076 2.44256179 9.0625 5.625 C10.37837451 9.71883182 10.54816217 11.60952455 8.6875 15.5 C5.50519779 18.07614941 3.28801454 18.6404109 -0.74609375 18.90625 C-2.9375 18.625 -2.9375 18.625 -5.9375 16.25 C-6.5975 15.38375 -7.2575 14.5175 -7.9375 13.625 C-8.2675 13.295 -8.5975 12.965 -8.9375 12.625 C-8.77469226 8.39199878 -8.30262992 6.11531732 -5.75 2.6875 C-2.9375 0.625 -2.9375 0.625 0 0 Z " fill="#F0F2F3" transform="translate(671.9375,707.375)"/>
<path d="M0 0 C4.81826218 0.84530916 6.34029694 1.93125503 9.5625 5.625 C10.25 9.125 10.25 9.125 9.5625 12.625 C6.99823777 16.19942614 5.27478711 17.40876999 1.0625 18.6875 C-3.18977947 18.61156644 -4.51859213 17.6297581 -7.4375 14.625 C-9.00685594 11.48628812 -8.78951103 9.08644178 -8.4375 5.625 C-5.86890902 1.96670376 -4.41498801 0.80272509 0 0 Z " fill="#F3F5F4" transform="translate(370.4375,184.375)"/>
<path d="M0 0 C2.69990662 1.79993774 4.5418865 3.083773 6 6 C6.43023798 9.87214182 6.31669086 11.52496371 4.125 14.8125 C1.38286658 17.6352844 0.58642602 17.94570129 -3.375 18.3125 C-7 18 -7 18 -9.375 16.125 C-12.2709923 12.33793314 -12.56685059 9.77774071 -12 5 C-8.32600983 0.88863005 -5.54784976 -1.06235421 0 0 Z " fill="#F5F6F5" transform="translate(374,708)"/>
<path d="M0 0 C2.93052231 1.99524923 4.64521503 3.42836485 5.4453125 6.97265625 C5.63099028 10.28390994 5.21285614 12.62981541 3.5625 15.5 C-0.26076161 17.7380068 -3.68129022 17.75280262 -8 17 C-10.5625 15.5625 -10.5625 15.5625 -12 13 C-12.5977143 9.86774718 -12.65395074 7.12634344 -12 4 C-8.57473068 -0.25563764 -5.29763755 -0.85140604 0 0 Z " fill="#F7F9F9" transform="translate(676,185)"/>
<path d="M0 0 C3 2.0625 3 2.0625 5 5 C5.1506132 9.29247606 4.66257079 11.22050496 1.875 14.5 C-1.97148295 16.50686067 -3.88546541 16.27176524 -8 15 C-10.5 12.875 -10.5 12.875 -12 10 C-12 6.22089384 -11.83289714 3.99306967 -9.375 1.0625 C-5.97380129 -0.4590889 -3.68717269 -0.51749792 0 0 Z " fill="#F0F2F3" transform="translate(698,428)"/>
<path d="M0 0 C2.9375 1.625 2.9375 1.625 5 4 C5.72209171 7.77092335 5.29983565 9.46029582 3.4375 12.8125 C0.21466844 15.70478473 -1.68807302 16.15129568 -6 16 C-8.9375 14 -8.9375 14 -11 11 C-11.63007693 7.00951279 -11.63021887 4.98314143 -9.4375 1.5625 C-6.04295632 -0.61348954 -3.9634351 -0.55627159 0 0 Z " fill="#F0F2F2" transform="translate(352,428)"/>
<path d="M0 0 C1.32 0.33 2.64 0.66 4 1 C4.05383848 3.45862401 4.09359038 5.9160755 4.125 8.375 C4.14175781 9.07367187 4.15851563 9.77234375 4.17578125 10.4921875 C4.19344267 12.32897486 4.10303261 14.16601963 4 16 C3.34 16.66 2.68 17.32 2 18 C2 12.72 2 7.44 2 2 C1.34 2 0.68 2 0 2 C0 1.34 0 0.68 0 0 Z " fill="#21272B" transform="translate(308,554)"/>
<path d="M0 0 C0 0.66 0 1.32 0 2 C-1.64453125 3.21875 -1.64453125 3.21875 -3.8125 4.5 C-4.52019531 4.9228125 -5.22789062 5.345625 -5.95703125 5.78125 C-6.63121094 6.1834375 -7.30539062 6.585625 -8 7 C-8.99 7.66 -9.98 8.32 -11 9 C-11.66 8.34 -12.32 7.68 -13 7 C-11.54261898 6.01941648 -10.08406325 5.04057868 -8.625 4.0625 C-7.81289063 3.51722656 -7.00078125 2.97195312 -6.1640625 2.41015625 C-2.46537396 0 -2.46537396 0 0 0 Z " fill="#131B22" transform="translate(356,155)"/>
<path d="M0 0 C0.66 0.33 1.32 0.66 2 1 C-0.85276137 3.93200474 -3.65079784 6.64315404 -7 9 C-7.66 8.67 -8.32 8.34 -9 8 C-6.03 5.36 -3.06 2.72 0 0 Z " fill="#151A22" transform="translate(464,367)"/>
<path d="M0 0 C0.66 0 1.32 0 2 0 C1.49287967 3.71888239 0.88391785 6.73454239 -1 10 C-1.66 10 -2.32 10 -3 10 C-2.01 6.7 -1.02 3.4 0 0 Z " fill="#262A31" transform="translate(449,693)"/>
<path d="M0 0 C0 3 0 3 -1.3125 4.60546875 C-1.869375 5.12753906 -2.42625 5.64960937 -3 6.1875 C-3.556875 6.71730469 -4.11375 7.24710938 -4.6875 7.79296875 C-5.120625 8.19128906 -5.55375 8.58960938 -6 9 C-6.66 8.67 -7.32 8.34 -8 8 C-5.33333333 5.33333333 -2.66666667 2.66666667 0 0 Z " fill="#191F26" transform="translate(625,550)"/>
<path d="M0 0 C0.33 0.66 0.66 1.32 1 2 C-0.65 3.98 -2.3 5.96 -4 8 C-4.99 7.67 -5.98 7.34 -7 7 C-5.625 5.5 -5.625 5.5 -4 4 C-3.34 4 -2.68 4 -2 4 C-1.34 2.68 -0.68 1.36 0 0 Z " fill="#D3DADB" transform="translate(838,368)"/>
<path d="M0 0 C0.33 0 0.66 0 1 0 C0.25 6.625 0.25 6.625 -2 10 C-3 9 -3 9 -3.0625 6.4375 C-3.041875 5.633125 -3.02125 4.82875 -3 4 C-2.01 4 -1.02 4 0 4 C0 2.68 0 1.36 0 0 Z " fill="#161B27" transform="translate(411,198)"/>
<path d="M0 0 C5.19209404 -0.21192221 9.126739 0.4087311 14 2 C14 2.33 14 2.66 14 3 C8.78020872 3.1799928 4.92737019 2.97094808 0 1 C0 0.67 0 0.34 0 0 Z " fill="#01070F" transform="translate(501,804)"/>
</svg>
