<?xml version="1.0" encoding="UTF-8"?>
<svg version="1.1" xmlns="http://www.w3.org/2000/svg" width="1024" height="1024">
<path d="M0 0 C337.92 0 675.84 0 1024 0 C1024 337.92 1024 675.84 1024 1024 C686.08 1024 348.16 1024 0 1024 C0 686.08 0 348.16 0 0 Z " fill="#F2F5F8" transform="translate(0,0)"/>
<path d="M0 0 C1.37912064 -0.00151062 1.37912064 -0.00151062 2.78610229 -0.00305176 C19.36633212 0.00914473 35.55830044 0.98709276 52 3.25 C53.59521484 3.4668042 53.59521484 3.4668042 55.22265625 3.68798828 C62.51379154 4.70779856 69.7584152 5.92596251 77 7.25 C78.13759766 7.45463867 79.27519531 7.65927734 80.44726562 7.87011719 C142.64686644 19.25805724 205.35162009 47.43375455 254 88.25 C255.09874192 89.15781408 256.1977058 90.06535957 257.296875 90.97265625 C264.18763859 96.69966436 270.84122238 102.66286185 277.39941406 108.76708984 C279.1304258 110.37083684 280.8730624 111.96130991 282.6171875 113.55078125 C293.61069412 123.60314742 293.61069412 123.60314742 298.3203125 129.26171875 C300.33954689 131.65192876 302.48374158 133.90599942 304.625 136.1875 C320.57819079 153.71183837 334.06146719 173.8336372 346 194.25 C346.41459473 194.95672852 346.82918945 195.66345703 347.25634766 196.39160156 C363.27824477 223.91395673 376.39441888 253.56184118 385 284.25 C385.27263672 285.21599121 385.54527344 286.18198242 385.82617188 287.17724609 C392.94415136 312.7203295 398.3469774 338.84645647 401 365.25 C401.0935376 366.1682959 401.1870752 367.0865918 401.28344727 368.03271484 C407.50144294 437.48845412 394.4679838 509.18663323 365 572.25 C364.42910645 573.48242432 364.42910645 573.48242432 363.84667969 574.73974609 C342.27638171 620.85715446 309.85443297 665.15428526 271.109375 698.41796875 C268.82370454 700.40311587 266.60298622 702.4503983 264.375 704.5 C247.12528774 720.01949796 227.77963209 733.20240591 208 745.25 C207.26362305 745.70004395 206.52724609 746.15008789 205.76855469 746.61376953 C195.76203833 752.70050733 185.5802156 758.22908718 175 763.25 C174.27570801 763.59885254 173.55141602 763.94770508 172.80517578 764.30712891 C142.99914503 778.58504469 110.82132378 788.83341096 78.30859375 794.65576172 C74.75403866 795.29417576 71.20552394 795.96179481 67.65625 796.62890625 C65.14617158 797.08779155 62.63575971 797.54485705 60.125 798 C58.99787598 798.21100342 57.87075195 798.42200684 56.70947266 798.6394043 C39.97997806 801.57628503 22.9370348 801.45792429 6 801.4375 C5.06389893 801.43689575 4.12779785 801.4362915 3.16333008 801.43566895 C-28.13479851 801.38113332 -58.87508363 798.48320008 -89.31396484 790.91650391 C-92.02450812 790.24391863 -94.74037096 789.59659517 -97.45703125 788.94921875 C-122.21241553 782.91126719 -145.96347764 774.09024994 -169 763.25 C-169.87946289 762.83782227 -170.75892578 762.42564453 -171.66503906 762.00097656 C-208.83957739 744.41287055 -242.43836108 720.53087951 -272.51025391 692.62207031 C-274.05215209 691.20196743 -275.60794585 689.79859265 -277.16796875 688.3984375 C-282.21904963 683.85223097 -287.05857062 679.28480733 -291.43359375 674.06640625 C-292.99941916 672.25067355 -294.6490212 670.60057296 -296.375 668.9375 C-300.98812395 664.37529353 -304.97541434 659.3281051 -309 654.25 C-309.53077148 653.58500488 -310.06154297 652.92000977 -310.60839844 652.23486328 C-318.07392735 642.86391531 -325.26140574 633.41220865 -331.69433594 623.29931641 C-332.60487575 621.87017071 -333.5227835 620.44570411 -334.44628906 619.02490234 C-376.3144454 554.53939161 -397.15376084 480.27079415 -397.3125 403.625 C-397.31814972 402.12453125 -397.31814972 402.12453125 -397.32391357 400.59375 C-397.35110007 386.37492091 -396.53373938 372.38376703 -395 358.25 C-394.87971436 357.10241211 -394.75942871 355.95482422 -394.63549805 354.77246094 C-392.98041409 339.761174 -390.25845833 324.98997886 -387 310.25 C-386.78504883 309.27482422 -386.57009766 308.29964844 -386.34863281 307.29492188 C-372.00381479 243.5258803 -341.41495255 181.04992239 -297.21875 132.69140625 C-295.80308715 131.13367864 -294.40513918 129.55953655 -293.03125 127.96484375 C-264.5003852 95.09948218 -226.23288602 68.60146445 -188 48.25 C-187.06655762 47.75306641 -186.13311523 47.25613281 -185.17138672 46.74414062 C-164.79920559 36.01227555 -143.73277579 27.70076592 -121.9375 20.375 C-121.25865753 20.14561737 -120.57981506 19.91623474 -119.88040161 19.67990112 C-110.02562584 16.36606322 -100.11504302 13.64660492 -90 11.25 C-89.00524658 11.00894531 -88.01049316 10.76789063 -86.9855957 10.51953125 C-74.39834983 7.48827501 -61.81836184 5.05593384 -49 3.25 C-47.65883423 3.05352145 -46.31768761 2.85691211 -44.9765625 2.66015625 C-29.99340573 0.54397844 -15.11287481 0.01157827 0 0 Z " fill="#FCFDFD" transform="translate(524,63.75)"/>
<path d="M0 0 C1.37912064 -0.00151062 1.37912064 -0.00151062 2.78610229 -0.00305176 C19.36633212 0.00914473 35.55830044 0.98709276 52 3.25 C53.59521484 3.4668042 53.59521484 3.4668042 55.22265625 3.68798828 C62.51379154 4.70779856 69.7584152 5.92596251 77 7.25 C78.13759766 7.45463867 79.27519531 7.65927734 80.44726562 7.87011719 C142.64686644 19.25805724 205.35162009 47.43375455 254 88.25 C255.09874192 89.15781408 256.1977058 90.06535957 257.296875 90.97265625 C264.18763859 96.69966436 270.84122238 102.66286185 277.39941406 108.76708984 C279.1304258 110.37083684 280.8730624 111.96130991 282.6171875 113.55078125 C293.61069412 123.60314742 293.61069412 123.60314742 298.3203125 129.26171875 C300.33954689 131.65192876 302.48374158 133.90599942 304.625 136.1875 C320.57819079 153.71183837 334.06146719 173.8336372 346 194.25 C346.41459473 194.95672852 346.82918945 195.66345703 347.25634766 196.39160156 C363.27824477 223.91395673 376.39441888 253.56184118 385 284.25 C385.27263672 285.21599121 385.54527344 286.18198242 385.82617188 287.17724609 C392.94415136 312.7203295 398.3469774 338.84645647 401 365.25 C401.0935376 366.1682959 401.1870752 367.0865918 401.28344727 368.03271484 C407.50144294 437.48845412 394.4679838 509.18663323 365 572.25 C364.42910645 573.48242432 364.42910645 573.48242432 363.84667969 574.73974609 C342.27638171 620.85715446 309.85443297 665.15428526 271.109375 698.41796875 C268.82370454 700.40311587 266.60298622 702.4503983 264.375 704.5 C247.12528774 720.01949796 227.77963209 733.20240591 208 745.25 C207.26362305 745.70004395 206.52724609 746.15008789 205.76855469 746.61376953 C195.76203833 752.70050733 185.5802156 758.22908718 175 763.25 C174.27570801 763.59885254 173.55141602 763.94770508 172.80517578 764.30712891 C142.99914503 778.58504469 110.82132378 788.83341096 78.30859375 794.65576172 C74.75403866 795.29417576 71.20552394 795.96179481 67.65625 796.62890625 C65.14617158 797.08779155 62.63575971 797.54485705 60.125 798 C58.99787598 798.21100342 57.87075195 798.42200684 56.70947266 798.6394043 C39.97997806 801.57628503 22.9370348 801.45792429 6 801.4375 C5.06389893 801.43689575 4.12779785 801.4362915 3.16333008 801.43566895 C-28.13479851 801.38113332 -58.87508363 798.48320008 -89.31396484 790.91650391 C-92.02450812 790.24391863 -94.74037096 789.59659517 -97.45703125 788.94921875 C-122.21241553 782.91126719 -145.96347764 774.09024994 -169 763.25 C-169.87946289 762.83782227 -170.75892578 762.42564453 -171.66503906 762.00097656 C-208.83957739 744.41287055 -242.43836108 720.53087951 -272.51025391 692.62207031 C-274.05215209 691.20196743 -275.60794585 689.79859265 -277.16796875 688.3984375 C-282.21904963 683.85223097 -287.05857062 679.28480733 -291.43359375 674.06640625 C-292.99941916 672.25067355 -294.6490212 670.60057296 -296.375 668.9375 C-300.98812395 664.37529353 -304.97541434 659.3281051 -309 654.25 C-309.53077148 653.58500488 -310.06154297 652.92000977 -310.60839844 652.23486328 C-318.07392735 642.86391531 -325.26140574 633.41220865 -331.69433594 623.29931641 C-332.60487575 621.87017071 -333.5227835 620.44570411 -334.44628906 619.02490234 C-376.3144454 554.53939161 -397.15376084 480.27079415 -397.3125 403.625 C-397.31814972 402.12453125 -397.31814972 402.12453125 -397.32391357 400.59375 C-397.35110007 386.37492091 -396.53373938 372.38376703 -395 358.25 C-394.87971436 357.10241211 -394.75942871 355.95482422 -394.63549805 354.77246094 C-392.98041409 339.761174 -390.25845833 324.98997886 -387 310.25 C-386.78504883 309.27482422 -386.57009766 308.29964844 -386.34863281 307.29492188 C-372.00381479 243.5258803 -341.41495255 181.04992239 -297.21875 132.69140625 C-295.80308715 131.13367864 -294.40513918 129.55953655 -293.03125 127.96484375 C-264.5003852 95.09948218 -226.23288602 68.60146445 -188 48.25 C-187.06655762 47.75306641 -186.13311523 47.25613281 -185.17138672 46.74414062 C-164.79920559 36.01227555 -143.73277579 27.70076592 -121.9375 20.375 C-121.25865753 20.14561737 -120.57981506 19.91623474 -119.88040161 19.67990112 C-110.02562584 16.36606322 -100.11504302 13.64660492 -90 11.25 C-89.00524658 11.00894531 -88.01049316 10.76789063 -86.9855957 10.51953125 C-74.39834983 7.48827501 -61.81836184 5.05593384 -49 3.25 C-47.65883423 3.05352145 -46.31768761 2.85691211 -44.9765625 2.66015625 C-29.99340573 0.54397844 -15.11287481 0.01157827 0 0 Z M-42 59.25 C-43.00417969 59.39598633 -44.00835937 59.54197266 -45.04296875 59.69238281 C-66.3569188 62.80491929 -87.61084044 67.23558781 -108 74.25 C-109.2065625 74.66121094 -110.413125 75.07242188 -111.65625 75.49609375 C-158.33493548 91.78289597 -204.72680265 117.8009881 -239.33984375 153.58984375 C-241 155.25 -241 155.25 -244.0625 157.75 C-247.02283401 160.2694332 -249.40732756 162.90383599 -251.9140625 165.859375 C-253.88362254 168.11662358 -255.9342754 170.2749762 -258.00952148 172.43457031 C-279.51556204 195.0220776 -295.29978387 222.25527538 -308.875 250.125 C-309.42269043 251.24181152 -309.97038086 252.35862305 -310.53466797 253.50927734 C-313.49526245 259.67436594 -315.95417115 265.78117927 -318.01049805 272.30151367 C-319.01723017 275.30134192 -320.20312981 278.15759742 -321.46484375 281.05859375 C-324.40562469 287.9758953 -326.51119533 295.09083044 -328.5625 302.3125 C-328.75798431 302.99485718 -328.95346863 303.67721436 -329.15487671 304.38024902 C-336.89917451 331.47362882 -342.07727206 359.56478644 -342.203125 387.8125 C-342.21013931 388.8742897 -342.21715363 389.93607941 -342.22438049 391.03004456 C-342.24177912 394.43674008 -342.24823263 397.84326167 -342.25 401.25 C-342.25067474 402.41506073 -342.25134949 403.58012146 -342.25204468 404.78048706 C-342.23607271 422.13186421 -341.77300358 439.08794636 -339 456.25 C-338.83371094 457.343125 -338.66742188 458.43625 -338.49609375 459.5625 C-328.95984432 521.15960741 -300.57247193 580.87462055 -259 627.25 C-258.32638428 628.00821045 -258.32638428 628.00821045 -257.63916016 628.78173828 C-247.78473717 639.85133637 -237.44727134 650.80895147 -226 660.25 C-225.4834082 660.68570313 -224.96681641 661.12140625 -224.43457031 661.5703125 C-200.11898495 682.06353612 -173.34368974 697.98462042 -145 712.25 C-144.26539551 712.62463379 -143.53079102 712.99926758 -142.77392578 713.38525391 C-71.06344734 749.76112383 20.14172585 757.73479493 97 733.25 C97.62432922 733.05279358 98.24865845 732.85558716 98.89190674 732.65240479 C125.52008332 724.41304712 125.52008332 724.41304712 151 713.25 C152.2370166 712.61723145 152.2370166 712.61723145 153.49902344 711.97167969 C181.58567004 697.45257166 208.17389731 679.80512032 231.5546875 658.4765625 C233.13105974 657.04120759 234.71886961 655.6182661 236.3203125 654.2109375 C246.83232129 644.94788025 257.04799451 635.04319811 266 624.25 C266.74121094 623.38632812 267.48242188 622.52265625 268.24609375 621.6328125 C274.90851937 613.79588752 281.06795279 605.65175116 287 597.25 C287.62624268 596.36320557 287.62624268 596.36320557 288.26513672 595.45849609 C303.68168146 573.42525107 315.95331564 549.42232724 325.27026367 524.22094727 C325.75397237 522.91449683 326.24365941 521.61024323 326.73950195 520.30834961 C340.76545883 483.46205515 347.21724118 444.29047291 347.25 404.9375 C347.25100708 404.09050537 347.25201416 403.24351074 347.25305176 402.37084961 C347.22230256 363.73900989 341.29198788 325.89347333 329 289.25 C328.73461426 288.44208008 328.46922852 287.63416016 328.19580078 286.80175781 C323.94292725 273.88298716 318.8506774 261.5247164 313 249.25 C312.60409668 248.41436523 312.20819336 247.57873047 311.80029297 246.71777344 C298.77486705 219.40588802 281.87533825 193.89459504 261.26171875 171.6953125 C259.3095112 169.5846356 257.42693722 167.43772443 255.5625 165.25 C248.65486932 157.31599966 241.02842012 150.0355864 233 143.25 C232.06929687 142.44175781 231.13859375 141.63351563 230.1796875 140.80078125 C224.25393246 135.67864454 218.19505358 130.77448603 211.9375 126.0625 C211.32583984 125.60012939 210.71417969 125.13775879 210.08398438 124.66137695 C150.62827075 80.38799354 79.43732158 56.73349902 5.44433594 56.98925781 C1.74137153 57.00002509 -1.96111225 56.98927397 -5.6640625 56.9765625 C-17.94846281 56.96895167 -29.86796128 57.24598293 -42 59.25 Z " fill="#16242D" transform="translate(524,63.75)"/>
<path d="M0 0 C3.77023868 2.70700528 6.55710243 5.87010754 9.2578125 9.62109375 C9.8971875 10.50796875 10.5365625 11.39484375 11.1953125 12.30859375 C13.54125764 19.62242271 13.37749269 27.15202005 10.0703125 34.12109375 C7.92452853 37.86106185 5.57000253 40.81847141 2.2578125 43.62109375 C1.6390625 44.17796875 1.0203125 44.73484375 0.3828125 45.30859375 C-6.02318262 49.2652378 -13.42280163 49.39206906 -20.7421875 48.62109375 C-27.01285689 46.84617546 -31.66926506 42.58077905 -35.7421875 37.62109375 C-36.15919922 36.77192383 -36.57621094 35.92275391 -37.00585938 35.04785156 C-38.50816578 32.4061043 -38.50816578 32.4061043 -41.1940918 31.96166992 C-42.61588745 31.93810425 -42.61588745 31.93810425 -44.06640625 31.9140625 C-45.09443359 31.88505859 -46.12246094 31.85605469 -47.18164062 31.82617188 C-48.25349609 31.82037109 -49.32535156 31.81457031 -50.4296875 31.80859375 C-51.51314453 31.78345703 -52.59660156 31.75832031 -53.71289062 31.73242188 C-56.38968733 31.6734616 -59.06484565 31.63724712 -61.7421875 31.62109375 C-62.32280685 40.62506353 -62.32280685 40.62506353 -59.10546875 48.484375 C-57.06362323 49.65470047 -57.06362323 49.65470047 -54.875 50.59375 C-49.36421245 53.2482136 -46.02427628 59.17668195 -43.7421875 64.62109375 C-42.56322541 73.35820813 -42.68514762 81.17532326 -47.9609375 88.56640625 C-52.20624501 93.4634057 -55.66893821 96.19179403 -61.7421875 98.62109375 C-61.4121875 104.89109375 -61.0821875 111.16109375 -60.7421875 117.62109375 C-58.1021875 118.94109375 -55.4621875 120.26109375 -52.7421875 121.62109375 C-50.46484375 123.62109375 -50.46484375 123.62109375 -48.8046875 125.62109375 C-48.23878906 126.28109375 -47.67289063 126.94109375 -47.08984375 127.62109375 C-45.7421875 129.62109375 -45.7421875 129.62109375 -44.7421875 133.62109375 C-18.0121875 133.62109375 8.7178125 133.62109375 36.2578125 133.62109375 C36.5878125 131.64109375 36.9178125 129.66109375 37.2578125 127.62109375 C41.73416315 119.34933358 48.36247648 108.23944287 57.4453125 104.55859375 C61.2578125 103.62109375 61.2578125 103.62109375 66.2578125 103.62109375 C66.2578125 94.05109375 66.2578125 84.48109375 66.2578125 74.62109375 C64.6078125 74.29109375 62.9578125 73.96109375 61.2578125 73.62109375 C54.42827096 70.27897768 51.53216101 64.16979078 48.2578125 57.62109375 C47.61591288 49.60260999 47.276137 42.26871917 52.2578125 35.62109375 C57.1951307 30.05078604 62.44280114 25.1994331 70.0546875 24.28515625 C79.48303525 24.16044266 86.69583684 26.29320269 93.68359375 32.80859375 C99.06182994 39.00090539 101.12553949 45.51070666 100.73828125 53.6640625 C99.50610771 61.2474395 95.53433089 66.89812592 90.19921875 72.24609375 C88.2578125 73.62109375 88.2578125 73.62109375 82.2578125 75.62109375 C82.2578125 84.86109375 82.2578125 94.10109375 82.2578125 103.62109375 C84.2378125 103.62109375 86.2178125 103.62109375 88.2578125 103.62109375 C97.21790042 106.86894756 102.15553514 113.9676777 107.2578125 121.62109375 C107.80953125 122.41773438 108.36125 123.214375 108.9296875 124.03515625 C112.2578125 129.02734375 112.2578125 129.02734375 112.2578125 133.62109375 C128.0978125 133.62109375 143.9378125 133.62109375 160.2578125 133.62109375 C160.9178125 131.97109375 161.5778125 130.32109375 162.2578125 128.62109375 C163.46289062 126.90771484 163.46289062 126.90771484 164.7890625 125.39453125 C165.51029297 124.55921875 165.51029297 124.55921875 166.24609375 123.70703125 C166.74496094 123.14242187 167.24382812 122.5778125 167.7578125 121.99609375 C171.71184924 117.4705205 171.71184924 117.4705205 175.2578125 112.62109375 C179.54276226 114.20135891 181.98829559 117.4638306 184.8203125 120.87109375 C185.33827393 121.48645996 185.85623535 122.10182617 186.38989258 122.73583984 C188.02378138 124.68857852 189.64319319 126.65239975 191.2578125 128.62109375 C192.05687012 129.59320801 192.05687012 129.59320801 192.87207031 130.58496094 C194.4073616 132.4635354 195.9293202 134.35192331 197.4453125 136.24609375 C197.91461182 136.82520508 198.38391113 137.40431641 198.86743164 138.00097656 C203.34535569 143.6796427 203.34535569 143.6796427 203.2578125 146.62109375 C201.96935574 148.78496132 200.71317029 150.56314501 199.1328125 152.49609375 C198.69066406 153.05256592 198.24851562 153.60903809 197.79296875 154.18237305 C194.10937597 158.74183388 190.21918161 163.11482457 186.2578125 167.43359375 C185.69433105 168.05024902 185.13084961 168.6669043 184.55029297 169.30224609 C183.16268859 170.78356759 181.71510896 172.20827872 180.2578125 173.62109375 C179.5978125 173.62109375 178.9378125 173.62109375 178.2578125 173.62109375 C177.02625882 172.08768868 175.87396645 170.49043186 174.7578125 168.87109375 C174.05317871 167.91299805 173.34854492 166.95490234 172.62255859 165.96777344 C171.0580809 163.81995266 169.79130855 161.77577359 168.49658203 159.4296875 C165.62187052 154.90044028 163.13599314 151.39152936 157.76379395 149.95349121 C150.41585881 148.9298364 143.0295757 149.18958468 135.6328125 149.37109375 C133.36590776 149.3830811 131.09896747 149.38964378 128.83203125 149.390625 C123.3053308 149.40476124 117.78282025 149.48639605 112.2578125 149.62109375 C111.80643921 150.77883301 111.80643921 150.77883301 111.34594727 151.95996094 C107.61154382 161.09278515 100.83002353 170.98663783 92.046875 175.84375 C88.63712368 177.20638296 85.9417687 177.62109375 82.2578125 177.62109375 C82.2578125 183.23109375 82.2578125 188.84109375 82.2578125 194.62109375 C83.5778125 194.82734375 84.8978125 195.03359375 86.2578125 195.24609375 C95.14076059 197.25102247 100.82118126 203.67428717 106.2578125 210.62109375 C108.2378125 214.25109375 110.2178125 217.88109375 112.2578125 221.62109375 C144.4328125 222.11609375 144.4328125 222.11609375 177.2578125 222.62109375 C177.9178125 220.64109375 178.5778125 218.66109375 179.2578125 216.62109375 C182.97906546 211.09559693 187.34412416 208.53727405 193.2578125 205.62109375 C193.9178125 205.29109375 194.5778125 204.96109375 195.2578125 204.62109375 C204.67855774 203.72457977 210.98372228 205.43210896 218.9453125 210.24609375 C225.45664463 216.93340783 228.78359704 224.48994415 228.66015625 233.76171875 C227.63055274 241.07890095 223.95724585 247.76030029 218.1328125 252.30859375 C215.34558578 254.20592278 213.66673994 254.76886189 210.2578125 255.62109375 C210.2578125 268.49109375 210.2578125 281.36109375 210.2578125 294.62109375 C212.2378125 295.28109375 214.2178125 295.94109375 216.2578125 296.62109375 C222.6917569 300.642309 225.71417597 306.57850825 228.2578125 313.62109375 C229.84934487 321.23922869 227.78454653 327.2394757 224.10546875 333.9453125 C220.37001293 339.35501067 215.4689849 342.59295582 209.2578125 344.62109375 C201.42020958 345.42639106 193.64060733 345.74450306 187.2578125 340.62109375 C182.02338289 335.64096841 177.75948248 330.42124386 176.7890625 323.0703125 C176.71240301 313.84242609 177.4686036 307.55996543 184.0078125 300.81640625 C186.99312078 298.12705526 189.61739494 296.44130253 193.2578125 294.62109375 C193.5878125 281.75109375 193.9178125 268.88109375 194.2578125 255.62109375 C191.9478125 254.96109375 189.6378125 254.30109375 187.2578125 253.62109375 C183.06666596 250.5398249 179.48147508 246.33002628 177.2578125 241.62109375 C177.2578125 240.63109375 177.2578125 239.64109375 177.2578125 238.62109375 C156.1378125 238.62109375 135.0178125 238.62109375 113.2578125 238.62109375 C111.7728125 243.07609375 111.7728125 243.07609375 110.2578125 247.62109375 C108.92241543 250.11278138 107.61854596 252.40519684 106.0703125 254.74609375 C105.67448975 255.34719971 105.27866699 255.94830566 104.87084961 256.56762695 C98.86591902 265.40771949 94.04649779 268.38448816 83.2578125 271.62109375 C82.9278125 303.63109375 82.5978125 335.64109375 82.2578125 368.62109375 C76.9778125 368.62109375 71.6978125 368.62109375 66.2578125 368.62109375 C66.2578125 336.61109375 66.2578125 304.60109375 66.2578125 271.62109375 C63.6178125 271.29109375 60.9778125 270.96109375 58.2578125 270.62109375 C50.17372378 267.33102098 46.3105618 260.85681504 42.2578125 253.49609375 C41.68675781 252.50738281 41.11570312 251.51867187 40.52734375 250.5 C36.27767158 243.04036167 36.27767158 243.04036167 35.2578125 238.62109375 C25.07812594 238.5199625 14.8997445 238.47286756 4.71953487 238.49412346 C-0.00813475 238.50231018 -4.73425548 238.49211858 -9.46166992 238.43945312 C-14.02706657 238.38927661 -18.59013513 238.38799493 -23.15566826 238.42013931 C-24.89436302 238.42388104 -26.63318792 238.41021526 -28.3715992 238.37859726 C-37.97421326 237.89571218 -37.97421326 237.89571218 -46.28268433 241.82183838 C-48.18088839 244.4330126 -48.18088839 244.4330126 -49.49461365 247.18264771 C-51.84415424 251.77494334 -55.82641119 253.87916102 -60.56640625 255.71484375 C-66.82860904 257.50184381 -73.44913358 257.8869599 -79.59765625 255.5234375 C-86.53030546 251.59039143 -91.19608547 246.71329782 -94.7421875 239.62109375 C-111.9021875 239.29109375 -129.0621875 238.96109375 -146.7421875 238.62109375 C-147.4021875 240.27109375 -148.0621875 241.92109375 -148.7421875 243.62109375 C-154.30150079 254.98142959 -159.50832032 260.78609982 -170.7421875 266.62109375 C-172.09885989 267.58919385 -173.44319793 268.57686969 -174.7421875 269.62109375 C-173.0921875 269.95109375 -171.4421875 270.28109375 -169.7421875 270.62109375 C-169.23747553 272.39058987 -168.73858065 274.16174598 -168.2421875 275.93359375 C-167.82453125 277.41279297 -167.82453125 277.41279297 -167.3984375 278.921875 C-166.7421875 281.62109375 -166.7421875 281.62109375 -166.7421875 284.62109375 C-172.3521875 285.28109375 -177.9621875 285.94109375 -183.7421875 286.62109375 C-187.7421875 279.62109375 -187.7421875 279.62109375 -187.7421875 277.62109375 C-189.07842163 277.699646 -189.07842163 277.699646 -190.44165039 277.77978516 C-221.78329406 279.38184912 -221.78329406 279.38184912 -232.07421875 270.2109375 C-232.95464844 269.35628906 -233.83507812 268.50164062 -234.7421875 267.62109375 C-236.15631343 266.59674371 -237.57245398 265.57515751 -238.9921875 264.55859375 C-241.91932481 261.87477012 -242.78292417 259.26339262 -243.8125 255.48828125 C-245.06232993 251.63376373 -246.79813403 248.0796685 -248.5546875 244.43359375 C-249.25699498 242.95465709 -249.95881663 241.47548963 -250.66015625 239.99609375 C-251.67778253 237.85412028 -252.69756108 235.71348215 -253.72900391 233.578125 C-254.62773094 231.70495915 -255.50022586 229.82162644 -256.3671875 227.93359375 C-256.87507813 226.85722656 -257.38296875 225.78085937 -257.90625 224.671875 C-259.72784062 218.02392043 -254.42983961 209.93394868 -251.8046875 203.80859375 C-251.36189453 202.74705078 -250.91910156 201.68550781 -250.46289062 200.59179688 C-250.03041016 199.58439453 -249.59792969 198.57699219 -249.15234375 197.5390625 C-248.76183838 196.61891357 -248.37133301 195.69876465 -247.96899414 194.75073242 C-246.7421875 192.62109375 -246.7421875 192.62109375 -243.7421875 191.62109375 C-246.39776193 186.52239084 -249.42379288 182.52038548 -253.3515625 178.3203125 C-254.7421875 176.62109375 -254.7421875 176.62109375 -254.7421875 174.62109375 C-256.62550781 174.70810547 -256.62550781 174.70810547 -258.546875 174.796875 C-270.28371394 175.18020963 -278.42162108 174.60877708 -287.4921875 166.49609375 C-289.58895069 164.31525775 -290.69029804 162.77994338 -291.63818359 159.87817383 C-292.87505085 156.26908796 -293.95190531 154.26054988 -296.7421875 151.62109375 C-303.36984485 149.54898739 -310.7637951 150.26945788 -317.6171875 150.43359375 C-319.56509271 150.44055518 -321.51302234 150.4425622 -323.4609375 150.43945312 C-328.22354735 150.44263541 -332.98083431 150.51367336 -337.7421875 150.62109375 C-336.23860305 146.71825974 -334.45617295 143.38800238 -332.1796875 139.87109375 C-331.55964844 138.906875 -330.93960938 137.94265625 -330.30078125 136.94921875 C-328.7421875 134.62109375 -328.7421875 134.62109375 -327.7421875 133.62109375 C-325.45067333 133.533184 -323.15646226 133.51415337 -320.86328125 133.5234375 C-319.83328758 133.52555992 -319.83328758 133.52555992 -318.78248596 133.52772522 C-316.58150949 133.53333896 -314.38063341 133.54589368 -312.1796875 133.55859375 C-310.69075667 133.56360699 -309.20182426 133.5681702 -307.71289062 133.57226562 C-304.05595675 133.58331282 -300.39908192 133.60058662 -296.7421875 133.62109375 C-296.60425781 132.85071777 -296.46632813 132.0803418 -296.32421875 131.28662109 C-294.59238603 123.35535028 -288.60911882 116.61553883 -282.11328125 112.05859375 C-272.85860716 106.44785229 -264.23954549 105.14741159 -253.5625 107.24609375 C-242.70655174 110.33990089 -236.29879727 116.75564812 -230.8359375 126.421875 C-227.23810192 133.6560944 -227.71464349 143.82382505 -229.390625 151.6484375 C-231.41020381 157.11165711 -234.58282879 161.29249083 -238.44921875 165.61328125 C-239.94544372 167.51585192 -239.94544372 167.51585192 -239.6640625 169.70703125 C-238.52944841 172.06279779 -237.35601399 172.94658914 -235.1796875 174.37109375 C-234.53902344 174.7990625 -233.89835937 175.22703125 -233.23828125 175.66796875 C-232.74457031 175.9825 -232.25085938 176.29703125 -231.7421875 176.62109375 C-229.28071476 175.58868797 -227.81550427 174.70502882 -226.04296875 172.67578125 C-221.50339789 167.69919865 -218.17844292 166.40618707 -211.52734375 166.09765625 C-205.2571406 166.03411748 -199.00089604 166.24914764 -192.7421875 166.62109375 C-192.89365234 166.07694824 -193.04511719 165.53280273 -193.20117188 164.97216797 C-193.88943174 162.48225557 -194.56588361 159.98927892 -195.2421875 157.49609375 C-195.48066406 156.64015625 -195.71914063 155.78421875 -195.96484375 154.90234375 C-198.52165531 145.4056151 -198.52165531 145.4056151 -197.7421875 141.62109375 C-195.42307374 137.92325274 -192.83766337 134.31941732 -188.58225822 132.90129089 C-186.09780181 132.65527617 -183.72520445 132.65559978 -181.23022461 132.74804688 C-180.30249741 132.74997543 -179.3747702 132.75190399 -178.41893005 132.75389099 C-176.41468074 132.76309895 -174.4104484 132.79061959 -172.40666008 132.83457947 C-169.23216403 132.90315091 -166.06082833 132.92147244 -162.88563538 132.92687988 C-156.14959481 132.94719207 -149.41508889 133.02963584 -142.6796875 133.12109375 C-134.86898684 133.22709244 -127.05981011 133.30747456 -119.24835396 133.32078552 C-116.12391146 133.33959167 -113.00282629 133.40626203 -109.87913513 133.47473145 C-107.9610181 133.48355638 -106.04288903 133.49014567 -104.12475586 133.49414062 C-102.82710297 133.54211037 -102.82710297 133.54211037 -101.50323486 133.59104919 C-97.84597708 133.55542381 -95.64333966 133.49041157 -92.93976021 130.88233948 C-91.33646587 128.78838862 -91.33646587 128.78838862 -90.03000736 126.62116241 C-87.24624015 122.29778946 -83.29733312 119.89866656 -78.7421875 117.62109375 C-78.7421875 111.35109375 -78.7421875 105.08109375 -78.7421875 98.62109375 C-81.0521875 97.30109375 -83.3621875 95.98109375 -85.7421875 94.62109375 C-87.88671875 92.7265625 -87.88671875 92.7265625 -89.5546875 90.80859375 C-90.39966797 89.87080078 -90.39966797 89.87080078 -91.26171875 88.9140625 C-92.7421875 86.62109375 -92.7421875 86.62109375 -94.7421875 79.62109375 C-120.4821875 79.62109375 -146.2221875 79.62109375 -172.7421875 79.62109375 C-173.4021875 81.27109375 -174.0621875 82.92109375 -174.7421875 84.62109375 C-179.71119008 92.01265714 -185.5260826 94.88239212 -193.7421875 97.62109375 C-201.1165732 98.67673178 -206.59245052 96.64637614 -212.7421875 92.62109375 C-217.97932948 88.57287143 -221.54441269 84.21415511 -222.7421875 77.62109375 C-223.54819038 69.95953827 -223.70121626 63.11814876 -219.359375 56.51953125 C-214.46072921 50.76894707 -207.76973532 46.31936428 -200.2109375 45.26953125 C-193.03738658 44.8866732 -187.61100821 46.4690029 -181.7421875 50.62109375 C-177.36396075 54.6425761 -174.96798353 58.05660367 -172.7421875 63.62109375 C-147.0021875 63.62109375 -121.2621875 63.62109375 -94.7421875 63.62109375 C-94.0821875 61.64109375 -93.4221875 59.66109375 -92.7421875 57.62109375 C-89.41607854 52.41053296 -85.25594266 49.27193758 -79.7421875 46.62109375 C-79.0821875 46.62109375 -78.4221875 46.62109375 -77.7421875 46.62109375 C-77.7421875 36.39109375 -77.7421875 26.16109375 -77.7421875 15.62109375 C-64.8721875 15.62109375 -52.0021875 15.62109375 -38.7421875 15.62109375 C-38.0821875 13.64109375 -37.4221875 11.66109375 -36.7421875 9.62109375 C-28.09469947 -3.19460793 -13.92530633 -7.90294716 0 0 Z " fill="#17242D" transform="translate(576.7421875,143.37890625)"/>
<path d="M0 0 C0.99144516 -0.00511093 1.98289032 -0.01022186 3.00437927 -0.01548767 C6.26527028 -0.02932731 9.52594843 -0.0284303 12.78686523 -0.02612305 C15.07120338 -0.03001467 17.35554081 -0.0343503 19.63987732 -0.03910828 C24.42530665 -0.04655963 29.21066221 -0.04628823 33.99609375 -0.04101562 C40.09276022 -0.03523987 46.18912102 -0.05211163 52.28573704 -0.0753603 C57.00530224 -0.09018407 61.72479544 -0.09095734 66.44437981 -0.08785057 C68.68997742 -0.08836002 70.93557946 -0.09352614 73.18115425 -0.10366249 C88.45353088 -0.16411516 103.22389056 -0.03320335 117.28295898 6.7121582 C117.91975586 6.99897461 118.55655273 7.28579102 119.21264648 7.58129883 C123.55265185 9.56972986 127.66603223 11.86073852 131.78295898 14.2746582 C130.06174544 26.13190706 123.03177578 33.40446568 114.62670898 41.4387207 C112.56950964 43.43440435 110.69800992 45.51805455 108.84545898 47.7043457 C102.44244533 55.11110332 95.27121977 61.83842298 88.31665039 68.72045898 C78.9529273 77.94377159 78.9529273 77.94377159 70.14428711 87.69067383 C68.14784089 90.01365501 65.97639524 92.13894395 63.78295898 94.2746582 C60.93432891 97.08922394 58.17766586 99.90201072 55.59545898 102.9621582 C51.47090471 107.79546643 46.90951242 112.19921681 42.37597656 116.64453125 C38.59000208 120.37921729 35.01962421 124.22592751 31.54663086 128.25268555 C28.54477455 131.6941825 25.41186959 135.01148105 22.28295898 138.3371582 C21.65776367 139.00553711 21.03256836 139.67391602 20.38842773 140.36254883 C16.77880092 144.20758609 13.11231069 147.97898099 9.34960938 151.67456055 C7.72422801 153.33464306 6.21780728 155.06134585 4.72045898 156.8371582 C0.73610211 161.47202232 -3.61427598 165.72671099 -7.97900391 169.99951172 C-12.98058575 174.92802649 -17.65974015 180.08686445 -22.05493164 185.56567383 C-33.35230714 199.56231927 -33.35230714 199.56231927 -39.61450195 200.71655273 C-44.66534132 200.51882211 -49.24134175 198.93312416 -53.92456055 197.1262207 C-57.46817278 195.80991405 -61.11207695 194.9818257 -64.77954102 194.0871582 C-70.89853984 192.43390879 -70.89853984 192.43390879 -73.21704102 191.2746582 C-73.33421405 173.91469447 -73.42219452 156.55485541 -73.47610188 139.1945858 C-73.5018053 131.13259988 -73.5368038 123.07086068 -73.59423828 115.0090332 C-73.64431584 107.97646901 -73.67638907 100.94408364 -73.68748349 93.91134608 C-73.69396146 90.19278149 -73.70901836 86.47472814 -73.7456913 82.75632858 C-73.78644741 78.58952603 -73.78697501 74.42359342 -73.78466797 70.2565918 C-73.80264435 69.04457596 -73.82062073 67.83256012 -73.83914185 66.58381653 C-73.74193863 50.24748141 -66.46322838 36.2904521 -55.50610352 24.46606445 C-40.68026125 10.27272399 -20.70740911 -0.05575281 0 0 Z " fill="#16232C" transform="translate(500.217041015625,592.725341796875)"/>
<path d="M0 0 C4.59473918 2.58180582 7.73420463 5.60015201 10.6875 9.9375 C11.615625 11.29875 11.615625 11.29875 12.5625 12.6875 C14.49669739 18.27518135 14.83563938 23.87107013 12.73828125 29.47265625 C9.21261839 36.1347132 4.32161022 42.10110487 -3.07421875 44.51171875 C-7.73961311 45.39920215 -12.58689462 44.98886528 -17.3125 44.9375 C-17.3125 51.8675 -17.3125 58.7975 -17.3125 65.9375 C-14.3425 66.9275 -14.3425 66.9275 -11.3125 67.9375 C-10.42739746 68.62618164 -9.54229492 69.31486328 -8.63037109 70.02441406 C-3.8642936 72.77253645 0.3611976 72.54034914 5.7734375 72.546875 C7.35881821 72.57167938 7.35881821 72.57167938 8.97622681 72.59698486 C12.33837732 72.64541032 15.70007565 72.66682443 19.0625 72.6875 C21.34767893 72.71566413 23.63283685 72.74559217 25.91796875 72.77734375 C31.50773056 72.85116776 37.0973655 72.9028423 42.6875 72.9375 C42.3575 70.9575 42.0275 68.9775 41.6875 66.9375 C44.35444948 66.88294876 47.02025498 66.84356608 49.6875 66.8125 C50.43128906 66.79574219 51.17507813 66.77898437 51.94140625 66.76171875 C56.48556067 66.72220436 60.32458583 67.26299575 64.69140625 68.47900391 C68.17501642 69.27917757 71.62917785 69.22638877 75.1875 69.1875 C75.89519531 69.19523437 76.60289062 69.20296875 77.33203125 69.2109375 C81.70518707 69.1949479 85.49454283 68.57451189 89.70117188 67.4140625 C93.02112034 66.61753602 96.2783007 66.49513568 99.6875 66.3125 C100.36683594 66.27382813 101.04617188 66.23515625 101.74609375 66.1953125 C103.39285817 66.10253704 105.04013955 66.01901002 106.6875 65.9375 C105.8125 70.6875 105.8125 70.6875 104.6875 72.9375 C119.2075 72.9375 133.7275 72.9375 148.6875 72.9375 C148.65527344 76.98257813 148.62304688 81.02765625 148.58984375 85.1953125 C148.58936344 88.43105507 148.5979095 91.66649522 148.6125412 94.90219116 C148.625496 98.31270501 148.62273679 101.72151235 148.58129883 105.13183594 C148.53443154 109.04945228 148.56034672 112.96499761 148.58984375 116.8828125 C148.55297707 118.70656906 148.55297707 118.70656906 148.5153656 120.56716919 C148.48241882 126.87233096 148.48241882 126.87233096 151.68862915 131.9924469 C153.96196588 133.49500512 156.26421789 134.70054571 158.6875 135.9375 C160.84375 138.38671875 160.84375 138.38671875 162.1875 140.625 C162.6515625 141.37136719 163.115625 142.11773438 163.59375 142.88671875 C166.92748997 149.13748119 166.82800125 157.07365229 164.8515625 163.76953125 C161.09943187 171.96629985 154.95315081 177.44597509 146.6875 180.9375 C139.16490727 181.99577799 132.10436276 181.81608246 125.65234375 177.55078125 C118.78436195 171.91166299 114.43638029 166.01268621 113.33984375 157.1171875 C112.97032331 149.70782901 114.20971788 143.93545296 118.6875 137.9375 C123.14349411 133.52179517 126.47249732 131.18050054 132.6875 129.9375 C132.6875 116.7375 132.6875 103.5375 132.6875 89.9375 C121.4675 89.9375 110.2475 89.9375 98.6875 89.9375 C99.0175 90.5975 99.3475 91.2575 99.6875 91.9375 C100.60411857 99.92020346 100.14478937 106.07539489 95.53515625 112.77734375 C91.56317262 117.42112165 86.64873913 121.28160024 80.6875 122.9375 C79.3675 122.9375 78.0475 122.9375 76.6875 122.9375 C76.6875 143.3975 76.6875 163.8575 76.6875 184.9375 C79.6575 185.9275 82.6275 186.9175 85.6875 187.9375 C94.04677551 193.1823086 100.00060699 201.45195347 102.6875 210.9375 C104.72603804 222.01427766 102.29361308 232.23769916 95.92578125 241.5 C91.45541867 247.01314493 86.39401465 250.56699127 79.6875 252.9375 C78.6975 252.9375 77.7075 252.9375 76.6875 252.9375 C76.62283022 256.16874376 76.64724594 259.39349387 76.6875 262.625 C76.65849609 263.99301758 76.65849609 263.99301758 76.62890625 265.38867188 C76.6884184 268.11631207 76.84056685 270.3400523 77.6875 272.9375 C79.5832298 274.71586619 81.41680039 275.77611227 83.73193359 276.94555664 C88.55190806 279.39044506 91.06684247 284.79962787 93.5625 289.375 C95.86106654 296.65379405 95.08617505 302.55973396 92.015625 309.51171875 C87.97554401 316.89080784 82.32924162 322.24497751 74.1875 324.6875 C64.88970297 325.6172797 57.70260611 323.63375677 50.3125 317.8125 C44.2694877 312.03860971 42.49131185 305.51542006 42.1875 297.3125 C42.51084132 288.42582896 45.66375073 283.48343678 51.90625 277.3828125 C54.85823083 274.98756489 56.85269494 273.9375 60.6875 273.9375 C60.6875 267.3375 60.6875 260.7375 60.6875 253.9375 C58.0475 253.2775 55.4075 252.6175 52.6875 251.9375 C43.71203654 246.82839003 37.55845893 238.79446496 34.39453125 229.046875 C31.96056457 218.34280055 33.25848571 209.52428873 38.5546875 200.046875 C42.86798688 193.75862169 48.456807 188.62799042 55.6875 185.9375 C57.0075 185.9375 58.3275 185.9375 59.6875 185.9375 C59.67261857 177.28781326 59.63099686 168.63878595 59.55540943 159.98941517 C59.52114563 155.97292962 59.4960305 151.95682416 59.49194336 147.94018555 C59.48765893 144.06244227 59.45918595 140.18555631 59.41406822 136.30808067 C59.40109754 134.83019699 59.39678408 133.35221068 59.40134621 131.87427711 C59.40625606 129.80042053 59.38015193 127.72906611 59.34692383 125.65551758 C59.33693108 123.88680046 59.33693108 123.88680046 59.32673645 122.08235168 C58.5050169 118.03973786 56.75550168 116.59530271 53.6875 113.9375 C47.77479721 105.25973914 48.6875 102.13650623 48.6875 89.9375 C33.1775 89.9375 17.6675 89.9375 1.6875 89.9375 C1.3575 92.9075 1.0275 95.8775 0.6875 98.9375 C-1.045845 104.27348362 -4.02011693 108.32799605 -8.3125 111.9375 C-8.96702148 112.22794189 -9.62154297 112.51838379 -10.29589844 112.81762695 C-12.75239136 113.95362799 -14.4231038 114.98528164 -16.3125 116.9375 C-17.53234366 121.11703334 -17.43116574 125.11114488 -17.3125 129.4375 C-17.3434375 130.56542969 -17.374375 131.69335938 -17.40625 132.85546875 C-17.49902449 138.82104334 -17.49902449 138.82104334 -14.57739258 143.71337891 C-12.5376073 144.95862261 -10.48784292 145.95438622 -8.3125 146.9375 C-3.33428932 151.37779008 0.17674566 156.78840921 1.00390625 163.5078125 C1.38278497 172.28313243 -1.09559402 178.46953537 -6.5625 185.25 C-12.21182818 191.20855456 -16.94556772 193.15174934 -25.1875 193.5 C-32.77036881 193.2564389 -38.50892648 191.40997689 -44.15234375 186.2578125 C-49.44989739 180.42920826 -51.8216989 174.8701462 -51.6875 166.9375 C-51.69910156 166.25171875 -51.71070313 165.5659375 -51.72265625 164.859375 C-51.68675428 158.58849701 -49.56595241 154.0777777 -45.625 149.3125 C-45.18800781 148.76335937 -44.75101563 148.21421875 -44.30078125 147.6484375 C-42.3125 145.9375 -42.3125 145.9375 -34.3125 141.9375 C-33.9825 133.3575 -33.6525 124.7775 -33.3125 115.9375 C-34.9625 115.6075 -36.6125 115.2775 -38.3125 114.9375 C-44.12508282 111.00690015 -49.67961135 105.94486321 -51.3125 98.9375 C-52.03339574 91.5919518 -52.84076724 83.19331961 -48.78125 76.68359375 C-44.32433618 71.38508184 -40.25964006 67.12356195 -33.3125 65.9375 C-33.43094608 61.31086673 -33.55520772 56.68443958 -33.68481445 52.05810547 C-33.72807338 50.48490626 -33.76975474 48.91166283 -33.80981445 47.33837891 C-33.86773662 45.07440885 -33.93136714 42.81065949 -33.99609375 40.546875 C-34.01280624 39.84568542 -34.02951874 39.14449585 -34.04673767 38.42205811 C-34.14643556 35.12107878 -34.37989602 32.10844511 -35.3125 28.9375 C-36.17044434 20.57867086 -35.436256 13.78889659 -30.3125 6.9375 C-21.6633049 -1.49272813 -11.50797551 -5.28462924 0 0 Z " fill="#17242D" transform="translate(293.3125,421.0625)"/>
<path d="M0 0 C1.7324102 0.01507854 3.46483314 0.02876132 5.19726562 0.04101562 C9.40266346 0.07376014 13.60743793 0.12536564 17.8125 0.1875 C14.29951608 5.06422228 10.71647305 9.503555 6.375 13.6875 C3.23053784 16.75588646 0.16082558 19.83814365 -2.6875 23.1875 C-5.9698339 27.03793015 -9.54004849 30.56895579 -13.13842773 34.11889648 C-16.384896 37.33857595 -19.40770264 40.67482214 -22.37109375 44.15234375 C-24.59128889 46.63991723 -26.941022 48.96896283 -29.3125 51.3125 C-34.59566169 56.45584665 -34.59566169 56.45584665 -39.1875 62.1875 C-38.8431862 65.59208261 -37.41430633 67.39177838 -35.13085938 69.85449219 C-34.16218933 70.90512848 -34.16218933 70.90512848 -33.1739502 71.97698975 C-30.16335611 75.14872171 -27.14196925 78.30866346 -24.09228516 81.44287109 C-22.4992155 83.09545848 -20.92423723 84.76569395 -19.36865234 86.45361328 C-9.61917722 97.6740468 -9.61917722 97.6740468 3.76672363 102.70318604 C12.0865451 102.70295543 15.96449445 100.02905819 21.8125 94.1875 C22.97075287 93.05445938 22.97075287 93.05445938 24.15240479 91.89852905 C26.76538666 89.31800479 29.34946411 86.71092063 31.9296875 84.09765625 C32.87716118 83.14322108 33.82501374 82.18916189 34.77322388 81.23545837 C38.7639918 77.22044835 42.74876779 73.19952764 46.72949219 69.17456055 C49.17892708 66.69842088 51.63315027 64.22711278 54.0904274 61.75875664 C55.47573386 60.36421953 56.85544288 58.96412927 58.2350769 57.5639801 C59.48745651 56.30653236 59.48745651 56.30653236 60.76513672 55.02368164 C61.50045624 54.28090469 62.23577576 53.53812775 62.99337769 52.77284241 C64.8125 51.1875 64.8125 51.1875 66.8125 51.1875 C72.87146133 69.36438398 66.08092144 93.45566787 57.9921875 109.96435547 C54.87708708 115.83482409 51.01054155 121.05501067 46.8125 126.1875 C45.98878906 127.2084375 45.98878906 127.2084375 45.1484375 128.25 C32.45972878 142.30518504 12.38017195 150.81961755 -6.1875 152.1875 C-9.09276435 152.26562047 -11.99645354 152.29399451 -14.90258789 152.32324219 C-32.19033045 152.61212068 -41.13079714 157.68522303 -53.69921875 169.0703125 C-56.42615319 171.53813312 -59.22804179 173.81191676 -62.1875 176 C-65.67969833 178.65640318 -68.40221082 181.54955868 -71.1953125 184.921875 C-73.13843167 187.13169681 -75.20884577 189.14221347 -77.34423828 191.16430664 C-87.44332093 200.80111868 -94.90525163 212.35062986 -102.1875 224.1875 C-103.5075 223.8575 -104.8275 223.5275 -106.1875 223.1875 C-104.32705468 217.55144506 -100.76826288 213.10731579 -97.3515625 208.33398438 C-92.20768387 201.03051539 -87.6188619 194.42144181 -89.1875 185.1875 C-91.3450425 178.20421155 -95.92528786 173.82644411 -102.0234375 170.05078125 C-107.51246106 167.86111662 -114.32758879 168.34224647 -119.91015625 169.9921875 C-126.71123534 173.11788153 -131.82394927 178.07259069 -137.1875 183.1875 C-138.47219272 184.32045736 -139.76348589 185.445992 -141.0625 186.5625 C-145.03236203 190.01804792 -148.90092243 193.5813397 -152.77172852 197.14672852 C-155.48150279 199.63832313 -158.20984137 202.0988831 -161 204.5 C-165.58300067 208.47320432 -169.98448532 212.63988541 -174.41064453 216.78564453 C-180.29625888 222.29747638 -186.23444649 227.74861036 -192.1875 233.1875 C-194.69172738 235.48119135 -197.19437106 237.77660978 -199.69702148 240.07202148 C-202.1445043 242.31637394 -204.59397517 244.55843635 -207.046875 246.796875 C-212.71285406 251.97282344 -218.34053301 257.18696037 -223.9375 262.4375 C-224.93716797 263.37529297 -224.93716797 263.37529297 -225.95703125 264.33203125 C-229.51765498 267.67479655 -233.0733307 271.02272266 -236.625 274.375 C-237.34719727 275.05530273 -238.06939453 275.73560547 -238.81347656 276.43652344 C-240.19725977 277.74014265 -241.57950087 279.04540135 -242.95996094 280.35253906 C-249.57063378 286.57574831 -249.57063378 286.57574831 -252.1875 288.1875 C-254.9375 287.875 -254.9375 287.875 -257.1875 287.1875 C-257.1875 286.5275 -257.1875 285.8675 -257.1875 285.1875 C-255.578125 283.63671875 -255.578125 283.63671875 -253.4375 281.875 C-250.26988651 279.19987765 -247.75657035 276.44824314 -245.1875 273.1875 C-244.5275 273.1875 -243.8675 273.1875 -243.1875 273.1875 C-242.94386719 272.61515625 -242.70023437 272.0428125 -242.44921875 271.453125 C-240.96232702 268.78316462 -239.20666092 267.04920993 -237 264.9375 C-233.5532085 261.56730386 -230.32291349 258.12283117 -227.18359375 254.46875 C-224.15053309 251.00239496 -221.01175817 247.6356844 -217.88061523 244.25805664 C-215.32668572 241.50293013 -212.77784976 238.74394542 -210.25 235.96484375 C-205.65143686 230.91085207 -201.0022386 225.94737056 -196.12550354 221.15794373 C-194.3769158 219.38008643 -192.75866129 217.55864345 -191.14819336 215.65649414 C-186.37494598 210.1680915 -181.21236888 205.06800025 -176.06640625 199.93359375 C-174.99683836 198.86335033 -173.92741879 197.79295866 -172.85813904 196.72242737 C-170.62831776 194.49114087 -168.3967216 192.26164943 -166.16381836 190.03344727 C-163.32185568 187.19718112 -160.48440758 184.35644769 -157.64828587 181.51434231 C-155.44431774 179.30673667 -153.23794381 177.10154779 -151.03086662 174.89705086 C-149.98449551 173.85134021 -148.93884826 172.80490465 -147.89398384 171.75768852 C-142.71057581 166.56517259 -137.51111162 161.43921139 -131.91455078 156.6875 C-128.66650915 153.86646978 -125.65462607 150.80164256 -122.625 147.75 C-121.96806152 147.09112793 -121.31112305 146.43225586 -120.63427734 145.75341797 C-116.8676391 141.95297295 -113.22895479 138.09750379 -109.7890625 133.99609375 C-107.8678492 131.82652849 -105.7866986 129.872398 -103.6875 127.875 C-94.38201664 118.63271177 -84.66285283 103.16104736 -84.08129883 89.73583984 C-84.09844339 86.90519637 -84.16964362 84.07952578 -84.25 81.25 C-84.4284965 64.64851319 -81.47051932 51.58298839 -73.1875 37.1875 C-72.46046875 35.89199219 -72.46046875 35.89199219 -71.71875 34.5703125 C-62.48295854 19.48160669 -46.76068772 8.71862477 -30.1875 3.1875 C-29.48246338 2.92638428 -28.77742676 2.66526855 -28.05102539 2.39624023 C-18.83547261 -0.62932375 -9.57604177 -0.14580012 0 0 Z " fill="#17232D" transform="translate(729.1875,507.8125)"/>
<path d="M0 0 C2.46957139 2.16942349 4.76512551 4.42052186 7.0390625 6.79296875 C7.73257813 7.45554687 8.42609375 8.118125 9.140625 8.80078125 C13.57709537 13.30576854 16.56764025 18.20071601 19.4140625 23.79296875 C19.74809082 24.44531494 20.08211914 25.09766113 20.42626953 25.76977539 C26.8715581 39.08992787 27.50653569 56.99201731 23.3515625 71.10546875 C22.63159152 73.02119573 21.86373888 74.91992926 21.0390625 76.79296875 C20.66523437 77.67855469 20.29140625 78.56414062 19.90625 79.4765625 C11.82976443 97.04693011 -2.55727024 108.28007837 -20.30273438 114.92822266 C-36.24524984 120.63049327 -54.98329924 119.15935735 -70.1484375 112.04296875 C-75.59284538 109.15771614 -80.34374059 105.86449693 -84.9609375 101.79296875 C-85.71117187 101.13683594 -86.46140625 100.48070312 -87.234375 99.8046875 C-100.21080699 87.69187471 -107.56039641 71.46191965 -108.34790039 53.84228516 C-108.77193575 35.59852219 -101.36859557 19.0136091 -88.9609375 5.79296875 C-81.53948303 -1.37691099 -73.39078248 -6.17970162 -63.9609375 -10.20703125 C-63.1153125 -10.56925781 -62.2696875 -10.93148438 -61.3984375 -11.3046875 C-41.17535261 -18.27257733 -16.76169002 -12.49387185 0 0 Z " fill="#17232D" transform="translate(583.9609375,447.20703125)"/>
<path d="M0 0 C10.27431009 -0.32518206 20.54738677 -0.57351938 30.82580471 -0.72537041 C35.59951109 -0.7982783 40.36968489 -0.89703174 45.14135742 -1.05615234 C49.75176836 -1.20892313 54.35879692 -1.29209853 58.97154427 -1.3282814 C60.72582344 -1.35404131 62.47992828 -1.40435804 64.23275566 -1.48022079 C77.61731135 -2.03616509 77.61731135 -2.03616509 81.57774734 1.34828949 C84.36114589 4.6746408 86.22025632 8.34111404 88.05862617 12.24425888 C90.98057535 17.6939391 95.90720637 22.60480425 101 26 C103.27538323 26.66613335 103.27538323 26.66613335 105.6875 27.125 C107.110625 27.41375 108.53375 27.7025 110 28 C110 33.61 110 39.22 110 45 C108.72125 45.309375 107.4425 45.61875 106.125 45.9375 C95.11660871 49.64158135 87.46647786 60.13349264 82.40795898 70.15356445 C81.71101929 71.56255005 81.71101929 71.56255005 81 73 C70.56038723 73.25520211 60.12151945 73.45048179 49.67941952 73.56993389 C44.83016009 73.62727638 39.98303853 73.70499862 35.13500977 73.82983398 C30.45342198 73.94962495 25.77388555 74.01517689 21.09088326 74.04364967 C19.30725358 74.0639298 17.52373275 74.10353872 15.74098015 74.16303062 C10.30583346 74.3371424 5.28744078 74.36745714 0 73 C-2.77349028 70.38727262 -4.19287681 68.12623147 -5.75559998 64.66755676 C-8.1812023 59.46791697 -13.02148244 57.44044979 -18 55 C-18.22334904 50.26805461 -18.38615853 45.53920256 -18.49438477 40.80322266 C-18.53950884 39.19460603 -18.60083129 37.58635586 -18.67895508 35.97900391 C-19.31452319 22.56145481 -19.31452319 22.56145481 -16.07519531 18.71362305 C-13.67578125 17.16015625 -13.67578125 17.16015625 -11.27856445 16.08618164 C-5.05939175 13.1215294 -2.52056297 5.96845381 0 0 Z " fill="#FBFBFC" transform="translate(533,293)"/>
<path d="M0 0 C0 24.75 0 49.5 0 75 C-10 80 -10 80 -12 80 C-11.835 79.484375 -11.67 78.96875 -11.5 78.4375 C-10.61914033 74.14330911 -9.98707405 70.68624115 -12.33984375 66.76953125 C-13.83308888 64.78439361 -15.36692442 62.87123243 -17 61 C-17.69031771 62.85282741 -17.69031771 62.85282741 -18 65 C-17.34 65.94875 -16.68 66.8975 -16 67.875 C-14 71 -14 71 -13.75 73.8125 C-16.32280232 80.3731459 -20.23299175 84.88256956 -26.703125 87.8515625 C-46.0080438 95.70407331 -67.49350119 100.59079457 -88 104 C-89.75118995 104.39053526 -91.50132554 104.78585133 -93.25 105.1875 C-98.80653714 106.33483958 -104.35212498 106.17467655 -110 106 C-110.57323392 95.06609377 -110.57323392 95.06609377 -107 91 C-103.29301459 88.09452495 -100.65754061 87.67505531 -96 88 C-96.33 87.34 -96.66 86.68 -97 86 C-97.8131597 80.46227954 -97.65639753 76.18393787 -94.3125 71.5625 C-91.30858304 68.09644197 -88.70664869 65.21754373 -83.91015625 64.83203125 C-81.93938479 64.8147134 -79.9683047 64.89991671 -78 65 C-78.04640625 64.41992188 -78.0928125 63.83984375 -78.140625 63.2421875 C-78.40304252 57.56272253 -77.85288432 54.46123447 -74 50 C-69.50672 45.56827178 -65.61751957 43.26618843 -59.3125 42.625 C-52.52023066 42.79255124 -46.23130941 45.81255279 -41 50 C-40.59910156 49.12859375 -40.19820312 48.2571875 -39.78515625 47.359375 C-32.14929404 31.36042561 -20.93036931 18.91160092 -8.5625 6.375 C-7.63884644 5.43164795 -7.63884644 5.43164795 -6.6965332 4.46923828 C-6.11734131 3.88899902 -5.53814941 3.30875977 -4.94140625 2.7109375 C-4.42263916 2.18806152 -3.90387207 1.66518555 -3.36938477 1.12646484 C-2 0 -2 0 0 0 Z " fill="#17242D" transform="translate(674,690)"/>
<path d="M0 0 C26.4 0 52.8 0 80 0 C81.32 2.97 82.64 5.94 84 9 C88.4186602 15.08793184 89.55522654 15.8093828 97 19 C97 31.21 97 43.42 97 56 C93.04 57.98 93.04 57.98 89 60 C87.01527594 61.60004206 87.01527594 61.60004206 85.6875 63.375 C85.23761719 63.91898437 84.78773438 64.46296875 84.32421875 65.0234375 C82.6408433 67.53608641 81.35256478 70.29487043 80 73 C64.16 73 48.32 73 32 73 C32 70.69 32 68.38 32 66 C32.58007812 65.97421875 33.16015625 65.9484375 33.7578125 65.921875 C39.21594798 65.52557473 42.71429889 64.67345809 47 61 C50.3598414 56.31072495 50.62044279 52.60129166 50.48828125 46.953125 C49.73851971 42.41856719 47.59837193 39.75655098 44 37 C39.76119372 34.46014846 35.82992311 34.31961083 31 35 C24.85327897 38.13134845 21.22506976 42.51021319 19 49 C15.06225823 49.36630156 13.43460229 49.30233203 10.125 47 C9.42375 46.34 8.7225 45.68 8 45 C9.10150421 41.69548738 10.81228012 40.27399208 13.58984375 38.35546875 C14.22656006 37.91227295 14.86327637 37.46907715 15.51928711 37.01245117 C16.00792236 36.67834229 16.49655762 36.3442334 17 36 C16.24074219 35.09378906 15.48148437 34.18757813 14.69921875 33.25390625 C4.87199831 21.30699252 4.87199831 21.30699252 3 13 C2.01 8.71 1.02 4.42 0 0 Z " fill="#FAFAFB" transform="translate(402,293)"/>
<path d="M0 0 C7.05276351 5.44260429 11.10023425 12.72739729 12.3984375 21.5078125 C12.98962076 30.56030619 11.1822769 38.14543455 5.8203125 45.59765625 C-0.74860231 52.89645048 -7.72377111 56.13105566 -17.4765625 56.8359375 C-27.6315738 57.05420132 -35.02106648 55.9171688 -42.5546875 48.78515625 C-49.0933516 41.66644937 -52.70919466 33.79105109 -52.42578125 23.98828125 C-51.47772432 14.77858538 -47.92052296 7.56399879 -40.8125 1.6171875 C-28.374351 -7.55074907 -13.13640523 -8.45155821 0 0 Z " fill="#18252F" transform="translate(390.1796875,430.40234375)"/>
<path d="M0 0 C1.47847412 0.0323877 1.47847412 0.0323877 2.98681641 0.06542969 C6.39379362 0.69226096 8.16966845 1.95511338 10.7734375 4.203125 C12.3125 6.66015625 12.3125 6.66015625 13.7734375 9.578125 C14.48093918 10.77468469 15.19766963 11.96581929 15.921875 13.15234375 C17.98078179 16.57581247 19.90118335 20.04896988 21.7734375 23.578125 C22.41152344 24.58939453 22.41152344 24.58939453 23.0625 25.62109375 C24.14389721 28.59790696 23.58417529 30.54066037 22.7734375 33.578125 C21.65738263 35.95217688 20.53326397 38.14136138 19.2109375 40.390625 C18.85741211 40.99865967 18.50388672 41.60669434 18.13964844 42.2331543 C10.21192014 55.4758251 10.21192014 55.4758251 4.98071289 57.15283203 C0.51427176 58.01341609 -4.0033885 58.0188049 -8.5390625 58.140625 C-9.55935547 58.20314453 -10.57964844 58.26566406 -11.63085938 58.33007812 C-18.95676031 58.48635138 -18.95676031 58.48635138 -22.32373047 56.078125 C-24.20329543 54.01444986 -25.72057848 51.92746006 -27.2265625 49.578125 C-27.96193237 48.46497925 -27.96193237 48.46497925 -28.7121582 47.3293457 C-30.13013616 45.07456825 -31.43749833 42.7836587 -32.7265625 40.453125 C-33.1803125 39.68097656 -33.6340625 38.90882813 -34.1015625 38.11328125 C-36.01009261 34.6977106 -37.22553283 32.4039179 -37.23046875 28.4453125 C-30.27379687 8.57684106 -20.74511556 -0.46328271 0 0 Z " fill="#FBFCFC" transform="translate(384.2265625,336.421875)"/>
<path d="M0 0 C4.90819679 4.52956446 8.94671628 12.31131907 9.4375 19 C8.73288013 26.50028706 5.41721909 33.97314707 -0.125 39.0625 C-7.781611 44.88663824 -14.76995377 46.03375969 -24.25 45 C-31.25098718 43.06232974 -36.71352099 37.95810441 -40.57421875 31.93359375 C-43.9623856 25.2880314 -44.66577973 18.46916641 -42.40234375 11.32421875 C-39.06626722 3.87176305 -33.86656747 -1.68714427 -26.3125 -4.9375 C-16.55861142 -7.97964848 -8.4564987 -5.2039992 0 0 Z " fill="#17252E" transform="translate(273.25,359)"/>
<path d="M0 0 C1.24393021 -0.00189835 2.48786041 -0.00379669 3.76948547 -0.00575256 C7.13673952 -0.00879324 10.50374143 -0.00302754 13.87096524 0.00720048 C17.41112153 0.01607068 20.95127468 0.01422191 24.49143982 0.01383972 C30.42302687 0.01477147 36.35456225 0.02339454 42.28613281 0.03710938 C49.13857073 0.05289504 55.99095243 0.05810496 62.84340721 0.05737382 C70.16206401 0.05669852 77.48069926 0.0636309 84.79934955 0.07282043 C86.90189938 0.07494899 89.00444573 0.07566118 91.10699654 0.07605934 C95.0179658 0.07725041 98.92888838 0.08696107 102.83984375 0.09765625 C104.00193359 0.09720306 105.16402344 0.09674988 106.36132812 0.09628296 C107.42505142 0.10054794 108.48877472 0.10481293 109.58473206 0.10920715 C110.96974836 0.11172092 110.96974836 0.11172092 112.38274479 0.11428547 C114.67556194 0.23442685 116.64119062 0.59694477 118.83764648 1.24291992 C118.83764648 1.90291992 118.83764648 2.56291992 118.83764648 3.24291992 C120.81764648 3.24291992 122.79764648 3.24291992 124.83764648 3.24291992 C124.83764648 4.23291992 124.83764648 5.22291992 124.83764648 6.24291992 C126.15764648 6.24291992 127.47764648 6.24291992 128.83764648 6.24291992 C128.83764648 7.23291992 128.83764648 8.22291992 128.83764648 9.24291992 C126.92105848 9.27004145 125.00435918 9.28937089 123.08764648 9.30541992 C121.48663086 9.32282227 121.48663086 9.32282227 119.85327148 9.34057617 C117.30396147 9.2580208 115.25831057 8.9890955 112.83764648 8.24291992 C112.83764648 8.90291992 112.83764648 9.56291992 112.83764648 10.24291992 C111.40025136 10.27004058 109.96270786 10.28937059 108.52514648 10.30541992 C107.32438477 10.32282227 107.32438477 10.32282227 106.09936523 10.34057617 C103.83764648 10.24291992 103.83764648 10.24291992 100.83764648 9.24291992 C100.83764648 9.90291992 100.83764648 10.56291992 100.83764648 11.24291992 C99.70746094 11.23768311 98.57727539 11.23244629 97.4128418 11.22705078 C93.21590976 11.20893766 89.01898118 11.1974648 84.82202148 11.18798828 C83.00626036 11.18296251 81.19050328 11.17614089 79.37475586 11.16748047 C76.76341758 11.15533803 74.15213286 11.14967401 71.54077148 11.14526367 C70.73021301 11.14010239 69.91965454 11.1349411 69.08453369 11.12962341 C65.47705848 11.12926512 62.31614229 11.36546738 58.83764648 12.24291992 C56.44152531 12.25873063 54.04471017 12.20964085 51.65014648 12.12182617 C50.95179688 12.09821518 50.25344727 12.07460419 49.53393555 12.05027771 C47.30161491 11.97397672 45.06966302 11.8901159 42.83764648 11.80541992 C39.92107677 11.69967257 37.00440186 11.59731442 34.08764648 11.49682617 C33.37906998 11.47190598 32.67049347 11.44698578 31.94044495 11.42131042 C26.75600977 11.24828416 21.58259958 11.20718978 16.39599609 11.26586914 C12.71745837 11.23287147 9.08799043 10.86959459 5.42749023 10.52807617 C0.77630405 10.15861307 -3.87653841 9.95077434 -8.53735352 9.74291992 C-36.30329955 8.48228923 -36.30329955 8.48228923 -41.16235352 5.24291992 C-37.85164513 4.24182477 -34.86150583 4.13935858 -31.41235352 4.18041992 C-30.42750977 4.18944336 -29.44266602 4.1984668 -28.42797852 4.20776367 C-27.30649414 4.22516602 -27.30649414 4.22516602 -26.16235352 4.24291992 C-26.16235352 3.58291992 -26.16235352 2.92291992 -26.16235352 2.24291992 C-17.37233828 0.65932221 -8.92363592 -0.04383921 0 0 Z " fill="#A9ADB0" transform="translate(481.162353515625,911.757080078125)"/>
<path d="M0 0 C0.825 0.78375 1.65 1.5675 2.5 2.375 C3.03109375 2.84550781 3.5621875 3.31601562 4.109375 3.80078125 C8.61495255 7.95234914 10.53225263 11.44483649 10.875 17.625 C10.71125785 24.64252083 7.52167298 31.49281794 2.5 36.375 C-3.14790868 40.36794009 -8.68728479 41.41643417 -15.5 40.375 C-23.04932331 38.233348 -26.90356973 32.94755296 -30.64453125 26.359375 C-32.5814026 21.86654099 -31.88556456 16.91584442 -30.4375 12.375 C-28.25313099 7.11171086 -24.44930723 2.35405583 -19.70703125 -0.828125 C-13.62385881 -3.02452708 -5.79074204 -2.6885588 0 0 Z " fill="#FAFBFB" transform="translate(661.5,357.625)"/>
<path d="M0 0 C5.26810489 3.067252 8.99308724 7.11807156 11.94140625 12.453125 C13.58565038 18.73114805 13.07969433 23.57635073 9.96484375 29.1875 C6.53697239 34.03863959 2.25352986 37.21728396 -3.37109375 39.078125 C-9.79079117 39.98974123 -15.27329932 39.66494603 -20.578125 35.73828125 C-26.06847909 30.65462005 -28.73437632 26.10056011 -29.12109375 18.515625 C-28.73384909 10.97315516 -26.02858656 7.39425182 -20.61328125 2.484375 C-14.61211964 -2.03532831 -6.99032846 -2.71782128 0 0 Z " fill="#FBFBFC" transform="translate(659.37109375,264.921875)"/>
<path d="M0 0 C0.99 0 1.98 0 3 0 C3 0.66 3 1.32 3 2 C3.80824219 1.91621094 4.61648438 1.83242188 5.44921875 1.74609375 C6.51785156 1.64425781 7.58648437 1.54242187 8.6875 1.4375 C10.27111328 1.28087891 10.27111328 1.28087891 11.88671875 1.12109375 C14.81426086 1.00722448 17.17131144 1.29151585 20 2 C20 1.34 20 0.68 20 0 C27.59 0 35.18 0 43 0 C43 0.33 43 0.66 43 1 C46.06255961 1.0270491 49.1248786 1.04686298 52.1875 1.0625 C53.48397461 1.07506836 53.48397461 1.07506836 54.80664062 1.08789062 C59.03873192 1.10410553 62.85650579 0.93374517 67 0 C68.76977761 -0.06459042 70.54170152 -0.08611065 72.3125 -0.0625 C73.63701172 -0.04896484 73.63701172 -0.04896484 74.98828125 -0.03515625 C75.98408203 -0.01775391 75.98408203 -0.01775391 77 0 C76.34 0.66 75.68 1.32 75 2 C79.62 2 84.24 2 89 2 C88.34 2.66 87.68 3.32 87 4 C87.99 4.66 88.98 5.32 90 6 C90 5.34 90 4.68 90 4 C91.5823006 3.66179834 93.16589375 3.32964061 94.75 3 C96.07257813 2.7215625 96.07257813 2.7215625 97.421875 2.4375 C100 2 100 2 104 2 C103.67 2.99 103.34 3.98 103 5 C103.99 5.66 104.98 6.32 106 7 C105.11957031 6.98839844 104.23914063 6.97679687 103.33203125 6.96484375 C102.17058594 6.95582031 101.00914062 6.94679688 99.8125 6.9375 C98.66394531 6.92589844 97.51539063 6.91429687 96.33203125 6.90234375 C93.40699414 6.98807168 90.83683709 7.32150977 88 8 C88 8.66 88 9.32 88 10 C89.98 10.495 89.98 10.495 92 11 C91.08081787 10.99476318 90.16163574 10.98952637 89.21459961 10.98413086 C62.39743792 10.84843256 35.58556422 11.08480998 8.77064896 11.40571976 C6.05966779 11.43753324 3.34867194 11.46752943 0.63766479 11.49703979 C-3.68619212 11.54440882 -8.00996189 11.59673523 -12.33371353 11.65287781 C-13.94947568 11.67318761 -15.56525808 11.69195157 -17.18105698 11.70909119 C-19.4136747 11.73317963 -21.64613838 11.76317493 -23.87866211 11.79467773 C-25.13827255 11.81022202 -26.397883 11.8257663 -27.69566345 11.84178162 C-30.58534827 11.98014563 -33.19162941 12.3342082 -36 13 C-36 12.34 -36 11.68 -36 11 C-37.32 11 -38.64 11 -40 11 C-40 10.01 -40 9.02 -40 8 C-41.216875 8.020625 -42.43375 8.04125 -43.6875 8.0625 C-46.91977322 8.06824116 -49.84934741 7.78766315 -53 7 C-53 6.67 -53 6.34 -53 6 C-51.35 6 -49.7 6 -48 6 C-47.67 5.34 -47.34 4.68 -47 4 C-47 4.66 -47 5.32 -47 6 C-43.04 6 -39.08 6 -35 6 C-35 5.34 -35 4.68 -35 4 C-31.65348757 1.97781832 -29.24999765 1.81233858 -25.375 1.9375 C-19.61767161 2.03597198 -13.93167929 1.84133397 -8.1875 1.5 C-7.38038574 1.45222412 -6.57327148 1.40444824 -5.74169922 1.35522461 C-3.82762313 1.2397022 -1.91378285 1.12028265 0 1 C0 0.67 0 0.34 0 0 Z " fill="#B2B6B9" transform="translate(504,926)"/>
<path d="M0 0 C5.47426832 2.43300814 8.67171375 6.57063462 11 12 C12.18063248 17.29744662 10.79213996 21.57930233 8.2109375 26.23828125 C5.75974424 29.80437209 3.05038841 31.64987053 -1 33 C-5.9388636 33.51853818 -9.85354834 33.55199525 -14.375 31.375 C-19.20658826 27.00356301 -21.77018759 22.7577489 -22.3125 16.25 C-22.24231581 11.47747505 -20.75765893 8.87562877 -18 5 C-12.17021288 -0.2745693 -7.71563556 -0.7540777 0 0 Z " fill="#F9FAFB" transform="translate(367,624)"/>
<path d="M0 0 C4.46942565 2.19408168 7.20953799 4.91002969 10 9 C10.99825822 14.12093502 11.21504913 19.59008529 8.82421875 24.33203125 C6.09197782 27.68555694 3.30360332 30.1197175 -1 31 C-5.49679354 31.40203121 -9.52627085 31.52399259 -13.8125 30 C-18.2811646 25.9143638 -21.27041404 21.55053164 -21.5625 15.375 C-21.19037778 9.52161802 -18.23259776 6.38291456 -14.4375 2.125 C-10.18816103 -1.21608331 -5.11463654 -0.82322019 0 0 Z " fill="#F9FBFB" transform="translate(319,269)"/>
<path d="M0 0 C1.24393021 -0.00189835 2.48786041 -0.00379669 3.76948547 -0.00575256 C7.13673952 -0.00879324 10.50374143 -0.00302754 13.87096524 0.00720048 C17.41112153 0.01607068 20.95127468 0.01422191 24.49143982 0.01383972 C30.42302687 0.01477147 36.35456225 0.02339454 42.28613281 0.03710938 C49.13857073 0.05289504 55.99095243 0.05810496 62.84340721 0.05737382 C70.16206401 0.05669852 77.48069926 0.0636309 84.79934955 0.07282043 C86.90189938 0.07494899 89.00444573 0.07566118 91.10699654 0.07605934 C95.0179658 0.07725041 98.92888838 0.08696107 102.83984375 0.09765625 C104.00193359 0.09720306 105.16402344 0.09674988 106.36132812 0.09628296 C107.42505142 0.10054794 108.48877472 0.10481293 109.58473206 0.10920715 C110.96974836 0.11172092 110.96974836 0.11172092 112.38274479 0.11428547 C114.67556194 0.23442685 116.64119062 0.59694477 118.83764648 1.24291992 C118.83764648 1.90291992 118.83764648 2.56291992 118.83764648 3.24291992 C120.81764648 3.24291992 122.79764648 3.24291992 124.83764648 3.24291992 C124.83764648 4.23291992 124.83764648 5.22291992 124.83764648 6.24291992 C113.6380991 6.35130264 102.44794177 6.30663033 91.25170898 6.02026367 C90.38902908 5.99821869 89.52634918 5.97617371 88.63752747 5.95346069 C87.748452 5.93071075 86.85937653 5.90796082 85.94335938 5.88452148 C65.94545023 5.37443704 45.95098405 5.10780081 25.94702148 5.06567383 C23.21537375 5.05991547 20.48381099 5.0496469 17.75219727 5.03491211 C2.03348908 4.96092339 -13.50812659 5.31088779 -29.16212463 6.7167511 C-30.87044716 6.86058479 -30.87044716 6.86058479 -32.61328125 7.00732422 C-33.61560287 7.10039352 -34.6179245 7.19346283 -35.65061951 7.28935242 C-38.16235352 7.24291992 -38.16235352 7.24291992 -41.16235352 5.24291992 C-37.85164513 4.24182477 -34.86150583 4.13935858 -31.41235352 4.18041992 C-30.42750977 4.18944336 -29.44266602 4.1984668 -28.42797852 4.20776367 C-27.30649414 4.22516602 -27.30649414 4.22516602 -26.16235352 4.24291992 C-26.16235352 3.58291992 -26.16235352 2.92291992 -26.16235352 2.24291992 C-17.37233828 0.65932221 -8.92363592 -0.04383921 0 0 Z " fill="#BABEC1" transform="translate(481.162353515625,911.757080078125)"/>
<path d="M0 0 C0.99 0 1.98 0 3 0 C3 0.66 3 1.32 3 2 C3.80824219 1.91621094 4.61648438 1.83242188 5.44921875 1.74609375 C6.51785156 1.64425781 7.58648437 1.54242187 8.6875 1.4375 C10.27111328 1.28087891 10.27111328 1.28087891 11.88671875 1.12109375 C14.81426086 1.00722448 17.17131144 1.29151585 20 2 C20 1.34 20 0.68 20 0 C27.59 0 35.18 0 43 0 C43 0.33 43 0.66 43 1 C46.06255961 1.0270491 49.1248786 1.04686298 52.1875 1.0625 C53.48397461 1.07506836 53.48397461 1.07506836 54.80664062 1.08789062 C59.03873192 1.10410553 62.85650579 0.93374517 67 0 C68.76977761 -0.06459042 70.54170152 -0.08611065 72.3125 -0.0625 C73.63701172 -0.04896484 73.63701172 -0.04896484 74.98828125 -0.03515625 C75.98408203 -0.01775391 75.98408203 -0.01775391 77 0 C76.34 0.66 75.68 1.32 75 2 C79.62 2 84.24 2 89 2 C83.33361283 5.77759145 78.48641306 5.34679767 71.7734375 5.55859375 C69.80629288 5.62197182 69.80629288 5.62197182 67.79940796 5.68663025 C48.76693395 6.24942083 29.72155053 6.11124942 10.68304443 6.06866455 C5.51265891 6.05824184 0.34226811 6.05382732 -4.828125 6.04882812 C-14.88543002 6.03825803 -24.94271237 6.0213027 -35 6 C-35 5.34 -35 4.68 -35 4 C-31.65348757 1.97781832 -29.24999765 1.81233858 -25.375 1.9375 C-19.61767161 2.03597198 -13.93167929 1.84133397 -8.1875 1.5 C-7.38038574 1.45222412 -6.57327148 1.40444824 -5.74169922 1.35522461 C-3.82762313 1.2397022 -1.91378285 1.12028265 0 1 C0 0.67 0 0.34 0 0 Z " fill="#A1A6A9" transform="translate(504,926)"/>
<path d="M0 0 C3.12291165 1.68012647 5.39164837 3.78329674 7 7 C7.63707113 12.14207416 7.92622985 15.79840452 4.6875 20 C0.68017624 22.98219443 -1.73197888 24.56136457 -6.86328125 24.45703125 C-10.76758941 23.62192329 -13.48213739 20.99954067 -16 18 C-17.20643566 14.38069302 -17.32268559 11.80768995 -17 8 C-12.834109 0.38647507 -8.33718013 -1.30753912 0 0 Z " fill="#F8F9FA" transform="translate(375,444)"/>
<path d="M0 0 C3.07469523 1.70251719 5.40613254 3.81226508 7 7 C7.57322775 11.69858808 7.41740893 15.14972255 5.3125 19.4375 C1.90840084 23.20960987 -0.49403753 23.78095091 -5.4375 24.5 C-9.70149825 23.90154411 -11.00622549 22.66972908 -13.8359375 19.60546875 C-16.1663557 16.39136849 -16.3880581 12.95687203 -16.359375 9.0703125 C-15.71820971 5.3766429 -13.64068388 3.57781045 -11 1 C-7.51556578 -0.74221711 -3.80112955 -0.58675154 0 0 Z " fill="#1A2833" transform="translate(286,642)"/>
<path d="M0 0 C42.24 0 84.48 0 128 0 C128 0.66 128 1.32 128 2 C129.98 2.495 129.98 2.495 132 3 C131.08081787 2.99476318 130.16163574 2.98952637 129.21459961 2.98413086 C102.39743792 2.84843256 75.58556422 3.08480998 48.77064896 3.40571976 C46.05966779 3.43753324 43.34867194 3.46752943 40.63766479 3.49703979 C36.31380788 3.54440882 31.99003811 3.59673523 27.66628647 3.65287781 C26.05052432 3.67318761 24.43474192 3.69195157 22.81894302 3.70909119 C20.5863253 3.73317963 18.35386162 3.76317493 16.12133789 3.79467773 C14.86172745 3.81022202 13.602117 3.8257663 12.30433655 3.84178162 C9.41465173 3.98014563 6.80837059 4.3342082 4 5 C4 4.34 4 3.68 4 3 C2.68 3 1.36 3 0 3 C0 2.01 0 1.02 0 0 Z " fill="#C2C7C9" transform="translate(464,934)"/>
<path d="M0 0 C1.6192186 -0.00422974 1.6192186 -0.00422974 3.27114868 -0.00854492 C5.02470673 -0.00550858 5.02470673 -0.00550858 6.81369019 -0.00241089 C8.05659821 -0.00416321 9.29950623 -0.00591553 10.58007812 -0.00772095 C13.97659882 -0.01136045 17.37305837 -0.01051819 20.7695756 -0.00734186 C24.32846055 -0.00480405 27.88734296 -0.00715966 31.44622803 -0.00872803 C37.41963163 -0.0105451 43.39302284 -0.00815504 49.36642456 -0.00338745 C56.27040476 0.00205926 63.17435544 0.00028768 70.07833493 -0.00521386 C76.01138058 -0.00975221 81.94441735 -0.01039214 87.87746418 -0.00777519 C91.41878358 -0.00621704 94.96008911 -0.00600611 98.50140762 -0.00931168 C102.44665932 -0.01273741 106.39187794 -0.00798884 110.33712769 -0.00241089 C111.51021484 -0.00443512 112.683302 -0.00645935 113.89193726 -0.00854492 C114.96577667 -0.0057251 116.03961609 -0.00290527 117.14599609 0 C118.54464999 0.00056554 118.54464999 0.00056554 119.97155952 0.0011425 C122.27383944 0.11822749 124.24135847 0.47689735 126.4460144 1.12698364 C126.4460144 1.78698364 126.4460144 2.44698364 126.4460144 3.12698364 C128.4260144 3.12698364 130.4060144 3.12698364 132.4460144 3.12698364 C132.4460144 3.45698364 132.4460144 3.78698364 132.4460144 4.12698364 C124.99467482 5.7872643 117.85398886 5.43317292 110.36203003 4.1411438 C100.83709218 2.74090318 91.3384677 2.77115315 81.7272644 2.71292114 C79.73730733 2.69414151 77.74735764 2.67456351 75.75741577 2.65423584 C70.54477509 2.60323437 65.33210775 2.56350128 60.11935425 2.52609253 C54.8792143 2.4862815 49.63919014 2.4347928 44.3991394 2.38479614 C25.7475996 2.21263305 7.09843866 2.10073495 -11.5539856 2.12698364 C-11.5539856 1.79698364 -11.5539856 1.46698364 -11.5539856 1.12698364 C-7.65379081 0.4035636 -3.9648565 0.00160187 0 0 Z " fill="#CCD0D3" transform="translate(473.5539855957031,911.8730163574219)"/>
<path d="M0 0 C0.99 0 1.98 0 3 0 C3 0.66 3 1.32 3 2 C3.80824219 1.91621094 4.61648438 1.83242188 5.44921875 1.74609375 C6.51785156 1.64425781 7.58648437 1.54242187 8.6875 1.4375 C10.27111328 1.28087891 10.27111328 1.28087891 11.88671875 1.12109375 C14.81426086 1.00722448 17.17131144 1.29151585 20 2 C20 1.34 20 0.68 20 0 C27.59 0 35.18 0 43 0 C43 0.33 43 0.66 43 1 C46.06255961 1.0270491 49.1248786 1.04686298 52.1875 1.0625 C53.48397461 1.07506836 53.48397461 1.07506836 54.80664062 1.08789062 C59.03873192 1.10410553 62.85650579 0.93374517 67 0 C68.76977761 -0.06459042 70.54170152 -0.08611065 72.3125 -0.0625 C73.63701172 -0.04896484 73.63701172 -0.04896484 74.98828125 -0.03515625 C75.98408203 -0.01775391 75.98408203 -0.01775391 77 0 C75.94464111 1.45768738 75.94464111 1.45768738 74 3 C70.81072998 3.5058136 70.81072998 3.5058136 66.88574219 3.67700195 C66.17782909 3.71001813 65.469916 3.74303431 64.74055099 3.77705097 C56.77324219 4.11690847 48.80144852 4.1640735 40.828125 4.16796875 C39.24631726 4.17119336 37.6645098 4.17455826 36.08270264 4.17805481 C32.80545355 4.18397461 29.5282306 4.18590153 26.25097656 4.18530273 C22.05472745 4.1852 17.85864331 4.19899753 13.66243362 4.21607494 C10.41281357 4.22717564 7.16323419 4.22922275 3.91359711 4.22869301 C2.36505297 4.22987042 0.81650769 4.23427879 -0.73201752 4.24202538 C-2.88494289 4.2518124 -5.03749849 4.24895561 -7.19042969 4.24291992 C-8.41236023 4.24434494 -9.63429077 4.24576996 -10.89324951 4.24723816 C-14 4 -14 4 -18 2 C-12.06 1.67 -6.12 1.34 0 1 C0 0.67 0 0.34 0 0 Z " fill="#93989B" transform="translate(504,926)"/>
<path d="M0 0 C9.82451747 -0.02338868 19.6490281 -0.04104802 29.47356796 -0.05181217 C34.03772734 -0.0569839 38.60186737 -0.06397486 43.16601562 -0.07543945 C47.58809849 -0.08647499 52.01016301 -0.09231954 56.43225861 -0.09487724 C58.10154763 -0.09669494 59.77083589 -0.10024192 61.44011688 -0.10573006 C73.65691204 -0.14421984 85.80390883 0.29150525 98 1 C98 1.66 98 2.32 98 3 C96.86981445 2.99476318 95.73962891 2.98952637 94.57519531 2.98413086 C90.37826328 2.96601774 86.18133469 2.95454488 81.984375 2.94506836 C80.16861388 2.94004259 78.3528568 2.93322097 76.53710938 2.92456055 C73.9257711 2.91241811 71.31448638 2.90675409 68.703125 2.90234375 C67.89256653 2.89718246 67.08200806 2.89202118 66.24688721 2.88670349 C62.639412 2.8863452 59.4784958 3.12254746 56 4 C53.60387883 4.0158107 51.20706369 3.96672093 48.8125 3.87890625 C48.11415039 3.85529526 47.41580078 3.83168427 46.69628906 3.80735779 C44.46396843 3.7310568 42.23201654 3.64719598 40 3.5625 C37.08343028 3.45675265 34.16675518 3.35440019 31.25 3.25390625 C30.5404718 3.22894073 29.8309436 3.20397522 29.09991455 3.17825317 C23.89751658 3.00454852 18.70639942 2.98346025 13.50195312 3.01147461 C10.3991478 2.99724434 7.33817383 2.79411179 4.25 2.5 C2.74179687 2.36078125 2.74179687 2.36078125 1.203125 2.21875 C0.47609375 2.1465625 -0.2509375 2.074375 -1 2 C-0.67 1.34 -0.34 0.68 0 0 Z " fill="#919699" transform="translate(484,920)"/>
<path d="M0 0 C1.30059357 -0.00629929 2.60118713 -0.01259857 3.94119263 -0.01908875 C5.3703 -0.0206011 6.79940774 -0.02179721 8.22851562 -0.02270508 C9.71874034 -0.02660789 11.20896456 -0.03070632 12.69918823 -0.0349884 C16.68752849 -0.04423598 20.67582779 -0.04519169 24.66417694 -0.04321289 C27.12859818 -0.04223877 29.59301306 -0.04321137 32.05743408 -0.04443359 C56.91478532 -0.04902994 81.69439605 0.43597721 106.51123047 1.96166992 C108.21722724 2.06194424 109.92582446 2.14526367 111.63476562 2.14526367 C111.63476562 2.80526367 111.63476562 3.46526367 111.63476562 4.14526367 C110.50325829 4.10080612 110.50325829 4.10080612 109.34889221 4.05545044 C87.5130693 3.22393751 65.7032562 2.98608741 43.8527832 3.01489258 C39.38605482 3.02070053 34.9193851 3.01721968 30.45265865 3.01132011 C26.96018529 3.00770781 23.46772593 3.00885429 19.97525215 3.01144791 C18.32592321 3.01210962 16.67659295 3.01131551 15.02726555 3.00896835 C12.7426703 3.00641851 10.45817203 3.01031014 8.17358398 3.01586914 C6.88222031 3.01666473 5.59085663 3.01746033 4.26036072 3.01828003 C0.65163398 3.14467287 -2.79866389 3.6021985 -6.36523438 4.14526367 C-9.09825791 4.00927053 -11.65390756 3.57336791 -14.36523438 3.14526367 C-9.47667592 0.52639307 -5.54384565 0.01857798 0 0 Z " fill="#9FA4A7" transform="translate(482.365234375,917.854736328125)"/>
<path d="M0 0 C3.66882343 0.07258819 7.33780312 0.13623708 11.0067749 0.20080566 C18.11827165 0.32719183 25.22956017 0.46287176 32.34075928 0.60510254 C32.34075928 0.93510254 32.34075928 1.26510254 32.34075928 1.60510254 C31.48775742 1.62056374 31.48775742 1.62056374 30.61752319 1.63633728 C-10.4934223 2.12579859 -10.4934223 2.12579859 -51.54205322 4.18322754 C-52.21381088 4.23322403 -52.88556854 4.28322052 -53.5776825 4.33473206 C-56.85777582 4.58001078 -60.13513144 4.83886645 -63.41241455 5.1204834 C-65.15687866 5.2578894 -65.15687866 5.2578894 -66.93658447 5.39807129 C-67.97033203 5.48596924 -69.00407959 5.57386719 -70.06915283 5.66442871 C-72.65924072 5.60510254 -72.65924072 5.60510254 -75.65924072 3.60510254 C-72.34853234 2.60400738 -69.35839303 2.5015412 -65.90924072 2.54260254 C-64.92439697 2.55162598 -63.93955322 2.56064941 -62.92486572 2.56994629 C-61.80338135 2.58734863 -61.80338135 2.58734863 -60.65924072 2.60510254 C-60.65924072 1.94510254 -60.65924072 1.28510254 -60.65924072 0.60510254 C-40.40226532 -0.33591561 -20.26780445 -0.41046069 0 0 Z " fill="#C2C6CA" transform="translate(515.6592407226563,913.3948974609375)"/>
<path d="M0 0 C3.70196145 0.0208975 7.40395293 0.02968498 11.10595703 0.03967285 C18.29874353 0.06077263 25.49138761 0.09465139 32.68408203 0.1373291 C32.68408203 0.4673291 32.68408203 0.7973291 32.68408203 1.1373291 C31.95460358 1.15794403 31.22512512 1.17855896 30.47354126 1.19979858 C23.55979961 1.39670023 16.64634534 1.601853 9.73311806 1.81600761 C6.17993938 1.92579218 2.62672649 2.03251387 -0.92675781 2.13195801 C-5.02294371 2.24672961 -9.1185989 2.37532191 -13.21435547 2.5045166 C-15.10557632 2.55465408 -15.10557632 2.55465408 -17.03500366 2.60580444 C-23.29187363 2.81371067 -29.21175341 3.28391661 -35.31785583 4.6995697 C-41.81248718 6.12249138 -48.82963145 5.2904467 -55.31591797 4.1373291 C-55.31591797 3.4773291 -55.31591797 2.8173291 -55.31591797 2.1373291 C-36.85346393 0.13137599 -18.53971946 -0.11621351 0 0 Z " fill="#B4B8BB" transform="translate(503.31591796875,915.8626708984375)"/>
<path d="M0 0 C21.45 0 42.9 0 65 0 C61.14564868 1.92717566 60.04476658 2.21664507 56 2.0625 C52.60309281 1.90298938 52.60309281 1.90298938 49.296875 2.50927734 C46.08758512 3.19493558 43.09011402 2.99910461 39.8125 2.87890625 C39.11415039 2.85529526 38.41580078 2.83168427 37.69628906 2.80735779 C35.46396843 2.7310568 33.23201654 2.64719598 31 2.5625 C28.08342986 2.45675264 25.16673632 2.35494821 22.25 2.25390625 C21.54391602 2.22785309 20.83783203 2.20179993 20.11035156 2.17495728 C14.80817542 1.9907597 9.52665677 2.01548689 4.22265625 2.17553711 C2 2 2 2 0 0 Z " fill="#85898C" transform="translate(493,921)"/>
<path d="M0 0 C7.59 0 15.18 0 23 0 C23 0.66 23 1.32 23 2 C25.475 2.495 25.475 2.495 28 3 C24.82212459 4.0592918 22.57411057 4.11458939 19.23828125 4.09765625 C18.12001953 4.09443359 17.00175781 4.09121094 15.84960938 4.08789062 C14.68236328 4.07951172 13.51511719 4.07113281 12.3125 4.0625 C11.13365234 4.05798828 9.95480469 4.05347656 8.74023438 4.04882812 C5.82677211 4.03703273 2.91341137 4.0205727 0 4 C0 2.68 0 1.36 0 0 Z " fill="#E1E5E6" transform="translate(513,940)"/>
<path d="M0 0 C1.12226536 3.36679607 0.89165469 5.58586342 0 9 C-1.12329102 11.12817383 -1.12329102 11.12817383 -2.50390625 13.20703125 C-2.99697266 13.95791016 -3.49003906 14.70878906 -3.99804688 15.48242188 C-4.51431641 16.25134766 -5.03058594 17.02027344 -5.5625 17.8125 C-6.34270508 18.99489258 -6.34270508 18.99489258 -7.13867188 20.20117188 C-8.41876566 22.13892853 -9.7059808 24.07152677 -11 26 C-12.32 25.67 -13.64 25.34 -15 25 C-13.3701958 20.04267888 -10.48791702 16.14915047 -7.5 11.9375 C-6.50805852 10.53160878 -5.51839558 9.12410655 -4.53125 7.71484375 C-4.09361328 7.09730225 -3.65597656 6.47976074 -3.20507812 5.84350586 C-1.97120347 3.95594761 -0.96877863 2.03449131 0 0 Z " fill="#202932" transform="translate(638,706)"/>
<path d="M0 0 C1.03125 0.144375 2.0625 0.28875 3.125 0.4375 C3.125 4.4375 3.125 4.4375 1.15625 6.796875 C0.3209375 7.58578125 -0.514375 8.3746875 -1.375 9.1875 C-2.2103125 9.98671875 -3.045625 10.7859375 -3.90625 11.609375 C-4.5559375 12.21265625 -5.205625 12.8159375 -5.875 13.4375 C-8.35 12.4475 -8.35 12.4475 -10.875 11.4375 C-9.71076973 5.31852228 -6.29495808 0.71072107 0 0 Z " fill="#111B27" transform="translate(502.875,764.5625)"/>
<path d="M0 0 C0 0.66 0 1.32 0 2 C1.98 2 3.96 2 6 2 C6 2.33 6 2.66 6 3 C-4.06415851 5.24245956 -13.9448845 3.64404808 -24 2 C-24 1.67 -24 1.34 -24 1 C-16.57442933 -1.76300304 -7.6357041 -2.32229443 0 0 Z " fill="#C6CACE" transform="translate(600,913)"/>
<path d="M0 0 C0.99 0 1.98 0 3 0 C3 0.66 3 1.32 3 2 C3.80824219 1.91621094 4.61648438 1.83242188 5.44921875 1.74609375 C6.51785156 1.64425781 7.58648437 1.54242187 8.6875 1.4375 C10.27111328 1.28087891 10.27111328 1.28087891 11.88671875 1.12109375 C14.81426086 1.00722448 17.17131144 1.29151585 20 2 C20 1.34 20 0.68 20 0 C27.59 0 35.18 0 43 0 C42.67 0.66 42.34 1.32 42 2 C36.57551262 2.94600134 31.27530134 3.13802589 25.78125 3.09765625 C25.03790405 3.0962413 24.29455811 3.09482635 23.52868652 3.09336853 C21.18574771 3.08783109 18.84290927 3.07529091 16.5 3.0625 C14.89843889 3.05747689 13.29687627 3.05291542 11.6953125 3.04882812 C7.79683712 3.03788227 3.8984355 3.02066196 0 3 C0 2.01 0 1.02 0 0 Z " fill="#85898D" transform="translate(504,926)"/>
<path d="M0 0 C1.33895632 1.66215268 2.67130142 3.32963607 4 5 C4.5775 5.61875 5.155 6.2375 5.75 6.875 C7.54338396 9.92375273 7.1997341 12.53794226 7 16 C6.34 15.01 5.68 14.02 5 13 C4.34 13.66 3.68 14.32 3 15 C2.731875 14.278125 2.46375 13.55625 2.1875 12.8125 C1.08093652 9.95384985 1.08093652 9.95384985 -0.6875 7.4375 C-2 5 -2 5 -1.75 2.75 C-1 1 -1 1 0 0 Z " fill="#E8EDEF" transform="translate(657,750)"/>
<path d="M0 0 C9.24 0 18.48 0 28 0 C19.20070011 4.39964994 9.5389021 2.89341302 0 2 C0 1.34 0 0.68 0 0 Z " fill="#B0B4B8" transform="translate(448,918)"/>
<path d="M0 0 C0.66 0.33 1.32 0.66 2 1 C-4.34441493 8.1184612 -10.59613689 14.97359979 -18 21 C-18.66 20.67 -19.32 20.34 -20 20 C-13.4 13.4 -6.8 6.8 0 0 Z " fill="#262D35" transform="translate(591,670)"/>
<path d="M0 0 C0.66 0.33 1.32 0.66 2 1 C1.04882866 2.1725131 0.08882991 3.33787015 -0.875 4.5 C-1.67550781 5.47453125 -1.67550781 5.47453125 -2.4921875 6.46875 C-2.98976563 6.9740625 -3.48734375 7.479375 -4 8 C-4.66 8 -5.32 8 -6 8 C-6.226875 8.556875 -6.45375 9.11375 -6.6875 9.6875 C-9.58468834 14.79206994 -14.50522921 18.34146564 -19 22 C-19.66 21.67 -20.32 21.34 -21 21 C-14.07 14.07 -7.14 7.14 0 0 Z " fill="#273037" transform="translate(794,559)"/>
<path d="M0 0 C2.625 0.375 2.625 0.375 5 1 C6.125 5.75 6.125 5.75 5 8 C3.00045254 8.04254356 0.99958364 8.04080783 -1 8 C-2 7 -2 7 -2.1875 4.5625 C-2 2 -2 2 0 0 Z " fill="#EFF1F4" transform="translate(394,307)"/>
<path d="M0 0 C9.24 0 18.48 0 28 0 C28 0.99 28 1.98 28 3 C18.49095101 3.32417212 9.38695104 2.33418593 0 1 C0 0.67 0 0.34 0 0 Z " fill="#AAAEB1" transform="translate(582,918)"/>
<path d="M0 0 C-0.33 0.99 -0.66 1.98 -1 3 C-0.01 3.66 0.98 4.32 2 5 C-3.28 4.67 -8.56 4.34 -14 4 C-14 3.34 -14 2.68 -14 2 C-12.4176994 1.66179834 -10.83410625 1.32964061 -9.25 1 C-8.36828125 0.814375 -7.4865625 0.62875 -6.578125 0.4375 C-4 0 -4 0 0 0 Z " fill="#AEB3B6" transform="translate(608,928)"/>
<path d="M0 0 C1.51400391 0.01740234 1.51400391 0.01740234 3.05859375 0.03515625 C4.07050781 0.04417969 5.08242188 0.05320312 6.125 0.0625 C7.29869141 0.07990234 7.29869141 0.07990234 8.49609375 0.09765625 C8.49609375 0.75765625 8.49609375 1.41765625 8.49609375 2.09765625 C9.81609375 2.42765625 11.13609375 2.75765625 12.49609375 3.09765625 C5.89609375 3.09765625 -0.70390625 3.09765625 -7.50390625 3.09765625 C-6.18390625 2.43765625 -4.86390625 1.77765625 -3.50390625 1.09765625 C-2.50390625 0.09765625 -2.50390625 0.09765625 0 0 Z " fill="#C6CBCE" transform="translate(583.50390625,933.90234375)"/>
<path d="M0 0 C1.40185547 0.00966797 1.40185547 0.00966797 2.83203125 0.01953125 C4.28416016 0.04466797 4.28416016 0.04466797 5.765625 0.0703125 C6.74917969 0.07933594 7.73273438 0.08835937 8.74609375 0.09765625 C11.16951907 0.12118465 13.59244722 0.15405882 16.015625 0.1953125 C16.015625 0.5253125 16.015625 0.8553125 16.015625 1.1953125 C13.16249476 1.56063394 10.30872596 1.91282563 7.453125 2.2578125 C6.25333008 2.4134668 6.25333008 2.4134668 5.02929688 2.57226562 C0.09842636 3.15591969 -4.10371415 3.13213733 -8.984375 2.1953125 C-5.85508322 0.36461347 -3.60794354 -0.04399931 0 0 Z " fill="#BEC2C5" transform="translate(448.984375,915.8046875)"/>
<path d="M0 0 C1.67542976 0.28604898 3.34385343 0.61781233 5 1 C5 2.65 5 4.3 5 6 C3.125 7.0625 3.125 7.0625 1 8 C0.34 7.67 -0.32 7.34 -1 7 C-1.04254356 5.00045254 -1.04080783 2.99958364 -1 1 C-0.67 0.67 -0.34 0.34 0 0 Z " fill="#D2DBDE" transform="translate(343,326)"/>
<path d="M0 0 C1.11684665 3.35053994 1.06874808 5.62933298 0 9 C-2.0625 11.8125 -2.0625 11.8125 -4 14 C-4.33 13.34 -4.66 12.68 -5 12 C-5.66 11.67 -6.32 11.34 -7 11 C-6.57847656 10.37351562 -6.15695312 9.74703125 -5.72265625 9.1015625 C-4.90087891 7.87566406 -4.90087891 7.87566406 -4.0625 6.625 C-3.24458984 5.40683594 -3.24458984 5.40683594 -2.41015625 4.1640625 C-0.98906121 2.07280816 -0.98906121 2.07280816 0 0 Z " fill="#2C353D" transform="translate(638,706)"/>
<path d="M0 0 C0.66 0.66 1.32 1.32 2 2 C0.37660195 3.70884005 -1.29319053 5.37446717 -3 7 C-3.66 7 -4.32 7 -5 7 C-5.2475 7.598125 -5.495 8.19625 -5.75 8.8125 C-7.16370012 11.28647521 -8.65055383 12.43370255 -11 14 C-11.66 13.67 -12.32 13.34 -13 13 C-8.71 8.71 -4.42 4.42 0 0 Z " fill="#303D41" transform="translate(244,178)"/>
<path d="M0 0 C0.79921875 0.00902344 1.5984375 0.01804687 2.421875 0.02734375 C3.02515625 0.03894531 3.6284375 0.05054688 4.25 0.0625 C4.25 0.7225 4.25 1.3825 4.25 2.0625 C3.60933594 2.12308594 2.96867187 2.18367188 2.30859375 2.24609375 C-2.73423313 2.73459412 -7.7412102 3.30029286 -12.75 4.0625 C-8.55587869 0.61732892 -5.36548836 -0.07890424 0 0 Z " fill="#3D474D" transform="translate(255.75,352.9375)"/>
<path d="M0 0 C-0.3125 1.875 -0.3125 1.875 -1 4 C-4 6 -4 6 -6.6875 5.625 C-7.450625 5.41875 -8.21375 5.2125 -9 5 C-9 4.34 -9 3.68 -9 3 C-2.25 0 -2.25 0 0 0 Z " fill="#27303D" transform="translate(481,790)"/>
<path d="M0 0 C2.0625 0.4375 2.0625 0.4375 4 1 C3.67 2.65 3.34 4.3 3 6 C1.35 6 -0.3 6 -2 6 C-1.125 1.125 -1.125 1.125 0 0 Z " fill="#E8ECEE" transform="translate(340,395)"/>
<path d="M0 0 C2.86724686 0.57344937 3.8614515 0.8614515 6 3 C4.68 4.32 3.36 5.64 2 7 C1.01 6.67 0.02 6.34 -1 6 C-0.67 4.02 -0.34 2.04 0 0 Z " fill="#111A2A" transform="translate(484,781)"/>
<path d="M0 0 C1.63001953 0.01353516 1.63001953 0.01353516 3.29296875 0.02734375 C4.12441406 0.03894531 4.95585937 0.05054688 5.8125 0.0625 C2.69339144 1.85525866 0.13567572 2.40540718 -3.4375 2.6875 C-4.32953125 2.76226563 -5.2215625 2.83703125 -6.140625 2.9140625 C-7.15382813 2.98753906 -7.15382813 2.98753906 -8.1875 3.0625 C-8.5175 2.4025 -8.8475 1.7425 -9.1875 1.0625 C-5.90230525 -0.03256492 -3.45086585 -0.03710608 0 0 Z " fill="#A9AEB1" transform="translate(470.1875,917.9375)"/>
<path d="M0 0 C0.99 0.33 1.98 0.66 3 1 C0.03 4.3 -2.94 7.6 -6 11 C-6.66 10.67 -7.32 10.34 -8 10 C-5.36 6.7 -2.72 3.4 0 0 Z " fill="#212C34" transform="translate(219,205)"/>
<path d="M0 0 C4.62 0 9.24 0 14 0 C14 0.99 14 1.98 14 3 C9.38 2.34 4.76 1.68 0 1 C0 0.67 0 0.34 0 0 Z " fill="#B0B4B7" transform="translate(596,918)"/>
<path d="M0 0 C0.66 0.33 1.32 0.66 2 1 C-3.96583144 8.66742597 -3.96583144 8.66742597 -9 10 C-8.06409496 8.8944811 -7.12620142 7.79064547 -6.1875 6.6875 C-5.66542969 6.07261719 -5.14335938 5.45773437 -4.60546875 4.82421875 C-3.12827531 3.14575321 -1.59960869 1.56117966 0 0 Z " fill="#32393F" transform="translate(591,670)"/>
<path d="M0 0 C0 0.99 0 1.98 0 3 C-0.99 3.33 -1.98 3.66 -3 4 C-4.10836423 5.88316159 -4.10836423 5.88316159 -5 8 C-5.99 9.485 -5.99 9.485 -7 11 C-7.66 10.67 -8.32 10.34 -9 10 C-6.43571997 5.82117329 -3.98069267 2.87494471 0 0 Z " fill="#273137" transform="translate(765,441)"/>
<path d="M0 0 C1.32 0.66 2.64 1.32 4 2 C1.81722366 4.18277634 -0.27127689 5.56742037 -3 7 C-3.66 6.67 -4.32 6.34 -5 6 C-3.35 4.02 -1.7 2.04 0 0 Z " fill="#293337" transform="translate(752,256)"/>
<path d="M0 0 C0 3 0 3 -1.75 5.25 C-2.86375 6.11625 -2.86375 6.11625 -4 7 C-5.32 6.67 -6.64 6.34 -8 6 C-5.36 4.02 -2.72 2.04 0 0 Z " fill="#232C33" transform="translate(358,311)"/>
<path d="M0 0 C0.66 0.33 1.32 0.66 2 1 C0.02 3.31 -1.96 5.62 -4 8 C-4.99 7.67 -5.98 7.34 -7 7 C-4.69 4.69 -2.38 2.38 0 0 Z " fill="#363F45" transform="translate(794,559)"/>
<path d="M0 0 C0.66 0.33 1.32 0.66 2 1 C2 1.66 2 2.32 2 3 C4.31 3 6.62 3 9 3 C9 3.33 9 3.66 9 4 C7.56260487 4.02712066 6.12506137 4.04645067 4.6875 4.0625 C3.48673828 4.07990234 3.48673828 4.07990234 2.26171875 4.09765625 C0 4 0 4 -3 3 C-3 2.34 -3 1.68 -3 1 C-2.01 0.67 -1.02 0.34 0 0 Z " fill="#576065" transform="translate(374,237)"/>
<path d="M0 0 C0.33 0.66 0.66 1.32 1 2 C0.0625 4.625 0.0625 4.625 -1 7 C-2.65 7 -4.3 7 -6 7 C-4.02 4.69 -2.04 2.38 0 0 Z " fill="#2B353C" transform="translate(548,713)"/>
<path d="M0 0 C0 3 0 3 -2.5 5.6875 C-3.325 6.450625 -4.15 7.21375 -5 8 C-5.99 7.67 -6.98 7.34 -8 7 C-5.36 4.69 -2.72 2.38 0 0 Z " fill="#293337" transform="translate(502,447)"/>
<path d="M0 0 C0.99 0.33 1.98 0.66 3 1 C1.35 2.98 -0.3 4.96 -2 7 C-2.99 6.67 -3.98 6.34 -5 6 C-3.35 4.02 -1.7 2.04 0 0 Z " fill="#272F34" transform="translate(627,253)"/>
<path d="M0 0 C0 0.99 0 1.98 0 3 C-2.8125 5.75 -2.8125 5.75 -6 8 C-6.99 7.67 -7.98 7.34 -9 7 C-6.03 4.69 -3.06 2.38 0 0 Z " fill="#232C35" transform="translate(273,153)"/>
<path d="M0 0 C0.66 0.33 1.32 0.66 2 1 C0.90716423 2.03295436 -0.19970579 3.05107835 -1.3125 4.0625 C-1.92738281 4.63097656 -2.54226563 5.19945312 -3.17578125 5.78515625 C-3.77777344 6.18605469 -4.37976563 6.58695313 -5 7 C-5.99 6.67 -6.98 6.34 -8 6 C-5.36 4.02 -2.72 2.04 0 0 Z " fill="#202C33" transform="translate(751,726)"/>
<path d="M0 0 C0.33 0.99 0.66 1.98 1 3 C-0.65 4.32 -2.3 5.64 -4 7 C-4.66 6.67 -5.32 6.34 -6 6 C-4.02 4.02 -2.04 2.04 0 0 Z " fill="#283037" transform="translate(564,697)"/>
<path d="M0 0 C1.46534385 3.80989402 0.55203911 6.3241179 -1 10 C-1.99 10.495 -1.99 10.495 -3 11 C-2.32829194 7.1936543 -1.27253436 3.64793184 0 0 Z " fill="#2A363C" transform="translate(482,471)"/>
<path d="M0 0 C1.24675325 4.98701299 1.24675325 4.98701299 0 8 C-0.99 8.33 -1.98 8.66 -3 9 C-2.01 6.03 -1.02 3.06 0 0 Z " fill="#2A353B" transform="translate(330,336)"/>
</svg>
