<?xml version="1.0" encoding="UTF-8"?>
<svg version="1.1" xmlns="http://www.w3.org/2000/svg" width="1024" height="1024">
<path d="M0 0 C337.92 0 675.84 0 1024 0 C1024 337.92 1024 675.84 1024 1024 C686.08 1024 348.16 1024 0 1024 C0 686.08 0 348.16 0 0 Z " fill="#E9EAE7" transform="translate(0,0)"/>
<path d="M0 0 C0.00586624 1.20030853 0.01173248 2.40061707 0.01777649 3.63729858 C0.07531754 15.02211477 0.1482391 26.40674568 0.23571491 37.7913723 C0.28019224 43.64247602 0.31949655 49.49351372 0.34643555 55.34472656 C0.37269649 61.00535413 0.41325491 66.66572447 0.46318626 72.32619095 C0.47970244 74.47158196 0.49131057 76.61701729 0.49761391 78.76246262 C0.53562838 90.52630594 1.07324967 101.74364879 3.36174011 113.29971313 C3.93630164 116.63071125 4.12335595 119.6314164 4 123 C4.69480469 122.69707031 5.38960937 122.39414062 6.10546875 122.08203125 C13.12490009 119.19063051 20.13061505 117.04205063 27.5 115.25 C28.76106567 114.93446167 28.76106567 114.93446167 30.04760742 114.61254883 C37.18477332 112.93929438 43.4702759 112.57920955 51 112 C51 92.53 51 73.06 51 53 C64.53 53 78.06 53 92 53 C92 72.47 92 91.94 92 112 C97.94 112.495 97.94 112.495 104 113 C113.51948051 114.56008188 122.76431467 117.26144745 132 120 C134.33198414 120.67149556 136.66585051 121.33605103 139 122 C139.12846313 121.06148193 139.12846313 121.06148193 139.25952148 120.10400391 C139.64853518 117.27715353 140.0429495 114.45108268 140.4375 111.625 C140.57220703 110.64015625 140.70691406 109.6553125 140.84570312 108.640625 C140.97783203 107.69960938 141.10996094 106.75859375 141.24609375 105.7890625 C141.36654053 104.91975098 141.4869873 104.05043945 141.61108398 103.15478516 C142 101 142 101 143 99 C143.12307114 95.91893672 143.18581075 92.85906042 143.20532227 89.77685547 C143.21522186 88.8207135 143.22512146 87.86457153 143.23532104 86.87945557 C143.2669912 83.70872501 143.29171527 80.53797946 143.31640625 77.3671875 C143.33697101 75.1728577 143.35796735 72.9785319 143.37937927 70.78421021 C143.43464927 65.00070432 143.48403679 59.21716239 143.53222656 53.43359375 C143.58240565 47.53512351 143.63811044 41.63670579 143.69335938 35.73828125 C143.80100121 24.158899 143.90243277 12.57947121 144 1 C145.44345926 1.15487538 146.88675156 1.31130745 148.32997131 1.46839905 C149.13372224 1.55534562 149.93747316 1.64229219 150.76558018 1.73187351 C176.07250946 4.76866096 201.04799717 16.65352795 223 29 C223.9600293 29.53544434 224.92005859 30.07088867 225.90917969 30.62255859 C230.60328814 33.24564664 235.28714025 35.88676032 239.94921875 38.56640625 C241.05269653 39.19977905 241.05269653 39.19977905 242.1784668 39.84594727 C244 41 244 41 246 43 C245.72292314 47.06525902 244.4625038 49.02943356 241.60107422 51.8371582 C240.52392654 52.90901115 240.52392654 52.90901115 239.42501831 54.0025177 C238.64280914 54.76094467 237.86059998 55.51937164 237.0546875 56.30078125 C236.2514505 57.09598679 235.4482135 57.89119232 234.62063599 58.710495 C232.04802746 61.25410343 229.46220406 63.78374616 226.875 66.3125 C224.31178458 68.83301125 221.75144948 71.35637925 219.19363403 73.88237 C217.60234138 75.45221866 216.00754613 77.01852774 214.40866089 78.5806427 C210.31457098 82.60259388 206.44176977 86.72011853 202.70050049 91.07093811 C199.85813561 94.29534045 196.80459773 97.29863256 193.74609375 100.31640625 C193.08215103 100.97656235 192.41820831 101.63671844 191.73414612 102.31687927 C189.63771013 104.40123427 187.53804199 106.48228349 185.4375 108.5625 C182.66238958 111.31082548 179.89074163 114.06257711 177.12109375 116.81640625 C176.49593369 117.43326797 175.87077362 118.0501297 175.22666931 118.6856842 C171.26396323 122.62648636 167.58844925 126.7147778 164 131 C164.60884033 131.35191406 165.21768066 131.70382812 165.8449707 132.06640625 C179.34598625 139.89293385 192.29892661 147.59904588 204 158 C206.95152649 156.66963407 209.03014872 155.21874359 211.31225586 152.93066406 C211.93647934 152.30951721 212.56070282 151.68837036 213.20384216 151.04840088 C213.86747269 150.37758484 214.53110321 149.7067688 215.21484375 149.015625 C215.90759903 148.3224115 216.60035431 147.629198 217.31410217 146.91497803 C218.77809965 145.44796195 220.23966839 143.97851869 221.69897461 142.50683594 C223.92059 140.26704832 226.15001814 138.03528232 228.38085938 135.8046875 C229.80515857 134.37546929 231.22900158 132.9457963 232.65234375 131.515625 C233.31395004 130.85290588 233.97555634 130.19018677 234.6572113 129.50738525 C238.31284275 125.81457929 241.73746261 122.04509362 245 118 C251.74080425 123.52650334 257.8071129 129.69449559 263.9375 135.875 C265.01343727 136.95596274 266.08960731 138.03669383 267.16601562 139.1171875 C269.78003292 141.74212641 272.39088596 144.37018628 275 147 C273.36743754 151.18167326 270.2913425 153.94467643 267.14453125 157.015625 C266.56466965 157.59028503 265.98480804 158.16494507 265.38737488 158.75701904 C263.5337814 160.59284019 261.6736614 162.42185415 259.8125 164.25 C257.37810819 166.64761852 254.94694493 169.0484417 252.51953125 171.453125 C251.93857697 172.02848999 251.35762268 172.60385498 250.75906372 173.19665527 C247.1268104 176.81601875 243.6387636 180.51171676 240.33862305 184.44042969 C238.9634343 186.04260108 237.51036267 187.52557844 236 189 C237.47748297 192.34138457 239.39832083 194.70979106 241.8125 197.4375 C248.89166581 205.92098814 254.33241002 215.54473318 260 225 C260.99996041 226.66669042 261.99995553 228.33336001 263 230 C270.90131707 222.88852688 278.54648696 215.57771063 286.02301407 208.02158546 C287.7438877 206.28295482 289.46859506 204.54820613 291.19430542 202.81437683 C296.0896659 197.89484658 300.97892113 192.96927861 305.86425781 188.03979492 C308.87592325 185.00143927 311.89237039 181.9679004 314.91186142 178.93732262 C316.05646776 177.78650404 317.19917253 176.63379094 318.33993912 175.47916603 C319.92153159 173.87847903 321.50907712 172.28393521 323.09814453 170.69067383 C323.99904816 169.78231277 324.89995178 168.87395172 325.82815552 167.93806458 C328 166 328 166 330 166 C330.26119629 165.41049561 330.52239258 164.82099121 330.79150391 164.21362305 C332.88123703 160.385823 336.20064838 157.74937645 339.375 154.8125 C340.04789063 154.17119141 340.72078125 153.52988281 341.4140625 152.86914062 C342.06890625 152.25876953 342.72375 151.64839844 343.3984375 151.01953125 C344.29054932 150.18578979 344.29054932 150.18578979 345.20068359 149.33520508 C347.15024114 147.8885117 348.66982728 147.55328443 351 147 C351.33 146.34 351.66 145.68 352 145 C352.24492188 145.53625 352.48984375 146.0725 352.7421875 146.625 C355.44874262 152.2994328 358.56288419 157.58323115 361.9375 162.875 C374.89847491 183.36514245 392 216.10243356 392 241 C390.98015518 241.00586624 389.96031036 241.01173248 388.90956116 241.01777649 C379.27313752 241.07512351 369.63693696 241.14794737 360.000741 241.23571491 C355.04730435 241.28033961 350.09394844 241.31961302 345.14038086 241.34643555 C340.3550858 241.37254749 335.5701028 241.41300533 330.78500175 241.46318626 C328.96431819 241.47980175 327.14358071 241.49134901 325.32283211 241.49761391 C322.76184921 241.5073132 320.20165518 241.53544061 317.64086914 241.56762695 C316.89711533 241.56619186 316.15336151 241.56475677 315.3870697 241.5632782 C309.81363569 241.66159808 305.19715478 243.06762603 300 245 C298.68364119 245.42369292 297.36499165 245.8404194 296.04296875 246.24609375 C295.09454102 246.53963745 295.09454102 246.53963745 294.12695312 246.83911133 C293.48693359 247.03657959 292.84691406 247.23404785 292.1875 247.4375 C285.42752456 249.53517484 278.70347053 251.72742192 272 254 C272.17128418 254.54301758 272.34256836 255.08603516 272.51904297 255.64550781 C276.69014047 268.95584325 280 280.93234733 280 295 C299.8 295 319.6 295 340 295 C340 308.86 340 322.72 340 337 C320.2 337 300.4 337 280 337 C279.67 342.61 279.34 348.22 279 354 C278.08812274 358.60990583 277.13426382 363.03923258 275.9375 367.5625 C275.65583984 368.67818359 275.37417969 369.79386719 275.08398438 370.94335938 C274.40298144 373.63274385 273.70847638 376.31774917 273 379 C273.77053711 379.18755859 274.54107422 379.37511719 275.33496094 379.56835938 C281.36440523 381.05281791 287.33417031 382.61326419 293.25 384.5 C293.89195312 384.69980469 294.53390625 384.89960937 295.1953125 385.10546875 C300.37988072 386.73996114 300.37988072 386.73996114 302.82710266 387.76617146 C307.83868169 389.86251125 312.12653062 390.4427439 317.52734375 390.43237305 C318.33805832 390.4425647 319.14877289 390.45275635 319.98405457 390.46325684 C322.6352751 390.49319364 325.28613322 390.50262291 327.9375 390.51171875 C329.78695864 390.5285798 331.63640593 390.54673195 333.48583984 390.56611633 C338.33217824 390.61346765 343.17847056 390.64337299 348.02496338 390.66955566 C352.97897436 390.69943645 357.93282683 390.74594086 362.88671875 390.79101562 C372.59106266 390.87687945 382.29543934 390.94429975 392 391 C391.37133445 393.70310504 390.74077106 396.4057442 390.10913086 399.1081543 C389.84490452 400.24558704 389.84490452 400.24558704 389.57534027 401.40599823 C388.12251191 407.61135045 386.4486674 413.72404669 384.5625 419.8125 C384.25666992 420.80185547 383.95083984 421.79121094 383.63574219 422.81054688 C381.46125738 429.73871614 379.09033906 436.42155547 376 443 C375.60232422 443.85658203 375.20464844 444.71316406 374.79492188 445.59570312 C373.37304792 448.65182197 371.93913433 451.70197261 370.5 454.75 C370.0369043 455.73355469 369.57380859 456.71710938 369.09667969 457.73046875 C366.38253404 463.40112883 363.43587852 468.73913851 360 474 C358.93146386 475.74632092 357.86790303 477.49571077 356.8125 479.25 C356.07966797 480.46429687 356.07966797 480.46429687 355.33203125 481.703125 C354.13398001 483.76897288 353.03994738 485.85110398 352 488 C347.30809002 487.14313962 344.92230292 484.21817638 341.75 480.875 C338.45204709 477.44195022 335.16347991 474.0942583 331.52441406 471.02001953 C326.36834433 466.53393631 321.57923946 461.69188368 316.76849365 456.84365845 C315.0878576 455.15007138 313.40395371 453.45979223 311.71923828 451.77026367 C307.53861989 447.57638982 303.3635102 443.37704601 299.18823242 439.17785645 C295.64814283 435.61792169 292.10593278 432.06012179 288.56097412 428.5050354 C286.91501894 426.85267468 285.27214355 425.19729535 283.62939453 423.54174805 C276.7413695 416.61989543 269.70301832 410.01798306 262 404 C261.76410156 404.80179688 261.52820313 405.60359375 261.28515625 406.4296875 C259.68613726 410.87194694 257.63140476 414.95059078 255.4375 419.125 C254.99712402 419.96377686 254.55674805 420.80255371 254.10302734 421.66674805 C250.86027412 427.7026778 247.29496575 433.10204462 243.0078125 438.45703125 C240.85049809 441.1893497 238.93108734 444.10336898 237 447 C249.54 459.54 262.08 472.08 275 485 C273.12674251 488.74651498 271.82985105 490.04408616 268.67578125 492.55078125 C266.9218219 494.06760857 265.49335037 495.66438273 264 497.4375 C260.41102975 501.64218524 256.57687597 505.57558016 252.6875 509.5 C252.06423828 510.13607178 251.44097656 510.77214355 250.79882812 511.42749023 C250.20908203 512.01860596 249.61933594 512.60972168 249.01171875 513.21875 C248.48022217 513.75435547 247.94872559 514.28996094 247.40112305 514.84179688 C246 516 246 516 244 516 C242.79858398 514.77734375 242.79858398 514.77734375 241.30859375 512.9375 C235.31879155 505.89323172 228.61679402 499.51229455 222.0625 493 C220.69703255 491.63955682 219.33179614 490.27888169 217.96679688 488.91796875 C214.64719114 485.6092969 211.32446727 482.30378678 208 479 C204.53953319 480.63670727 202.16526294 482.54720233 199.375 485.1875 C192.02370014 491.89769813 183.88628171 497.13004573 175.5 502.4375 C174.79278809 502.88730225 174.08557617 503.33710449 173.35693359 503.80053711 C168.2370479 507 168.2370479 507 166 507 C170.59693609 512.3841379 175.37062343 517.49379927 180.41992188 522.45410156 C181.12480743 523.15110168 181.82969299 523.84810181 182.55593872 524.56622314 C184.07119753 526.06441205 185.58750822 527.56153773 187.1047821 529.05768585 C190.32817467 532.23876911 193.5420558 535.42939033 196.75656891 538.61944199 C202.72916476 544.54637479 208.7056468 550.46925918 214.69824219 556.37597656 C218.87968199 560.49821633 223.04897075 564.63240119 227.21034241 568.77489471 C228.79755842 570.35033863 230.38930787 571.92122851 231.98558044 573.48749542 C234.20702963 575.66818388 236.41268695 577.86372242 238.61523438 580.06347656 C239.28108551 580.70978027 239.94693665 581.35608398 240.63296509 582.02197266 C241.2272934 582.62172913 241.8216217 583.2214856 242.43395996 583.8394165 C242.95674278 584.35629154 243.4795256 584.87316658 244.01815033 585.4057045 C245 587 245 587 244.78830719 589.09499741 C243.62315288 591.91067893 241.84429048 592.70542243 239.25 594.25 C238.2496875 594.85457031 237.249375 595.45914063 236.21875 596.08203125 C234.62546875 597.03142578 234.62546875 597.03142578 233 598 C231.9790625 598.64324219 230.958125 599.28648437 229.90625 599.94921875 C212.49145677 610.91967636 194.02044419 620.15923032 174.5 626.75 C173.36570557 627.1358728 173.36570557 627.1358728 172.20849609 627.52954102 C166.09064315 629.51471671 159.87437796 631.0605341 153.63476562 632.60644531 C152.24345428 632.95263412 152.24345428 632.95263412 150.82403564 633.30581665 C148.54961352 633.8715851 146.27493124 634.43628282 144 635 C143.99413376 633.88294678 143.98826752 632.76589355 143.98222351 631.61499023 C143.92470353 621.02421336 143.85179245 610.43363607 143.76428509 599.84306335 C143.7197918 594.39994828 143.6804908 588.95690445 143.65356445 583.51367188 C143.62731969 578.2485578 143.58677203 572.98372106 143.53681374 567.71878052 C143.52028683 565.72245771 143.50868523 563.72608709 143.50238609 561.72970581 C143.46527562 551.03725963 143.029014 540.96550488 140.63825989 530.51879883 C139.91956935 526.55657676 139.89624552 523.0183509 140 519 C138.89527344 519.38671875 137.79054688 519.7734375 136.65234375 520.171875 C127.42789208 523.29659395 118.29348263 525.72583812 108.6875 527.375 C107.71611084 527.54225586 106.74472168 527.70951172 105.74389648 527.88183594 C101.00682235 528.65155358 96.86030609 529 92 529 C92 547.81 92 566.62 92 586 C78.47 586 64.94 586 51 586 C51 567.19 51 548.38 51 529 C48.69 529 46.38 529 44 529 C41.42682197 528.68726834 38.92141811 528.33018794 36.375 527.875 C35.66077881 527.74883301 34.94655762 527.62266602 34.21069336 527.49267578 C12.99801575 523.49900787 12.99801575 523.49900787 4 519 C3.92652344 520.18142578 3.92652344 520.18142578 3.8515625 521.38671875 C3.77679688 522.47597656 3.70203125 523.56523438 3.625 524.6875 C3.55539062 525.74324219 3.48578125 526.79898438 3.4140625 527.88671875 C3.22987198 530.12651534 2.94760347 532.28192809 2.53662109 534.49328613 C0.59186864 545.09961916 0.64869172 555.64369383 0.5859375 566.39453125 C0.56719272 568.43862155 0.54761694 570.48270438 0.5272522 572.52677917 C0.47627432 577.86458907 0.43646642 583.20242396 0.39910889 588.54034424 C0.35885201 594.00417081 0.30785942 599.46789651 0.2578125 604.93164062 C0.16146073 615.62102254 0.07692762 626.31046187 0 637 C-0.33 636.34 -0.66 635.68 -1 635 C-3.01421364 634.54061794 -5.03097184 634.09130907 -7.0546875 633.67578125 C-35.76769747 627.08778294 -64.64339594 614.4724391 -89.0625 598 C-90.04347656 597.34 -91.02445313 596.68 -92.03515625 596 C-93.01355469 595.34 -93.99195313 594.68 -95 594 C-96.9984249 592.66428596 -98.99907447 591.33196826 -101 590 C-100.55928661 585.14505328 -98.56790475 583.08723434 -95.15234375 579.7265625 C-94.66222305 579.23972992 -94.17210236 578.75289734 -93.66712952 578.25131226 C-92.09972887 576.69961093 -90.51874868 575.16257311 -88.9375 573.625 C-87.90082882 572.59983118 -86.86501269 571.57379695 -85.83007812 570.546875 C-81.75018779 566.52094114 -77.66814694 562.55707364 -73.31665039 558.82543945 C-68.01744387 554.2189435 -63.1051122 549.22978599 -58.15625 544.25390625 C-57.13657291 543.23235953 -56.11667144 542.21103674 -55.09655762 541.18992615 C-52.43774939 538.52733563 -49.78196042 535.86175401 -47.12683105 533.19549561 C-44.40671607 530.46507329 -41.68369815 527.73754926 -38.9609375 525.00976562 C-33.63781137 519.675978 -28.31787782 514.33902084 -23 509 C-25.96654194 505.85580074 -29.40726669 503.88976511 -33.125 501.75 C-39.12506079 498.21655941 -44.64772523 494.46942532 -50 490 C-51.0694597 489.13696299 -52.13984063 488.27506681 -53.2109375 487.4140625 C-54.32876723 486.50599835 -55.44595849 485.59714766 -56.5625 484.6875 C-57.10028076 484.25445557 -57.63806152 483.82141113 -58.19213867 483.37524414 C-59.49979932 482.29500273 -60.75520435 481.15212051 -62 480 C-62 479.34 -62 478.68 -62 478 C-66.38082279 480.34004485 -69.69001617 483.4137675 -73.1484375 486.91796875 C-73.72405426 487.49404373 -74.29967102 488.07011871 -74.89273071 488.66365051 C-76.10697164 489.88090304 -77.31879077 491.10057562 -78.52832031 492.32250977 C-80.35697736 494.16929866 -82.19338384 496.00808346 -84.03125 497.84570312 C-89.89197607 503.72467107 -95.68512242 509.61351485 -101 516 C-107.10361414 510.95411445 -112.78165196 505.50367537 -118.40966797 499.94042969 C-119.47896728 498.88787408 -120.55362613 497.84073837 -121.63330078 496.79882812 C-123.20519359 495.28139982 -124.76026348 493.7484356 -126.3125 492.2109375 C-127.23675781 491.30649902 -128.16101563 490.40206055 -129.11328125 489.47021484 C-131 487 -131 487 -130.83155823 485.08053589 C-129.8132636 482.53279065 -128.53160629 481.17064873 -126.58178711 479.24121094 C-125.86111557 478.52076599 -125.14044403 477.80032104 -124.39793396 477.05804443 C-123.61563919 476.29123352 -122.83334442 475.52442261 -122.02734375 474.734375 C-121.22970108 473.94097717 -120.43205841 473.14757935 -119.61024475 472.33013916 C-117.05961153 469.79630602 -114.49874774 467.27309895 -111.9375 464.75 C-110.20699858 463.0345436 -108.4771722 461.31840595 -106.74804688 459.6015625 C-102.50650094 455.39310357 -98.25650702 451.19332349 -94 447 C-95.797875 443.24850474 -98.09985613 440.02425637 -100.5625 436.6875 C-119 411.28787047 -119 411.28787047 -119 404 C-119.66 404 -120.32 404 -121 404 C-121 404.66 -121 405.32 -121 406 C-122.45185852 407.43185425 -122.45185852 407.43185425 -124.4699707 409.10107422 C-129.03423773 412.98484506 -133.25950957 417.1320297 -137.48046875 421.3828125 C-138.25634842 422.16010712 -139.03222809 422.93740173 -139.83161926 423.73825073 C-142.28596156 426.19813896 -144.73679082 428.66149275 -147.1875 431.125 C-148.84286545 432.78538908 -150.4984624 434.44554741 -152.15429688 436.10546875 C-155.84462549 439.80568153 -159.5323529 443.50847026 -163.21903992 447.21231079 C-164.76727785 448.76639853 -166.3173989 450.3185529 -167.86914062 451.86914062 C-169.31055878 453.31055878 -170.74596089 454.75801412 -172.17578125 456.2109375 C-175.60385904 459.68288466 -179.03098449 463.08922995 -182.75 466.25 C-186.5849029 469.54368677 -190.17134599 473.05830807 -193.75 476.625 C-194.30526367 477.17575195 -194.86052734 477.72650391 -195.43261719 478.29394531 C-197.85984447 480.72998286 -200.08844263 483.11384637 -202.203125 485.8359375 C-204 488 -204 488 -207 489 C-207.50789063 488.16597656 -208.01578125 487.33195312 -208.5390625 486.47265625 C-209.57160156 484.78462891 -209.57160156 484.78462891 -210.625 483.0625 C-211.17522827 482.16072021 -211.17522827 482.16072021 -211.73657227 481.24072266 C-213.70477272 478.03439829 -215.73815691 474.929299 -217.9375 471.875 C-222.91757989 464.479109 -226.3527864 456.10578763 -230 448 C-230.35916504 447.20706543 -230.71833008 446.41413086 -231.08837891 445.59716797 C-236.43396882 433.69748445 -240.68661548 421.62113027 -244 409 C-244.20012695 408.23977539 -244.40025391 407.47955078 -244.60644531 406.69628906 C-244.79045898 405.9431543 -244.97447266 405.19001953 -245.1640625 404.4140625 C-245.40697021 403.42720459 -245.40697021 403.42720459 -245.65478516 402.42041016 C-246.15156576 398.93732465 -246.0197231 395.5182169 -246 392 C-244.55753151 391.99120064 -244.55753151 391.99120064 -243.08592224 391.98222351 C-234.00807923 391.92492506 -224.93047413 391.85212631 -215.8528738 391.76428509 C-211.18635738 391.71962317 -206.51992742 391.68035787 -201.85327148 391.65356445 C-197.34677993 391.62748974 -192.84062184 391.58705795 -188.33433723 391.53681374 C-186.61806459 391.52017317 -184.9017343 391.50864142 -183.18539238 391.50238609 C-180.77485353 391.49271423 -178.3651624 391.46461931 -175.95483398 391.43237305 C-174.89854797 391.43452568 -174.89854797 391.43452568 -173.82092285 391.4367218 C-168.78009951 391.34181258 -165.45656135 390.14945036 -161 388 C-150.83371581 384.27664218 -140.52948292 381.47671149 -130 379 C-130.5773316 374.63188732 -131.32002687 370.40161152 -132.375 366.125 C-133.63545076 360.77274111 -134.71822134 355.41093107 -135.6875 350 C-135.81882324 349.28215332 -135.95014648 348.56430664 -136.08544922 347.82470703 C-136.73761487 344.10517435 -137 340.80765188 -137 337 C-156.47 337 -175.94 337 -196 337 C-196 323.14 -196 309.28 -196 295 C-176.2 295 -156.4 295 -136 295 C-136 291.7 -136 288.4 -136 285 C-135.58862305 282.11157227 -135.58862305 282.11157227 -135.01171875 279.81640625 C-134.80119873 278.95619873 -134.59067871 278.09599121 -134.3737793 277.2097168 C-134.03407104 275.89934448 -134.03407104 275.89934448 -133.6875 274.5625 C-133.4603833 273.64960205 -133.2332666 272.7367041 -132.99926758 271.79614258 C-131.4238528 265.50736456 -129.79462123 259.23010784 -128 253 C-129.03125 252.938125 -130.0625 252.87625 -131.125 252.8125 C-136.47021397 252.15259704 -141.28813454 250.20773824 -146.3125 248.33984375 C-150.94627776 246.65617238 -155.6355296 245.21693067 -160.35546875 243.796875 C-162.24604782 243.22718796 -164.12678104 242.62440632 -166 242 C-168.63045691 241.88019271 -171.23645893 241.81471184 -173.86791992 241.79467773 C-174.66815079 241.78477814 -175.46838165 241.77487854 -176.29286194 241.76467896 C-178.93870075 241.73308397 -181.58455752 241.70831442 -184.23046875 241.68359375 C-186.06464607 241.6630225 -187.89881867 241.64202598 -189.73298645 241.62062073 C-194.5613116 241.56541777 -199.38967942 241.51600063 -204.21807861 241.46777344 C-209.14477334 241.41754548 -214.07140609 241.36186616 -218.99804688 241.30664062 C-228.66531164 241.19908076 -238.33263022 241.09763093 -248 241 C-247.54437166 238.46174876 -247.08340014 235.92465935 -246.61938477 233.38793945 C-246.49230385 232.67682259 -246.36522293 231.96570572 -246.23429108 231.23303986 C-245.07330445 224.92583829 -243.2019765 219.02076058 -241 213 C-240.27089882 210.89235446 -239.54306107 208.78427148 -238.81640625 206.67578125 C-238.06660085 204.55415796 -237.31529398 202.43306472 -236.5625 200.3125 C-236.00852539 198.71825195 -236.00852539 198.71825195 -235.44335938 197.09179688 C-233.151017 190.65178477 -230.44390647 184.88850196 -227 179 C-226.02555134 177.20038775 -225.05845005 175.39678307 -224.09765625 173.58984375 C-223.59943359 172.66236328 -223.10121094 171.73488281 -222.58789062 170.77929688 C-221.57020644 168.88335514 -220.55718646 166.98490247 -219.54882812 165.08398438 C-216.79844008 159.9842326 -213.92229508 155.2807095 -210.29467773 150.75610352 C-208.94086516 148.91978938 -207.96228809 147.06439581 -207 145 C-199.36128497 151.41301863 -192.44119164 158.49079624 -185.44921875 165.58984375 C-183.19999487 167.80319484 -180.89061712 169.87938069 -178.5 171.9375 C-174.95191109 175.058883 -172.01936886 178.36127343 -169 182 C-167.83458156 183.04678936 -166.65000443 184.07243108 -165.45263672 185.08251953 C-160.50539049 189.3637338 -155.92204412 193.9704912 -151.3203125 198.6171875 C-150.42633759 199.51494904 -149.53236267 200.41271057 -148.61129761 201.337677 C-145.78008209 204.18102785 -142.95205831 207.02751757 -140.125 209.875 C-136.38060559 213.64622689 -132.63264673 217.4138674 -128.8828125 221.1796875 C-128.02140656 222.04939178 -127.16000061 222.91909607 -126.27249146 223.81515503 C-125.47761322 224.61333649 -124.68273499 225.41151794 -123.86376953 226.23388672 C-123.1639798 226.93891327 -122.46419006 227.64393982 -121.74319458 228.37033081 C-120.08349363 230.07664304 -120.08349363 230.07664304 -118 231 C-117.77054688 230.19433594 -117.54109375 229.38867188 -117.3046875 228.55859375 C-115.67175716 224.10470292 -113.49466045 220.16214525 -111.125 216.0625 C-110.41102051 214.81811157 -110.41102051 214.81811157 -109.68261719 213.54858398 C-105.88516669 207.10908013 -101.57170436 201.31896416 -96.62158203 195.72094727 C-94.95842034 193.8461409 -94.95842034 193.8461409 -93 191 C-93.30913882 187.71648663 -94.55524307 186.07792201 -96.86401367 183.8112793 C-97.4652153 183.21353195 -98.06641693 182.61578461 -98.68583679 181.99992371 C-99.66699211 181.04669975 -99.66699211 181.04669975 -100.66796875 180.07421875 C-101.34040115 179.40840286 -102.01283356 178.74258698 -102.7056427 178.05659485 C-104.85928774 175.92635577 -107.02279813 173.80649753 -109.1875 171.6875 C-111.33265393 169.57757978 -113.47560453 167.46549094 -115.61579895 165.35054016 C-116.94708401 164.03602349 -118.2814514 162.72461838 -119.61943054 161.41691589 C-123.64933628 157.4507519 -127.37422006 153.33972182 -131 149 C-129.1068216 144.87609601 -126.32174632 142.06719396 -123.1171875 138.921875 C-122.54292023 138.35043762 -121.96865295 137.77900024 -121.37698364 137.19024658 C-119.5476419 135.37207055 -117.71145807 133.56098508 -115.875 131.75 C-114.63105226 130.51608671 -113.3875573 129.28171678 -112.14453125 128.046875 C-109.10157633 125.02593257 -106.05246746 122.01132908 -103 119 C-99.11611344 120.5818384 -96.49833938 123.22809853 -93.60546875 126.1640625 C-92.83980339 126.93041519 -92.83980339 126.93041519 -92.05867004 127.71224976 C-90.97968943 128.79424592 -89.90313476 129.87866599 -88.82885742 130.96533203 C-87.20858205 132.60368276 -85.58063068 134.23406937 -83.95117188 135.86328125 C-78.95596991 140.87635214 -74.03336378 145.91201108 -69.48730469 151.34326172 C-66.91609002 154.20738889 -63.9776202 156.56928964 -61 159 C-59.96166016 158.09121094 -59.96166016 158.09121094 -58.90234375 157.1640625 C-47.47107995 147.37444265 -35.10721797 139.37128459 -22 132 C-22.47693554 127.70758018 -24.99254271 125.905242 -28 123 C-28.85939178 122.14282883 -29.71878357 121.28565765 -30.60421753 120.4025116 C-31.53130524 119.47844009 -32.45839294 118.55436859 -33.41357422 117.60229492 C-38.6679494 112.36427078 -43.9197714 107.12369454 -49.17014885 101.88166332 C-52.33720425 98.71982466 -55.50518854 95.55892838 -58.67529297 92.40014648 C-61.75666226 89.32970666 -64.83552429 86.25677253 -67.91272354 83.1821537 C-69.07830322 82.0184072 -70.24475561 80.85553405 -71.41213608 79.69359398 C-76.99014202 74.14056354 -82.5111171 68.58879093 -87.62677002 62.59907532 C-89.3229217 60.62396967 -91.11614584 58.76983775 -92.96484375 56.9375 C-93.94614258 55.96103516 -93.94614258 55.96103516 -94.94726562 54.96484375 C-95.60404297 54.31644531 -96.26082031 53.66804688 -96.9375 53 C-97.62134766 52.32066406 -98.30519531 51.64132813 -99.00976562 50.94140625 C-100.67087159 49.29191641 -102.33428513 47.6448332 -104 46 C-102.80454837 42.41364511 -102.17816353 42.28146266 -98.9375 40.625 C-95.94965831 39.0465176 -93.03561008 37.44396106 -90.1875 35.625 C-68.65398265 22 -68.65398265 22 -62 22 C-62 21.34 -62 20.68 -62 20 C-47.3515625 14.140625 -47.3515625 14.140625 -44.68066406 13.07397461 C-42.87895916 12.35214402 -41.07884595 11.62632898 -39.28027344 10.89672852 C-38.41176758 10.54537842 -37.54326172 10.19402832 -36.6484375 9.83203125 C-35.87419434 9.5172583 -35.09995117 9.20248535 -34.30224609 8.87817383 C-30.2742377 7.34172142 -26.14079881 6.18862244 -22 5 C-20.31227398 4.47989953 -18.62477302 3.95906817 -16.9375 3.4375 C-5.46710526 0 -5.46710526 0 0 0 Z " fill="#FDFDFD" transform="translate(440,197)"/>
<path d="M0 0 C1.27895142 -0.0092601 1.27895142 -0.0092601 2.58374023 -0.01870728 C13.98988237 -0.07175719 24.55855278 0.8678733 35.6875 3.4375 C36.69868896 3.66703369 37.70987793 3.89656738 38.75170898 4.13305664 C49.98499375 6.8120586 60.59417199 10.09763993 70.83496094 15.47363281 C72.81444221 16.50354742 74.81478682 17.48279089 76.8203125 18.4609375 C86.68594669 23.36565698 95.36032508 29.24163154 103.97900391 36.08740234 C105.44148846 37.24309534 106.92753856 38.36885943 108.41796875 39.48828125 C125.35762167 52.39336757 138.92638233 69.1702273 149.6875 87.4375 C150.29658203 88.46689697 150.29658203 88.46689697 150.91796875 89.51708984 C170.06162373 122.42208758 176.30178454 160.97050843 169.6875 198.4375 C169.50445313 199.62214844 169.32140625 200.80679688 169.1328125 202.02734375 C163.82142075 232.74817134 148.27790962 261.36204095 127.6875 284.4375 C126.47895842 285.85398902 125.27059635 287.27063124 124.0625 288.6875 C100.22509113 315.553662 68.41782747 333.08030089 33.6875 341.4375 C32.69484131 341.68741699 32.69484131 341.68741699 31.68212891 341.94238281 C9.28673492 347.37668339 -17.18795775 346.32029832 -39.3125 340.4375 C-40.04098145 340.25558105 -40.76946289 340.07366211 -41.52001953 339.88623047 C-67.32281688 333.39346451 -90.40960409 321.00451738 -110.3125 303.4375 C-110.96234863 302.8712793 -111.61219727 302.30505859 -112.28173828 301.72167969 C-120.84547825 294.21171015 -128.33674069 286.35423434 -135.05371094 277.15234375 C-136.27520599 275.48830549 -137.52767515 273.85266109 -138.7890625 272.21875 C-165.84754199 236.55367923 -177.11817186 191.23765156 -171.13232422 146.98901367 C-168.3546476 128.91272835 -163.28775949 112.86750851 -155.3125 96.4375 C-154.82692627 95.43541504 -154.82692627 95.43541504 -154.33154297 94.41308594 C-133.79176014 52.66522028 -95.03197437 22.28802181 -51.43603516 7.31054688 C-48.09175183 6.23430336 -44.70963979 5.32965418 -41.3125 4.4375 C-40.6210791 4.24140137 -39.9296582 4.04530273 -39.21728516 3.84326172 C-26.28243491 0.27794239 -13.32340195 0.04108202 0 0 Z " fill="#010101" transform="translate(512.3125,345.5625)"/>
<path d="M0 0 C1.70974601 0.86560558 3.43662204 1.69712423 5.1640625 2.52685547 C13.82518793 6.86782819 20.72450046 12.38262041 27.7890625 18.90576172 C28.30355957 19.37111328 28.81805664 19.83646484 29.34814453 20.31591797 C49.77372374 38.93294859 63.85553831 65.79626519 66.07836914 93.51318359 C66.18869646 97.12856302 66.20630312 100.72649891 66.1640625 104.34326172 C66.15318604 105.61878906 66.14230957 106.89431641 66.13110352 108.20849609 C65.97929708 117.16793982 65.37940883 125.28663782 62.7890625 133.90576172 C62.56331543 134.69321777 62.33756836 135.48067383 62.10498047 136.29199219 C56.96735728 153.99708308 49.29794703 168.53616019 37.7890625 182.90576172 C37.12003906 183.77072266 36.45101562 184.63568359 35.76171875 185.52685547 C33.96605423 187.6923202 32.18013334 189.46704468 30.0390625 191.28076172 C27.97551461 193.03383085 25.92590787 194.77763261 23.94921875 196.62841797 C9.49794792 210.04090824 -10.01292463 218.24286813 -29.2109375 221.90576172 C-30.09523438 222.08163818 -30.97953125 222.25751465 -31.890625 222.4387207 C-61.26203946 227.87098313 -91.99934162 222.71349231 -116.96484375 206.06982422 C-123.48879154 201.47856193 -129.41666759 196.3786379 -135.2109375 190.90576172 C-136.44650391 189.78427734 -136.44650391 189.78427734 -137.70703125 188.64013672 C-149.04709029 177.95465207 -156.21269866 164.95375922 -162.3828125 150.80053711 C-163.16487259 149.01115964 -163.98179983 147.23713835 -164.80078125 145.46435547 C-166.43313801 141.34502859 -167.42346777 137.29336823 -168.3359375 132.96826172 C-168.50480469 132.20835937 -168.67367188 131.44845703 -168.84765625 130.66552734 C-175.30856408 100.87921603 -169.89449566 70.59450737 -154.234375 44.62841797 C-135.66140884 15.88101815 -108.28782335 -3.30725661 -74.81713867 -10.75927734 C-49.48542396 -15.61502568 -22.88265515 -11.64215939 0 0 Z " fill="#FCFCFC" transform="translate(564.2109375,412.09423828125)"/>
<path d="M0 0 C1.27056244 -0.00554901 2.54112488 -0.01109802 3.85018921 -0.01681519 C7.3234898 -0.03102597 10.79599518 -0.01404014 14.26921964 0.00946999 C17.90904475 0.02962229 21.54883825 0.02369724 25.18870544 0.0213623 C31.2992764 0.02141582 37.40953759 0.04114183 43.52001953 0.07324219 C50.57971912 0.11014933 57.63901333 0.11891495 64.69879681 0.11194468 C71.49798834 0.10563521 78.29704122 0.11640106 85.09620476 0.13591003 C87.98644935 0.14407429 90.87662297 0.14679539 93.76687813 0.1452179 C97.80312621 0.14417416 101.8388418 0.16837039 105.875 0.1953125 C107.0725441 0.1923819 108.2700882 0.18945129 109.50392151 0.18643188 C111.15460632 0.20345657 111.15460632 0.20345657 112.83863831 0.2208252 C113.79227548 0.22455391 114.74591265 0.22828262 115.72844791 0.23212433 C118.91921147 0.69439723 120.77914123 1.72289061 123.37280273 3.61523438 C125.41354467 6.67634729 125.62318577 7.27581789 125.62677002 10.71855164 C125.63522949 11.96951881 125.63522949 11.96951881 125.64385986 13.24575806 C125.63778717 14.61333755 125.63778717 14.61333755 125.6315918 16.00854492 C125.63684875 17.45296211 125.63684875 17.45296211 125.64221191 18.92655945 C125.65103274 22.11843014 125.64517647 25.31008006 125.63842773 28.50195312 C125.63977483 30.72052554 125.64171574 32.93909766 125.64422607 35.15766907 C125.64717827 39.81404422 125.64287863 44.47034273 125.63354492 49.12670898 C125.62218354 55.08402752 125.62868825 61.04116518 125.64068985 66.99847698 C125.64793418 71.58394215 125.64560812 76.16936483 125.64043427 80.75483131 C125.63910316 82.9503869 125.64072654 85.14594639 125.64539337 87.34149742 C125.65049713 90.41941838 125.64269281 93.49705153 125.6315918 96.57495117 C125.63564026 97.47654968 125.63968872 98.37814819 125.64385986 99.30706787 C125.60763572 104.7543709 124.86166943 109.37427855 123.37280273 114.61523438 C122.98832278 116.90201056 122.63180942 119.19375803 122.31030273 121.49023438 C121.48086725 127.39910534 121.48086725 127.39910534 120.37280273 129.61523438 C113.7011543 128.8759436 107.55126098 126.98310113 101.16577148 124.96289062 C91.85999751 122.16975485 83.29266328 121.18152815 73.37280273 119.61523438 C73.37280273 100.14523437 73.37280273 80.67523438 73.37280273 60.61523438 C59.84280273 60.61523438 46.31280273 60.61523438 32.37280273 60.61523438 C32.37280273 80.08523438 32.37280273 99.55523437 32.37280273 119.61523438 C24.78280273 120.93523437 17.19280273 122.25523437 9.37280273 123.61523438 C0.28985684 126.1953914 0.28985684 126.1953914 -8.70214844 129.0144043 C-10.66262898 129.62629302 -12.63337253 130.12470497 -14.62719727 130.61523438 C-17.81338233 114.41787745 -19.25344929 98.8445836 -19.22875977 82.35351562 C-19.23656313 80.13534738 -19.24523834 77.91718205 -19.25473022 75.69902039 C-19.2694703 71.10841032 -19.26919782 66.51810866 -19.25854492 61.92749023 C-19.24681686 56.04741259 -19.2812328 50.16856679 -19.32723427 44.28869343 C-19.35663852 39.73421381 -19.35846494 35.18003644 -19.35221481 30.62547874 C-19.35323951 28.45532933 -19.36368281 26.28516263 -19.38383865 24.11510658 C-19.40847148 21.10039324 -19.39506206 18.08815875 -19.37182617 15.07348633 C-19.38711365 14.18474319 -19.40240112 13.29600006 -19.41815186 12.38032532 C-19.34439397 8.05842005 -18.99939085 6.11856634 -16.36985779 2.56254578 C-11.53154491 -0.72098657 -5.61175853 -0.06225754 0 0 Z " fill="#030303" transform="translate(458.627197265625,189.384765625)"/>
<path d="M0 0 C1.88041878 -0.00456789 3.76083589 -0.00987527 5.64125061 -0.0158844 C9.56046384 -0.02477263 13.47947276 -0.02243718 17.39868164 -0.01245117 C22.42144818 -0.00089965 27.4435181 -0.02128869 32.4661932 -0.05036831 C36.3395077 -0.06869276 40.21265349 -0.06844653 44.08600044 -0.06273079 C45.93877714 -0.06257747 47.7915652 -0.06863038 49.64430046 -0.08102226 C52.22677834 -0.09587934 54.80794445 -0.08529923 57.39038086 -0.06811523 C58.15353104 -0.0777832 58.91668121 -0.08745117 59.70295715 -0.09741211 C62.98460035 -0.05162337 65.0184311 0.0878248 67.66803074 2.10477448 C69.92602353 5.01865168 69.97519256 6.53684161 69.98059082 10.19590759 C69.99187012 11.37216202 70.00314941 12.54841644 70.01477051 13.76031494 C70.00667358 15.04718201 69.99857666 16.33404907 69.99023438 17.65991211 C69.99565579 19.03168989 70.00277856 20.40346185 70.01147461 21.77522278 C70.02971081 25.49848858 70.02263907 29.22131105 70.00995827 32.94458461 C69.99982995 36.84202057 70.00922366 40.73941862 70.01550293 44.63685608 C70.02278072 51.18302218 70.0131892 57.72900779 69.99414062 64.27514648 C69.97238057 71.84039759 69.97941617 79.40521735 70.00144625 86.97045797 C70.01960745 93.4674158 70.02215482 99.96424388 70.01169157 106.46121889 C70.00545938 110.3408096 70.00461312 114.22019768 70.01783752 118.09977531 C70.02940573 121.74839744 70.02135336 125.39646452 69.9982605 129.04502678 C69.99046109 131.02045812 70.00232173 132.99593648 70.01477051 134.97134399 C69.99785156 136.73995537 69.99785156 136.73995537 69.98059082 138.54429626 C69.97908272 139.56690017 69.97757462 140.58950407 69.97602081 141.64309597 C69.33178838 145.21452174 68.03174611 146.89753137 65.47265625 149.43359375 C62.6324758 149.93884986 60.38547218 150.11901677 57.5456543 150.08056641 C56.74986465 150.089328 55.95407501 150.0980896 55.13417053 150.1071167 C52.50035137 150.12913515 49.8682117 150.11453495 47.234375 150.09765625 C45.39272237 150.10102736 43.55107192 150.10588244 41.70942688 150.1121521 C37.84147039 150.11952976 33.9740906 150.10880294 30.10620117 150.08544922 C25.1883569 150.05718052 20.27189027 150.07321893 15.35409832 150.10331154 C11.54374701 150.12154952 7.73371124 150.11554806 3.92334938 150.10267258 C2.11316574 150.09937236 0.30295199 150.10330429 -1.50719643 150.11507034 C-13.25832992 150.17461305 -22.57340127 148.78200642 -33.52734375 144.43359375 C-35.37229291 143.82860821 -37.22160327 143.2364509 -39.078125 142.66796875 C-39.87798828 142.41789063 -40.67785156 142.1678125 -41.50195312 141.91015625 C-43.11128374 141.4100134 -44.72066146 140.91002213 -46.33007812 140.41015625 C-47.11318359 140.16523437 -47.89628906 139.9203125 -48.703125 139.66796875 C-49.39317627 139.45366211 -50.08322754 139.23935547 -50.79418945 139.01855469 C-52.52734375 138.43359375 -52.52734375 138.43359375 -54.52734375 137.43359375 C-53.50168919 131.52099689 -52.36147696 125.65981759 -51.02734375 119.80859375 C-49.3913478 111.76494698 -48.48641566 103.58570496 -47.52734375 95.43359375 C-27.72734375 95.43359375 -7.92734375 95.43359375 12.47265625 95.43359375 C12.47265625 81.57359375 12.47265625 67.71359375 12.47265625 53.43359375 C-7.32734375 53.43359375 -27.12734375 53.43359375 -47.52734375 53.43359375 C-48.51734375 46.50359375 -49.50734375 39.57359375 -50.52734375 32.43359375 C-52.37180526 25.67056821 -54.31536086 19.06954241 -56.52734375 12.43359375 C-50.65081409 9.90499085 -44.69226097 7.77555403 -38.58984375 5.87109375 C-37.95884766 5.67362549 -37.32785156 5.47615723 -36.67773438 5.27270508 C-35.38920175 4.87632137 -34.09723132 4.49095045 -32.80215454 4.11650085 C-31.3214493 3.67198734 -29.85088969 3.19161365 -28.39523315 2.67089844 C-19.07488999 -0.37521359 -9.69184777 -0.02068172 0 0 Z " fill="#010101" transform="translate(767.52734375,438.56640625)"/>
<path d="M0 0 C0.82490433 -0.00846954 1.64980865 -0.01693909 2.49971008 -0.02566528 C5.23596521 -0.04911922 7.97165957 -0.05005438 10.70800781 -0.04882812 C12.61834944 -0.05593222 14.52868894 -0.06363159 16.43902588 -0.07189941 C20.45403958 -0.08536889 24.46885671 -0.08690531 28.48388672 -0.08105469 C33.59111608 -0.07520136 38.69738069 -0.10555575 43.80442429 -0.14617157 C47.75798485 -0.17224445 51.71132047 -0.17490754 55.66495514 -0.17127991 C57.5449386 -0.17295755 59.42493401 -0.18246727 61.30483246 -0.20042419 C73.24778659 -0.3018194 82.79743712 0.90189563 93.91113281 5.41992188 C95.43036758 5.94780129 96.95316379 6.4657115 98.48144531 6.96679688 C100.87776573 7.77785917 103.27358923 8.59039094 105.66894531 9.40429688 C108.41868883 10.26566231 111.07605209 10.92779466 113.91113281 11.41992188 C113.17017712 17.68890652 111.5895361 23.55275457 109.81542969 29.6015625 C107.58728263 37.6376124 106.98481563 44.83045932 105.91113281 53.41992188 C86.11113281 53.41992188 66.31113281 53.41992188 45.91113281 53.41992188 C45.91113281 67.27992188 45.91113281 81.13992188 45.91113281 95.41992188 C65.38113281 95.41992188 84.85113281 95.41992188 104.91113281 95.41992188 C106.56113281 104.65992188 108.21113281 113.89992188 109.91113281 123.41992188 C110.90113281 126.71992187 111.89113281 130.01992188 112.91113281 133.41992188 C112.58113281 135.06992187 112.25113281 136.71992187 111.91113281 138.41992188 C111.02929321 138.65328247 111.02929321 138.65328247 110.12963867 138.89135742 C107.36798925 139.62519406 104.60833738 140.3663062 101.84863281 141.10742188 C100.92501953 141.35169922 100.00140625 141.59597656 99.04980469 141.84765625 C94.86041001 142.97722 90.74420986 144.0968791 86.69403076 145.66741943 C76.22996337 149.66372726 66.76827669 150.14250152 55.64941406 150.04882812 C53.84197344 150.04965896 52.03453292 150.05212643 50.22709656 150.05613708 C46.47285742 150.05897123 42.7192229 150.0445138 38.96508789 150.0168457 C34.15535399 149.98249412 29.34668016 149.9888931 24.53689289 150.00750828 C20.81966791 150.01806453 17.10269044 150.00915758 13.38548851 149.99412346 C11.61087974 149.98894924 9.83624508 149.98941422 8.06163979 149.99566841 C5.59203659 150.00111484 3.12396905 149.98077608 0.65454102 149.95336914 C-0.07427277 149.95989502 -0.80308655 149.9664209 -1.5539856 149.97314453 C-4.76051533 149.91258881 -6.69208819 149.72225756 -9.27586174 147.75348663 C-11.55973938 144.81385047 -11.58932861 143.26401361 -11.59007263 139.56822205 C-11.59990677 138.37224899 -11.60974091 137.17627594 -11.61987305 135.94406128 C-11.61020508 134.63535065 -11.60053711 133.32664001 -11.59057617 131.97827148 C-11.59435992 130.5835465 -11.59986043 129.18882527 -11.60694885 127.79411316 C-11.62091246 124.00898558 -11.60972828 120.22431207 -11.59323764 116.4392097 C-11.57939121 112.47945339 -11.58584664 108.51972356 -11.58937073 104.55995178 C-11.59207287 97.91123125 -11.57859596 91.26269125 -11.55541992 84.61401367 C-11.52879913 76.92381141 -11.52706648 69.23391079 -11.53880829 61.54367822 C-11.54958099 54.14862766 -11.54340373 46.75368637 -11.52925301 39.35864449 C-11.52348986 36.20996078 -11.52357841 33.06135694 -11.52831841 29.91267204 C-11.53308486 26.20667546 -11.52300072 22.50100995 -11.50136375 18.79507637 C-11.49312993 16.78348499 -11.49965256 14.77185028 -11.50656128 12.76025391 C-11.49665665 11.56710068 -11.48675201 10.37394745 -11.47654724 9.14463806 C-11.47411735 8.10544188 -11.47168745 7.06624571 -11.46918392 5.99555874 C-11.08886719 3.41992188 -11.08886719 3.41992188 -9.78730488 1.58677769 C-6.85377504 -0.42860761 -3.43771874 -0.01293002 0 0 Z " fill="#010101" transform="translate(198.0888671875,438.580078125)"/>
<path d="M0 0 C1.80127153 0.44644341 3.60253899 0.89290323 5.40377808 1.33947754 C6.84987122 1.69785061 8.29611593 2.05561215 9.74243164 2.41308594 C13.60957463 3.37628971 17.43296374 4.41433549 21.25 5.5625 C29.69979889 7.67494972 38.38650941 8.70797641 47 10 C47 28.81 47 47.62 47 67 C60.53 67 74.06 67 88 67 C88 48.19 88 29.38 88 10 C92.434375 9.278125 96.86875 8.55625 101.4375 7.8125 C111.55165352 6.11849826 121.34816561 4.10793037 131.10546875 0.91796875 C134 0 134 0 136 0 C141.08941319 21.38338093 140.650696 42.94557244 140.57641602 64.78759766 C140.55902117 70.1137144 140.58304604 75.43877296 140.61790562 80.76477242 C140.63984325 84.89809261 140.63845072 89.03115627 140.6301403 93.16451645 C140.62932313 95.13007667 140.63614154 97.09565614 140.65091133 99.06116104 C140.66834214 101.7929155 140.65384055 104.52271862 140.63110352 107.25439453 C140.64864182 108.45588135 140.64864182 108.45588135 140.66653442 109.68164062 C140.56903761 115.44229416 139.13670222 117.97474293 135 122 C132.44811658 123.27594171 130.64004034 123.13739742 127.78190613 123.15390015 C126.12261833 123.16680084 126.12261833 123.16680084 124.42980957 123.17996216 C123.21055786 123.18422211 121.99130615 123.18848206 120.73510742 123.19287109 C119.45537552 123.20104858 118.17564362 123.20922607 116.85713196 123.21765137 C112.60659899 123.24387464 108.35605616 123.25917905 104.10546875 123.2734375 C102.64261684 123.27879701 101.179765 123.28417452 99.71691322 123.28956985 C93.63222069 123.31119882 87.54753081 123.32993585 81.46280956 123.34119225 C72.74052181 123.35743376 64.01867937 123.39061559 55.29655951 123.44759309 C49.16485688 123.48628398 43.0332734 123.50582387 36.90145189 123.51111281 C33.23855945 123.51476746 29.57614194 123.52679952 25.91338158 123.55921555 C21.82634339 123.59486795 17.74026307 123.5909276 13.65307617 123.58349609 C12.43989716 123.59990143 11.22671814 123.61630676 9.97677612 123.63320923 C1.93229278 123.57317441 1.93229278 123.57317441 -2.25137329 121.00105286 C-4.52374022 117.10113915 -4.69519401 113.79275504 -4.63110352 109.3996582 C-4.63825882 108.54336319 -4.64541412 107.68706818 -4.65278625 106.80482483 C-4.66970294 103.96960146 -4.65021924 101.13595627 -4.62890625 98.30078125 C-4.62973626 96.30754975 -4.63220064 94.31431833 -4.63621521 92.3210907 C-4.63907732 88.12864729 -4.62435961 83.93673666 -4.59692383 79.74438477 C-4.56329899 74.44922508 -4.56904127 69.15503819 -4.5871067 63.85983467 C-4.64660897 42.29378256 -4.63574316 21.16796542 0 0 Z " fill="#030302" transform="translate(444,716)"/>
<path d="M0 0 C2.4627968 1.08275518 2.72926831 2.43233592 3.84416199 4.81077576 C4.83416199 5.14077576 5.82416199 5.47077576 6.84416199 5.81077576 C8.55584847 7.43117229 10.2162396 9.10624525 11.84416199 10.81077576 C12.74134949 11.70796326 13.63853699 12.60515076 14.56291199 13.52952576 C17.32332865 16.28994242 20.08374532 19.05035909 22.84416199 21.81077576 C23.71041199 22.66671326 24.57666199 23.52265076 25.46916199 24.40452576 C28.11412716 27.08429311 30.55533258 29.88799418 33.00041199 32.74827576 C35.19214713 35.20004728 37.51276699 37.49091079 39.84416199 39.81077576 C40.80415384 40.77018689 41.76384461 41.72989937 42.7232666 42.68988037 C43.23498917 43.20160294 43.74671173 43.7133255 44.27394104 44.24055481 C62.79734802 62.76396179 81.320755 81.28736877 99.84416199 99.81077576 C96.29527908 107.39652546 88.93000326 113.13156834 82.51213074 118.36155701 C80.17079749 120.39583016 78.03116874 122.61138507 75.84416199 124.81077576 C74.9176886 125.74169037 73.99121521 126.67260498 73.03666687 127.63172913 C72.00436009 128.67005042 70.97209508 129.70841325 69.93986511 130.74681091 C64.16912624 136.5501797 58.39333778 142.34849531 52.61463165 148.14393044 C49.12517149 151.64385453 45.63761781 155.1456368 42.15422058 158.65159607 C38.77473335 162.05282326 35.39037452 165.44913219 32.00259399 168.84209824 C30.71546719 170.13291321 29.43009856 171.42548387 28.14654541 172.71985245 C26.35182363 174.5291083 24.55092326 176.3319918 22.74845886 178.13352966 C22.22259689 178.66658218 21.69673492 179.1996347 21.15493774 179.74884033 C18.26456915 182.62319028 15.43767831 184.87964928 11.84416199 186.81077576 C11.28728699 185.79499451 10.73041199 184.77921326 10.15666199 183.73265076 C3.76001164 172.15399332 -2.97834525 161.14244041 -11.49177551 150.96702576 C-13.02798938 148.97643878 -14.12724537 147.09653718 -15.15583801 144.81077576 C-14.58736145 144.25390076 -14.01888489 143.69702576 -13.43318176 143.12327576 C-12.66103333 142.36015076 -11.88888489 141.59702576 -11.09333801 140.81077576 C-10.33923645 140.06827576 -9.58513489 139.32577576 -8.80818176 138.56077576 C-6.81725245 136.49654272 -4.95244344 134.42478943 -3.09333801 132.24827576 C1.90517767 126.48695341 7.36967203 121.17852147 12.78166199 115.81077576 C13.85806852 114.73939688 14.93424213 113.66778393 16.01017761 112.59593201 C18.61882943 109.99817938 21.2306067 107.40359614 23.84416199 104.81077576 C22.20638154 100.61451667 19.11093017 97.8240079 15.96134949 94.73265076 C15.09994858 93.87549469 15.09994858 93.87549469 14.22114563 93.00102234 C12.39180389 91.18284631 10.55562006 89.37176084 8.71916199 87.56077576 C7.47521425 86.32686247 6.23171928 85.09249254 4.98869324 83.85765076 C1.94573832 80.83670833 -1.10337056 77.82210484 -4.15583801 74.81077576 C-4.81285706 75.4677948 -5.4698761 76.12481384 -6.14680481 76.80174255 C-18.81648254 89.47142029 -31.48616028 102.14109802 -44.15583801 114.81077576 C-47.41690249 113.24626822 -49.9405114 111.45262295 -52.71833801 109.12327576 C-61.1396966 102.30773664 -70.37395206 97.02212433 -79.84968567 91.83055115 C-84.94838729 89.01822648 -84.94838729 89.01822648 -87.15583801 86.81077576 C-76.44151795 75.07604426 -65.26067372 63.8366182 -53.96931458 52.66136169 C-53.37552002 52.07179688 -52.78172546 51.48223206 -52.16993713 50.87480164 C-51.06043254 49.77334741 -49.9488467 48.67398324 -48.83460999 47.57731628 C-46.03013664 44.79071215 -43.36192033 41.93487713 -40.77571106 38.9438324 C-34.81023486 32.05408848 -28.31100201 25.66413534 -21.89387512 19.19871521 C-20.26612745 17.55425589 -18.64378493 15.90443006 -17.02668762 14.24949646 C-14.68189227 11.85028653 -12.32138701 9.46762573 -9.95661926 7.08811951 C-9.23364151 6.34247238 -8.51066376 5.59682526 -7.76577759 4.82858276 C-7.08794724 4.15360245 -6.41011688 3.47862213 -5.71174622 2.78318787 C-5.11997086 2.18332565 -4.5281955 1.58346344 -3.91848755 0.96542358 C-2.15583801 -0.18922424 -2.15583801 -0.18922424 0 0 Z " fill="#020202" transform="translate(690.1558380126953,241.18922424316406)"/>
<path d="M0 0 C3.5957178 1.68991738 5.92276309 3.67808721 8.73828125 6.5078125 C9.64126953 7.41273438 10.54425781 8.31765625 11.47460938 9.25 C11.9414917 9.72308594 12.40837402 10.19617188 12.8894043 10.68359375 C14.29234121 12.10458183 15.70373493 13.51720443 17.11523438 14.9296875 C20.904796 18.74348939 24.63410651 22.55444312 28.13305664 26.63745117 C32.83330395 32.04495355 37.93142281 37.05584749 43.0078125 42.10546875 C44.0622221 43.15800765 45.11640698 44.21077172 46.17037964 45.26374817 C48.92476375 48.01434591 51.68213529 50.7619291 54.44018555 53.5088501 C57.24188927 56.30030269 60.04075105 59.09460155 62.83984375 61.88867188 C67.76550125 66.80480611 72.6936145 71.71846645 77.62356567 76.6302948 C78.407789 77.41229752 79.19201233 78.19430023 80 79 C80.90853729 79.87727249 81.81707458 80.75454498 82.75314331 81.65840149 C84.92051321 83.91716154 85.66138471 84.95246241 86 88 C84.49373047 88.92619141 84.49373047 88.92619141 82.95703125 89.87109375 C70.02720486 97.85982824 57.61223444 106.15636239 46 116 C39.84688314 110.85147364 34.10788518 105.51395957 28.90234375 99.3984375 C24.52055022 94.366285 19.80202263 89.69266804 15.0625 85 C14.18787109 84.12988281 13.31324219 83.25976562 12.41210938 82.36328125 C10.27702551 80.23986451 8.13962795 78.11883622 6 76 C1.89891114 77.62156024 -0.83148167 80.5767703 -3.859375 83.6640625 C-4.683237 84.49216934 -4.683237 84.49216934 -5.52374268 85.33700562 C-7.27059293 87.09501815 -9.01034601 88.8598689 -10.75 90.625 C-11.93573591 91.8207708 -13.1219288 93.01608865 -14.30859375 94.2109375 C-17.21105085 97.13540253 -20.1071641 100.06601874 -23 103 C-21.25585189 106.68263028 -19.15857359 109.24472585 -16.375 112.25 C-15.88298096 112.78359131 -15.39096191 113.31718262 -14.8840332 113.86694336 C-10.97706264 118.04339922 -6.92300637 122.0564607 -2.83203125 126.05078125 C-1.73052004 127.13172236 -0.62912118 128.21277797 0.47216797 129.29394531 C2.68781299 131.46830906 4.91969103 133.62422461 7.16064453 135.77246094 C8.19752699 136.78650962 9.23384713 137.80113369 10.26953125 138.81640625 C11.20385986 139.71818604 12.13818848 140.61996582 13.10083008 141.54907227 C15 144 15 144 14.953125 146.11547852 C13.95527332 148.08843372 12.90273736 149.6426781 11.48046875 151.3359375 C10.95799561 151.97797119 10.43552246 152.62000488 9.8972168 153.28149414 C9.33301025 153.97235107 8.76880371 154.66320801 8.1875 155.375 C0.41065921 165.16059474 -5.32253241 175.90362416 -11 187 C-14.53035078 185.49463716 -16.78402131 183.453231 -19.47387695 180.73730469 C-20.35191483 179.85588806 -21.2299527 178.97447144 -22.13459778 178.06634521 C-23.08585213 177.10154796 -24.03707926 176.13672388 -24.98828125 175.171875 C-25.97419264 174.17968573 -26.96062594 173.18801483 -27.94755554 172.19683838 C-30.5449561 169.58614694 -33.13673846 166.96995499 -35.72692871 164.35211182 C-39.86019049 160.17573225 -44.00006609 156.00593879 -48.14342308 151.83957672 C-49.58093458 150.3919493 -51.01491854 148.94089709 -52.44856262 147.48944092 C-57.14067435 142.76280076 -61.87968768 138.25854343 -67 134 C-69.96568603 131.18259827 -72.663352 128.23460939 -75.3125 125.125 C-78.21260889 121.77680562 -81.29908475 118.93028988 -84.66796875 116.06640625 C-87.71089532 113.37007769 -90.61061332 110.54673139 -93.5 107.6875 C-94.04100342 107.15930664 -94.58200684 106.63111328 -95.1394043 106.08691406 C-96.46634035 104.76360877 -97.73836131 103.38569983 -99 102 C-99 101.34 -99 100.68 -99 100 C-97.671875 98.73046875 -97.671875 98.73046875 -95.75 97.1875 C-92.07248807 94.0792804 -88.81540112 90.70330598 -85.59765625 87.1328125 C-78.85985789 79.74759338 -71.79463454 72.714939 -64.6875 65.6875 C-62.25086001 63.27778775 -59.81781207 60.86452535 -57.38671875 58.44921875 C-56.84802658 57.91882492 -56.30933441 57.38843109 -55.75431824 56.84196472 C-52.96317039 54.06850233 -50.30846666 51.23326745 -47.74511719 48.24731445 C-43.30565923 43.11932866 -38.49874138 38.37429946 -33.69140625 33.59375 C-32.7146999 32.61891355 -31.73821766 31.64385251 -30.76194763 30.6685791 C-28.21772539 28.12813699 -25.67051264 25.59071491 -23.12261963 23.05395508 C-20.51284118 20.45448873 -17.90596518 17.85211506 -15.29882812 15.25 C-10.20202128 10.16385082 -5.10204492 5.0808953 0 0 Z " fill="#010101" transform="translate(333,241)"/>
<path d="M0 0 C2.97816718 1.42432416 4.97931682 2.77903265 7.25 5.1875 C9.51805707 7.58467913 11.88149726 9.76218653 14.39355469 11.89575195 C19.57246956 16.41514718 24.39314369 21.28028431 29.23150635 26.15634155 C30.9121424 27.84992862 32.59604629 29.54020777 34.28076172 31.22973633 C38.46138011 35.42361018 42.6364898 39.62295399 46.81176758 43.82214355 C50.35185717 47.38207831 53.89406722 50.93987821 57.43902588 54.4949646 C59.08498106 56.14732532 60.72785645 57.80270465 62.37060547 59.45825195 C67.23863332 64.34983192 72.1338183 69.15490211 77.39892578 73.62501526 C79.71617289 75.61504132 81.85792662 77.76195672 84 79.9375 C84.763125 80.70964844 85.52625 81.48179687 86.3125 82.27734375 C86.869375 82.84582031 87.42625 83.41429687 88 84 C86.49156562 87.53825904 84.43802076 89.80449994 81.72143555 92.50561523 C80.83679123 93.39010849 79.95214691 94.27460175 79.04069519 95.18589783 C78.07280583 96.14356703 77.10481106 97.10112971 76.13671875 98.05859375 C75.14220677 99.04937085 74.14813895 100.04059395 73.15449524 101.03224182 C70.53866722 103.64044442 67.91689653 106.24259264 65.29382324 108.84350586 C62.63827427 111.47867254 59.98829688 114.11942831 57.33789062 116.75976562 C52.66177437 121.41676213 47.98078261 126.06879982 43.29618835 130.7172699 C39.30701203 134.68306515 35.33476657 138.66567761 31.36499023 142.65087891 C26.97690781 147.05491745 22.58665607 151.45678187 18.19477749 155.85703468 C15.54625155 158.51079529 12.89867754 161.16549192 10.25317383 163.82226562 C7.68198284 166.40433359 5.10834563 168.98393999 2.53300667 171.56187057 C1.5557522 172.540967 0.57937556 173.52094045 -0.39608955 174.50181961 C-1.75984449 175.87285148 -3.12704491 177.24045353 -4.49438477 178.60791016 C-5.26984146 179.38558746 -6.04529816 180.16326477 -6.84425354 180.96450806 C-8.80731304 182.81806174 -10.80417291 184.43402277 -13 186 C-16.03229137 184.64186126 -18.13403322 183.11687802 -20.48016357 180.77380371 C-21.48548882 179.77693794 -21.48548882 179.77693794 -22.51112366 178.75993347 C-23.59761452 177.66736992 -23.59761452 177.66736992 -24.70605469 176.55273438 C-25.47717087 175.78512283 -26.24828705 175.01751129 -27.04277039 174.22663879 C-29.59086128 171.68735271 -32.13156465 169.14081805 -34.671875 166.59375 C-36.43706469 164.82990703 -38.20255123 163.06636109 -39.96832275 161.30310059 C-44.14070574 157.13404479 -48.30789883 152.95984966 -52.47330117 148.78382063 C-56.27331258 144.97522086 -60.08062479 141.17398888 -63.88981891 137.37457609 C-68.00888143 133.26566858 -72.12232046 129.15117387 -76.23337555 125.03425598 C-77.98468254 123.28161081 -79.73748744 121.53046114 -81.49178314 119.7808075 C-83.93655606 117.34108647 -86.37487137 114.89509359 -88.81152344 112.44726562 C-89.91015968 111.35470207 -89.91015968 111.35470207 -91.0309906 110.24006653 C-91.68992813 109.57548935 -92.34886566 108.91091217 -93.027771 108.22619629 C-93.89383783 107.35899837 -93.89383783 107.35899837 -94.77740097 106.47428131 C-96 105 -96 105 -96 103 C-93.8169365 101.58131448 -91.63788513 100.28011335 -89.375 99 C-77.1464244 91.85598341 -66.22468394 83.80734991 -56 74 C-52.92306169 75.37297814 -50.80542976 76.94214627 -48.42480469 79.31640625 C-47.74440125 79.99050537 -47.0639978 80.66460449 -46.36297607 81.35913086 C-45.63991272 82.08624268 -44.91684937 82.81335449 -44.171875 83.5625 C-43.42286926 84.30959229 -42.67386353 85.05668457 -41.90216064 85.82641602 C-40.32293796 87.40427919 -38.74623226 88.98466499 -37.171875 90.56738281 C-34.75221054 92.99777965 -32.32203811 95.41730061 -29.890625 97.8359375 C-28.35873303 99.36915052 -26.82746128 100.90298352 -25.296875 102.4375 C-24.56571472 103.16461182 -23.83455444 103.89172363 -23.08123779 104.64086914 C-22.41344299 105.31496826 -21.74564819 105.98906738 -21.05761719 106.68359375 C-20.46567566 107.27712646 -19.87373413 107.87065918 -19.26385498 108.48217773 C-18 110 -18 110 -18 112 C-9.20504202 104.69301074 -0.72910002 96.58226428 6.625 87.8125 C9 85 9 85 12 83 C10.59490901 79.81740149 8.93078658 77.68651534 6.46826172 75.24121094 C5.74766571 74.52076599 5.0270697 73.80032104 4.28463745 73.05804443 C3.50750397 72.29123352 2.73037048 71.52442261 1.9296875 70.734375 C0.73534592 69.54427826 0.73534592 69.54427826 -0.48312378 68.33013916 C-3.02575948 65.79869297 -5.57526348 63.27429197 -8.125 60.75 C-9.85071753 59.03431383 -11.57598355 57.31817338 -13.30078125 55.6015625 C-17.52863032 51.39575752 -21.76213869 47.19571493 -26 43 C-25.3924588 42.192211 -25.3924588 42.192211 -24.77264404 41.36810303 C-23.970112 40.29982269 -23.970112 40.29982269 -23.15136719 39.20996094 C-22.62258972 38.50643494 -22.09381226 37.80290894 -21.54901123 37.07806396 C-12.87129759 25.43654475 -6.22515974 13.10085869 0 0 Z " fill="#020202" transform="translate(702,601)"/>
<path d="M0 0 C0.66 0 1.32 0 2 0 C2.54527344 1.06476562 3.09054687 2.12953125 3.65234375 3.2265625 C10.64228244 16.73835664 18.14088807 29.3409957 28 41 C26.61149663 44.14317752 25.0062832 46.21890377 22.54418945 48.60351562 C21.84038651 49.29102905 21.13658356 49.97854248 20.41145325 50.68688965 C19.65305649 51.41927856 18.89465973 52.15166748 18.11328125 52.90625 C16.51976135 54.46962314 14.9266753 56.0334386 13.33398438 57.59765625 C10.8171629 60.05853741 8.29667299 62.51533037 5.76831055 64.96435547 C3.33059301 67.32982504 0.90855471 69.71045362 -1.51171875 72.09375 C-2.2761882 72.82613892 -3.04065765 73.55852783 -3.82829285 74.31311035 C-4.52263931 75.00062378 -5.21698578 75.68813721 -5.93237305 76.39648438 C-6.55033249 76.99730835 -7.16829193 77.59813232 -7.80497742 78.21716309 C-9.21553017 79.92661355 -9.21553017 79.92661355 -8.85372925 82.04193115 C-7.37917181 85.42389914 -4.60145949 87.76041768 -1.99609375 90.296875 C-1.39821548 90.89050842 -0.80033722 91.48414185 -0.18434143 92.09576416 C1.72434102 93.98767195 3.6431954 95.86887499 5.5625 97.75 C6.85940836 99.03186002 8.15564078 100.3144043 9.45117188 101.59765625 C12.62632957 104.73976072 15.81064946 107.87230539 19 111 C22.3094559 108.31142705 25.39656902 105.77178213 28.109375 102.46875 C32.68756683 97.10989839 37.64557349 92.13220523 42.6171875 87.14257812 C44.26764556 85.48224891 45.90714951 83.81154622 47.546875 82.140625 C48.59830233 81.08268097 49.65036236 80.02536527 50.703125 78.96875 C51.19065247 78.46887573 51.67817993 77.96900146 52.18048096 77.45397949 C55.65725849 74 55.65725849 74 59 74 C60.15763322 75.08747363 61.303526 76.18906649 62.40234375 77.3359375 C70.90575723 86.19279359 80.460003 92.32546723 90.88476562 98.68994141 C93.63692895 100.39447838 96.32201288 102.18156036 99 104 C93.82349934 110.26498179 88.16364042 115.98259464 82.4140625 121.71875 C81.38790578 122.74558208 80.3618974 123.77256243 79.33602905 124.79968262 C77.1943889 126.94278946 75.05097062 129.08409718 72.90625 131.22412109 C70.1774831 133.94719861 67.45322191 136.6747325 64.73029518 139.40364838 C62.61468314 141.52290012 60.49666278 143.63973213 58.37794113 145.75587463 C57.37343643 146.75971909 56.36965495 147.76428786 55.36665726 148.76963806 C50.29353285 153.85204923 45.18548189 158.81349633 39.73471069 163.48989868 C37.2565894 165.64715421 34.94035418 167.9475186 32.625 170.27734375 C31.70332031 171.20224609 30.78164063 172.12714844 29.83203125 173.08007812 C28.88796393 174.03249568 27.94395418 174.98497031 27 175.9375 C26.02497614 176.9175531 25.0497172 177.8973724 24.07421875 178.87695312 C21.71383382 181.24902313 19.35583095 183.6234086 17 186 C13.61498585 184.53237346 11.4006303 182.65186862 8.79852295 180.05249023 C7.55339432 178.81582108 7.55339432 178.81582108 6.28311157 177.5541687 C5.3811203 176.64812897 4.47912903 175.74208923 3.54980469 174.80859375 C2.58412365 173.84562354 1.61801782 172.88307916 0.65151978 171.92092896 C-1.96855814 169.3099639 -4.58227618 166.69271791 -7.19462681 164.0740242 C-9.92760114 161.33598711 -12.66545082 158.60283214 -15.40252686 155.86889648 C-19.99591474 151.2791462 -24.58507126 146.68519673 -29.171875 142.08886719 C-34.48047054 136.76937455 -39.79625033 131.45714282 -45.11579442 126.14860058 C-49.68002807 121.59343022 -54.2403685 117.03438975 -58.79745173 112.47206593 C-61.52058727 109.74580707 -64.24506863 107.02093014 -66.97306061 104.29953003 C-69.53518055 101.74316945 -72.09239272 99.18200046 -74.64583206 96.61697006 C-76.03562508 95.22325364 -77.43037073 93.83448149 -78.82522583 92.4458313 C-79.64403229 91.62138519 -80.46283875 90.79693909 -81.30645752 89.94750977 C-82.38269316 88.87014305 -82.38269316 88.87014305 -83.48067093 87.77101135 C-85 86 -85 86 -85 84 C-83.93212669 82.86358824 -82.84989984 81.73927465 -81.72509766 80.65917969 C-79.58635453 78.6021604 -77.50465156 76.49261994 -75.41796875 74.3828125 C-73.67454827 72.6301396 -71.93105665 70.87753744 -70.1875 69.125 C-69.32318359 68.25230469 -68.45886719 67.37960937 -67.56835938 66.48046875 C-63.08016001 61.97533278 -58.55361596 57.61062883 -53.68481445 53.51708984 C-51.42206952 51.47960296 -49.56415042 49.18769743 -47.63658142 46.83799744 C-45.98118525 44.97886969 -44.25045249 43.42072854 -42.34912109 41.81616211 C-37.81712495 37.8990888 -33.61536346 33.70764041 -29.4140625 29.44140625 C-27.80872239 27.82344006 -26.20324992 26.2056052 -24.59765625 24.58789062 C-22.09397168 22.05923349 -19.59192772 19.52899097 -17.09228516 16.99633789 C-14.66218215 14.53621902 -12.22605003 12.08220267 -9.7890625 9.62890625 C-9.03702545 8.86340958 -8.2849884 8.0979129 -7.51016235 7.30921936 C-6.46800064 6.26198952 -6.46800064 6.26198952 -5.40478516 5.19360352 C-4.79381989 4.57518082 -4.18285461 3.95675812 -3.55337524 3.31959534 C-2 2 -2 2 0 2 C0 1.34 0 0.68 0 0 Z " fill="#020202" transform="translate(319,601)"/>
<path d="M0 0 C4.17209705 1.39069902 5.57666903 4.33920511 7.875 7.875 C8.32117676 8.55828369 8.76735352 9.24156738 9.22705078 9.94555664 C21.09481635 28.44581935 25.33448877 49.72902504 20.96728516 71.42382812 C18.07757387 83.48995802 12.16478074 95.63219601 4 105 C3.32195312 105.80824219 2.64390625 106.61648438 1.9453125 107.44921875 C-10.58993734 121.95801138 -27.85597285 132.21528259 -47 135 C-51.56060022 135.23883172 -56.12122861 135.23094409 -60.6875 135.25 C-62.5118457 135.2809375 -62.5118457 135.2809375 -64.37304688 135.3125 C-72.06272586 135.34552063 -78.71109489 134.47981736 -86 132 C-83.45181761 124.00757811 -80.40263918 116.23170486 -77.3125 108.4375 C-76.79600607 107.12964332 -76.27972841 105.82170121 -75.76367188 104.51367188 C-74.5112318 101.34160402 -73.25662243 98.17041279 -72 95 C-71.44127197 95.01571045 -70.88254395 95.0314209 -70.30688477 95.04760742 C-67.7255301 95.11074924 -65.1443387 95.14923704 -62.5625 95.1875 C-61.68400391 95.21263672 -60.80550781 95.23777344 -59.90039062 95.26367188 C-48.7737711 95.38684478 -39.07742782 91.45056026 -30.765625 83.99609375 C-24.55927286 77.47475757 -19.59752122 69.16199206 -19 60 C-18.94972656 59.360625 -18.89945313 58.72125 -18.84765625 58.0625 C-18.39839866 47.99912997 -21.16078047 39.30660075 -26.98828125 31.15625 C-27.32214844 30.4446875 -27.65601563 29.733125 -28 29 C-26.80332823 25.76249897 -25.10834193 23.99844188 -22.46875 21.83984375 C-17.54472796 17.6715656 -13.03533931 13.14585186 -8.5 8.5625 C-7.26636719 7.32209961 -7.26636719 7.32209961 -6.0078125 6.05664062 C-4.00287887 4.04005041 -2.00033747 2.02114764 0 0 Z " fill="#020202" transform="translate(571,463)"/>
<path d="M0 0 C-0.79330997 5.07300851 -2.5511874 9.8003543 -4.25 14.625 C-4.56211426 15.51566162 -4.87422852 16.40632324 -5.19580078 17.32397461 C-7.21990745 23.01813629 -9.42329879 28.55815146 -12.0546875 34.00390625 C-13.1091767 36.12711703 -13.1091767 36.12711703 -14 39 C-14.94359375 39.01417969 -15.8871875 39.02835937 -16.859375 39.04296875 C-29.71336544 39.52047643 -40.58897824 42.69735853 -50 52 C-59.30038762 62.93203457 -60.89313103 72.98342889 -60.18603516 86.92675781 C-59.86965807 90.45257698 -58.99847763 93.65621151 -57.75390625 96.95703125 C-57.50511719 97.63121094 -57.25632812 98.30539062 -57 99 C-56.5673584 100.11749634 -56.5673584 100.11749634 -56.12597656 101.25756836 C-56 104 -56 104 -58.11791992 106.84667969 C-59.13951673 107.88761122 -60.17835241 108.91180089 -61.23046875 109.921875 C-61.77729813 110.46732971 -62.3241275 111.01278442 -62.88752747 111.57476807 C-64.04662519 112.72480607 -65.21300239 113.86754666 -66.38598633 115.00341797 C-68.17915897 116.7419133 -69.94723669 118.50313865 -71.71289062 120.26953125 C-72.84234635 121.38423652 -73.97316242 122.49756547 -75.10546875 123.609375 C-75.63480515 124.13537292 -76.16414154 124.66137085 -76.70951843 125.20330811 C-81.31263739 129.63142927 -81.31263739 129.63142927 -85 130 C-97.20009756 114.00993131 -101.21238997 98.64760587 -101.375 78.875 C-101.38901855 77.69542725 -101.40303711 76.51585449 -101.41748047 75.30053711 C-101.35840375 64.45541471 -99.41475371 54.64165201 -94.375 45 C-94.02872559 44.32702881 -93.68245117 43.65405762 -93.32568359 42.96069336 C-82.43893711 22.4268769 -65.13792656 9.66501738 -43.56640625 1.73828125 C-30.64391637 -2.1589776 -13.05032468 -3.85648351 0 0 Z " fill="#030303" transform="translate(532,439)"/>
<path d="M0 0 C0 3.81085813 -0.91020616 4.29554999 -3.54296875 6.94140625 C-4.28740234 7.68970703 -5.03183594 8.43800781 -5.79882812 9.20898438 C-6.58708984 9.98564453 -7.37535156 10.76230469 -8.1875 11.5625 C-8.95642578 12.34302734 -9.72535156 13.12355469 -10.51757812 13.92773438 C-11.26845703 14.67474609 -12.01933594 15.42175781 -12.79296875 16.19140625 C-13.82200317 17.21536499 -13.82200317 17.21536499 -14.87182617 18.26000977 C-17.15190068 20.12419366 -19.22564274 21.05502903 -22 22 C-17.78876078 16.97493235 -13.39967732 12.24512429 -8.75 7.625 C-8.12609375 6.99722656 -7.5021875 6.36945312 -6.859375 5.72265625 C-6.26125 5.12582031 -5.663125 4.52898438 -5.046875 3.9140625 C-4.24008301 3.1089624 -4.24008301 3.1089624 -3.41699219 2.28759766 C-2 1 -2 1 0 0 Z " fill="#CDCFCE" transform="translate(365,758)"/>
</svg>
