<?xml version="1.0" encoding="UTF-8"?>
<svg version="1.1" xmlns="http://www.w3.org/2000/svg" width="1024" height="1024">
<path d="M0 0 C337.92 0 675.84 0 1024 0 C1024 337.92 1024 675.84 1024 1024 C686.08 1024 348.16 1024 0 1024 C0 686.08 0 348.16 0 0 Z " fill="#FEFEF5" transform="translate(0,0)"/>
<path d="M0 0 C23.39932939 20.66886066 38.59827296 45.05810213 53.19775391 72.43212891 C80.25775391 72.76212891 107.31775391 73.09212891 135.19775391 73.43212891 C135.21837891 66.62587891 135.23900391 59.81962891 135.26025391 52.80712891 C135.30484741 49.60002197 135.30484741 49.60002197 135.3503418 46.328125 C135.69763637 37.08058286 135.69763637 37.08058286 132.25708008 28.90673828 C129.95028397 27.41400837 127.75504767 26.41476783 125.19775391 25.43212891 C117.75647389 18.20857997 114.02610057 9.67118702 113.76025391 -0.63037109 C114.12203123 -11.41366938 117.65340113 -19.63751907 125.04931641 -27.54833984 C132.41026902 -34.42540513 140.03365121 -37.32460768 150.07275391 -37.19287109 C151.38711426 -37.18030273 151.38711426 -37.18030273 152.72802734 -37.16748047 C160.09005323 -36.9108878 165.3955417 -35.2538865 171.19775391 -30.56787109 C171.93123047 -29.98779297 172.66470703 -29.40771484 173.42041016 -28.81005859 C180.04885497 -22.88782192 184.89749659 -15.34472436 185.70556641 -6.36865234 C186.08194165 1.85054457 185.37267704 9.17734444 181.19775391 16.43212891 C180.83552734 17.07408203 180.47330078 17.71603516 180.10009766 18.37744141 C176.24027325 24.42231895 170.55139752 28.31438962 164.19775391 31.43212891 C164.19188766 32.26484818 164.18602142 33.09756744 164.17997742 33.95552063 C164.12210282 41.79848125 164.05005656 49.6411555 163.96203899 57.48383808 C163.91728803 61.5159792 163.87804263 65.54801818 163.85131836 69.58032227 C163.82533209 73.47086054 163.78496367 77.36100673 163.73456764 81.25130272 C163.71786709 82.73642289 163.70637268 84.22161092 163.70014 85.7068119 C163.690533 87.78534795 163.66251769 89.86287376 163.63012695 91.94116211 C163.6190239 93.12474808 163.60792084 94.30833405 163.59648132 95.52778625 C163.14731902 98.79949815 162.73601166 99.45934012 160.19775391 101.43212891 C158.32934284 101.80127239 158.32934284 101.80127239 156.19245911 101.79289246 C154.97463493 101.79907845 154.97463493 101.79907845 153.73220825 101.8053894 C152.84532318 101.79460358 151.95843811 101.78381775 151.04467773 101.77270508 C150.10789688 101.77314316 149.17111603 101.77358124 148.20594788 101.77403259 C145.10534929 101.77194029 142.00528945 101.74858822 138.90478516 101.72509766 C136.75673213 101.71950328 134.60867528 101.71523243 132.46061707 101.7122345 C126.80357315 101.70077331 121.14675985 101.67129503 115.48980713 101.63812256 C109.71865967 101.6074492 103.94747499 101.593735 98.17626953 101.57861328 C86.84999626 101.54642667 75.52389425 101.49521483 64.19775391 101.43212891 C64.41709595 102.549021 64.41709595 102.549021 64.64086914 103.68847656 C65.3142166 107.14308822 65.97476726 110.60003627 66.63525391 114.05712891 C66.98040039 115.81283203 66.98040039 115.81283203 67.33251953 117.60400391 C67.66606445 119.36357422 67.66606445 119.36357422 68.00634766 121.15869141 C68.2105835 122.21652832 68.41481934 123.27436523 68.62524414 124.36425781 C69.46776562 130.35065137 69.76703764 136.40210123 70.19775391 142.43212891 C97.91775391 142.43212891 125.63775391 142.43212891 154.19775391 142.43212891 C154.52775391 141.11212891 154.85775391 139.79212891 155.19775391 138.43212891 C159.39444513 131.02796653 165.49317357 126.73214596 173.01025391 123.05712891 C181.98236076 121.29789227 190.19004703 121.84086358 198.19775391 126.43212891 C205.13062724 131.35459082 211.42713429 137.90096168 213.19775391 146.43212891 C214.17607824 156.6669066 212.57288646 165.71142917 205.94775391 173.80712891 C200.14177605 179.87418928 193.33295734 183.8541143 184.90087891 184.80322266 C176.792533 184.95915239 170.84289449 184.25323363 164.19775391 179.43212891 C162.99824214 177.89705352 161.80670584 176.35572363 160.62182617 174.80932617 C155.45567126 169.59132388 150.82865304 169.40945744 143.84305668 169.26700687 C141.13611133 169.2597744 138.43175342 169.29638653 135.72509766 169.33447266 C133.83222412 169.32881365 131.93935866 169.31919494 130.04652405 169.30580139 C125.0893873 169.28127393 120.13397806 169.31019102 115.17700195 169.35058594 C110.10899083 169.3823144 105.04119521 169.36302456 99.97314453 169.34814453 C90.04756933 169.32646316 80.12307014 169.36129221 70.19775391 169.43212891 C70.20251236 170.3837944 70.20727081 171.3354599 70.21217346 172.31596375 C70.21587448 173.56948135 70.2195755 174.82299896 70.22338867 176.11450195 C70.22814713 177.35491745 70.23290558 178.59533295 70.23780823 179.87333679 C70.18689749 184.39671237 69.79548733 188.77398385 69.13525391 193.24462891 C69.00803955 194.11498779 68.8808252 194.98534668 68.74975586 195.88208008 C63.07057418 231.40750722 47.74802847 266.41745334 25.19775391 294.43212891 C23.97185547 295.96353516 23.97185547 295.96353516 22.72119141 297.52587891 C-12.38651091 340.57406136 -63.87039118 367.91087958 -119.06152344 374.03808594 C-134.86063942 375.52708951 -150.95836192 374.79595724 -166.80224609 374.43212891 C-172.94188062 385.2988152 -178.85941881 396.17146206 -183.89575195 407.60131836 C-184.23614502 408.35372803 -184.57653809 409.1061377 -184.92724609 409.88134766 C-185.36423828 410.87654419 -185.36423828 410.87654419 -185.81005859 411.8918457 C-186.80224609 413.43212891 -186.80224609 413.43212891 -189.80224609 414.43212891 C-192.31640625 413.54272461 -192.31640625 413.54272461 -195.34130859 412.10791016 C-196.46674072 411.5797168 -197.59217285 411.05152344 -198.75170898 410.50732422 C-199.97700382 409.92000064 -201.20217993 409.33242931 -202.42724609 408.74462891 C-203.69046117 408.14715485 -204.95405671 407.55048455 -206.21801758 406.95458984 C-209.46028682 405.42260896 -212.69653867 403.87839 -215.93048096 402.32891846 C-217.7072214 401.4776566 -219.48493143 400.62841932 -221.26269531 399.77929688 C-226.50244175 397.27583651 -231.73703122 394.76206754 -236.96630859 392.23681641 C-240.80483077 390.38571361 -244.6528057 388.55751932 -248.51318359 386.75244141 C-249.39868896 386.33768555 -250.28419434 385.92292969 -251.1965332 385.49560547 C-252.84408533 384.72568287 -254.49324364 383.95918426 -256.14428711 383.19677734 C-261.58162129 380.65275371 -261.58162129 380.65275371 -263.80224609 378.43212891 C-263.43769927 374.47188273 -261.92700758 371.31926658 -260.14990234 367.79931641 C-259.62074219 366.74615234 -259.09158203 365.69298828 -258.54638672 364.60791016 C-257.99144531 363.51865234 -257.43650391 362.42939453 -256.86474609 361.30712891 C-256.31367188 360.21013672 -255.76259766 359.11314453 -255.19482422 357.98291016 C-251.11225716 349.8971455 -251.11225716 349.8971455 -248.80224609 346.43212891 C-249.47642578 346.19107422 -250.15060547 345.95001953 -250.84521484 345.70166016 C-276.44735443 334.7099886 -298.6402449 311.49107648 -314.80224609 289.43212891 C-315.50349609 288.51431641 -316.20474609 287.59650391 -316.92724609 286.65087891 C-326.09110269 274.48013187 -333.31823915 261.18318406 -339.80224609 247.43212891 C-340.58728516 245.77503906 -340.58728516 245.77503906 -341.38818359 244.08447266 C-346.14610893 233.52389234 -349.69084936 222.577321 -352.80224609 211.43212891 C-353.19621582 210.05057617 -353.19621582 210.05057617 -353.59814453 208.64111328 C-361.63839364 179.10846083 -360.51030556 144.1272707 -353.80224609 114.43212891 C-353.50685976 112.9354624 -353.21501862 111.4380905 -352.92724609 109.93994141 C-345.66527798 73.9400881 -326.4050796 42.06261769 -302.20458984 15.02197266 C-300.87446713 13.51400624 -299.61694362 11.94290272 -298.36474609 10.36962891 C-295.12950877 6.66094222 -291.55565455 3.60342555 -287.80224609 0.43212891 C-286.82900391 -0.41736328 -285.85576172 -1.26685547 -284.85302734 -2.14208984 C-256.06972328 -27.15299648 -221.05927173 -43.85145783 -183.80224609 -51.56787109 C-182.77615234 -51.78185547 -181.75005859 -51.99583984 -180.69287109 -52.21630859 C-115.88797603 -64.84777119 -48.95102819 -42.58513994 0 0 Z " fill="#162831" transform="translate(579.80224609375,283.56787109375)"/>
<path d="M0 0 C1.1240625 0.63679688 2.248125 1.27359375 3.40625 1.9296875 C16.17864645 9.50189396 27.28491577 18.78811033 38 29 C38.83015625 29.76570313 39.6603125 30.53140625 40.515625 31.3203125 C52.46359803 42.69015781 62.21075966 56.50077384 70 71 C70.34369629 71.63808594 70.68739258 72.27617187 71.04150391 72.93359375 C77.41610548 85.01871358 81.5557173 97.80339357 85 111 C85.31565918 112.19906982 85.31565918 112.19906982 85.63769531 113.42236328 C87.30872514 120.59667087 87.19024004 127.66518957 87 135 C79.13530474 135.25375182 71.27166517 135.42874732 63.40380859 135.54931641 C60.72672989 135.59394791 58.05499313 135.66773694 55.37841797 135.75439453 C51.53023716 135.87585586 47.68568643 135.93243741 43.8359375 135.9765625 C42.64197357 136.02817535 41.44800964 136.07978821 40.21786499 136.13296509 C36.86046887 136.13522783 34.1943669 136.04188148 31 135 C28.16854497 131.98542318 26.65601541 128.75181961 25 125 C20.54920772 118.11538203 13.42918752 113.84357215 5.68359375 111.5078125 C-3.63644237 109.74419577 -12.86071634 109.85686997 -21 115 C-21.69609375 115.42410156 -22.3921875 115.84820312 -23.109375 116.28515625 C-30.2854891 121.12768437 -35.12352097 128.18312986 -37.5234375 136.49609375 C-39.65296352 147.68483293 -37.66720981 157.13645616 -31.2734375 166.5390625 C-25.95112999 173.08791001 -18.45817293 178.47719783 -10 180 C-2.72533079 180.59572094 3.29537052 179.84513797 10 177 C10.67804688 176.74476563 11.35609375 176.48953125 12.0546875 176.2265625 C18.44298214 173.51713014 23.88505703 168.22988595 27 162 C47.13 162 67.26 162 88 162 C88 172.14951768 88 172.14951768 87.484375 175.7265625 C87.3128894 176.92055664 87.3128894 176.92055664 87.13793945 178.13867188 C87.00991943 178.95916016 86.88189941 179.77964844 86.75 180.625 C86.61360107 181.49962891 86.47720215 182.37425781 86.33666992 183.27539062 C83.25387002 202.22620556 76.52968531 219.62954643 67.6875 236.625 C67.26710449 237.43678711 66.84670898 238.24857422 66.41357422 239.08496094 C66.01283691 239.83293945 65.61209961 240.58091797 65.19921875 241.3515625 C64.84690186 242.00979004 64.49458496 242.66801758 64.1315918 243.34619141 C63 245 63 245 60 247 C59.59910156 246.09378906 59.19820312 245.18757813 58.78515625 244.25390625 C53.3032029 232.32027957 46.63233972 223.88712279 34 219 C24.4890572 216.27673357 12.00405899 216.32624936 3.125 220.6875 C1.38228431 221.73656092 -0.3326837 222.83482055 -2 224 C-2.62003906 224.41765625 -3.24007812 224.8353125 -3.87890625 225.265625 C-10.99499609 230.61606849 -14.99833875 238.47679726 -17 247 C-18.3159214 259.98375783 -15.92791436 269.05549297 -8.23046875 279.45703125 C-6.03466446 282.17341923 -6.03466446 282.17341923 -2.76171875 284.2109375 C0.22624222 287.22848224 0.41318409 287.66175855 0.5859375 291.64453125 C0.5463137 293.36816647 0.47511346 295.09131852 0.375 296.8125 C0.34792969 297.69615234 0.32085938 298.57980469 0.29296875 299.49023438 C0.22255869 301.66121114 0.11494606 303.83092529 0 306 C-16.52785173 315.42864025 -34.84501384 321.00145924 -53.4375 324.5625 C-54.71463867 324.81386719 -55.99177734 325.06523438 -57.30761719 325.32421875 C-64.46399681 326.59972201 -71.23878578 327.13864738 -78.49243164 327.06225586 C-79.31539986 327.05776176 -80.13836807 327.05326767 -80.98627472 327.04863739 C-82.9908818 327.03703639 -84.99545107 327.01917689 -87 327 C-87.16352561 306.11196593 -87.28696298 285.22403741 -87.3626852 264.33549309 C-87.39877907 254.63653033 -87.44798694 244.93796529 -87.52807617 235.23925781 C-87.59784935 226.78578143 -87.64300817 218.33259308 -87.65861946 209.87883675 C-87.66774518 205.4025031 -87.68918829 200.92699344 -87.7401104 196.45092392 C-87.78766428 192.23673559 -87.80227331 188.02370964 -87.79175377 183.80927849 C-87.79367782 182.26367943 -87.80758048 180.71804107 -87.83443832 179.17267418 C-88.02796645 167.46177535 -88.02796645 167.46177535 -85.45343208 163.80076981 C-83.70551816 162.30224694 -81.97224963 161.17321104 -80 160 C-77.57133058 156.87596417 -75.78827322 153.52501118 -74 150 C-73.58363281 149.20078125 -73.16726563 148.4015625 -72.73828125 147.578125 C-68.19944989 137.32195871 -68.02682611 122.72331388 -71.96484375 112.19140625 C-78.10880224 99.18476205 -86.85116139 90.08843635 -100.25 84.6875 C-111.98051442 81.0598124 -125.91046504 81.25362193 -137.10546875 86.3984375 C-150.93537045 94.05060983 -157.77351875 103.89219667 -162.578125 118.79296875 C-165.20040008 132.51135229 -162.32920977 145.67244475 -154.8125 157.375 C-147.95327792 166.37772898 -139.62251132 171.4241051 -129 175 C-124.05 175.66 -119.1 176.32 -114 177 C-114 189.54 -114 202.08 -114 215 C-120.7134375 215.2784375 -120.7134375 215.2784375 -127.5625 215.5625 C-129.65960327 215.68540405 -129.65960327 215.68540405 -131.79907227 215.81079102 C-140.80628735 215.99164837 -140.80628735 215.99164837 -144.35668945 213.04223633 C-146.2109375 210.6171875 -146.2109375 210.6171875 -147.67724609 208.18701172 C-150.66046493 203.25462444 -155.70040092 201.51143801 -161 200 C-168.99462116 199.20239278 -176.36652074 199.0653386 -183 204 C-188.57982643 208.67148259 -193.46996888 215.33706798 -194.30859375 222.71484375 C-194.68894513 232.22362828 -192.60671439 239.67808794 -186.2890625 246.9765625 C-179.70058949 253.0284178 -173.24824506 254.70027234 -164.421875 254.4765625 C-154.57949541 253.10582014 -149.36152147 248.42177505 -143 241 C-133.43 241 -123.86 241 -114 241 C-114 268.39 -114 295.78 -114 324 C-145.2802986 320.52441127 -176.85911098 304.90329713 -199.62890625 283.25 C-201.67074545 281.31243924 -203.76076536 279.53056003 -205.9375 277.75 C-228.8743427 257.66856016 -244.99505553 227.47157693 -252.8125 198.375 C-252.99522461 197.69719482 -253.17794922 197.01938965 -253.36621094 196.32104492 C-257.19109503 181.04448615 -258.58112848 166.07897738 -258.5 150.375 C-258.49823761 149.45757019 -258.49647522 148.54014038 -258.49465942 147.59490967 C-258.43186695 132.89188492 -257.30855247 119.13675434 -253 105 C-252.75894531 104.16033691 -252.51789063 103.32067383 -252.26953125 102.45556641 C-246.51716103 82.74456764 -236.70113513 64.10773097 -224 48 C-223.26265625 47.05382812 -222.5253125 46.10765625 -221.765625 45.1328125 C-213.11693136 34.30661088 -204.07112121 24.40424956 -193 16 C-192.15695312 15.35248779 -192.15695312 15.35248779 -191.296875 14.69189453 C-176.45674043 3.33193282 -161.46260535 -5.28567809 -144 -12 C-142.18628906 -12.70962891 -142.18628906 -12.70962891 -140.3359375 -13.43359375 C-95.02956567 -29.84820476 -41.70295138 -23.72673523 0 0 Z " fill="#FCFDF5" transform="translate(521,291)"/>
<path d="M0 0 C8.54412684 4.86816529 13.56804899 11.11617968 16.6875 20.53125 C18.37627995 30.61533171 15.84781754 39.6556307 9.97265625 47.953125 C7.53222045 50.87951192 5.59967289 53.10347919 2.11347961 54.73835754 C-0.59033645 56.32809389 -0.59033645 56.32809389 -0.95173645 59.35966492 C-0.95839828 60.5077211 -0.96506012 61.65577728 -0.97192383 62.83862305 C-1.00138847 64.79030647 -1.00138847 64.79030647 -1.03144836 66.78141785 C-1.02800488 68.20193619 -1.02401974 69.62245332 -1.01953125 71.04296875 C-1.03264513 72.49601821 -1.04794841 73.94904943 -1.06535339 75.40205383 C-1.10525397 79.22439155 -1.11539695 83.04625299 -1.11938477 86.86877441 C-1.1287069 90.7700856 -1.16611447 94.67111583 -1.20117188 98.57226562 C-1.26579888 106.22526268 -1.29899677 113.87797391 -1.3125 121.53125 C-1.9725 121.53125 -2.6325 121.53125 -3.3125 121.53125 C-3.3125 122.19125 -3.3125 122.85125 -3.3125 123.53125 C-17.8325 123.53125 -32.3525 123.53125 -47.3125 123.53125 C-47.3125 138.05125 -47.3125 152.57125 -47.3125 167.53125 C-45.6625 168.19125 -44.0125 168.85125 -42.3125 169.53125 C-35.8820798 173.31020599 -31.96729087 178.10974828 -28.3125 184.53125 C-27.69375 185.583125 -27.075 186.635 -26.4375 187.71875 C-23.4862869 197.72008328 -24.73208713 208.22889465 -29.3125 217.53125 C-35.18113717 226.81460304 -42.16682466 232.21955288 -52.75390625 235.0234375 C-61.69212027 236.79743418 -70.03957017 235.31287111 -78.3125 231.53125 C-84.74518626 227.08255801 -89.87443616 221.57928086 -93.3125 214.53125 C-93.67601562 213.8196875 -94.03953125 213.108125 -94.4140625 212.375 C-96.87554701 204.58386641 -96.87454287 192.89969748 -93.6875 185.34375 C-92.57421875 183.37890625 -92.57421875 183.37890625 -91.3125 181.53125 C-90.86519531 180.82871094 -90.41789063 180.12617187 -89.95703125 179.40234375 C-86.16890352 173.88772349 -81.7813558 169.68753527 -75.3125 167.53125 C-74.9825 153.01125 -74.6525 138.49125 -74.3125 123.53125 C-107.6425 123.53125 -140.9725 123.53125 -175.3125 123.53125 C-174.9825 138.05125 -174.6525 152.57125 -174.3125 167.53125 C-171.3425 169.51125 -168.3725 171.49125 -165.3125 173.53125 C-158.49670761 180.21596946 -154.21732137 187.74843532 -153.76879883 197.45483398 C-153.66291814 209.14983679 -156.49259038 217.7825506 -164.66796875 226.296875 C-173.89203931 234.090329 -183.56757086 236.31424528 -195.3125 235.53125 C-206.10678957 233.70642741 -214.03184422 227.31460364 -220.3125 218.53125 C-225.2298416 209.48632167 -227.06234875 199.97337783 -224.6640625 189.7734375 C-221.35440481 180.74966996 -215.57541413 173.42779171 -207.3125 168.53125 C-205.65627302 168.14941093 -203.98981446 167.80603189 -202.3125 167.53125 C-202.31472061 166.64619781 -202.31694122 165.76114563 -202.31922913 164.84927368 C-202.33924156 156.52056025 -202.35447901 148.19185486 -202.36431217 139.86312294 C-202.36953738 135.58093874 -202.37662848 131.29877436 -202.38793945 127.01660156 C-202.39878117 122.88637471 -202.40477957 118.75616695 -202.40737724 114.62592697 C-202.40922917 113.0478218 -202.41284535 111.46971771 -202.41823006 109.89162064 C-202.42545752 107.68635016 -202.42649022 105.48115926 -202.42602539 103.27587891 C-202.428246 102.01901276 -202.43046661 100.76214661 -202.43275452 99.4671936 C-202.3125 96.53125 -202.3125 96.53125 -201.3125 94.53125 C-144.5525 94.53125 -87.7925 94.53125 -29.3125 94.53125 C-29.3125 81.99125 -29.3125 69.45125 -29.3125 56.53125 C-30.9625 55.87125 -32.6125 55.21125 -34.3125 54.53125 C-39.5875165 50.473545 -42.80843664 45.62153476 -45.3125 39.53125 C-45.93125 38.1390625 -45.93125 38.1390625 -46.5625 36.71875 C-48.88855852 26.8330013 -47.06312703 18.67949272 -41.83984375 10.1171875 C-31.86684721 -3.98175324 -15.42304783 -7.38337396 0 0 Z " fill="#172932" transform="translate(691.3125,598.46875)"/>
<path d="M0 0 C3.70232413 0.60253379 6.67967378 1.64745757 10.03613281 3.30981445 C11.01616272 3.79154617 11.99619263 4.27327789 13.00592041 4.76960754 C14.06099792 5.29551987 15.11607544 5.82143219 16.203125 6.36328125 C17.3131488 6.91050339 18.42317261 7.45772552 19.5668335 8.02153015 C22.53160531 9.48415834 25.49386078 10.95164871 28.45489502 12.42181396 C32.5257179 14.44165411 36.60090259 16.45268043 40.67565918 18.46456909 C42.985989 19.60555134 45.2956413 20.74790649 47.60461426 21.89163208 C53.4273453 24.77021588 59.26397681 27.61267917 65.13476562 30.39208984 C66.27604919 30.9332695 67.41733276 31.47444916 68.59320068 32.0320282 C70.75369253 33.05327725 72.91684361 34.06892649 75.08306885 35.07795715 C79.82632895 37.32012022 84.09706086 39.40965444 88 43 C87.37985239 47.58140904 85.51312127 51.33441635 83.4140625 55.390625 C83.05567291 56.09479553 82.69728333 56.79896606 82.32803345 57.5244751 C81.22531709 59.68645876 80.1138433 61.84373121 79 64 C78.36813053 65.22849838 77.73629285 66.45701311 77.10449219 67.68554688 C74.84848963 72.05798063 72.58186399 76.42485716 70.31521606 80.79177856 C65.53932446 90.00492432 60.86429939 99.26161038 56.28515625 108.57421875 C55.3049356 110.5609145 54.32462968 112.54756819 53.34423828 114.53417969 C51.90049159 117.46068186 50.46109645 120.38890995 49.0355835 123.32434082 C40.52452605 140.84926652 31.7260018 156.00114493 13 164 C11.80117188 164.52980469 11.80117188 164.52980469 10.578125 165.0703125 C-0.03706182 168.8982132 -15.33461782 168.79841329 -25.640625 164.26953125 C-31.85421662 160.92612517 -37.24681207 157.26704608 -42 152 C-42.46921875 151.52304687 -42.9384375 151.04609375 -43.421875 150.5546875 C-51.47559703 141.96128307 -55.09696006 132.04262387 -55.3125 120.4375 C-55.34988281 119.13683594 -55.38726562 117.83617187 -55.42578125 116.49609375 C-54.97120835 106.77736978 -50.08021048 97.52415088 -45.875 88.9375 C-45.4521875 88.05384766 -45.029375 87.17019531 -44.59375 86.25976562 C-41.69599141 80.26743536 -38.62426241 74.37802018 -35.50390625 68.5 C-31.28939254 60.55003351 -27.23083896 52.52846929 -23.22265625 44.47265625 C-22.63883179 43.29948349 -22.05500732 42.12631073 -21.45349121 40.91758728 C-19.03618891 36.05666791 -16.62287424 31.19377651 -14.21264648 26.3293457 C-13.00360399 23.8896496 -11.79242199 21.45103755 -10.57896423 19.01353455 C-9.44920163 16.74372365 -8.32271459 14.47227859 -7.19996643 12.19898987 C-6.69190964 11.17949753 -6.18385284 10.16000519 -5.66040039 9.10961914 C-5.21757217 8.21650528 -4.77474396 7.32339142 -4.3184967 6.4032135 C-3.04820252 4.08785835 -1.63951543 2.06598039 0 0 Z " fill="#162830" transform="translate(300,678)"/>
<path d="M0 0 C8.52240213 4.9626023 14.78198683 12.70351752 18 22 C20.51319625 32.7301003 19.33577959 42.71383786 13.6796875 52.21875 C8.7340944 59.24527571 3.21692662 64.3930289 -5 67 C-5.07964091 87.49713767 -5.1079453 107.99377409 -5.07515812 128.49105263 C-5.06113081 138.00840462 -5.06389355 147.52519843 -5.10620117 157.04248047 C-5.14303484 165.33795832 -5.1483468 173.6327555 -5.11582941 181.92826211 C-5.09971125 186.32085577 -5.09936248 190.71217277 -5.13676643 195.10466385 C-5.17148679 199.24050888 -5.16401351 203.3741457 -5.12437057 207.50992584 C-5.11723531 209.02644228 -5.12543164 210.54312151 -5.15022469 212.05945206 C-5.53209449 220.21846884 -5.53209449 220.21846884 -2.00956535 227.18764877 C0.26962934 228.71253118 2.51321943 229.85855676 5 231 C12.75332135 237.97433773 17.00684669 245.02991512 17.56933594 255.44482422 C17.83774355 266.86156569 14.62820258 275.34438269 7 284 C-1.42207037 290.5923554 -10.61322872 294.73806239 -21.42578125 294.34765625 C-32.02353377 292.9163968 -41.00561216 287.32890143 -47.61328125 279.01953125 C-53.75508828 270.07498412 -55.27720953 261.78011714 -54 251 C-53.0657431 247.39576018 -51.77254506 244.26716494 -50 241 C-49.443125 239.96875 -48.88625 238.9375 -48.3125 237.875 C-43.66557478 232.09774162 -39.38502239 227.47700448 -32 226 C-32 173.2 -32 120.4 -32 66 C-33.65 65.67 -35.3 65.34 -37 65 C-45.39693682 58.85432205 -52.05153623 51.40562565 -54 41 C-55.2622039 29.74047251 -54.56100509 20.59962726 -48 11 C-47.54367187 10.31550781 -47.08734375 9.63101563 -46.6171875 8.92578125 C-35.77336638 -5.35708028 -15.37417569 -7.94703767 0 0 Z " fill="#152831" transform="translate(765,506)"/>
<path d="M0 0 C6.59918684 5.44081894 12.01143997 13.40832866 13.3125 21.9375 C14.39472016 33.93210672 12.36936605 43.4030167 4.625 52.8125 C-3.56731176 61.29739432 -12.53767054 64.79172115 -24.125 65.3125 C-33.49435138 65.12878723 -41.53286711 60.7953734 -48.3125 54.5 C-49.488125 53.2315625 -49.488125 53.2315625 -50.6875 51.9375 C-51.368125 51.215625 -52.04875 50.49375 -52.75 49.75 C-59.53261591 39.90426723 -60.23632275 28.98151855 -58.25 17.3828125 C-55.35467504 8.37111355 -47.58378065 0.75357861 -39.6875 -4.0625 C-26.5420998 -10.4202581 -11.62239909 -8.12591264 0 0 Z " fill="#142730" transform="translate(635.6875,188.0625)"/>
<path d="M0 0 C1.08995773 -0.00855011 1.08995773 -0.00855011 2.20193481 -0.01727295 C3.7364967 -0.02667019 5.27107829 -0.03323579 6.80566406 -0.03710938 C9.09218309 -0.0467045 11.37775794 -0.07773065 13.6640625 -0.109375 C24.22611012 -0.18284714 33.89297886 1.1147704 44.2578125 3.203125 C42.9378125 9.803125 41.6178125 16.403125 40.2578125 23.203125 C29.96236934 22.30227372 29.96236934 22.30227372 25.59375 21.6875 C-6.00651682 17.70562664 -35.78757129 26.9672437 -61.12939453 45.92919922 C-64.98131862 48.97178776 -68.53311007 52.34063783 -72.0859375 55.72265625 C-74.7421875 58.203125 -74.7421875 58.203125 -77.29296875 60.1796875 C-80.06869364 62.4728701 -82.17970766 64.9579252 -84.4296875 67.765625 C-85.19667969 68.71566406 -85.96367187 69.66570312 -86.75390625 70.64453125 C-88.8113517 73.2282713 -88.8113517 73.2282713 -90.7421875 76.203125 C-94.95873106 74.71677384 -98.36697355 72.59063341 -102.0546875 70.078125 C-103.12332031 69.35367188 -104.19195312 68.62921875 -105.29296875 67.8828125 C-106.10121094 67.32851563 -106.90945313 66.77421875 -107.7421875 66.203125 C-95.23076121 39.16838478 -64.38665341 17.7287655 -37.10864258 7.59960938 C-25.00008353 3.31243329 -12.92355196 0.08123299 0 0 Z " fill="#132934" transform="translate(422.7421875,289.796875)"/>
<path d="M0 0 C3.95906817 1.43308135 7.28718181 3.33141949 10.8125 5.625 C11.78832031 6.25664062 12.76414062 6.88828125 13.76953125 7.5390625 C14.50558594 8.02117187 15.24164063 8.50328125 16 9 C15.34986915 13.15619366 13.94164623 16.59641668 12.25 20.4375 C8.10280705 30.24443617 6.14056027 40.60975833 4 51 C-2.6 51 -9.2 51 -16 51 C-16 44.77592853 -15.87381588 39.86607512 -14.4375 34 C-14.26404053 33.28013916 -14.09058105 32.56027832 -13.91186523 31.81860352 C-11.04428852 20.60478613 -6.67110987 9.50127769 0 0 Z " fill="#152D37" transform="translate(309,365)"/>
<path d="M0 0 C4.79872242 2.62571604 8.23393161 5.71222425 10.3125 10.8125 C10.99323835 16.0526022 10.96983258 20.4734892 8.625 25.25 C5.12641217 29.12681355 1.85032413 32.53209705 -3.48046875 33.12109375 C-13.77614369 33.51206875 -13.77614369 33.51206875 -17.8125 30.1875 C-21.87551617 25.85227183 -23.83203338 21.89840174 -24.1875 15.9375 C-23.99965257 10.51442632 -22.33355603 6.8084301 -18.6875 2.8125 C-12.83976243 -2.21201238 -6.98283569 -2.2487098 0 0 Z " fill="#152931" transform="translate(476.6875,475.1875)"/>
<path d="M0 0 C4.46533508 4.83744633 6.60417768 8.97872155 6.44140625 15.5546875 C5.4903312 20.82347494 2.30971157 24.95425546 -1.640625 28.453125 C-6.1445849 31.44173391 -10.80202776 31.93126376 -16 31 C-21.22522754 28.38738623 -25.36911872 24.26176255 -28 19 C-28.51838766 13.79912708 -28.66595399 9.38313522 -26.375 4.625 C-18.5329038 -4.04258001 -10.52500319 -6.6977293 0 0 Z " fill="#162A36" transform="translate(480,542)"/>
<path d="M0 0 C0.66 0 1.32 0 2 0 C4.07965362 6.75887425 4.21133202 12.95559921 4 20 C3.34 20.33 2.68 20.66 2 21 C1.34 14.07 0.68 7.14 0 0 Z " fill="#2B3C40" transform="translate(780,525)"/>
<path d="M0 0 C0.99 0.33 1.98 0.66 3 1 C0.03 3.64 -2.94 6.28 -6 9 C-6.33 8.01 -6.66 7.02 -7 6 C-5.90716423 4.96704564 -4.80029421 3.94892165 -3.6875 2.9375 C-3.07261719 2.36902344 -2.45773437 1.80054688 -1.82421875 1.21484375 C-0.92123047 0.61349609 -0.92123047 0.61349609 0 0 Z " fill="#222F36" transform="translate(481,769)"/>
<path d="M0 0 C0.66 0 1.32 0 2 0 C3.03159626 3.09478879 2.97482862 4.52631393 2.5625 7.6875 C2.46066406 8.49574219 2.35882812 9.30398438 2.25390625 10.13671875 C2.17011719 10.75160156 2.08632813 11.36648438 2 12 C1.34 11.67 0.68 11.34 0 11 C0 7.37 0 3.74 0 0 Z " fill="#344143" transform="translate(644,621)"/>
<path d="M0 0 C1.98 0 3.96 0 6 0 C6 0.66 6 1.32 6 2 C8.97 2 11.94 2 15 2 C15 2.33 15 2.66 15 3 C13.25008666 3.02715383 11.50005055 3.04646551 9.75 3.0625 C8.28820312 3.07990234 8.28820312 3.07990234 6.796875 3.09765625 C4.34241322 3.01195577 2.33831086 2.70706066 0 2 C0 1.34 0 0.68 0 0 Z " fill="#4B5759" transform="translate(602,250)"/>
<path d="M0 0 C0.33 0.99 0.66 1.98 1 3 C-0.28965176 4.37562854 -1.62689293 5.70766393 -3 7 C-3.66 7 -4.32 7 -5 7 C-5 7.66 -5 8.32 -5 9 C-5.66 8.67 -6.32 8.34 -7 8 C-4.69 5.36 -2.38 2.72 0 0 Z " fill="#233539" transform="translate(495,408)"/>
<path d="M0 0 C0.66 0.99 1.32 1.98 2 3 C1.01 4.98 0.02 6.96 -1 9 C-1.66 9 -2.32 9 -3 9 C-2.44271087 5.65626525 -1.64826111 2.96687001 0 0 Z " fill="#26373D" transform="translate(330,502)"/>
<path d="M0 0 C0.33 0 0.66 0 1 0 C1.33 3.63 1.66 7.26 2 11 C1.34 11 0.68 11 0 11 C-1.28571429 3.57142857 -1.28571429 3.57142857 0 0 Z " fill="#3D4B4E" transform="translate(263,462)"/>
</svg>
