<?xml version="1.0" encoding="UTF-8"?>
<svg version="1.1" xmlns="http://www.w3.org/2000/svg" width="1024" height="1024">
<path d="M0 0 C337.92 0 675.84 0 1024 0 C1024 337.92 1024 675.84 1024 1024 C686.08 1024 348.16 1024 0 1024 C0 686.08 0 348.16 0 0 Z " fill="#091722" transform="translate(0,0)"/>
<path d="M0 0 C1.02480469 0.50144531 2.04960938 1.00289063 3.10546875 1.51953125 C21.8745834 11.09469488 36.7327455 25.31273092 48 43 C50.10904386 46.16356579 50.42605387 46.4243261 53.7890625 47.5078125 C54.55798828 47.76739746 55.32691406 48.02698242 56.11914062 48.29443359 C56.94607422 48.56852051 57.77300781 48.84260742 58.625 49.125 C72.85515267 54.12281518 84.66654487 61.00438949 96 71 C96.63035156 71.49886719 97.26070312 71.99773437 97.91015625 72.51171875 C103.45966461 76.92351469 107.67647588 82.41981143 112 88 C112.68320312 88.87914062 113.36640625 89.75828125 114.0703125 90.6640625 C128.89909516 110.37762062 139.79792474 134.64664743 138.81640625 159.72265625 C138.77449862 161.4133585 138.73485904 163.1041182 138.69726562 164.79492188 C138.63602081 167.42015264 138.56336702 170.04218127 138.45141602 172.66577148 C137.99374587 183.84539541 138.61678589 191.57882594 144.99072266 200.97314453 C157.87045074 220.37568022 157.52146129 250.62884753 153.625 272.625 C149.29535499 294.0314153 139.36980345 315.53460021 125 332 C124.278125 332.83144531 123.55625 333.66289063 122.8125 334.51953125 C120.57609955 337.04712968 118.29977679 339.53001598 116 342 C115.30261719 342.763125 114.60523438 343.52625 113.88671875 344.3125 C107.94565397 350.56853897 101.259815 355.398453 94 360 C93.26241455 360.47421387 92.5248291 360.94842773 91.76489258 361.43701172 C85.60383093 365.28270763 79.33416463 368.15004315 72.5625 370.75 C71.12293945 371.32814453 71.12293945 371.32814453 69.65429688 371.91796875 C59.37445555 375.91914605 49.50098043 377.40667223 38.5 377.4375 C37.46770264 377.44281738 36.43540527 377.44813477 35.37182617 377.45361328 C27.50169155 377.34581151 20.44133578 376.06942411 12.9765625 373.60327148 C9.78928152 372.57076697 7.55844069 371.87246957 4.24609375 372.62890625 C1.84489703 374.09468025 -0.14864347 375.69168798 -2.25 377.5625 C-17.08180972 389.61607988 -35.17999692 395.90888855 -54 398 C-54 387.11 -54 376.22 -54 365 C-49.38 364.01 -44.76 363.02 -40 362 C-25.86065953 357.46473985 -12.96217306 349.40829233 -5.40234375 336.2109375 C-4.19904104 333.83114662 -3.0619795 331.44561625 -2 329 C-1.58492187 329.35191406 -1.16984375 329.70382812 -0.7421875 330.06640625 C14.14929784 341.99828676 30.26174076 345.80238336 49 344 C70.98215882 340.12411177 91.21045845 325.75390025 103.91894531 307.6940918 C119.62802973 284.39349257 127.38919895 257.37535355 121.97412109 229.20092773 C119.38033227 217.84408613 114.48359854 206.90871042 107 197.9375 C104.60644231 195.06414031 104.0338679 194.21825978 103.4375 190.375 C104 187 104 187 105.01171875 184.15625 C109.42561217 168.89948775 107.04861503 148.91334308 102 134 C101.649375 132.94554687 101.29875 131.89109375 100.9375 130.8046875 C93.00611791 109.7094143 76.46747531 91.859347 56.140625 82.28125 C50.02003711 79.78429374 43.20705943 77.01950402 36.52490234 76.98852539 C33.8127082 76.95207793 31.5940401 76.80710183 29 76 C26.51162356 73.37363247 25.2702995 70.37004909 23.875 67.0625 C23.04951385 65.31398205 22.2162075 63.569134 21.375 61.828125 C20.97539063 60.98958984 20.57578125 60.15105469 20.1640625 59.28710938 C17.78742947 54.61758373 14.54173845 50.81752955 11 47 C10.4121875 46.32195312 9.824375 45.64390625 9.21875 44.9453125 C0.90317136 35.8897883 -10.61482121 29.39881908 -22 25 C-23.10859375 24.53464844 -24.2171875 24.06929688 -25.359375 23.58984375 C-33.82027571 20.31248104 -41.82061774 19.53528027 -50.875 19.5 C-51.92059082 19.49379639 -52.96618164 19.48759277 -54.04345703 19.48120117 C-63.72788918 19.6388905 -71.63113858 21.8894869 -80 26.6875 C-85.81573499 30 -85.81573499 30 -88 30 C-88 163.65 -88 297.3 -88 435 C-97.9 435 -107.8 435 -118 435 C-118 301.35 -118 167.7 -118 30 C-119.32 29.67 -120.64 29.34 -122 29 C-124.91660484 27.59023732 -127.77120581 26.08087429 -130.63671875 24.5703125 C-138.60002969 20.85225095 -145.38524829 19.47078695 -154.1875 19.5625 C-155.19981689 19.56934814 -156.21213379 19.57619629 -157.25512695 19.58325195 C-165.45156774 19.75800638 -172.32269359 21.01165026 -180 24 C-180.99644531 24.350625 -181.99289062 24.70125 -183.01953125 25.0625 C-195.59312616 29.8084965 -206.51815751 37.55238799 -216 47 C-216.61101562 47.5878125 -217.22203125 48.175625 -217.8515625 48.78125 C-224.93883208 56.15977723 -230.4833299 66.41753915 -234 76 C-235.02738281 76.09796875 -236.05476563 76.1959375 -237.11328125 76.296875 C-245.57299208 77.17675048 -253.19897398 78.41605036 -261 82 C-262.01320313 82.46019531 -263.02640625 82.92039062 -264.0703125 83.39453125 C-284.58169915 93.55137452 -299.96489612 111.97395239 -307.87890625 133.37695312 C-313.64394688 150.49016839 -315.19677328 168.48750354 -310.65625 186.08203125 C-310.01892368 188.91585721 -309.65528547 191.11780349 -310 194 C-311.25 195.89453125 -311.25 195.89453125 -313 197.8125 C-327.91621503 216.14764464 -331.10982412 239.16488876 -328.78466797 262.12646484 C-325.23646327 288.1219456 -309.52738277 313.25710502 -288.875 329.0625 C-271.57154767 341.27104692 -252.18775998 346.67178684 -231.1015625 343.57421875 C-222.2166929 341.16851486 -212.37731315 336.62483443 -206 330 C-205.34 330 -204.68 330 -204 330 C-202.93813004 331.75570545 -201.95224167 333.55750028 -201 335.375 C-192.93874649 349.5155046 -180.43096308 358.37071108 -165 363 C-160.71 363.66 -156.42 364.32 -152 365 C-152 375.89 -152 386.78 -152 398 C-168.38164128 395.65976553 -168.38164128 395.65976553 -175.0625 393.3125 C-175.81998535 393.05122314 -176.5774707 392.78994629 -177.35791016 392.52075195 C-189.09588617 388.32649103 -201.08183689 381.91816311 -210 373 C-215.26401124 373.35688212 -220.07846451 374.26681912 -225.1875 375.5625 C-253.18069529 381.66241958 -278.88050653 372.9366133 -302.58178711 358.35375977 C-309.27537116 354.05047796 -315.02334707 349.01766723 -320.61865234 343.3828125 C-321.90505621 342.09504448 -323.22673048 340.84277799 -324.55078125 339.59375 C-347.36301559 317.81669268 -360.51435807 282.59713166 -361.28369141 251.50854492 C-361.48701697 232.48037331 -359.15263675 211.3804121 -347.78125 195.5 C-343.8567509 189.13380848 -344.42241274 182.56633661 -344.72039795 175.37277222 C-344.87635676 171.4607278 -344.91847881 167.54745154 -344.96484375 163.6328125 C-344.97541809 162.87167648 -344.98599243 162.11054047 -344.99688721 161.32633972 C-345.08296281 152.65647549 -344.16942053 144.39833209 -342 136 C-341.81195801 135.27184082 -341.62391602 134.54368164 -341.43017578 133.79345703 C-335.31028258 111.27595023 -322.91640315 92.73509862 -307 76 C-306.40574219 75.34128906 -305.81148438 74.68257813 -305.19921875 74.00390625 C-295.22258067 63.28459039 -278.95481125 52.74743595 -264.63647461 49.31103516 C-258.73944084 47.89352568 -254.61721503 46.44045327 -251.19946289 41.21826172 C-249.76813871 38.76279761 -248.4077273 36.27202362 -247.05078125 33.77490234 C-233.41975886 10.75038265 -203.40015723 -3.26751447 -178.671875 -10.08984375 C-155.91444794 -15.73078046 -128.96524283 -13.52372619 -108.015625 -3.07421875 C-102.18513679 -0.99729614 -97.72164744 -3.41987599 -92.3125 -5.8125 C-62.44687036 -18.22779059 -28.50579964 -14.3972852 0 0 Z " fill="#FAF8F1" transform="translate(615,274)"/>
<path d="M0 0 C0.73476563 0.73734375 1.46953125 1.4746875 2.2265625 2.234375 C38.92380531 38.82824529 94.47308507 44.29243393 143.85421753 44.31347656 C160.66267511 44.24918667 177.31602229 42.98878959 194 41 C195.62083496 40.80712402 195.62083496 40.80712402 197.27441406 40.61035156 C226.62301313 36.87403817 261.7622663 26.40363329 281.390625 2.87109375 C281.92171875 2.25363281 282.4528125 1.63617187 283 1 C283.33 1 283.66 1 284 1 C284.17625846 5.12444805 284.28150609 9.24791183 284.375 13.375 C284.42527344 14.53128906 284.47554687 15.68757812 284.52734375 16.87890625 C284.6934786 26.68086245 282.01143709 32.3154108 275.71875 39.6640625 C269.00644291 45.59641841 261.91551503 49.86516161 254 54 C253.38745361 54.32419922 252.77490723 54.64839844 252.14379883 54.98242188 C238.20036298 62.19484569 223.01819772 66.33250085 207.6875 69.375 C205.93264282 69.73247314 205.93264282 69.73247314 204.14233398 70.09716797 C183.46151764 73.94935419 162.29915471 74.35450042 141.32128906 74.31567383 C137.73732705 74.31248874 134.15417514 74.33620303 130.5703125 74.36132812 C116.92643222 74.39791316 103.75626691 73.60284565 90.29046631 71.37641907 C88.01543489 71.0025366 85.73766248 70.65923716 83.45654297 70.32470703 C60.61835872 66.89912492 35.86179502 59.70060733 17 46 C16.19175781 45.43539062 15.38351562 44.87078125 14.55078125 44.2890625 C7.40774482 39.07051357 2.48087996 33.59233173 0 25 C-0.22705078 22.02392578 -0.22705078 22.02392578 -0.1953125 18.9453125 C-0.18886719 17.83671875 -0.18242187 16.728125 -0.17578125 15.5859375 C-0.15902344 14.44382812 -0.14226562 13.30171875 -0.125 12.125 C-0.11597656 10.9596875 -0.10695313 9.794375 -0.09765625 8.59375 C-0.07417432 5.72895423 -0.04133141 2.86458465 0 0 Z " fill="#FAF7F1" transform="translate(370,698)"/>
<path d="M0 0 C8.74833545 7.54456449 14.70164277 15.54558549 17 27 C17 28.65 17 30.3 17 32 C9.74 32 2.48 32 -5 32 C-5.804375 30.30875 -6.60875 28.6175 -7.4375 26.875 C-11.24479289 19.881462 -15.91886023 16.87052239 -23 13.625 C-31.21918498 11.9126698 -36.78706379 13.06630953 -44.25390625 17.08984375 C-49.96157618 21.06004375 -53.58611682 27.21336074 -55 34 C-56.03924736 41.34591285 -54.13140587 46.89631495 -50 53 C-47.86687005 55.36132525 -45.62373342 57.20947922 -43 59 C-42.113125 59.61875 -41.22625 60.2375 -40.3125 60.875 C-33.42883131 63.21284974 -25.48711588 63.03033686 -18.80859375 60.03125 C-10.74616203 55.43409671 -7.85959874 49.57879621 -5 41 C2.59 41 10.18 41 18 41 C14.74858702 57.25706492 9.96487194 68.24752954 -3.67578125 77.9453125 C-16.09834398 85.62365327 -29.73464774 87.14479816 -43.875 83.9375 C-55.91814539 80.01435415 -66.40414625 71.38483536 -72.375 60.25 C-75.54577164 53.90845672 -76.30809091 48.33160606 -78 41 C-88.56 41 -99.12 41 -110 41 C-110.33 42.32 -110.66 43.64 -111 45 C-113 47 -113 47 -116.4375 47.3125 C-120 47 -120 47 -121.9375 45.9375 C-123.63335287 42.84506242 -123.43060657 40.44485259 -123 37 C-121.4375 35 -121.4375 35 -119 34 C-115.25 34.3125 -115.25 34.3125 -112 35 C-111.67 35.99 -111.34 36.98 -111 38 C-99.78 38 -88.56 38 -77 38 C-77 34.7 -77 31.4 -77 28 C-74.65870304 16.4174662 -68.19967999 6.35974399 -59 -1 C-40.16340461 -12.97620833 -18.47924239 -13.86711867 0 0 Z " fill="#F9F8F2" transform="translate(454,475)"/>
<path d="M0 0 C0.19072957 1.87096622 0.32559102 3.74766978 0.4375 5.625 C0.51871094 6.66914062 0.59992188 7.71328125 0.68359375 8.7890625 C-0.19611085 12.92116069 -1.81508976 13.80130043 -5.05102539 16.29931641 C-8.60875805 19.40380917 -10.92244496 23.41781177 -13.4375 27.375 C-13.97826172 28.20644531 -14.51902344 29.03789063 -15.07617188 29.89453125 C-16.39392488 31.92363765 -17.70145919 33.9585671 -19 36 C-14.59133207 38.49913851 -11.17408133 39.42989381 -6.125 39.6875 C-4.97257813 39.75324219 -3.82015625 39.81898438 -2.6328125 39.88671875 C-1.76398438 39.92410156 -0.89515625 39.96148438 0 40 C0 43.63 0 47.26 0 51 C-7.45310805 51.28302942 -13.11512657 50.83189133 -20 48 C-20.91007813 47.63648438 -21.82015625 47.27296875 -22.7578125 46.8984375 C-23.49773437 46.60195313 -24.23765625 46.30546875 -25 46 C-25.70125 46.79664063 -26.4025 47.59328125 -27.125 48.4140625 C-35.81819712 58.17851763 -43.84948778 66.18480034 -57.3515625 68.3828125 C-65.49709639 68.81455458 -72.46855611 65.58902607 -78.625 60.4375 C-82.83915327 56.47035749 -86.12137966 51.99546866 -89.37109375 47.22265625 C-90.80951046 44.9047965 -90.80951046 44.9047965 -93 44 C-93.26039063 44.721875 -93.52078125 45.44375 -93.7890625 46.1875 C-95.82406318 50.91395319 -98.97544538 54.86257313 -102 59 C-102.680625 59.94875 -103.36125 60.8975 -104.0625 61.875 C-108.11487608 66.31954151 -112.01952833 68.43043127 -118 69 C-118.4134502 65.25269737 -118.59574151 61.73402267 -118 58 C-114.9375 55.4375 -114.9375 55.4375 -113.00390625 54.3515625 C-106.15826229 49.73442252 -102.35952551 40.27639166 -99 33 C-105.63719555 29.99447749 -110.71831931 29.72693697 -118 30 C-118 26.37 -118 22.74 -118 19 C-112.27782957 17.09260986 -105.06479426 17.79208263 -99.47265625 19.99609375 C-97.6402151 20.98226785 -95.81908326 21.98939819 -94 23 C-90.72226496 22.24849977 -90.72226496 22.24849977 -89 19 C-83.13223451 10.40221674 -73.76967336 4.25655779 -64 1 C-53.29095313 0.20817956 -44.12621925 0.7930591 -35.375 7.5625 C-31.501826 11.1228761 -28.64046876 15.47082206 -25.69921875 19.8046875 C-24.85810547 20.89136719 -24.85810547 20.89136719 -24 22 C-23.34 22 -22.68 22 -22 22 C-20.67801281 20.35312496 -20.67801281 20.35312496 -19.390625 18.203125 C-18.88273438 17.4090625 -18.37484375 16.615 -17.8515625 15.796875 C-16.7953199 14.11719165 -15.74313865 12.43494657 -14.6953125 10.75 C-10.79877402 4.68001544 -7.76662435 0 0 0 Z " fill="#F5F6F1" transform="translate(677,509)"/>
<path d="M0 0 C0.69609375 0.4125 1.3921875 0.825 2.109375 1.25 C10.02266405 6.48586043 13.64213807 14.02029219 16 23 C12.41694008 23.11627503 8.83436583 23.1872736 5.25 23.25 C4.23421875 23.28351563 3.2184375 23.31703125 2.171875 23.3515625 C-5.43098385 23.45160012 -5.43098385 23.45160012 -8.4609375 21.046875 C-8.96882813 20.37140625 -9.47671875 19.6959375 -10 19 C-12.67137619 17.96173233 -15.14879069 17.75373432 -18 18 C-22.27480669 20.21229556 -22.27480669 20.21229556 -25 24 C-25.3506291 29.34709374 -25.44403637 32.62872307 -22 37 C-18.79826746 38.60086627 -15.47422941 38.49917089 -12 38 C-9.1899654 36.20636089 -7.49059532 34.98119065 -6 32 C1.26 32 8.52 32 16 32 C13.48986967 43.2955865 9.38956928 50.24181011 0.0625 57.1875 C-7.60472256 61.72524396 -15.28977141 61.7534164 -24 61 C-27.32568171 60.08872563 -30.06006806 58.78008537 -33 57 C-34.051875 56.443125 -35.10375 55.88625 -36.1875 55.3125 C-42.72633855 49.93612164 -47.53046456 41.55725579 -48.3984375 33.1328125 C-48.41177996 31.79691879 -48.40346271 30.46065711 -48.375 29.125 C-48.36267334 28.42101074 -48.35034668 27.71702148 -48.33764648 26.99169922 C-48.01334353 16.91389771 -45.38004532 11.53327629 -38.4140625 4.23828125 C-27.96705717 -5.4480198 -12.38767251 -7.80325827 0 0 Z " fill="#FAF8F3" transform="translate(375,405)"/>
<path d="M0 0 C6.77479545 5.59480105 12.14717305 12.3206045 13.48486328 21.22021484 C14.37904075 30.7465657 13.82868542 39.03408064 8.1640625 47.0859375 C3.53995621 47.0859375 2.7697656 46.50080152 -0.5859375 43.5234375 C-3.66089071 40.37348543 -4.75437236 38.77454937 -5.27734375 34.359375 C-5.1934253 31.78078995 -5.02555674 29.20314286 -4.76171875 26.63671875 C-4.85335587 22.25260585 -6.11218627 20.45143587 -8.8359375 17.0859375 C-13.04740908 13.19842528 -16.55052654 11.29370213 -22.2734375 10.7734375 C-28.77389239 11.34365284 -32.60304636 14.26514481 -36.8359375 19.0859375 C-39.24342071 22.69716231 -38.80840853 25.47554741 -38.4609375 29.7109375 C-38.32855951 36.74167957 -40.15613683 40.1621671 -44.6953125 45.390625 C-46.8359375 47.0859375 -46.8359375 47.0859375 -50.8359375 47.0859375 C-56.65269819 37.32879054 -57.68785143 26.37492576 -55.1875 15.18359375 C-51.31352608 5.76354605 -43.84753168 -0.57937163 -34.8359375 -4.9140625 C-22.98258696 -9.65540272 -10.35913746 -6.99170435 0 0 Z " fill="#F7F7F1" transform="translate(461.8359375,344.9140625)"/>
<path d="M0 0 C5.61 0 11.22 0 17 0 C17 24.75 17 49.5 17 75 C11.39 75 5.78 75 0 75 C0 50.25 0 25.5 0 0 Z " fill="#F9F7F1" transform="translate(654,413)"/>
<path d="M0 0 C6.15260806 4.52473051 12.1870269 10.18387754 15.75 17 C15.64522501 20.4575747 13.69539382 23.19863289 11.75 26 C11.09 26 10.43 26 9.75 26 C8.33829235 24.40324822 6.99600532 22.74486398 5.6875 21.0625 C-1.64391711 10.78243217 -1.64391711 10.78243217 -12.125 4.8125 C-15.41570758 4.74656487 -15.41570758 4.74656487 -18.25 7 C-17.77691406 7.38929688 -17.30382812 7.77859375 -16.81640625 8.1796875 C-11.93230022 12.31166024 -7.66327966 16.75666684 -3.4375 21.5546875 C-0.50236015 24.83575455 2.59269697 27.93406586 5.75 31 C4.30366256 34.60411654 2.55863332 36.11402568 -0.6875 38.1875 C-1.46996094 38.69667969 -2.25242187 39.20585938 -3.05859375 39.73046875 C-8.9320505 43.13309521 -15.68545547 42.84657514 -22.25 42 C-28.93561994 38.89274036 -33.64095282 32.57202372 -38.3046875 27.0390625 C-40.16821845 24.76718864 -40.16821845 24.76718864 -43.25 24 C-42.0008258 20.54074837 -40.57472205 17.85306797 -38.25 15 C-33.69788362 16.42972608 -31.17677399 18.7286193 -27.875 22.125 C-27.39675781 22.61274902 -26.91851563 23.10049805 -26.42578125 23.60302734 C-23.01396566 27.11255329 -19.78207013 30.74821409 -16.6875 34.5390625 C-15.20441342 36.26765736 -15.20441342 36.26765736 -12.25 37 C-10.08284443 36.12516085 -10.08284443 36.12516085 -8.25 35 C-8.76851615 30.84887363 -10.96667138 28.92370759 -13.87109375 26.05078125 C-14.80630859 25.12072266 -15.74152344 24.19066406 -16.70507812 23.23242188 C-17.19435791 22.75345459 -17.6836377 22.2744873 -18.18774414 21.78100586 C-19.68575541 20.31420824 -21.17277682 18.83695266 -22.65820312 17.35742188 C-27.05200092 12.64647393 -27.05200092 12.64647393 -32.25 9 C-30.64720186 4.19160559 -26.48483528 2.48814396 -22.25 0 C-15.66951528 -3.21712586 -6.44671448 -3.78394111 0 0 Z " fill="#111A22" transform="translate(632.25,523)"/>
<path d="M0 0 C5.61 0 11.22 0 17 0 C17 21.45 17 42.9 17 65 C11.39 65 5.78 65 0 65 C0 43.55 0 22.1 0 0 Z " fill="#FAF8F0" transform="translate(577,326)"/>
<path d="M0 0 C5.28 0 10.56 0 16 0 C16 22.44 16 44.88 16 68 C10.72 68 5.44 68 0 68 C0 45.56 0 23.12 0 0 Z " fill="#FDFCF4" transform="translate(577,419)"/>
<path d="M0 0 C5.61 0 11.22 0 17 0 C17 18.81 17 37.62 17 57 C11.39 57 5.78 57 0 57 C0 38.19 0 19.38 0 0 Z " fill="#F9F7F0" transform="translate(682,431)"/>
<path d="M0 0 C5.61 0 11.22 0 17 0 C17 18.81 17 37.62 17 57 C11.39 57 5.78 57 0 57 C0 38.19 0 19.38 0 0 Z " fill="#F9F8F0" transform="translate(626,431)"/>
<path d="M0 0 C0.99 0.33 1.98 0.66 3 1 C9.72789192 2.89900175 15.44671907 2.18442698 22 0 C26.455 4.95 26.455 4.95 31 10 C29.72450717 13.8264785 28.52992688 14.19581515 25 16 C20.88398565 17.62925568 18.55466297 18 14 18 C14 26.25 14 34.5 14 43 C15.32 43.33 16.64 43.66 18 44 C19 45 19 45 19.25 48.875 C19.20006601 51.40801531 19.13648888 52.74307975 17.9375 55 C14.82090489 56.60856522 12.43737531 56.42213381 9 56 C6.5 54.4375 6.5 54.4375 5 52 C5.21428571 45.78571429 5.21428571 45.78571429 8 43 C8.37173016 40.3817233 8.37173016 40.3817233 8.4140625 37.3359375 C8.45273437 36.21445312 8.49140625 35.09296875 8.53125 33.9375 C8.5621875 32.761875 8.593125 31.58625 8.625 30.375 C8.66367187 29.19164062 8.70234375 28.00828125 8.7421875 26.7890625 C8.83668845 23.85953309 8.92224558 20.93001403 9 18 C8.40324463 17.9575415 7.80648926 17.91508301 7.19165039 17.87133789 C2.68273652 17.47565863 -0.77940574 17.12005775 -4.5625 14.4375 C-5.22378906 13.98246094 -5.88507813 13.52742188 -6.56640625 13.05859375 C-7.03949219 12.70925781 -7.51257813 12.35992187 -8 12 C-7.41463247 8.33939179 -5.916761 6.45464836 -3.4375 3.75 C-2.79683594 3.04359375 -2.15617187 2.3371875 -1.49609375 1.609375 C-0.75552734 0.81273437 -0.75552734 0.81273437 0 0 Z " fill="#F2F3F0" transform="translate(429,389)"/>
<path d="M0 0 C5.61 0 11.22 0 17 0 C17 14.52 17 29.04 17 44 C11.39 44 5.78 44 0 44 C0 29.48 0 14.96 0 0 Z " fill="#F8F7F1" transform="translate(605,347)"/>
<path d="M0 0 C4.42977671 2.1357852 7.19613671 4.39012714 9 9 C9.67644992 13.98568644 9.533182 17.82699959 7.4375 22.4375 C3.46213579 26.61672904 -0.32374152 27.73392723 -5.9375 28.625 C-10.57190016 28.47112343 -13.16510942 25.87523054 -16.43359375 22.82421875 C-19.40757405 19.36075541 -19.33471728 15.63944668 -19.28515625 11.28515625 C-18.74463564 6.95358701 -16.33529651 4.21101567 -13.1953125 1.36328125 C-9.13565302 -1.15775284 -4.60728465 -0.60095017 0 0 Z " fill="#F7F7F0" transform="translate(429,499)"/>
<path d="M0 0 C5.61 0 11.22 0 17 0 C17 9.57 17 19.14 17 29 C11.39 29 5.78 29 0 29 C0 19.43 0 9.86 0 0 Z " fill="#F8F6F1" transform="translate(549,362)"/>
<path d="M0 0 C5.28 0 10.56 0 16 0 C16 9.57 16 19.14 16 29 C10.72 29 5.44 29 0 29 C0 19.43 0 9.86 0 0 Z " fill="#FCFAF3" transform="translate(549,458)"/>
<path d="M0 0 C3.625 0.25 3.625 0.25 5.5625 1.3125 C7.2390629 4.36976176 6.99028977 6.8406288 6.625 10.25 C5.5625 12.1875 5.5625 12.1875 3.625 13.25 C-2.37806279 13.8931853 -2.37806279 13.8931853 -5.3125 12 C-6.375 10.25 -6.375 10.25 -6.375 6.25 C-7.74785156 6.30220703 -7.74785156 6.30220703 -9.1484375 6.35546875 C-10.33695312 6.38253906 -11.52546875 6.40960938 -12.75 6.4375 C-13.93335938 6.47230469 -15.11671875 6.50710938 -16.3359375 6.54296875 C-17.84027344 6.39794922 -17.84027344 6.39794922 -19.375 6.25 C-20.035 5.26 -20.695 4.27 -21.375 3.25 C-19.12875416 1.00375416 -13.28257472 1.79210398 -10.1015625 1.64453125 C-6.30148646 1.4456103 -3.59262436 0.26612032 0 0 Z " fill="#F0F1EE" transform="translate(412.375,431.75)"/>
<path d="M0 0 C3.31101296 1.15165668 4.3174177 1.8848354 5.875 5 C6.3125 7.5 6.3125 7.5 5.875 10 C4.25 12.3125 4.25 12.3125 1.875 14 C-1.7967087 14.61195145 -3.41313568 14.48706506 -6.5 12.375 C-8.125 10 -8.125 10 -8.6875 7 C-8.125 4 -8.125 4 -6 1.5625 C-3.125 0 -3.125 0 0 0 Z " fill="#F2F0F1" transform="translate(472.125,431)"/>
<path d="M0 0 C1.39456452 0.00667256 2.78911118 0.01863093 4.18359375 0.03515625 C4.89451172 0.03966797 5.60542969 0.04417969 6.33789062 0.04882812 C8.09899388 0.06064761 9.86005411 0.07858362 11.62109375 0.09765625 C11.62109375 0.42765625 11.62109375 0.75765625 11.62109375 1.09765625 C7.66109375 1.09765625 3.70109375 1.09765625 -0.37890625 1.09765625 C-0.37890625 1.75765625 -0.37890625 2.41765625 -0.37890625 3.09765625 C2.92109375 3.09765625 6.22109375 3.09765625 9.62109375 3.09765625 C9.62109375 3.42765625 9.62109375 3.75765625 9.62109375 4.09765625 C7.66343094 4.17847719 5.70482647 4.23676403 3.74609375 4.28515625 C2.11027344 4.33736328 2.11027344 4.33736328 0.44140625 4.390625 C-0.48929687 4.29394531 -1.42 4.19726562 -2.37890625 4.09765625 C-3.03890625 3.10765625 -3.69890625 2.11765625 -4.37890625 1.09765625 C-3.37890625 0.09765625 -3.37890625 0.09765625 0 0 Z " fill="#949BA1" transform="translate(395.37890625,433.90234375)"/>
<path d="M0 0 C0.96291417 3.8516567 0.92891881 4.51655446 0 8 C0.33 8.66 0.66 9.32 1 10 C-0.98 9.34 -2.96 8.68 -5 8 C-3.35 5.36 -1.7 2.72 0 0 Z " fill="#1D292D" transform="translate(662,538)"/>
<path d="M0 0 C0.33 0.66 0.66 1.32 1 2 C0.38125 2.9075 -0.2375 3.815 -0.875 4.75 C-2.44389611 7.14948817 -3.80443821 9.40961612 -5 12 C-5.66 12 -6.32 12 -7 12 C-5.44298069 7.32894208 -2.91552627 3.91294315 0 0 Z " fill="#D0D7D6" transform="translate(294,366)"/>
<path d="M0 0 C0.66 0.33 1.32 0.66 2 1 C0.4169423 5.2742558 -2.50568404 7.26531794 -6 10 C-6.66 9.67 -7.32 9.34 -8 9 C-5.36 6.03 -2.72 3.06 0 0 Z " fill="#DEE2E3" transform="translate(303,355)"/>
<path d="M0 0 C0 3 0 3 -1.25 4.6875 C-3 6 -3 6 -7 6 C-6 3 -6 3 -2.9375 1.3125 C-1.968125 0.879375 -0.99875 0.44625 0 0 Z " fill="#172329" transform="translate(350,357)"/>
<path d="M0 0 C0.66 0 1.32 0 2 0 C1.34 1.98 0.68 3.96 0 6 C-2.97 6 -5.94 6 -9 6 C-9 5.67 -9 5.34 -9 5 C-7.88625 4.731875 -6.7725 4.46375 -5.625 4.1875 C-1.78159049 3.34190981 -1.78159049 3.34190981 0 0 Z " fill="#081017" transform="translate(623,559)"/>
<path d="M0 0 C0 3.90838866 -1.50567876 5.11594107 -4 8 C-4.99 7.67 -5.98 7.34 -7 7 C-4.69 4.69 -2.38 2.38 0 0 Z " fill="#2C373B" transform="translate(331,370)"/>
<path d="M0 0 C-0.5775 0.268125 -1.155 0.53625 -1.75 0.8125 C-4.0325868 2.01719859 -5.9737942 3.40798115 -8 5 C-8.66 4.34 -9.32 3.68 -10 3 C-6.48812804 0.59185923 -4.27343092 -0.36629408 0 0 Z " fill="#2D3138" transform="translate(362,422)"/>
</svg>
